<svg xmlns="http://www.w3.org/2000/svg" xmlns:xlink="http://www.w3.org/1999/xlink" width="222" height="60" viewBox="0 0 222 60">
  <defs>
    <clipPath id="clip-Web_1920_11">
      <rect width="222" height="60"/>
    </clipPath>
  </defs>
  <g id="Web_1920_11" data-name="Web 1920 – 11" clip-path="url(#clip-Web_1920_11)">
    <rect width="222" height="60" fill="#fff"/>
    <g id="databricks" transform="translate(55.01 15)">
      <g id="Group_23" data-name="Group 23">
        <path id="Path_28" data-name="Path 28" d="M0,18.114v4.98L14.94,30.9l14.94-7.816V18.1l-5.27-2.7,5.27-2.763V7.67l-.036.036L14.94,0,.036,7.67H0v4.98l5.27,2.763L0,18.113" fill="#db1905"/>
        <path id="Path_29" data-name="Path 29" d="M24.6,15.424l-9.67,5.053L5.26,15.424l-5.27,2.7L14.93,25.94l14.94-7.816ZM14.942.01l14.94,7.707-14.94,7.816L0,7.717Z" fill="#ff5224"/>
        <path id="Path_30" data-name="Path 30" d="M40.413,14.758h.06l-.06-.6V9.945H39.156V8.865h2.572v11.96H42.94v1.08h-2.2l-.192-1.227h-.074a3.224,3.224,0,0,1-2.78,1.345c-2.158,0-3.784-1.45-3.784-4.213,0-2.7,1.744-4.2,3.8-4.2,2.084.015,2.7,1.138,2.7,1.138Zm0,4.82V15.9a2.766,2.766,0,0,0-2.454-1.168,2.8,2.8,0,0,0-2.75,3.1c0,2.114,1.3,3.12,2.764,3.12a2.714,2.714,0,0,0,2.44-1.375Zm9.2.975a3.3,3.3,0,0,1-3.12,1.493c-1.685,0-2.823-1-2.823-2.365,0-1.523,1.434-2.306,3.725-2.306h2.07V16.7c0-1.4-.8-2-2.3-2-1.42,0-2.13.68-2.13,1.6v.177H43.823v-.4c0-1.183,1.05-2.424,3.37-2.424,2.2,0,3.563.976,3.563,3.12v4.095h.976v1.08H49.766l-.163-1.36Zm-.148-2.232h-1.98c-1.434,0-2.513.414-2.513,1.36,0,.8.754,1.33,1.8,1.33a3.154,3.154,0,0,0,2.7-1.42Zm5.026-6.756v2.188h2.587V14.8H54.5v4.4c0,1.153.5,1.715,1.36,1.715a3.609,3.609,0,0,0,1.463-.266v1.1a4.728,4.728,0,0,1-1.685.28c-1.567,0-2.47-.917-2.47-2.764v-4.48H51.926v-1.05h1.242l.222-2.188ZM64,20.553a3.3,3.3,0,0,1-3.12,1.493c-1.685,0-2.823-1-2.823-2.365,0-1.523,1.434-2.306,3.725-2.306h2.07V16.7c0-1.4-.8-2-2.3-2-1.42,0-2.13.68-2.13,1.6v.177H58.207v-.4c0-1.183,1.05-2.424,3.37-2.424,2.2,0,3.563.976,3.563,3.12v4.095h.976v1.08H64.17l-.163-1.36Zm-.133-2.232h-1.98c-1.434,0-2.513.414-2.513,1.36,0,.8.754,1.33,1.8,1.33a3.154,3.154,0,0,0,2.7-1.42Zm4.7,2.38-.207,1.227h-1V9.953H66.145V8.873h2.513V14.16c0,.074-.06.6-.06.6h.06a3.22,3.22,0,0,1,2.735-1.123c2.025,0,3.784,1.508,3.784,4.2,0,2.764-1.626,4.213-3.755,4.213A3.267,3.267,0,0,1,68.628,20.7h-.074Zm.1-4.8v3.666a2.7,2.7,0,0,0,2.454,1.36c1.45,0,2.75-1,2.75-3.12a2.805,2.805,0,0,0-2.735-3.1,2.84,2.84,0,0,0-2.47,1.183Zm12.906-.935a2.774,2.774,0,0,0-.93-.118c-2.025,0-2.454,2.4-2.454,2.4V20.84h1.33v1.08H75.676V20.84h1.212v-6H75.676V13.744h2.2L78,15.828h.06a2.7,2.7,0,0,1,2.63-2.2,4.509,4.509,0,0,1,.887.1Zm3.7,5.868h1.168v1.08h-3.7v-1.08h1.212V14.847H82.745V13.753h2.513v7.08Zm-.724-8.56a1.035,1.035,0,1,1,1.05-1.05,1.04,1.04,0,0,1-1.05,1.05Zm3.592,5.56a2.834,2.834,0,0,0,2.942,3.12,3.569,3.569,0,0,0,2.676-.887l.458.93a4.313,4.313,0,0,1-3.223,1.05,3.886,3.886,0,0,1-4.14-4.213c0-2.838,1.552-4.2,4.065-4.2,2.557,0,3.474,1.4,3.474,2.927v.443H93.2V16.74c0-1.227-.695-2-2.3-2-1.64-.015-2.75.813-2.75,3.1Zm9.284-.666H99.45l1.966-2.365H100.4v-1.05h3.7V14.8h-1.257l-2.38,2.883,2.5,3.178H104.2v1.05h-1.98l-2.868-3.725H97.425v2.646h1.168v1.08h-3.7v-1.08H96.12V9.955H94.9V8.875h2.543Zm8.574,2.1v.192c0,.843.695,1.508,2.188,1.508s2.173-.488,2.173-1.3c0-.843-1.08-1.123-2.262-1.33-1.463-.266-3.12-.65-3.12-2.4,0-1.4,1.33-2.3,3.15-2.3,2.4,0,3.3,1,3.3,2.232v.6h-1.2v-.384c0-.872-.577-1.375-2.025-1.375-.946,0-1.907.384-1.907,1.242,0,.96,1.153,1.138,2.35,1.36,1.537.3,3.03.77,3.03,2.38,0,1.316-.976,2.365-3.43,2.365-2.513,0-3.444-1.123-3.444-2.277v-.5Z" fill="#444"/>
      </g>
    </g>
  </g>
</svg>
