<svg xmlns="http://www.w3.org/2000/svg" xmlns:xlink="http://www.w3.org/1999/xlink" width="222" height="60" viewBox="0 0 222 60">
  <defs>
    <radialGradient id="radial-gradient" cx="0.496" cy="0.5" r="0.502" gradientTransform="translate(0 -0.009) scale(1 0.991)" gradientUnits="objectBoundingBox">
      <stop offset="0.183" stop-color="#5ea0ef"/>
      <stop offset="1" stop-color="#0078d4"/>
    </radialGradient>
    <clipPath id="clip-path">
      <path id="Path_20" data-name="Path 20" d="M33,14.548A15.276,15.276,0,1,1,14.592,3.239,15.276,15.276,0,0,1,33,14.548Z" transform="translate(-2.862 -2.818)" fill="none"/>
    </clipPath>
    <clipPath id="clip-Web_1920_9">
      <rect width="222" height="60"/>
    </clipPath>
  </defs>
  <g id="Web_1920_9" data-name="Web 1920 – 9" clip-path="url(#clip-Web_1920_9)">
    <rect width="222" height="60" fill="#fff"/>
    <g id="Group_20" data-name="Group 20" transform="translate(-12)">
      <g id="Group_19" data-name="Group 19">
        <path id="Path_17" data-name="Path 17" d="M6.47,12.3a.436.436,0,0,1-.438-.438,5.008,5.008,0,0,0-5-5,.437.437,0,1,1,0-.874,5.008,5.008,0,0,0,5-5,.438.438,0,1,1,.876,0,5.008,5.008,0,0,0,5,5,.438.438,0,1,1,0,.876,5.006,5.006,0,0,0-5,5,.441.441,0,0,1-.438.438ZM37.976,42.641a.351.351,0,0,1-.351-.351,4.005,4.005,0,0,0-4-4,.35.35,0,1,1,0-.7,4,4,0,0,0,4-4,.351.351,0,1,1,.7,0,4,4,0,0,0,4,4,.351.351,0,0,1,0,.7,4.005,4.005,0,0,0-4,4,.351.351,0,0,1-.351.348Z" transform="translate(28.638 10.271)" fill="#50e6ff"/>
        <path id="Path_18" data-name="Path 18" d="M33,14.548A15.276,15.276,0,1,1,14.592,3.239,15.276,15.276,0,0,1,33,14.548Z" transform="translate(32.017 13.657)" fill="url(#radial-gradient)"/>
        <g id="Group_18" data-name="Group 18" transform="translate(34.878 16.474)" clip-path="url(#clip-path)">
          <path id="Path_19" data-name="Path 19" d="M10.074,25.6a4.077,4.077,0,1,0,.012-8.152A3.254,3.254,0,0,0,10.1,17.1a4.11,4.11,0,0,0-4.135-4.072H2.913A15.56,15.56,0,0,0,6.883,25.6ZM33.313,12.407a.236.236,0,0,0-.017-.11,14.88,14.88,0,0,0-3.5-7.169,4.543,4.543,0,0,0-.719-.224,4.5,4.5,0,0,0-5.725,4.14,4.978,4.978,0,0,0-.5-.032,4.324,4.324,0,0,0-1.446,8.4,3.612,3.612,0,0,0,1.347.249h5.053a33.487,33.487,0,0,0,5.506-5.252Z" transform="translate(-2.986 0.033)" fill="#f2f2f2"/>
        </g>
        <path id="Path_21" data-name="Path 21" d="M42.047,5.691C40.481,3.084,36.82,2.069,31.7,2.831a36.357,36.357,0,0,0-5.183,1.125,16.07,16.07,0,0,1,3.8,1.909c.6-.132,1.2-.289,1.78-.376a18.644,18.644,0,0,1,2.746-.222,5.446,5.446,0,0,1,4.876,1.8c.953,1.588.149,4.3-2.205,7.468A41.627,41.627,0,0,1,25.7,24.624a41.714,41.714,0,0,1-14.5,5.631c-3.893.582-6.676,0-7.629-1.583s-.149-4.306,2.205-7.455c.291-.391.363-.582.694-.976a15.562,15.562,0,0,1,.065-4.057A28.755,28.755,0,0,0,3.626,19.6c-3.084,4.125-3.92,7.834-2.357,10.44a7.878,7.878,0,0,0,7.219,3.109A20.994,20.994,0,0,0,11.6,32.9a44.445,44.445,0,0,0,15.48-5.974A44.328,44.328,0,0,0,39.68,16.14c3.094-4.135,3.93-7.841,2.367-10.45Z" transform="translate(28.5 13.308)" fill="#50e6ff"/>
      </g>
      <text id="Azure_Cosmos_DB" data-name="Azure Cosmos DB" transform="translate(79 37)" font-size="18" font-family="SegoeUI-Semilight, Segoe UI" font-weight="300"><tspan x="0" y="0">Azure Cosmos DB</tspan></text>
    </g>
  </g>
</svg>
