<svg xmlns="http://www.w3.org/2000/svg" xmlns:xlink="http://www.w3.org/1999/xlink" width="222" height="60" viewBox="0 0 222 60">
  <defs>
    <clipPath id="clip-Web_1920_12">
      <rect width="222" height="60"/>
    </clipPath>
  </defs>
  <g id="Web_1920_12" data-name="Web 1920 – 12" clip-path="url(#clip-Web_1920_12)">
    <rect width="222" height="60" fill="#fff"/>
    <g id="mysql" transform="translate(79.458 -11.3)">
      <path id="Path_31" data-name="Path 31" d="M-18.458,6.58H81.4V75.79H-18.458Z" fill="none"/>
      <path id="Path_32" data-name="Path 32" d="M24.654,98.815h-2.7q-.143-6.844-.789-12.872h-.024L17.021,98.815H14.963L10.872,85.943h-.024q-.455,5.789-.574,12.872H7.81q.238-8.614,1.2-16.151h3.351l3.9,11.868h.024L20.2,82.664h3.206q1.053,8.829,1.244,16.151M36.377,86.9q-1.651,8.959-4.355,13.022-2.106,3.128-4.618,3.129a4.539,4.539,0,0,1-1.651-.4v-1.44a7.95,7.95,0,0,0,1.124.072,2.717,2.717,0,0,0,1.891-.647,2.359,2.359,0,0,0,.86-1.77,11.776,11.776,0,0,0-.67-2.752L25.993,86.9h2.656l2.129,6.89a9.3,9.3,0,0,1,.6,3.279A45.007,45.007,0,0,0,33.817,86.9h2.56Z" transform="translate(-12.546 -36.339)" fill="#5d87a1"/>
      <path id="Path_33" data-name="Path 33" d="M100.035,98.6H92.356V82.444h2.583V96.608h5.1Zm-9.689.39-2.969-1.465a5.518,5.518,0,0,0,.742-.721q1.893-2.224,1.892-6.579,0-8.015-6.292-8.016a5.959,5.959,0,0,0-4.81,2.035q-1.892,2.225-1.89,6.556,0,4.259,1.674,6.243a5.738,5.738,0,0,0,4.619,1.8,7.443,7.443,0,0,0,2.115-.284l3.866,2.25Zm-9.619-3.622a9.955,9.955,0,0,1-.981-5.071q0-6.1,3.709-6.1A3.112,3.112,0,0,1,86.3,85.649a9.855,9.855,0,0,1,.982,5.025q0,6.15-3.708,6.15a3.106,3.106,0,0,1-2.847-1.461m-4.835-1.245a4.285,4.285,0,0,1-1.507,3.374,5.934,5.934,0,0,1-4.042,1.316A8.094,8.094,0,0,1,65.75,97.3l.694-1.387a7.858,7.858,0,0,0,3.468.956,3.642,3.642,0,0,0,2.285-.644,2.194,2.194,0,0,0,.88-1.793c0-.96-.669-1.78-1.9-2.467-1.132-.622-3.4-1.921-3.4-1.921a3.866,3.866,0,0,1-1.841-3.436,4.012,4.012,0,0,1,1.375-3.17,5.182,5.182,0,0,1,3.554-1.209,7.368,7.368,0,0,1,4.09,1.2l-.623,1.387a7.908,7.908,0,0,0-3.109-.669,2.769,2.769,0,0,0-1.912.6,2,2,0,0,0-.725,1.532c0,.955.683,1.785,1.944,2.486,1.147.623,3.468,1.945,3.468,1.945a3.817,3.817,0,0,1,1.887,3.413" transform="translate(-40.22 -36.12)" fill="#f8981d"/>
      <path id="Path_34" data-name="Path 34" d="M113.427,52.39a9.018,9.018,0,0,0-3.786.547c-.293.117-.759.117-.8.487.158.157.177.41.314.626a4.534,4.534,0,0,0,1.014,1.189c.409.313.82.624,1.25.9.759.47,1.619.743,2.359,1.211.431.272.859.624,1.291.917.212.156.348.41.623.507v-.06c-.138-.176-.177-.429-.312-.625l-.586-.565a9.288,9.288,0,0,0-2.029-1.97c-.625-.43-1.991-1.016-2.245-1.735l-.04-.04a7.774,7.774,0,0,0,1.347-.316c.664-.175,1.269-.135,1.951-.31.313-.078.624-.177.939-.273V52.7c-.353-.352-.6-.819-.976-1.151a25.984,25.984,0,0,0-3.22-2.4c-.606-.391-1.385-.643-2.03-.976-.232-.118-.624-.176-.761-.371a7.951,7.951,0,0,1-.8-1.5c-.564-1.072-1.112-2.262-1.6-3.4a21.107,21.107,0,0,0-1-2.224,19.683,19.683,0,0,0-7.552-7.3,9.359,9.359,0,0,0-2.5-.8L92.82,32.5a7.759,7.759,0,0,1-.9-.684c-1.114-.7-3.981-2.224-4.8-.215-.528,1.27.78,2.518,1.23,3.162a8.97,8.97,0,0,1,.994,1.464c.137.332.176.684.313,1.034a23.376,23.376,0,0,0,1.015,2.616A9.311,9.311,0,0,0,91.4,41.09c.157.216.429.312.489.664a5.6,5.6,0,0,0-.45,1.463A8.6,8.6,0,0,0,92,49.775c.311.488,1.054,1.562,2.048,1.15.88-.351.685-1.463.938-2.438.058-.236.02-.39.137-.545v.038c.272.546.547,1.072.8,1.619a11.127,11.127,0,0,0,2.538,2.613c.468.353.838.957,1.423,1.173v-.059h-.039a2.186,2.186,0,0,0-.448-.389,9.475,9.475,0,0,1-1.015-1.171A25.134,25.134,0,0,1,96.2,48.214c-.314-.606-.586-1.268-.839-1.873-.118-.234-.118-.586-.314-.7a7.3,7.3,0,0,0-.936,1.326,11.038,11.038,0,0,0-.548,2.949l-.077.038c-.622-.156-.838-.8-1.074-1.345a8.452,8.452,0,0,1-.176-5.211c.136-.409.723-1.7.489-2.087-.118-.374-.508-.586-.722-.88a7.933,7.933,0,0,1-.7-1.248c-.468-1.092-.7-2.3-1.208-3.394a10.513,10.513,0,0,0-.976-1.5,9.669,9.669,0,0,1-1.075-1.522c-.1-.215-.233-.566-.077-.8a.311.311,0,0,1,.273-.254c.253-.214.975.058,1.229.176a9.887,9.887,0,0,1,1.932.975c.273.2.566.567.917.664h.411c.623.136,1.326.038,1.912.214a12.563,12.563,0,0,1,2.81,1.346,17.315,17.315,0,0,1,6.087,6.675c.233.448.333.859.546,1.326.411.957.919,1.933,1.327,2.869a12.858,12.858,0,0,0,1.386,2.615c.292.41,1.465.624,1.991.839a13.767,13.767,0,0,1,1.346.545c.664.409,1.325.879,1.95,1.328.311.234,1.288.722,1.346,1.113M93.521,35.432a3.04,3.04,0,0,0-.8.1v.039h.038a6.367,6.367,0,0,0,.625.8c.157.313.294.623.448.936l.038-.039a1.1,1.1,0,0,0,.412-.976,4.461,4.461,0,0,1-.236-.41c-.115-.2-.368-.293-.526-.449" transform="translate(-50.368 -11.475)" fill="#5d87a1"/>
      <path id="Path_35" data-name="Path 35" d="M137.637,111.768h.4V109.79h-.606l-.495,1.35-.538-1.35h-.584v1.979h.382v-1.505h.021l.563,1.505h.291l.561-1.505Zm-3.257,0h.428v-1.643h.56v-.336H133.8v.336h.582Z" transform="translate(-72.72 -49.295)" fill="#f8981d"/>
    </g>
  </g>
</svg>
