<svg xmlns="http://www.w3.org/2000/svg" xmlns:xlink="http://www.w3.org/1999/xlink" width="222" height="60" viewBox="0 0 222 60">
  <defs>
    <clipPath id="clip-Web_1920_10">
      <rect width="222" height="60"/>
    </clipPath>
  </defs>
  <g id="Web_1920_10" data-name="Web 1920 – 10" clip-path="url(#clip-Web_1920_10)">
    <rect width="222" height="60" fill="#fff"/>
    <g id="Group_22" data-name="Group 22" transform="translate(43)">
      <g id="aws-redshift-logo" transform="translate(20 13)">
        <path id="Path_22" data-name="Path 22" d="M807.5,278.47l14.477,3.447V254.8L807.5,258.247Z" transform="translate(-790.265 -249.362)" fill="#205b97"/>
        <path id="Path_23" data-name="Path 23" d="M158.155,254.8l2.758,1.379v24.359l-2.758,1.379Zm-14.477,23.67L129.2,281.917V254.8l14.477,3.447Z" transform="translate(-126.442 -249.362)" fill="#5193ce"/>
        <path id="Path_24" data-name="Path 24" d="M2.758,254.8,0,256.179v24.359l2.758,1.379Z" transform="translate(0 -249.362)" fill="#205b97"/>
        <path id="Path_25" data-name="Path 25" d="M902.486,38.07,908,35.313V2.758L902.486,0,900.8,18.078Z" transform="translate(-881.574 0)" fill="#5193ce"/>
        <path id="Path_26" data-name="Path 26" d="M382.315,38.07,376.8,35.313V2.758L382.315,0,384,18.078Z" transform="translate(-368.758 0)" fill="#205b97"/>
        <path id="Path_27" data-name="Path 27" d="M635.2,0h7.43V37.994H635.2Z" transform="translate(-621.643 0)" fill="#2e73b7"/>
      </g>
      <g id="Group_21" data-name="Group 21" transform="translate(0 2)">
        <g id="Amazon_logo" transform="translate(63 16)">
          <path id="path12" d="M572.549,5.978V4.751a.3.3,0,0,1,.31-.31h5.493a.306.306,0,0,1,.317.31V5.8a1.728,1.728,0,0,1-.414.771l-2.847,4.064a6.065,6.065,0,0,1,3.133.672.559.559,0,0,1,.291.477V13.1c0,.179-.2.388-.4.28a6.328,6.328,0,0,0-5.8.009c-.19.1-.39-.1-.39-.282V11.859a1.483,1.483,0,0,1,.2-.844l3.3-4.729h-2.87a.3.3,0,0,1-.317-.308" transform="translate(-541.336 -4.2)" fill-rule="evenodd"/>
          <path id="path14" d="M172.431,10.874H170.76a.316.316,0,0,1-.3-.284V2.013a.314.314,0,0,1,.322-.308h1.558a.315.315,0,0,1,.3.287V3.113h.031a2.3,2.3,0,0,1,4.37,0,2.468,2.468,0,0,1,4.243-.651,4.565,4.565,0,0,1,.421,2.689l0,5.413a.316.316,0,0,1-.322.31h-1.669a.318.318,0,0,1-.3-.31V6.018a10.736,10.736,0,0,0-.047-1.608.87.87,0,0,0-.983-.738,1.11,1.11,0,0,0-1,.7,5.193,5.193,0,0,0-.155,1.643v4.546a.316.316,0,0,1-.322.31H175.24a.316.316,0,0,1-.3-.31l0-4.546c0-.957.157-2.365-1.03-2.365s-1.154,1.373-1.154,2.365v4.546a.316.316,0,0,1-.322.31" transform="translate(-161.256 -1.441)" fill-rule="evenodd"/>
          <path id="path16" d="M713.072,1.524c2.48,0,3.822,2.13,3.822,4.838,0,2.616-1.483,4.692-3.822,4.692-2.435,0-3.761-2.13-3.761-4.783,0-2.67,1.342-4.746,3.761-4.746m.014,1.751c-1.232,0-1.309,1.678-1.309,2.724s-.016,3.286,1.3,3.286c1.3,0,1.356-1.805,1.356-2.905a7.933,7.933,0,0,0-.249-2.275,1.045,1.045,0,0,0-1.093-.83" transform="translate(-671.008 -1.441)" fill-rule="evenodd"/>
          <path id="path18" d="M874.818,10.874h-1.664a.318.318,0,0,1-.3-.31l0-8.58a.316.316,0,0,1,.322-.28h1.549a.32.32,0,0,1,.3.24V3.256h.031a2.274,2.274,0,0,1,2.278-1.732,2.193,2.193,0,0,1,1.951,1.011,5.452,5.452,0,0,1,.437,2.67v5.4a.321.321,0,0,1-.322.27h-1.676a.317.317,0,0,1-.3-.27V5.945c0-.938.108-2.311-1.046-2.311a1.092,1.092,0,0,0-.966.686,3.8,3.8,0,0,0-.266,1.624v4.619a.321.321,0,0,1-.327.31" transform="translate(-825.717 -1.441)" fill-rule="evenodd"/>
          <path id="path28" d="M410.662,5.336a3.269,3.269,0,0,1-.313,1.772,1.358,1.358,0,0,1-1.156.759c-.642,0-1.018-.489-1.018-1.211,0-1.424,1.276-1.683,2.487-1.683v.362m1.685,4.074a.349.349,0,0,1-.395.04,4.074,4.074,0,0,1-.959-1.114,3.31,3.31,0,0,1-2.755,1.215,2.371,2.371,0,0,1-2.5-2.6,2.836,2.836,0,0,1,1.782-2.731,11.581,11.581,0,0,1,3.143-.581V3.418a2.132,2.132,0,0,0-.2-1.211,1.113,1.113,0,0,0-.938-.435,1.271,1.271,0,0,0-1.342,1,.35.35,0,0,1-.291.306l-1.62-.174a.3.3,0,0,1-.249-.35C406.388.593,408.165,0,409.754,0a3.789,3.789,0,0,1,2.517.832c.813.759.736,1.772.736,2.875v2.6a2.286,2.286,0,0,0,.63,1.549.316.316,0,0,1-.007.444c-.341.284-.947.813-1.281,1.109l0,0" transform="translate(-383.827)" fill-rule="evenodd"/>
          <path id="path30" d="M4.924,5.336a3.269,3.269,0,0,1-.313,1.772,1.355,1.355,0,0,1-1.156.759c-.642,0-1.015-.489-1.015-1.211,0-1.424,1.276-1.683,2.485-1.683v.362M6.61,9.41a.349.349,0,0,1-.395.04,4.115,4.115,0,0,1-.959-1.114A3.307,3.307,0,0,1,2.5,9.551,2.372,2.372,0,0,1,0,6.946,2.84,2.84,0,0,1,1.782,4.215a11.58,11.58,0,0,1,3.143-.581V3.418a2.15,2.15,0,0,0-.2-1.211,1.118,1.118,0,0,0-.938-.435,1.274,1.274,0,0,0-1.345,1,.35.35,0,0,1-.289.306L.529,2.908a.3.3,0,0,1-.249-.35C.653.593,2.428,0,4.017,0A3.789,3.789,0,0,1,6.535.832c.813.759.736,1.772.736,2.875v2.6A2.286,2.286,0,0,0,7.9,7.861a.314.314,0,0,1,0,.444c-.341.284-.947.813-1.281,1.109l0,0" transform="translate(0)" fill-rule="evenodd"/>
        </g>
        <text id="REDSHIFT" transform="translate(63 40)" font-size="12" font-family="SegoeUI-Semibold, Segoe UI" font-weight="600"><tspan x="0" y="0">REDSHIFT</tspan></text>
      </g>
    </g>
  </g>
</svg>
