<svg width="27" height="18" viewBox="0 0 27 18" fill="none" xmlns="http://www.w3.org/2000/svg">
<path d="M0 0.818182C0 0.366313 0.366313 0 0.818182 0H18.8182C19.2701 0 19.6364 0.366313 19.6364 0.818182C19.6364 1.27005 19.2701 1.63636 18.8182 1.63636H0.818182C0.366313 1.63636 0 1.27005 0 0.818182ZM0 9C0 8.54813 0.366313 8.18182 0.818182 8.18182H25.3636C25.8155 8.18182 26.1818 8.54813 26.1818 9C26.1818 9.45187 25.8155 9.81818 25.3636 9.81818H0.818182C0.366313 9.81818 0 9.45187 0 9ZM0.818182 16.3636C0.366313 16.3636 0 16.7299 0 17.1818C0 17.6337 0.366313 18 0.818182 18H15.5455C15.9973 18 16.3636 17.6337 16.3636 17.1818C16.3636 16.7299 15.9973 16.3636 15.5455 16.3636H0.818182Z" fill="black"/>
</svg>
