<svg width="17" height="22" viewBox="0 0 17 22" fill="none" xmlns="http://www.w3.org/2000/svg">
<path d="M5.5 8.9375C5.5 8.5578 5.1922 8.25 4.8125 8.25C4.4328 8.25 4.125 8.5578 4.125 8.9375V18.5625C4.125 18.9422 4.4328 19.25 4.8125 19.25C5.1922 19.25 5.5 18.9422 5.5 18.5625V8.9375ZM8.25 13.75C8.6297 13.75 8.9375 14.0578 8.9375 14.4375L8.9375 18.5625C8.9375 18.9422 8.6297 19.25 8.25 19.25C7.8703 19.25 7.5625 18.9422 7.5625 18.5625L7.5625 14.4375C7.5625 14.0578 7.8703 13.75 8.25 13.75ZM12.375 11.6875C12.375 11.3078 12.0672 11 11.6875 11C11.3078 11 11 11.3078 11 11.6875V18.5625C11 18.9422 11.3078 19.25 11.6875 19.25C12.0672 19.25 12.375 18.9422 12.375 18.5625V11.6875ZM0 2.75C0 1.23122 1.23122 0 2.75 0H9.05546C9.60247 0 10.1271 0.217298 10.5139 0.604092L15.8959 5.98614C16.2827 6.37293 16.5 6.89753 16.5 7.44454V19.25C16.5 20.7688 15.2688 22 13.75 22H2.75C1.23122 22 0 20.7688 0 19.25V2.75ZM2.75 1.375C1.99061 1.375 1.375 1.99061 1.375 2.75V19.25C1.375 20.0094 1.99061 20.625 2.75 20.625H13.75C14.5094 20.625 15.125 20.0094 15.125 19.25V8.25H10.3125C9.17341 8.25 8.25 7.32659 8.25 6.1875V1.375H2.75ZM10.3125 6.875H14.8402L9.625 1.65977V6.1875C9.625 6.5672 9.9328 6.875 10.3125 6.875Z" fill="black"/>
</svg>
