<svg width="104" height="104" viewBox="0 0 104 104" fill="none" xmlns="http://www.w3.org/2000/svg">
<path d="M102 52C102 79.6137 79.6143 102 52.0013 102C24.3856 102 2 79.6137 2 52C2 24.3863 24.3856 2 52.0013 2C79.6143 2 102 24.3863 102 52Z" fill="white" stroke="url(#paint0_linear_3425_7979)" stroke-width="4"/>
<g clip-path="url(#clip0_3425_7979)">
<path d="M38.5 31C34.3579 31 31 34.3579 31 38.5V59.5C31 63.6421 34.3579 67 38.5 67H43.8116L45.3099 64H38.5C36.0147 64 34 61.9853 34 59.5V38.5C34 36.0147 36.0147 34 38.5 34H59.5C61.9853 34 64 36.0147 64 38.5V45.0069C64.3361 45.3895 64.6327 45.8268 64.8787 46.3188L67 50.5621V38.5C67 34.3579 63.6421 31 59.5 31H38.5ZM46 59.5H47.5573L49.0556 56.5H46C45.1716 56.5 44.5 57.1716 44.5 58C44.5 58.8284 45.1716 59.5 46 59.5ZM52.0522 50.5L53.5506 47.5H46C45.1716 47.5 44.5 48.1716 44.5 49C44.5 49.8284 45.1716 50.5 46 50.5H52.0522ZM39.25 42.25C40.4926 42.25 41.5 41.2426 41.5 40C41.5 38.7574 40.4926 37.75 39.25 37.75C38.0074 37.75 37 38.7574 37 40C37 41.2426 38.0074 42.25 39.25 42.25ZM39.25 51.25C40.4926 51.25 41.5 50.2426 41.5 49C41.5 47.7574 40.4926 46.75 39.25 46.75C38.0074 46.75 37 47.7574 37 49C37 50.2426 38.0074 51.25 39.25 51.25ZM39.25 60.25C40.4926 60.25 41.5 59.2426 41.5 58C41.5 56.7574 40.4926 55.75 39.25 55.75C38.0074 55.75 37 56.7574 37 58C37 59.2426 38.0074 60.25 39.25 60.25ZM46 38.5C45.1716 38.5 44.5 39.1716 44.5 40C44.5 40.8284 45.1716 41.5 46 41.5H59.5C60.3284 41.5 61 40.8284 61 40C61 39.1716 60.3284 38.5 59.5 38.5H46ZM56.8088 47.6607C57.9147 45.4469 61.0738 45.4463 62.1806 47.6597L72.6791 68.655C73.6773 70.6513 72.2256 73 69.9935 73H49.0065C46.7749 73 45.3231 70.6522 46.3203 68.6561L56.8088 47.6607ZM60.995 53.4853C60.995 52.6562 60.3229 51.9841 59.4937 51.9841C58.6646 51.9841 57.9924 52.6562 57.9924 53.4853V62.4922C57.9924 63.3213 58.6646 63.9934 59.4937 63.9934C60.3229 63.9934 60.995 63.3213 60.995 62.4922V53.4853ZM59.4937 69.998C60.3229 69.998 60.995 69.3259 60.995 68.4969C60.995 67.6678 60.3229 66.9957 59.4937 66.9957C58.6646 66.9957 57.9924 67.6678 57.9924 68.4969C57.9924 69.3259 58.6646 69.998 59.4937 69.998Z" fill="url(#paint1_linear_3425_7979)"/>
</g>
<defs>
<linearGradient id="paint0_linear_3425_7979" x1="102" y1="52" x2="2" y2="52" gradientUnits="userSpaceOnUse">
<stop stop-color="#B92025"/>
<stop offset="1" stop-color="#80479B"/>
</linearGradient>
<linearGradient id="paint1_linear_3425_7979" x1="73" y1="52" x2="31" y2="52" gradientUnits="userSpaceOnUse">
<stop stop-color="#B92025"/>
<stop offset="1" stop-color="#80479B"/>
</linearGradient>
<clipPath id="clip0_3425_7979">
<rect width="42" height="42" fill="white" transform="translate(31 31)"/>
</clipPath>
</defs>
</svg>
