<svg width="104" height="104" viewBox="0 0 104 104" fill="none" xmlns="http://www.w3.org/2000/svg">
<path d="M102 52C102 79.6137 79.6143 102 52.0013 102C24.3856 102 2 79.6137 2 52C2 24.3863 24.3856 2 52.0013 2C79.6143 2 102 24.3863 102 52Z" fill="white" stroke="url(#paint0_linear_3425_7978)" stroke-width="4"/>
<g clip-path="url(#clip0_3425_7978)">
<path d="M38 42.9062C38 41.957 38.7835 41.1875 39.75 41.1875H46.75C47.7165 41.1875 48.5 41.957 48.5 42.9062V49.7812C48.5 50.7305 47.7165 51.5 46.75 51.5H45V57.6631L49.2249 61.8125H55.5V60.0938C55.5 59.1445 56.2835 58.375 57.25 58.375H64.25C65.2165 58.375 66 59.1445 66 60.0938V66.9688C66 67.918 65.2165 68.6875 64.25 68.6875H57.25C56.2835 68.6875 55.5 67.918 55.5 66.9688V65.25H49.2249L44.4874 69.9028C43.804 70.5741 42.696 70.5741 42.0126 69.9028L36.7626 64.7466C36.0791 64.0754 36.0791 62.9871 36.7626 62.3159L41.5 57.6631V51.5H39.75C38.7835 51.5 38 50.7305 38 49.7812V42.9062ZM38 24C34.134 24 31 27.078 31 30.875V72.125C31 75.922 34.134 79 38 79H66C69.866 79 73 75.922 73 72.125V42.6114C73 41.2438 72.4469 39.9323 71.4623 38.9653L57.7626 25.5102C56.778 24.5432 55.4426 24 54.0503 24H38ZM34.5 30.875C34.5 28.9765 36.067 27.4375 38 27.4375H52V39.4688C52 42.3165 54.3505 44.625 57.25 44.625H69.5V72.125C69.5 74.0235 67.933 75.5625 66 75.5625H38C36.067 75.5625 34.5 74.0235 34.5 72.125V30.875ZM68.7751 41.1875H57.25C56.2835 41.1875 55.5 40.418 55.5 39.4688V28.1494L68.7751 41.1875Z" fill="url(#paint1_linear_3425_7978)"/>
</g>
<defs>
<linearGradient id="paint0_linear_3425_7978" x1="102" y1="52" x2="2" y2="52" gradientUnits="userSpaceOnUse">
<stop stop-color="#B92025"/>
<stop offset="1" stop-color="#80479B"/>
</linearGradient>
<linearGradient id="paint1_linear_3425_7978" x1="73" y1="51.5" x2="31" y2="51.5" gradientUnits="userSpaceOnUse">
<stop stop-color="#B92025"/>
<stop offset="1" stop-color="#80479B"/>
</linearGradient>
<clipPath id="clip0_3425_7978">
<rect width="42" height="55" fill="white" transform="translate(31 24)"/>
</clipPath>
</defs>
</svg>
