<svg width="104" height="104" viewBox="0 0 104 104" fill="none" xmlns="http://www.w3.org/2000/svg">
<path d="M102 52C102 79.6137 79.6143 102 52.0013 102C24.3856 102 2 79.6137 2 52C2 24.3863 24.3856 2 52.0013 2C79.6143 2 102 24.3863 102 52Z" fill="white" stroke="url(#paint0_linear_3425_7986)" stroke-width="4"/>
<g clip-path="url(#clip0_3425_7986)">
<path d="M37.8417 34.7126C37.8417 31.0053 40.9003 28 44.6733 28H58.3367C62.1097 28 65.1683 31.0053 65.1683 34.7126H66.8763C69.706 34.7126 72 36.9666 72 39.7471V43.1034C72 47.3021 68.8595 50.7794 64.763 51.3967C63.4149 56.7089 58.8465 60.7689 53.213 61.4592V64.9194H58.3367C62.1097 64.9194 65.1683 67.9247 65.1683 71.632V73.3218C65.1683 74.2487 64.4037 75 63.4604 75H39.5496C38.6063 75 37.8417 74.2487 37.8417 73.3218V71.632C37.8417 67.9247 40.9003 64.9194 44.6733 64.9194H49.7972V61.4592C44.1638 60.769 39.5954 56.7092 38.2471 51.3972C34.1497 50.7812 31 47.3051 31 43.1034V39.7471C31 36.9666 33.294 34.7126 36.1237 34.7126L37.8417 34.7126ZM61.7525 34.7126C61.7525 32.859 60.2232 31.3563 58.3367 31.3563H44.6733C42.7868 31.3563 41.2575 32.859 41.2575 34.7126V48.1378C41.2575 53.6988 45.8455 58.2068 51.505 58.2068C57.0851 58.2068 61.6235 53.8245 61.7498 48.3715L61.7525 34.7126ZM65.1683 47.8506C67.1582 47.1587 68.5842 45.294 68.5842 43.1034V39.7471C68.5842 38.8203 67.8195 38.0689 66.8763 38.0689H65.1683V47.8506ZM37.8417 38.0689H36.1237C35.1805 38.0689 34.4158 38.8203 34.4158 39.7471V43.1034C34.4158 45.2938 35.847 47.1607 37.8417 47.8519V38.0689ZM41.2575 71.632V71.6437H61.7525V71.632C61.7525 69.7784 60.2232 68.2757 58.3367 68.2757H44.6733C42.7868 68.2757 41.2575 69.7784 41.2575 71.632Z" fill="url(#paint1_linear_3425_7986)"/>
</g>
<defs>
<linearGradient id="paint0_linear_3425_7986" x1="102" y1="52" x2="2" y2="52" gradientUnits="userSpaceOnUse">
<stop stop-color="#B92025"/>
<stop offset="1" stop-color="#80479B"/>
</linearGradient>
<linearGradient id="paint1_linear_3425_7986" x1="72" y1="51.5" x2="31" y2="51.5" gradientUnits="userSpaceOnUse">
<stop stop-color="#B92025"/>
<stop offset="1" stop-color="#80479B"/>
</linearGradient>
<clipPath id="clip0_3425_7986">
<rect width="41" height="47" fill="white" transform="translate(31 28)"/>
</clipPath>
</defs>
</svg>
