<svg width="509" height="648" viewBox="0 0 509 648" fill="none" xmlns="http://www.w3.org/2000/svg">
<rect x="0.5" y="0.5" width="508" height="647" fill="white"/>
<rect x="80" y="85" width="30" height="55" fill="#9E6128"/>
<rect x="114" y="85" width="23" height="55" fill="#78410F"/>
<rect x="53" y="85" width="23" height="55" fill="#C08C5B"/>
<path d="M128.333 83.167H61.6663C57.064 83.167 53.333 86.898 53.333 91.5003V133.167C53.333 137.769 57.064 141.5 61.6663 141.5H128.333C132.935 141.5 136.666 137.769 136.666 133.167V91.5003C136.666 86.898 132.935 83.167 128.333 83.167Z" stroke="#242424" stroke-width="8.33333" stroke-linecap="round" stroke-linejoin="round"/>
<path d="M111.666 141.5V74.8333C111.666 72.6232 110.788 70.5036 109.226 68.9408C107.663 67.378 105.543 66.5 103.333 66.5H86.6663C84.4562 66.5 82.3366 67.378 80.7738 68.9408C79.211 70.5036 78.333 72.6232 78.333 74.8333V141.5" stroke="#242424" stroke-width="8.33333" stroke-linecap="round" stroke-linejoin="round"/>
<path d="M29.3828 174V162.797H32.9375C34.0208 162.797 34.8776 163.034 35.5078 163.508C36.1432 163.982 36.4609 164.599 36.4609 165.359C36.4609 165.995 36.2812 166.547 35.9219 167.016C35.5625 167.484 35.0651 167.818 34.4297 168.016V168.047C35.2005 168.135 35.8151 168.422 36.2734 168.906C36.737 169.385 36.9688 170.01 36.9688 170.781C36.9688 171.74 36.5911 172.516 35.8359 173.109C35.0807 173.703 34.1276 174 32.9766 174H29.3828ZM31.2344 164.289V167.477H32.4375C33.0833 167.477 33.5885 167.326 33.9531 167.023C34.3229 166.716 34.5078 166.284 34.5078 165.727C34.5078 164.768 33.8672 164.289 32.5859 164.289H31.2344ZM31.2344 168.969V172.516H32.8203C33.513 172.516 34.0469 172.357 34.4219 172.039C34.8021 171.716 34.9922 171.273 34.9922 170.711C34.9922 169.549 34.1875 168.969 32.5781 168.969H31.2344ZM45.8281 174H44.0156V172.734H43.9844C43.4583 173.703 42.6406 174.188 41.5312 174.188C39.6406 174.188 38.6953 173.052 38.6953 170.781V166H40.5078V170.594C40.5078 172.031 41.0625 172.75 42.1719 172.75C42.7083 172.75 43.1484 172.552 43.4922 172.156C43.8411 171.76 44.0156 171.242 44.0156 170.602V166H45.8281V174ZM47.6953 173.75V172.07C48.3724 172.586 49.1198 172.844 49.9375 172.844C51.0312 172.844 51.5781 172.521 51.5781 171.875C51.5781 171.693 51.5312 171.539 51.4375 171.414C51.3438 171.284 51.2161 171.169 51.0547 171.07C50.8984 170.971 50.7109 170.883 50.4922 170.805C50.2786 170.727 50.0391 170.638 49.7734 170.539C49.4453 170.409 49.1484 170.271 48.8828 170.125C48.6224 169.979 48.4036 169.815 48.2266 169.633C48.0547 169.445 47.9245 169.234 47.8359 169C47.7474 168.766 47.7031 168.492 47.7031 168.18C47.7031 167.794 47.7943 167.456 47.9766 167.164C48.1589 166.867 48.4036 166.62 48.7109 166.422C49.0182 166.219 49.3672 166.068 49.7578 165.969C50.1484 165.865 50.5521 165.812 50.9688 165.812C51.7083 165.812 52.3698 165.924 52.9531 166.148V167.734C52.3906 167.349 51.7448 167.156 51.0156 167.156C50.7865 167.156 50.5781 167.18 50.3906 167.227C50.2083 167.273 50.0521 167.339 49.9219 167.422C49.7917 167.505 49.6901 167.607 49.6172 167.727C49.5443 167.841 49.5078 167.969 49.5078 168.109C49.5078 168.281 49.5443 168.427 49.6172 168.547C49.6901 168.667 49.7969 168.773 49.9375 168.867C50.0833 168.956 50.2552 169.039 50.4531 169.117C50.6562 169.19 50.888 169.271 51.1484 169.359C51.4922 169.5 51.7995 169.643 52.0703 169.789C52.3464 169.935 52.5807 170.102 52.7734 170.289C52.9661 170.471 53.1146 170.685 53.2188 170.93C53.3229 171.169 53.375 171.456 53.375 171.789C53.375 172.195 53.2812 172.549 53.0938 172.852C52.9062 173.154 52.6562 173.404 52.3438 173.602C52.0312 173.799 51.6693 173.945 51.2578 174.039C50.8516 174.138 50.4219 174.188 49.9688 174.188C49.0938 174.188 48.3359 174.042 47.6953 173.75ZM56.0156 164.32C55.7188 164.32 55.4635 164.224 55.25 164.031C55.0417 163.839 54.9375 163.594 54.9375 163.297C54.9375 163 55.0417 162.753 55.25 162.555C55.4635 162.357 55.7188 162.258 56.0156 162.258C56.3229 162.258 56.5833 162.357 56.7969 162.555C57.0104 162.753 57.1172 163 57.1172 163.297C57.1172 163.578 57.0104 163.82 56.7969 164.023C56.5833 164.221 56.3229 164.32 56.0156 164.32ZM56.9141 174H55.1016V166H56.9141V174ZM66.4141 174H64.6016V169.492C64.6016 167.997 64.0729 167.25 63.0156 167.25C62.4635 167.25 62.0078 167.458 61.6484 167.875C61.2891 168.286 61.1094 168.807 61.1094 169.438V174H59.2891V166H61.1094V167.328H61.1406C61.7396 166.318 62.6042 165.812 63.7344 165.812C64.6042 165.812 65.2682 166.096 65.7266 166.664C66.1849 167.227 66.4141 168.042 66.4141 169.109V174ZM75.4062 170.492H69.9531C69.974 171.232 70.2005 171.802 70.6328 172.203C71.0703 172.604 71.6693 172.805 72.4297 172.805C73.2839 172.805 74.0677 172.549 74.7812 172.039V173.5C74.0521 173.958 73.0885 174.188 71.8906 174.188C70.7135 174.188 69.7891 173.826 69.1172 173.102C68.4505 172.372 68.1172 171.349 68.1172 170.031C68.1172 168.786 68.4844 167.773 69.2188 166.992C69.9583 166.206 70.875 165.812 71.9688 165.812C73.0625 165.812 73.9089 166.164 74.5078 166.867C75.1068 167.57 75.4062 168.547 75.4062 169.797V170.492ZM73.6562 169.211C73.651 168.56 73.4974 168.055 73.1953 167.695C72.8932 167.331 72.4766 167.148 71.9453 167.148C71.4245 167.148 70.9818 167.339 70.6172 167.719C70.2578 168.099 70.0365 168.596 69.9531 169.211H73.6562ZM76.6328 173.75V172.07C77.3099 172.586 78.0573 172.844 78.875 172.844C79.9688 172.844 80.5156 172.521 80.5156 171.875C80.5156 171.693 80.4688 171.539 80.375 171.414C80.2812 171.284 80.1536 171.169 79.9922 171.07C79.8359 170.971 79.6484 170.883 79.4297 170.805C79.2161 170.727 78.9766 170.638 78.7109 170.539C78.3828 170.409 78.0859 170.271 77.8203 170.125C77.5599 169.979 77.3411 169.815 77.1641 169.633C76.9922 169.445 76.862 169.234 76.7734 169C76.6849 168.766 76.6406 168.492 76.6406 168.18C76.6406 167.794 76.7318 167.456 76.9141 167.164C77.0964 166.867 77.3411 166.62 77.6484 166.422C77.9557 166.219 78.3047 166.068 78.6953 165.969C79.0859 165.865 79.4896 165.812 79.9062 165.812C80.6458 165.812 81.3073 165.924 81.8906 166.148V167.734C81.3281 167.349 80.6823 167.156 79.9531 167.156C79.724 167.156 79.5156 167.18 79.3281 167.227C79.1458 167.273 78.9896 167.339 78.8594 167.422C78.7292 167.505 78.6276 167.607 78.5547 167.727C78.4818 167.841 78.4453 167.969 78.4453 168.109C78.4453 168.281 78.4818 168.427 78.5547 168.547C78.6276 168.667 78.7344 168.773 78.875 168.867C79.0208 168.956 79.1927 169.039 79.3906 169.117C79.5938 169.19 79.8255 169.271 80.0859 169.359C80.4297 169.5 80.737 169.643 81.0078 169.789C81.2839 169.935 81.5182 170.102 81.7109 170.289C81.9036 170.471 82.0521 170.685 82.1562 170.93C82.2604 171.169 82.3125 171.456 82.3125 171.789C82.3125 172.195 82.2188 172.549 82.0312 172.852C81.8438 173.154 81.5938 173.404 81.2812 173.602C80.9688 173.799 80.6068 173.945 80.1953 174.039C79.7891 174.138 79.3594 174.188 78.9062 174.188C78.0312 174.188 77.2734 174.042 76.6328 173.75ZM83.5391 173.75V172.07C84.2161 172.586 84.9635 172.844 85.7812 172.844C86.875 172.844 87.4219 172.521 87.4219 171.875C87.4219 171.693 87.375 171.539 87.2812 171.414C87.1875 171.284 87.0599 171.169 86.8984 171.07C86.7422 170.971 86.5547 170.883 86.3359 170.805C86.1224 170.727 85.8828 170.638 85.6172 170.539C85.2891 170.409 84.9922 170.271 84.7266 170.125C84.4661 169.979 84.2474 169.815 84.0703 169.633C83.8984 169.445 83.7682 169.234 83.6797 169C83.5911 168.766 83.5469 168.492 83.5469 168.18C83.5469 167.794 83.638 167.456 83.8203 167.164C84.0026 166.867 84.2474 166.62 84.5547 166.422C84.862 166.219 85.2109 166.068 85.6016 165.969C85.9922 165.865 86.3958 165.812 86.8125 165.812C87.5521 165.812 88.2135 165.924 88.7969 166.148V167.734C88.2344 167.349 87.5885 167.156 86.8594 167.156C86.6302 167.156 86.4219 167.18 86.2344 167.227C86.0521 167.273 85.8958 167.339 85.7656 167.422C85.6354 167.505 85.5339 167.607 85.4609 167.727C85.388 167.841 85.3516 167.969 85.3516 168.109C85.3516 168.281 85.388 168.427 85.4609 168.547C85.5339 168.667 85.6406 168.773 85.7812 168.867C85.9271 168.956 86.099 169.039 86.2969 169.117C86.5 169.19 86.7318 169.271 86.9922 169.359C87.3359 169.5 87.6432 169.643 87.9141 169.789C88.1901 169.935 88.4245 170.102 88.6172 170.289C88.8099 170.471 88.9583 170.685 89.0625 170.93C89.1667 171.169 89.2188 171.456 89.2188 171.789C89.2188 172.195 89.125 172.549 88.9375 172.852C88.75 173.154 88.5 173.404 88.1875 173.602C87.875 173.799 87.513 173.945 87.1016 174.039C86.6953 174.138 86.2656 174.188 85.8125 174.188C84.9375 174.188 84.1797 174.042 83.5391 173.75ZM102.625 174H100.812V172.641H100.781C100.198 173.672 99.2995 174.188 98.0859 174.188C97.1016 174.188 96.3125 173.831 95.7188 173.117C95.1302 172.398 94.8359 171.422 94.8359 170.188C94.8359 168.865 95.1615 167.805 95.8125 167.008C96.4688 166.211 97.3411 165.812 98.4297 165.812C99.5078 165.812 100.292 166.245 100.781 167.109H100.812V162.156H102.625V174ZM100.836 170.344V169.297C100.836 168.729 100.651 168.247 100.281 167.852C99.9115 167.456 99.4401 167.258 98.8672 167.258C98.1901 167.258 97.6562 167.51 97.2656 168.016C96.8802 168.521 96.6875 169.221 96.6875 170.117C96.6875 170.93 96.8724 171.573 97.2422 172.047C97.6172 172.516 98.1198 172.75 98.75 172.75C99.3698 172.75 99.8724 172.523 100.258 172.07C100.643 171.612 100.836 171.036 100.836 170.344ZM111.766 170.492H106.312C106.333 171.232 106.56 171.802 106.992 172.203C107.43 172.604 108.029 172.805 108.789 172.805C109.643 172.805 110.427 172.549 111.141 172.039V173.5C110.411 173.958 109.448 174.188 108.25 174.188C107.073 174.188 106.148 173.826 105.477 173.102C104.81 172.372 104.477 171.349 104.477 170.031C104.477 168.786 104.844 167.773 105.578 166.992C106.318 166.206 107.234 165.812 108.328 165.812C109.422 165.812 110.268 166.164 110.867 166.867C111.466 167.57 111.766 168.547 111.766 169.797V170.492ZM110.016 169.211C110.01 168.56 109.857 168.055 109.555 167.695C109.253 167.331 108.836 167.148 108.305 167.148C107.784 167.148 107.341 167.339 106.977 167.719C106.617 168.099 106.396 168.596 106.312 169.211H110.016ZM125.453 174H123.641V169.641C123.641 168.802 123.521 168.195 123.281 167.82C123.047 167.445 122.648 167.258 122.086 167.258C121.612 167.258 121.208 167.495 120.875 167.969C120.547 168.443 120.383 169.01 120.383 169.672V174H118.562V169.492C118.562 168.003 118.036 167.258 116.984 167.258C116.495 167.258 116.091 167.482 115.773 167.93C115.461 168.378 115.305 168.958 115.305 169.672V174H113.492V166H115.305V167.266H115.336C115.914 166.297 116.755 165.812 117.859 165.812C118.411 165.812 118.893 165.966 119.305 166.273C119.721 166.576 120.005 166.974 120.156 167.469C120.75 166.365 121.635 165.812 122.812 165.812C124.573 165.812 125.453 166.898 125.453 169.07V174ZM133.805 174H132.047V172.75H132.016C131.464 173.708 130.654 174.188 129.586 174.188C128.799 174.188 128.182 173.974 127.734 173.547C127.292 173.12 127.07 172.555 127.07 171.852C127.07 170.341 127.94 169.461 129.68 169.211L132.055 168.875C132.055 167.734 131.513 167.164 130.43 167.164C129.477 167.164 128.617 167.492 127.852 168.148V166.562C128.695 166.062 129.669 165.812 130.773 165.812C132.794 165.812 133.805 166.807 133.805 168.797V174ZM132.055 170.07L130.375 170.305C129.854 170.372 129.461 170.5 129.195 170.688C128.935 170.87 128.805 171.193 128.805 171.656C128.805 171.995 128.924 172.273 129.164 172.492C129.409 172.706 129.734 172.812 130.141 172.812C130.693 172.812 131.148 172.62 131.508 172.234C131.872 171.844 132.055 171.354 132.055 170.766V170.07ZM143.148 174H141.336V169.492C141.336 167.997 140.807 167.25 139.75 167.25C139.198 167.25 138.742 167.458 138.383 167.875C138.023 168.286 137.844 168.807 137.844 169.438V174H136.023V166H137.844V167.328H137.875C138.474 166.318 139.339 165.812 140.469 165.812C141.339 165.812 142.003 166.096 142.461 166.664C142.919 167.227 143.148 168.042 143.148 169.109V174ZM152.641 174H150.828V172.641H150.797C150.214 173.672 149.315 174.188 148.102 174.188C147.117 174.188 146.328 173.831 145.734 173.117C145.146 172.398 144.852 171.422 144.852 170.188C144.852 168.865 145.177 167.805 145.828 167.008C146.484 166.211 147.357 165.812 148.445 165.812C149.523 165.812 150.307 166.245 150.797 167.109H150.828V162.156H152.641V174ZM150.852 170.344V169.297C150.852 168.729 150.667 168.247 150.297 167.852C149.927 167.456 149.456 167.258 148.883 167.258C148.206 167.258 147.672 167.51 147.281 168.016C146.896 168.521 146.703 169.221 146.703 170.117C146.703 170.93 146.888 171.573 147.258 172.047C147.633 172.516 148.135 172.75 148.766 172.75C149.385 172.75 149.888 172.523 150.273 172.07C150.659 171.612 150.852 171.036 150.852 170.344ZM154.508 173.75V172.07C155.185 172.586 155.932 172.844 156.75 172.844C157.844 172.844 158.391 172.521 158.391 171.875C158.391 171.693 158.344 171.539 158.25 171.414C158.156 171.284 158.029 171.169 157.867 171.07C157.711 170.971 157.523 170.883 157.305 170.805C157.091 170.727 156.852 170.638 156.586 170.539C156.258 170.409 155.961 170.271 155.695 170.125C155.435 169.979 155.216 169.815 155.039 169.633C154.867 169.445 154.737 169.234 154.648 169C154.56 168.766 154.516 168.492 154.516 168.18C154.516 167.794 154.607 167.456 154.789 167.164C154.971 166.867 155.216 166.62 155.523 166.422C155.831 166.219 156.18 166.068 156.57 165.969C156.961 165.865 157.365 165.812 157.781 165.812C158.521 165.812 159.182 165.924 159.766 166.148V167.734C159.203 167.349 158.557 167.156 157.828 167.156C157.599 167.156 157.391 167.18 157.203 167.227C157.021 167.273 156.865 167.339 156.734 167.422C156.604 167.505 156.503 167.607 156.43 167.727C156.357 167.841 156.32 167.969 156.32 168.109C156.32 168.281 156.357 168.427 156.43 168.547C156.503 168.667 156.609 168.773 156.75 168.867C156.896 168.956 157.068 169.039 157.266 169.117C157.469 169.19 157.701 169.271 157.961 169.359C158.305 169.5 158.612 169.643 158.883 169.789C159.159 169.935 159.393 170.102 159.586 170.289C159.779 170.471 159.927 170.685 160.031 170.93C160.135 171.169 160.188 171.456 160.188 171.789C160.188 172.195 160.094 172.549 159.906 172.852C159.719 173.154 159.469 173.404 159.156 173.602C158.844 173.799 158.482 173.945 158.07 174.039C157.664 174.138 157.234 174.188 156.781 174.188C155.906 174.188 155.148 174.042 154.508 173.75Z" fill="#242424"/>
<path d="M205.672 381H199.383V369.797H205.422V371.375H201.242V374.547H205.094V376.117H201.242V379.43H205.672V381ZM219.422 381H217.609V376.641C217.609 375.802 217.49 375.195 217.25 374.82C217.016 374.445 216.617 374.258 216.055 374.258C215.581 374.258 215.177 374.495 214.844 374.969C214.516 375.443 214.352 376.01 214.352 376.672V381H212.531V376.492C212.531 375.003 212.005 374.258 210.953 374.258C210.464 374.258 210.06 374.482 209.742 374.93C209.43 375.378 209.273 375.958 209.273 376.672V381H207.461V373H209.273V374.266H209.305C209.883 373.297 210.724 372.812 211.828 372.812C212.38 372.812 212.862 372.966 213.273 373.273C213.69 373.576 213.974 373.974 214.125 374.469C214.719 373.365 215.604 372.812 216.781 372.812C218.542 372.812 219.422 373.898 219.422 376.07V381ZM223.477 379.844H223.445V381H221.633V369.156H223.445V374.406H223.477C224.096 373.344 225.003 372.812 226.195 372.812C227.206 372.812 227.995 373.172 228.562 373.891C229.135 374.604 229.422 375.562 229.422 376.766C229.422 378.104 229.102 379.177 228.461 379.984C227.82 380.786 226.945 381.188 225.836 381.188C224.794 381.188 224.008 380.74 223.477 379.844ZM223.43 376.664V377.656C223.43 378.24 223.615 378.734 223.984 379.141C224.359 379.547 224.833 379.75 225.406 379.75C226.078 379.75 226.604 379.49 226.984 378.969C227.37 378.443 227.562 377.711 227.562 376.773C227.562 375.987 227.383 375.372 227.023 374.93C226.669 374.482 226.188 374.258 225.578 374.258C224.932 374.258 224.411 374.487 224.016 374.945C223.625 375.404 223.43 375.977 223.43 376.664ZM238.047 377.492H232.594C232.615 378.232 232.841 378.802 233.273 379.203C233.711 379.604 234.31 379.805 235.07 379.805C235.924 379.805 236.708 379.549 237.422 379.039V380.5C236.693 380.958 235.729 381.188 234.531 381.188C233.354 381.188 232.43 380.826 231.758 380.102C231.091 379.372 230.758 378.349 230.758 377.031C230.758 375.786 231.125 374.773 231.859 373.992C232.599 373.206 233.516 372.812 234.609 372.812C235.703 372.812 236.549 373.164 237.148 373.867C237.747 374.57 238.047 375.547 238.047 376.797V377.492ZM236.297 376.211C236.292 375.56 236.138 375.055 235.836 374.695C235.534 374.331 235.117 374.148 234.586 374.148C234.065 374.148 233.622 374.339 233.258 374.719C232.898 375.099 232.677 375.596 232.594 376.211H236.297ZM247.047 381H245.234V379.641H245.203C244.62 380.672 243.721 381.188 242.508 381.188C241.523 381.188 240.734 380.831 240.141 380.117C239.552 379.398 239.258 378.422 239.258 377.188C239.258 375.865 239.583 374.805 240.234 374.008C240.891 373.211 241.763 372.812 242.852 372.812C243.93 372.812 244.714 373.245 245.203 374.109H245.234V369.156H247.047V381ZM245.258 377.344V376.297C245.258 375.729 245.073 375.247 244.703 374.852C244.333 374.456 243.862 374.258 243.289 374.258C242.612 374.258 242.078 374.51 241.688 375.016C241.302 375.521 241.109 376.221 241.109 377.117C241.109 377.93 241.294 378.573 241.664 379.047C242.039 379.516 242.542 379.75 243.172 379.75C243.792 379.75 244.294 379.523 244.68 379.07C245.065 378.612 245.258 378.036 245.258 377.344ZM260.07 371.375H255.883V374.742H259.742V376.312H255.883V381H254.023V369.797H260.07V371.375ZM267.461 381H265.703V379.75H265.672C265.12 380.708 264.31 381.188 263.242 381.188C262.456 381.188 261.839 380.974 261.391 380.547C260.948 380.12 260.727 379.555 260.727 378.852C260.727 377.341 261.596 376.461 263.336 376.211L265.711 375.875C265.711 374.734 265.169 374.164 264.086 374.164C263.133 374.164 262.273 374.492 261.508 375.148V373.562C262.352 373.062 263.326 372.812 264.43 372.812C266.451 372.812 267.461 373.807 267.461 375.797V381ZM265.711 377.07L264.031 377.305C263.51 377.372 263.117 377.5 262.852 377.688C262.591 377.87 262.461 378.193 262.461 378.656C262.461 378.995 262.581 379.273 262.82 379.492C263.065 379.706 263.391 379.812 263.797 379.812C264.349 379.812 264.805 379.62 265.164 379.234C265.529 378.844 265.711 378.354 265.711 377.766V377.07ZM269.18 380.75V379.07C269.857 379.586 270.604 379.844 271.422 379.844C272.516 379.844 273.062 379.521 273.062 378.875C273.062 378.693 273.016 378.539 272.922 378.414C272.828 378.284 272.701 378.169 272.539 378.07C272.383 377.971 272.195 377.883 271.977 377.805C271.763 377.727 271.523 377.638 271.258 377.539C270.93 377.409 270.633 377.271 270.367 377.125C270.107 376.979 269.888 376.815 269.711 376.633C269.539 376.445 269.409 376.234 269.32 376C269.232 375.766 269.188 375.492 269.188 375.18C269.188 374.794 269.279 374.456 269.461 374.164C269.643 373.867 269.888 373.62 270.195 373.422C270.503 373.219 270.852 373.068 271.242 372.969C271.633 372.865 272.036 372.812 272.453 372.812C273.193 372.812 273.854 372.924 274.438 373.148V374.734C273.875 374.349 273.229 374.156 272.5 374.156C272.271 374.156 272.062 374.18 271.875 374.227C271.693 374.273 271.536 374.339 271.406 374.422C271.276 374.505 271.174 374.607 271.102 374.727C271.029 374.841 270.992 374.969 270.992 375.109C270.992 375.281 271.029 375.427 271.102 375.547C271.174 375.667 271.281 375.773 271.422 375.867C271.568 375.956 271.74 376.039 271.938 376.117C272.141 376.19 272.372 376.271 272.633 376.359C272.977 376.5 273.284 376.643 273.555 376.789C273.831 376.935 274.065 377.102 274.258 377.289C274.451 377.471 274.599 377.685 274.703 377.93C274.807 378.169 274.859 378.456 274.859 378.789C274.859 379.195 274.766 379.549 274.578 379.852C274.391 380.154 274.141 380.404 273.828 380.602C273.516 380.799 273.154 380.945 272.742 381.039C272.336 381.138 271.906 381.188 271.453 381.188C270.578 381.188 269.82 381.042 269.18 380.75ZM280.805 380.914C280.451 381.091 279.984 381.18 279.406 381.18C277.854 381.18 277.078 380.435 277.078 378.945V374.422H275.742V373H277.078V371.148L278.891 370.633V373H280.805V374.422H278.891V378.422C278.891 378.896 278.977 379.234 279.148 379.438C279.32 379.641 279.607 379.742 280.008 379.742C280.315 379.742 280.581 379.654 280.805 379.477V380.914ZM296.18 381H294.141L293.133 378.148H288.727L287.758 381H285.727L289.922 369.797H292.016L296.18 381ZM292.641 376.633L291.086 372.164C291.039 372.018 290.99 371.784 290.938 371.461H290.906C290.859 371.758 290.807 371.992 290.75 372.164L289.211 376.633H292.641ZM299.578 376.938V381H297.727V369.797H301.125C302.411 369.797 303.409 370.096 304.117 370.695C304.826 371.294 305.18 372.138 305.18 373.227C305.18 374.315 304.81 375.206 304.07 375.898C303.331 376.591 302.331 376.938 301.07 376.938H299.578ZM299.578 371.328V375.422H300.781C301.578 375.422 302.185 375.237 302.602 374.867C303.018 374.497 303.227 373.977 303.227 373.305C303.227 371.987 302.461 371.328 300.93 371.328H299.578ZM308.992 381H307.078V369.797H308.992V381Z" fill="#242424"/>
<path d="M266.667 338L291.667 313L266.667 288" stroke="#242424" stroke-width="8.33333" stroke-linecap="round" stroke-linejoin="round"/>
<path d="M233.333 288L208.333 313L233.333 338" stroke="#242424" stroke-width="8.33333" stroke-linecap="round" stroke-linejoin="round"/>
<path d="M355.195 582.531C354.352 582.969 353.302 583.188 352.047 583.188C350.422 583.188 349.12 582.674 348.141 581.648C347.161 580.622 346.672 579.276 346.672 577.609C346.672 575.818 347.221 574.37 348.32 573.266C349.424 572.161 350.818 571.609 352.5 571.609C353.583 571.609 354.482 571.763 355.195 572.07V573.914C354.44 573.466 353.607 573.242 352.695 573.242C351.482 573.242 350.497 573.63 349.742 574.406C348.992 575.182 348.617 576.219 348.617 577.516C348.617 578.75 348.969 579.734 349.672 580.469C350.375 581.198 351.299 581.562 352.445 581.562C353.503 581.562 354.419 581.312 355.195 580.812V582.531ZM364.094 583H362.281V581.734H362.25C361.724 582.703 360.906 583.188 359.797 583.188C357.906 583.188 356.961 582.052 356.961 579.781V575H358.773V579.594C358.773 581.031 359.328 581.75 360.438 581.75C360.974 581.75 361.414 581.552 361.758 581.156C362.107 580.76 362.281 580.242 362.281 579.602V575H364.094V583ZM365.961 582.75V581.07C366.638 581.586 367.385 581.844 368.203 581.844C369.297 581.844 369.844 581.521 369.844 580.875C369.844 580.693 369.797 580.539 369.703 580.414C369.609 580.284 369.482 580.169 369.32 580.07C369.164 579.971 368.977 579.883 368.758 579.805C368.544 579.727 368.305 579.638 368.039 579.539C367.711 579.409 367.414 579.271 367.148 579.125C366.888 578.979 366.669 578.815 366.492 578.633C366.32 578.445 366.19 578.234 366.102 578C366.013 577.766 365.969 577.492 365.969 577.18C365.969 576.794 366.06 576.456 366.242 576.164C366.424 575.867 366.669 575.62 366.977 575.422C367.284 575.219 367.633 575.068 368.023 574.969C368.414 574.865 368.818 574.812 369.234 574.812C369.974 574.812 370.635 574.924 371.219 575.148V576.734C370.656 576.349 370.01 576.156 369.281 576.156C369.052 576.156 368.844 576.18 368.656 576.227C368.474 576.273 368.318 576.339 368.188 576.422C368.057 576.505 367.956 576.607 367.883 576.727C367.81 576.841 367.773 576.969 367.773 577.109C367.773 577.281 367.81 577.427 367.883 577.547C367.956 577.667 368.062 577.773 368.203 577.867C368.349 577.956 368.521 578.039 368.719 578.117C368.922 578.19 369.154 578.271 369.414 578.359C369.758 578.5 370.065 578.643 370.336 578.789C370.612 578.935 370.846 579.102 371.039 579.289C371.232 579.471 371.38 579.685 371.484 579.93C371.589 580.169 371.641 580.456 371.641 580.789C371.641 581.195 371.547 581.549 371.359 581.852C371.172 582.154 370.922 582.404 370.609 582.602C370.297 582.799 369.935 582.945 369.523 583.039C369.117 583.138 368.688 583.188 368.234 583.188C367.359 583.188 366.602 583.042 365.961 582.75ZM377.586 582.914C377.232 583.091 376.766 583.18 376.188 583.18C374.635 583.18 373.859 582.435 373.859 580.945V576.422H372.523V575H373.859V573.148L375.672 572.633V575H377.586V576.422H375.672V580.422C375.672 580.896 375.758 581.234 375.93 581.438C376.102 581.641 376.388 581.742 376.789 581.742C377.096 581.742 377.362 581.654 377.586 581.477V582.914ZM382.602 583.188C381.367 583.188 380.38 582.815 379.641 582.07C378.906 581.32 378.539 580.328 378.539 579.094C378.539 577.75 378.922 576.701 379.688 575.945C380.458 575.19 381.495 574.812 382.797 574.812C384.047 574.812 385.021 575.18 385.719 575.914C386.417 576.648 386.766 577.667 386.766 578.969C386.766 580.245 386.388 581.268 385.633 582.039C384.883 582.805 383.872 583.188 382.602 583.188ZM382.688 576.258C381.979 576.258 381.419 576.505 381.008 577C380.596 577.495 380.391 578.177 380.391 579.047C380.391 579.885 380.599 580.547 381.016 581.031C381.432 581.51 381.99 581.75 382.688 581.75C383.401 581.75 383.948 581.513 384.328 581.039C384.714 580.565 384.906 579.891 384.906 579.016C384.906 578.135 384.714 577.456 384.328 576.977C383.948 576.497 383.401 576.258 382.688 576.258ZM400.578 583H398.766V578.641C398.766 577.802 398.646 577.195 398.406 576.82C398.172 576.445 397.773 576.258 397.211 576.258C396.737 576.258 396.333 576.495 396 576.969C395.672 577.443 395.508 578.01 395.508 578.672V583H393.688V578.492C393.688 577.003 393.161 576.258 392.109 576.258C391.62 576.258 391.216 576.482 390.898 576.93C390.586 577.378 390.43 577.958 390.43 578.672V583H388.617V575H390.43V576.266H390.461C391.039 575.297 391.88 574.812 392.984 574.812C393.536 574.812 394.018 574.966 394.43 575.273C394.846 575.576 395.13 575.974 395.281 576.469C395.875 575.365 396.76 574.812 397.938 574.812C399.698 574.812 400.578 575.898 400.578 578.07V583ZM411.719 572.633C411.474 572.492 411.195 572.422 410.883 572.422C410.003 572.422 409.562 572.919 409.562 573.914V575H411.422V576.422H409.57V583H407.758V576.422H406.391V575H407.758V573.703C407.758 572.859 408.034 572.195 408.586 571.711C409.138 571.221 409.828 570.977 410.656 570.977C411.104 570.977 411.458 571.026 411.719 571.125V572.633ZM419.484 579.492H414.031C414.052 580.232 414.279 580.802 414.711 581.203C415.148 581.604 415.747 581.805 416.508 581.805C417.362 581.805 418.146 581.549 418.859 581.039V582.5C418.13 582.958 417.167 583.188 415.969 583.188C414.792 583.188 413.867 582.826 413.195 582.102C412.529 581.372 412.195 580.349 412.195 579.031C412.195 577.786 412.562 576.773 413.297 575.992C414.036 575.206 414.953 574.812 416.047 574.812C417.141 574.812 417.987 575.164 418.586 575.867C419.185 576.57 419.484 577.547 419.484 578.797V579.492ZM417.734 578.211C417.729 577.56 417.576 577.055 417.273 576.695C416.971 576.331 416.555 576.148 416.023 576.148C415.503 576.148 415.06 576.339 414.695 576.719C414.336 577.099 414.115 577.596 414.031 578.211H417.734ZM427.352 583H425.594V581.75H425.562C425.01 582.708 424.201 583.188 423.133 583.188C422.346 583.188 421.729 582.974 421.281 582.547C420.839 582.12 420.617 581.555 420.617 580.852C420.617 579.341 421.487 578.461 423.227 578.211L425.602 577.875C425.602 576.734 425.06 576.164 423.977 576.164C423.023 576.164 422.164 576.492 421.398 577.148V575.562C422.242 575.062 423.216 574.812 424.32 574.812C426.341 574.812 427.352 575.807 427.352 577.797V583ZM425.602 579.07L423.922 579.305C423.401 579.372 423.008 579.5 422.742 579.688C422.482 579.87 422.352 580.193 422.352 580.656C422.352 580.995 422.471 581.273 422.711 581.492C422.956 581.706 423.281 581.812 423.688 581.812C424.24 581.812 424.695 581.62 425.055 581.234C425.419 580.844 425.602 580.354 425.602 579.766V579.07ZM433.789 582.914C433.435 583.091 432.969 583.18 432.391 583.18C430.839 583.18 430.062 582.435 430.062 580.945V576.422H428.727V575H430.062V573.148L431.875 572.633V575H433.789V576.422H431.875V580.422C431.875 580.896 431.961 581.234 432.133 581.438C432.305 581.641 432.591 581.742 432.992 581.742C433.299 581.742 433.565 581.654 433.789 581.477V582.914ZM442.328 583H440.516V581.734H440.484C439.958 582.703 439.141 583.188 438.031 583.188C436.141 583.188 435.195 582.052 435.195 579.781V575H437.008V579.594C437.008 581.031 437.562 581.75 438.672 581.75C439.208 581.75 439.648 581.552 439.992 581.156C440.341 580.76 440.516 580.242 440.516 579.602V575H442.328V583ZM449.336 576.727C449.117 576.555 448.802 576.469 448.391 576.469C447.854 576.469 447.406 576.711 447.047 577.195C446.688 577.68 446.508 578.339 446.508 579.172V583H444.695V575H446.508V576.648H446.539C446.716 576.086 446.987 575.648 447.352 575.336C447.721 575.018 448.133 574.859 448.586 574.859C448.914 574.859 449.164 574.909 449.336 575.008V576.727ZM457.25 579.492H451.797C451.818 580.232 452.044 580.802 452.477 581.203C452.914 581.604 453.513 581.805 454.273 581.805C455.128 581.805 455.911 581.549 456.625 581.039V582.5C455.896 582.958 454.932 583.188 453.734 583.188C452.557 583.188 451.633 582.826 450.961 582.102C450.294 581.372 449.961 580.349 449.961 579.031C449.961 577.786 450.328 576.773 451.062 575.992C451.802 575.206 452.719 574.812 453.812 574.812C454.906 574.812 455.753 575.164 456.352 575.867C456.951 576.57 457.25 577.547 457.25 578.797V579.492ZM455.5 578.211C455.495 577.56 455.341 577.055 455.039 576.695C454.737 576.331 454.32 576.148 453.789 576.148C453.268 576.148 452.826 576.339 452.461 576.719C452.102 577.099 451.88 577.596 451.797 578.211H455.5ZM458.477 582.75V581.07C459.154 581.586 459.901 581.844 460.719 581.844C461.812 581.844 462.359 581.521 462.359 580.875C462.359 580.693 462.312 580.539 462.219 580.414C462.125 580.284 461.997 580.169 461.836 580.07C461.68 579.971 461.492 579.883 461.273 579.805C461.06 579.727 460.82 579.638 460.555 579.539C460.227 579.409 459.93 579.271 459.664 579.125C459.404 578.979 459.185 578.815 459.008 578.633C458.836 578.445 458.706 578.234 458.617 578C458.529 577.766 458.484 577.492 458.484 577.18C458.484 576.794 458.576 576.456 458.758 576.164C458.94 575.867 459.185 575.62 459.492 575.422C459.799 575.219 460.148 575.068 460.539 574.969C460.93 574.865 461.333 574.812 461.75 574.812C462.49 574.812 463.151 574.924 463.734 575.148V576.734C463.172 576.349 462.526 576.156 461.797 576.156C461.568 576.156 461.359 576.18 461.172 576.227C460.99 576.273 460.833 576.339 460.703 576.422C460.573 576.505 460.471 576.607 460.398 576.727C460.326 576.841 460.289 576.969 460.289 577.109C460.289 577.281 460.326 577.427 460.398 577.547C460.471 577.667 460.578 577.773 460.719 577.867C460.865 577.956 461.036 578.039 461.234 578.117C461.438 578.19 461.669 578.271 461.93 578.359C462.273 578.5 462.581 578.643 462.852 578.789C463.128 578.935 463.362 579.102 463.555 579.289C463.747 579.471 463.896 579.685 464 579.93C464.104 580.169 464.156 580.456 464.156 580.789C464.156 581.195 464.062 581.549 463.875 581.852C463.688 582.154 463.438 582.404 463.125 582.602C462.812 582.799 462.451 582.945 462.039 583.039C461.633 583.138 461.203 583.188 460.75 583.188C459.875 583.188 459.117 583.042 458.477 582.75Z" fill="#242424"/>
<path d="M366.403 486.607C366.036 486.981 365.831 487.484 365.831 488.007C365.831 488.531 366.036 489.033 366.403 489.407L369.603 492.607C369.976 492.974 370.479 493.179 371.003 493.179C371.526 493.179 372.029 492.974 372.403 492.607L379.943 485.067C380.948 487.29 381.253 489.766 380.816 492.166C380.378 494.565 379.22 496.775 377.495 498.5C375.77 500.225 373.561 501.383 371.161 501.82C368.761 502.257 366.285 501.953 364.063 500.947L350.243 514.767C349.447 515.563 348.368 516.01 347.243 516.01C346.117 516.01 345.038 515.563 344.243 514.767C343.447 513.972 343 512.892 343 511.767C343 510.642 343.447 509.563 344.243 508.767L358.063 494.947C357.057 492.725 356.752 490.249 357.19 487.849C357.627 485.449 358.785 483.24 360.51 481.515C362.235 479.79 364.445 478.632 366.844 478.194C369.244 477.757 371.72 478.062 373.943 479.067L366.423 486.587L366.403 486.607Z" fill="#C7C7C7" stroke="black" stroke-width="4" stroke-linecap="round" stroke-linejoin="round"/>
<path d="M453.438 516L467.438 502L473.438 508L459.438 522L453.438 516Z" fill="#D23C3C" stroke="black" stroke-width="4" stroke-linecap="round" stroke-linejoin="round"/>
<path d="M465.438 504L462.438 489L433.438 482L440.438 511L455.438 514L465.438 504Z" fill="#E2E2E2" stroke="black" stroke-width="4" stroke-linecap="round" stroke-linejoin="round"/>
<path d="M433.438 482L448.61 497.172" stroke="black" stroke-width="4" stroke-linecap="round" stroke-linejoin="round"/>
<path d="M451.438 504C453.647 504 455.438 502.209 455.438 500C455.438 497.791 453.647 496 451.438 496C449.228 496 447.438 497.791 447.438 500C447.438 502.209 449.228 504 451.438 504Z" stroke="black" stroke-width="4" stroke-linecap="round" stroke-linejoin="round"/>
<path d="M405.219 513.667L386.886 522.834L405.219 532L423.552 522.834L405.219 513.667Z" fill="#F7A341" stroke="black" stroke-width="4" stroke-linecap="round" stroke-linejoin="round"/>
<path d="M386.886 541.167L405.219 550.334L423.552 541.167" stroke="black" stroke-width="4" stroke-linecap="round" stroke-linejoin="round"/>
<path d="M386.886 532L405.219 541.167L423.552 532" stroke="black" stroke-width="4" stroke-linecap="round" stroke-linejoin="round"/>
<path d="M139.828 199.172C138.266 197.609 135.734 197.609 134.172 199.172C132.609 200.734 132.609 203.266 134.172 204.828L139.828 199.172ZM189 258C191.209 258 193 256.209 193 254V218C193 215.791 191.209 214 189 214C186.791 214 185 215.791 185 218V250H153C150.791 250 149 251.791 149 254C149 256.209 150.791 258 153 258H189ZM134.172 204.828L179.407 250.064L185.064 244.407L139.828 199.172L134.172 204.828ZM179.407 250.064L186.172 256.828L191.828 251.172L185.064 244.407L179.407 250.064Z" fill="#3C3C3C"/>
<path d="M312.828 401.172C311.266 399.609 308.734 399.609 307.172 401.172C305.609 402.734 305.609 405.266 307.172 406.828L312.828 401.172ZM362 460C364.209 460 366 458.209 366 456V420C366 417.791 364.209 416 362 416C359.791 416 358 417.791 358 420V452H326C323.791 452 322 453.791 322 456C322 458.209 323.791 460 326 460H362ZM307.172 406.828L352.407 452.064L358.064 446.407L312.828 401.172L307.172 406.828ZM352.407 452.064L359.172 458.828L364.828 453.172L358.064 446.407L352.407 452.064Z" fill="#3C3C3C"/>
<rect x="0.5" y="0.5" width="508" height="647" stroke="#D9D9D9"/>
</svg>
