<svg width="21" height="20" viewBox="0 0 21 20" fill="none" xmlns="http://www.w3.org/2000/svg">
<path d="M12 13C12 12.4477 12.4477 12 13 12H18C18.5523 12 19 12.4477 19 13V17C19 17.5523 18.5523 18 18 18H13C12.4477 18 12 17.5523 12 17V13ZM21 14.5C21 14.2239 20.7761 14 20.5 14C20.2239 14 20 14.2239 20 14.5V17.5C20 18.3284 19.3284 19 18.5 19H14.5C14.2239 19 14 19.2239 14 19.5C14 19.7761 14.2239 20 14.5 20H18.5C19.8807 20 21 18.8807 21 17.5V14.5ZM15.5303 0.21967C15.2374 -0.0732233 14.7626 -0.0732233 14.4697 0.21967C14.1768 0.512563 14.1768 0.987437 14.4697 1.28033L17.4393 4.25H12.5C10.7051 4.25 9.25 5.70507 9.25 7.5V10.5C9.25 11.3218 8.68357 12.0113 7.91985 12.1993C7.54896 10.3739 5.93492 9 4 9C1.79086 9 0 10.7909 0 13C0 15.2091 1.79086 17 4 17C5.96294 17 7.59563 15.5861 7.93517 13.7211C9.52433 13.5085 10.75 12.1474 10.75 10.5V7.5C10.75 6.5335 11.5335 5.75 12.5 5.75H17.4393L14.4697 8.71967C14.1768 9.01256 14.1768 9.48744 14.4697 9.78033C14.7626 10.0732 15.2374 10.0732 15.5303 9.78033L19.7803 5.53033C20.0732 5.23744 20.0732 4.76256 19.7803 4.46967L15.5303 0.21967ZM1.5 13C1.5 11.6193 2.61929 10.5 4 10.5C5.38071 10.5 6.5 11.6193 6.5 13C6.5 14.3807 5.38071 15.5 4 15.5C2.61929 15.5 1.5 14.3807 1.5 13Z" fill="black"/>
</svg>
