<svg xmlns="http://www.w3.org/2000/svg" viewBox="0 0 750 500"><g id="freepik--background-complete--inject-21"><polygon points="601.46 63.35 682.58 52.07 675.14 133.01 601.46 63.35" style="fill:#f5f5f5"></polygon><rect x="558.42" y="65.59" width="46.18" height="186.75" transform="translate(268.17 -356.05) rotate(43.39)" style="fill:#f5f5f5"></rect><polygon points="675.1 170.8 715.95 165.12 712.2 205.88 675.1 170.8" style="fill:#f5f5f5"></polygon><rect x="653.43" y="171.93" width="23.25" height="94.04" transform="translate(332.21 -397.05) rotate(43.39)" style="fill:#f5f5f5"></rect><polygon points="93.53 222.75 134.38 217.07 130.63 257.82 93.53 222.75" style="fill:#f5f5f5"></polygon><rect x="71.86" y="223.88" width="23.25" height="94.04" transform="translate(208.92 16.69) rotate(43.39)" style="fill:#f5f5f5"></rect><rect x="107.92" y="246.62" width="46.18" height="228.85" transform="translate(283.85 8.68) rotate(43.39)" style="fill:#f5f5f5"></rect><path d="M154.5,112.9a44.24,44.24,0,1,1-50.13-37.32A44.19,44.19,0,0,1,154.5,112.9Z" style="fill:#f5f5f5"></path><path d="M144.08,114.41A33.72,33.72,0,1,1,105.88,86,33.68,33.68,0,0,1,144.08,114.41Z" style="fill:#ebebeb"></path><path d="M143.92,113.37c-.2,0-.55-1.41-1.46-3.89a35.67,35.67,0,0,0-5.34-9.67,34.5,34.5,0,0,0-5.3-5.42,34.06,34.06,0,0,0-7.36-4.55,33.41,33.41,0,0,0-9.17-2.64,32.28,32.28,0,0,0-5-.29,35.32,35.32,0,0,0-5.18.5,36.53,36.53,0,0,0-5,1.31,33.7,33.7,0,0,0-4.63,2,32,32,0,0,0-4.13,2.6,31.14,31.14,0,0,0-3.57,3,33.67,33.67,0,0,0-5.34,6.82,34.07,34.07,0,0,0-3.11,6.91A35.56,35.56,0,0,0,77.57,121c0,2.64.16,4.12,0,4.15s-.65-1.39-1-4.1a31.18,31.18,0,0,1,.92-11.47A33.69,33.69,0,0,1,86,94.69a34.36,34.36,0,0,1,8.18-6.18,33.43,33.43,0,0,1,5-2.21,36.09,36.09,0,0,1,5.43-1.43,38,38,0,0,1,5.59-.53,34.86,34.86,0,0,1,5.44.36,33,33,0,0,1,5.13,1.16,32.16,32.16,0,0,1,4.69,1.83,33.68,33.68,0,0,1,13.12,11,31.21,31.21,0,0,1,4.83,10.46C144.05,111.83,144.07,113.34,143.92,113.37Z" style="fill:#e0e0e0"></path><path d="M117.38,138.61l.93,5.8-5.17.83-.91-5.65c-5.17.51-10.35-.3-13.55-2.07l1.83-6.78a21.07,21.07,0,0,0,10.64,2.07l-1.39-8.65c-6-.47-12.69-1.36-13.88-8.76-.88-5.49,2.35-10.84,10.38-13.08l-.92-5.75,5.18-.83.91,5.64a23.67,23.67,0,0,1,11,1.48l-1.57,6.78a21.47,21.47,0,0,0-8.35-1.42l1.41,8.8c6,.43,12.58,1.33,13.75,8.63C128.55,131,125.36,136.33,117.38,138.61Zm-8.84-22.06-1.17-7.35c-2.65,1.06-3.49,2.74-3.22,4.45S106.15,116.2,108.54,116.55Zm10.91,11.06c-.29-1.82-2-2.56-4.3-3l1.14,7.15C118.79,130.79,119.71,129.26,119.45,127.61Z" style="fill:#e0e0e0"></path><path d="M697,370.14a44.24,44.24,0,1,1-50.13-37.32A44.2,44.2,0,0,1,697,370.14Z" style="fill:#f5f5f5"></path><path d="M686.58,371.65a33.72,33.72,0,1,1-38.2-28.43A33.68,33.68,0,0,1,686.58,371.65Z" style="fill:#ebebeb"></path><path d="M686.42,370.61c-.2,0-.56-1.41-1.46-3.88a35.8,35.8,0,0,0-5.34-9.67,34.5,34.5,0,0,0-5.3-5.42,33.7,33.7,0,0,0-7.36-4.56,32.37,32.37,0,0,0-4.4-1.62,30.56,30.56,0,0,0-4.77-1,32.27,32.27,0,0,0-5-.3,36.6,36.6,0,0,0-5.18.5,36.16,36.16,0,0,0-5,1.31,32.56,32.56,0,0,0-4.63,2,30.66,30.66,0,0,0-4.13,2.59,31.21,31.21,0,0,0-3.57,3,34,34,0,0,0-5.35,6.81,35.21,35.21,0,0,0-3.11,6.91,35.89,35.89,0,0,0-1.67,10.91c0,2.64.16,4.12,0,4.15s-.65-1.39-1-4.09a31.49,31.49,0,0,1,.93-11.48,33.8,33.8,0,0,1,8.52-14.89,33,33,0,0,1,3.78-3.33,33.64,33.64,0,0,1,4.41-2.85,34.49,34.49,0,0,1,5-2.21,38.29,38.29,0,0,1,5.43-1.43,36.67,36.67,0,0,1,5.59-.52,34.86,34.86,0,0,1,5.44.35,33.75,33.75,0,0,1,5.12,1.16,32.4,32.4,0,0,1,4.69,1.83,33.84,33.84,0,0,1,13.13,11,31.29,31.29,0,0,1,4.83,10.46C686.55,369.08,686.57,370.58,686.42,370.61Z" style="fill:#e0e0e0"></path><path d="M659.88,395.85l.93,5.8-5.18.83-.9-5.64c-5.17.51-10.35-.31-13.55-2.08L643,388a21.29,21.29,0,0,0,10.64,2.07l-1.39-8.65c-6-.48-12.7-1.37-13.88-8.77-.88-5.49,2.35-10.84,10.38-13.08l-.92-5.75L653,353l.9,5.65a23.82,23.82,0,0,1,11,1.47l-1.57,6.79a21.49,21.49,0,0,0-8.35-1.43l1.41,8.8c6,.43,12.58,1.33,13.75,8.63C671,388.28,667.85,393.57,659.88,395.85ZM651,373.8l-1.18-7.35c-2.64,1.06-3.49,2.73-3.21,4.44S648.65,373.44,651,373.8ZM662,384.85c-.29-1.81-2-2.55-4.3-3l1.14,7.15C661.29,388,662.21,386.51,662,384.85Z" style="fill:#e0e0e0"></path></g><g id="freepik--Floor--inject-21"><path d="M713.38,468.81c0,.14-151.51.26-338.36.26s-338.4-.12-338.4-.26,151.48-.26,338.4-.26S713.38,468.66,713.38,468.81Z" style="fill:#263238"></path></g><g id="freepik--Device--inject-21"><rect x="180.97" y="201.94" width="394.51" height="260.89" rx="14.57" style="fill:#455a64"></rect><path d="M165.56,446H593a0,0,0,0,1,0,0v5.63a17.2,17.2,0,0,1-17.2,17.2h-393a17.2,17.2,0,0,1-17.2-17.2V446a0,0,0,0,1,0,0Z" style="fill:#455a64"></path><polygon points="339.34 443.53 344.64 451.97 419.28 451.97 424.2 443.53 339.34 443.53" style="fill:#263238"></polygon><path d="M572.1,443.53c0,.14-87.56.26-195.55.26S181,443.67,181,443.53s87.55-.25,195.58-.25S572.1,443.39,572.1,443.53Z" style="fill:#263238"></path><polygon points="556.51 432.23 198.85 432.23 199.23 219.76 556.51 219.76 556.51 432.23" style="fill:#fafafa"></polygon><path d="M556.51,432.23c0-1.64-.08-82.23-.2-212.47l.2.2L199.23,220l.26-.26v.17c-.14,75.18-.28,147-.4,212.3l-.24-.25,357.66.25-357.66.24h-.24v-.24c.11-65.34.23-137.12.36-212.3v-.43h.26l357.28.06h.2v.2C556.59,350,556.51,430.6,556.51,432.23Z" style="fill:#263238"></path><path d="M548.74,386.54c0,.15-76,.26-169.79.26s-169.8-.11-169.8-.26,76-.26,169.8-.26S548.74,386.4,548.74,386.54Z" style="fill:#e0e0e0"></path><path d="M548.74,351.84c0,.15-76,.26-169.79.26s-169.8-.11-169.8-.26,76-.26,169.8-.26S548.74,351.7,548.74,351.84Z" style="fill:#e0e0e0"></path><path d="M548.74,421.24c0,.15-76,.26-169.79.26s-169.8-.11-169.8-.26,76-.26,169.8-.26S548.74,421.1,548.74,421.24Z" style="fill:#e0e0e0"></path><path d="M548.74,317.15c0,.14-76,.26-169.79.26s-169.8-.12-169.8-.26,76-.26,169.8-.26S548.74,317,548.74,317.15Z" style="fill:#e0e0e0"></path><path d="M548.74,282.45c0,.14-76,.26-169.79.26s-169.8-.12-169.8-.26,76-.26,169.8-.26S548.74,282.3,548.74,282.45Z" style="fill:#e0e0e0"></path><path d="M548.74,247.75c0,.14-76,.26-169.79.26s-169.8-.12-169.8-.26,76-.26,169.8-.26S548.74,247.61,548.74,247.75Z" style="fill:#e0e0e0"></path><polygon points="386.56 391 386.21 390.8 303.76 344.86 239.56 389.21 238.99 388.39 303.71 343.68 386.35 389.74 516.82 247.41 517.56 248.09 386.56 391" style="fill:#263238"></polygon><path d="M421.18,377.72a29.26,29.26,0,1,1-30.26-28.22A29.24,29.24,0,0,1,421.18,377.72Z" style="fill:#EF5F67"></path><g style="opacity:0.1"><path d="M390.92,349.5a29.27,29.27,0,0,0-28.22,30.27s20.58.2,25.23-8.25S390.92,349.5,390.92,349.5Z" style="fill:#fff"></path></g><path d="M413.69,377.52a22.24,22.24,0,1,1-23-21.45A22.24,22.24,0,0,1,413.69,377.52Z" style="fill:#EF5F67"></path><g style="opacity:0.2"><path d="M413.69,377.52a22.24,22.24,0,1,1-23-21.45A22.24,22.24,0,0,1,413.69,377.52Z"></path></g><path d="M414.35,378.42a21.94,21.94,0,1,1-22.69-21.16A21.94,21.94,0,0,1,414.35,378.42Z" style="fill:#EF5F67"></path><g style="opacity:0.2"><path d="M414.35,378.42a21.94,21.94,0,1,1-22.69-21.16A21.94,21.94,0,0,1,414.35,378.42Z" style="fill:#fff"></path></g><path d="M393.23,377.26l-.2-5.61h0a11.12,11.12,0,0,1,3,.67,9.27,9.27,0,0,1,1.43.83l.07-.17.79-2.06.18-.47-1-1-.48.23a10.51,10.51,0,0,0-4.1-1l-.11-3.09-1-.74,0,.78-1.32,0,.11,3.15c-4.32.56-6.29,3.11-6.19,6,.13,3.86,3.48,4.74,6.59,5.39l.19,5.56a10.7,10.7,0,0,1-5.63-1.92l-1.16,2.85a12.2,12.2,0,0,0,6.9,2.07l.08,2.33-1.09.06,1.11.7,2.28-.08-.11-3.12c4.35-.6,6.35-3.11,6.25-5.95C399.74,378.76,396.34,377.9,393.23,377.26Zm-2.3-.51c-1.63-.41-2.85-1-2.89-2.32s.75-2.25,2.72-2.62Zm2.1-5.11Zm.49,13.9-.17-4.92c1.68.42,2.93,1,3,2.37C396.37,384.19,395.54,385.17,393.52,385.54Z" style="fill:#EF5F67"></path><g style="opacity:0.30000000000000004"><path d="M393.23,377.26l-.2-5.61h0a11.12,11.12,0,0,1,3,.67,9.27,9.27,0,0,1,1.43.83l.07-.17.79-2.06.18-.47-1-1-.48.23a10.51,10.51,0,0,0-4.1-1l-.11-3.09-1-.74,0,.78-1.32,0,.11,3.15c-4.32.56-6.29,3.11-6.19,6,.13,3.86,3.48,4.74,6.59,5.39l.19,5.56a10.7,10.7,0,0,1-5.63-1.92l-1.16,2.85a12.2,12.2,0,0,0,6.9,2.07l.08,2.33-1.09.06,1.11.7,2.28-.08-.11-3.12c4.35-.6,6.35-3.11,6.25-5.95C399.74,378.76,396.34,377.9,393.23,377.26Zm-2.3-.51c-1.63-.41-2.85-1-2.89-2.32s.75-2.25,2.72-2.62Zm2.1-5.11Zm.49,13.9-.17-4.92c1.68.42,2.93,1,3,2.37C396.37,384.19,395.54,385.17,393.52,385.54Z"></path></g><path d="M392.66,387.84l.1,3.12-2.28.08-.1-3.09a12.2,12.2,0,0,1-6.9-2.07l1.16-2.85a10.7,10.7,0,0,0,5.63,1.92l-.19-5.56c-3.12-.65-6.46-1.53-6.59-5.4-.1-2.83,1.87-5.38,6.19-5.95l-.11-3.14,2.28-.08.11,3.09a11.92,11.92,0,0,1,5.7,1.5l-1,2.84a11.58,11.58,0,0,0-4.56-1.34l.2,5.62c3.11.64,6.51,1.5,6.65,5.36C399,384.73,397,387.25,392.66,387.84ZM390,376l-.17-4.95c-2,.38-2.77,1.41-2.72,2.63S388.33,375.61,390,376Zm5.4,6.24c-.05-1.36-1.3-1.95-3-2.37l.17,4.92C394.57,384.44,395.4,383.46,395.36,382.26Z" style="fill:#EF5F67"></path><path d="M385.47,376.25a1.81,1.81,0,0,1-.67-.62,3.43,3.43,0,0,1-.7-2.08,3.55,3.55,0,0,1,.7-2.08,2.08,2.08,0,0,1,.67-.62s-.24.25-.54.71a3.57,3.57,0,0,0,0,4C385.22,376,385.49,376.23,385.47,376.25Z" style="fill:#fff"></path><path d="M390.13,367.57a2.09,2.09,0,0,1-.14-.91,2.11,2.11,0,0,1,.08-.92,2,2,0,0,1,.14.91A2,2,0,0,1,390.13,367.57Z" style="fill:#fff"></path><path d="M392.68,355.42a3.38,3.38,0,0,1-.72,0c-.23,0-.51,0-.84,0s-.69,0-1.1,0-.86.05-1.34.1-1,.13-1.52.21A23.21,23.21,0,0,0,380.5,358c-.47.26-.93.49-1.34.75s-.79.5-1.12.73-.64.45-.9.64a7.66,7.66,0,0,0-.66.52,4.54,4.54,0,0,1-.57.43,4.24,4.24,0,0,1,.51-.5c.17-.16.38-.34.64-.54s.55-.45.89-.68.7-.5,1.12-.75.86-.51,1.34-.78a24.34,24.34,0,0,1,3.27-1.4,25.31,25.31,0,0,1,3.44-.85c.55-.07,1.06-.15,1.54-.19s.94-.06,1.35-.07.79,0,1.12,0a15.41,15.41,0,0,1,1.55.13Z" style="fill:#fff"></path><circle cx="445.95" cy="390.36" r="14.06" transform="translate(-3.7 4.27) rotate(-0.55)" style="fill:#EF5F67"></circle><g style="opacity:0.1"><path d="M445.46,376.31a14.06,14.06,0,0,0-13.56,14.54s9.89.1,12.12-4S445.46,376.31,445.46,376.31Z" style="fill:#fff"></path></g><path d="M456.39,389.77a10.68,10.68,0,1,1-11.05-10.3A10.67,10.67,0,0,1,456.39,389.77Z" style="fill:#EF5F67"></path><g style="opacity:0.2"><path d="M456.39,389.77a10.68,10.68,0,1,1-11.05-10.3A10.67,10.67,0,0,1,456.39,389.77Z"></path></g><circle cx="446.18" cy="390.57" r="10.54" transform="translate(-74.25 106.36) rotate(-12.56)" style="fill:#EF5F67"></circle><g style="opacity:0.2"><circle cx="446.18" cy="390.57" r="10.54" transform="translate(-74.25 106.36) rotate(-12.56)" style="fill:#fff"></circle></g><path d="M446.56,389.65l-.09-2.7h0a6,6,0,0,1,1.45.32,4.76,4.76,0,0,1,.68.4l0-.08.38-1,.09-.22-.5-.49-.23.11a5.06,5.06,0,0,0-2-.49l-.05-1.49-.48-.35,0,.37-.64,0,.06,1.51c-2.08.27-3,1.5-3,2.86.07,1.86,1.67,2.28,3.17,2.59l.09,2.67a5.19,5.19,0,0,1-2.71-.92l-.55,1.37a5.78,5.78,0,0,0,3.31,1l0,1.12-.52,0,.53.34,1.1,0-.06-1.5c2.09-.29,3.05-1.5,3-2.86C449.69,390.37,448.06,390,446.56,389.65Zm-1.1-.25c-.78-.2-1.37-.47-1.39-1.11s.36-1.08,1.31-1.26Zm1-2.45Zm.23,6.68-.08-2.37c.81.2,1.41.49,1.43,1.14S447.67,393.44,446.7,393.63Z" style="fill:#EF5F67"></path><g style="opacity:0.30000000000000004"><path d="M446.56,389.65l-.09-2.7h0a6,6,0,0,1,1.45.32,4.76,4.76,0,0,1,.68.4l0-.08.38-1,.09-.22-.5-.49-.23.11a5.06,5.06,0,0,0-2-.49l-.05-1.49-.48-.35,0,.37-.64,0,.06,1.51c-2.08.27-3,1.5-3,2.86.07,1.86,1.67,2.28,3.17,2.59l.09,2.67a5.19,5.19,0,0,1-2.71-.92l-.55,1.37a5.78,5.78,0,0,0,3.31,1l0,1.12-.52,0,.53.34,1.1,0-.06-1.5c2.09-.29,3.05-1.5,3-2.86C449.69,390.37,448.06,390,446.56,389.65Zm-1.1-.25c-.78-.2-1.37-.47-1.39-1.11s.36-1.08,1.31-1.26Zm1-2.45Zm.23,6.68-.08-2.37c.81.2,1.41.49,1.43,1.14S447.67,393.44,446.7,393.63Z"></path></g><path d="M446.29,394.73l0,1.5-1.09,0-.06-1.49a5.8,5.8,0,0,1-3.31-1l.56-1.37a5.15,5.15,0,0,0,2.7.92l-.09-2.67c-1.49-.31-3.1-.73-3.17-2.59,0-1.36.9-2.59,3-2.86l-.05-1.51,1.09,0,.05,1.48a5.75,5.75,0,0,1,2.74.72l-.5,1.37a5.42,5.42,0,0,0-2.19-.64l.1,2.7c1.49.3,3.13.71,3.19,2.57C449.34,393.23,448.38,394.44,446.29,394.73Zm-1.3-5.68-.08-2.37c-.94.18-1.33.67-1.31,1.26S444.21,388.85,445,389.05Zm2.6,3c0-.65-.63-.94-1.43-1.14l.08,2.37C447.21,393.09,447.61,392.63,447.59,392.05Z" style="fill:#EF5F67"></path><path d="M442.84,389.16a.87.87,0,0,1-.33-.29,1.75,1.75,0,0,1-.33-1,1.63,1.63,0,0,1,.34-1c.16-.22.31-.31.32-.3s-.12.12-.26.34a1.74,1.74,0,0,0-.3,1,1.7,1.7,0,0,0,.3.95C442.72,389,442.85,389.15,442.84,389.16Z" style="fill:#fff"></path><path d="M445.08,385s-.06-.19-.07-.44a.22.22,0,1,1,.1,0A1,1,0,0,1,445.08,385Z" style="fill:#fff"></path><path d="M446.3,379.16H445c-.2,0-.41,0-.64,0s-.47.06-.73.1a11.55,11.55,0,0,0-1.64.41,14.36,14.36,0,0,0-1.56.66c-.23.13-.45.24-.64.36l-.54.35-.44.31-.31.25a2,2,0,0,1-.28.21l.25-.24a3.15,3.15,0,0,1,.31-.27c.12-.09.26-.21.42-.32a6.32,6.32,0,0,1,.54-.36c.2-.13.42-.25.65-.37a10.43,10.43,0,0,1,1.57-.68,10.11,10.11,0,0,1,1.65-.4c.26,0,.51-.08.74-.1l.65,0h.53a2.37,2.37,0,0,1,.41,0A1.91,1.91,0,0,1,446.3,379.16Z" style="fill:#fff"></path><circle cx="239.27" cy="389.33" r="11.39" style="fill:#EF5F67"></circle><circle cx="303.77" cy="343.77" r="11.39" style="fill:#EF5F67"></circle><circle cx="515.42" cy="247.75" r="11.39" style="fill:#EF5F67"></circle></g><g id="freepik--Funnel--inject-21"><path d="M369.29,125.55a41.74,41.74,0,0,1,10.28-4.47l2.12-10.19,17.21-.3,2.47,10.1a42.17,42.17,0,0,1,10.44,4.11l8.7-5.7,12.38,12-5.39,8.89A42.36,42.36,0,0,1,432,150.23l10.18,2.12.3,17.21L432.35,172a42.14,42.14,0,0,1-4.1,10.44l5.69,8.7L422,203.54l-8.89-5.38a42.41,42.41,0,0,1-10.29,4.47l-2.12,10.18-17.2.3L381,203a42.25,42.25,0,0,1-10.43-4.11l-8.7,5.7L349.5,192.65l5.39-8.89a42.19,42.19,0,0,1-4.47-10.29l-10.18-2.12-.3-17.2,10.1-2.48a42.69,42.69,0,0,1,4.1-10.44l-5.69-8.69,11.95-12.38,8.89,5.39Zm9.17,22.92a18.46,18.46,0,1,0,26.1-.46A18.45,18.45,0,0,0,378.46,148.47Z" style="fill:#e0e0e0"></path><path d="M429.66,57.52a24.39,24.39,0,0,1,6-2.61L436.9,49,447,48.79l1.45,5.9a24.4,24.4,0,0,1,6.1,2.39l5.07-3.32,7.23,7-3.14,5.19a24.39,24.39,0,0,1,2.61,6l5.94,1.23.18,10-5.9,1.45a24.82,24.82,0,0,1-2.4,6.1l3.33,5.07-7,7.23-5.19-3.14a24.39,24.39,0,0,1-6,2.61L448,108.49l-10.05.17-1.44-5.9a24.66,24.66,0,0,1-6.1-2.4l-5.08,3.33-7.23-7,3.15-5.19a24.39,24.39,0,0,1-2.61-6l-5.95-1.24-.17-10,5.9-1.44a24.25,24.25,0,0,1,2.39-6.1l-3.32-5.08,7-7.23,5.19,3.15ZM435,70.91a10.78,10.78,0,1,0,15.25-.27A10.78,10.78,0,0,0,435,70.91Z" style="fill:#e0e0e0"></path><path d="M388.34,68.9a9.62,9.62,0,0,0,7.13-7.81c.9-5.23-2.33-10.16-7.24-11s-9.6,2.7-10.51,7.92a9.58,9.58,0,0,0,4.16,9.8c-14-.25-15.91,14.71-15.91,14.71l32.3,5.62S401.55,73.24,388.34,68.9Z" style="fill:#455a64"></path><path d="M498.36,98a8.43,8.43,0,0,0,1.69-9.13,7.93,7.93,0,1,0-14.66,5.94,8.41,8.41,0,0,0,7.65,5.37c-10.57,6.32-5,18.35-5,18.35l26.67-10.8S510.22,95.1,498.36,98Z" style="fill:#EF5F67"></path><rect x="479.37" y="137.62" width="8.93" height="17.61" transform="translate(44.8 -104.14) rotate(12.88)" style="fill:#455a64"></rect><rect x="465.88" y="141.54" width="8.93" height="10.7" transform="translate(44.56 -101.13) rotate(12.88)" style="fill:#455a64"></rect><rect x="492.87" y="131.53" width="8.93" height="26.67" transform="translate(44.79 -107.19) rotate(12.88)" style="fill:#455a64"></rect><polygon points="299.52 170.21 362.76 271.53 376.87 327.72 398.73 327.72 398.73 171.9 299.52 170.21" style="fill:#EF5F67"></polygon><polygon points="383.85 171.9 383.85 327.72 405.71 327.72 419.82 271.53 483.06 170.21 383.85 171.9" style="fill:#EF5F67"></polygon><path d="M480.78,182H302.21a10.05,10.05,0,0,1-10-10h0a10.05,10.05,0,0,1,10-10.05H480.78a10,10,0,0,1,10,10.05h0A10,10,0,0,1,480.78,182Z" style="fill:#EF5F67"></path><path d="M483.06,182.3c0,.14-40.56.26-90.59.26s-90.6-.12-90.6-.26,40.56-.26,90.6-.26S483.06,182.16,483.06,182.3Z" style="fill:#263238"></path><g style="opacity:0.2"><polygon points="319.8 184.9 377.04 270.44 384.28 327.71 388.45 327.71 389.23 270.06 352.98 184.9 319.8 184.9" style="fill:#fff"></polygon></g><path d="M409.06,271.53c0,.15-10.14.26-22.64.26s-22.64-.11-22.64-.26,10.13-.26,22.64-.26S409.06,271.39,409.06,271.53Z" style="fill:#263238"></path></g></svg>
