<svg xmlns="http://www.w3.org/2000/svg" viewBox="0 0 750 500"><g id="freepik--Gears--inject-271"><path d="M149.53,249.51a35.42,35.42,0,0,1,7.68,5.41l8.21-2.92,7.71,12.17L167,270.34a35.05,35.05,0,0,1,1.61,9.26l7.87,3.73-3.16,14.06-8.7,0a35.18,35.18,0,0,1-5.41,7.68l2.92,8.21L149.94,321l-6.18-6.14a35.73,35.73,0,0,1-9.25,1.61l-3.74,7.86-14.06-3.15,0-8.71a35.66,35.66,0,0,1-7.68-5.41l-8.2,2.92-7.72-12.17,6.15-6.17a35.88,35.88,0,0,1-1.61-9.26l-7.86-3.73,3.15-14.06,8.71,0A34.51,34.51,0,0,1,107,256.9l-2.92-8.21L116.29,241l6.17,6.15a35.4,35.4,0,0,1,9.26-1.62l3.73-7.86,14.06,3.15,0,8.71Zm-12.4,16.55a15.45,15.45,0,1,0,11.7,18.46A15.44,15.44,0,0,0,137.13,266.06Z" style="fill:#EF5F67;fill-rule:evenodd"></path><g style="opacity:0.8"><path d="M149.53,249.51a35.42,35.42,0,0,1,7.68,5.41l8.21-2.92,7.71,12.17L167,270.34a35.05,35.05,0,0,1,1.61,9.26l7.87,3.73-3.16,14.06-8.7,0a35.18,35.18,0,0,1-5.41,7.68l2.92,8.21L149.94,321l-6.18-6.14a35.73,35.73,0,0,1-9.25,1.61l-3.74,7.86-14.06-3.15,0-8.71a35.66,35.66,0,0,1-7.68-5.41l-8.2,2.92-7.72-12.17,6.15-6.17a35.88,35.88,0,0,1-1.61-9.26l-7.86-3.73,3.15-14.06,8.71,0A34.51,34.51,0,0,1,107,256.9l-2.92-8.21L116.29,241l6.17,6.15a35.4,35.4,0,0,1,9.26-1.62l3.73-7.86,14.06,3.15,0,8.71Zm-12.4,16.55a15.45,15.45,0,1,0,11.7,18.46A15.44,15.44,0,0,0,137.13,266.06Z" style="fill:#fff;fill-rule:evenodd"></path></g><path d="M162,375.91a10.72,10.72,0,0,1,3.31,1,14.1,14.1,0,0,1,7.93,13.11,14.29,14.29,0,0,1-2.22,7.22,14.38,14.38,0,0,1-6.32,5.44A14.25,14.25,0,0,1,148.15,399a13.5,13.5,0,0,1-2.31-3.64,13.34,13.34,0,0,1-1.09-4,14.24,14.24,0,0,1,1.08-7.47,14.14,14.14,0,0,1,12.77-8.47,10.58,10.58,0,0,1,3.43.48c0,.1-1.22-.24-3.42-.16a13.92,13.92,0,0,0-8.45,3.33,13.68,13.68,0,0,0-4.68,12.2,12.84,12.84,0,0,0,1.06,3.76,13,13,0,0,0,2.2,3.44A13.54,13.54,0,0,0,164.41,402a13.76,13.76,0,0,0,6-5.11,13.63,13.63,0,0,0,1-13,14,14,0,0,0-6.21-6.63C163.24,376.21,162,376,162,375.91Z" style="fill:#263238"></path><path d="M173.24,360.94l0-.49c0-.36,0-.85,0-1.49,0-1.37-.05-3.33-.08-5.89l.1.12-12.74-2.78.23-.11c-1,2.16-2.14,4.56-3.35,7.13l-.06.13h-.14a31.94,31.94,0,0,0-8.3,1.48l-.15,0-.12-.12-5.6-5.54.36,0-11,7,.13-.37,2.66,7.41.07.19-.14.15a31.59,31.59,0,0,0-4.83,6.88l-.1.19h-.21L122,375l.35-.28c-.89,4-1.86,8.3-2.84,12.72l-.2-.42,7.11,3.37.21.1v.23a31.29,31.29,0,0,0,1.45,8.27l.07.23-.17.16-5.56,5.59.06-.49,7,11-.47-.16,7.42-2.65.23-.08.18.17a31.61,31.61,0,0,0,6.85,4.83h0l.21.35h0v3.94c0,1.32,0,2.63,0,3.93l-.31-.39,12.71,2.85-.44.22,3.38-7.11.1-.22h.24a31.3,31.3,0,0,0,8.27-1.43l.23-.07.16.17,5.58,5.56-.47-.05,11-7-.15.44-2.63-7.43-.07-.2.15-.16a32.09,32.09,0,0,0,4.85-6.87l.09-.18h8.09l-.33.26c1-4.47,2-8.69,2.88-12.71l.17.35-7.1-3.4-.16-.07v-.18a31.64,31.64,0,0,0-1.42-8.3l-.05-.16.11-.11,5.58-5.56,0,.29c-2.69-4.27-5-7.92-6.93-11l.21.07-7.44,2.6-.07,0-.06-.05a34.25,34.25,0,0,0-5-3.9l-1.36-.81a3.62,3.62,0,0,1-.45-.28,4.7,4.7,0,0,1,.48.22c.31.16.78.4,1.39.76a30.86,30.86,0,0,1,5.17,3.82l-.13,0,7.4-2.68.14,0,.08.12,7,11,.1.16-.13.13-5.54,5.6.06-.26a32.13,32.13,0,0,1,1.5,8.44l-.17-.25,7.12,3.36.23.11-.06.24c-.89,4-1.83,8.24-2.83,12.72l0,.26h-.27l-7.87,0,.3-.18a32.07,32.07,0,0,1-4.94,7l.08-.37,2.65,7.42.1.28-.25.16-11,7-.26.17-.22-.22-5.59-5.55.39.09a31.94,31.94,0,0,1-8.47,1.48l.34-.22-3.37,7.11-.14.29-.31-.07-12.72-2.85-.31-.07v-.32c0-1.3,0-2.61,0-3.93v-3.94h0c.43.7.12.19.21.35h0a32.59,32.59,0,0,1-7-5l.41.09L129.31,416l-.31.11-.17-.27c-2.39-3.79-4.76-7.53-7-11l-.16-.26.22-.23,5.56-5.58-.09.4a32.5,32.5,0,0,1-1.47-8.48l.21.33L119,387.65l-.27-.13.07-.29c1-4.42,2-8.72,2.87-12.72l.06-.28h8.16l-.3.18a32,32,0,0,1,4.95-7l-.07.34c-.91-2.6-1.81-5.13-2.62-7.43l-.09-.24.22-.13L143,353l.2-.13.16.16,5.56,5.58-.26-.07a32.48,32.48,0,0,1,8.44-1.44l-.2.14,3.4-7.1.08-.15.15,0,12.7,2.92.11,0v.1c0,2.53,0,4.48,0,5.84,0,.64,0,1.14,0,1.51A3.52,3.52,0,0,1,173.24,360.94Z" style="fill:#263238"></path><path d="M98.69,332.34a20.81,20.81,0,0,1,4.47,3.15l4.77-1.7,4.49,7.09-3.57,3.59a20.64,20.64,0,0,1,.93,5.39l4.58,2.17-1.83,8.19h-5.07a20.81,20.81,0,0,1-3.15,4.47l1.7,4.77L98.92,374l-3.59-3.57a20.71,20.71,0,0,1-5.39.93l-2.17,4.58-8.19-1.83V369a20.81,20.81,0,0,1-4.47-3.15l-4.78,1.7-4.49-7.09,3.58-3.59a21.15,21.15,0,0,1-.94-5.39l-4.57-2.17,1.83-8.19H70.8A20.47,20.47,0,0,1,74,336.64l-1.7-4.78,7.08-4.49,3.6,3.58a21,21,0,0,1,5.39-.94l2.17-4.57,8.18,1.83,0,5.07ZM91.47,342a9,9,0,1,0,6.81,10.75A9,9,0,0,0,91.47,342Z" style="fill:#EF5F67;fill-rule:evenodd"></path><g style="opacity:0.4"><path d="M98.69,332.34a20.81,20.81,0,0,1,4.47,3.15l4.77-1.7,4.49,7.09-3.57,3.59a20.64,20.64,0,0,1,.93,5.39l4.58,2.17-1.83,8.19h-5.07a20.81,20.81,0,0,1-3.15,4.47l1.7,4.77L98.92,374l-3.59-3.57a20.71,20.71,0,0,1-5.39.93l-2.17,4.58-8.19-1.83V369a20.81,20.81,0,0,1-4.47-3.15l-4.78,1.7-4.49-7.09,3.58-3.59a21.15,21.15,0,0,1-.94-5.39l-4.57-2.17,1.83-8.19H70.8A20.47,20.47,0,0,1,74,336.64l-1.7-4.78,7.08-4.49,3.6,3.58a21,21,0,0,1,5.39-.94l2.17-4.57,8.18,1.83,0,5.07ZM91.47,342a9,9,0,1,0,6.81,10.75A9,9,0,0,0,91.47,342Z" style="fill:#fff;fill-rule:evenodd"></path></g><path d="M624.79,190.67a26.11,26.11,0,0,1,6.68,1.76l4.9-4.11,8.42,6.41-2.65,5.83a26,26,0,0,1,3.48,6l6.37.56,1.42,10.49-6,2.24a25.93,25.93,0,0,1-1.76,6.67l4.11,4.91-6.41,8.42-5.83-2.65a26,26,0,0,1-6,3.48L631,247l-10.49,1.42-2.24-6a25.93,25.93,0,0,1-6.67-1.76l-4.91,4.11-8.42-6.41,2.65-5.83a26,26,0,0,1-3.48-6l-6.37-.56-1.42-10.49,6-2.24a26.11,26.11,0,0,1,1.76-6.68l-4.11-4.9,6.41-8.42,5.83,2.65a26,26,0,0,1,6-3.48l.56-6.37,10.49-1.42,2.24,6Zm-3.14,14.47a11.36,11.36,0,1,0,11.4,8.69A11.36,11.36,0,0,0,621.65,205.14Z" style="fill:#263238;fill-rule:evenodd"></path><path d="M665.88,127.9a10.41,10.41,0,0,1,3.4-.18,13.68,13.68,0,0,1,8.33,3.88,13.83,13.83,0,0,1,3.43,5.46,14,14,0,0,1,.43,7.4,14.15,14.15,0,0,1-4,7.15A14,14,0,0,1,661,153.85a12.89,12.89,0,0,1-3.36-2.56,13.35,13.35,0,0,1-2.37-3.28,14,14,0,0,1-1.55-7.24,13.85,13.85,0,0,1,1.85-6.18,13.6,13.6,0,0,1,7-6,10.33,10.33,0,0,1,3.31-.73,32.81,32.81,0,0,0-3.2,1,13.71,13.71,0,0,0-6.63,6,13.42,13.42,0,0,0-.13,12.81,13.43,13.43,0,0,0,5.45,5.5,13.28,13.28,0,0,0,15.6-2.12,13.27,13.27,0,0,0,3.79-6.76,13.38,13.38,0,0,0-3.55-12.3,13.6,13.6,0,0,0-8-4A33.32,33.32,0,0,0,665.88,127.9Z" style="fill:#263238"></path><path d="M671.08,110.31a4.39,4.39,0,0,1-.19-.44l-.54-1.36c-.49-1.25-1.18-3.05-2.09-5.39l.14.09L655.74,105l.17-.18c-.19,2.33-.41,4.92-.64,7.69v.14l-.13,0a31.27,31.27,0,0,0-7.13,4.19l-.13.1-.14-.07-7-3.18.34-.09-7.71,10.19v-.39l5,5.92.13.15-.08.18a31,31,0,0,0-2.09,8l0,.21L636,138l-7.23,2.71.23-.37c.54,4,1.13,8.26,1.73,12.66l-.33-.32,7.69.67.23,0,.09.21a30.83,30.83,0,0,0,4.15,7.11l.14.18-.1.21c-1,2.21-2.09,4.61-3.2,7l-.11-.46,10.17,7.73-.49,0,5.92-5,.18-.15.22.09a31.19,31.19,0,0,0,8,2.1h0l.32.25h0v0l0,.06,0,.11.09.23.17.46.34.91.67,1.81,1.35,3.61-.42-.25,12.67-1.72-.34.35q.34-3.89.68-7.69l0-.23.22-.09a31.42,31.42,0,0,0,7.11-4.14l.18-.15.21.1,7,3.21-.45.11L701,159.25v.45l-5-5.92-.14-.17.09-.2a31.37,31.37,0,0,0,2.11-8l0-.2.19-.08,7.24-2.69-.21.35c-.6-4.45-1.16-8.66-1.69-12.66l.27.25-7.69-.69-.17,0-.07-.15a31.11,31.11,0,0,0-4.14-7.15l-.09-.13.06-.14,3.23-7,.07.28L685,107.62h.22l-5.95,4.93-.06,0-.07,0a33,33,0,0,0-6-1.86l-1.52-.29a2.39,2.39,0,0,1-.51-.1l.52,0c.34,0,.85.1,1.54.22a31,31,0,0,1,6.05,1.75l-.13,0,5.89-5,.1-.09.12.09,10.2,7.69.15.12-.08.17-3.18,7,0-.27a31.32,31.32,0,0,1,4.25,7.25l-.23-.17,7.69.65.24,0,0,.23c.56,4,1.13,8.21,1.75,12.67l0,.25-.24.1-7.23,2.71.22-.27a31.91,31.91,0,0,1-2.14,8.14l-.06-.36,5,5.92.19.22-.18.23-7.73,10.18-.18.24-.27-.13-7-3.2.39,0a31.85,31.85,0,0,1-7.29,4.25l.24-.32c-.22,2.54-.45,5.1-.67,7.69l0,.31-.31,0L666,180.43l-.32,0-.1-.3-1.35-3.6-.68-1.82-.34-.91-.17-.45-.09-.23,0-.11,0-.06v0h0l.32.25h0a32.23,32.23,0,0,1-8.15-2.15l.41-.07-5.93,5-.24.21L649,176l-10.17-7.75-.25-.19.13-.28c1.11-2.42,2.21-4.82,3.21-7l.05.39a31.8,31.8,0,0,1-4.24-7.29l.31.23-7.69-.69-.3,0,0-.29c-.6-4.4-1.17-8.69-1.71-12.67l0-.28.26-.1,7.23-2.69-.21.28a31.26,31.26,0,0,1,2.16-8.14l0,.33-4.95-5.93-.16-.19.15-.19,7.77-10.16.13-.18.21.1,7,3.22-.27,0a31.59,31.59,0,0,1,7.27-4.2l-.14.19c.25-2.77.49-5.36.71-7.69v-.16l.16,0L668.36,103l.1,0,0,.1,1.94,5.38.49,1.4A3.12,3.12,0,0,1,671.08,110.31Z" style="fill:#263238"></path></g><g id="freepik--Screen--inject-271"><rect x="156.99" y="71.71" width="460.04" height="318.02" style="fill:#fafafa"></rect><path d="M617,389.73c0-1.72-.08-124.55-.21-318l.21.21L157,72h0l.27-.26c0,113.6,0,221.5,0,318l-.24-.23,460,.23L157,390h-.23v-.24c0-96.52,0-204.42,0-318v-.26h.3l460,0h.21v.21C617.12,265.18,617,388,617,389.73Z" style="fill:#263238"></path><rect x="156.99" y="71.71" width="460.04" height="18.45" style="fill:#263238"></rect><path d="M170.12,80.59a2.84,2.84,0,1,1-2.83-2.84A2.83,2.83,0,0,1,170.12,80.59Z" style="fill:#fff"></path><path d="M180.34,80.59a2.84,2.84,0,1,1-2.83-2.84A2.83,2.83,0,0,1,180.34,80.59Z" style="fill:#fff"></path><path d="M190.56,80.59a2.83,2.83,0,1,1-2.83-2.84A2.83,2.83,0,0,1,190.56,80.59Z" style="fill:#fff"></path><path d="M600.58,369.75c0-1.16-.06-38-.16-103.3l.16.15-424.7.11h0l.27-.26c0,35.38,0,69.95,0,103.3l-.26-.26,424.73.26L175.85,370h-.25v-.25c0-33.35,0-67.92,0-103.3v-.26h.29l424.7.1h.15v.16C600.63,331.78,600.58,368.6,600.58,369.75Z" style="fill:#e0e0e0"></path><path d="M382.15,257.77s0-.9,0-2.63,0-4.29,0-7.64c0-6.71,0-16.55-.05-29.13,0-25.16-.07-61.29-.11-105.2l.21.21-205.33.05h0l.26-.26c0,51.73,0,100.83,0,144.6l-.24-.23,148.09.11,42.18.07,11.2,0h3.88l-1,0h-2.86l-11.15,0-42.13.06L176.8,258h-.24v-.24c0-43.77,0-92.87,0-144.6v-.26h.28l205.33,0h.21v.21c-.05,44-.08,80.14-.11,105.33,0,12.56,0,22.39-.05,29.08,0,3.33,0,5.88,0,7.61S382.15,257.77,382.15,257.77Z" style="fill:#e0e0e0"></path><path d="M199,230.43,213.79,209a9.48,9.48,0,0,1,13.3-2.32l2.08,1.49a9.47,9.47,0,0,0,14.47-4.64l7.18-21a9.48,9.48,0,0,1,17.93,0l3.47,10.17a9.48,9.48,0,0,0,17.63.77l3-6.8a9.48,9.48,0,0,1,16.48-1.51h0a9.47,9.47,0,0,0,16.78-2.28l3.36-9.83c3.09-9,16.08-8.34,18.2,1l12.85,56.4S199.45,230,199,230.43Z" style="fill:#EF5F67"></path><g style="opacity:0.30000000000000004"><path d="M199,230.43,213.79,209a9.48,9.48,0,0,1,13.3-2.32l2.08,1.49a9.47,9.47,0,0,0,14.47-4.64l7.18-21a9.48,9.48,0,0,1,17.93,0l3.47,10.17a9.48,9.48,0,0,0,17.63.77l3-6.8a9.48,9.48,0,0,1,16.48-1.51h0a9.47,9.47,0,0,0,16.78-2.28l3.36-9.83c3.09-9,16.08-8.34,18.2,1l12.85,56.4S199.45,230,199,230.43Z"></path></g><path d="M198.59,231l12-35.16a9.26,9.26,0,0,1,17.44-.21l5.75,15.58a9.25,9.25,0,0,0,15.89,2.59l4.66-5.8A9.25,9.25,0,0,1,267,206.31l10.86,7.94a9.27,9.27,0,0,0,5.46,1.79h13.82a9.26,9.26,0,0,1,5.47,1.78l10.28,7.52A9.25,9.25,0,0,0,326,223.1L335.65,209c.12-.18.25-.36.38-.52,3.88-4.91,11.64-3.87,14.45,1.71l10.33,20.48S198.59,230.32,198.59,231Z" style="fill:#EF5F67"></path><path d="M360.75,230.65,348.2,220.42c-17.23-12.66-25.39,11.45-38.93-6.64l-4.66-5.8a9.26,9.26,0,0,0-12.68-1.67l-5.39,3.95A30,30,0,0,1,268.85,216h-7.06a9.26,9.26,0,0,0-5.46,1.78l-10.28,7.52c-4.22,3.09-7.16,3.5-13.91-2.17,0,0-7.33-5.95-7.5-6.16-3.59-4.38-11.1-4.37-14.33,0-.78,1.05-1.59,2-2.47,3l-9.7,10.69S360.75,230,360.75,230.65Z" style="fill:#EF5F67"></path><g style="opacity:0.30000000000000004"><path d="M360.75,230.65,348.2,220.42c-17.23-12.66-25.39,11.45-38.93-6.64l-4.66-5.8a9.26,9.26,0,0,0-12.68-1.67l-5.39,3.95A30,30,0,0,1,268.85,216h-7.06a9.26,9.26,0,0,0-5.46,1.78l-10.28,7.52c-4.22,3.09-7.16,3.5-13.91-2.17,0,0-7.33-5.95-7.5-6.16-3.59-4.38-11.1-4.37-14.33,0-.78,1.05-1.59,2-2.47,3l-9.7,10.69S360.75,230,360.75,230.65Z" style="fill:#fff"></path></g><path d="M243.19,149.47c0,.14-5.75.26-12.84.26s-12.83-.12-12.83-.26,5.75-.26,12.83-.26S243.19,149.33,243.19,149.47Z" style="fill:#263238"></path><rect x="210.33" y="147.27" width="4.39" height="4.39" style="fill:#EF5F67"></rect><path d="M291.6,149.47c0,.14-5.74.26-12.83.26s-12.83-.12-12.83-.26,5.74-.26,12.83-.26S291.6,149.33,291.6,149.47Z" style="fill:#263238"></path><rect x="258.74" y="147.27" width="4.39" height="4.39" style="fill:#EF5F67"></rect><path d="M340,149.47c0,.14-5.74.26-12.83.26s-12.83-.12-12.83-.26,5.74-.26,12.83-.26S340,149.33,340,149.47Z" style="fill:#263238"></path><rect x="307.16" y="147.27" width="4.39" height="4.39" style="fill:#EF5F67"></rect><path d="M340.66,352.08,351.23,337a3.79,3.79,0,0,1,5.38-.85l5.56,4.2a3.79,3.79,0,0,0,5.56-1.13l16-27.78A3.78,3.78,0,0,1,390,311l10,12.7a3.79,3.79,0,0,0,6.17-.31l7.31-11.51A3.8,3.8,0,0,1,420,312l6,10.47a3.78,3.78,0,0,0,6.47.14l20.66-32.38a3.79,3.79,0,0,1,6.34-.07l34.14,51.06a3.78,3.78,0,0,0,6,.44l20.74-22.82a3.78,3.78,0,0,1,5.48-.13l16.5,16.55a3.79,3.79,0,0,0,6-.77l29.51-51.12a3.78,3.78,0,0,1,7.06,1.9v66.79Z" style="fill:#EF5F67"></path><path d="M584.23,360.43s0-.09,0-.29,0-.51,0-.9c0-.82,0-2.05,0-3.73l.06.07c-14.1.11-63.16.19-121.42.19s-107.34-.08-121.44-.19l.07-.07c0,1.68,0,2.91,0,3.73,0,.39,0,.69,0,.9a1.51,1.51,0,0,1,0,.29,1.51,1.51,0,0,1,0-.29c0-.21,0-.51,0-.9,0-.82,0-2.05,0-3.73v-.06h.07c14.1-.11,63.16-.2,121.44-.2s107.32.09,121.42.2h.07v.06c0,1.68,0,2.91,0,3.73,0,.39,0,.69,0,.9A.88.88,0,0,1,584.23,360.43Z" style="fill:#263238"></path><path d="M368.36,360c-.15,0-.26-.46-.26-1s.11-1,.26-1,.26.47.26,1S368.5,360,368.36,360Z" style="fill:#263238"></path><path d="M395.34,360c-.14,0-.26-.46-.26-1s.12-1,.26-1,.26.47.26,1S395.48,360,395.34,360Z" style="fill:#263238"></path><path d="M422.33,360c-.15,0-.27-.46-.27-1s.12-1,.27-1,.26.47.26,1S422.47,360,422.33,360Z" style="fill:#263238"></path><path d="M449.31,360c-.14,0-.26-.46-.26-1s.12-1,.26-1,.26.47.26,1S449.45,360,449.31,360Z" style="fill:#263238"></path><path d="M476.29,360c-.14,0-.26-.46-.26-1s.12-1,.26-1,.26.47.26,1S476.44,360,476.29,360Z" style="fill:#263238"></path><path d="M503.28,360c-.14,0-.26-.46-.26-1s.12-1,.26-1,.26.47.26,1S503.42,360,503.28,360Z" style="fill:#263238"></path><path d="M530.26,360c-.14,0-.26-.46-.26-1s.12-1,.26-1,.26.47.26,1S530.41,360,530.26,360Z" style="fill:#263238"></path><path d="M557.25,360c-.14,0-.26-.46-.26-1s.12-1,.26-1,.26.47.26,1S557.39,360,557.25,360Z" style="fill:#263238"></path><path d="M601.91,224.65s0-.6,0-1.76,0-2.86,0-5.1c0-4.48,0-11.07,0-19.56,0-17-.06-41.48-.11-71.75l.19.19-205.33.07h0l.26-.26c0,34.56,0,67.77,0,98.17l-.25-.25,147.5.12,42.55.07,11.36,0h2.94l1,0h-1l-2.91,0-11.31,0-42.5.06-147.66.12h-.24v-.24c0-30.4,0-63.61,0-98.17v-.26h.28l205.33.07h.2v.19c-.05,30.32-.08,54.88-.11,71.86,0,8.47,0,15,0,19.53,0,2.22,0,3.91,0,5.06S601.91,224.65,601.91,224.65Z" style="fill:#e0e0e0"></path><path d="M555.44,169.28H414a2.36,2.36,0,1,1,0-4.71H555.44a2.36,2.36,0,0,1,0,4.71Z" style="fill:#e0e0e0"></path><path d="M555.44,150.61H414a2.36,2.36,0,1,1,0-4.71H555.44a2.36,2.36,0,0,1,0,4.71Z" style="fill:#e0e0e0"></path><path d="M477.9,169.28H414a2.36,2.36,0,1,1,0-4.71H477.9a2.36,2.36,0,1,1,0,4.71Z" style="fill:#455a64"></path><path d="M573.37,167.93h-1v1.35h-.77v-1.35h-3v-.55l2.81-3.6h.85l-2.7,3.48h2.12v-1.2h.74v1.2h1Z" style="fill:#263238"></path><path d="M577.68,167.63c0,1-.68,1.72-2.08,1.72a3.13,3.13,0,0,1-2-.67l.36-.62a2.5,2.5,0,0,0,1.65.59c.83,0,1.3-.39,1.3-1s-.39-1-1.66-1H574l.29-2.88h3.1v.69h-2.44l-.15,1.51h.61C577,166,577.68,166.66,577.68,167.63Z" style="fill:#263238"></path><path d="M578.16,165.24a1.33,1.33,0,0,1,1.28-1.5c.77,0,1.28.59,1.28,1.5a1.3,1.3,0,1,1-2.56,0Zm2.06,0c0-.66-.3-1.06-.78-1.06s-.76.4-.76,1.06.29,1,.76,1S580.22,165.9,580.22,165.24Zm2.54-1.46h.61l-3.76,5.5H579Zm-1.11,4.05a1.3,1.3,0,1,1,1.28,1.5A1.32,1.32,0,0,1,581.65,167.83Zm2.05,0c0-.65-.3-1.05-.77-1.05s-.77.39-.77,1.05.29,1,.77,1S583.7,168.48,583.7,167.83Z" style="fill:#263238"></path><path d="M555.44,186.57H414a2.36,2.36,0,1,1,0-4.71H555.44a2.36,2.36,0,0,1,0,4.71Z" style="fill:#e0e0e0"></path><path d="M498.72,186.57H414.13a2.23,2.23,0,0,1-2.51-2.35c0-1.31.75-2.36,1.67-2.36h84.6a2.45,2.45,0,0,1,2.7,2.36A2.35,2.35,0,0,1,498.72,186.57Z" style="fill:#455a64"></path><path d="M572.59,181.07v.54l-2.22,5h-.83l2.17-4.81H569.2v1h-.76v-1.67Z" style="fill:#263238"></path><path d="M573.13,183.82c0-1.79,1-2.81,2.24-2.81s2.24,1,2.24,2.81-1,2.82-2.24,2.82S573.13,185.61,573.13,183.82Zm3.7,0c0-1.4-.6-2.11-1.46-2.11s-1.46.71-1.46,2.11.6,2.12,1.46,2.12S576.83,185.23,576.83,183.82Z" style="fill:#263238"></path><path d="M578.28,182.53a1.33,1.33,0,0,1,1.28-1.5c.77,0,1.28.59,1.28,1.5a1.3,1.3,0,1,1-2.56,0Zm2.05,0c0-.66-.29-1.06-.77-1.06s-.77.4-.77,1.06.3,1.05.77,1.05S580.33,183.19,580.33,182.53Zm2.55-1.46h.6l-3.75,5.5h-.61Zm-1.11,4.05c0-.9.51-1.5,1.27-1.5a1.52,1.52,0,0,1,0,3C582.28,186.62,581.77,186,581.77,185.12Zm2.05,0c0-.65-.3-1.05-.78-1.05s-.76.39-.76,1.05.29,1,.76,1S583.82,185.77,583.82,185.12Z" style="fill:#263238"></path><path d="M555.44,203.45H414a2.36,2.36,0,1,1,0-4.71H555.44a2.36,2.36,0,0,1,0,4.71Z" style="fill:#e0e0e0"></path><path d="M466.52,203.45H414a2.36,2.36,0,1,1,0-4.71h52.54a2.36,2.36,0,1,1,0,4.71Z" style="fill:#455a64"></path><path d="M572.44,201.8c0,.95-.67,1.72-2.08,1.72a3.18,3.18,0,0,1-2-.67l.36-.62a2.52,2.52,0,0,0,1.65.59c.84,0,1.31-.39,1.31-1s-.4-1-1.67-1h-1.25L569,198h3.11v.69h-2.45l-.15,1.5h.62C571.8,200.14,572.44,200.83,572.44,201.8Z" style="fill:#263238"></path><path d="M573.1,200.7c0-1.79.95-2.81,2.24-2.81s2.24,1,2.24,2.81-1,2.82-2.24,2.82S573.1,202.49,573.1,200.7Zm3.7,0c0-1.41-.6-2.11-1.46-2.11s-1.46.7-1.46,2.11.6,2.12,1.46,2.12S576.8,202.11,576.8,200.7Z" style="fill:#263238"></path><path d="M578.25,199.41a1.3,1.3,0,1,1,1.28,1.5A1.34,1.34,0,0,1,578.25,199.41Zm2,0c0-.67-.29-1.06-.77-1.06s-.77.4-.77,1.06.3,1.05.77,1.05S580.3,200.07,580.3,199.41Zm2.55-1.46h.6l-3.75,5.5h-.61ZM581.74,202c0-.9.51-1.5,1.27-1.5a1.52,1.52,0,1,1-1.27,1.5Zm2,0c0-.65-.3-1.05-.77-1.05s-.77.39-.77,1.05.29,1.05.77,1.05S583.78,202.65,583.78,202Z" style="fill:#263238"></path><path d="M507.63,150.61H414a2.36,2.36,0,1,1,0-4.71h93.65a2.36,2.36,0,1,1,0,4.71Z" style="fill:#EF5F67"></path><path d="M572.84,148.94a1.78,1.78,0,0,1-1.94,1.74c-1.48,0-2.32-1-2.32-2.75s1.07-2.88,2.61-2.88a2.63,2.63,0,0,1,1.36.32l-.3.62a1.89,1.89,0,0,0-1-.26c-1.11,0-1.83.7-1.83,2.07a1.41,1.41,0,0,0,0,.2,1.83,1.83,0,0,1,1.58-.73A1.7,1.7,0,0,1,572.84,148.94Zm-.76,0c0-.64-.49-1.06-1.26-1.06a1.14,1.14,0,0,0-1.26,1.07c0,.56.46,1.06,1.3,1.06A1.09,1.09,0,0,0,572.08,149Z" style="fill:#263238"></path><path d="M573.43,147.86c0-1.79,1-2.81,2.25-2.81s2.24,1,2.24,2.81-1,2.82-2.24,2.82S573.43,149.66,573.43,147.86Zm3.7,0c0-1.4-.59-2.11-1.45-2.11s-1.46.71-1.46,2.11.6,2.12,1.46,2.12S577.13,149.27,577.13,147.86Z" style="fill:#263238"></path><path d="M578.59,146.57a1.33,1.33,0,0,1,1.28-1.5c.76,0,1.27.59,1.27,1.5s-.51,1.5-1.27,1.5A1.33,1.33,0,0,1,578.59,146.57Zm2,0c0-.66-.29-1.06-.77-1.06s-.77.4-.77,1.06.3,1.05.77,1.05S580.64,147.23,580.64,146.57Zm2.55-1.46h.6l-3.76,5.5h-.6Zm-1.11,4c0-.9.51-1.5,1.27-1.5a1.52,1.52,0,0,1,0,3C582.59,150.66,582.08,150.06,582.08,149.16Zm2,0c0-.65-.3-1-.77-1s-.77.39-.77,1,.29,1.05.77,1.05S584.12,149.81,584.12,149.16Z" style="fill:#263238"></path><path d="M552.14,234.7c0,.15-34.62.26-77.32.26s-77.34-.11-77.34-.26,34.62-.26,77.34-.26S552.14,234.56,552.14,234.7Z" style="fill:#e0e0e0"></path><path d="M552.14,243.87c0,.15-34.62.26-77.32.26s-77.34-.11-77.34-.26,34.62-.26,77.34-.26S552.14,243.73,552.14,243.87Z" style="fill:#e0e0e0"></path><path d="M552.14,252.17c0,.14-34.62.26-77.32.26s-77.34-.12-77.34-.26,34.62-.26,77.34-.26S552.14,252,552.14,252.17Z" style="fill:#e0e0e0"></path><path d="M204.12,346.1h0a2.79,2.79,0,0,1-2.78-2.78V291.17a2.78,2.78,0,0,1,2.78-2.78h0a2.77,2.77,0,0,1,2.78,2.78v52.15A2.78,2.78,0,0,1,204.12,346.1Z" style="fill:#e0e0e0"></path><path d="M204.12,346.34h0a2.78,2.78,0,0,1-2.78-2.78V309.94a2.79,2.79,0,0,1,2.78-2.78h0a2.78,2.78,0,0,1,2.78,2.78v33.62A2.77,2.77,0,0,1,204.12,346.34Z" style="fill:#EF5F67"></path><path d="M202.37,348.52v4.63h-.47v-4.21h-1.1v-.42Z" style="fill:#263238"></path><path d="M203.48,350.84c0-1.48.77-2.36,1.85-2.36s1.85.88,1.85,2.36-.78,2.35-1.85,2.35S203.48,352.31,203.48,350.84Zm3.21,0c0-1.24-.56-1.93-1.36-1.93s-1.37.69-1.37,1.93.56,1.92,1.37,1.92S206.69,352.07,206.69,350.84Z" style="fill:#263238"></path><path d="M215.23,346.1h0a2.79,2.79,0,0,1-2.78-2.78V291.17a2.78,2.78,0,0,1,2.78-2.78h0a2.77,2.77,0,0,1,2.78,2.78v52.15A2.78,2.78,0,0,1,215.23,346.1Z" style="fill:#e0e0e0"></path><path d="M215.23,346.34h0a2.78,2.78,0,0,1-2.78-2.78V299.35a2.79,2.79,0,0,1,2.78-2.78h0a2.78,2.78,0,0,1,2.78,2.78v44.21A2.77,2.77,0,0,1,215.23,346.34Z" style="fill:#EF5F67"></path><path d="M214.57,352.73v.42h-3.25v-.34l1.93-1.88c.52-.52.62-.83.62-1.15,0-.53-.38-.87-1.09-.87a1.57,1.57,0,0,0-1.26.52l-.34-.29a2.09,2.09,0,0,1,1.64-.66c.94,0,1.54.47,1.54,1.25a1.92,1.92,0,0,1-.76,1.45L212,352.73Z" style="fill:#263238"></path><path d="M215.14,350.84c0-1.48.77-2.36,1.85-2.36s1.85.88,1.85,2.36-.78,2.35-1.85,2.35S215.14,352.31,215.14,350.84Zm3.21,0c0-1.24-.56-1.93-1.36-1.93s-1.37.69-1.37,1.93.56,1.92,1.37,1.92S218.35,352.07,218.35,350.84Z" style="fill:#263238"></path><path d="M226.35,346.1h0a2.78,2.78,0,0,1-2.78-2.78V291.17a2.77,2.77,0,0,1,2.78-2.78h0a2.77,2.77,0,0,1,2.77,2.78v52.15A2.78,2.78,0,0,1,226.35,346.1Z" style="fill:#e0e0e0"></path><path d="M226.35,346.34h0a2.77,2.77,0,0,1-2.78-2.78V317.88a2.78,2.78,0,0,1,2.78-2.78h0a2.78,2.78,0,0,1,2.77,2.78v25.68A2.77,2.77,0,0,1,226.35,346.34Z" style="fill:#EF5F67"></path><path d="M225.62,351.82c0,.78-.56,1.37-1.68,1.37a2.43,2.43,0,0,1-1.67-.59l.23-.38a2.05,2.05,0,0,0,1.44.54c.77,0,1.19-.36,1.19-.94s-.39-.92-1.25-.92h-.33v-.35l1.29-1.61h-2.38v-.42h3v.33l-1.31,1.65C225.13,350.56,225.62,351.08,225.62,351.82Z" style="fill:#263238"></path><path d="M226.29,350.84c0-1.48.77-2.36,1.85-2.36s1.85.88,1.85,2.36-.78,2.35-1.85,2.35S226.29,352.31,226.29,350.84Zm3.21,0c0-1.24-.56-1.93-1.36-1.93s-1.37.69-1.37,1.93.56,1.92,1.37,1.92S229.5,352.07,229.5,350.84Z" style="fill:#263238"></path><path d="M237.46,346.1h0a2.78,2.78,0,0,1-2.78-2.78V291.17a2.77,2.77,0,0,1,2.78-2.78h0a2.78,2.78,0,0,1,2.78,2.78v52.15A2.79,2.79,0,0,1,237.46,346.1Z" style="fill:#e0e0e0"></path><path d="M237.46,346.34h0a2.77,2.77,0,0,1-2.78-2.78V299.35a2.78,2.78,0,0,1,2.78-2.78h0a2.79,2.79,0,0,1,2.78,2.78v44.21A2.78,2.78,0,0,1,237.46,346.34Z" style="fill:#EF5F67"></path><path d="M237.48,351.93h-.93v1.22h-.47v-1.22h-2.62v-.34l2.46-3.07h.53l-2.37,3h2v-1.07h.46v1.07h.93Z" style="fill:#263238"></path><path d="M237.91,350.84c0-1.48.78-2.36,1.85-2.36s1.86.88,1.86,2.36-.79,2.35-1.86,2.35S237.91,352.31,237.91,350.84Zm3.22,0c0-1.24-.56-1.93-1.37-1.93s-1.36.69-1.36,1.93.55,1.92,1.36,1.92S241.13,352.07,241.13,350.84Z" style="fill:#263238"></path><path d="M248.57,346.1h0a2.78,2.78,0,0,1-2.78-2.78V291.17a2.77,2.77,0,0,1,2.78-2.78h0a2.78,2.78,0,0,1,2.78,2.78v52.15A2.79,2.79,0,0,1,248.57,346.1Z" style="fill:#e0e0e0"></path><path d="M248.57,346.34h0a2.77,2.77,0,0,1-2.78-2.78V307.83a2.77,2.77,0,0,1,2.78-2.78h0a2.78,2.78,0,0,1,2.78,2.78v35.73A2.78,2.78,0,0,1,248.57,346.34Z" style="fill:#EF5F67"></path><path d="M248.32,351.79c0,.79-.55,1.4-1.68,1.4a2.39,2.39,0,0,1-1.66-.59l.23-.38a2,2,0,0,0,1.42.54c.79,0,1.21-.39,1.21-.95s-.37-1-1.55-1h-1l.24-2.32h2.54v.42H246l-.16,1.48h.59C247.79,350.42,248.32,351,248.32,351.79Z" style="fill:#263238"></path><path d="M248.92,350.84c0-1.48.78-2.36,1.85-2.36s1.85.88,1.85,2.36-.78,2.35-1.85,2.35S248.92,352.31,248.92,350.84Zm3.21,0c0-1.24-.55-1.93-1.36-1.93s-1.37.69-1.37,1.93.56,1.92,1.37,1.92S252.13,352.07,252.13,350.84Z" style="fill:#263238"></path><path d="M259.68,346.1h0a2.78,2.78,0,0,1-2.78-2.78V291.17a2.77,2.77,0,0,1,2.78-2.78h0a2.78,2.78,0,0,1,2.78,2.78v52.15A2.79,2.79,0,0,1,259.68,346.1Z" style="fill:#e0e0e0"></path><path d="M259.68,346.1h0a2.74,2.74,0,0,1-2.78-2.54V317.88a2.84,2.84,0,0,1,2.78-3h0a2.78,2.78,0,0,1,2.78,2.78v25.68A2.79,2.79,0,0,1,259.68,346.1Z" style="fill:#EF5F67"></path><path d="M259.32,351.77a1.45,1.45,0,0,1-1.59,1.42c-1.23,0-1.9-.85-1.9-2.32s.86-2.39,2.12-2.39a2.11,2.11,0,0,1,1.1.25l-.19.38a1.63,1.63,0,0,0-.9-.22c-1,0-1.64.65-1.64,1.91a2.56,2.56,0,0,0,0,.37,1.47,1.47,0,0,1,1.41-.79A1.41,1.41,0,0,1,259.32,351.77Zm-.48,0c0-.61-.45-1-1.16-1a1.07,1.07,0,0,0-1.19,1c0,.51.42,1,1.22,1A1,1,0,0,0,258.84,351.78Z" style="fill:#263238"></path><path d="M259.86,350.84c0-1.48.78-2.36,1.85-2.36s1.85.88,1.85,2.36-.78,2.35-1.85,2.35S259.86,352.31,259.86,350.84Zm3.21,0c0-1.24-.55-1.93-1.36-1.93s-1.37.69-1.37,1.93.56,1.92,1.37,1.92S263.07,352.07,263.07,350.84Z" style="fill:#263238"></path><path d="M270.79,346.1h0a2.79,2.79,0,0,1-2.78-2.78V291.17a2.78,2.78,0,0,1,2.78-2.78h0a2.77,2.77,0,0,1,2.78,2.78v52.15A2.78,2.78,0,0,1,270.79,346.1Z" style="fill:#e0e0e0"></path><path d="M270.79,346.34h0a2.78,2.78,0,0,1-2.78-2.78V296.71a2.78,2.78,0,0,1,2.78-2.78h0a2.77,2.77,0,0,1,2.78,2.78v46.85A2.77,2.77,0,0,1,270.79,346.34Z" style="fill:#EF5F67"></path><path d="M270.2,348.52v.33l-1.94,4.3h-.52l1.91-4.21h-2.39v.87h-.47v-1.29Z" style="fill:#263238"></path><path d="M270.69,350.84c0-1.48.78-2.36,1.85-2.36s1.85.88,1.85,2.36-.78,2.35-1.85,2.35S270.69,352.31,270.69,350.84Zm3.21,0c0-1.24-.55-1.93-1.36-1.93s-1.36.69-1.36,1.93.55,1.92,1.36,1.92S273.9,352.07,273.9,350.84Z" style="fill:#263238"></path><path d="M281.9,346.1h0a2.79,2.79,0,0,1-2.78-2.78V291.17a2.78,2.78,0,0,1,2.78-2.78h0a2.77,2.77,0,0,1,2.78,2.78v52.15A2.78,2.78,0,0,1,281.9,346.1Z" style="fill:#e0e0e0"></path><path d="M281.9,346.34h0a2.78,2.78,0,0,1-2.78-2.78V323.18a2.78,2.78,0,0,1,2.78-2.78h0a2.77,2.77,0,0,1,2.78,2.78v20.38A2.77,2.77,0,0,1,281.9,346.34Z" style="fill:#EF5F67"></path><path d="M281.35,351.86c0,.82-.7,1.33-1.8,1.33s-1.79-.51-1.79-1.33a1.16,1.16,0,0,1,.89-1.14,1,1,0,0,1-.72-1c0-.75.64-1.22,1.62-1.22s1.63.47,1.63,1.22a1,1,0,0,1-.74,1A1.17,1.17,0,0,1,281.35,351.86Zm-.49,0c0-.56-.49-.92-1.31-.92s-1.31.36-1.31.92.49.94,1.31.94S280.86,352.43,280.86,351.85Zm-1.31-1.3c.72,0,1.15-.32,1.15-.83s-.46-.84-1.15-.84-1.15.32-1.15.84S278.83,350.55,279.55,350.55Z" style="fill:#263238"></path><path d="M282,350.84c0-1.48.77-2.36,1.85-2.36s1.85.88,1.85,2.36-.78,2.35-1.85,2.35S282,352.31,282,350.84Zm3.21,0c0-1.24-.56-1.93-1.36-1.93s-1.37.69-1.37,1.93.56,1.92,1.37,1.92S285.22,352.07,285.22,350.84Z" style="fill:#263238"></path><path d="M293,346.1h0a2.79,2.79,0,0,1-2.78-2.78V291.17a2.78,2.78,0,0,1,2.78-2.78h0a2.77,2.77,0,0,1,2.78,2.78v52.15A2.78,2.78,0,0,1,293,346.1Z" style="fill:#e0e0e0"></path><path d="M293,346.1h0a2.75,2.75,0,0,1-2.78-2.54v-7.15a2.84,2.84,0,0,1,2.78-3h0a2.77,2.77,0,0,1,2.78,2.78v7.15A2.78,2.78,0,0,1,293,346.1Z" style="fill:#EF5F67"></path><path d="M292.18,350.8c0,1.57-.86,2.39-2.12,2.39a2.11,2.11,0,0,1-1.1-.25l.19-.38a1.62,1.62,0,0,0,.9.21c1,0,1.64-.64,1.64-1.9a2.56,2.56,0,0,0,0-.37,1.47,1.47,0,0,1-1.41.79,1.41,1.41,0,0,1-1.57-1.39,1.45,1.45,0,0,1,1.59-1.42C291.51,348.48,292.18,349.33,292.18,350.8Zm-.66-.93c0-.51-.42-1-1.22-1a1,1,0,0,0-1.14,1c0,.61.45,1,1.17,1A1.07,1.07,0,0,0,291.52,349.87Z" style="fill:#263238"></path><path d="M292.86,350.84c0-1.48.78-2.36,1.85-2.36s1.85.88,1.85,2.36-.78,2.35-1.85,2.35S292.86,352.31,292.86,350.84Zm3.21,0c0-1.24-.55-1.93-1.36-1.93s-1.36.69-1.36,1.93.55,1.92,1.36,1.92S296.07,352.07,296.07,350.84Z" style="fill:#263238"></path><path d="M304.12,346.1h0a2.78,2.78,0,0,1-2.77-2.78V291.17a2.77,2.77,0,0,1,2.77-2.78h0a2.77,2.77,0,0,1,2.78,2.78v52.15A2.78,2.78,0,0,1,304.12,346.1Z" style="fill:#e0e0e0"></path><path d="M304.12,346.1h0a2.74,2.74,0,0,1-2.77-2.54V317.88a2.83,2.83,0,0,1,2.77-3h0a2.77,2.77,0,0,1,2.78,2.78v25.68A2.78,2.78,0,0,1,304.12,346.1Z" style="fill:#EF5F67"></path><path d="M300.14,348.52v4.63h-.47v-4.21h-1.1v-.42Z" style="fill:#263238"></path><path d="M301.25,350.84c0-1.48.77-2.36,1.84-2.36s1.86.88,1.86,2.36-.78,2.35-1.86,2.35S301.25,352.31,301.25,350.84Zm3.21,0c0-1.24-.56-1.93-1.37-1.93s-1.36.69-1.36,1.93.56,1.92,1.36,1.92S304.46,352.07,304.46,350.84Z" style="fill:#263238"></path><path d="M305.63,350.84c0-1.48.77-2.36,1.84-2.36s1.86.88,1.86,2.36-.78,2.35-1.86,2.35S305.63,352.31,305.63,350.84Zm3.21,0c0-1.24-.56-1.93-1.37-1.93s-1.36.69-1.36,1.93.56,1.92,1.36,1.92S308.84,352.07,308.84,350.84Z" style="fill:#263238"></path><path d="M327.15,357c-.14,0-.26-17.16-.26-38.32s.12-38.34.26-38.34.26,17.16.26,38.34S327.29,357,327.15,357Z" style="fill:#e0e0e0"></path><path d="M391.81,285.33c0,.15-10.58.26-23.63.26s-23.63-.11-23.63-.26,10.58-.26,23.63-.26S391.81,285.19,391.81,285.33Z" style="fill:#263238"></path><g style="opacity:0.5"><path d="M340.66,352.08,351.23,337a3.79,3.79,0,0,1,5.38-.85l5.56,4.2a3.79,3.79,0,0,0,5.56-1.13l16-27.78A3.78,3.78,0,0,1,390,311l10,12.7a3.79,3.79,0,0,0,6.17-.31l7.31-11.51A3.8,3.8,0,0,1,420,312l6,10.47a3.78,3.78,0,0,0,6.47.14l20.66-32.38a3.79,3.79,0,0,1,6.34-.07l34.14,51.06a3.78,3.78,0,0,0,6,.44l20.74-22.82a3.78,3.78,0,0,1,5.48-.13l16.5,16.55a3.79,3.79,0,0,0,6-.77l29.51-51.12a3.78,3.78,0,0,1,7.06,1.9v66.79Z" style="fill:#fff"></path></g></g><g id="freepik--magnifying-glass--inject-271"><path d="M151.42,358.54a46.76,46.76,0,1,1,46.51-51.72h0a46.79,46.79,0,0,1-46.51,51.72Zm.11-86.51a41.29,41.29,0,0,0-4.3.23,39.61,39.61,0,1,0,4.3-.23Z" style="fill:#455a64"></path><path d="M220.71,401.74a3.45,3.45,0,0,1-2.66-1.23l-44.21-51.87a3.5,3.5,0,1,1,5.33-4.54L223.37,396a3.49,3.49,0,0,1-2.66,5.77Z" style="fill:#455a64"></path></g></svg>