<svg xmlns="http://www.w3.org/2000/svg" viewBox="0 0 500 500"><g id="freepik--Charts--inject-122"><rect x="88.68" y="116.71" width="148.47" height="111.9" rx="8.55" style="opacity:0.2"></rect><rect x="85" y="110.82" width="148.47" height="111.9" rx="8.55" style="fill:#fff;stroke:#263238;stroke-linecap:round;stroke-linejoin:round"></rect><path d="M133,162,101.26,172.3a33.4,33.4,0,0,1,21.44-42.08A31.71,31.71,0,0,1,133,128.58Z" style="fill:#EF5F67;stroke:#263238;stroke-linecap:round;stroke-linejoin:round"></path><path d="M133,162l19.63,27A33.39,33.39,0,0,1,106,181.61a31.75,31.75,0,0,1-4.74-9.31Z" style="fill:#fff;stroke:#263238;stroke-linecap:round;stroke-linejoin:round"></path><path d="M133,162l31.76-10.32A32.87,32.87,0,0,1,152.65,189Z" style="fill:#263238;stroke:#263238;stroke-linecap:round;stroke-linejoin:round"></path><path d="M133,162v-33.4a32.88,32.88,0,0,1,31.76,23.08Z" style="fill:#fff;stroke:#263238;stroke-linecap:round;stroke-linejoin:round"></path><circle cx="133.05" cy="161.98" r="20.82" style="fill:#fff;stroke:#263238;stroke-linecap:round;stroke-linejoin:round"></circle><rect x="175.8" y="126.56" width="45.75" height="3.79" style="fill:#EF5F67;stroke:#263238;stroke-linecap:round;stroke-linejoin:round"></rect><rect x="175.8" y="134.67" width="35.91" height="3.79" style="fill:#263238;stroke:#263238;stroke-linecap:round;stroke-linejoin:round"></rect><rect x="175.8" y="142.78" width="26.39" height="3.79" style="fill:#fff;stroke:#263238;stroke-linecap:round;stroke-linejoin:round"></rect><rect x="175.8" y="150.89" width="37.5" height="3.79" style="fill:#EF5F67;stroke:#263238;stroke-linecap:round;stroke-linejoin:round"></rect><rect x="175.8" y="159" width="17.82" height="3.79" style="fill:#263238;stroke:#263238;stroke-linecap:round;stroke-linejoin:round"></rect><rect x="175.8" y="167.12" width="45.75" height="3.79" style="fill:#fff;stroke:#263238;stroke-linecap:round;stroke-linejoin:round"></rect><rect x="175.8" y="175.23" width="33.69" height="3.79" style="fill:#EF5F67;stroke:#263238;stroke-linecap:round;stroke-linejoin:round"></rect><rect x="175.8" y="183.34" width="29.44" height="3.79" style="fill:#263238;stroke:#263238;stroke-linecap:round;stroke-linejoin:round"></rect><rect x="175.8" y="191.45" width="45.75" height="3.79" style="fill:#fff;stroke:#263238;stroke-linecap:round;stroke-linejoin:round"></rect><line x1="116.02" y1="202.5" x2="151.48" y2="202.5" style="fill:none;stroke:#263238;stroke-linecap:round;stroke-linejoin:round"></line><line x1="111" y1="207.5" x2="156.5" y2="207.5" style="fill:none;stroke:#263238;stroke-linecap:round;stroke-linejoin:round"></line><line x1="177.02" y1="202.5" x2="212.48" y2="202.5" style="fill:none;stroke:#263238;stroke-linecap:round;stroke-linejoin:round"></line><line x1="172" y1="207.5" x2="217.5" y2="207.5" style="fill:none;stroke:#263238;stroke-linecap:round;stroke-linejoin:round"></line><rect x="107.96" y="275.28" width="129.92" height="97.92" rx="8.55" style="opacity:0.2"></rect><rect x="103.54" y="270.14" width="129.92" height="97.92" rx="8.55" style="fill:#fff;stroke:#263238;stroke-linecap:round;stroke-linejoin:round"></rect><line x1="112.44" y1="316.69" x2="129.77" y2="316.69" style="fill:none;stroke:#263238;stroke-linecap:round;stroke-linejoin:round"></line><line x1="112.44" y1="320.61" x2="139.85" y2="320.61" style="fill:none;stroke:#263238;stroke-linecap:round;stroke-linejoin:round"></line><line x1="112.44" y1="324.52" x2="129.77" y2="324.52" style="fill:none;stroke:#263238;stroke-linecap:round;stroke-linejoin:round"></line><line x1="112.44" y1="328.43" x2="137.44" y2="328.43" style="fill:none;stroke:#263238;stroke-linecap:round;stroke-linejoin:round"></line><line x1="112.44" y1="332.35" x2="129.77" y2="332.35" style="fill:none;stroke:#263238;stroke-linecap:round;stroke-linejoin:round"></line><line x1="112.44" y1="336.26" x2="143.06" y2="336.26" style="fill:none;stroke:#263238;stroke-linecap:round;stroke-linejoin:round"></line><line x1="155.84" y1="316.69" x2="173.17" y2="316.69" style="fill:none;stroke:#263238;stroke-linecap:round;stroke-linejoin:round"></line><line x1="155.84" y1="320.61" x2="183.25" y2="320.61" style="fill:none;stroke:#263238;stroke-linecap:round;stroke-linejoin:round"></line><line x1="155.84" y1="324.52" x2="173.17" y2="324.52" style="fill:none;stroke:#263238;stroke-linecap:round;stroke-linejoin:round"></line><line x1="155.84" y1="328.43" x2="180.84" y2="328.43" style="fill:none;stroke:#263238;stroke-linecap:round;stroke-linejoin:round"></line><line x1="155.84" y1="332.35" x2="173.17" y2="332.35" style="fill:none;stroke:#263238;stroke-linecap:round;stroke-linejoin:round"></line><line x1="155.84" y1="336.26" x2="186.46" y2="336.26" style="fill:none;stroke:#263238;stroke-linecap:round;stroke-linejoin:round"></line><line x1="199.24" y1="316.69" x2="216.57" y2="316.69" style="fill:none;stroke:#263238;stroke-linecap:round;stroke-linejoin:round"></line><line x1="199.24" y1="320.61" x2="226.64" y2="320.61" style="fill:none;stroke:#263238;stroke-linecap:round;stroke-linejoin:round"></line><line x1="199.24" y1="324.52" x2="216.57" y2="324.52" style="fill:none;stroke:#263238;stroke-linecap:round;stroke-linejoin:round"></line><line x1="199.24" y1="328.43" x2="224.23" y2="328.43" style="fill:none;stroke:#263238;stroke-linecap:round;stroke-linejoin:round"></line><line x1="199.24" y1="332.35" x2="216.57" y2="332.35" style="fill:none;stroke:#263238;stroke-linecap:round;stroke-linejoin:round"></line><line x1="199.24" y1="336.26" x2="229.86" y2="336.26" style="fill:none;stroke:#263238;stroke-linecap:round;stroke-linejoin:round"></line><rect x="111.33" y="303.83" width="33.54" height="6.71" style="fill:#263238"></rect><rect x="155.49" y="303.83" width="33.54" height="6.71" style="fill:#263238"></rect><rect x="199.65" y="303.83" width="33.54" height="6.71" style="fill:#263238"></rect><line x1="150.1" y1="303.44" x2="150.1" y2="337.39" style="fill:none;stroke:#263238;stroke-linecap:round;stroke-linejoin:round"></line><line x1="193.9" y1="303.44" x2="193.9" y2="337.39" style="fill:none;stroke:#263238;stroke-linecap:round;stroke-linejoin:round"></line><path d="M125,287.93l7.26-2.36a7.63,7.63,0,1,1-9.62-4.9,7.28,7.28,0,0,1,2.36-.37Z" style="fill:#EF5F67;stroke:#263238;stroke-miterlimit:10;stroke-width:0.5px"></path><path d="M125,287.93V280.3a7.51,7.51,0,0,1,7.26,5.27Z" style="fill:#263238;stroke:#263238;stroke-miterlimit:10;stroke-width:0.5px"></path><path d="M198.5,287.93l7.26-2.36a7.63,7.63,0,1,1-9.61-4.9,7.22,7.22,0,0,1,2.35-.37Z" style="fill:#EF5F67;stroke:#263238;stroke-miterlimit:10;stroke-width:0.5px"></path><path d="M198.5,287.93V280.3a7.5,7.5,0,0,1,7.26,5.27Z" style="fill:#263238;stroke:#263238;stroke-miterlimit:10;stroke-width:0.5px"></path><path d="M149.52,287.93v7.63a7.63,7.63,0,1,1,0-15.26h0Z" style="fill:#EF5F67;stroke:#263238;stroke-miterlimit:10;stroke-width:0.5px"></path><path d="M149.52,287.93V280.3a7.63,7.63,0,1,1,0,15.26h0Z" style="fill:#263238;stroke:#263238;stroke-miterlimit:10;stroke-width:0.5px"></path><path d="M174,287.93l7.26,2.36a7.63,7.63,0,1,1-14.52-4.72A7.51,7.51,0,0,1,174,280.3Z" style="fill:#EF5F67;stroke:#263238;stroke-miterlimit:10;stroke-width:0.5px"></path><path d="M174,287.93V280.3a7.63,7.63,0,0,1,7.64,7.63,7.29,7.29,0,0,1-.38,2.36Z" style="fill:#263238;stroke:#263238;stroke-miterlimit:10;stroke-width:0.5px"></path><path d="M223,287.93l7.26,2.36a7.63,7.63,0,1,1-14.52-4.72A7.51,7.51,0,0,1,223,280.3Z" style="fill:#EF5F67;stroke:#263238;stroke-miterlimit:10;stroke-width:0.5px"></path><path d="M223,287.93V280.3a7.62,7.62,0,0,1,7.63,7.63,7.28,7.28,0,0,1-.37,2.36Z" style="fill:#263238;stroke:#263238;stroke-miterlimit:10;stroke-width:0.5px"></path><rect x="217.82" y="357.2" width="6.68" height="2.26" style="fill:#EF5F67;stroke:#263238;stroke-linecap:round;stroke-linejoin:round;stroke-width:0.75px"></rect><rect x="210.4" y="345.91" width="6.68" height="13.55" style="fill:#263238;stroke:#263238;stroke-linecap:round;stroke-linejoin:round;stroke-width:0.75px"></rect><rect x="202.99" y="350.78" width="6.68" height="8.69" style="fill:#fff;stroke:#263238;stroke-linecap:round;stroke-linejoin:round;stroke-width:0.75px"></rect><rect x="195.57" y="344" width="6.68" height="15.46" style="fill:#EF5F67;stroke:#263238;stroke-linecap:round;stroke-linejoin:round;stroke-width:0.75px"></rect><rect x="188.15" y="355.47" width="6.68" height="4" style="fill:#263238;stroke:#263238;stroke-linecap:round;stroke-linejoin:round;stroke-width:0.75px"></rect><rect x="180.73" y="354.25" width="6.68" height="5.21" style="fill:#fff;stroke:#263238;stroke-linecap:round;stroke-linejoin:round;stroke-width:0.75px"></rect><rect x="173.31" y="349.04" width="6.68" height="10.43" style="fill:#EF5F67;stroke:#263238;stroke-linecap:round;stroke-linejoin:round;stroke-width:0.75px"></rect><rect x="165.89" y="357.73" width="6.68" height="1.74" style="fill:#263238;stroke:#263238;stroke-linecap:round;stroke-linejoin:round;stroke-width:0.75px"></rect><rect x="158.47" y="345.91" width="6.68" height="13.55" style="fill:#fff;stroke:#263238;stroke-linecap:round;stroke-linejoin:round;stroke-width:0.75px"></rect><rect x="151.05" y="348.52" width="6.68" height="10.95" style="fill:#EF5F67;stroke:#263238;stroke-linecap:round;stroke-linejoin:round;stroke-width:0.75px"></rect><rect x="143.64" y="358.94" width="6.68" height="0.52" style="fill:#263238;stroke:#263238;stroke-linecap:round;stroke-linejoin:round;stroke-width:0.75px"></rect><rect x="136.22" y="358.77" width="6.68" height="0.69" style="fill:#fff;stroke:#263238;stroke-linecap:round;stroke-linejoin:round;stroke-width:0.75px"></rect><rect x="128.8" y="350.78" width="6.68" height="8.69" style="fill:#EF5F67;stroke:#263238;stroke-linecap:round;stroke-linejoin:round;stroke-width:0.75px"></rect><rect x="121.38" y="357.73" width="6.68" height="1.74" style="fill:#263238;stroke:#263238;stroke-linecap:round;stroke-linejoin:round;stroke-width:0.75px"></rect><rect x="113.96" y="355.99" width="6.68" height="3.48" style="fill:#fff;stroke:#263238;stroke-linecap:round;stroke-linejoin:round;stroke-width:0.75px"></rect><rect x="265.03" y="190.5" width="148.47" height="111.9" rx="8.55" style="opacity:0.2"></rect><rect x="259.88" y="184.62" width="148.47" height="111.9" rx="8.55" style="fill:#fff;stroke:#263238;stroke-linecap:round;stroke-linejoin:round"></rect><rect x="391.3" y="272.17" width="7.7" height="8.54" style="fill:#EF5F67;stroke:#263238;stroke-linecap:round;stroke-linejoin:round;stroke-width:0.75px"></rect><rect x="382.74" y="229.47" width="7.7" height="51.23" style="fill:#263238;stroke:#263238;stroke-linecap:round;stroke-linejoin:round;stroke-width:0.75px"></rect><rect x="374.18" y="247.87" width="7.7" height="32.84" style="fill:#fff;stroke:#263238;stroke-linecap:round;stroke-linejoin:round;stroke-width:0.75px"></rect><rect x="365.63" y="222.25" width="7.7" height="58.46" style="fill:#EF5F67;stroke:#263238;stroke-linecap:round;stroke-linejoin:round;stroke-width:0.75px"></rect><rect x="357.07" y="265.6" width="7.7" height="15.11" style="fill:#263238;stroke:#263238;stroke-linecap:round;stroke-linejoin:round;stroke-width:0.75px"></rect><rect x="348.51" y="261" width="7.7" height="19.7" style="fill:#fff;stroke:#263238;stroke-linecap:round;stroke-linejoin:round;stroke-width:0.75px"></rect><rect x="339.96" y="241.3" width="7.7" height="39.41" style="fill:#EF5F67;stroke:#263238;stroke-linecap:round;stroke-linejoin:round;stroke-width:0.75px"></rect><rect x="331.4" y="274.14" width="7.7" height="6.57" style="fill:#263238;stroke:#263238;stroke-linecap:round;stroke-linejoin:round;stroke-width:0.75px"></rect><rect x="322.84" y="229.47" width="7.7" height="51.23" style="fill:#fff;stroke:#263238;stroke-linecap:round;stroke-linejoin:round;stroke-width:0.75px"></rect><rect x="314.29" y="239.33" width="7.7" height="41.38" style="fill:#EF5F67;stroke:#263238;stroke-linecap:round;stroke-linejoin:round;stroke-width:0.75px"></rect><rect x="305.73" y="278.73" width="7.7" height="1.97" style="fill:#263238;stroke:#263238;stroke-linecap:round;stroke-linejoin:round;stroke-width:0.75px"></rect><rect x="297.17" y="278.08" width="7.7" height="2.63" style="fill:#fff;stroke:#263238;stroke-linecap:round;stroke-linejoin:round;stroke-width:0.75px"></rect><rect x="288.61" y="247.87" width="7.7" height="32.84" style="fill:#EF5F67;stroke:#263238;stroke-linecap:round;stroke-linejoin:round;stroke-width:0.75px"></rect><rect x="280.06" y="274.14" width="7.7" height="6.57" style="fill:#263238;stroke:#263238;stroke-linecap:round;stroke-linejoin:round;stroke-width:0.75px"></rect><rect x="271.5" y="267.57" width="7.7" height="13.14" style="fill:#fff;stroke:#263238;stroke-linecap:round;stroke-linejoin:round;stroke-width:0.75px"></rect><rect x="272.5" y="208" width="127" height="6.5" style="fill:#EF5F67;stroke:#263238;stroke-miterlimit:10"></rect><rect x="305.96" y="208.47" width="20.6" height="5.55" style="fill:#263238;stroke:#263238;stroke-miterlimit:10"></rect><rect x="327.39" y="208.47" width="38.69" height="5.55" style="fill:#fff;stroke:#263238;stroke-miterlimit:10"></rect><rect x="277.16" y="69.61" width="120.14" height="90.55" rx="8.55" style="opacity:0.2"></rect><rect x="272.74" y="63.73" width="120.14" height="90.55" rx="8.55" style="fill:#fff;stroke:#263238;stroke-linecap:round;stroke-linejoin:round"></rect><line x1="278.32" y1="145.8" x2="391.12" y2="145.8" style="fill:none;stroke:#263238;stroke-miterlimit:10;stroke-width:0.5px"></line><line x1="278.32" y1="145.8" x2="278.32" y2="147.47" style="fill:none;stroke:#263238;stroke-miterlimit:10;stroke-width:0.5px"></line><line x1="285.84" y1="145.8" x2="285.84" y2="147.47" style="fill:none;stroke:#263238;stroke-miterlimit:10;stroke-width:0.5px"></line><line x1="293.36" y1="145.8" x2="293.36" y2="147.47" style="fill:none;stroke:#263238;stroke-miterlimit:10;stroke-width:0.5px"></line><line x1="300.88" y1="145.8" x2="300.88" y2="147.47" style="fill:none;stroke:#263238;stroke-miterlimit:10;stroke-width:0.5px"></line><line x1="308.4" y1="145.8" x2="308.4" y2="147.47" style="fill:none;stroke:#263238;stroke-miterlimit:10;stroke-width:0.5px"></line><line x1="315.92" y1="145.8" x2="315.92" y2="147.47" style="fill:none;stroke:#263238;stroke-miterlimit:10;stroke-width:0.5px"></line><line x1="323.44" y1="145.8" x2="323.44" y2="147.47" style="fill:none;stroke:#263238;stroke-miterlimit:10;stroke-width:0.5px"></line><line x1="330.96" y1="145.8" x2="330.96" y2="147.47" style="fill:none;stroke:#263238;stroke-miterlimit:10;stroke-width:0.5px"></line><line x1="338.48" y1="145.8" x2="338.48" y2="147.47" style="fill:none;stroke:#263238;stroke-miterlimit:10;stroke-width:0.5px"></line><line x1="346" y1="145.8" x2="346" y2="147.47" style="fill:none;stroke:#263238;stroke-miterlimit:10;stroke-width:0.5px"></line><line x1="353.52" y1="145.8" x2="353.52" y2="147.47" style="fill:none;stroke:#263238;stroke-miterlimit:10;stroke-width:0.5px"></line><line x1="361.04" y1="145.8" x2="361.04" y2="147.47" style="fill:none;stroke:#263238;stroke-miterlimit:10;stroke-width:0.5px"></line><line x1="368.56" y1="145.8" x2="368.56" y2="147.47" style="fill:none;stroke:#263238;stroke-miterlimit:10;stroke-width:0.5px"></line><line x1="376.08" y1="145.8" x2="376.08" y2="147.47" style="fill:none;stroke:#263238;stroke-miterlimit:10;stroke-width:0.5px"></line><line x1="383.6" y1="145.8" x2="383.6" y2="147.47" style="fill:none;stroke:#263238;stroke-miterlimit:10;stroke-width:0.5px"></line><line x1="391.12" y1="145.8" x2="391.12" y2="147.47" style="fill:none;stroke:#263238;stroke-miterlimit:10;stroke-width:0.5px"></line><path d="M282.08,144.44H387.36V129.89l-7.45-14.4a1.19,1.19,0,0,1-.1-.32l-6.62-42.71a.8.8,0,0,0-1.6,0l-6.74,52.14a1,1,0,0,1-.35.64l-6.49,5a.76.76,0,0,1-1.16-.33l-6.54-13.49a.75.75,0,0,0-1.31-.17L342.24,125l-7.52,9.7L327.2,125l-6.63-8.55a.76.76,0,0,0-1.36.3l-7,21.83-7.52-38.91-7.52,42.79-7.52-5.82-6-16.9c-.34-1-1.56-.68-1.56.36Z" style="fill:#EF5F67"></path><path d="M387.36,144.47H282.08V132l7.44-12.38a.73.73,0,0,0,.1-.28l6.62-36.73a.82.82,0,0,1,1.61,0l6.73,44.84a.86.86,0,0,0,.36.55l6.49,4.32a.81.81,0,0,0,1.16-.28l6.53-11.6a.81.81,0,0,1,1.31-.14l6.77,7.5,7.52,8.34,7.52-8.34,6.62-7.35a.82.82,0,0,1,1.37.26l7,18.77h7.52l7.52,3.34,7.52-5,6-14.53a.81.81,0,0,1,1.57.31Z" style="fill:#263238"></path><line x1="339.09" y1="75.8" x2="362.39" y2="75.8" style="fill:none;stroke:#263238;stroke-linecap:round;stroke-linejoin:round"></line><line x1="339.09" y1="81.26" x2="362.39" y2="81.26" style="fill:none;stroke:#263238;stroke-linecap:round;stroke-linejoin:round"></line><line x1="339.09" y1="86.71" x2="362.39" y2="86.71" style="fill:none;stroke:#263238;stroke-linecap:round;stroke-linejoin:round"></line><line x1="339.09" y1="92.17" x2="362.39" y2="92.17" style="fill:none;stroke:#263238;stroke-linecap:round;stroke-linejoin:round"></line><line x1="339.09" y1="97.62" x2="362.39" y2="97.62" style="fill:none;stroke:#263238;stroke-linecap:round;stroke-linejoin:round"></line><line x1="339.09" y1="103.08" x2="362.39" y2="103.08" style="fill:none;stroke:#263238;stroke-linecap:round;stroke-linejoin:round"></line><line x1="333.79" y1="75.8" x2="336.71" y2="75.8" style="fill:none;stroke:#263238;stroke-linecap:round;stroke-linejoin:round"></line><line x1="333.79" y1="81.26" x2="336.71" y2="81.26" style="fill:none;stroke:#263238;stroke-linecap:round;stroke-linejoin:round"></line><line x1="333.79" y1="86.71" x2="336.71" y2="86.71" style="fill:none;stroke:#263238;stroke-linecap:round;stroke-linejoin:round"></line><line x1="333.79" y1="92.17" x2="336.71" y2="92.17" style="fill:none;stroke:#263238;stroke-linecap:round;stroke-linejoin:round"></line><line x1="333.79" y1="97.62" x2="336.71" y2="97.62" style="fill:none;stroke:#263238;stroke-linecap:round;stroke-linejoin:round"></line><line x1="333.79" y1="103.08" x2="336.71" y2="103.08" style="fill:none;stroke:#263238;stroke-linecap:round;stroke-linejoin:round"></line></g></svg>