<svg xmlns="http://www.w3.org/2000/svg" viewBox="0 0 750 500"><g id="freepik--Cursor--inject-114"><path d="M685.47,340.27l-29.35-13.19a1.1,1.1,0,0,0-1.51,1.31l8.81,30.82a1.1,1.1,0,0,0,1.78.54l5.15-4.42a1.11,1.11,0,0,1,1.56.12l12.38,14.43a1.12,1.12,0,0,0,1.56.12l6.64-5.7a1.12,1.12,0,0,0,.12-1.56l-12.39-14.43a1.1,1.1,0,0,1,.12-1.56l5.4-4.63A1.11,1.11,0,0,0,685.47,340.27Z" style="fill:#263238"></path><path d="M648.25,321.42c-.11.09-4-4-8.6-9.23s-8.31-9.49-8.21-9.59,4,4,8.6,9.24S648.35,321.32,648.25,321.42Z" style="fill:#263238"></path><path d="M650,301.23a13.6,13.6,0,0,1,.75,2.4c.46,1.68,1,3.65,1.59,5.84s1.16,4.15,1.62,5.82a12.1,12.1,0,0,1,.58,2.44,11.93,11.93,0,0,1-.93-2.33c-.5-1.47-1.14-3.51-1.77-5.8s-1.13-4.36-1.44-5.88A11.42,11.42,0,0,1,650,301.23Z" style="fill:#263238"></path><path d="M644.08,327.69a50.26,50.26,0,0,1-7.15-.45,47.63,47.63,0,0,1-7.1-1,98.27,98.27,0,0,1,14.25,1.42Z" style="fill:#263238"></path><path d="M646.58,333.55a60.82,60.82,0,0,1-8,7.86,59.2,59.2,0,0,1,8-7.86Z" style="fill:#263238"></path><path d="M666.88,310.66a43.57,43.57,0,0,1-6.36,9.46,112.7,112.7,0,0,1,6.36-9.46Z" style="fill:#263238"></path></g><g id="freepik--Sheets--inject-114"><path d="M96.16,157.21l-47.9-15.5a6.29,6.29,0,0,1-4-7.93l21.45-66.3a6.29,6.29,0,0,1,7.93-4.05L104,73.26l15.68,31.84-15.55,48.05A6.3,6.3,0,0,1,96.16,157.21Z" style="fill:#EF5F67"></path><path d="M104,73.26l-6,18.65a5.85,5.85,0,0,0,3.77,7.38l17.94,5.81Z" style="fill:#EF5F67"></path><g style="opacity:0.2"><path d="M97.64,93.63s-1.7,4.45,3,7.6c.18.12.37.23.55.33,2.21,1.18,16.74,8.91,16.86,8.55l1.62-5L101.7,99.29S97.27,97.69,97.64,93.63Z"></path></g><g style="opacity:0.30000000000000004"><path d="M104,73.26l-6,18.65a5.85,5.85,0,0,0,3.77,7.38l17.94,5.81Z" style="fill:#fff"></path></g><path d="M94.16,89.85c-.08.24-5.1-1.17-11.22-3.15s-11-3.77-10.94-4,5.1,1.17,11.22,3.15S94.24,89.61,94.16,89.85Z" style="fill:#fafafa"></path><path d="M105.06,105c-.08.24-8.31-2.2-18.38-5.46s-18.17-6.09-18.09-6.33,8.3,2.2,18.37,5.46S105.14,104.79,105.06,105Z" style="fill:#fafafa"></path><path d="M105.49,114.91c-.07.24-9-2.45-20-6S65.66,102.28,65.74,102s9,2.45,20,6S105.57,114.67,105.49,114.91Z" style="fill:#fafafa"></path><path d="M102.8,123.22c-.07.24-9-2.45-20-6S63,110.6,63.05,110.36s9,2.44,20,6S102.88,123,102.8,123.22Z" style="fill:#fafafa"></path><path d="M100.12,131.53c-.08.24-9.05-2.45-20-6s-19.82-6.62-19.74-6.86,9,2.44,20,6S100.19,131.29,100.12,131.53Z" style="fill:#fafafa"></path><path d="M97.43,139.84c-.08.24-9-2.44-20-6S57.59,127.22,57.67,127s9,2.44,20,6S97.5,139.6,97.43,139.84Z" style="fill:#fafafa"></path><path d="M677.29,96.4,625,107.12a4.7,4.7,0,0,1-5.54-3.66L605.06,33.05a4.69,4.69,0,0,1,3.65-5.54L645.25,20l24.37,15.61,11.32,55.23A4.68,4.68,0,0,1,677.29,96.4Z" style="fill:#EF5F67"></path><path d="M645.22,19.85l2.87,14a6.39,6.39,0,0,0,7.54,5l14-3.19Z" style="fill:#EF5F67"></path><path d="M666.6,84.1a4.43,4.43,0,0,1-.17-.66c-.1-.46-.24-1.07-.41-1.85-.36-1.66-.87-4-1.51-7l-5.23-24.75.34.23L624,57.45c-.06.08.49-.76.26-.4h0v.06l0,.07,0,.15.06.29.12.59.24,1.16c.16.78.31,1.56.47,2.33.32,1.54.63,3.06.94,4.57L628,75.14c1.17,5.76,2.27,11.2,3.29,16.21l-.35-.23L656.66,86l7.3-1.42,1.94-.36a5.93,5.93,0,0,1,.7-.11,5,5,0,0,1-.62.16l-1.88.42-7.2,1.55L631,91.7l-.29.06-.06-.29c-1-5-2.16-10.44-3.35-16.2-.6-2.87-1.21-5.83-1.83-8.85-.31-1.51-.62-3-.94-4.58l-.48-2.32-.24-1.17-.12-.58-.06-.3,0-.14V57.2h0c-.24.35.31-.49.26-.41l35.66-7.26.28-.06.06.29,5,25c.58,3,1,5.29,1.35,6.94.14.76.25,1.36.34,1.81A5.19,5.19,0,0,1,666.6,84.1Z" style="fill:#fff"></path><path d="M648.52,88.23c-.19,0-1.91-7.61-3.85-17.08S641.3,54,641.49,53.94s1.9,7.6,3.84,17.08S648.7,88.19,648.52,88.23Z" style="fill:#fff"></path><path d="M664.74,75.72c0,.18-8,2-17.83,4S629,83.24,629,83.06s7.95-2,17.83-4S664.7,75.54,664.74,75.72Z" style="fill:#fff"></path><path d="M663.35,66.89c0,.19-7.94,2-17.82,4s-17.92,3.53-18,3.34,7.94-2,17.82-4S663.31,66.71,663.35,66.89Z" style="fill:#fff"></path><path d="M661.29,58.21c0,.18-7.88,2-17.69,4s-17.79,3.49-17.82,3.31,7.88-2,17.68-4S661.25,58,661.29,58.21Z" style="fill:#fff"></path><g style="opacity:0.30000000000000004"><path d="M645.22,19.85l2.87,14a6.39,6.39,0,0,0,7.54,5l14-3.19Z" style="fill:#fff"></path></g></g><g id="freepik--Device--inject-114"><path d="M595.27,58.75H158.73A13.62,13.62,0,0,0,145.1,72.37V380.72a13.62,13.62,0,0,0,13.63,13.62H326.27s10.66,33-22.38,50H460.56s-37.31-12.78-27.72-50H595.27a13.62,13.62,0,0,0,13.63-13.62V72.38A13.63,13.63,0,0,0,595.27,58.75Z" style="fill:#455a64"></path><path d="M382.83,361.92c5.94,8.48-3.36,17.78-11.85,11.84a3.16,3.16,0,0,1-.73-.73c-5.92-8.49,3.36-17.77,11.85-11.84A3,3,0,0,1,382.83,361.92Z" style="fill:#263238"></path><path d="M162.31,64.4H591.69a9.7,9.7,0,0,1,9.7,9.7V337.94a0,0,0,0,1,0,0H152.62a0,0,0,0,1,0,0V74.09A9.7,9.7,0,0,1,162.31,64.4Z" style="fill:#fff"></path><path d="M161.77,64.4h432.1a7.52,7.52,0,0,1,7.52,7.52V87.13a0,0,0,0,1,0,0H152.62a0,0,0,0,1,0,0V73.55A9.15,9.15,0,0,1,161.77,64.4Z" style="fill:#ebebeb"></path><circle cx="166.91" cy="76.24" r="3.15" style="fill:#e0e0e0"></circle><circle cx="176.31" cy="76.24" r="3.15" style="fill:#e0e0e0"></circle><circle cx="185.24" cy="76.24" r="3.15" style="fill:#e0e0e0"></circle><path d="M517.23,394.39c0,.14-62.13.26-138.74.26s-138.74-.12-138.74-.26,62.1-.26,138.74-.26S517.23,394.24,517.23,394.39Z" style="fill:#263238"></path></g><g id="freepik--Documents--inject-114"><rect x="514.69" y="131.13" width="139.61" height="148.28" rx="11.83" style="fill:#f5f5f5"></rect><path d="M648,278.35h0V144.49h6.3V268.82C654.31,273.71,649.32,278.74,648,278.35Z" style="fill:#fff"></path><path d="M526.62,131.13H642.38a11.93,11.93,0,0,1,11.93,11.93v1.43a0,0,0,0,1,0,0H514.69a0,0,0,0,1,0,0v-1.43A11.93,11.93,0,0,1,526.62,131.13Z" style="fill:#e0e0e0"></path><rect x="648.01" y="158.96" width="6.3" height="23.96" rx="3.15" style="fill:#e0e0e0"></rect><path d="M642,279.41a3.28,3.28,0,0,1,.36,0c.24,0,.6,0,1.07-.09A12.32,12.32,0,0,0,654,269.57a25.41,25.41,0,0,0,.24-4.94c0-14-.05-34.34-.08-59.43,0-12.54,0-26.29,0-41V152.91c0-1.91,0-3.83,0-5.76a41.45,41.45,0,0,0-.19-5.8,12.08,12.08,0,0,0-6.91-8.9,12.79,12.79,0,0,0-5.85-1.08H635l-107.93,0a13.12,13.12,0,0,0-3.47.51,12,12,0,0,0-5.75,3.78,11.76,11.76,0,0,0-2.74,6.27,30.92,30.92,0,0,0-.11,3.49V180c0,18.05,0,35.47,0,52.06q0,12.44,0,24.24c0,3.92,0,7.82,0,11.6a12.14,12.14,0,0,0,5.31,9.25,12.34,12.34,0,0,0,5,1.91,47.73,47.73,0,0,0,5.35.14h10.48l19.69,0,59.43.08,16.16.05,4.2,0,1.43,0-1.43,0-4.2,0-16.16.05-59.43.08-19.69,0H530.61a49.24,49.24,0,0,1-5.41-.14,12.77,12.77,0,0,1-5.17-2,12.57,12.57,0,0,1-5.52-9.58c-.08-3.84,0-7.69,0-11.63q0-11.79,0-24.24c0-16.59,0-34,0-52.06V152.46c0-2.34,0-4.67,0-7a32.88,32.88,0,0,1,.11-3.56,12.68,12.68,0,0,1,1-3.47,13,13,0,0,1,1.91-3.07,13.53,13.53,0,0,1,2.71-2.41,13.22,13.22,0,0,1,3.3-1.53,13.7,13.7,0,0,1,3.61-.53l107.93,0h6.18a13.33,13.33,0,0,1,6,1.13,12.54,12.54,0,0,1,7.17,9.25,16.49,16.49,0,0,1,.2,3v2.92c0,1.93,0,3.85,0,5.76v11.25c0,14.75,0,28.5,0,41,0,25.09-.06,45.39-.08,59.43a25,25,0,0,1-.26,5,12.4,12.4,0,0,1-1.65,4,12.32,12.32,0,0,1-9.07,5.7C642.49,279.42,642,279.41,642,279.41Z" style="fill:#263238"></path><rect x="523.52" y="151.05" width="117.92" height="114.08" style="fill:#455a64"></rect><g style="opacity:0.30000000000000004"><path d="M603.33,185.24a8.49,8.49,0,1,1-8.49-8.48A8.49,8.49,0,0,1,603.33,185.24Z"></path></g><g style="opacity:0.30000000000000004"><path d="M632.33,160l-99.63-.08c.11-.12-1.07,1.07-.57.58v12.91q0,6.42,0,12.7,0,12.58,0,24.59c0,16,0,31.08.06,45v.5h.49l72.35-.25,20.2-.13,5.3-.06,1.34,0,.44,0-24.15-41.4L592,234.18l-26.69-37.52-32.09,58.48c0-13.75,0-28.68,0-44.46q0-12,0-24.59,0-6.28,0-12.7V161l98.59-.08c.1,28.27.18,51.83.24,68.4.06,8.31.1,14.85.13,19.37,0,2.21,0,3.92,0,5.14,0,.55,0,1,0,1.33a3.16,3.16,0,0,0,0,.47,1.83,1.83,0,0,0,0-.42c0-.33,0-.74,0-1.28,0-1.19,0-2.87.06-5,0-4.5.07-11,.12-19.26.06-16.74.15-40.58.25-69.19V160Z"></path></g><ellipse cx="527.36" cy="138.33" rx="2.48" ry="2.37" style="fill:#fff"></ellipse><ellipse cx="534.81" cy="138.33" rx="2.48" ry="2.37" style="fill:#fff"></ellipse><ellipse cx="542.33" cy="138.33" rx="2.48" ry="2.37" style="fill:#fff"></ellipse><rect x="121.74" y="131.18" width="111.02" height="153.32" rx="6.63" style="fill:#f5f5f5"></rect><path d="M129.4,131.18h95.71a7.66,7.66,0,0,1,7.66,7.66V145a0,0,0,0,1,0,0h-111a0,0,0,0,1,0,0v-6.16A7.66,7.66,0,0,1,129.4,131.18Z" style="fill:#e0e0e0"></path><circle cx="128.76" cy="138.09" r="2.21" style="fill:#fff"></circle><path d="M137.59,138.09a2.21,2.21,0,1,1-2.21-2.21A2.2,2.2,0,0,1,137.59,138.09Z" style="fill:#fff"></path><circle cx="142.07" cy="138.09" r="2.21" style="fill:#fff"></circle><rect x="126.75" y="145" width="101.01" height="136.46" style="fill:#fff"></rect><path d="M230.26,184.73h0a2.5,2.5,0,0,1-2.5-2.5V162.47a2.5,2.5,0,0,1,2.5-2.51h0a2.51,2.51,0,0,1,2.51,2.51v19.76A2.5,2.5,0,0,1,230.26,184.73Z" style="fill:#e0e0e0"></path><path d="M220.46,284.5a12.89,12.89,0,0,0,5-1.14,12.17,12.17,0,0,0,4.81-3.91,12,12,0,0,0,1.81-3.55,14.08,14.08,0,0,0,.57-4.49c0-13,0-31.7-.09-54.85,0-11.58,0-24.26,0-37.88,0-6.8,0-13.85,0-21.1,0-3.62,0-7.3,0-11a28.67,28.67,0,0,0-.26-5.57,12.41,12.41,0,0,0-2.38-5,12.17,12.17,0,0,0-10-4.54h-88c-1.1,0-2.22,0-3.3,0a6.83,6.83,0,0,0-6.52,5.84,31.31,31.31,0,0,0-.08,3.23v35.15c0,16.66,0,32.73,0,48s0,29.86,0,43.48v10a7.21,7.21,0,0,0,5.44,6.85,8,8,0,0,0,2.29.23H145.5l54.85.08,14.91.05,3.88,0,1.32,0-1.32,0-3.88,0-14.91.05-54.85.09H129.69a8.45,8.45,0,0,1-2.39-.24,7.64,7.64,0,0,1-5.76-7.23c0-3.29,0-6.64,0-10,0-13.62,0-28.17,0-43.48s0-31.38,0-48q0-12.51,0-25.42v-9.73a30.65,30.65,0,0,1,.09-3.3,7.38,7.38,0,0,1,3.74-5.39,7.48,7.48,0,0,1,3.27-.9c1.12,0,2.21,0,3.32,0h88a12.68,12.68,0,0,1,10.38,4.73,12.88,12.88,0,0,1,2.46,5.22c.08.47.16.94.21,1.42s.06,1,.06,1.43v13.84c0,7.25,0,14.3,0,21.1,0,13.62,0,26.3,0,37.88,0,23.15-.06,41.89-.08,54.85a14.2,14.2,0,0,1-.6,4.55,12.51,12.51,0,0,1-6.74,7.5,12.62,12.62,0,0,1-3.75,1C220.91,284.5,220.46,284.5,220.46,284.5Z" style="fill:#263238"></path><path d="M162.31,199.83c0,.14-5.56.26-12.41.26s-12.41-.12-12.41-.26,5.55-.26,12.41-.26S162.31,199.69,162.31,199.83Z" style="fill:#263238"></path><path d="M156.9,207a91.8,91.8,0,0,1-9.7.26,91.92,91.92,0,0,1-9.71-.26,91.92,91.92,0,0,1,9.71-.26A91.8,91.8,0,0,1,156.9,207Z" style="fill:#263238"></path><path d="M159.12,215.13c0,.15-4.84.26-10.81.26s-10.82-.11-10.82-.26,4.84-.26,10.82-.26S159.12,215,159.12,215.13Z" style="fill:#263238"></path><path d="M162.31,222.32c0,.15-5.56.26-12.41.26s-12.41-.11-12.41-.26,5.55-.26,12.41-.26S162.31,222.18,162.31,222.32Z" style="fill:#263238"></path><path d="M156.9,230.44a91.8,91.8,0,0,1-9.7.26,91.92,91.92,0,0,1-9.71-.26,88.8,88.8,0,0,1,9.71-.26A88.68,88.68,0,0,1,156.9,230.44Z" style="fill:#263238"></path><path d="M154,237.63a66.79,66.79,0,0,1-8.27.26,66.79,66.79,0,0,1-8.27-.26,63.34,63.34,0,0,1,8.27-.27A63.34,63.34,0,0,1,154,237.63Z" style="fill:#263238"></path><path d="M212,190.52c0,.14-17.31.26-38.66.26s-38.66-.12-38.66-.26,17.3-.26,38.66-.26S212,190.37,212,190.52Z" style="fill:#263238"></path><path d="M178.43,251.8c-.14,0-.26-16.9-.26-37.75s.12-37.76.26-37.76.26,16.9.26,37.76S178.58,251.8,178.43,251.8Z" style="fill:#263238"></path><path d="M195.23,251.8c-.14,0-.26-16.9-.26-37.75s.12-37.76.26-37.76.26,16.9.26,37.76S195.38,251.8,195.23,251.8Z" style="fill:#263238"></path><path d="M212,251.8c-.15,0-.26-16.9-.26-37.75s.11-37.76.26-37.76.26,16.9.26,37.76S212.13,251.8,212,251.8Z" style="fill:#263238"></path><path d="M167.29,182.88c0,.15-6.58.26-14.7.26s-14.7-.11-14.7-.26,6.58-.26,14.7-.26S167.29,182.74,167.29,182.88Z" style="fill:#263238"></path><path d="M191,182.88a16.44,16.44,0,0,1-4.15.26,16.32,16.32,0,0,1-4.14-.26,16.89,16.89,0,0,1,4.14-.26A17,17,0,0,1,191,182.88Z" style="fill:#263238"></path><path d="M208.35,182.88a16.32,16.32,0,0,1-4.14.26,16.32,16.32,0,0,1-4.14-.26,33.09,33.09,0,0,1,8.28,0Z" style="fill:#263238"></path><path d="M211.48,245.69c0,.14-16.24.26-36.26.26s-36.25-.12-36.25-.26,16.23-.26,36.25-.26S211.48,245.55,211.48,245.69Z" style="fill:#263238"></path><path d="M206,248.81a20.38,20.38,0,0,1-6.49,0,20.38,20.38,0,0,1,6.49,0Z" style="fill:#263238"></path><path d="M212.92,254.33c0,.15-10,.26-22.45.26s-22.45-.11-22.45-.26,10-.26,22.45-.26S212.92,254.19,212.92,254.33Z" style="fill:#263238"></path><path d="M218.69,266.21l-.59.06-1.7.12-6.49.4-23.38,1.33-.83,0,.7-.44a19,19,0,0,1,9.2-2.85,18.68,18.68,0,0,1,5.18.48,10.94,10.94,0,0,1,2.56.88,3.3,3.3,0,0,1,1.77,2.19,4.44,4.44,0,0,1-2.6,4.78,11.82,11.82,0,0,1-5.7.93,10.31,10.31,0,0,1-5.63-1.81,7,7,0,0,1-2.89-5.27,5.85,5.85,0,0,1,2.6-4.81,9.5,9.5,0,0,1,5.16-1.62,26.37,26.37,0,0,1,10.18,1.83,28,28,0,0,1,4.45,2.21,5.93,5.93,0,0,1,1.94,1.57,1.5,1.5,0,0,1,.28,1.33,1.26,1.26,0,0,1-1.09.82,4.63,4.63,0,0,1-2.34-.65,17.83,17.83,0,0,1-2-1.12,18.62,18.62,0,0,1-3.45-2.82l.37-.22a2,2,0,0,1-.15,1.59,3,3,0,0,1-1.06,1.11,3.33,3.33,0,0,1-2.86.37,5.7,5.7,0,0,1-2.27-1.58,17.21,17.21,0,0,1-1.59-2.09l.34-.16a2.5,2.5,0,0,1-1.11,2.74,3.14,3.14,0,0,1-2.78.49,4.73,4.73,0,0,1-2.18-1.5,8,8,0,0,1-1.27-2.09h.27c-.95,2.29-1.76,4.23-2.46,5.89l-.11.26-.1-.26c-.86-2.28-1.54-4-2-5.25l-.5-1.35a2.78,2.78,0,0,1-.15-.46,2.06,2.06,0,0,1,.2.44c.14.32.32.76.56,1.33l2.1,5.21h-.21c.68-1.67,1.47-3.63,2.4-5.93l.13-.32.14.32a5.77,5.77,0,0,0,3.28,3.38,2.81,2.81,0,0,0,2.46-.45,2.16,2.16,0,0,0,1-2.33l-.41-1.25.75,1.08c.94,1.35,2,2.9,3.67,3.49a2.93,2.93,0,0,0,2.5-.34,2,2,0,0,0,1-2.2l-.32-.93.69.71a18.52,18.52,0,0,0,3.38,2.73,16.28,16.28,0,0,0,2,1.09,4.31,4.31,0,0,0,2.07.6.78.78,0,0,0,.7-.51,1.06,1.06,0,0,0-.23-.9,5.58,5.58,0,0,0-1.79-1.42,27.43,27.43,0,0,0-4.38-2.16,26.05,26.05,0,0,0-10-1.79,8.91,8.91,0,0,0-4.88,1.53,5.33,5.33,0,0,0-2.39,4.38,6.43,6.43,0,0,0,2.68,4.86,9.91,9.91,0,0,0,5.35,1.72,11.42,11.42,0,0,0,5.44-.87A4.41,4.41,0,0,0,204.2,271a3.55,3.55,0,0,0,.43-2.47,2.83,2.83,0,0,0-1.53-1.87,10.5,10.5,0,0,0-2.44-.84,18,18,0,0,0-5-.48,18.56,18.56,0,0,0-9,2.74l-.13-.39,23.4-1.14,6.5-.29,1.7-.06A5.28,5.28,0,0,1,218.69,266.21Z" style="fill:#263238"></path><path d="M214.78,162.56c0,.14-17.31.26-38.65.26s-38.66-.12-38.66-.26,17.31-.26,38.66-.26S214.78,162.41,214.78,162.56Z" style="fill:#263238"></path><path d="M201.25,157.15a6.8,6.8,0,0,1,1.15-.07v.14c-3.21.11-14.19.19-27.22.19l-20.05-.08-6.08-.08-1.65-.05a1.92,1.92,0,0,1-.57,0,2.49,2.49,0,0,1,.57-.05l1.65,0,6.08-.08,20.05-.08c13,0,24,.08,27.22.19v.14A6.8,6.8,0,0,1,201.25,157.15Z" style="fill:#263238"></path><rect x="217.84" y="74.22" width="169.7" height="234.34" rx="11.83" style="fill:#f5f5f5"></rect><path d="M229.77,74.22H375.61a11.93,11.93,0,0,1,11.93,11.93v9.18a0,0,0,0,1,0,0H217.84a0,0,0,0,1,0,0V86.15A11.93,11.93,0,0,1,229.77,74.22Z" style="fill:#e0e0e0"></path><circle cx="228.57" cy="84.77" r="3.37" style="fill:#fff"></circle><circle cx="238.69" cy="84.77" r="3.37" style="fill:#fff"></circle><circle cx="248.91" cy="84.77" r="3.37" style="fill:#fff"></circle><rect x="225.49" y="95.33" width="154.39" height="208.57" style="fill:#fff"></rect><path d="M383.71,156.07h0a3.82,3.82,0,0,1-3.83-3.83V122a3.83,3.83,0,0,1,3.83-3.83h0a3.84,3.84,0,0,1,3.83,3.83v30.21A3.83,3.83,0,0,1,383.71,156.07Z" style="fill:#e0e0e0"></path><path d="M375.23,308.56l.51,0a9,9,0,0,0,1.51-.17,12,12,0,0,0,5.38-2.35,12.24,12.24,0,0,0,4.71-8.13,20.43,20.43,0,0,0,.11-3V291.7c0-2.2,0-4.55,0-7,0-19.92,0-48.73-.08-84.33,0-17.8,0-37.3,0-58.23q0-15.69,0-32.44,0-8.35,0-17V88.38a21.75,21.75,0,0,0-.24-4.28A12.19,12.19,0,0,0,378.75,75a13.34,13.34,0,0,0-4.33-.52H230.16a12.07,12.07,0,0,0-11.38,8.07,13.61,13.61,0,0,0-.68,4.88v20q0,19.85,0,39.08c0,25.61,0,50.32,0,73.86s0,45.91,0,66.84V295a18.16,18.16,0,0,0,.26,3.78,12.23,12.23,0,0,0,1.33,3.48,11.5,11.5,0,0,0,2.29,2.89,12.16,12.16,0,0,0,6.49,3.1,25.75,25.75,0,0,0,3.63.14l27.94,0,84.32.08,22.93.05,6,0,2,0-2,0-6,0-22.93.05-84.32.08-27.94,0a24,24,0,0,1-3.68-.14,11.72,11.72,0,0,1-3.59-1.08,12,12,0,0,1-3.13-2.11,12.35,12.35,0,0,1-2.38-3,13.07,13.07,0,0,1-1.37-3.6,18,18,0,0,1-.27-3.87q0-3.86,0-7.78c0-20.93,0-43.3,0-66.84s0-48.25,0-73.86V87.43a14.08,14.08,0,0,1,.71-5.05A12.59,12.59,0,0,1,230.16,74H374.42a14.07,14.07,0,0,1,4.47.55A12.61,12.61,0,0,1,387.52,84a21.5,21.5,0,0,1,.25,4.37V92.7q0,8.6,0,17,0,16.73,0,32.44c0,20.93,0,40.43,0,58.23,0,35.6-.06,64.41-.08,84.33q0,3.73,0,7c0,1.11,0,2.17,0,3.21a20.77,20.77,0,0,1-.13,3,12.33,12.33,0,0,1-4.79,8.19,12,12,0,0,1-5.45,2.33,10.67,10.67,0,0,1-1.51.14Z" style="fill:#263238"></path><path d="M340.33,110.32a1.51,1.51,0,0,1,.4,0l1.25,0v.14c-4.62.11-20.41.19-39.17.19L274,110.5l-8.74-.08-2.38,0a5.43,5.43,0,0,1-.83-.05,4.16,4.16,0,0,1,.83,0l2.38,0,8.74-.09,28.86-.07c18.76,0,34.55.08,39.17.19v.14l-1.25,0A2,2,0,0,1,340.33,110.32Z" style="fill:#263238"></path><path d="M366.73,128c0,.14-28.67.26-64,.26s-64.05-.12-64.05-.26,28.67-.26,64.05-.26S366.73,127.8,366.73,128Z" style="fill:#263238"></path><path d="M366.73,137.14c0,.14-28.67.26-64,.26s-64.05-.12-64.05-.26,28.67-.26,64.05-.26S366.73,137,366.73,137.14Z" style="fill:#263238"></path><path d="M366.73,146.33c0,.14-28.67.26-64,.26s-64.05-.12-64.05-.26,28.67-.26,64.05-.26S366.73,146.18,366.73,146.33Z" style="fill:#263238"></path><path d="M366.73,155.51c0,.15-28.67.26-64,.26s-64.05-.11-64.05-.26,28.67-.26,64.05-.26S366.73,155.37,366.73,155.51Z" style="fill:#263238"></path><path d="M366.73,164.7c0,.15-28.67.26-64,.26s-64.05-.11-64.05-.26,28.67-.26,64.05-.26S366.73,164.56,366.73,164.7Z" style="fill:#263238"></path><path d="M366.73,173.89c0,.14-28.67.26-64,.26s-64.05-.12-64.05-.26,28.67-.26,64.05-.26S366.73,173.75,366.73,173.89Z" style="fill:#263238"></path><path d="M366.73,262.81c0,.14-28.67.26-64,.26s-64.05-.12-64.05-.26,28.67-.26,64.05-.26S366.73,262.66,366.73,262.81Z" style="fill:#263238"></path><path d="M366.73,272c0,.14-28.67.26-64,.26s-64.05-.12-64.05-.26,28.67-.26,64.05-.26S366.73,271.85,366.73,272Z" style="fill:#263238"></path><path d="M366.73,281.19c0,.14-28.67.26-64,.26s-64.05-.12-64.05-.26,28.67-.26,64.05-.26S366.73,281,366.73,281.19Z" style="fill:#263238"></path><path d="M366.73,290.37c0,.15-28.67.26-64,.26s-64.05-.11-64.05-.26,28.67-.26,64.05-.26S366.73,290.23,366.73,290.37Z" style="fill:#263238"></path><rect x="245.04" y="189.51" width="4.53" height="50.56" style="fill:#EF5F67"></rect><rect x="253.78" y="206.68" width="4.53" height="33.39" style="fill:#EF5F67"></rect><rect x="262.52" y="195.8" width="4.53" height="44.53" style="fill:#EF5F67"></rect><rect x="271.26" y="191.46" width="4.53" height="48.61" style="fill:#EF5F67"></rect><rect x="280" y="207.71" width="4.53" height="32.36" style="fill:#EF5F67"></rect><rect x="288.74" y="214.06" width="4.53" height="26.01" style="fill:#EF5F67"></rect><rect x="297.48" y="194.7" width="4.53" height="45.37" style="fill:#EF5F67"></rect><rect x="306.22" y="202.88" width="4.53" height="37.19" style="fill:#EF5F67"></rect><rect x="314.96" y="196.35" width="4.53" height="43.73" style="fill:#EF5F67"></rect><rect x="323.71" y="210.28" width="4.53" height="29.79" style="fill:#EF5F67"></rect><rect x="341.14" y="194.7" width="4.53" height="45.37" style="fill:#EF5F67"></rect><rect x="359.7" y="223.89" width="4.53" height="15.52" style="fill:#EF5F67"></rect><rect x="350.65" y="210.28" width="4.53" height="29.79" style="fill:#EF5F67"></rect><rect x="332.45" y="204.61" width="4.53" height="35.46" style="fill:#EF5F67"></rect><path d="M365.5,196l-.4-.07-1.15-.23a17.36,17.36,0,0,0-1.88-.3,22.84,22.84,0,0,0-2.59-.22,29.89,29.89,0,0,0-7.09.61,31.11,31.11,0,0,0-8.79,3.33,35.92,35.92,0,0,0-8.91,7.09,67.72,67.72,0,0,0-7.5,10.77c-2.42,3.95-4.87,8.24-8.43,11.92a22,22,0,0,1-6.21,4.64,12.79,12.79,0,0,1-3.83,1.17,12.31,12.31,0,0,1-4.06-.13,16.75,16.75,0,0,1-7.08-3.71,32.8,32.8,0,0,1-5.23-5.72c-3-4.09-5.2-8.5-7.51-12.52a51.79,51.79,0,0,0-7.5-10.74,20.6,20.6,0,0,0-4.64-3.65,19.91,19.91,0,0,0-2.51-1.21,20.54,20.54,0,0,0-2.55-.76,18.49,18.49,0,0,0-9.3.26,21,21,0,0,0-6.38,3.07,23.37,23.37,0,0,0-3.35,3l-.78.88c-.18.2-.27.3-.28.29a2.18,2.18,0,0,1,.24-.32l.74-.92a22.27,22.27,0,0,1,3.31-3.09,21.1,21.1,0,0,1,6.42-3.18,18.68,18.68,0,0,1,9.45-.34,19.49,19.49,0,0,1,9.93,5.68,51.46,51.46,0,0,1,7.6,10.8c2.33,4,4.5,8.42,7.51,12.46a32.21,32.21,0,0,0,5.16,5.62,16.11,16.11,0,0,0,6.85,3.6,11.83,11.83,0,0,0,3.89.13,12.76,12.76,0,0,0,3.68-1.12,21.64,21.64,0,0,0,6.07-4.54c3.51-3.61,6-7.87,8.39-11.81a67.76,67.76,0,0,1,7.59-10.82,36.25,36.25,0,0,1,9-7.11,31.22,31.22,0,0,1,8.91-3.3,30,30,0,0,1,7.15-.53,24.24,24.24,0,0,1,2.61.27,14.22,14.22,0,0,1,1.88.35l1.15.28A2.25,2.25,0,0,1,365.5,196Z" style="fill:#263238"></path><path d="M240.06,243.6c-.11,0-.19-14.42-.19-32.2s.08-32.21.19-32.21.18,14.42.18,32.21S240.16,243.6,240.06,243.6Z" style="fill:#263238"></path><path d="M364.23,243.6c0,.1-27.16.18-60.66.18s-60.67-.08-60.67-.18,27.15-.19,60.67-.19S364.23,243.49,364.23,243.6Z" style="fill:#263238"></path><path d="M251.5,247.58a31.45,31.45,0,0,1-6.72,0,29.8,29.8,0,0,1,6.72,0Z" style="fill:#263238"></path><path d="M262.64,247.78a44.87,44.87,0,0,1-8,0,42.52,42.52,0,0,1,8,0Z" style="fill:#263238"></path><path d="M272.15,247.78a44.87,44.87,0,0,1-8,0,42.52,42.52,0,0,1,8,0Z" style="fill:#263238"></path><path d="M281.65,247.78a44.87,44.87,0,0,1-8,0,42.52,42.52,0,0,1,8,0Z" style="fill:#263238"></path><path d="M291.16,247.78a44.87,44.87,0,0,1-8,0,42.52,42.52,0,0,1,8,0Z" style="fill:#263238"></path><path d="M300.67,247.78a44.87,44.87,0,0,1-8,0,42.52,42.52,0,0,1,8,0Z" style="fill:#263238"></path><path d="M310.17,247.78a44.87,44.87,0,0,1-8,0,42.52,42.52,0,0,1,8,0Z" style="fill:#263238"></path><path d="M319.68,247.78a44.87,44.87,0,0,1-8,0,42.52,42.52,0,0,1,8,0Z" style="fill:#263238"></path><path d="M329.18,247.78a44.87,44.87,0,0,1-8,0,42.52,42.52,0,0,1,8,0Z" style="fill:#263238"></path><path d="M338.69,247.78a44.87,44.87,0,0,1-8,0,42.52,42.52,0,0,1,8,0Z" style="fill:#263238"></path><path d="M347.53,247.78a42.52,42.52,0,0,1-8,0,42.52,42.52,0,0,1,8,0Z" style="fill:#263238"></path><path d="M356.37,247.78a42.52,42.52,0,0,1-8,0,44.87,44.87,0,0,1,8,0Z" style="fill:#263238"></path><path d="M365.21,247.79a44.87,44.87,0,0,1-8,0,42.52,42.52,0,0,1,8,0Z" style="fill:#263238"></path><path d="M286.27,213.05c0-.08.55.12.73.88a1.86,1.86,0,0,1-.14,1.3,1.1,1.1,0,0,1-.66.56,1.18,1.18,0,0,1-.92-.11,1.56,1.56,0,0,1-.79-1.44,1.65,1.65,0,0,1,.63-1.17,1,1,0,0,1,.87-.21c.21.06.28.16.27.19s-.46-.14-.91.3a1.33,1.33,0,0,0-.39.91,1.13,1.13,0,0,0,.56,1,.67.67,0,0,0,.94-.24,1.69,1.69,0,0,0,.19-1A2.28,2.28,0,0,0,286.27,213.05Z" style="fill:#263238"></path><path d="M345.85,196.43s.15-.07.4,0a1.5,1.5,0,0,1,.8.7,2,2,0,0,1,.2,1.59A1.68,1.68,0,0,1,345.7,200a1.35,1.35,0,0,1-1-.52,2.16,2.16,0,0,1-.42-.88,2,2,0,0,1,.26-1.57c.55-.79,1.24-.75,1.22-.69s-.55.18-.91.87a1.66,1.66,0,0,0-.11,1.28c.11.46.47,1,1,1a1.24,1.24,0,0,0,1.09-.88,1.76,1.76,0,0,0-.07-1.27A1.81,1.81,0,0,0,345.85,196.43Z" style="fill:#263238"></path><rect x="335.72" y="48.16" width="220.75" height="304.84" rx="11.83" style="fill:#f5f5f5"></rect><path d="M347.65,48.16H544.53a11.93,11.93,0,0,1,11.93,11.93V75.63a0,0,0,0,1,0,0H335.72a0,0,0,0,1,0,0V60.09A11.93,11.93,0,0,1,347.65,48.16Z" style="fill:#e0e0e0"></path><circle cx="349.68" cy="61.89" r="4.39" style="fill:#fff"></circle><path d="M367.22,61.89a4.39,4.39,0,1,1-4.38-4.38A4.38,4.38,0,0,1,367.22,61.89Z" style="fill:#fff"></path><circle cx="376.13" cy="61.89" r="4.39" style="fill:#fff"></circle><rect x="345.68" y="75.63" width="200.83" height="271.31" style="fill:#fff"></rect><rect x="546.5" y="105.38" width="9.96" height="49.25" rx="4.86" style="fill:#e0e0e0"></rect><path d="M544.16,353l.67,0a12.56,12.56,0,0,0,2-.27,12.33,12.33,0,0,0,6.57-3.92,11.86,11.86,0,0,0,2.64-5c.58-2,.34-4.39.39-6.89,0-5,0-10.81,0-17.32,0-26.07,0-63.78-.08-110.38,0-23.3,0-48.82,0-76.21q0-20.55,0-42.47,0-10.93,0-22.2V62.64a18.5,18.5,0,0,0-.5-5.57,12.07,12.07,0,0,0-7.41-7.92,11.74,11.74,0,0,0-2.75-.66,24.8,24.8,0,0,0-2.87-.09H348.05a12.14,12.14,0,0,0-10.64,6.35A12.58,12.58,0,0,0,336,61V93.78q0,26,0,51.15c0,33.53,0,65.87,0,96.68s0,60.09,0,87.49v10.18a15,15,0,0,0,.52,4.92,11.75,11.75,0,0,0,2.31,4.27,12.09,12.09,0,0,0,8.37,4.28c3.21.1,6.44,0,9.62.05l36.57,0,110.37.08,30,.05,7.81,0,2.66,0-2.66,0-7.81,0-30,0-110.37.09H356.75c-3.19,0-6.38.05-9.65,0A12.51,12.51,0,0,1,336,344.32a15.61,15.61,0,0,1-.54-5V329.1c0-27.4,0-56.68,0-87.49s0-63.15,0-96.68V61a12.94,12.94,0,0,1,1.49-6.5,12.62,12.62,0,0,1,11.1-6.63H542.7a26.29,26.29,0,0,1,2.93.09,12.6,12.6,0,0,1,10.56,8.93,18.69,18.69,0,0,1,.51,5.7v5.65q0,11.25,0,22.2,0,21.9,0,42.47c0,27.39,0,52.91,0,76.21,0,46.6-.06,84.31-.08,110.38,0,6.51,0,12.3,0,17.32,0,2.49.18,4.85-.42,6.92a12,12,0,0,1-2.68,5,12.31,12.31,0,0,1-6.64,3.9,11.84,11.84,0,0,1-2,.24Z" style="fill:#263238"></path><path d="M365.34,116.64h30.54l.29,9.18h-1.29c-.63-2.89-1.44-4.76-2.41-5.63s-3-1.31-6.16-1.31h-3v27.64c0,2.09.32,3.38,1,3.87s2.07.83,4.27,1v1H372.8v-1c2.29-.18,3.71-.55,4.27-1.13s.85-2,.85-4.36v-27h-3q-4.49,0-6.1,1.29c-1.08.86-1.9,2.75-2.44,5.65H365Z" style="fill:#263238"></path><path d="M503.41,95.12a3.84,3.84,0,0,1,.56,0l1.76,0v.13c-6.49.11-28.73.2-55.12.2L410,95.31l-12.31-.08-3.35,0-.87,0-.3,0,.3,0,.87,0,3.35,0L410,94.94l40.62-.08c26.39,0,48.63.09,55.12.2v.13l-1.76,0A2.12,2.12,0,0,1,503.41,95.12Z" style="fill:#263238"></path><path d="M442.81,117c0,.14-8.4.26-18.76.26s-18.77-.12-18.77-.26,8.4-.26,18.77-.26S442.81,116.82,442.81,117Z" style="fill:#263238"></path><path d="M442.81,125.82c0,.14-8.4.26-18.76.26s-18.77-.12-18.77-.26,8.4-.26,18.77-.26S442.81,125.68,442.81,125.82Z" style="fill:#263238"></path><path d="M442.81,134.67c0,.15-8.4.26-18.76.26s-18.77-.11-18.77-.26,8.4-.26,18.77-.26S442.81,134.53,442.81,134.67Z" style="fill:#263238"></path><path d="M442.81,143.53c0,.14-8.4.26-18.76.26s-18.77-.12-18.77-.26,8.4-.26,18.77-.26S442.81,143.38,442.81,143.53Z" style="fill:#263238"></path><path d="M442.81,152.38c0,.14-8.4.26-18.76.26s-18.77-.12-18.77-.26,8.4-.26,18.77-.26S442.81,152.24,442.81,152.38Z" style="fill:#263238"></path><path d="M442.81,161.23c0,.15-17.75.26-39.63.26s-39.63-.11-39.63-.26,17.74-.26,39.63-.26S442.81,161.09,442.81,161.23Z" style="fill:#263238"></path><path d="M442.81,169.67c0,.14-17.75.26-39.63.26s-39.63-.12-39.63-.26,17.74-.26,39.63-.26S442.81,169.52,442.81,169.67Z" style="fill:#263238"></path><path d="M442.81,178.1c0,.14-17.75.26-39.63.26s-39.63-.12-39.63-.26,17.74-.26,39.63-.26S442.81,178,442.81,178.1Z" style="fill:#263238"></path><path d="M442.81,186.53c0,.14-17.75.26-39.63.26s-39.63-.12-39.63-.26,17.74-.26,39.63-.26S442.81,186.39,442.81,186.53Z" style="fill:#263238"></path><path d="M442.81,195c0,.15-17.75.26-39.63.26s-39.63-.11-39.63-.26,17.74-.26,39.63-.26S442.81,194.82,442.81,195Z" style="fill:#263238"></path><path d="M442.81,203.39c0,.15-17.75.26-39.63.26s-39.63-.11-39.63-.26,17.74-.26,39.63-.26S442.81,203.25,442.81,203.39Z" style="fill:#263238"></path><path d="M442.81,211.83c0,.14-17.75.26-39.63.26s-39.63-.12-39.63-.26,17.74-.26,39.63-.26S442.81,211.68,442.81,211.83Z" style="fill:#263238"></path><path d="M442.81,220.26c0,.14-17.75.26-39.63.26s-39.63-.12-39.63-.26,17.74-.26,39.63-.26S442.81,220.11,442.81,220.26Z" style="fill:#263238"></path><path d="M526.79,117c0,.14-16.63.26-37.14.26s-37.15-.12-37.15-.26,16.63-.26,37.15-.26S526.79,116.82,526.79,117Z" style="fill:#263238"></path><path d="M526.79,125.4c0,.14-16.63.26-37.14.26s-37.15-.12-37.15-.26,16.63-.26,37.15-.26S526.79,125.25,526.79,125.4Z" style="fill:#263238"></path><path d="M526.79,133.83c0,.14-16.63.26-37.14.26s-37.15-.12-37.15-.26,16.63-.26,37.15-.26S526.79,133.69,526.79,133.83Z" style="fill:#263238"></path><path d="M526.79,142.26c0,.15-16.63.26-37.14.26s-37.15-.11-37.15-.26,16.63-.26,37.15-.26S526.79,142.12,526.79,142.26Z" style="fill:#263238"></path><path d="M526.79,150.69c0,.15-16.63.26-37.14.26s-37.15-.11-37.15-.26,16.63-.26,37.15-.26S526.79,150.55,526.79,150.69Z" style="fill:#263238"></path><path d="M526.79,159.13c0,.14-16.63.26-37.14.26s-37.15-.12-37.15-.26,16.63-.26,37.15-.26S526.79,159,526.79,159.13Z" style="fill:#263238"></path><path d="M526.79,167.56c0,.14-16.63.26-37.14.26s-37.15-.12-37.15-.26,16.63-.26,37.15-.26S526.79,167.41,526.79,167.56Z" style="fill:#263238"></path><path d="M526.79,176c0,.14-16.63.26-37.14.26s-37.15-.12-37.15-.26,16.63-.26,37.15-.26S526.79,175.85,526.79,176Z" style="fill:#263238"></path><path d="M442.81,241.23c0,.15-17.58.26-39.27.26s-39.26-.11-39.26-.26,17.58-.26,39.26-.26S442.81,241.09,442.81,241.23Z" style="fill:#263238"></path><path d="M442.81,249.66c0,.15-17.58.26-39.27.26s-39.26-.11-39.26-.26,17.58-.26,39.26-.26S442.81,249.52,442.81,249.66Z" style="fill:#263238"></path><path d="M442.81,258.1c0,.14-17.58.26-39.27.26s-39.26-.12-39.26-.26,17.58-.26,39.26-.26S442.81,258,442.81,258.1Z" style="fill:#263238"></path><path d="M442.81,266.53c0,.14-17.58.26-39.27.26s-39.26-.12-39.26-.26,17.58-.26,39.26-.26S442.81,266.38,442.81,266.53Z" style="fill:#263238"></path><path d="M442.81,275c0,.14-17.58.26-39.27.26s-39.26-.12-39.26-.26,17.58-.26,39.26-.26S442.81,274.82,442.81,275Z" style="fill:#263238"></path><path d="M442.81,283.39c0,.15-17.58.26-39.27.26s-39.26-.11-39.26-.26,17.58-.26,39.26-.26S442.81,283.25,442.81,283.39Z" style="fill:#263238"></path><path d="M442.81,291.82c0,.15-17.58.26-39.27.26s-39.26-.11-39.26-.26,17.58-.26,39.26-.26S442.81,291.68,442.81,291.82Z" style="fill:#263238"></path><path d="M442.81,300.26c0,.14-17.58.26-39.27.26s-39.26-.12-39.26-.26,17.58-.27,39.26-.27S442.81,300.11,442.81,300.26Z" style="fill:#263238"></path><path d="M442.81,309.15c0,.15-17.58.26-39.27.26s-39.26-.11-39.26-.26,17.58-.26,39.26-.26S442.81,309,442.81,309.15Z" style="fill:#263238"></path><path d="M442.81,318.05c0,.14-17.58.26-39.27.26s-39.26-.12-39.26-.26,17.58-.26,39.26-.26S442.81,317.9,442.81,318.05Z" style="fill:#263238"></path><path d="M442.81,327c0,.14-17.58.26-39.27.26s-39.26-.12-39.26-.26,17.58-.26,39.26-.26S442.81,326.8,442.81,327Z" style="fill:#263238"></path><rect x="452.5" y="184.62" width="73.81" height="71.41" style="fill:#EF5F67"></rect><g style="opacity:0.30000000000000004"><polygon points="458.23 249.91 478.64 213.17 495.34 236.65 505.49 224.18 520.59 249.91 458.23 249.91"></polygon></g><g style="opacity:0.30000000000000004"><path d="M502.46,206a5.32,5.32,0,1,1-5.31-5.31A5.31,5.31,0,0,1,502.46,206Z"></path></g><g style="opacity:0.30000000000000004"><path d="M520.59,250.11a1.64,1.64,0,0,1,0-.29c0-.21,0-.49,0-.83,0-.76,0-1.84,0-3.22,0-2.83,0-6.92-.08-12.12,0-10.43-.09-25.29-.15-43.12l.3.3-62.36,0c-.08.08.66-.66.35-.34v8.08c0,2.68,0,5.33,0,7.95,0,5.25,0,10.39,0,15.39,0,10,0,19.45,0,28.15l-.3-.3,45.08.15L516,250l3.38,0h.87l.31,0-.27,0-.85,0-3.31,0-12.65.08-45.28.16h-.31v-.31c0-8.7,0-18.15,0-28.15,0-5,0-10.14,0-15.39q0-3.93,0-7.95v-8.08c-.31.31.43-.44.36-.36l62.36,0h.3v.3c-.06,17.91-.12,32.83-.15,43.31,0,5.17-.06,9.24-.08,12.06,0,1.35,0,2.41,0,3.15,0,.34,0,.6,0,.8A2.17,2.17,0,0,1,520.59,250.11Z"></path></g><path d="M528.91,265.94c0,.15-17.58.26-39.26.26s-39.27-.11-39.27-.26,17.58-.26,39.27-.26S528.91,265.8,528.91,265.94Z" style="fill:#263238"></path><path d="M528.91,274.37c0,.15-17.58.26-39.26.26s-39.27-.11-39.27-.26,17.58-.26,39.27-.26S528.91,274.23,528.91,274.37Z" style="fill:#263238"></path><path d="M528.91,282.81c0,.14-17.58.26-39.26.26s-39.27-.12-39.27-.26,17.58-.26,39.27-.26S528.91,282.66,528.91,282.81Z" style="fill:#263238"></path><path d="M528.91,291.24c0,.14-17.58.26-39.26.26s-39.27-.12-39.27-.26S468,291,489.65,291,528.91,291.09,528.91,291.24Z" style="fill:#263238"></path><path d="M528.91,300.13c0,.15-17.58.27-39.26.27s-39.27-.12-39.27-.27,17.58-.26,39.27-.26S528.91,300,528.91,300.13Z" style="fill:#263238"></path><path d="M528.91,309c0,.15-17.58.26-39.26.26s-39.27-.11-39.27-.26,17.58-.26,39.27-.26S528.91,308.89,528.91,309Z" style="fill:#263238"></path><path d="M528.91,317.93c0,.14-17.58.26-39.26.26s-39.27-.12-39.27-.26,17.58-.26,39.27-.26S528.91,317.78,528.91,317.93Z" style="fill:#263238"></path></g></svg>