<svg width="594" height="645" viewBox="0 0 594 645" fill="none" xmlns="http://www.w3.org/2000/svg">
<g clip-path="url(#clip0_605_448)">
<path d="M593.5 0.5H0.5V644.5H593.5V0.5Z" fill="white"/>
<path d="M92.0357 218.806C91.7413 220.996 93.2776 223.009 95.467 223.303C97.6564 223.598 99.67 222.062 99.9643 219.872L92.0357 218.806ZM507.732 241.795C509.552 243.047 512.043 242.588 513.295 240.768L533.705 211.113C534.958 209.293 534.498 206.802 532.678 205.55C530.858 204.297 528.368 204.757 527.115 206.577L508.973 232.937L482.613 214.795C480.793 213.542 478.302 214.002 477.05 215.822C475.797 217.642 476.257 220.132 478.077 221.385L507.732 241.795ZM96 219.339C99.9643 219.872 99.964 219.874 99.9638 219.876C99.9638 219.876 99.964 219.875 99.9646 219.87C99.9658 219.862 99.968 219.846 99.9715 219.822C99.9784 219.775 99.99 219.697 100.007 219.59C100.041 219.376 100.095 219.044 100.176 218.603C100.336 217.72 100.599 216.399 101 214.702C101.803 211.307 103.157 206.415 105.35 200.526C109.737 188.742 117.467 173.002 130.82 157.257C157.408 125.904 206.744 94 297.984 94V86C204.629 86 152.973 118.765 124.718 152.082C110.65 168.672 102.495 185.267 97.8528 197.734C95.5311 203.97 94.0846 209.183 93.215 212.861C92.7801 214.701 92.4892 216.159 92.305 217.17C92.2129 217.676 92.1475 218.071 92.1042 218.346C92.0825 218.484 92.0664 218.591 92.0551 218.668C92.0495 218.707 92.0451 218.738 92.0419 218.761C92.0403 218.772 92.039 218.782 92.038 218.789C92.0374 218.793 92.0369 218.797 92.0366 218.799C92.0361 218.803 92.0357 218.806 96 219.339ZM297.984 94C389.025 94 440.901 130.541 470.101 166.761C484.755 184.937 493.764 203.122 499.107 216.756C501.777 223.57 503.525 229.234 504.603 233.174C505.141 235.144 505.512 236.681 505.745 237.714C505.862 238.231 505.945 238.621 505.997 238.876C506.023 239.004 506.042 239.097 506.053 239.156C506.059 239.186 506.063 239.206 506.065 239.218C506.066 239.224 506.067 239.227 506.067 239.229C506.067 239.228 506.067 239.226 510 238.5C513.933 237.774 513.933 237.771 513.932 237.767C513.932 237.765 513.931 237.761 513.931 237.758C513.929 237.75 513.927 237.74 513.925 237.728C513.92 237.704 513.914 237.671 513.906 237.629C513.889 237.545 513.866 237.425 513.834 237.272C513.772 236.965 513.678 236.521 513.548 235.95C513.29 234.808 512.891 233.155 512.32 231.064C511.176 226.883 509.341 220.946 506.555 213.838C500.988 199.628 491.605 180.688 476.329 161.74C445.669 123.709 391.537 86 297.984 86V94Z" fill="#3C3C3C"/>
<path d="M507.968 418.502C508.246 416.31 506.694 414.309 504.502 414.032C502.31 413.754 500.309 415.306 500.032 417.498L507.968 418.502ZM92.2794 400.713C90.4641 399.454 87.9719 399.905 86.713 401.721L66.1981 431.303C64.9392 433.119 65.3902 435.611 67.2056 436.87C69.0209 438.129 71.5131 437.677 72.772 435.862L91.0075 409.566L117.303 427.802C119.119 429.061 121.611 428.61 122.87 426.794C124.129 424.979 123.677 422.487 121.862 421.228L92.2794 400.713ZM504 418C500.032 417.498 500.032 417.496 500.032 417.495V417.494C500.032 417.495 500.032 417.498 500.031 417.503C500.03 417.512 500.027 417.53 500.024 417.556C500.017 417.608 500.005 417.693 499.988 417.808C499.953 418.04 499.898 418.396 499.817 418.869C499.655 419.815 499.391 421.228 498.988 423.04C498.182 426.665 496.823 431.883 494.623 438.162C490.223 450.727 482.476 467.493 469.104 484.256C442.484 517.626 393.166 551.5 302.016 551.5V559.5C395.461 559.5 447.135 524.624 475.358 489.244C489.408 471.632 497.545 454.023 502.174 440.807C504.489 434.195 505.931 428.671 506.797 424.776C507.23 422.829 507.519 421.287 507.702 420.219C507.794 419.685 507.859 419.27 507.901 418.981C507.923 418.836 507.939 418.723 507.95 418.643C507.955 418.603 507.959 418.571 507.962 418.548C507.964 418.536 507.965 418.526 507.966 418.518C507.967 418.515 507.967 418.51 507.968 418.509C507.968 418.505 507.968 418.502 504 418ZM302.016 551.5C211.006 551.5 159.135 514.236 129.924 477.27C115.264 458.719 106.249 440.158 100.903 426.238C98.2314 419.282 96.4811 413.498 95.4024 409.474C94.8632 407.463 94.4923 405.892 94.2583 404.836C94.1413 404.308 94.0585 403.909 94.0061 403.648C93.9799 403.517 93.9613 403.421 93.9498 403.361C93.944 403.33 93.94 403.309 93.9378 403.297C93.9366 403.291 93.9359 403.287 93.9356 403.285C93.9357 403.285 93.9355 403.285 93.9356 403.285C93.9358 403.286 93.936 403.288 90 404C86.064 404.712 86.0645 404.715 86.0651 404.719C86.0654 404.721 86.0662 404.725 86.0669 404.728C86.0683 404.736 86.0701 404.746 86.0724 404.758C86.0769 404.783 86.0832 404.816 86.0914 404.859C86.1076 404.944 86.1312 405.065 86.1625 405.222C86.2251 405.534 86.3189 405.985 86.4478 406.567C86.7056 407.73 87.104 409.414 87.6752 411.545C88.8172 415.806 90.6514 421.859 93.4349 429.106C98.9987 443.592 108.376 462.906 123.647 482.23C154.295 521.014 208.432 559.5 302.016 559.5V551.5Z" fill="#3C3C3C"/>
<path d="M511 350C532.539 350 550 332.539 550 311C550 289.461 532.539 272 511 272C489.461 272 472 289.461 472 311C472 332.539 489.461 350 511 350Z" fill="#F9FCFF"/>
<path d="M551.667 307.167V311C551.662 319.985 548.752 328.728 543.372 335.924C537.993 343.121 530.431 348.385 521.814 350.933C513.198 353.481 503.989 353.175 495.56 350.061C487.132 346.947 479.936 341.192 475.046 333.655C470.155 326.117 467.833 317.2 468.424 308.235C469.015 299.269 472.489 290.735 478.326 283.905C484.164 277.074 492.053 272.314 500.818 270.334C509.582 268.354 518.751 269.26 526.959 272.917" stroke="#242424" stroke-width="8.33333" stroke-linecap="round" stroke-linejoin="round"/>
<path d="M551.667 277.667L510 319.375L497.5 306.875" stroke="#242424" stroke-width="8.33333" stroke-linecap="round" stroke-linejoin="round"/>
<path d="M478.883 384H476.852L471.5 375.766C471.365 375.557 471.253 375.341 471.164 375.117H471.117C471.159 375.357 471.18 375.87 471.18 376.656V384H469.383V372.797H471.547L476.719 380.836C476.938 381.169 477.078 381.398 477.141 381.523H477.172C477.12 381.227 477.094 380.724 477.094 380.016V372.797H478.883V384ZM488.234 380.492H482.781C482.802 381.232 483.029 381.802 483.461 382.203C483.898 382.604 484.497 382.805 485.258 382.805C486.112 382.805 486.896 382.549 487.609 382.039V383.5C486.88 383.958 485.917 384.188 484.719 384.188C483.542 384.188 482.617 383.826 481.945 383.102C481.279 382.372 480.945 381.349 480.945 380.031C480.945 378.786 481.312 377.773 482.047 376.992C482.786 376.206 483.703 375.812 484.797 375.812C485.891 375.812 486.737 376.164 487.336 376.867C487.935 377.57 488.234 378.547 488.234 379.797V380.492ZM486.484 379.211C486.479 378.56 486.326 378.055 486.023 377.695C485.721 377.331 485.305 377.148 484.773 377.148C484.253 377.148 483.81 377.339 483.445 377.719C483.086 378.099 482.865 378.596 482.781 379.211H486.484ZM500.719 376L498.359 384H496.461L495.008 378.578C494.951 378.37 494.914 378.135 494.898 377.875H494.867C494.857 378.052 494.81 378.281 494.727 378.562L493.148 384H491.289L488.938 376H490.812L492.266 381.766C492.312 381.938 492.344 382.167 492.359 382.453H492.414C492.43 382.234 492.471 382 492.539 381.75L494.156 376H495.859L497.297 381.789C497.344 381.971 497.378 382.201 497.398 382.477H497.453C497.464 382.284 497.503 382.055 497.57 381.789L498.992 376H500.719ZM513.453 384H511.641V382.734H511.609C511.083 383.703 510.266 384.188 509.156 384.188C507.266 384.188 506.32 383.052 506.32 380.781V376H508.133V380.594C508.133 382.031 508.688 382.75 509.797 382.75C510.333 382.75 510.773 382.552 511.117 382.156C511.466 381.76 511.641 381.242 511.641 380.602V376H513.453V384ZM517.664 382.82H517.633V387.68H515.82V376H517.633V377.406H517.664C518.284 376.344 519.19 375.812 520.383 375.812C521.398 375.812 522.19 376.169 522.758 376.883C523.326 377.596 523.609 378.555 523.609 379.758C523.609 381.091 523.289 382.159 522.648 382.961C522.008 383.763 521.133 384.164 520.023 384.164C519.003 384.164 518.216 383.716 517.664 382.82ZM517.617 379.664V380.656C517.617 381.24 517.802 381.734 518.172 382.141C518.547 382.547 519.021 382.75 519.594 382.75C520.266 382.75 520.792 382.49 521.172 381.969C521.557 381.443 521.75 380.711 521.75 379.773C521.75 378.987 521.57 378.372 521.211 377.93C520.857 377.482 520.375 377.258 519.766 377.258C519.12 377.258 518.599 377.487 518.203 377.945C517.812 378.404 517.617 378.977 517.617 379.664ZM532.734 384H530.922V382.641H530.891C530.307 383.672 529.409 384.188 528.195 384.188C527.211 384.188 526.422 383.831 525.828 383.117C525.24 382.398 524.945 381.422 524.945 380.188C524.945 378.865 525.271 377.805 525.922 377.008C526.578 376.211 527.451 375.812 528.539 375.812C529.617 375.812 530.401 376.245 530.891 377.109H530.922V372.156H532.734V384ZM530.945 380.344V379.297C530.945 378.729 530.76 378.247 530.391 377.852C530.021 377.456 529.549 377.258 528.977 377.258C528.299 377.258 527.766 377.51 527.375 378.016C526.99 378.521 526.797 379.221 526.797 380.117C526.797 380.93 526.982 381.573 527.352 382.047C527.727 382.516 528.229 382.75 528.859 382.75C529.479 382.75 529.982 382.523 530.367 382.07C530.753 381.612 530.945 381.036 530.945 380.344ZM541.242 384H539.484V382.75H539.453C538.901 383.708 538.091 384.188 537.023 384.188C536.237 384.188 535.62 383.974 535.172 383.547C534.729 383.12 534.508 382.555 534.508 381.852C534.508 380.341 535.378 379.461 537.117 379.211L539.492 378.875C539.492 377.734 538.951 377.164 537.867 377.164C536.914 377.164 536.055 377.492 535.289 378.148V376.562C536.133 376.062 537.107 375.812 538.211 375.812C540.232 375.812 541.242 376.807 541.242 378.797V384ZM539.492 380.07L537.812 380.305C537.292 380.372 536.898 380.5 536.633 380.688C536.372 380.87 536.242 381.193 536.242 381.656C536.242 381.995 536.362 382.273 536.602 382.492C536.846 382.706 537.172 382.812 537.578 382.812C538.13 382.812 538.586 382.62 538.945 382.234C539.31 381.844 539.492 381.354 539.492 380.766V380.07ZM547.68 383.914C547.326 384.091 546.859 384.18 546.281 384.18C544.729 384.18 543.953 383.435 543.953 381.945V377.422H542.617V376H543.953V374.148L545.766 373.633V376H547.68V377.422H545.766V381.422C545.766 381.896 545.852 382.234 546.023 382.438C546.195 382.641 546.482 382.742 546.883 382.742C547.19 382.742 547.456 382.654 547.68 382.477V383.914ZM555.922 380.492H550.469C550.49 381.232 550.716 381.802 551.148 382.203C551.586 382.604 552.185 382.805 552.945 382.805C553.799 382.805 554.583 382.549 555.297 382.039V383.5C554.568 383.958 553.604 384.188 552.406 384.188C551.229 384.188 550.305 383.826 549.633 383.102C548.966 382.372 548.633 381.349 548.633 380.031C548.633 378.786 549 377.773 549.734 376.992C550.474 376.206 551.391 375.812 552.484 375.812C553.578 375.812 554.424 376.164 555.023 376.867C555.622 377.57 555.922 378.547 555.922 379.797V380.492ZM554.172 379.211C554.167 378.56 554.013 378.055 553.711 377.695C553.409 377.331 552.992 377.148 552.461 377.148C551.94 377.148 551.497 377.339 551.133 377.719C550.773 378.099 550.552 378.596 550.469 379.211H554.172ZM557.148 383.75V382.07C557.826 382.586 558.573 382.844 559.391 382.844C560.484 382.844 561.031 382.521 561.031 381.875C561.031 381.693 560.984 381.539 560.891 381.414C560.797 381.284 560.669 381.169 560.508 381.07C560.352 380.971 560.164 380.883 559.945 380.805C559.732 380.727 559.492 380.638 559.227 380.539C558.898 380.409 558.602 380.271 558.336 380.125C558.076 379.979 557.857 379.815 557.68 379.633C557.508 379.445 557.378 379.234 557.289 379C557.201 378.766 557.156 378.492 557.156 378.18C557.156 377.794 557.247 377.456 557.43 377.164C557.612 376.867 557.857 376.62 558.164 376.422C558.471 376.219 558.82 376.068 559.211 375.969C559.602 375.865 560.005 375.812 560.422 375.812C561.161 375.812 561.823 375.924 562.406 376.148V377.734C561.844 377.349 561.198 377.156 560.469 377.156C560.24 377.156 560.031 377.18 559.844 377.227C559.661 377.273 559.505 377.339 559.375 377.422C559.245 377.505 559.143 377.607 559.07 377.727C558.997 377.841 558.961 377.969 558.961 378.109C558.961 378.281 558.997 378.427 559.07 378.547C559.143 378.667 559.25 378.773 559.391 378.867C559.536 378.956 559.708 379.039 559.906 379.117C560.109 379.19 560.341 379.271 560.602 379.359C560.945 379.5 561.253 379.643 561.523 379.789C561.799 379.935 562.034 380.102 562.227 380.289C562.419 380.471 562.568 380.685 562.672 380.93C562.776 381.169 562.828 381.456 562.828 381.789C562.828 382.195 562.734 382.549 562.547 382.852C562.359 383.154 562.109 383.404 561.797 383.602C561.484 383.799 561.122 383.945 560.711 384.039C560.305 384.138 559.875 384.188 559.422 384.188C558.547 384.188 557.789 384.042 557.148 383.75Z" fill="#242424"/>
<path d="M56.1953 383.531C55.3516 383.969 54.3021 384.188 53.0469 384.188C51.4219 384.188 50.1198 383.674 49.1406 382.648C48.1615 381.622 47.6719 380.276 47.6719 378.609C47.6719 376.818 48.2214 375.37 49.3203 374.266C50.4245 373.161 51.8177 372.609 53.5 372.609C54.5833 372.609 55.4818 372.763 56.1953 373.07V374.914C55.4401 374.466 54.6068 374.242 53.6953 374.242C52.4818 374.242 51.4974 374.63 50.7422 375.406C49.9922 376.182 49.6172 377.219 49.6172 378.516C49.6172 379.75 49.9688 380.734 50.6719 381.469C51.375 382.198 52.2995 382.562 53.4453 382.562C54.5026 382.562 55.4193 382.312 56.1953 381.812V383.531ZM65.0938 384H63.2812V382.734H63.25C62.724 383.703 61.9062 384.188 60.7969 384.188C58.9062 384.188 57.9609 383.052 57.9609 380.781V376H59.7734V380.594C59.7734 382.031 60.3281 382.75 61.4375 382.75C61.974 382.75 62.4141 382.552 62.7578 382.156C63.1068 381.76 63.2812 381.242 63.2812 380.602V376H65.0938V384ZM72.1016 377.727C71.8828 377.555 71.5677 377.469 71.1562 377.469C70.6198 377.469 70.1719 377.711 69.8125 378.195C69.4531 378.68 69.2734 379.339 69.2734 380.172V384H67.4609V376H69.2734V377.648H69.3047C69.4818 377.086 69.7526 376.648 70.1172 376.336C70.487 376.018 70.8984 375.859 71.3516 375.859C71.6797 375.859 71.9297 375.909 72.1016 376.008V377.727ZM78.0234 377.727C77.8047 377.555 77.4896 377.469 77.0781 377.469C76.5417 377.469 76.0938 377.711 75.7344 378.195C75.375 378.68 75.1953 379.339 75.1953 380.172V384H73.3828V376H75.1953V377.648H75.2266C75.4036 377.086 75.6745 376.648 76.0391 376.336C76.4089 376.018 76.8203 375.859 77.2734 375.859C77.6016 375.859 77.8516 375.909 78.0234 376.008V377.727ZM85.9375 380.492H80.4844C80.5052 381.232 80.7318 381.802 81.1641 382.203C81.6016 382.604 82.2005 382.805 82.9609 382.805C83.8151 382.805 84.599 382.549 85.3125 382.039V383.5C84.5833 383.958 83.6198 384.188 82.4219 384.188C81.2448 384.188 80.3203 383.826 79.6484 383.102C78.9818 382.372 78.6484 381.349 78.6484 380.031C78.6484 378.786 79.0156 377.773 79.75 376.992C80.4896 376.206 81.4062 375.812 82.5 375.812C83.5938 375.812 84.4401 376.164 85.0391 376.867C85.638 377.57 85.9375 378.547 85.9375 379.797V380.492ZM84.1875 379.211C84.1823 378.56 84.0286 378.055 83.7266 377.695C83.4245 377.331 83.0078 377.148 82.4766 377.148C81.9557 377.148 81.513 377.339 81.1484 377.719C80.7891 378.099 80.5677 378.596 80.4844 379.211H84.1875ZM94.7891 384H92.9766V379.492C92.9766 377.997 92.4479 377.25 91.3906 377.25C90.8385 377.25 90.3828 377.458 90.0234 377.875C89.6641 378.286 89.4844 378.807 89.4844 379.438V384H87.6641V376H89.4844V377.328H89.5156C90.1146 376.318 90.9792 375.812 92.1094 375.812C92.9792 375.812 93.6432 376.096 94.1016 376.664C94.5599 377.227 94.7891 378.042 94.7891 379.109V384ZM101.227 383.914C100.872 384.091 100.406 384.18 99.8281 384.18C98.276 384.18 97.5 383.435 97.5 381.945V377.422H96.1641V376H97.5V374.148L99.3125 373.633V376H101.227V377.422H99.3125V381.422C99.3125 381.896 99.3984 382.234 99.5703 382.438C99.7422 382.641 100.029 382.742 100.43 382.742C100.737 382.742 101.003 382.654 101.227 382.477V383.914ZM109.039 382.844H109.008V384H107.195V372.156H109.008V377.406H109.039C109.659 376.344 110.565 375.812 111.758 375.812C112.768 375.812 113.557 376.172 114.125 376.891C114.698 377.604 114.984 378.562 114.984 379.766C114.984 381.104 114.664 382.177 114.023 382.984C113.383 383.786 112.508 384.188 111.398 384.188C110.357 384.188 109.57 383.74 109.039 382.844ZM108.992 379.664V380.656C108.992 381.24 109.177 381.734 109.547 382.141C109.922 382.547 110.396 382.75 110.969 382.75C111.641 382.75 112.167 382.49 112.547 381.969C112.932 381.443 113.125 380.711 113.125 379.773C113.125 378.987 112.945 378.372 112.586 377.93C112.232 377.482 111.75 377.258 111.141 377.258C110.495 377.258 109.974 377.487 109.578 377.945C109.188 378.404 108.992 378.977 108.992 379.664ZM123.812 384H122V382.734H121.969C121.443 383.703 120.625 384.188 119.516 384.188C117.625 384.188 116.68 383.052 116.68 380.781V376H118.492V380.594C118.492 382.031 119.047 382.75 120.156 382.75C120.693 382.75 121.133 382.552 121.477 382.156C121.826 381.76 122 381.242 122 380.602V376H123.812V384ZM127.094 374.32C126.797 374.32 126.542 374.224 126.328 374.031C126.12 373.839 126.016 373.594 126.016 373.297C126.016 373 126.12 372.753 126.328 372.555C126.542 372.357 126.797 372.258 127.094 372.258C127.401 372.258 127.661 372.357 127.875 372.555C128.089 372.753 128.195 373 128.195 373.297C128.195 373.578 128.089 373.82 127.875 374.023C127.661 374.221 127.401 374.32 127.094 374.32ZM127.992 384H126.18V376H127.992V384ZM132.188 384H130.367V372.156H132.188V384ZM141.828 384H140.016V382.641H139.984C139.401 383.672 138.503 384.188 137.289 384.188C136.305 384.188 135.516 383.831 134.922 383.117C134.333 382.398 134.039 381.422 134.039 380.188C134.039 378.865 134.365 377.805 135.016 377.008C135.672 376.211 136.544 375.812 137.633 375.812C138.711 375.812 139.495 376.245 139.984 377.109H140.016V372.156H141.828V384ZM140.039 380.344V379.297C140.039 378.729 139.854 378.247 139.484 377.852C139.115 377.456 138.643 377.258 138.07 377.258C137.393 377.258 136.859 377.51 136.469 378.016C136.083 378.521 135.891 379.221 135.891 380.117C135.891 380.93 136.076 381.573 136.445 382.047C136.82 382.516 137.323 382.75 137.953 382.75C138.573 382.75 139.076 382.523 139.461 382.07C139.846 381.612 140.039 381.036 140.039 380.344Z" fill="#242424"/>
<path d="M123 297H87C82.5817 297 79 300.582 79 305V339C79 343.418 82.5817 347 87 347H123C127.418 347 131 343.418 131 339V305C131 300.582 127.418 297 123 297Z" fill="#63BA90"/>
<path d="M73 297H56C53.2386 297 51 299.239 51 302V342C51 344.761 53.2386 347 56 347H73C75.7614 347 78 344.761 78 342V302C78 299.239 75.7614 297 73 297Z" fill="#F7A341"/>
<path d="M123 268H59C54.5817 268 51 271.582 51 276V287C51 291.418 54.5817 295 59 295H123C127.418 295 131 291.418 131 287V276C131 271.582 127.418 268 123 268Z" fill="#619EE4"/>
<path d="M121.917 268.25H60.0833C55.2048 268.25 51.25 272.205 51.25 277.083V338.917C51.25 343.795 55.2048 347.75 60.0833 347.75H121.917C126.795 347.75 130.75 343.795 130.75 338.917V277.083C130.75 272.205 126.795 268.25 121.917 268.25Z" stroke="#242424" stroke-width="8.33333" stroke-linecap="round" stroke-linejoin="round"/>
<path d="M51.25 294.75H130.75" stroke="#242424" stroke-width="8.33333" stroke-linecap="round" stroke-linejoin="round"/>
<path d="M77.75 347.75V294.75" stroke="#242424" stroke-width="8.33333" stroke-linecap="round" stroke-linejoin="round"/>
<path d="M593.5 0.5H0.5V644.5H593.5V0.5Z" stroke="#D9D9D9"/>
<g clip-path="url(#clip1_605_448)">
<path d="M593.5 0.5H0.5V644.5H593.5V0.5Z" fill="white"/>
<path d="M182.333 540.5V532.167C182.333 527.746 180.577 523.507 177.452 520.382C174.326 517.256 170.087 515.5 165.667 515.5H132.333C127.913 515.5 123.674 517.256 120.548 520.382C117.422 523.507 115.667 527.746 115.667 532.167V540.5" stroke="#242424" stroke-width="8.33333" stroke-linecap="round" stroke-linejoin="round"/>
<path d="M149 498.833C158.205 498.833 165.667 491.371 165.667 482.167C165.667 472.962 158.205 465.5 149 465.5C139.795 465.5 132.333 472.962 132.333 482.167C132.333 491.371 139.795 498.833 149 498.833Z" stroke="#242424" stroke-width="8.33333" stroke-linecap="round" stroke-linejoin="round"/>
<path d="M334.333 540.5V532.167C334.333 527.746 332.577 523.507 329.452 520.382C326.326 517.256 322.087 515.5 317.667 515.5H284.333C279.913 515.5 275.674 517.256 272.548 520.382C269.422 523.507 267.667 527.746 267.667 532.167V540.5" stroke="#242424" stroke-width="8.33333" stroke-linecap="round" stroke-linejoin="round"/>
<path d="M301 498.833C310.205 498.833 317.667 491.371 317.667 482.167C317.667 472.962 310.205 465.5 301 465.5C291.795 465.5 284.333 472.962 284.333 482.167C284.333 491.371 291.795 498.833 301 498.833Z" stroke="#242424" stroke-width="8.33333" stroke-linecap="round" stroke-linejoin="round"/>
<path d="M486.333 540.5V532.167C486.333 527.746 484.577 523.507 481.452 520.382C478.326 517.256 474.087 515.5 469.667 515.5H436.333C431.913 515.5 427.674 517.256 424.548 520.382C421.422 523.507 419.667 527.746 419.667 532.167V540.5" stroke="#242424" stroke-width="8.33333" stroke-linecap="round" stroke-linejoin="round"/>
<path d="M453 498.833C462.205 498.833 469.667 491.371 469.667 482.167C469.667 472.962 462.205 465.5 453 465.5C443.795 465.5 436.333 472.962 436.333 482.167C436.333 491.371 443.795 498.833 453 498.833Z" stroke="#242424" stroke-width="8.33333" stroke-linecap="round" stroke-linejoin="round"/>
<path d="M297 374V434" stroke="#3C3C3C" stroke-width="8" stroke-linecap="round" stroke-dasharray="14 12"/>
<path d="M285 377L172 434" stroke="#3C3C3C" stroke-width="8" stroke-linecap="round" stroke-dasharray="14 12"/>
<path d="M309 377L422 437" stroke="#3C3C3C" stroke-width="8" stroke-linecap="round" stroke-dasharray="14 12"/>
<path d="M593.5 0.5H0.5V644.5H593.5V0.5Z" stroke="#D9D9D9"/>
<g clip-path="url(#clip2_605_448)">
<mask id="mask0_605_448" style="mask-type:luminance" maskUnits="userSpaceOnUse" x="0" y="0" width="594" height="645">
<path d="M594 0H0V645H594V0Z" fill="white"/>
</mask>
<g mask="url(#mask0_605_448)">
<path d="M594 0H0V645H594V0Z" fill="white"/>
<g filter="url(#filter0_d_605_448)">
<path d="M594 10H0V49H594V10Z" fill="white"/>
</g>
<path d="M34.5859 35H32.5469L31.5391 32.1484H27.1328L26.1641 35H24.1328L28.3281 23.7969H30.4219L34.5859 35ZM31.0469 30.6328L29.4922 26.1642C29.4453 26.0183 29.3958 25.7839 29.3438 25.4609H29.3125C29.2656 25.7578 29.2135 25.9923 29.1562 26.1642L27.6172 30.6328H31.0469ZM43.2031 35H41.3906V33.6406H41.3594C40.776 34.6719 39.8776 35.1875 38.6641 35.1875C37.6797 35.1875 36.8906 34.8307 36.2969 34.1172C35.7083 33.3984 35.4141 32.4219 35.4141 31.1875C35.4141 29.8646 35.7396 28.8047 36.3906 28.0078C37.0469 27.2109 37.9193 26.8125 39.0078 26.8125C40.0859 26.8125 40.8698 27.2448 41.3594 28.1094H41.3906V23.1562H43.2031V35ZM41.4141 31.3438V30.2969C41.4141 29.7292 41.2292 29.2475 40.8594 28.8517C40.4896 28.4558 40.0182 28.2578 39.4453 28.2578C38.7682 28.2578 38.2344 28.5104 37.8438 29.0156C37.4583 29.5208 37.2656 30.2215 37.2656 31.1173C37.2656 31.9298 37.4505 32.573 37.8203 33.047C38.1953 33.5157 38.6979 33.75 39.3281 33.75C39.9479 33.75 40.4505 33.5235 40.8359 33.0704C41.2214 32.6121 41.4141 32.0365 41.4141 31.3438ZM57.5312 35H55.7188V30.6406C55.7188 29.8021 55.599 29.1953 55.3594 28.8203C55.125 28.4453 54.7266 28.2578 54.1641 28.2578C53.6901 28.2578 53.2865 28.4948 52.9531 28.9688C52.625 29.4427 52.4609 30.0104 52.4609 30.6719V35H50.6406V30.4923C50.6406 29.0027 50.1146 28.2578 49.0625 28.2578C48.5729 28.2578 48.1693 28.4819 47.8516 28.9298C47.5391 29.3777 47.3828 29.9583 47.3828 30.6719V35H45.5703V27H47.3828V28.2656H47.4141C47.9922 27.2969 48.8333 26.8125 49.9375 26.8125C50.4896 26.8125 50.9714 26.9661 51.3828 27.2734C51.7995 27.5755 52.0833 27.974 52.2344 28.4688C52.8281 27.3646 53.7135 26.8125 54.8906 26.8125C56.651 26.8125 57.5312 27.8984 57.5312 30.0703V35ZM60.6562 25.3203C60.3594 25.3203 60.1042 25.2241 59.8906 25.0312C59.6823 24.8386 59.5781 24.5938 59.5781 24.2969C59.5781 24 59.6823 23.7527 59.8906 23.5548C60.1042 23.3569 60.3594 23.2578 60.6562 23.2578C60.9635 23.2578 61.224 23.3569 61.4375 23.5548C61.651 23.7527 61.7578 24 61.7578 24.2969C61.7578 24.5781 61.651 24.8203 61.4375 25.0234C61.224 25.2214 60.9635 25.3203 60.6562 25.3203ZM61.5547 35H59.7422V27H61.5547V35ZM71.0547 35H69.2422V30.4923C69.2422 28.9975 68.7135 28.25 67.6562 28.25C67.1042 28.25 66.6484 28.4583 66.2891 28.875C65.9297 29.2865 65.75 29.8073 65.75 30.4375V35H63.9297V27H65.75V28.3281H65.7812C66.3802 27.3177 67.2448 26.8125 68.375 26.8125C69.2448 26.8125 69.9089 27.0965 70.3672 27.6642C70.8255 28.2267 71.0547 29.0417 71.0547 30.1094V35Z" fill="black"/>
<path d="M179.36 146.531C178.532 146.969 177.5 147.188 176.266 147.188C174.672 147.188 173.396 146.674 172.438 145.648C171.48 144.622 171 143.276 171 141.609C171 139.818 171.539 138.37 172.618 137.266C173.696 136.161 175.063 135.609 176.719 135.609C177.782 135.609 178.662 135.763 179.36 136.07V137.469C178.558 137.021 177.672 136.797 176.704 136.797C175.417 136.797 174.373 137.227 173.571 138.086C172.774 138.945 172.375 140.094 172.375 141.531C172.375 142.896 172.748 143.984 173.493 144.797C174.243 145.604 175.224 146.008 176.438 146.008C177.563 146.008 178.537 145.758 179.36 145.258V146.531ZM187.196 147H185.914V145.75H185.883C185.326 146.708 184.506 147.188 183.422 147.188C182.625 147.188 182 146.977 181.547 146.555C181.099 146.133 180.875 145.573 180.875 144.875C180.875 143.38 181.756 142.51 183.516 142.266L185.914 141.93C185.914 140.57 185.365 139.891 184.266 139.891C183.302 139.891 182.433 140.219 181.657 140.875V139.562C182.443 139.062 183.349 138.812 184.375 138.812C186.256 138.812 187.196 139.807 187.196 141.797V147ZM185.914 142.953L183.985 143.219C183.391 143.302 182.943 143.451 182.641 143.664C182.339 143.872 182.188 144.245 182.188 144.781C182.188 145.172 182.326 145.492 182.602 145.742C182.883 145.987 183.256 146.109 183.719 146.109C184.355 146.109 184.878 145.888 185.289 145.445C185.706 144.997 185.914 144.432 185.914 143.75V142.953ZM196.25 147H194.969V142.438C194.969 140.74 194.349 139.891 193.11 139.891C192.469 139.891 191.938 140.133 191.516 140.617C191.099 141.096 190.891 141.703 190.891 142.438V147H189.61V139H190.891V140.328H190.922C191.526 139.318 192.401 138.812 193.547 138.812C194.422 138.812 195.092 139.096 195.555 139.664C196.019 140.227 196.25 141.042 196.25 142.109V147ZM211.563 135.797L207.414 147H205.969L201.907 135.797H203.368L206.469 144.68C206.568 144.966 206.644 145.297 206.696 145.672H206.727C206.769 145.359 206.855 145.023 206.985 144.664L210.149 135.797H211.563ZM213.657 136.969C213.427 136.969 213.232 136.891 213.071 136.734C212.909 136.578 212.828 136.38 212.828 136.141C212.828 135.901 212.909 135.703 213.071 135.547C213.232 135.385 213.427 135.305 213.657 135.305C213.891 135.305 214.089 135.385 214.25 135.547C214.417 135.703 214.5 135.901 214.5 136.141C214.5 136.37 214.417 136.565 214.25 136.727C214.089 136.888 213.891 136.969 213.657 136.969ZM214.282 147H213V139H214.282V147ZM223.305 143.32H217.657C217.677 144.211 217.917 144.898 218.375 145.383C218.834 145.867 219.464 146.109 220.266 146.109C221.167 146.109 221.995 145.812 222.75 145.219V146.422C222.047 146.932 221.118 147.188 219.961 147.188C218.831 147.188 217.943 146.826 217.297 146.102C216.651 145.372 216.328 144.349 216.328 143.031C216.328 141.786 216.68 140.773 217.383 139.992C218.092 139.206 218.969 138.812 220.016 138.812C221.063 138.812 221.873 139.151 222.446 139.828C223.019 140.505 223.305 141.445 223.305 142.648V143.32ZM221.993 142.234C221.987 141.495 221.808 140.919 221.454 140.508C221.105 140.096 220.618 139.891 219.993 139.891C219.388 139.891 218.875 140.107 218.454 140.539C218.032 140.971 217.771 141.536 217.672 142.234H221.993ZM235.328 139L232.93 147H231.602L229.954 141.273C229.891 141.055 229.849 140.807 229.828 140.531H229.797C229.782 140.719 229.727 140.961 229.633 141.258L227.844 147H226.563L224.141 139H225.485L227.141 145.016C227.193 145.198 227.23 145.438 227.25 145.734H227.313C227.328 145.505 227.375 145.26 227.454 145L229.297 139H230.469L232.125 145.031C232.177 145.224 232.217 145.464 232.243 145.75H232.305C232.315 145.547 232.36 145.307 232.438 145.031L234.063 139H235.328Z" fill="black"/>
<path d="M278.36 146.531C277.532 146.969 276.5 147.188 275.266 147.188C273.672 147.188 272.396 146.674 271.438 145.648C270.48 144.622 270 143.276 270 141.609C270 139.818 270.539 138.37 271.618 137.266C272.696 136.161 274.063 135.609 275.719 135.609C276.782 135.609 277.662 135.763 278.36 136.07V137.469C277.558 137.021 276.672 136.797 275.704 136.797C274.417 136.797 273.373 137.227 272.571 138.086C271.774 138.945 271.375 140.094 271.375 141.531C271.375 142.896 271.748 143.984 272.493 144.797C273.243 145.604 274.224 146.008 275.438 146.008C276.563 146.008 277.537 145.758 278.36 145.258V146.531ZM286.196 147H284.914V145.75H284.883C284.326 146.708 283.506 147.188 282.422 147.188C281.625 147.188 281 146.977 280.547 146.555C280.099 146.133 279.875 145.573 279.875 144.875C279.875 143.38 280.756 142.51 282.516 142.266L284.914 141.93C284.914 140.57 284.365 139.891 283.266 139.891C282.302 139.891 281.433 140.219 280.657 140.875V139.562C281.443 139.062 282.349 138.812 283.375 138.812C285.256 138.812 286.196 139.807 286.196 141.797V147ZM284.914 142.953L282.985 143.219C282.391 143.302 281.943 143.451 281.641 143.664C281.339 143.872 281.188 144.245 281.188 144.781C281.188 145.172 281.326 145.492 281.602 145.742C281.883 145.987 282.256 146.109 282.719 146.109C283.355 146.109 283.878 145.888 284.289 145.445C284.706 144.997 284.914 144.432 284.914 143.75V142.953ZM295.25 147H293.969V142.438C293.969 140.74 293.349 139.891 292.11 139.891C291.469 139.891 290.938 140.133 290.516 140.617C290.099 141.096 289.891 141.703 289.891 142.438V147H288.61V139H289.891V140.328H289.922C290.526 139.318 291.401 138.812 292.547 138.812C293.422 138.812 294.092 139.096 294.555 139.664C295.019 140.227 295.25 141.042 295.25 142.109V147ZM308.172 147H302.235V135.797H307.922V136.984H303.547V140.711H307.594V141.891H303.547V145.812H308.172V147ZM316 139L313.313 143.047L315.954 147H314.461L312.891 144.406C312.792 144.245 312.675 144.042 312.539 143.797H312.508C312.482 143.844 312.36 144.047 312.141 144.406L310.539 147H309.063L311.789 143.078L309.18 139H310.672L312.219 141.734C312.334 141.938 312.446 142.146 312.555 142.359H312.586L314.586 139H316ZM318.813 145.844H318.782V150.68H317.5V139H318.782V140.406H318.813C319.443 139.344 320.365 138.812 321.578 138.812C322.61 138.812 323.414 139.172 323.993 139.891C324.571 140.604 324.86 141.562 324.86 142.766C324.86 144.104 324.534 145.177 323.883 145.984C323.232 146.786 322.342 147.188 321.211 147.188C320.175 147.188 319.375 146.74 318.813 145.844ZM318.782 142.617V143.734C318.782 144.396 318.995 144.958 319.422 145.422C319.855 145.88 320.401 146.109 321.063 146.109C321.839 146.109 322.446 145.812 322.883 145.219C323.326 144.625 323.547 143.799 323.547 142.742C323.547 141.852 323.342 141.154 322.93 140.648C322.519 140.143 321.961 139.891 321.258 139.891C320.513 139.891 319.914 140.151 319.461 140.672C319.008 141.188 318.782 141.836 318.782 142.617ZM330.25 147.188C329.068 147.188 328.123 146.815 327.414 146.07C326.711 145.32 326.36 144.328 326.36 143.094C326.36 141.75 326.727 140.701 327.461 139.945C328.196 139.19 329.188 138.812 330.438 138.812C331.631 138.812 332.56 139.18 333.227 139.914C333.899 140.648 334.235 141.667 334.235 142.969C334.235 144.245 333.873 145.268 333.149 146.039C332.43 146.805 331.464 147.188 330.25 147.188ZM330.344 139.891C329.521 139.891 328.87 140.172 328.391 140.734C327.912 141.292 327.672 142.062 327.672 143.047C327.672 143.995 327.914 144.742 328.399 145.289C328.883 145.836 329.532 146.109 330.344 146.109C331.172 146.109 331.808 145.841 332.25 145.305C332.698 144.768 332.922 144.005 332.922 143.016C332.922 142.016 332.698 141.245 332.25 140.703C331.808 140.161 331.172 139.891 330.344 139.891ZM340.454 140.297C340.23 140.125 339.907 140.039 339.485 140.039C338.938 140.039 338.48 140.297 338.11 140.812C337.745 141.328 337.563 142.031 337.563 142.922V147H336.282V139H337.563V140.648H337.594C337.776 140.086 338.055 139.648 338.43 139.336C338.805 139.018 339.224 138.859 339.688 138.859C340.021 138.859 340.276 138.896 340.454 138.969V140.297ZM345.555 146.922C345.253 147.089 344.855 147.172 344.36 147.172C342.959 147.172 342.258 146.391 342.258 144.828V140.094H340.883V139H342.258V137.047L343.539 136.633V139H345.555V140.094H343.539V144.602C343.539 145.138 343.631 145.521 343.813 145.75C343.995 145.979 344.297 146.094 344.719 146.094C345.042 146.094 345.321 146.005 345.555 145.828V146.922Z" fill="black"/>
<path d="M389.36 146.531C388.532 146.969 387.5 147.188 386.266 147.188C384.672 147.188 383.396 146.674 382.438 145.648C381.48 144.622 381 143.276 381 141.609C381 139.818 381.539 138.37 382.618 137.266C383.696 136.161 385.063 135.609 386.719 135.609C387.782 135.609 388.662 135.763 389.36 136.07V137.469C388.558 137.021 387.672 136.797 386.704 136.797C385.417 136.797 384.373 137.227 383.571 138.086C382.774 138.945 382.375 140.094 382.375 141.531C382.375 142.896 382.748 143.984 383.493 144.797C384.243 145.604 385.224 146.008 386.438 146.008C387.563 146.008 388.537 145.758 389.36 145.258V146.531ZM397.196 147H395.914V145.75H395.883C395.326 146.708 394.506 147.188 393.422 147.188C392.625 147.188 392 146.977 391.547 146.555C391.099 146.133 390.875 145.573 390.875 144.875C390.875 143.38 391.756 142.51 393.516 142.266L395.914 141.93C395.914 140.57 395.365 139.891 394.266 139.891C393.302 139.891 392.433 140.219 391.657 140.875V139.562C392.443 139.062 393.349 138.812 394.375 138.812C396.256 138.812 397.196 139.807 397.196 141.797V147ZM395.914 142.953L393.985 143.219C393.391 143.302 392.943 143.451 392.641 143.664C392.339 143.872 392.188 144.245 392.188 144.781C392.188 145.172 392.326 145.492 392.602 145.742C392.883 145.987 393.256 146.109 393.719 146.109C394.355 146.109 394.878 145.888 395.289 145.445C395.706 144.997 395.914 144.432 395.914 143.75V142.953ZM406.25 147H404.969V142.438C404.969 140.74 404.349 139.891 403.11 139.891C402.469 139.891 401.938 140.133 401.516 140.617C401.099 141.096 400.891 141.703 400.891 142.438V147H399.61V139H400.891V140.328H400.922C401.526 139.318 402.401 138.812 403.547 138.812C404.422 138.812 405.092 139.096 405.555 139.664C406.019 140.227 406.25 141.042 406.25 142.109V147ZM419.172 147H413.235V135.797H418.922V136.984H414.547V140.711H418.594V141.891H414.547V145.812H419.172V147ZM427.985 147H426.704V145.641H426.672C426.078 146.672 425.162 147.188 423.922 147.188C422.917 147.188 422.112 146.831 421.508 146.117C420.909 145.398 420.61 144.422 420.61 143.188C420.61 141.865 420.943 140.805 421.61 140.008C422.276 139.211 423.164 138.812 424.274 138.812C425.373 138.812 426.172 139.245 426.672 140.109H426.704V135.156H427.985V147ZM426.704 143.383V142.203C426.704 141.557 426.49 141.01 426.063 140.562C425.636 140.115 425.094 139.891 424.438 139.891C423.657 139.891 423.042 140.177 422.594 140.75C422.146 141.323 421.922 142.115 421.922 143.125C421.922 144.047 422.136 144.776 422.563 145.312C422.995 145.844 423.573 146.109 424.297 146.109C425.011 146.109 425.589 145.852 426.032 145.336C426.48 144.82 426.704 144.169 426.704 143.383ZM431.235 136.969C431.006 136.969 430.81 136.891 430.649 136.734C430.487 136.578 430.407 136.38 430.407 136.141C430.407 135.901 430.487 135.703 430.649 135.547C430.81 135.385 431.006 135.305 431.235 135.305C431.469 135.305 431.667 135.385 431.828 135.547C431.995 135.703 432.078 135.901 432.078 136.141C432.078 136.37 431.995 136.565 431.828 136.727C431.667 136.888 431.469 136.969 431.235 136.969ZM431.86 147H430.578V139H431.86V147ZM438.164 146.922C437.862 147.089 437.464 147.172 436.969 147.172C435.568 147.172 434.868 146.391 434.868 144.828V140.094H433.493V139H434.868V137.047L436.149 136.633V139H438.164V140.094H436.149V144.602C436.149 145.138 436.24 145.521 436.422 145.75C436.605 145.979 436.907 146.094 437.328 146.094C437.651 146.094 437.93 146.005 438.164 145.828V146.922Z" fill="black"/>
<path d="M482.094 146.531C481.266 146.969 480.234 147.188 479 147.188C477.406 147.188 476.13 146.674 475.172 145.648C474.214 144.622 473.734 143.276 473.734 141.609C473.734 139.818 474.273 138.37 475.352 137.266C476.43 136.161 477.797 135.609 479.453 135.609C480.516 135.609 481.396 135.763 482.094 136.07V137.469C481.292 137.021 480.406 136.797 479.438 136.797C478.151 136.797 477.107 137.227 476.305 138.086C475.508 138.945 475.109 140.094 475.109 141.531C475.109 142.896 475.482 143.984 476.227 144.797C476.977 145.604 477.958 146.008 479.172 146.008C480.297 146.008 481.271 145.758 482.094 145.258V146.531ZM489.93 147H488.648V145.75H488.617C488.06 146.708 487.24 147.188 486.156 147.188C485.359 147.188 484.734 146.977 484.281 146.555C483.833 146.133 483.609 145.573 483.609 144.875C483.609 143.38 484.49 142.51 486.25 142.266L488.648 141.93C488.648 140.57 488.099 139.891 487 139.891C486.036 139.891 485.167 140.219 484.391 140.875V139.562C485.177 139.062 486.083 138.812 487.109 138.812C488.99 138.812 489.93 139.807 489.93 141.797V147ZM488.648 142.953L486.719 143.219C486.125 143.302 485.677 143.451 485.375 143.664C485.073 143.872 484.922 144.245 484.922 144.781C484.922 145.172 485.06 145.492 485.336 145.742C485.617 145.987 485.99 146.109 486.453 146.109C487.089 146.109 487.612 145.888 488.023 145.445C488.44 144.997 488.648 144.432 488.648 143.75V142.953ZM498.984 147H497.703V142.438C497.703 140.74 497.083 139.891 495.844 139.891C495.203 139.891 494.672 140.133 494.25 140.617C493.833 141.096 493.625 141.703 493.625 142.438V147H492.344V139H493.625V140.328H493.656C494.26 139.318 495.135 138.812 496.281 138.812C497.156 138.812 497.826 139.096 498.289 139.664C498.753 140.227 498.984 141.042 498.984 142.109V147ZM513.594 146.531C512.766 146.969 511.734 147.188 510.5 147.188C508.906 147.188 507.63 146.674 506.672 145.648C505.714 144.622 505.234 143.276 505.234 141.609C505.234 139.818 505.773 138.37 506.852 137.266C507.93 136.161 509.297 135.609 510.953 135.609C512.016 135.609 512.896 135.763 513.594 136.07V137.469C512.792 137.021 511.906 136.797 510.938 136.797C509.651 136.797 508.607 137.227 507.805 138.086C507.008 138.945 506.609 140.094 506.609 141.531C506.609 142.896 506.982 143.984 507.727 144.797C508.477 145.604 509.458 146.008 510.672 146.008C511.797 146.008 512.771 145.758 513.594 145.258V146.531ZM519.875 140.297C519.651 140.125 519.328 140.039 518.906 140.039C518.359 140.039 517.901 140.297 517.531 140.812C517.167 141.328 516.984 142.031 516.984 142.922V147H515.703V139H516.984V140.648H517.016C517.198 140.086 517.477 139.648 517.852 139.336C518.227 139.018 518.646 138.859 519.109 138.859C519.443 138.859 519.698 138.896 519.875 138.969V140.297ZM527.695 143.32H522.047C522.068 144.211 522.307 144.898 522.766 145.383C523.224 145.867 523.854 146.109 524.656 146.109C525.557 146.109 526.385 145.812 527.141 145.219V146.422C526.438 146.932 525.508 147.188 524.352 147.188C523.221 147.188 522.333 146.826 521.688 146.102C521.042 145.372 520.719 144.349 520.719 143.031C520.719 141.786 521.07 140.773 521.773 139.992C522.482 139.206 523.359 138.812 524.406 138.812C525.453 138.812 526.263 139.151 526.836 139.828C527.409 140.505 527.695 141.445 527.695 142.648V143.32ZM526.383 142.234C526.378 141.495 526.198 140.919 525.844 140.508C525.495 140.096 525.008 139.891 524.383 139.891C523.779 139.891 523.266 140.107 522.844 140.539C522.422 140.971 522.161 141.536 522.062 142.234H526.383ZM535.367 147H534.086V145.75H534.055C533.497 146.708 532.677 147.188 531.594 147.188C530.797 147.188 530.172 146.977 529.719 146.555C529.271 146.133 529.047 145.573 529.047 144.875C529.047 143.38 529.927 142.51 531.688 142.266L534.086 141.93C534.086 140.57 533.536 139.891 532.438 139.891C531.474 139.891 530.604 140.219 529.828 140.875V139.562C530.615 139.062 531.521 138.812 532.547 138.812C534.427 138.812 535.367 139.807 535.367 141.797V147ZM534.086 142.953L532.156 143.219C531.562 143.302 531.115 143.451 530.812 143.664C530.51 143.872 530.359 144.245 530.359 144.781C530.359 145.172 530.497 145.492 530.773 145.742C531.055 145.987 531.427 146.109 531.891 146.109C532.526 146.109 533.049 145.888 533.461 145.445C533.878 144.997 534.086 144.432 534.086 143.75V142.953ZM541.492 146.922C541.19 147.089 540.792 147.172 540.297 147.172C538.896 147.172 538.195 146.391 538.195 144.828V140.094H536.82V139H538.195V137.047L539.477 136.633V139H541.492V140.094H539.477V144.602C539.477 145.138 539.568 145.521 539.75 145.75C539.932 145.979 540.234 146.094 540.656 146.094C540.979 146.094 541.258 146.005 541.492 145.828V146.922ZM549.633 143.32H543.984C544.005 144.211 544.245 144.898 544.703 145.383C545.161 145.867 545.792 146.109 546.594 146.109C547.495 146.109 548.323 145.812 549.078 145.219V146.422C548.375 146.932 547.445 147.188 546.289 147.188C545.159 147.188 544.271 146.826 543.625 146.102C542.979 145.372 542.656 144.349 542.656 143.031C542.656 141.786 543.008 140.773 543.711 139.992C544.419 139.206 545.297 138.812 546.344 138.812C547.391 138.812 548.201 139.151 548.773 139.828C549.346 140.505 549.633 141.445 549.633 142.648V143.32ZM548.32 142.234C548.315 141.495 548.135 140.919 547.781 140.508C547.432 140.096 546.945 139.891 546.32 139.891C545.716 139.891 545.203 140.107 544.781 140.539C544.359 140.971 544.099 141.536 544 142.234H548.32Z" fill="black"/>
<path d="M148 122V622" stroke="#ECECEC"/>
<path d="M45.5 147H43.9375L42.0625 143.859C41.8906 143.568 41.724 143.32 41.5625 143.117C41.401 142.909 41.2344 142.74 41.0625 142.609C40.8958 142.479 40.7135 142.385 40.5156 142.328C40.3229 142.266 40.1042 142.234 39.8594 142.234H38.7812V147H37.4688V135.797H40.8125C41.3021 135.797 41.7526 135.859 42.1641 135.984C42.5807 136.104 42.9401 136.289 43.2422 136.539C43.5495 136.789 43.7891 137.102 43.9609 137.477C44.1328 137.846 44.2188 138.281 44.2188 138.781C44.2188 139.172 44.1589 139.531 44.0391 139.859C43.9245 140.182 43.7578 140.471 43.5391 140.727C43.3255 140.982 43.0651 141.201 42.7578 141.383C42.4557 141.56 42.1146 141.698 41.7344 141.797V141.828C41.9219 141.911 42.0833 142.008 42.2188 142.117C42.3594 142.221 42.4922 142.346 42.6172 142.492C42.7422 142.638 42.8646 142.805 42.9844 142.992C43.1094 143.174 43.2474 143.388 43.3984 143.633L45.5 147ZM38.7812 136.984V141.047H40.5625C40.8906 141.047 41.1927 140.997 41.4688 140.898C41.75 140.799 41.9922 140.659 42.1953 140.477C42.3984 140.289 42.5573 140.062 42.6719 139.797C42.7865 139.526 42.8438 139.224 42.8438 138.891C42.8438 138.292 42.6484 137.826 42.2578 137.492C41.8724 137.154 41.3125 136.984 40.5781 136.984H38.7812ZM49.75 147.188C48.5677 147.188 47.6224 146.815 46.9141 146.07C46.2109 145.32 45.8594 144.328 45.8594 143.094C45.8594 141.75 46.2266 140.701 46.9609 139.945C47.6953 139.19 48.6875 138.812 49.9375 138.812C51.1302 138.812 52.0599 139.18 52.7266 139.914C53.3984 140.648 53.7344 141.667 53.7344 142.969C53.7344 144.245 53.3724 145.268 52.6484 146.039C51.9297 146.805 50.9635 147.188 49.75 147.188ZM49.8438 139.891C49.0208 139.891 48.3698 140.172 47.8906 140.734C47.4115 141.292 47.1719 142.062 47.1719 143.047C47.1719 143.995 47.4141 144.742 47.8984 145.289C48.3828 145.836 49.0312 146.109 49.8438 146.109C50.6719 146.109 51.3073 145.841 51.75 145.305C52.1979 144.768 52.4219 144.005 52.4219 143.016C52.4219 142.016 52.1979 141.245 51.75 140.703C51.3073 140.161 50.6719 139.891 49.8438 139.891ZM57.0625 147H55.7812V135.156H57.0625V147ZM66.0859 143.32H60.4375C60.4583 144.211 60.6979 144.898 61.1562 145.383C61.6146 145.867 62.2448 146.109 63.0469 146.109C63.9479 146.109 64.776 145.812 65.5312 145.219V146.422C64.8281 146.932 63.8984 147.188 62.7422 147.188C61.612 147.188 60.724 146.826 60.0781 146.102C59.4323 145.372 59.1094 144.349 59.1094 143.031C59.1094 141.786 59.4609 140.773 60.1641 139.992C60.8724 139.206 61.75 138.812 62.7969 138.812C63.8438 138.812 64.6536 139.151 65.2266 139.828C65.7995 140.505 66.0859 141.445 66.0859 142.648V143.32ZM64.7734 142.234C64.7682 141.495 64.5885 140.919 64.2344 140.508C63.8854 140.096 63.3984 139.891 62.7734 139.891C62.1693 139.891 61.6562 140.107 61.2344 140.539C60.8125 140.971 60.5521 141.536 60.4531 142.234H64.7734ZM67.5469 146.711V145.336C68.2448 145.852 69.013 146.109 69.8516 146.109C70.9766 146.109 71.5391 145.734 71.5391 144.984C71.5391 144.771 71.4896 144.591 71.3906 144.445C71.2969 144.294 71.1667 144.161 71 144.047C70.8385 143.932 70.6458 143.831 70.4219 143.742C70.2031 143.648 69.9661 143.552 69.7109 143.453C69.3568 143.312 69.0443 143.172 68.7734 143.031C68.5078 142.885 68.2839 142.724 68.1016 142.547C67.9245 142.365 67.7891 142.159 67.6953 141.93C67.6068 141.701 67.5625 141.432 67.5625 141.125C67.5625 140.75 67.6484 140.419 67.8203 140.133C67.9922 139.841 68.2214 139.599 68.5078 139.406C68.7943 139.208 69.1198 139.06 69.4844 138.961C69.8542 138.862 70.2344 138.812 70.625 138.812C71.3177 138.812 71.9375 138.932 72.4844 139.172V140.469C71.8958 140.083 71.2188 139.891 70.4531 139.891C70.2135 139.891 69.9974 139.919 69.8047 139.977C69.612 140.029 69.4453 140.104 69.3047 140.203C69.1693 140.302 69.0625 140.422 68.9844 140.562C68.9115 140.698 68.875 140.849 68.875 141.016C68.875 141.224 68.9115 141.398 68.9844 141.539C69.0625 141.68 69.1745 141.805 69.3203 141.914C69.4661 142.023 69.6432 142.122 69.8516 142.211C70.0599 142.299 70.2969 142.396 70.5625 142.5C70.9167 142.635 71.2344 142.776 71.5156 142.922C71.7969 143.062 72.0365 143.224 72.2344 143.406C72.4323 143.583 72.5833 143.789 72.6875 144.023C72.7969 144.258 72.8516 144.536 72.8516 144.859C72.8516 145.255 72.763 145.599 72.5859 145.891C72.4141 146.182 72.1823 146.424 71.8906 146.617C71.599 146.81 71.263 146.953 70.8828 147.047C70.5026 147.141 70.1042 147.188 69.6875 147.188C68.8646 147.188 68.151 147.029 67.5469 146.711Z" fill="black"/>
<path d="M36 178H566" stroke="#ECECEC"/>
<path d="M36 502H566" stroke="#ECECEC"/>
<path d="M36 285H566" stroke="#ECECEC"/>
<path d="M36 395H566" stroke="#ECECEC"/>
<path d="M359 122V622" stroke="#ECECEC"/>
<path d="M253 121V621" stroke="#ECECEC"/>
<path d="M461 122V622" stroke="#ECECEC"/>
<path d="M31.082 70.2363H28.252V79H27.1035V70.2363H24.2803V69.1973H31.082V70.2363ZM36.7354 75.7803H31.793C31.8112 76.5596 32.0208 77.1611 32.4219 77.585C32.8229 78.0088 33.3743 78.2207 34.0762 78.2207C34.8646 78.2207 35.5892 77.9609 36.25 77.4414V78.4941C35.6348 78.9408 34.8213 79.1641 33.8096 79.1641C32.8206 79.1641 32.0436 78.8473 31.4785 78.2139C30.9134 77.5758 30.6309 76.6803 30.6309 75.5273C30.6309 74.4382 30.9385 73.5518 31.5537 72.8682C32.1735 72.18 32.9414 71.8359 33.8574 71.8359C34.7734 71.8359 35.4821 72.1322 35.9834 72.7246C36.4847 73.3171 36.7354 74.1396 36.7354 75.1924V75.7803ZM35.5869 74.8301C35.5824 74.1829 35.4251 73.6794 35.1152 73.3193C34.8099 72.9593 34.3838 72.7793 33.8369 72.7793C33.3083 72.7793 32.8594 72.9684 32.4902 73.3467C32.1211 73.7249 31.8932 74.2194 31.8066 74.8301H35.5869ZM44.248 79H43.127V75.0078C43.127 73.5221 42.5846 72.7793 41.5 72.7793C40.9395 72.7793 40.4746 72.9912 40.1055 73.415C39.7409 73.8343 39.5586 74.3652 39.5586 75.0078V79H38.4375V72H39.5586V73.1621H39.5859C40.1146 72.278 40.8802 71.8359 41.8828 71.8359C42.6484 71.8359 43.234 72.0843 43.6396 72.5811C44.0452 73.0732 44.248 73.7865 44.248 74.7207V79ZM51.3779 79H50.2568V77.9062H50.2295C49.7419 78.7448 49.0241 79.1641 48.0762 79.1641C47.3789 79.1641 46.832 78.9795 46.4355 78.6104C46.0436 78.2412 45.8477 77.7513 45.8477 77.1406C45.8477 75.8327 46.6178 75.0716 48.1582 74.8574L50.2568 74.5635C50.2568 73.374 49.776 72.7793 48.8145 72.7793C47.9714 72.7793 47.2103 73.0664 46.5312 73.6406V72.4922C47.2194 72.0547 48.0124 71.8359 48.9102 71.8359C50.5553 71.8359 51.3779 72.7064 51.3779 74.4473V79ZM50.2568 75.459L48.5684 75.6914C48.0488 75.7643 47.6569 75.8942 47.3926 76.0811C47.1283 76.2633 46.9961 76.5892 46.9961 77.0586C46.9961 77.4004 47.1169 77.6807 47.3584 77.8994C47.6045 78.1136 47.9303 78.2207 48.3359 78.2207C48.8919 78.2207 49.3499 78.027 49.71 77.6396C50.0745 77.2477 50.2568 76.7533 50.2568 76.1562V75.459ZM59.3008 79H58.1797V75.0078C58.1797 73.5221 57.6374 72.7793 56.5527 72.7793C55.9922 72.7793 55.5273 72.9912 55.1582 73.415C54.7936 73.8343 54.6113 74.3652 54.6113 75.0078V79H53.4902V72H54.6113V73.1621H54.6387C55.1673 72.278 55.9329 71.8359 56.9355 71.8359C57.7012 71.8359 58.2868 72.0843 58.6924 72.5811C59.098 73.0732 59.3008 73.7865 59.3008 74.7207V79ZM64.667 78.9316C64.4027 79.0775 64.054 79.1504 63.6211 79.1504C62.3952 79.1504 61.7822 78.4668 61.7822 77.0996V72.957H60.5791V72H61.7822V70.291L62.9033 69.9287V72H64.667V72.957H62.9033V76.9014C62.9033 77.3708 62.9831 77.7057 63.1426 77.9062C63.3021 78.1068 63.5664 78.207 63.9355 78.207C64.2181 78.207 64.4619 78.1296 64.667 77.9746V78.9316ZM65.7402 78.7471V77.5439C66.3509 77.9951 67.0231 78.2207 67.7568 78.2207C68.7412 78.2207 69.2334 77.8926 69.2334 77.2363C69.2334 77.0495 69.1901 76.8923 69.1035 76.7646C69.0215 76.6325 68.9076 76.5163 68.7617 76.416C68.6204 76.3158 68.4518 76.2269 68.2559 76.1494C68.0645 76.0674 67.8571 75.9831 67.6338 75.8965C67.3239 75.7734 67.0505 75.6504 66.8135 75.5273C66.5811 75.3997 66.3851 75.2585 66.2256 75.1035C66.0706 74.944 65.9521 74.764 65.8701 74.5635C65.7926 74.363 65.7539 74.1283 65.7539 73.8594C65.7539 73.5312 65.8291 73.2419 65.9795 72.9912C66.1299 72.736 66.3304 72.5241 66.5811 72.3555C66.8317 72.1823 67.1165 72.0524 67.4355 71.9658C67.7591 71.8792 68.0918 71.8359 68.4336 71.8359C69.0397 71.8359 69.582 71.9408 70.0605 72.1504V73.2852C69.5456 72.9479 68.9531 72.7793 68.2832 72.7793C68.0736 72.7793 67.8844 72.8044 67.7158 72.8545C67.5472 72.9001 67.4014 72.9661 67.2783 73.0527C67.1598 73.1393 67.0664 73.2441 66.998 73.3672C66.9342 73.4857 66.9023 73.6178 66.9023 73.7637C66.9023 73.946 66.9342 74.0986 66.998 74.2217C67.0664 74.3447 67.1644 74.4541 67.292 74.5498C67.4196 74.6455 67.5745 74.7321 67.7568 74.8096C67.9391 74.887 68.1465 74.9714 68.3789 75.0625C68.6888 75.181 68.9668 75.304 69.2129 75.4316C69.459 75.5547 69.6686 75.696 69.8418 75.8555C70.015 76.0104 70.1471 76.1904 70.2383 76.3955C70.334 76.6006 70.3818 76.8444 70.3818 77.127C70.3818 77.4733 70.3044 77.7741 70.1494 78.0293C69.999 78.2845 69.7962 78.4964 69.541 78.665C69.2858 78.8337 68.9919 78.959 68.6592 79.041C68.3265 79.123 67.9779 79.1641 67.6133 79.1641C66.8932 79.1641 66.2689 79.0251 65.7402 78.7471Z" fill="#0B0B0B"/>
<path d="M105.784 79H103.884L102.318 76.375C102.177 76.1335 102.038 75.9284 101.901 75.7598C101.769 75.5866 101.632 75.4453 101.491 75.3359C101.354 75.2266 101.204 75.1468 101.04 75.0967C100.876 75.0465 100.691 75.0215 100.486 75.0215H99.8301V79H98.21V69.1973H101.437C101.897 69.1973 102.321 69.252 102.708 69.3613C103.095 69.4707 103.433 69.637 103.72 69.8604C104.007 70.0791 104.23 70.3548 104.39 70.6875C104.554 71.0156 104.636 71.4007 104.636 71.8428C104.636 72.1891 104.583 72.5081 104.479 72.7998C104.378 73.0869 104.232 73.3444 104.041 73.5723C103.854 73.7956 103.626 73.987 103.357 74.1465C103.093 74.306 102.795 74.429 102.462 74.5156V74.543C102.64 74.6432 102.795 74.7549 102.927 74.8779C103.059 74.9964 103.184 75.1195 103.303 75.2471C103.421 75.3747 103.537 75.5205 103.651 75.6846C103.77 75.8441 103.9 76.0309 104.041 76.2451L105.784 79ZM99.8301 70.5166V73.7021H101.184C101.434 73.7021 101.664 73.6634 101.874 73.5859C102.088 73.5085 102.273 73.3968 102.428 73.251C102.583 73.1051 102.703 72.9274 102.79 72.7178C102.877 72.5081 102.92 72.2734 102.92 72.0137C102.92 71.5443 102.772 71.1774 102.476 70.9131C102.179 70.6488 101.753 70.5166 101.197 70.5166H99.8301ZM109.476 79.1641C108.396 79.1641 107.532 78.8382 106.885 78.1865C106.242 77.5303 105.921 76.6621 105.921 75.582C105.921 74.4062 106.256 73.488 106.926 72.8271C107.6 72.1663 108.507 71.8359 109.646 71.8359C110.74 71.8359 111.592 72.1572 112.203 72.7998C112.814 73.4424 113.119 74.3333 113.119 75.4727C113.119 76.5892 112.789 77.4847 112.128 78.1592C111.472 78.8291 110.588 79.1641 109.476 79.1641ZM109.551 73.1006C108.931 73.1006 108.441 73.3171 108.081 73.75C107.721 74.1829 107.541 74.7799 107.541 75.541C107.541 76.2747 107.723 76.8535 108.088 77.2773C108.452 77.6966 108.94 77.9062 109.551 77.9062C110.175 77.9062 110.654 77.6989 110.986 77.2842C111.324 76.8695 111.492 76.2793 111.492 75.5137C111.492 74.7435 111.324 74.1488 110.986 73.7295C110.654 73.3102 110.175 73.1006 109.551 73.1006ZM116.332 79H114.739V68.6367H116.332V79ZM124.33 75.9307H119.559C119.577 76.5778 119.775 77.0768 120.153 77.4277C120.536 77.7786 121.06 77.9541 121.726 77.9541C122.473 77.9541 123.159 77.7308 123.783 77.2842V78.5625C123.145 78.9635 122.302 79.1641 121.254 79.1641C120.224 79.1641 119.415 78.8473 118.827 78.2139C118.244 77.5758 117.952 76.6803 117.952 75.5273C117.952 74.4382 118.273 73.5518 118.916 72.8682C119.563 72.18 120.365 71.8359 121.322 71.8359C122.279 71.8359 123.02 72.1436 123.544 72.7588C124.068 73.374 124.33 74.2285 124.33 75.3223V75.9307ZM122.799 74.8096C122.794 74.2399 122.66 73.7979 122.396 73.4834C122.131 73.1644 121.767 73.0049 121.302 73.0049C120.846 73.0049 120.459 73.1712 120.14 73.5039C119.825 73.8366 119.632 74.2718 119.559 74.8096H122.799ZM125.403 78.7812V77.3115C125.996 77.7627 126.65 77.9883 127.365 77.9883C128.322 77.9883 128.801 77.7057 128.801 77.1406C128.801 76.9811 128.76 76.8467 128.678 76.7373C128.596 76.6234 128.484 76.5231 128.343 76.4365C128.206 76.3499 128.042 76.2725 127.851 76.2041C127.664 76.1357 127.454 76.0583 127.222 75.9717C126.935 75.8577 126.675 75.737 126.442 75.6094C126.215 75.4818 126.023 75.3382 125.868 75.1787C125.718 75.0146 125.604 74.8301 125.526 74.625C125.449 74.4199 125.41 74.1807 125.41 73.9072C125.41 73.57 125.49 73.2738 125.649 73.0186C125.809 72.7588 126.023 72.5423 126.292 72.3691C126.561 72.1914 126.866 72.0592 127.208 71.9727C127.55 71.8815 127.903 71.8359 128.268 71.8359C128.915 71.8359 129.493 71.9339 130.004 72.1299V73.5176C129.512 73.1803 128.947 73.0117 128.309 73.0117C128.108 73.0117 127.926 73.0322 127.762 73.0732C127.602 73.1143 127.465 73.1712 127.352 73.2441C127.238 73.3171 127.149 73.4059 127.085 73.5107C127.021 73.611 126.989 73.7227 126.989 73.8457C126.989 73.9961 127.021 74.1237 127.085 74.2285C127.149 74.3333 127.242 74.4268 127.365 74.5088C127.493 74.5863 127.643 74.6592 127.816 74.7275C127.994 74.7913 128.197 74.862 128.425 74.9395C128.726 75.0625 128.994 75.1878 129.231 75.3154C129.473 75.443 129.678 75.5889 129.847 75.7529C130.015 75.9124 130.145 76.0993 130.236 76.3135C130.327 76.5231 130.373 76.7738 130.373 77.0654C130.373 77.4209 130.291 77.7308 130.127 77.9951C129.963 78.2594 129.744 78.4782 129.471 78.6514C129.197 78.8245 128.881 78.9521 128.521 79.0342C128.165 79.1208 127.789 79.1641 127.393 79.1641C126.627 79.1641 125.964 79.0365 125.403 78.7812Z" fill="#275CE6"/>
<path d="M241.082 70.2363H238.252V79H237.104V70.2363H234.28V69.1973H241.082V70.2363ZM248.287 79H247.166V74.9668C247.166 73.5085 246.624 72.7793 245.539 72.7793C244.992 72.7793 244.532 72.9912 244.158 73.415C243.785 73.8343 243.598 74.3743 243.598 75.0352V79H242.477V68.6367H243.598V73.1621H243.625C244.163 72.278 244.928 71.8359 245.922 71.8359C247.499 71.8359 248.287 72.7861 248.287 74.6865V79ZM256.032 75.7803H251.09C251.108 76.5596 251.318 77.1611 251.719 77.585C252.12 78.0088 252.671 78.2207 253.373 78.2207C254.161 78.2207 254.886 77.9609 255.547 77.4414V78.4941C254.932 78.9408 254.118 79.1641 253.106 79.1641C252.118 79.1641 251.34 78.8473 250.775 78.2139C250.21 77.5758 249.928 76.6803 249.928 75.5273C249.928 74.4382 250.235 73.5518 250.851 72.8682C251.47 72.18 252.238 71.8359 253.154 71.8359C254.07 71.8359 254.779 72.1322 255.28 72.7246C255.782 73.3171 256.032 74.1396 256.032 75.1924V75.7803ZM254.884 74.8301C254.879 74.1829 254.722 73.6794 254.412 73.3193C254.107 72.9593 253.681 72.7793 253.134 72.7793C252.605 72.7793 252.156 72.9684 251.787 73.3467C251.418 73.7249 251.19 74.2194 251.104 74.8301H254.884ZM267.674 79H266.553V74.9805C266.553 74.2057 266.432 73.6452 266.19 73.2988C265.953 72.9525 265.552 72.7793 264.987 72.7793C264.509 72.7793 264.101 72.998 263.764 73.4355C263.431 73.873 263.265 74.3971 263.265 75.0078V79H262.144V74.8438C262.144 73.4674 261.613 72.7793 260.551 72.7793C260.059 72.7793 259.653 72.9867 259.334 73.4014C259.015 73.8115 258.855 74.347 258.855 75.0078V79H257.734V72H258.855V73.1074H258.883C259.38 72.2598 260.104 71.8359 261.057 71.8359C261.535 71.8359 261.952 71.9704 262.308 72.2393C262.663 72.5036 262.907 72.8522 263.039 73.2852C263.559 72.319 264.333 71.8359 265.363 71.8359C266.904 71.8359 267.674 72.7861 267.674 74.6865V79ZM275.419 75.7803H270.477C270.495 76.5596 270.704 77.1611 271.105 77.585C271.507 78.0088 272.058 78.2207 272.76 78.2207C273.548 78.2207 274.273 77.9609 274.934 77.4414V78.4941C274.318 78.9408 273.505 79.1641 272.493 79.1641C271.504 79.1641 270.727 78.8473 270.162 78.2139C269.597 77.5758 269.314 76.6803 269.314 75.5273C269.314 74.4382 269.622 73.5518 270.237 72.8682C270.857 72.18 271.625 71.8359 272.541 71.8359C273.457 71.8359 274.166 72.1322 274.667 72.7246C275.168 73.3171 275.419 74.1396 275.419 75.1924V75.7803ZM274.271 74.8301C274.266 74.1829 274.109 73.6794 273.799 73.3193C273.493 72.9593 273.067 72.7793 272.521 72.7793C271.992 72.7793 271.543 72.9684 271.174 73.3467C270.805 73.7249 270.577 74.2194 270.49 74.8301H274.271Z" fill="black"/>
<path d="M155.285 79V69.1973H158.074C158.922 69.1973 159.594 69.4046 160.091 69.8193C160.588 70.234 160.836 70.7741 160.836 71.4395C160.836 71.9954 160.686 72.4785 160.385 72.8887C160.084 73.2988 159.669 73.5905 159.141 73.7637V73.791C159.801 73.8685 160.33 74.1191 160.727 74.543C161.123 74.9622 161.321 75.5091 161.321 76.1836C161.321 77.0221 161.021 77.7012 160.419 78.2207C159.817 78.7402 159.059 79 158.143 79H155.285ZM156.434 70.2363V73.4014H157.609C158.238 73.4014 158.733 73.251 159.093 72.9502C159.453 72.6449 159.633 72.2165 159.633 71.665C159.633 70.7126 159.006 70.2363 157.753 70.2363H156.434ZM156.434 74.4336V77.9609H157.992C158.667 77.9609 159.188 77.8014 159.558 77.4824C159.931 77.1634 160.118 76.7259 160.118 76.1699C160.118 75.0124 159.33 74.4336 157.753 74.4336H156.434ZM166.811 73.1348C166.615 72.9844 166.332 72.9092 165.963 72.9092C165.484 72.9092 165.083 73.1348 164.76 73.5859C164.441 74.0371 164.281 74.6523 164.281 75.4316V79H163.16V72H164.281V73.4424H164.309C164.468 72.9502 164.712 72.5674 165.04 72.2939C165.368 72.016 165.735 71.877 166.141 71.877C166.432 71.877 166.656 71.9089 166.811 71.9727V73.1348ZM173.038 79H171.917V77.9062H171.89C171.402 78.7448 170.684 79.1641 169.736 79.1641C169.039 79.1641 168.492 78.9795 168.096 78.6104C167.704 78.2412 167.508 77.7513 167.508 77.1406C167.508 75.8327 168.278 75.0716 169.818 74.8574L171.917 74.5635C171.917 73.374 171.436 72.7793 170.475 72.7793C169.632 72.7793 168.87 73.0664 168.191 73.6406V72.4922C168.88 72.0547 169.673 71.8359 170.57 71.8359C172.215 71.8359 173.038 72.7064 173.038 74.4473V79ZM171.917 75.459L170.229 75.6914C169.709 75.7643 169.317 75.8942 169.053 76.0811C168.788 76.2633 168.656 76.5892 168.656 77.0586C168.656 77.4004 168.777 77.6807 169.019 77.8994C169.265 78.1136 169.59 78.2207 169.996 78.2207C170.552 78.2207 171.01 78.027 171.37 77.6396C171.735 77.2477 171.917 76.7533 171.917 76.1562V75.459ZM180.961 79H179.84V75.0078C179.84 73.5221 179.298 72.7793 178.213 72.7793C177.652 72.7793 177.188 72.9912 176.818 73.415C176.454 73.8343 176.271 74.3652 176.271 75.0078V79H175.15V72H176.271V73.1621H176.299C176.827 72.278 177.593 71.8359 178.596 71.8359C179.361 71.8359 179.947 72.0843 180.353 72.5811C180.758 73.0732 180.961 73.7865 180.961 74.7207V79ZM189.055 79H187.934V77.8105H187.906C187.387 78.7129 186.585 79.1641 185.5 79.1641C184.62 79.1641 183.916 78.8519 183.388 78.2275C182.864 77.5986 182.602 76.7441 182.602 75.6641C182.602 74.5065 182.893 73.5791 183.477 72.8818C184.06 72.1846 184.837 71.8359 185.808 71.8359C186.769 71.8359 187.469 72.2142 187.906 72.9707H187.934V68.6367H189.055V79ZM187.934 75.835V74.8027C187.934 74.2376 187.747 73.7591 187.373 73.3672C186.999 72.9753 186.525 72.7793 185.951 72.7793C185.268 72.7793 184.73 73.0299 184.338 73.5312C183.946 74.0326 183.75 74.7253 183.75 75.6094C183.75 76.416 183.937 77.054 184.311 77.5234C184.689 77.9883 185.195 78.2207 185.828 78.2207C186.452 78.2207 186.958 77.9951 187.346 77.5439C187.738 77.0928 187.934 76.5231 187.934 75.835ZM191.898 70.2227C191.698 70.2227 191.527 70.1543 191.386 70.0176C191.244 69.8809 191.174 69.7077 191.174 69.498C191.174 69.2884 191.244 69.1152 191.386 68.9785C191.527 68.8372 191.698 68.7666 191.898 68.7666C192.104 68.7666 192.277 68.8372 192.418 68.9785C192.564 69.1152 192.637 69.2884 192.637 69.498C192.637 69.6986 192.564 69.8695 192.418 70.0107C192.277 70.152 192.104 70.2227 191.898 70.2227ZM192.445 79H191.324V72H192.445V79ZM200.525 79H199.404V75.0078C199.404 73.5221 198.862 72.7793 197.777 72.7793C197.217 72.7793 196.752 72.9912 196.383 73.415C196.018 73.8343 195.836 74.3652 195.836 75.0078V79H194.715V72H195.836V73.1621H195.863C196.392 72.278 197.158 71.8359 198.16 71.8359C198.926 71.8359 199.511 72.0843 199.917 72.5811C200.323 73.0732 200.525 73.7865 200.525 74.7207V79ZM208.619 78.4395C208.619 81.0098 207.389 82.2949 204.928 82.2949C204.062 82.2949 203.305 82.1309 202.658 81.8027V80.6816C203.447 81.1191 204.199 81.3379 204.914 81.3379C206.637 81.3379 207.498 80.4219 207.498 78.5898V77.8242H207.471C206.938 78.7174 206.135 79.1641 205.064 79.1641C204.194 79.1641 203.492 78.8542 202.959 78.2344C202.43 77.61 202.166 76.7738 202.166 75.7256C202.166 74.5361 202.451 73.5905 203.021 72.8887C203.595 72.1868 204.379 71.8359 205.372 71.8359C206.315 71.8359 207.015 72.2142 207.471 72.9707H207.498V72H208.619V78.4395ZM207.498 75.835V74.8027C207.498 74.2467 207.309 73.7705 206.931 73.374C206.557 72.9775 206.09 72.7793 205.529 72.7793C204.837 72.7793 204.294 73.0322 203.902 73.5381C203.51 74.0394 203.314 74.7435 203.314 75.6504C203.314 76.4297 203.501 77.054 203.875 77.5234C204.253 77.9883 204.752 78.2207 205.372 78.2207C206.001 78.2207 206.511 77.9974 206.903 77.5508C207.3 77.1042 207.498 76.5322 207.498 75.835Z" fill="black"/>
<path d="M98 86H130" stroke="#275CE6" stroke-width="1.5" stroke-linecap="round"/>
<path d="M45.3854 225.43L41.7555 235.233H40.4908L36.9361 225.43H38.2145L40.9283 233.203C41.0149 233.453 41.081 233.743 41.1266 234.071H41.1539C41.1904 233.797 41.2656 233.504 41.3795 233.189L44.1481 225.43H45.3854ZM47.2174 226.456C47.0169 226.456 46.846 226.387 46.7047 226.251C46.5634 226.114 46.4928 225.941 46.4928 225.731C46.4928 225.521 46.5634 225.348 46.7047 225.212C46.846 225.07 47.0169 225 47.2174 225C47.4225 225 47.5957 225.07 47.7369 225.212C47.8828 225.348 47.9557 225.521 47.9557 225.731C47.9557 225.932 47.8828 226.102 47.7369 226.244C47.5957 226.385 47.4225 226.456 47.2174 226.456ZM47.7643 235.233H46.6432V228.233H47.7643V235.233ZM55.6598 232.013H50.7174C50.7356 232.793 50.9453 233.394 51.3463 233.818C51.7473 234.242 52.2988 234.454 53.0006 234.454C53.789 234.454 54.5136 234.194 55.1744 233.674V234.727C54.5592 235.174 53.7457 235.397 52.734 235.397C51.7451 235.397 50.968 235.08 50.4029 234.447C49.8378 233.809 49.5553 232.913 49.5553 231.76C49.5553 230.671 49.8629 229.785 50.4781 229.101C51.0979 228.413 51.8658 228.069 52.7819 228.069C53.6979 228.069 54.4065 228.365 54.9078 228.958C55.4091 229.55 55.6598 230.373 55.6598 231.425V232.013ZM54.5113 231.063C54.5068 230.416 54.3496 229.912 54.0397 229.552C53.7343 229.192 53.3082 229.012 52.7613 229.012C52.2327 229.012 51.7838 229.201 51.4147 229.58C51.0455 229.958 50.8177 230.452 50.7311 231.063H54.5113ZM66.1803 228.233L64.0817 235.233H62.9195L61.4772 230.222C61.4225 230.031 61.386 229.814 61.3678 229.573H61.3404C61.3268 229.737 61.2789 229.949 61.1969 230.209L59.6315 235.233H58.5104L56.3912 228.233H57.567L59.0162 233.497C59.0618 233.656 59.0937 233.866 59.1119 234.126H59.1666C59.1803 233.925 59.2213 233.711 59.2897 233.483L60.9029 228.233H61.9283L63.3776 233.51C63.4231 233.679 63.4573 233.889 63.4801 234.139H63.5348C63.5439 233.962 63.5826 233.752 63.651 233.51L65.0729 228.233H66.1803ZM73.1051 232.013H68.1627C68.1809 232.793 68.3906 233.394 68.7916 233.818C69.1927 234.242 69.7441 234.454 70.4459 234.454C71.2343 234.454 71.9589 234.194 72.6197 233.674V234.727C72.0045 235.174 71.191 235.397 70.1793 235.397C69.1904 235.397 68.4134 235.08 67.8483 234.447C67.2832 233.809 67.0006 232.913 67.0006 231.76C67.0006 230.671 67.3082 229.785 67.9235 229.101C68.5432 228.413 69.3111 228.069 70.2272 228.069C71.1432 228.069 71.8518 228.365 72.3531 228.958C72.8544 229.55 73.1051 230.373 73.1051 231.425V232.013ZM71.9567 231.063C71.9521 230.416 71.7949 229.912 71.485 229.552C71.1796 229.192 70.7535 229.012 70.2067 229.012C69.678 229.012 69.2291 229.201 68.86 229.58C68.4908 229.958 68.263 230.452 68.1764 231.063H71.9567ZM78.4576 229.368C78.2617 229.217 77.9791 229.142 77.61 229.142C77.1315 229.142 76.7304 229.368 76.4069 229.819C76.0878 230.27 75.9283 230.885 75.9283 231.665V235.233H74.8072V228.233H75.9283V229.675H75.9557C76.1152 229.183 76.359 228.8 76.6871 228.527C77.0152 228.249 77.3821 228.11 77.7877 228.11C78.0794 228.11 78.3027 228.142 78.4576 228.206V229.368Z" fill="black"/>
<path d="M193.813 230.333L199.813 236.333L211.146 225" stroke="#269465" stroke-width="2" stroke-linecap="square"/>
<path d="M522.851 235.376C522.897 235.419 522.934 235.47 522.96 235.528C522.986 235.585 522.999 235.648 523 235.71C523.002 235.773 522.99 235.836 522.966 235.894C522.943 235.953 522.908 236.006 522.863 236.05C522.819 236.095 522.766 236.13 522.707 236.153C522.649 236.177 522.586 236.189 522.523 236.187C522.461 236.186 522.398 236.173 522.341 236.147C522.283 236.121 522.232 236.084 522.189 236.038L516.895 230.745L511.601 236.038C511.512 236.121 511.395 236.166 511.273 236.164C511.152 236.162 511.036 236.113 510.95 236.027C510.864 235.941 510.815 235.825 510.813 235.704C510.811 235.582 510.856 235.465 510.939 235.376L516.232 230.082L510.939 224.788C510.856 224.699 510.811 224.582 510.813 224.46C510.815 224.339 510.864 224.223 510.95 224.137C511.036 224.051 511.152 224.002 511.273 224C511.395 223.998 511.512 224.043 511.601 224.126L516.895 229.419L522.189 224.126C522.278 224.043 522.395 223.998 522.517 224C522.638 224.002 522.754 224.051 522.84 224.137C522.926 224.223 522.975 224.339 522.977 224.46C522.979 224.582 522.934 224.699 522.851 224.788L517.558 230.082L522.851 235.376Z" fill="#E04E56"/>
<path d="M414.851 235.376C414.897 235.419 414.934 235.47 414.96 235.528C414.986 235.585 414.999 235.648 415 235.71C415.002 235.773 414.99 235.836 414.966 235.894C414.943 235.953 414.908 236.006 414.863 236.05C414.819 236.095 414.766 236.13 414.707 236.153C414.649 236.177 414.586 236.189 414.523 236.187C414.461 236.186 414.398 236.173 414.341 236.147C414.283 236.121 414.232 236.084 414.189 236.038L408.895 230.745L403.601 236.038C403.512 236.121 403.395 236.166 403.273 236.164C403.152 236.162 403.036 236.113 402.95 236.027C402.864 235.941 402.815 235.825 402.813 235.704C402.811 235.582 402.856 235.465 402.939 235.376L408.232 230.082L402.939 224.788C402.856 224.699 402.811 224.582 402.813 224.46C402.815 224.339 402.864 224.223 402.95 224.137C403.036 224.051 403.152 224.002 403.273 224C403.395 223.998 403.512 224.043 403.601 224.126L408.895 229.419L414.189 224.126C414.278 224.043 414.395 223.998 414.517 224C414.638 224.002 414.754 224.051 414.84 224.137C414.926 224.223 414.975 224.339 414.977 224.46C414.979 224.582 414.934 224.699 414.851 224.788L409.558 230.082L414.851 235.376Z" fill="#E04E56"/>
<path d="M309.851 235.376C309.897 235.419 309.934 235.47 309.96 235.528C309.986 235.585 309.999 235.648 310 235.71C310.002 235.773 309.99 235.836 309.966 235.894C309.943 235.953 309.908 236.006 309.863 236.05C309.819 236.095 309.766 236.13 309.707 236.153C309.649 236.177 309.586 236.189 309.523 236.187C309.461 236.186 309.398 236.173 309.341 236.147C309.283 236.121 309.232 236.084 309.189 236.038L303.895 230.745L298.601 236.038C298.512 236.121 298.395 236.166 298.273 236.164C298.152 236.162 298.036 236.113 297.95 236.027C297.864 235.941 297.815 235.825 297.813 235.704C297.811 235.582 297.856 235.465 297.939 235.376L303.232 230.082L297.939 224.788C297.856 224.699 297.811 224.582 297.813 224.46C297.815 224.339 297.864 224.223 297.95 224.137C298.036 224.051 298.152 224.002 298.273 224C298.395 223.998 298.512 224.043 298.601 224.126L303.895 229.419L309.189 224.126C309.278 224.043 309.395 223.998 309.517 224C309.638 224.002 309.754 224.051 309.84 224.137C309.926 224.223 309.975 224.339 309.977 224.46C309.979 224.582 309.934 224.699 309.851 224.788L304.558 230.082L309.851 235.376Z" fill="#E04E56"/>
<path d="M42.7125 346.333H37.5172V336.53H42.4937V337.569H38.6656V340.83H42.2066V341.862H38.6656V345.294H42.7125V346.333ZM49.5621 339.333L47.2105 342.874L49.5211 346.333H48.2154L46.8414 344.063C46.7548 343.922 46.6522 343.744 46.5338 343.53H46.5064C46.4836 343.571 46.3765 343.749 46.1851 344.063L44.7838 346.333H43.4918L45.8775 342.901L43.5943 339.333H44.9L46.2535 341.726C46.3537 341.903 46.4517 342.086 46.5474 342.272H46.5748L48.3248 339.333H49.5621ZM52.023 345.321H51.9957V349.553H50.8746V339.333H51.9957V340.563H52.023C52.5744 339.634 53.3811 339.169 54.4429 339.169C55.3453 339.169 56.0494 339.483 56.5552 340.112C57.0611 340.737 57.314 341.575 57.314 342.628C57.314 343.799 57.0292 344.738 56.4595 345.444C55.8899 346.146 55.1106 346.497 54.1216 346.497C53.2147 346.497 52.5152 346.105 52.023 345.321ZM51.9957 342.498V343.476C51.9957 344.054 52.1825 344.547 52.5562 344.952C52.9345 345.353 53.413 345.554 53.9918 345.554C54.6708 345.554 55.2017 345.294 55.5845 344.774C55.9719 344.255 56.1656 343.533 56.1656 342.607C56.1656 341.828 55.9856 341.217 55.6256 340.775C55.2655 340.333 54.7779 340.112 54.1627 340.112C53.511 340.112 52.9869 340.34 52.5904 340.796C52.1939 341.247 51.9957 341.814 51.9957 342.498ZM62.0308 346.497C60.9963 346.497 60.1692 346.171 59.5494 345.52C58.9341 344.863 58.6265 343.995 58.6265 342.915C58.6265 341.739 58.9478 340.821 59.5904 340.16C60.233 339.499 61.1011 339.169 62.1949 339.169C63.2385 339.169 64.052 339.49 64.6353 340.133C65.2232 340.775 65.5172 341.666 65.5172 342.806C65.5172 343.922 65.2004 344.818 64.567 345.492C63.9381 346.162 63.0927 346.497 62.0308 346.497ZM62.1129 340.112C61.3928 340.112 60.8231 340.358 60.4039 340.851C59.9846 341.338 59.775 342.013 59.775 342.874C59.775 343.703 59.9869 344.357 60.4107 344.836C60.8345 345.314 61.4019 345.554 62.1129 345.554C62.8375 345.554 63.3935 345.319 63.7808 344.85C64.1728 344.38 64.3687 343.713 64.3687 342.847C64.3687 341.972 64.1728 341.297 63.7808 340.823C63.3935 340.349 62.8375 340.112 62.1129 340.112ZM70.9586 340.468C70.7626 340.317 70.48 340.242 70.1109 340.242C69.6324 340.242 69.2312 340.468 68.9077 340.919C68.5887 341.37 68.4293 341.985 68.4293 342.765V346.333H67.3082V339.333H68.4293V340.775H68.4566C68.6161 340.283 68.8599 339.9 69.1881 339.627C69.5162 339.349 69.883 339.21 70.2886 339.21C70.5803 339.21 70.8036 339.242 70.9586 339.306V340.468ZM75.4224 346.265C75.1581 346.41 74.8095 346.483 74.3765 346.483C73.1506 346.483 72.5377 345.8 72.5377 344.433V340.29H71.3345V339.333H72.5377V337.624L73.6588 337.262V339.333H75.4224V340.29H73.6588V344.234C73.6588 344.704 73.7385 345.039 73.898 345.239C74.0575 345.44 74.3218 345.54 74.691 345.54C74.9735 345.54 75.2174 345.463 75.4224 345.308V346.265ZM82.5455 343.113H77.6031C77.6213 343.893 77.831 344.494 78.232 344.918C78.633 345.342 79.1844 345.554 79.8862 345.554C80.6746 345.554 81.3993 345.294 82.0601 344.774V345.827C81.4449 346.274 80.6314 346.497 79.6197 346.497C78.6308 346.497 77.8537 346.18 77.2886 345.547C76.7235 344.909 76.441 344.013 76.441 342.86C76.441 341.771 76.7486 340.885 77.3638 340.201C77.9836 339.513 78.7515 339.169 79.6675 339.169C80.5836 339.169 81.2922 339.465 81.7935 340.058C82.2948 340.65 82.5455 341.473 82.5455 342.525V343.113ZM81.397 342.163C81.3925 341.516 81.2353 341.012 80.9254 340.652C80.62 340.292 80.1939 340.112 79.647 340.112C79.1184 340.112 78.6695 340.301 78.3004 340.68C77.9312 341.058 77.7034 341.552 77.6168 342.163H81.397ZM87.898 340.468C87.7021 340.317 87.4195 340.242 87.0504 340.242C86.5718 340.242 86.1707 340.468 85.8471 340.919C85.5281 341.37 85.3687 341.985 85.3687 342.765V346.333H84.2476V339.333H85.3687V340.775H85.3961C85.5556 340.283 85.7994 339.9 86.1275 339.627C86.4556 339.349 86.8225 339.21 87.2281 339.21C87.5198 339.21 87.7431 339.242 87.898 339.306V340.468Z" fill="black"/>
<path d="M522.27 346.709C522.316 346.752 522.353 346.803 522.379 346.861C522.405 346.918 522.418 346.981 522.419 347.043C522.421 347.106 522.409 347.169 522.385 347.227C522.362 347.286 522.327 347.339 522.282 347.383C522.238 347.428 522.185 347.463 522.126 347.486C522.068 347.51 522.005 347.522 521.942 347.52C521.88 347.519 521.817 347.506 521.76 347.48C521.702 347.454 521.651 347.417 521.608 347.371L516.314 342.078L511.02 347.371C510.931 347.454 510.814 347.499 510.692 347.497C510.571 347.495 510.455 347.446 510.369 347.36C510.283 347.274 510.234 347.158 510.232 347.037C510.23 346.915 510.275 346.798 510.358 346.709L515.651 341.415L510.358 336.121C510.275 336.032 510.23 335.915 510.232 335.793C510.234 335.672 510.283 335.556 510.369 335.47C510.455 335.384 510.571 335.335 510.692 335.333C510.814 335.331 510.931 335.376 511.02 335.459L516.314 340.752L521.608 335.459C521.697 335.376 521.814 335.331 521.936 335.333C522.057 335.335 522.173 335.384 522.259 335.47C522.345 335.556 522.394 335.672 522.396 335.793C522.398 335.915 522.353 336.032 522.27 336.121L516.977 341.415L522.27 346.709Z" fill="#E04E56"/>
<path d="M414.851 346.709C414.897 346.752 414.934 346.803 414.96 346.861C414.986 346.918 414.999 346.981 415 347.043C415.002 347.106 414.99 347.169 414.966 347.227C414.943 347.286 414.908 347.339 414.863 347.383C414.819 347.428 414.766 347.463 414.707 347.486C414.649 347.51 414.586 347.522 414.523 347.52C414.461 347.519 414.398 347.506 414.341 347.48C414.283 347.454 414.232 347.417 414.189 347.371L408.895 342.078L403.601 347.371C403.512 347.454 403.395 347.499 403.273 347.497C403.152 347.495 403.036 347.446 402.95 347.36C402.864 347.274 402.815 347.158 402.813 347.037C402.811 346.915 402.856 346.798 402.939 346.709L408.232 341.415L402.939 336.121C402.856 336.032 402.811 335.915 402.813 335.793C402.815 335.672 402.864 335.556 402.95 335.47C403.036 335.384 403.152 335.335 403.273 335.333C403.395 335.331 403.512 335.376 403.601 335.459L408.895 340.752L414.189 335.459C414.278 335.376 414.395 335.331 414.517 335.333C414.638 335.335 414.754 335.384 414.84 335.47C414.926 335.556 414.975 335.672 414.977 335.793C414.979 335.915 414.934 336.032 414.851 336.121L409.558 341.415L414.851 346.709Z" fill="#E04E56"/>
<path d="M193.232 340.666L199.232 346.666L210.565 335.333" stroke="#269465" stroke-width="2" stroke-linecap="square"/>
<path d="M294.553 340.666L300.553 346.666L311.886 335.333" stroke="#269465" stroke-width="2" stroke-linecap="square"/>
<path d="M44.5103 462.143C43.7857 462.526 42.8834 462.717 41.8033 462.717C40.4088 462.717 39.2922 462.268 38.4537 461.37C37.6151 460.473 37.1959 459.295 37.1959 457.836C37.1959 456.268 37.6676 455.002 38.6109 454.035C39.5543 453.069 40.7506 452.586 42.1998 452.586C43.1295 452.586 43.8997 452.721 44.5103 452.99V454.213C43.8085 453.821 43.0338 453.625 42.1861 453.625C41.0605 453.625 40.1467 454.001 39.4449 454.753C38.7476 455.505 38.399 456.51 38.399 457.768C38.399 458.962 38.7248 459.914 39.3765 460.625C40.0328 461.332 40.8918 461.685 41.9537 461.685C42.9381 461.685 43.7903 461.466 44.5103 461.029V462.143ZM49.2818 462.717C48.2473 462.717 47.4202 462.391 46.8004 461.74C46.1851 461.083 45.8775 460.215 45.8775 459.135C45.8775 457.959 46.1988 457.041 46.8414 456.38C47.484 455.719 48.3521 455.389 49.4459 455.389C50.4895 455.389 51.303 455.71 51.8863 456.353C52.4742 456.995 52.7681 457.886 52.7681 459.026C52.7681 460.142 52.4514 461.038 51.8179 461.712C51.189 462.382 50.3437 462.717 49.2818 462.717ZM49.3638 456.332C48.6438 456.332 48.0741 456.578 47.6549 457.071C47.2356 457.558 47.026 458.233 47.026 459.094C47.026 459.923 47.2379 460.577 47.6617 461.056C48.0855 461.534 48.6529 461.774 49.3638 461.774C50.0885 461.774 50.6444 461.539 51.0318 461.07C51.4237 460.6 51.6197 459.933 51.6197 459.067C51.6197 458.192 51.4237 457.517 51.0318 457.043C50.6444 456.569 50.0885 456.332 49.3638 456.332ZM60.3697 462.553H59.2486V458.561C59.2486 457.075 58.7063 456.332 57.6217 456.332C57.0611 456.332 56.5963 456.544 56.2271 456.968C55.8625 457.387 55.6803 457.918 55.6803 458.561V462.553H54.5592V455.553H55.6803V456.715H55.7076C56.2362 455.831 57.0019 455.389 58.0045 455.389C58.7701 455.389 59.3557 455.637 59.7613 456.134C60.1669 456.626 60.3697 457.339 60.3697 458.274V462.553ZM65.7359 462.485C65.4716 462.63 65.123 462.703 64.69 462.703C63.4641 462.703 62.8512 462.02 62.8512 460.653V456.51H61.648V455.553H62.8512V453.844L63.9722 453.482V455.553H65.7359V456.51H63.9722V460.454C63.9722 460.924 64.052 461.259 64.2115 461.459C64.371 461.66 64.6353 461.76 65.0045 461.76C65.287 461.76 65.5308 461.683 65.7359 461.528V462.485ZM70.8834 456.688C70.6874 456.537 70.4049 456.462 70.0357 456.462C69.5572 456.462 69.1562 456.688 68.8326 457.139C68.5136 457.59 68.3541 458.205 68.3541 458.985V462.553H67.233V455.553H68.3541V456.995H68.3814C68.5409 456.503 68.7847 456.12 69.1129 455.847C69.441 455.569 69.8079 455.43 70.2135 455.43C70.5051 455.43 70.7284 455.462 70.8834 455.526V456.688ZM72.6744 453.776C72.4739 453.776 72.303 453.707 72.1617 453.571C72.0204 453.434 71.9498 453.261 71.9498 453.051C71.9498 452.841 72.0204 452.668 72.1617 452.532C72.303 452.39 72.4739 452.32 72.6744 452.32C72.8795 452.32 73.0526 452.39 73.1939 452.532C73.3398 452.668 73.4127 452.841 73.4127 453.051C73.4127 453.252 73.3398 453.422 73.1939 453.564C73.0526 453.705 72.8795 453.776 72.6744 453.776ZM73.2213 462.553H72.1002V455.553H73.2213V462.553ZM76.6392 461.541H76.6119V462.553H75.4908V452.19H76.6119V456.783H76.6392C77.1907 455.854 77.9973 455.389 79.0592 455.389C79.9569 455.389 80.6588 455.703 81.1646 456.332C81.675 456.957 81.9303 457.795 81.9303 458.848C81.9303 460.019 81.6454 460.958 81.0758 461.664C80.5061 462.366 79.7268 462.717 78.7379 462.717C77.8127 462.717 77.1132 462.325 76.6392 461.541ZM76.6119 458.718V459.696C76.6119 460.274 76.7987 460.767 77.1724 461.172C77.5507 461.573 78.0292 461.774 78.608 461.774C79.287 461.774 79.8179 461.514 80.2008 460.994C80.5881 460.475 80.7818 459.753 80.7818 458.827C80.7818 458.048 80.6018 457.437 80.2418 456.995C79.8818 456.553 79.3941 456.332 78.7789 456.332C78.1272 456.332 77.6031 456.56 77.2066 457.016C76.8101 457.467 76.6119 458.034 76.6119 458.718ZM89.3814 462.553H88.2603V461.446H88.233C87.7681 462.293 87.0481 462.717 86.0728 462.717C84.4049 462.717 83.5709 461.724 83.5709 459.737V455.553H84.6851V459.559C84.6851 461.035 85.2502 461.774 86.3804 461.774C86.9273 461.774 87.3762 461.573 87.7271 461.172C88.0826 460.767 88.2603 460.238 88.2603 459.586V455.553H89.3814V462.553ZM94.898 462.485C94.6337 462.63 94.2851 462.703 93.8521 462.703C92.6262 462.703 92.0133 462.02 92.0133 460.653V456.51H90.8101V455.553H92.0133V453.844L93.1344 453.482V455.553H94.898V456.51H93.1344V460.454C93.1344 460.924 93.2141 461.259 93.3736 461.459C93.5331 461.66 93.7974 461.76 94.1666 461.76C94.4491 461.76 94.6929 461.683 94.898 461.528V462.485ZM99.3209 462.717C98.2864 462.717 97.4592 462.391 96.8394 461.74C96.2242 461.083 95.9166 460.215 95.9166 459.135C95.9166 457.959 96.2379 457.041 96.8804 456.38C97.523 455.719 98.3912 455.389 99.4849 455.389C100.529 455.389 101.342 455.71 101.925 456.353C102.513 456.995 102.807 457.886 102.807 459.026C102.807 460.142 102.49 461.038 101.857 461.712C101.228 462.382 100.383 462.717 99.3209 462.717ZM99.4029 456.332C98.6829 456.332 98.1132 456.578 97.6939 457.071C97.2747 457.558 97.065 458.233 97.065 459.094C97.065 459.923 97.2769 460.577 97.7008 461.056C98.1246 461.534 98.692 461.774 99.4029 461.774C100.127 461.774 100.683 461.539 101.071 461.07C101.463 460.6 101.658 459.933 101.658 459.067C101.658 458.192 101.463 457.517 101.071 457.043C100.683 456.569 100.127 456.332 99.4029 456.332ZM108.248 456.688C108.052 456.537 107.77 456.462 107.401 456.462C106.922 456.462 106.521 456.688 106.198 457.139C105.879 457.59 105.719 458.205 105.719 458.985V462.553H104.598V455.553H105.719V456.995H105.746C105.906 456.503 106.15 456.12 106.478 455.847C106.806 455.569 107.173 455.43 107.578 455.43C107.87 455.43 108.093 455.462 108.248 455.526V456.688Z" fill="black"/>
<path d="M522.591 459.929C522.637 459.972 522.674 460.023 522.7 460.081C522.726 460.138 522.739 460.201 522.74 460.263C522.742 460.326 522.73 460.389 522.706 460.447C522.683 460.506 522.648 460.559 522.603 460.603C522.559 460.648 522.506 460.683 522.447 460.706C522.389 460.73 522.326 460.742 522.263 460.74C522.201 460.739 522.138 460.726 522.081 460.7C522.023 460.674 521.972 460.637 521.929 460.591L516.635 455.298L511.341 460.591C511.252 460.674 511.135 460.719 511.013 460.717C510.892 460.715 510.776 460.666 510.69 460.58C510.604 460.494 510.555 460.378 510.553 460.257C510.551 460.135 510.596 460.018 510.679 459.929L515.972 454.635L510.679 449.341C510.596 449.252 510.551 449.135 510.553 449.013C510.555 448.892 510.604 448.776 510.69 448.69C510.776 448.604 510.892 448.555 511.013 448.553C511.135 448.551 511.252 448.596 511.341 448.679L516.635 453.972L521.929 448.679C522.018 448.596 522.135 448.551 522.257 448.553C522.378 448.555 522.494 448.604 522.58 448.69C522.666 448.776 522.715 448.892 522.717 449.013C522.719 449.135 522.674 449.252 522.591 449.341L517.298 454.635L522.591 459.929Z" fill="#E04E56"/>
<path d="M193.553 453.886L199.553 459.886L210.886 448.553" stroke="#269465" stroke-width="2" stroke-linecap="square"/>
<path d="M294.553 453.886L300.553 459.886L311.886 448.553" stroke="#269465" stroke-width="2" stroke-linecap="square"/>
<path d="M399.553 453.886L405.553 459.886L416.886 448.553" stroke="#269465" stroke-width="2" stroke-linecap="square"/>
<path d="M40.7167 571.881C39.3268 571.881 38.2125 571.423 37.374 570.507C36.54 569.591 36.123 568.399 36.123 566.932C36.123 565.355 36.5491 564.097 37.4013 563.158C38.2535 562.22 39.4133 561.75 40.8808 561.75C42.2343 561.75 43.3235 562.206 44.1484 563.117C44.9778 564.029 45.3925 565.221 45.3925 566.693C45.3925 568.292 44.9687 569.557 44.121 570.487C43.2734 571.416 42.1386 571.881 40.7167 571.881ZM40.7988 562.789C39.7688 562.789 38.9325 563.161 38.29 563.904C37.6474 564.646 37.3261 565.622 37.3261 566.829C37.3261 568.037 37.6383 569.01 38.2626 569.748C38.8915 570.482 39.7096 570.849 40.7167 570.849C41.7922 570.849 42.6399 570.498 43.2597 569.796C43.8795 569.094 44.1894 568.112 44.1894 566.85C44.1894 565.556 43.8886 564.555 43.287 563.849C42.6855 563.142 41.8561 562.789 40.7988 562.789ZM55.9882 564.717L53.8896 571.717H52.7275L51.2851 566.706C51.2304 566.515 51.1939 566.298 51.1757 566.057H51.1484C51.1347 566.221 51.0868 566.433 51.0048 566.693L49.4394 571.717H48.3183L46.1992 564.717H47.3749L48.8242 569.981C48.8697 570.14 48.9016 570.35 48.9199 570.61H48.9745C48.9882 570.409 49.0292 570.195 49.0976 569.967L50.7109 564.717H51.7363L53.1855 569.994C53.2311 570.163 53.2652 570.373 53.288 570.623H53.3427C53.3518 570.446 53.3906 570.236 53.4589 569.994L54.8808 564.717H55.9882ZM63.0976 571.717H61.9765V567.725C61.9765 566.239 61.4342 565.496 60.3495 565.496C59.789 565.496 59.3242 565.708 58.955 566.132C58.5904 566.551 58.4081 567.082 58.4081 567.725V571.717H57.287V564.717H58.4081V565.879H58.4355C58.9641 564.995 59.7297 564.553 60.7324 564.553C61.498 564.553 62.0836 564.801 62.4892 565.298C62.8948 565.79 63.0976 566.503 63.0976 567.438V571.717ZM70.8427 568.497H65.9003C65.9186 569.277 66.1282 569.878 66.5292 570.302C66.9303 570.726 67.4817 570.938 68.1835 570.938C68.9719 570.938 69.6965 570.678 70.3574 570.158V571.211C69.7421 571.658 68.9286 571.881 67.9169 571.881C66.928 571.881 66.151 571.564 65.5859 570.931C65.0208 570.293 64.7382 569.397 64.7382 568.244C64.7382 567.155 65.0458 566.269 65.6611 565.585C66.2809 564.897 67.0488 564.553 67.9648 564.553C68.8808 564.553 69.5894 564.849 70.0908 565.442C70.5921 566.034 70.8427 566.857 70.8427 567.909V568.497ZM69.6943 567.547C69.6897 566.9 69.5325 566.396 69.2226 566.036C68.9172 565.676 68.4911 565.496 67.9443 565.496C67.4156 565.496 66.9667 565.685 66.5976 566.064C66.2284 566.442 66.0006 566.936 65.914 567.547H69.6943ZM76.1952 565.852C75.9993 565.701 75.7167 565.626 75.3476 565.626C74.8691 565.626 74.468 565.852 74.1445 566.303C73.8255 566.754 73.6659 567.369 73.6659 568.149V571.717H72.5449V564.717H73.6659V566.159H73.6933C73.8528 565.667 74.0966 565.284 74.4247 565.011C74.7529 564.733 75.1197 564.594 75.5253 564.594C75.817 564.594 76.0403 564.626 76.1952 564.69V565.852Z" fill="black"/>
<path d="M192.48 567.05L198.48 573.05L209.813 561.717" stroke="#269465" stroke-width="2" stroke-linecap="square"/>
<path d="M506.48 567.05L512.48 573.05L523.813 561.717" stroke="#269465" stroke-width="2" stroke-linecap="square"/>
<path d="M293.48 567.05L299.48 573.05L310.813 561.717" stroke="#269465" stroke-width="2" stroke-linecap="square"/>
<path d="M398.48 567.05L404.48 573.05L415.813 561.717" stroke="#269465" stroke-width="2" stroke-linecap="square"/>
</g>
<path d="M593.5 0.5H0.5V644.5H593.5V0.5Z" stroke="#D9D9D9"/>
</g>
</g>
</g>
<defs>
<filter id="filter0_d_605_448" x="-4" y="10" width="602" height="47" filterUnits="userSpaceOnUse" color-interpolation-filters="sRGB">
<feFlood flood-opacity="0" result="BackgroundImageFix"/>
<feColorMatrix in="SourceAlpha" type="matrix" values="0 0 0 0 0 0 0 0 0 0 0 0 0 0 0 0 0 0 127 0" result="hardAlpha"/>
<feOffset dy="4"/>
<feGaussianBlur stdDeviation="2"/>
<feComposite in2="hardAlpha" operator="out"/>
<feColorMatrix type="matrix" values="0 0 0 0 0.895833 0 0 0 0 0.895833 0 0 0 0 0.895833 0 0 0 0.25 0"/>
<feBlend mode="normal" in2="BackgroundImageFix" result="effect1_dropShadow_605_448"/>
<feBlend mode="normal" in="SourceGraphic" in2="effect1_dropShadow_605_448" result="shape"/>
</filter>
<clipPath id="clip0_605_448">
<rect width="594" height="645" fill="white"/>
</clipPath>
<clipPath id="clip1_605_448">
<rect width="594" height="645" fill="white"/>
</clipPath>
<clipPath id="clip2_605_448">
<rect width="594" height="645" fill="white"/>
</clipPath>
</defs>
</svg>
