<svg width="139" height="117" viewBox="0 0 139 117" fill="none" xmlns="http://www.w3.org/2000/svg">
<path d="M21.751 73.4366C21.751 73.1072 21.7661 72.7923 21.7952 72.4628L19.056 70.4439C18.4667 70.0141 18.3046 69.2123 18.673 68.5819L21.4272 63.9564C21.6034 63.6529 21.8892 63.4238 22.2291 63.313C22.569 63.2018 22.939 63.2169 23.2679 63.3551L26.4348 64.658C26.9794 64.2858 27.5541 63.9564 28.158 63.6846L28.5851 60.3764C28.6735 59.6603 29.3064 59.1162 30.0428 59.1162H35.5367C36.2876 59.1162 36.9211 59.6603 37.0095 60.3764L37.0999 65.1812C37.7037 65.4535 36.8915 66.4939 37.4366 66.866H39.1598C39.8375 66.5797 40.0106 66.5729 40.379 67.2033L44.9276 69.5615C45.2961 70.1919 44.7567 69.9996 44.1674 70.4439L42.5689 71.9203C42.6302 72.5636 41.3897 74.9531 43.7994 74.4105L46.5386 76.4299C47.1279 76.8592 47.2895 77.6615 46.9216 78.2914L44.1674 82.917C43.7994 83.5473 43.0038 83.8051 42.3262 83.5187L39.1598 82.2154C38.6147 82.5875 38.0405 82.917 37.4366 83.1893L37.0095 86.4975C36.9211 87.2131 36.2554 86.8337 35.5191 86.8337H30.0257C29.2893 86.8337 28.6558 86.2891 28.5675 85.5735L28.1725 83.1893C27.5687 82.917 26.9944 82.5875 26.4493 82.2154L23.283 83.5187C22.6053 83.8051 21.8102 83.5473 21.4418 82.917L18.6876 78.2914C18.3196 77.6615 18.4813 76.8737 19.0706 76.4299L21.8102 74.4105C21.7661 74.0811 21.751 73.7661 21.751 73.4366ZM32.7383 78.4488C35.5809 78.4488 37.8934 76.2008 37.8934 73.4366C37.8934 70.6731 35.5809 68.4245 32.7383 68.4245C29.8957 68.4245 27.5832 70.6731 27.5832 73.4366C27.5832 76.2008 29.8957 78.4488 32.7383 78.4488Z" fill="#BD1118"/>
<path d="M22.7917 73.7448C22.7917 73.4387 22.8047 73.1456 22.8317 72.8395L20.3498 70.963C19.8161 70.5639 19.6695 69.8182 20.0032 69.233L22.4981 64.9338C22.6581 64.6516 22.9169 64.4386 23.2246 64.3357C23.5322 64.2323 23.8674 64.2463 24.1657 64.3746L27.0343 65.586C27.5279 65.2399 28.0481 64.9338 28.5953 64.6807L28.982 61.6064C29.062 60.9407 29.6357 60.4351 30.303 60.4351H35.2798C35.9601 60.4351 36.5338 60.9407 36.6138 61.6064L37.001 64.6807C37.5476 64.9338 38.0683 65.2399 38.5615 65.586L41.4301 64.3746C42.0438 64.1086 42.7646 64.3482 43.0982 64.9338L45.5931 69.246C45.9268 69.8317 45.7797 70.5639 45.246 70.9765L42.7646 72.853C42.8197 73.4506 42.8197 74.0524 42.7646 74.65L45.246 76.5265C45.7797 76.9257 45.9268 77.6714 45.5931 78.257L43.0982 82.5558C42.7646 83.1414 42.0438 83.381 41.4301 83.1149L38.5615 81.9035C38.0683 82.2497 37.5476 82.5558 37.001 82.8088L36.6138 85.8832C36.5338 86.5489 35.9601 87.0545 35.2928 87.0545H30.3165C29.6492 87.0545 29.0755 86.5489 28.9955 85.8832L28.6088 82.8088C28.0616 82.5558 27.5414 82.2497 27.0478 81.9035L24.1792 83.1149C23.5655 83.381 22.8447 83.1414 22.5111 82.5558L20.0161 78.257C19.683 77.6714 19.8296 76.9392 20.3633 76.5265L22.8447 74.65C22.8047 74.344 22.7917 74.0508 22.7917 73.7448ZM32.7449 78.4031C35.3198 78.4031 37.4146 76.3135 37.4146 73.7448C37.4146 71.1761 35.3198 69.0865 32.7449 69.0865C30.1694 69.0865 28.0751 71.1761 28.0751 73.7448C28.0751 76.3135 30.1694 78.4031 32.7449 78.4031Z" fill="#EF5F67"/>
<path d="M35.0894 51.314C35.0894 46.8957 38.6711 43.314 43.0894 43.314H129.339C133.757 43.314 137.339 46.8957 137.339 51.314V107.49C137.339 111.908 133.757 115.49 129.339 115.49H43.0894C38.6711 115.49 35.0894 111.908 35.0894 107.49V51.314Z" fill="white" stroke="#212121" stroke-width="2.20459"/>
<path d="M107.551 57.9205C107.551 57.6041 107.807 57.3477 108.124 57.3477H132.182C132.499 57.3477 132.755 57.6041 132.755 57.9205V57.9205C132.755 58.2368 132.499 58.4933 132.182 58.4933H108.124C107.807 58.4933 107.551 58.2368 107.551 57.9205V57.9205Z" fill="#212121"/>
<path d="M107.551 62.5035C107.551 62.1871 107.807 61.9307 108.124 61.9307H132.182C132.499 61.9307 132.755 62.1871 132.755 62.5035V62.5035C132.755 62.8199 132.499 63.0763 132.182 63.0763H108.124C107.807 63.0763 107.551 62.8199 107.551 62.5035V62.5035Z" fill="#212121"/>
<path d="M83.3501 58.4941C86.5097 58.4941 88.7786 59.1162 91.6975 60.3254C94.6165 61.5347 97.2689 63.3068 99.5029 65.5408C101.737 67.7749 103.509 70.4273 104.718 73.3462C105.927 76.2647 106.55 78.8204 106.55 81.98H101.68C101.68 79.4523 101.24 77.5222 100.273 75.1874C99.3054 72.852 97.8878 70.7302 96.1007 68.9431C94.3135 67.1559 92.1917 65.7383 89.8563 64.7712C87.5209 63.8036 85.8778 63.22 83.3501 63.22V58.4941Z" fill="#C9363C"/>
<path d="M58.5757 81.98C58.5757 75.6905 60.8955 70.2235 65.2939 65.7274C69.6929 61.2317 75.6301 58.6313 81.9181 58.4941V63.22C76.8877 63.3296 72.2523 65.4961 68.7336 69.0928C65.2144 72.6894 63.3015 76.948 63.3015 81.98H58.5757Z" fill="#F36D73"/>
<path fill-rule="evenodd" clip-rule="evenodd" d="M106.549 83.0034C106.474 86.1619 105.772 89.3875 104.495 92.2774C103.218 95.1672 101.385 97.777 99.0987 99.9581C96.8127 102.139 94.1198 103.849 91.1732 104.989C88.8961 105.871 82.8986 106.016 78.8374 106.037C78.814 106.038 78.7901 106.038 78.7667 106.038H78.5058C77.7741 106.041 77.1147 106.04 76.5623 106.039H76.3913H62.1545C60.8891 106.039 59.8633 105.013 59.8633 103.747V103.461C59.8633 102.195 60.8891 101.169 62.1545 101.169H78.0506C79.1627 101.169 80.1002 101.915 80.3917 102.933L82.039 101.794C84.5657 101.853 87.0793 101.414 89.4365 100.502C91.7937 99.5896 93.9483 98.2218 95.777 96.4768C97.6057 94.7323 99.0727 92.6442 100.094 90.3322C101.116 88.0203 101.672 85.53 101.731 83.0034H106.549Z" fill="#F36D73"/>
<path fill-rule="evenodd" clip-rule="evenodd" d="M79.1971 106.038C77.1922 106.038 69.616 103.774 65.3345 99.4191C61.0529 95.0637 58.7243 89.1266 58.5757 83.021H63.2496C63.3686 87.9053 65.3407 92.5616 68.7658 96.0454C72.191 99.5298 76.1773 101.254 81.0591 101.456H113.71V98.8542C113.71 98.7544 113.737 98.6557 113.789 98.57C113.841 98.4842 113.915 98.414 114.004 98.3678C114.093 98.321 114.193 98.2997 114.293 98.306C114.393 98.3122 114.489 98.346 114.571 98.4031L121.708 103.344C122.004 103.549 122.004 104.042 121.708 104.247L114.571 109.187C114.489 109.244 114.393 109.277 114.293 109.283C114.193 109.289 114.093 109.267 114.004 109.221C113.916 109.175 113.842 109.105 113.79 109.019C113.738 108.934 113.71 108.836 113.71 108.736V106.038H79.3405C79.2927 106.038 79.246 106.037 79.1992 106.034L79.1971 106.038Z" fill="#C9363C"/>
<path d="M35.9722 50.6528C35.9722 47.3391 38.6585 44.6528 41.9722 44.6528H130.458C133.772 44.6528 136.458 47.3391 136.458 50.6528V53.5566H35.9722V50.6528Z" fill="#E0E0E0"/>
<ellipse cx="41.6764" cy="48.4689" rx="1.14565" ry="1.14565" fill="#212121"/>
<path d="M18.167 9.99999C18.167 5.58171 21.7487 2 26.167 2H120.093C124.511 2 128.093 5.58172 128.093 10V71.5946C128.093 76.0129 124.511 79.5946 120.093 79.5946H26.167C21.7487 79.5946 18.167 76.0129 18.167 71.5946V9.99999Z" fill="white" stroke="#212121" stroke-width="2.20459"/>
<path d="M107.48 48.2C104.239 37.7248 94.4903 30.6362 82.7915 30.6362C74.6292 30.6362 68.1709 35.9828 63.2321 42.0864C61.869 41.8121 61.7461 44.0501 60.3437 44.0485C49.3657 44.0485 47.5221 48.4414 47.5221 58.8982C47.5221 62.6481 47.1031 63.9185 49.2818 67.0415C49.7959 67.7723 50.1255 66.4013 51.0473 66.4013L116.189 70.3931C117.061 70.3931 119.324 69.6316 119.849 68.9623C121.659 66.6399 122.396 63.6632 122.391 60.8514C122.391 53.0583 115.72 47.257 107.48 48.2Z" fill="#BA141A"/>
<path d="M106.172 49.5052C103.139 39.6557 93.6691 32.7515 82.7188 32.7515C75.0817 32.7515 67.9641 36.1304 63.3382 41.8692C62.0644 41.6111 60.7571 41.4803 59.4498 41.4792C49.1701 41.4792 40.8066 49.4745 40.8066 59.3061C40.8066 62.832 41.8904 66.2467 43.9296 69.1825C44.4101 69.8702 45.2202 70.282 46.0861 70.282H115.966C116.787 70.282 117.553 69.9138 118.044 69.2842C119.743 67.1014 120.648 64.5181 120.642 61.8744C120.642 54.5473 113.888 48.618 106.172 49.5052Z" fill="#F36D73"/>
<path d="M90.7571 57.9766C89.3716 59.3599 87.6006 60.3013 85.6787 60.6823C83.7568 61.0633 81.7679 60.8667 79.9578 60.1175C78.1477 59.3678 76.6001 58.0996 75.5108 56.4715C74.4156 54.8435 73.8347 52.9295 73.8291 50.9702" stroke="#BA141A" stroke-width="1.89292" stroke-linecap="round"/>
<path d="M89.9585 63.0643L90.9419 59.0681C90.9921 58.8938 90.9977 58.7122 90.9753 58.534C90.9475 58.3563 90.886 58.1854 90.791 58.0323C90.696 57.8792 90.5675 57.7468 90.4223 57.6435C90.277 57.5401 90.1095 57.4675 89.9306 57.4301L85.936 56.4312" stroke="#BA141A" stroke-width="1.89292" stroke-linecap="round" stroke-linejoin="round"/>
<path d="M76.4775 46.2274C77.8687 44.8436 79.6341 43.9016 81.556 43.5206C83.4778 43.1395 85.4667 43.3357 87.2824 44.0855C89.0925 44.8346 90.6401 46.1033 91.7295 47.7313C92.8189 49.3594 93.4055 51.274 93.4111 53.2338" stroke="#BA141A" stroke-width="1.89292" stroke-linecap="round"/>
<path d="M77.277 41.1396L76.2938 45.1359C76.2489 45.3096 76.2378 45.4918 76.2657 45.6694C76.2938 45.8477 76.3552 46.018 76.4502 46.1711C76.545 46.3242 76.668 46.4566 76.8134 46.5599C76.9641 46.6639 77.1318 46.7359 77.3049 46.7734L81.2996 47.7723" stroke="#BA141A" stroke-width="1.89292" stroke-linecap="round" stroke-linejoin="round"/>
<path d="M0 22.6011C0 19.9661 2.13606 17.8301 4.77102 17.8301H33.7185C36.3534 17.8301 38.4895 19.9661 38.4895 22.6011V37.115C38.4895 39.7499 36.3534 41.886 33.7185 41.886H4.77102C2.13606 41.886 0 39.7499 0 37.115V22.6011Z" fill="#EDB1B1"/>
<path d="M0 20.4956C0 19.0234 1.19558 17.8301 2.66498 17.8301H35.8227C37.2976 17.8301 38.4876 19.0234 38.4876 20.4956V23.5158H0V20.4956Z" fill="#F36D73"/>
<path d="M14.9559 36.7412C13.6429 36.7267 12.9836 36.1641 12.9836 35.0534V33.4154C12.9836 32.6824 12.6931 32.2975 12.1177 32.2606V31.45C12.6931 31.4125 12.9836 31.0203 12.9836 30.2728V28.6789C12.9836 27.5537 13.6429 26.9833 14.9559 26.9688V27.8297C14.3692 27.8442 14.073 28.1979 14.073 28.8901V30.456C14.073 31.2036 13.7044 31.6645 12.9724 31.8382V31.855C13.7044 32.0181 14.073 32.4751 14.073 33.2266V34.7758C14.073 35.1719 14.1402 35.4534 14.2686 35.6199C14.4028 35.7903 14.6318 35.8792 14.9559 35.8864V36.7412ZM16.7269 35.0534C16.509 35.0534 16.319 34.9813 16.1626 34.8367C16.0061 34.6886 15.9278 34.5132 15.9278 34.3093C15.9278 34.102 16.0061 33.9243 16.1626 33.7763C16.319 33.6282 16.509 33.5545 16.7269 33.5545C16.9559 33.5545 17.1458 33.6282 17.3023 33.7763C17.4587 33.9243 17.5425 34.102 17.5425 34.3093C17.5425 34.5132 17.4587 34.6886 17.3023 34.8367C17.1458 34.9813 16.9559 35.0534 16.7269 35.0534ZM19.4699 35.0534C19.252 35.0534 19.0621 34.9813 18.9056 34.8367C18.7493 34.6886 18.671 34.5132 18.671 34.3093C18.671 34.102 18.7493 33.9243 18.9056 33.7763C19.0621 33.6282 19.252 33.5545 19.4699 33.5545C19.699 33.5545 19.8889 33.6282 20.0455 33.7763C20.2018 33.9243 20.2857 34.102 20.2857 34.3093C20.2857 34.5132 20.2018 34.6886 20.0455 34.8367C19.8889 34.9813 19.699 35.0534 19.4699 35.0534ZM22.213 35.0534C21.9952 35.0534 21.8053 34.9813 21.6488 34.8367C21.4924 34.6886 21.4142 34.5132 21.4142 34.3093C21.4142 34.102 21.4924 33.9243 21.6488 33.7763C21.8053 33.6282 21.9952 33.5545 22.213 33.5545C22.4422 33.5545 22.6321 33.6282 22.7886 33.7763C22.945 33.9243 23.0288 34.102 23.0288 34.3093C23.0288 34.5132 22.945 34.6886 22.7886 34.8367C22.6321 34.9813 22.4422 35.0534 22.213 35.0534ZM26.8222 32.2606C26.2524 32.2975 25.9619 32.6824 25.9619 33.4154V35.0534C25.9619 36.1641 25.3082 36.7267 23.9952 36.7412V35.8864C24.3193 35.8792 24.5483 35.7903 24.6824 35.6199C24.8166 35.4495 24.8893 35.168 24.8893 34.7758V33.2266C24.8893 32.4751 25.2523 32.0181 25.9786 31.855V31.8382C25.2523 31.6645 24.8893 31.2036 24.8893 30.456V28.8901C24.8893 28.1979 24.593 27.8442 23.9952 27.8297V26.9688C25.3082 26.9833 25.9619 27.5537 25.9619 28.6789V30.2728C25.9619 31.0203 26.2524 31.4125 26.8222 31.45V32.2606Z" fill="#212121"/>
<path d="M3.22348 21.4951C2.99997 21.4951 2.81007 21.423 2.65364 21.2789C2.49712 21.1308 2.41895 20.9548 2.41895 20.7514C2.41895 20.5442 2.49712 20.3665 2.65364 20.2185C2.81007 20.0698 2.99997 19.9961 3.22348 19.9961C3.44699 19.9961 3.63688 20.0698 3.79332 20.2185C3.94968 20.3665 4.03352 20.5442 4.03352 20.7514C4.03352 20.9548 3.94968 21.1308 3.79332 21.2789C3.63688 21.423 3.44699 21.4951 3.22348 21.4951ZM5.96663 21.4951C5.74312 21.4951 5.55315 21.423 5.39671 21.2789C5.24028 21.1308 5.1621 20.9548 5.1621 20.7514C5.1621 20.5442 5.24028 20.3665 5.39671 20.2185C5.55315 20.0698 5.74312 19.9961 5.96663 19.9961C6.18999 19.9961 6.38004 20.0698 6.5364 20.2185C6.69283 20.3665 6.77668 20.5442 6.77668 20.7514C6.77668 20.9548 6.69283 21.1308 6.5364 21.2789C6.38004 21.423 6.18999 21.4951 5.96663 21.4951Z" fill="#212121"/>
<path d="M111.172 12.9808C111.172 12.8205 111.177 12.6669 111.194 12.5065L109.892 11.5227C109.613 11.3132 109.535 10.9227 109.713 10.6154L111.021 8.36171C111.105 8.21366 111.239 8.10191 111.401 8.04826C111.563 7.99407 111.736 8.00137 111.892 8.06841L113.395 8.70362C113.658 8.52203 113.932 8.36171 114.216 8.22931L114.418 6.61695C114.462 6.26832 114.764 6.00293 115.11 6.00293H117.719C118.077 6.00293 118.379 6.26832 118.418 6.61695L118.624 8.22931C118.909 8.36171 119.183 8.52203 119.44 8.70362L120.943 8.06841C121.267 7.92871 121.647 8.0544 121.82 8.36171L123.127 10.6227C123.301 10.9294 123.228 11.3132 122.943 11.5294L121.647 12.5138C121.675 12.8267 121.675 13.1423 121.647 13.4558L122.943 14.4396C123.228 14.6491 123.301 15.0396 123.127 15.3469L121.82 17.6006C121.647 17.9079 121.267 18.033 120.943 17.8939L119.44 17.2587C119.183 17.4403 118.909 17.6006 118.624 17.733L118.418 19.3454C118.379 19.694 118.077 19.9594 117.725 19.9594H115.116C114.77 19.9594 114.468 19.694 114.423 19.3454L114.222 17.733C113.937 17.6006 113.663 17.4403 113.406 17.2587L111.898 17.8939C111.579 18.033 111.2 17.9079 111.026 17.6006L109.719 15.3469C109.546 15.0396 109.618 14.6558 109.898 14.4396L111.2 13.4558C111.177 13.2948 111.172 13.1418 111.172 12.9808ZM116.39 15.4234C117.742 15.4234 118.837 14.3278 118.837 12.9808C118.837 11.6345 117.742 10.5389 116.39 10.5389C115.043 10.5389 113.943 11.6345 113.943 12.9808C113.943 14.3278 115.043 15.4234 116.39 15.4234Z" fill="#EDB1B1"/>
<path d="M111.172 12.9808C111.172 12.8205 111.177 12.6669 111.194 12.5065L109.892 11.5227C109.613 11.3132 109.535 10.9227 109.713 10.6154L111.021 8.36171C111.105 8.21366 111.239 8.10191 111.401 8.04826C111.563 7.99407 111.736 8.00137 111.892 8.06841L113.395 8.70362C113.658 8.52203 113.932 8.36171 114.216 8.22931L114.418 6.61695C114.462 6.26832 114.764 6.00293 115.11 6.00293H117.719C118.077 6.00293 118.379 6.26832 118.418 6.61695L118.624 8.22931C118.909 8.36171 119.183 8.52203 119.44 8.70362L120.943 8.06841C121.267 7.92871 121.647 8.0544 121.82 8.36171L123.127 10.6227C123.301 10.9294 123.228 11.3132 122.943 11.5294L121.647 12.5138C121.675 12.8267 121.675 13.1423 121.647 13.4558L122.943 14.4396C123.228 14.6491 123.301 15.0396 123.127 15.3469L121.82 17.6006C121.647 17.9079 121.267 18.033 120.943 17.8939L119.44 17.2587C119.183 17.4403 118.909 17.6006 118.624 17.733L118.418 19.3454C118.379 19.694 118.077 19.9594 117.725 19.9594H115.116C114.77 19.9594 114.468 19.694 114.423 19.3454L114.222 17.733C113.937 17.6006 113.663 17.4403 113.406 17.2587L111.898 17.8939C111.579 18.033 111.2 17.9079 111.026 17.6006L109.719 15.3469C109.546 15.0396 109.618 14.6558 109.898 14.4396L111.2 13.4558C111.177 13.2948 111.172 13.1418 111.172 12.9808ZM116.39 15.4234C117.742 15.4234 118.837 14.3278 118.837 12.9808C118.837 11.6345 117.742 10.5389 116.39 10.5389C115.043 10.5389 113.943 11.6345 113.943 12.9808C113.943 14.3278 115.043 15.4234 116.39 15.4234Z" fill="#EDB1B1"/>
<path d="M100.557 18.0109C100.557 17.8975 100.563 17.7891 100.568 17.6763L99.652 16.9812C99.4509 16.8338 99.4006 16.5578 99.5234 16.341L100.445 14.7493C100.507 14.6454 100.602 14.5666 100.713 14.5281C100.831 14.4901 100.954 14.4951 101.065 14.5426L102.127 14.9912C102.306 14.8627 102.501 14.7493 102.702 14.656L102.848 13.518C102.876 13.2716 103.088 13.0845 103.334 13.0845H105.177C105.429 13.0845 105.641 13.2716 105.669 13.518L105.814 14.656C106.015 14.7493 106.211 14.8627 106.39 14.9912L107.457 14.5426C107.68 14.4443 107.948 14.5326 108.071 14.7493L108.993 16.3461C109.116 16.5628 109.066 16.8338 108.865 16.9863L107.948 17.6807C107.971 17.902 107.971 18.1249 107.948 18.3461L108.865 19.0406C109.066 19.1886 109.116 19.4646 108.993 19.6814L108.071 21.2725C107.948 21.4893 107.68 21.5781 107.457 21.4792L106.39 21.0312C106.211 21.1591 106.015 21.2725 105.814 21.3663L105.669 22.5044C105.641 22.7508 105.429 22.9379 105.183 22.9379H103.339C103.093 22.9379 102.881 22.7508 102.853 22.5044L102.708 21.3663C102.507 21.2725 102.311 21.1591 102.133 21.0312L101.071 21.4792C100.842 21.5781 100.574 21.4893 100.451 21.2725L99.529 19.6814C99.4062 19.4646 99.4565 19.1937 99.6576 19.0406L100.574 18.3461C100.563 18.2327 100.557 18.1243 100.557 18.0109ZM104.239 19.7355C105.194 19.7355 105.965 18.9618 105.965 18.0109C105.965 17.06 105.194 16.2868 104.239 16.2868C103.283 16.2868 102.512 17.06 102.512 18.0109C102.512 18.9618 103.283 19.7355 104.239 19.7355Z" fill="#F36D73"/>
<path d="M100.557 18.0109C100.557 17.8975 100.563 17.7891 100.568 17.6763L99.652 16.9812C99.4509 16.8338 99.4006 16.5578 99.5234 16.341L100.445 14.7493C100.507 14.6454 100.602 14.5666 100.713 14.5281C100.831 14.4901 100.954 14.4951 101.065 14.5426L102.127 14.9912C102.306 14.8627 102.501 14.7493 102.702 14.656L102.848 13.518C102.876 13.2716 103.088 13.0845 103.334 13.0845H105.177C105.429 13.0845 105.641 13.2716 105.669 13.518L105.814 14.656C106.015 14.7493 106.211 14.8627 106.39 14.9912L107.457 14.5426C107.68 14.4443 107.948 14.5326 108.071 14.7493L108.993 16.3461C109.116 16.5628 109.066 16.8338 108.865 16.9863L107.948 17.6807C107.971 17.902 107.971 18.1249 107.948 18.3461L108.865 19.0406C109.066 19.1886 109.116 19.4646 108.993 19.6814L108.071 21.2725C107.948 21.4893 107.68 21.5781 107.457 21.4792L106.39 21.0312C106.211 21.1591 106.015 21.2725 105.814 21.3663L105.669 22.5044C105.641 22.7508 105.429 22.9379 105.183 22.9379H103.339C103.093 22.9379 102.881 22.7508 102.853 22.5044L102.708 21.3663C102.507 21.2725 102.311 21.1591 102.133 21.0312L101.071 21.4792C100.842 21.5781 100.574 21.4893 100.451 21.2725L99.529 19.6814C99.4062 19.4646 99.4565 19.1937 99.6576 19.0406L100.574 18.3461C100.563 18.2327 100.557 18.1243 100.557 18.0109ZM104.239 19.7355C105.194 19.7355 105.965 18.9618 105.965 18.0109C105.965 17.06 105.194 16.2868 104.239 16.2868C103.283 16.2868 102.512 17.06 102.512 18.0109C102.512 18.9618 103.283 19.7355 104.239 19.7355Z" fill="#EDB1B1"/>
<path d="M19.3979 9.31396C19.3979 6.00025 22.0842 3.31396 25.3979 3.31396H120.88C124.193 3.31396 126.88 6.00025 126.88 9.31396V12.2178H19.3979V9.31396Z" fill="#E0E0E0"/>
<path d="M111.172 12.9808C111.172 12.8205 111.177 12.6669 111.194 12.5065L109.892 11.5227C109.613 11.3132 109.535 10.9227 109.713 10.6154L111.021 8.36171C111.105 8.21366 111.239 8.10191 111.401 8.04826C111.563 7.99407 111.736 8.00137 111.892 8.06841L113.395 8.70362C113.658 8.52203 113.932 8.36171 114.216 8.22931L114.418 6.61695C114.462 6.26832 114.764 6.00293 115.11 6.00293H117.719C118.077 6.00293 118.379 6.26832 118.418 6.61695L118.624 8.22931C118.909 8.36171 119.183 8.52203 119.44 8.70362L120.943 8.06841C121.267 7.92871 121.647 8.0544 121.82 8.36171L123.127 10.6227C123.301 10.9294 123.228 11.3132 122.943 11.5294L121.647 12.5138C121.675 12.8267 121.675 13.1423 121.647 13.4558L122.943 14.4396C123.228 14.6491 123.301 15.0396 123.127 15.3469L121.82 17.6006C121.647 17.9079 121.267 18.033 120.943 17.8939L119.44 17.2587C119.183 17.4403 118.909 17.6006 118.624 17.733L118.418 19.3454C118.379 19.694 118.077 19.9594 117.725 19.9594H115.116C114.77 19.9594 114.468 19.694 114.423 19.3454L114.222 17.733C113.937 17.6006 113.663 17.4403 113.406 17.2587L111.898 17.8939C111.579 18.033 111.2 17.9079 111.026 17.6006L109.719 15.3469C109.546 15.0396 109.618 14.6558 109.898 14.4396L111.2 13.4558C111.177 13.2948 111.172 13.1418 111.172 12.9808ZM116.39 15.4234C117.742 15.4234 118.837 14.3278 118.837 12.9808C118.837 11.6345 117.742 10.5389 116.39 10.5389C115.043 10.5389 113.943 11.6345 113.943 12.9808C113.943 14.3278 115.043 15.4234 116.39 15.4234Z" fill="#EDB1B1"/>
<path d="M100.557 18.0109C100.557 17.8975 100.563 17.7891 100.568 17.6763L99.652 16.9812C99.4509 16.8338 99.4006 16.5578 99.5234 16.341L100.445 14.7493C100.507 14.6454 100.602 14.5666 100.713 14.5281C100.831 14.4901 100.954 14.4951 101.065 14.5426L102.127 14.9912C102.306 14.8627 102.501 14.7493 102.702 14.656L102.848 13.518C102.876 13.2716 103.088 13.0845 103.334 13.0845H105.177C105.429 13.0845 105.641 13.2716 105.669 13.518L105.814 14.656C106.015 14.7493 106.211 14.8627 106.39 14.9912L107.457 14.5426C107.68 14.4443 107.948 14.5326 108.071 14.7493L108.993 16.3461C109.116 16.5628 109.066 16.8338 108.865 16.9863L107.948 17.6807C107.971 17.902 107.971 18.1249 107.948 18.3461L108.865 19.0406C109.066 19.1886 109.116 19.4646 108.993 19.6814L108.071 21.2725C107.948 21.4893 107.68 21.5781 107.457 21.4792L106.39 21.0312C106.211 21.1591 106.015 21.2725 105.814 21.3663L105.669 22.5044C105.641 22.7508 105.429 22.9379 105.183 22.9379H103.339C103.093 22.9379 102.881 22.7508 102.853 22.5044L102.708 21.3663C102.507 21.2725 102.311 21.1591 102.133 21.0312L101.071 21.4792C100.842 21.5781 100.574 21.4893 100.451 21.2725L99.529 19.6814C99.4062 19.4646 99.4565 19.1937 99.6576 19.0406L100.574 18.3461C100.563 18.2327 100.557 18.1243 100.557 18.0109ZM104.239 19.7355C105.194 19.7355 105.965 18.9618 105.965 18.0109C105.965 17.06 105.194 16.2868 104.239 16.2868C103.283 16.2868 102.512 17.06 102.512 18.0109C102.512 18.9618 103.283 19.7355 104.239 19.7355Z" fill="#F36D73"/>
</svg>
