<svg width="170" height="117" viewBox="0 0 170 117" fill="none" xmlns="http://www.w3.org/2000/svg">
<path d="M28.5453 64.9376C28.5453 64.5416 28.5635 64.163 28.5986 63.767L25.2938 61.3401C24.5828 60.8234 24.3872 59.8596 24.8317 59.1018L28.1547 53.5415C28.3672 53.1767 28.7121 52.9012 29.1221 52.7681C29.5321 52.6344 29.9785 52.6525 30.3754 52.8187L34.1962 54.3848C34.8532 53.9375 35.5467 53.5415 36.2752 53.2147L36.7906 49.238C36.8971 48.3772 37.6608 47.7231 38.5492 47.7231H45.1775C46.0835 47.7231 46.8478 48.3772 46.9544 49.238L47.0635 55.0138C47.792 55.3412 46.8121 56.5918 47.4698 57.0391H49.5488C50.3664 56.6949 50.5752 56.6868 51.0197 57.4445L56.5075 60.2793C56.9521 61.0371 56.3013 60.806 55.5903 61.3401L53.6617 63.1148C53.7357 63.8882 52.2391 66.7605 55.1464 66.1083L58.4512 68.5359C59.1621 69.0518 59.3571 70.0164 58.9132 70.7735L55.5903 76.3339C55.1464 77.0916 54.1865 77.4014 53.3689 77.0572L49.5488 75.4905C48.8911 75.9378 48.1983 76.3339 47.4698 76.6612L46.9544 80.638C46.8478 81.4982 46.0447 81.0421 45.1562 81.0421H38.5285C37.6401 81.0421 36.8758 80.3875 36.7693 79.5273L36.2928 76.6612C35.5642 76.3339 34.8714 75.9378 34.2137 75.4905L30.3936 77.0572C29.576 77.4014 28.6168 77.0916 28.1722 76.3339L24.8493 70.7735C24.4054 70.0164 24.6004 69.0693 25.3114 68.5359L28.6168 66.1083C28.5635 65.7123 28.5453 65.3337 28.5453 64.9376ZM41.8013 70.9628C45.2308 70.9628 48.0209 68.2604 48.0209 64.9376C48.0209 61.6156 45.2308 58.9126 41.8013 58.9126C38.3718 58.9126 35.5818 61.6156 35.5818 64.9376C35.5818 68.2604 38.3718 70.9628 41.8013 70.9628Z" fill="#BD1118"/>
<path d="M29.7997 65.3081C29.7997 64.9402 29.8154 64.5878 29.848 64.2199L26.8536 61.9642C26.2097 61.4844 26.0329 60.588 26.4354 59.8845L29.4455 54.7165C29.6386 54.3773 29.9508 54.1212 30.322 53.9975C30.6932 53.8732 31.0976 53.89 31.4574 54.0443L34.9183 55.5005C35.5139 55.0845 36.1415 54.7165 36.8017 54.4123L37.2682 50.7167C37.3648 49.9164 38.0569 49.3086 38.862 49.3086H44.8665C45.6872 49.3086 46.3793 49.9164 46.4759 50.7167L46.943 54.4123C47.6026 54.7165 48.2308 55.0845 48.8258 55.5005L52.2867 54.0443C53.0271 53.7245 53.8967 54.0125 54.2992 54.7165L57.3093 59.9002C57.7118 60.6042 57.5344 61.4844 56.8905 61.9804L53.8967 64.2361C53.9632 64.9545 53.9632 65.6779 53.8967 66.3963L56.8905 68.6521C57.5344 69.1318 57.7118 70.0283 57.3093 70.7323L54.2992 75.8997C53.8967 76.6037 53.0271 76.8917 52.2867 76.5718L48.8258 75.1157C48.2308 75.5318 47.6026 75.8997 46.943 76.2039L46.4759 79.8996C46.3793 80.6998 45.6872 81.3076 44.8821 81.3076H38.8783C38.0732 81.3076 37.3811 80.6998 37.2845 79.8996L36.818 76.2039C36.1578 75.8997 35.5302 75.5318 34.9346 75.1157L31.4737 76.5718C30.7333 76.8917 29.8637 76.6037 29.4612 75.8997L26.4511 70.7323C26.0492 70.0283 26.226 69.1481 26.8699 68.6521L29.8637 66.3963C29.8154 66.0284 29.7997 65.676 29.7997 65.3081ZM41.8081 70.9078C44.9147 70.9078 47.4421 68.3959 47.4421 65.3081C47.4421 62.2203 44.9147 59.7084 41.8081 59.7084C38.7008 59.7084 36.1741 62.2203 36.1741 65.3081C36.1741 68.3959 38.7008 70.9078 41.8081 70.9078Z" fill="#EF5F67"/>
<path d="M44.6377 36.7275C44.6377 32.3093 48.2194 28.7275 52.6377 28.7275H160C164.419 28.7275 168 32.3093 168 36.7275V107.49C168 111.908 164.419 115.49 160 115.49H52.6377C48.2194 115.49 44.6377 111.908 44.6377 107.49V36.7275Z" fill="white" stroke="#212121" stroke-width="2.20459"/>
<path d="M132.061 46.2862C132.061 45.9059 132.369 45.5977 132.749 45.5977H161.781C162.161 45.5977 162.469 45.9059 162.469 46.2862V46.2862C162.469 46.6665 162.161 46.9748 161.781 46.9748H132.749C132.369 46.9748 132.061 46.6665 132.061 46.2862V46.2862Z" fill="#212121"/>
<path d="M132.061 51.7955C132.061 51.4152 132.369 51.1069 132.749 51.1069H161.781C162.161 51.1069 162.469 51.4152 162.469 51.7955V51.7955C162.469 52.1758 162.161 52.4841 161.781 52.4841H132.749C132.369 52.4841 132.061 52.1758 132.061 51.7955V51.7955Z" fill="#212121"/>
<path d="M102.862 46.9756C106.674 46.9756 109.412 47.7233 112.933 49.177C116.455 50.6306 119.655 52.7608 122.35 55.4464C125.046 58.1319 127.184 61.3203 128.643 64.8292C130.101 68.3374 130.852 71.4097 130.852 75.2077H124.977C124.977 72.1693 124.446 69.8491 123.279 67.0424C122.112 64.2351 120.402 61.6845 118.246 59.5362C116.09 57.3878 113.53 55.6837 110.712 54.5212C107.894 53.358 105.912 52.6565 102.862 52.6565V46.9756Z" fill="#C9363C"/>
<path d="M72.9717 75.2077C72.9717 67.6471 75.7705 61.0754 81.0771 55.6706C86.3844 50.2664 93.5476 47.1405 101.134 46.9756V52.6565C95.0649 52.7883 89.4723 55.3926 85.2271 59.7161C80.9812 64.0395 78.6734 69.1589 78.6734 75.2077H72.9717Z" fill="#F36D73"/>
<path fill-rule="evenodd" clip-rule="evenodd" d="M130.852 76.438C130.762 80.2348 129.915 84.1122 128.374 87.5862C126.833 91.06 124.621 94.1972 121.863 96.819C119.105 99.4408 115.856 101.496 112.301 102.867C109.554 103.927 102.318 104.102 97.4183 104.126C97.3901 104.127 97.3613 104.128 97.333 104.128H97.0183C96.1355 104.131 95.3399 104.13 94.6734 104.128H94.4672H77.2907C75.764 104.128 74.5264 102.895 74.5264 101.374V101.03C74.5264 99.5083 75.764 98.2752 77.2907 98.2752H96.4691C97.8108 98.2752 98.9419 99.1716 99.2936 100.395L101.281 99.0261C104.329 99.0973 107.362 98.5694 110.206 97.4725C113.05 96.3761 115.649 94.7319 117.856 92.6343C120.062 90.5372 121.832 88.0271 123.065 85.2479C124.297 82.4687 124.968 79.4751 125.04 76.438H130.852Z" fill="#F36D73"/>
<path fill-rule="evenodd" clip-rule="evenodd" d="M97.8511 104.128C95.4323 104.128 86.2917 101.406 81.1261 96.1715C75.9605 90.936 73.151 83.7989 72.9717 76.4595H78.6106C78.7542 82.3309 81.1336 87.9281 85.2659 92.116C89.3983 96.3046 94.2078 98.3766 100.098 98.6197H139.491V95.4925C139.49 95.3725 139.523 95.2538 139.586 95.1508C139.648 95.0477 139.738 94.9633 139.845 94.9077C139.952 94.8515 140.073 94.8259 140.194 94.8334C140.314 94.8409 140.431 94.8815 140.53 94.9502L149.14 100.889C149.497 101.136 149.497 101.729 149.14 101.975L140.53 107.914C140.43 107.982 140.314 108.022 140.194 108.029C140.073 108.036 139.953 108.01 139.846 107.954C139.739 107.899 139.649 107.814 139.587 107.712C139.524 107.609 139.491 107.491 139.491 107.371V104.128H98.0242C97.9665 104.128 97.9101 104.127 97.8536 104.123L97.8511 104.128Z" fill="#C9363C"/>
<path d="M45.7012 36.3374C45.7012 33.0237 48.3875 30.3374 51.7012 30.3374H160.936C164.249 30.3374 166.936 33.0237 166.936 36.3374V41.0406H45.7012V36.3374Z" fill="#E0E0E0"/>
<ellipse cx="52.5834" cy="34.9245" rx="1.38221" ry="1.37718" fill="#212121"/>
<path d="M32.1416 10C32.1416 5.58173 35.7233 2 40.1416 2H153.131C157.549 2 161.131 5.58172 161.131 10V84.7196C161.131 89.1378 157.549 92.7196 153.131 92.7196H40.1416C35.7233 92.7196 32.1416 89.1378 32.1416 84.7196V10Z" fill="white" stroke="#212121" stroke-width="2.20459"/>
<path d="M145.955 3.7998H154.628C157.021 3.7998 158.961 5.73386 158.961 8.11993V86.5996C158.961 88.9856 157.021 90.9197 154.628 90.9197H145.955V3.7998Z" fill="#E0E0E0"/>
<path d="M63.23 46.8199C63.23 53.05 61.3754 59.1402 57.9016 64.3206C54.4277 69.5003 49.4906 73.5376 43.7131 75.9223C37.9362 78.3065 31.5799 78.9303 25.447 77.7147C19.3142 76.4991 13.6809 73.4991 9.25976 69.094C4.838 64.6883 1.82694 59.0755 0.607601 52.965C-0.612439 46.8552 0.013668 40.5213 2.40649 34.7655C4.79927 29.0097 8.85138 24.0899 14.0507 20.6287C19.2493 17.1675 25.3618 15.3203 31.6146 15.3203V46.8199H63.23Z" fill="#F36D73"/>
<path d="M9.25976 69.094C4.838 64.6883 1.82694 59.0755 0.607601 52.965C-0.612439 46.8552 0.013668 40.5213 2.40649 34.7655C4.79927 29.0097 8.85138 24.0899 14.0507 20.6287C19.2493 17.1675 25.3618 15.3203 31.6146 15.3203V46.8199L9.25976 69.094Z" fill="#EDB1B1"/>
<path d="M50.7095 83.7695C50.8112 83.9407 51.0327 83.9975 51.2045 83.8962L105.16 52.1413C105.331 52.0407 105.388 51.8199 105.287 51.6481C105.185 51.4769 104.964 51.4202 104.792 51.5213L50.8367 83.2764C50.6649 83.3776 50.6079 83.5984 50.7095 83.7695Z" fill="#BA141A"/>
<path d="M38.1035 10.2803C42.2552 10.2803 46.3663 11.0948 50.2021 12.6781C54.0377 14.2607 57.5228 16.5815 60.4584 19.5064C63.394 22.4314 65.7233 25.9037 67.3117 29.7255C68.9008 33.5472 69.7183 37.6433 69.7183 41.7799H38.1035V10.2803Z" fill="#BE1016" fill-opacity="0.839216"/>
<path fill-rule="evenodd" clip-rule="evenodd" d="M63.2643 41.6256C63.5534 23.7703 51.1002 14.2658 44.8376 11.7459L44.7871 11.7197C47.4126 12.096 50.0068 12.7883 52.4193 13.7838C56.255 15.3671 58.1142 16.9674 61.0498 19.8923C63.986 22.8173 65.7725 25.7494 67.3609 29.5712C68.9481 33.3884 69.7655 37.4786 69.7675 41.6093L69.7682 41.6256L69.7675 41.6263H63.2499V41.6138L63.2643 41.6256Z" fill="#BA141A"/>
<path d="M44.8376 11.7464L44.8291 11.7627L44.8304 11.7634L44.8376 11.7464ZM63.2643 41.6261L63.2532 41.6405L63.282 41.664L63.2826 41.6268L63.2643 41.6261ZM44.7871 11.7202L44.7898 11.7026L44.7793 11.7366L44.7871 11.7202ZM69.7682 41.6261V41.6444H69.7865V41.6261H69.7682ZM69.7682 41.6261L69.7675 41.6085H69.7498V41.6261H69.7682ZM69.7675 41.6268L69.7682 41.6444H69.7865L69.7859 41.6268H69.7675ZM63.2499 41.6268H63.2322V41.6444H63.2499V41.6268ZM63.2499 41.6143L63.2617 41.6006L63.2322 41.5758V41.6143H63.2499ZM44.8304 11.7634C51.0885 14.2814 63.5351 23.7799 63.2466 41.6261L63.2826 41.6268C63.5718 23.761 51.1114 14.252 44.8442 11.7301L44.8304 11.7634ZM44.7793 11.7366L44.8291 11.7627L44.8455 11.7307L44.7956 11.7046L44.7793 11.7366ZM52.4265 13.768C50.012 12.7712 47.4166 12.0789 44.7898 11.7026L44.7845 11.7386C47.4088 12.1142 50.0009 12.8058 52.4127 13.8013L52.4265 13.768ZM61.0629 19.8798C58.1266 16.9542 56.2654 15.352 52.4265 13.768L52.4127 13.8013C56.2451 15.3826 58.1024 16.981 61.0373 19.9053L61.0629 19.8798ZM67.378 29.5651C65.7882 25.7414 64.0005 22.8073 61.0629 19.8798L61.0373 19.9053C63.971 22.8283 65.7561 25.7591 67.3446 29.5788L67.378 29.5651ZM69.7859 41.6098C69.7832 37.4764 68.9651 33.3836 67.378 29.5651L67.3446 29.5788C68.9303 33.3934 69.7472 37.4811 69.7498 41.6098H69.7859ZM69.7865 41.6261L69.7859 41.6098H69.7498V41.6261H69.7865ZM63.2499 41.6444H69.7682L69.7675 41.6085H63.2499V41.6444ZM63.2322 41.6143V41.6268H63.2683V41.6143H63.2322ZM63.2761 41.6124L63.2617 41.6006L63.238 41.6281L63.2532 41.6405L63.2761 41.6124Z" fill="#BA141A"/>
</svg>
