<svg xmlns="http://www.w3.org/2000/svg" xmlns:xlink="http://www.w3.org/1999/xlink" viewBox="0 0 500 500"><defs><clipPath id="freepik--clip-path--inject-43"><circle cx="250" cy="241.4" r="139.33" style="fill:#92E3A9;stroke:#263238;stroke-linecap:round;stroke-linejoin:round"></circle></clipPath><clipPath id="freepik--clip-path-2--inject-43"><circle cx="250" cy="241.4" r="139.33" style="fill:#263238;opacity:0.2"></circle></clipPath><clipPath id="freepik--clip-path-3--inject-43"><path d="M315.17,281.22s1.44-3.3-.37-5.49a12,12,0,0,1-2.21-3.47S310.17,277.21,315.17,281.22Z" style="fill:#92E3A9"></path></clipPath><clipPath id="freepik--clip-path-4--inject-43"><path d="M322,259.82s1.43-3.29-.38-5.48a11.91,11.91,0,0,1-2.21-3.48S317,255.81,322,259.82Z" style="fill:#92E3A9"></path></clipPath><clipPath id="freepik--clip-path-5--inject-43"><path d="M308.29,306.13s1.44-3.29-.37-5.48a11.85,11.85,0,0,1-2.22-3.48S303.29,302.12,308.29,306.13Z" style="fill:#92E3A9;stroke:#263238;stroke-linecap:round;stroke-linejoin:round"></path></clipPath><clipPath id="freepik--clip-path-6--inject-43"><path d="M311.88,310.24s3.13-1.77,3-4.61a12,12,0,0,1,.32-4.11S310.29,304,311.88,310.24Z" style="fill:#92E3A9"></path></clipPath><clipPath id="freepik--clip-path-7--inject-43"><path d="M306.93,313.16s3.43-1.07,5.42,1a12,12,0,0,0,3.22,2.57S310.38,318.57,306.93,313.16Z" style="fill:#92E3A9"></path></clipPath><clipPath id="freepik--clip-path-8--inject-43"><path d="M298.77,312.43s1.44-3.3-.37-5.49a11.85,11.85,0,0,1-2.22-3.48S293.77,308.42,298.77,312.43Z" style="fill:#92E3A9"></path></clipPath><clipPath id="freepik--clip-path-9--inject-43"><path d="M301.33,323.39s1.44-3.3-.37-5.49a11.91,11.91,0,0,1-2.21-3.48S296.33,319.38,301.33,323.39Z" style="fill:#92E3A9"></path></clipPath><clipPath id="freepik--clip-path-10--inject-43"><path d="M310.5,299.52s0-3.59,2.49-4.9a11.9,11.9,0,0,0,3.39-2.34S316.67,297.79,310.5,299.52Z" style="fill:#92E3A9"></path></clipPath><clipPath id="freepik--clip-path-11--inject-43"><path d="M318.58,272.07s0-3.6,2.49-4.91a12,12,0,0,0,3.4-2.33S324.75,270.34,318.58,272.07Z" style="fill:#92E3A9"></path></clipPath><clipPath id="freepik--clip-path-12--inject-43"><path d="M317.52,277.48s2.38-2.69,5.13-2a11.93,11.93,0,0,0,4.09.54S323.26,280.33,317.52,277.48Z" style="fill:#92E3A9"></path></clipPath><clipPath id="freepik--clip-path-13--inject-43"><path d="M293.21,302.29s-1-3.44,1-5.4a11.92,11.92,0,0,0,2.61-3.19S298.65,298.9,293.21,302.29Z" style="fill:#92E3A9"></path></clipPath><clipPath id="freepik--clip-path-14--inject-43"><path d="M288.94,280.23s-1-3.44,1-5.4a11.92,11.92,0,0,0,2.61-3.19S294.38,276.84,288.94,280.23Z" style="fill:#92E3A9"></path></clipPath><clipPath id="freepik--clip-path-15--inject-43"><path d="M297.09,327.84s-1-3.44,1-5.4a11.92,11.92,0,0,0,2.61-3.19S302.54,324.46,297.09,327.84Z" style="fill:#92E3A9"></path></clipPath><clipPath id="freepik--clip-path-16--inject-43"><path d="M295.68,321s.46-3.57-1.89-5.17a11.7,11.7,0,0,1-3.09-2.72S289.76,318.57,295.68,321Z" style="fill:#92E3A9;stroke:#263238;stroke-linecap:round;stroke-linejoin:round"></path></clipPath><clipPath id="freepik--clip-path-17--inject-43"><path d="M290.91,292.8s.46-3.57-1.89-5.17a11.7,11.7,0,0,1-3.09-2.72S285,290.35,290.91,292.8Z" style="fill:#92E3A9"></path></clipPath><clipPath id="freepik--clip-path-18--inject-43"><path d="M291.32,298.3s-2-3-4.86-2.57a11.84,11.84,0,0,1-4.12,0S285.28,300.45,291.32,298.3Z" style="fill:#92E3A9"></path></clipPath><clipPath id="freepik--clip-path-19--inject-43"><path d="M140.45,175.38s-2-5-6.32-5.36a18.15,18.15,0,0,1-6.09-1.27S130.86,176.58,140.45,175.38Z" style="fill:#92E3A9"></path></clipPath><clipPath id="freepik--clip-path-20--inject-43"><path d="M141.05,180.41s-1.92-8.26,3.22-12.57,6.62-7.12,6.62-7.12S154.37,173.26,141.05,180.41Z" style="fill:#92E3A9"></path></clipPath><clipPath id="freepik--clip-path-21--inject-43"><path d="M143.12,192s-4-7.49-10.69-7.35-9.67-1-9.67-1S128.39,195.38,143.12,192Z" style="fill:#92E3A9"></path></clipPath><clipPath id="freepik--clip-path-22--inject-43"><path d="M143.36,195.73s1.15-8.41,7.49-10.59,8.72-4.29,8.72-4.29S158.36,193.8,143.36,195.73Z" style="fill:#92E3A9"></path></clipPath><clipPath id="freepik--clip-path-23--inject-43"><path d="M188.32,153.86s-.93-4.69-4.57-5.71A15.75,15.75,0,0,1,178.7,146S179.82,153.28,188.32,153.86Z" style="fill:#92E3A9"></path></clipPath><clipPath id="freepik--clip-path-24--inject-43"><path d="M188,158.31s-.28-7.47,4.89-10.33,6.92-5,6.92-5S200.73,154.36,188,158.31Z" style="fill:#92E3A9"></path></clipPath><clipPath id="freepik--clip-path-25--inject-43"><path d="M205.43,137.48s-.75-3.75-3.66-4.57a12.65,12.65,0,0,1-4.05-1.69S198.62,137,205.43,137.48Z" style="fill:#92E3A9"></path></clipPath><clipPath id="freepik--clip-path-26--inject-43"><path d="M205.17,141.05s-.23-6,3.92-8.28,5.54-4,5.54-4S215.36,137.88,205.17,141.05Z" style="fill:#92E3A9"></path></clipPath><clipPath id="freepik--clip-path-27--inject-43"><path d="M108.54,287.51s-.58,3.26,0,4.11,2.4.69,2.4.69.84,4.15-6.07,4.56c-7.1.43-10.26-3.79-10.26-3.79s3.51-1.09,4.26-2.14c1.19-1.69,2.09-8,2.09-8Z" style="fill:#999;stroke:#263238;stroke-linecap:round;stroke-linejoin:round"></path></clipPath><clipPath id="freepik--clip-path-28--inject-43"><path d="M168.34,273.76l-4.12-1.05a2.87,2.87,0,0,1-2.06-3.49l3.76-14.67A5,5,0,0,1,172,251h0a5,5,0,0,1,3.59,6.08l-3.76,14.67A2.87,2.87,0,0,1,168.34,273.76Z" style="fill:#fff;stroke:#263238;stroke-linecap:round;stroke-linejoin:round"></path></clipPath><clipPath id="freepik--clip-path-29--inject-43"><path d="M225.94,312.44l-.68,1.15a7.71,7.71,0,0,0,6.32,3.3l.08-1.24a1,1,0,0,0-.66-1,10.64,10.64,0,0,1-4.11-2.39A.62.62,0,0,0,225.94,312.44Z" style="fill:#92E3A9;stroke:#263238;stroke-linecap:round;stroke-linejoin:round"></path></clipPath><clipPath id="freepik--clip-path-30--inject-43"><path d="M211.25,345.87s4.74,9.3,3.6,23.47c0,0,1.46,10.18-1.57,33.08,0,0,.76,2.89-.48,3.8l-3.07,42.67s-5.95,1.23-10-.71c0,0-.32-28.38,2.61-41.89,0,0-1.49-2.33.4-3.46,0,0-4.77-22.66-4.72-30.21,0,0-7.15-11.16-7.15-22.46Z" style="fill:#fff;opacity:0.7000000000000001"></path></clipPath><clipPath id="freepik--clip-path-31--inject-43"><path d="M201.65,300.15c.75.81,1,3.65-3.34,3.83s-9.62-6.69-9.62-6.69,2.82.09,4.26-4c.63-1.8,1.93-7.38,1.93-7.38l7.06,6.69L200,299.15A10.72,10.72,0,0,1,201.65,300.15Z" style="fill:#fff;stroke:#263238;stroke-linecap:round;stroke-linejoin:round"></path></clipPath><clipPath id="freepik--clip-path-32--inject-43"><path d="M190,297.41s6.22,6.81,8.69,6.23,1.58-4.32,1.58-4.32.33-.65,2.11.69c0,0,1.36,3.47,1.05,5.92a2.27,2.27,0,0,0-1.39-1.83c-.74-.26-1.6.23-2.62.33s-3.3-.18-4.08.16a2.75,2.75,0,0,0-1.57,2s-3.7-2-6.37-9.23C187.41,297.33,187.67,296.06,190,297.41Z" style="fill:#92E3A9;stroke:#263238;stroke-linecap:round;stroke-linejoin:round"></path></clipPath><clipPath id="freepik--clip-path-33--inject-43"><path d="M213.94,325.46h1.83a.72.72,0,0,1,.73.7,25,25,0,0,0,1.15,6,.73.73,0,0,1-.49.91l-1.77.54S213.67,331.05,213.94,325.46Z" style="fill:#92E3A9;stroke:#263238;stroke-linecap:round;stroke-linejoin:round"></path></clipPath><clipPath id="freepik--clip-path-34--inject-43"><path d="M332,418.42l-12.78,4c-.83,6-14.63,12.66-18.77-6.56.05-1.13.9-1,.92-2,.14-8.61-1.28-13.66-2.86-17.85a26.91,26.91,0,0,1-3.55,4.16l-9.34-9.81c6-7.94,10.29-13.89,13.06-15.44a9.26,9.26,0,0,1,1.56-1c3.88-2.11,8.61-3,13.28-5.15a9.59,9.59,0,0,1,1.38-.53,10,10,0,0,1,12.48,6.7C334.76,399.67,332,418.42,332,418.42Z" style="fill:#92E3A9;stroke:#263238;stroke-linecap:round;stroke-linejoin:round"></path></clipPath><clipPath id="freepik--clip-path-35--inject-43"><path d="M318.08,422.49a44,44,0,0,0-.7,13.35,12.58,12.58,0,0,0,5.26,9c3.53,2.24,8.64,2.6,12,.14,6.4-4.69,10.69-16.37,7.74-47.59-.29-3.1-4.14-4.88-7.17-5.58C324.36,389.33,319.94,415.07,318.08,422.49Z" style="fill:#263238"></path></clipPath></defs><g id="freepik--Cloud--inject-43"><path d="M455.72,151.2c-3.36-1.84-4.9-.31-6.12-1.84s1.57-5.79-5.83-9.51c-3.55-1.79-.6-8.58-13.18-8.89s-10.53,7.25-13.91,9.38-4.29-1.23-7.66.91-1.84,6.45-4.6,7.05S399.33,147,396,149s-3.38,4-4.9,4-4.6-1.22-6.44,0l-.05,0a1.49,1.49,0,0,0,.82,2.73h70.17a2.14,2.14,0,0,0,1.48-3.69A5.82,5.82,0,0,0,455.72,151.2Z" style="fill:none;stroke:#263238;stroke-linecap:round;stroke-linejoin:round;stroke-width:0.75px"></path><path d="M409.85,149.94a13.69,13.69,0,0,1-1.34.64" style="fill:none;stroke:#263238;stroke-linecap:round;stroke-linejoin:round;stroke-width:0.75px"></path><path d="M423.45,139.35c-.56,2.81-1.87,4.68-3.38,4.87s-7.1-.37-8,1.68a8.9,8.9,0,0,0-.52,1.88" style="fill:none;stroke:#263238;stroke-linecap:round;stroke-linejoin:round;stroke-width:0.75px"></path><path d="M426.44,135.61a5.25,5.25,0,0,0-2.33,2.06" style="fill:none;stroke:#263238;stroke-linecap:round;stroke-linejoin:round;stroke-width:0.75px"></path><path d="M182.65,127.14c-4.65-2.54-6.79-.43-8.47-2.54s2.17-8-8.06-13.16c-4.91-2.47-.84-11.86-18.22-12.28s-14.56,10-19.23,13-5.93-1.71-10.6,1.26-2.54,8.91-6.35,9.74-7-1.85-11.71,1-4.67,5.56-6.78,5.56-6.36-1.69-8.9,0l-.07,0a2.07,2.07,0,0,0,1.14,3.79h97a3,3,0,0,0,2.05-5.12A8.34,8.34,0,0,0,182.65,127.14Z" style="fill:none;stroke:#263238;stroke-linecap:round;stroke-linejoin:round;stroke-width:0.75px"></path><path d="M119.22,125.39a18.48,18.48,0,0,1-1.85.89" style="fill:none;stroke:#263238;stroke-linecap:round;stroke-linejoin:round;stroke-width:0.75px"></path><path d="M138,110.76c-.78,3.89-2.6,6.46-4.67,6.72s-9.82-.5-11.12,2.34a11.58,11.58,0,0,0-.72,2.59" style="fill:none;stroke:#263238;stroke-linecap:round;stroke-linejoin:round;stroke-width:0.75px"></path><path d="M142.16,105.59a7.28,7.28,0,0,0-3.23,2.85" style="fill:none;stroke:#263238;stroke-linecap:round;stroke-linejoin:round;stroke-width:0.75px"></path><path d="M104.35,198.11c-3.36-1.84-4.9-.31-6.12-1.84s1.57-5.8-5.83-9.52c-3.55-1.78-.6-8.57-13.18-8.88s-10.53,7.25-13.91,9.38-4.29-1.23-7.66.91-1.84,6.45-4.6,7.05-5.09-1.34-8.47.74-3.38,4-4.9,4-4.6-1.22-6.44,0l-.05,0a1.49,1.49,0,0,0,.82,2.73h70.17a2.14,2.14,0,0,0,1.49-3.69A6.13,6.13,0,0,0,104.35,198.11Z" style="fill:none;stroke:#263238;stroke-linecap:round;stroke-linejoin:round;stroke-width:0.75px"></path><path d="M58.48,196.85c-.44.23-.88.45-1.34.64" style="fill:none;stroke:#263238;stroke-linecap:round;stroke-linejoin:round;stroke-width:0.75px"></path><path d="M72.08,186.26c-.56,2.81-1.87,4.68-3.38,4.86s-7.1-.36-8,1.69a8.9,8.9,0,0,0-.52,1.88" style="fill:none;stroke:#263238;stroke-linecap:round;stroke-linejoin:round;stroke-width:0.75px"></path><path d="M75.07,182.52a5.25,5.25,0,0,0-2.33,2.06" style="fill:none;stroke:#263238;stroke-linecap:round;stroke-linejoin:round;stroke-width:0.75px"></path><path d="M365.25,66.26h-.6a32.5,32.5,0,0,0-7,.83A27,27,0,0,1,365.25,66.26Z" style="fill:none;stroke:#263238;stroke-linecap:round;stroke-linejoin:round;stroke-width:0.75px"></path><path d="M429.76,102.1h-129a2.15,2.15,0,0,1-1.19-3.94l.08-.06c2.64-1.75,7.06,0,9.26,0s2.2-2.79,7.07-5.79,8.22-.19,12.2-1.06,1.75-7.06,6.62-10.15c3.62-2.3,5.27-.2,7.9-.25a6.1,6.1,0,0,0,3.14-1.06c3.92-2.48,2.76-10.07,11.73-12.65l.14,0a32.5,32.5,0,0,1,7-.83h1.2a32.5,32.5,0,0,1,7,.83l.14,0c9,2.59,7.8,10.17,11.72,12.65a6.1,6.1,0,0,0,3.14,1.06c2.63.05,4.28-2,7.9.25,4.87,3.09,2.65,9.28,6.63,10.15s7.33-1.93,12.2,1.06,4.86,5.79,7.06,5.79,6.62-1.75,9.27,0l.08.06A2.15,2.15,0,0,1,429.76,102.1Z" style="fill:none;stroke:#263238;stroke-linecap:round;stroke-linejoin:round;stroke-width:0.75px"></path><path d="M372.82,67.1a32.5,32.5,0,0,0-7-.83h-.6A27,27,0,0,1,372.82,67.1Z" style="fill:none;stroke:#263238;stroke-linecap:round;stroke-linejoin:round;stroke-width:0.75px"></path><path d="M350.9,78.76c-.68,2.81-3.61,5-5.42,5.15-4.16.27-6.72-2.79-8.86.27a9.47,9.47,0,0,0-1.24,3" style="fill:none;stroke:#263238;stroke-linecap:round;stroke-linejoin:round;stroke-width:0.75px"></path><path d="M354.49,75a6,6,0,0,0-2.8,2.06" style="fill:none;stroke:#263238;stroke-linecap:round;stroke-linejoin:round;stroke-width:0.75px"></path></g><g id="freepik--green-leaves--inject-43"><path d="M428.51,215.31c-1.86,4-7,8.34-10.64,5.59a8.59,8.59,0,0,1-1.53-1.6c2.11-2.57,2.34-6.68,5.21-8.27,1.58-.88,5-2.22,6.63-1.53C430.34,210.42,429.51,213.08,428.51,215.31Z" style="fill:#92E3A9"></path><path d="M417,224.54c-3,2-6.15,3.15-10.24.47a6.13,6.13,0,0,1-2.11-2.43,3.68,3.68,0,0,1-.14-3.09,3.46,3.46,0,0,1,3.41-1.85,9.61,9.61,0,0,1,3.94,1.25,13.84,13.84,0,0,1,3.53,2.7A9.9,9.9,0,0,1,417,224.54Z" style="fill:#92E3A9"></path><path d="M413.93,208.84c1.29,7.68,3.36,15.08,4.76,22.54" style="fill:none;stroke:#92E3A9;stroke-miterlimit:10"></path><path d="M433,239.14a11.67,11.67,0,0,1-5.27,5c-2.14,1-4.37,1-6-.64a10.42,10.42,0,0,1-1.3-1.78,15.76,15.76,0,0,0,2.76-4.27,8.14,8.14,0,0,1,3.07-3.77c1.6-.86,5-2.31,6.67-1.36C435.14,233.63,434.28,236.82,433,239.14Z" style="fill:#92E3A9"></path><path d="M420.33,247a11,11,0,0,1-5,1.16,8.8,8.8,0,0,1-5.21-2.24,5.39,5.39,0,0,1-1.7-2.4,2.81,2.81,0,0,1,.24-2.65,3.92,3.92,0,0,1,3.6-1.41,8.91,8.91,0,0,1,3.76,1.46,10.85,10.85,0,0,1,3.15,3A9.91,9.91,0,0,1,420.33,247Z" style="fill:#92E3A9"></path><path d="M418.69,231.38c.74,3.73,1.22,7.48,1.62,11.25s.53,7.55.47,11.34" style="fill:none;stroke:#92E3A9;stroke-miterlimit:10"></path><path d="M433.39,264.28c-3.05,3.69-9.27,6-11.87,2.22a8.2,8.2,0,0,1-.95-2,9.08,9.08,0,0,0,1.9-1.67c.55-.64,1.07-1.33,1.6-2a8.18,8.18,0,0,1,3.77-3.1c1.74-.53,5.35-1.29,6.8-.05C436.49,259.34,435,262.28,433.39,264.28Z" style="fill:#92E3A9"></path><path d="M419.49,269.64c-3.55.9-6.82.85-9.85-2.86-1.31-1.57-1.88-4-.49-5.4a3.77,3.77,0,0,1,3.77-.72,9.16,9.16,0,0,1,3.46,2.16,12.09,12.09,0,0,1,2.52,3.54A8.88,8.88,0,0,1,419.49,269.64Z" style="fill:#92E3A9"></path><path d="M420.78,254a154.3,154.3,0,0,1-2,22.68" style="fill:none;stroke:#92E3A9;stroke-miterlimit:10"></path><path d="M429.66,289.11a11.07,11.07,0,0,1-6.84,2.9c-2.34.09-4.39-.8-5.26-2.89A9.94,9.94,0,0,1,417,287a13,13,0,0,0,4.1-3,7.88,7.88,0,0,1,4.12-2.58c1.78-.28,5.48-.48,6.73.91a2.79,2.79,0,0,1,.3,3.18A10.16,10.16,0,0,1,429.66,289.11Z" style="fill:#92E3A9"></path><path d="M414.88,291.71c-3.65.07-6.77-.88-9-4.92-.93-1.71-1.13-3.93.41-4.81a4.52,4.52,0,0,1,3.82.06,8.25,8.25,0,0,1,3.05,2.53,10.07,10.07,0,0,1,1.84,3.86A8.61,8.61,0,0,1,414.88,291.71Z" style="fill:#92E3A9"></path><path d="M418.82,276.65l-.95,5.63a49.44,49.44,0,0,1-1.34,5.43,84.6,84.6,0,0,1-4,10.56" style="fill:none;stroke:#92E3A9;stroke-miterlimit:10"></path><path d="M419.35,313.2a11.54,11.54,0,0,1-7.35.86c-2.3-.56-4-2-4.27-4.23a10.8,10.8,0,0,1,.07-2.2c3.32-.26,6.26-3.35,9.53-3,1.79.24,5.44,1,6.18,2.83C424.51,309.86,421.77,312,419.35,313.2Z" style="fill:#92E3A9"></path><path d="M404.45,311.57a11.06,11.06,0,0,1-4.57-2.31,9.32,9.32,0,0,1-2.7-4.89c-.45-1.87,0-4.05,1.78-4.61a4.08,4.08,0,0,1,3.69,1.08,9,9,0,0,1,2.16,3.4,10.71,10.71,0,0,1,.68,4.23A8.37,8.37,0,0,1,404.45,311.57Z" style="fill:#92E3A9"></path><path d="M412.52,298.27a71.72,71.72,0,0,1-12.23,18.84" style="fill:none;stroke:#92E3A9;stroke-miterlimit:10"></path><path d="M401.2,333.71a11.77,11.77,0,0,1-4-.33,10,10,0,0,1-3.4-1.63,5.06,5.06,0,0,1-2.09-5.65,13.12,13.12,0,0,1,.93-2,12.6,12.6,0,0,0,5.1.2,9.22,9.22,0,0,1,5,.42c1.62.82,4.85,2.73,4.89,4.72C407.68,332.16,404,333.45,401.2,333.71Z" style="fill:#92E3A9"></path><path d="M388.05,326.26a10,10,0,0,1-3.53-9.56c.23-1.83,1.16-3.4,2.89-3.14a4.53,4.53,0,0,1,2.95,2.44,8.54,8.54,0,0,1,.84,3.87,9.21,9.21,0,0,1-.94,4.07A7.21,7.21,0,0,1,388.05,326.26Z" style="fill:#92E3A9"></path><path d="M400.29,317.11a49.43,49.43,0,0,1-8.44,7.27,38.06,38.06,0,0,1-10,4.73" style="fill:none;stroke:#92E3A9;stroke-miterlimit:10"></path><path d="M375.84,344a13,13,0,0,1-5.49-4.57c-1.27-2-1.62-4.16-.27-6a8.53,8.53,0,0,1,1.58-1.54c2.59,2.08,6.73,2.21,8.35,5.08a25.35,25.35,0,0,1,1.53,3.22,4.27,4.27,0,0,1,.11,3.37C380.8,345.68,378.12,344.91,375.84,344Z" style="fill:#92E3A9"></path><path d="M366.46,332.47c-2-3.05-3-6.19-.49-10.24,1-1.71,3.29-3.11,5.29-2.26a3.49,3.49,0,0,1,1.92,3.38,9.82,9.82,0,0,1-1.19,4,12.65,12.65,0,0,1-2.62,3.55A9.18,9.18,0,0,1,366.46,332.47Z" style="fill:#92E3A9"></path><path d="M381.87,329.11c-.87.31-1.78.46-2.67.7l-2.82.63-5.61,1.34c-1.86.45-3.71.88-5.56,1.25-.92.19-1.85.36-2.78.52s-1.86.29-2.84.47" style="fill:none;stroke:#92E3A9;stroke-miterlimit:10"></path><path d="M354.84,348.75a18.14,18.14,0,0,1-2.8-1.61,17.16,17.16,0,0,1-2.66-2.3c-1.53-1.66-2.52-3.74-1.52-5.77a7.87,7.87,0,0,1,1.31-1.81c2.92,1.67,6.88,1.53,8.54,4.42.94,1.53,2.29,4.93,1.83,6.54a1.78,1.78,0,0,1-.71,1.08,1.69,1.69,0,0,1-1.12.29A9.51,9.51,0,0,1,354.84,348.75Z" style="fill:#92E3A9"></path><path d="M344.05,339a11,11,0,0,1-3.28-3.95c-.65-1.58-.67-3.46.57-6,1-2.12,3.84-4.2,6.26-3.65a3.11,3.11,0,0,1,2.4,3.12,10.85,10.85,0,0,1-1,4.15,19.34,19.34,0,0,1-2.31,4A13.57,13.57,0,0,1,344.05,339Z" style="fill:#92E3A9"></path><path d="M359.59,334a52.89,52.89,0,0,0-21.61,9.1" style="fill:none;stroke:#92E3A9;stroke-miterlimit:10"></path><path d="M340,358.5a17.61,17.61,0,0,1-6.59-1.22c-2.14-.89-3.86-2.3-3.84-4.58a6.87,6.87,0,0,1,.43-2.19c3.32.25,6.88-1.53,9.61.34,1.5,1,4.18,3.45,4.46,5.13C344.42,358.17,342.11,358.39,340,358.5Z" style="fill:#92E3A9"></path><path d="M326.08,354.29c-3.48-1-6.73-2.21-6.69-7.86a7.94,7.94,0,0,1,1.17-3.68,5.16,5.16,0,0,1,2.95-2.29,3.16,3.16,0,0,1,3.51,1.82,11.17,11.17,0,0,1,.85,4.18,20,20,0,0,1-.38,4.62,7.4,7.4,0,0,1-.62,1.65C326.63,353.27,326.35,353.78,326.08,354.29Z" style="fill:#92E3A9"></path><path d="M338,343.12a52.65,52.65,0,0,0-15.63,17.48" style="fill:none;stroke:#92E3A9;stroke-miterlimit:10"></path><path d="M430.76,359.53a10.55,10.55,0,0,1-4.07.17,9.3,9.3,0,0,1-3.57-1.25c-2-1.25-3.12-3.2-2.63-5.4a8.84,8.84,0,0,1,.73-2.06,12.16,12.16,0,0,0,5.1-.44,10.37,10.37,0,0,1,5.05-.41c1.74.53,5.32,1.77,5.6,3.86a4.11,4.11,0,0,1-1.88,3.61A11.52,11.52,0,0,1,430.76,359.53Z" style="fill:#92E3A9"></path><path d="M416.81,353.58a9.79,9.79,0,0,1-4.47-9.17c.1-1.8.72-3.48,2.41-3.29a4.93,4.93,0,0,1,3.16,2.1,8,8,0,0,1,1.35,3.68,8.86,8.86,0,0,1-.47,4.15A7.43,7.43,0,0,1,416.81,353.58Z" style="fill:#92E3A9"></path><path d="M427.67,343a37.23,37.23,0,0,1-16.76,14.18" style="fill:none;stroke:#92E3A9;stroke-miterlimit:10"></path><path d="M405.3,372.81a10.91,10.91,0,0,1-5.93-4.61c-1.2-2-1.35-4.25.09-6a11,11,0,0,1,1.63-1.49c2.52,2.2,6.86,2,9.05,4.46,1.17,1.4,3.4,4.43,2.64,6.27C411.74,373.92,408,373.69,405.3,372.81Z" style="fill:#92E3A9"></path><path d="M395.91,361a10.91,10.91,0,0,1-1.5-4.89,9.49,9.49,0,0,1,1.66-5.33,5.33,5.33,0,0,1,2-1.91,2.3,2.3,0,0,1,2.31,0,4.36,4.36,0,0,1,1.82,3.38,8.79,8.79,0,0,1-.78,3.91,9.9,9.9,0,0,1-2.5,3.44A8.19,8.19,0,0,1,395.91,361Z" style="fill:#92E3A9"></path><path d="M410.91,357.17a51.21,51.21,0,0,1-10.7,3.45A67.17,67.17,0,0,1,389,361.89" style="fill:none;stroke:#92E3A9;stroke-miterlimit:10"></path><path d="M378.68,374.65a11.67,11.67,0,0,1-4-6.11c-.55-2.28-.14-4.46,1.74-5.74a8.94,8.94,0,0,1,2-.95c1.77,2.83,5.84,4.07,7,7.19.58,1.71,1.48,5.33.21,6.79C383.86,377.77,380.74,376.3,378.68,374.65Z" style="fill:#92E3A9"></path><path d="M373.27,360.72c-.88-3.53-.74-6.83,3-9.81,1.56-1.25,3.89-1.89,5.26-.5a3.91,3.91,0,0,1,.73,3.78,8.9,8.9,0,0,1-2.12,3.44,11.19,11.19,0,0,1-3.53,2.55A9.09,9.09,0,0,1,373.27,360.72Z" style="fill:#92E3A9"></path><path d="M389,361.89A112.34,112.34,0,0,1,366.23,360" style="fill:none;stroke:#92E3A9;stroke-miterlimit:10"></path><path d="M354.51,371a13.23,13.23,0,0,1-3-6.33c-.37-2.29.06-4.48,2-5.64a8.47,8.47,0,0,1,2.09-.78c1.53,3,5.23,4.79,5.72,8.07.25,1.78.37,5.49-1,6.71C358.49,374.63,356.09,372.77,354.51,371Z" style="fill:#92E3A9"></path><path d="M350.48,356.78c-.83-3.52-1.06-6.92,3.45-9.68,1.9-1.16,4.85-1.47,6.29.14a3.52,3.52,0,0,1,.34,3.87,9.48,9.48,0,0,1-2.72,3.11,14,14,0,0,1-3.93,2.18A11.44,11.44,0,0,1,350.48,356.78Z" style="fill:#92E3A9"></path><path d="M366.23,360c-7.53-1.32-15.12-3.22-23-3.58" style="fill:none;stroke:#92E3A9;stroke-miterlimit:10"></path><path d="M335.63,369.75a21.38,21.38,0,0,1-4.37-4.83c-1.23-1.89-2-4.05-.67-5.94a7.07,7.07,0,0,1,1.63-1.55,34.08,34.08,0,0,0,4.33,2.61,6.48,6.48,0,0,1,3.14,3.41c.59,1.7,1.17,5.31.37,6.78C339.05,372.19,337.24,371,335.63,369.75Z" style="fill:#92E3A9"></path><path d="M326.76,358.44a10.94,10.94,0,0,1-2.92-4.24c-.46-1.61-.21-3.61,1.68-6,1.57-2.06,5.12-3.71,7.51-2.69a3,3,0,0,1,1.8,3.53,11,11,0,0,1-1.9,3.87,23.36,23.36,0,0,1-3.13,3.59A17.67,17.67,0,0,1,326.76,358.44Z" style="fill:#92E3A9"></path><path d="M343.19,356.37a44.15,44.15,0,0,0-11.89,1,27.92,27.92,0,0,0-11,5.07" style="fill:none;stroke:#92E3A9;stroke-miterlimit:10"></path><path d="M417,201.75c1.07,2.34,1.25,5.64.42,7.46-.1.24-1.72,3.64-2.52,3.76a8.92,8.92,0,0,1-5-3.09,11,11,0,0,1-2.7-5.75c-.23-2,.78-6.22,3.36-7S416.17,200,417,201.75Z" style="fill:#92E3A9"></path><path d="M433.89,336.53c-.22,2.57-1.7,5.53-3.32,6.71-.2.15-3.3,2.31-4.05,2a8.91,8.91,0,0,1-2.82-5.16,11,11,0,0,1,.5-6.33c.78-1.87,3.74-5,6.39-4.46S434.05,334.65,433.89,336.53Z" style="fill:#92E3A9"></path><path d="M130.06,319c0,.24,1.42.8-2,2.39-8.37,3.9-23.67,9.61-32.55,4.23-12.68-7.69,6.36-14.44,2-19.78s-22.28,8-29.81.91,7.72-11.44,5.18-15.64-15.39,8-24.27.85,6.51-7.76,2.75-10.68-27.32-11.77-21.94-18.18,28.21,3.57,34.2,3.15.4-17.21,9.57-14.63,14.91,29.06,24.23,28.76c6.93-.22,0-7.68,7.52-10.42C115.2,266.2,132.9,299.32,130.06,319Z" style="fill:#92E3A9"></path><g style="opacity:0.1"><path d="M130.06,319c0,.24,1.42.8-2,2.39-8.37,3.9-23.67,9.61-32.55,4.23-12.68-7.69,6.36-14.44,2-19.78s-22.28,8-29.81.91,7.72-11.44,5.18-15.64-15.39,8-24.27.85,6.51-7.76,2.75-10.68-27.32-11.77-21.94-18.18,28.21,3.57,34.2,3.15.4-17.21,9.57-14.63,14.91,29.06,24.23,28.76c6.93-.22,0-7.68,7.52-10.42C115.2,266.2,132.9,299.32,130.06,319Z"></path></g><path d="M75.23,282.33s42.45,8.9,73.53,63.56" style="fill:none;stroke:#92E3A9;stroke-miterlimit:10"></path><path d="M73.09,291.48c7.28-5,12.82-5.47,12.82-5.47" style="fill:none;stroke:#92E3A9;stroke-miterlimit:10"></path><path d="M72.29,263.92S87.85,273,94.9,290.42" style="fill:none;stroke:#92E3A9;stroke-miterlimit:10"></path><path d="M110.82,301s-9.94-3.75-18,3.61" style="fill:none;stroke:#92E3A9;stroke-miterlimit:10"></path><path d="M120.21,309s.09-10.33-7.08-21.87" style="fill:none;stroke:#92E3A9;stroke-miterlimit:10"></path><path d="M171.33,354c-.16,6.21-6.39,16.57-12.18,20.48s-1.82-7.75-6.34-6.73S151,383.6,144.43,386s-4.59-8.08-7.88-7.81-3.1,11.26-10.06,14.48-2.73-6.25-5.61-4.86-15.29,12.94-17.54,7.78,10.6-15.94,12.15-19.67-7-5-2.66-9.75,22-.28,24.6-6c1.94-4.25-6.31-2.77-4-7.66C137.39,344,171.39,351.51,171.33,354Z" style="fill:#92E3A9"></path><path d="M117.3,381.69s31.72-29.64,77.18-29.43" style="fill:none;stroke:#92E3A9;stroke-miterlimit:10"></path><path d="M131.33,383.06a32.43,32.43,0,0,1,3.16-12.87v0" style="fill:none;stroke:#92E3A9;stroke-miterlimit:10"></path><path d="M115.75,370.74s11.25-6.49,24.71-4.64" style="fill:none;stroke:#92E3A9;stroke-miterlimit:10"></path><path d="M148.3,362a13.75,13.75,0,0,0-3.75,12.63" style="fill:none;stroke:#92E3A9;stroke-miterlimit:10"></path><path d="M161.14,356.9a32.63,32.63,0,0,0-16.29-3.46" style="fill:none;stroke:#92E3A9;stroke-miterlimit:10"></path><path d="M31.33,335.61c2.32-9,29.92-9.87,35.72-13.14s-3.94-13.53,6.46-15.32,28.77,22,37.95,17.22c6.83-3.53-5.37-10,2.55-14,13.87-7,50.29,37.22,47.64,40.43-6.51,7.89-25.09,15-36.57,14.17-11.65-.82,5.51-11.9-1.39-15.16s-18.48,18.6-29.39,15.12,2.27-15.13-2.27-18.11-15.46,11.43-27.74,8.53,2.81-10.86-2.34-12S29,344.59,31.33,335.61" style="fill:#92E3A9"></path><path d="M31.33,335.61c2.32-9,29.92-9.87,35.72-13.14s-3.94-13.53,6.46-15.32,28.77,22,37.95,17.22c6.83-3.53-5.37-10,2.55-14,13.87-7,50.29,37.22,47.64,40.43-6.51,7.89-25.09,15-36.57,14.17-11.65-.82,5.51-11.9-1.39-15.16s-18.48,18.6-29.39,15.12,2.27-15.13-2.27-18.11-15.46,11.43-27.74,8.53,2.81-10.86-2.34-12S29,344.59,31.33,335.61" style="fill:#fff;opacity:0.30000000000000004"></path><path d="M70.72,335.28S126.63,324,199.18,368.55" style="fill:none;stroke:#92E3A9;stroke-miterlimit:10"></path><path d="M68.82,355.68c7.08-15.86,17-21.48,17.56-21.82h0" style="fill:none;stroke:#92E3A9;stroke-miterlimit:10"></path><path d="M100.35,334.25C90,324.66,77.81,319.59,68.94,317" style="fill:none;stroke:#92E3A9;stroke-miterlimit:10"></path><path d="M126.56,338.32s-14.78.93-21,14.45" style="fill:none;stroke:#92E3A9;stroke-miterlimit:10"></path><path d="M143.06,343s-5.66-12.72-21.24-22.88" style="fill:none;stroke:#92E3A9;stroke-miterlimit:10"></path></g><g id="freepik--Windmill--inject-43"><polygon points="286 128.84 279.01 128.84 280.91 79.76 284.1 79.76 286 128.84" style="fill:#fff;stroke:#263238;stroke-linecap:round;stroke-linejoin:round"></polygon><polygon points="287.93 74.96 286.15 73.09 300.93 59.89 301.87 60.88 287.93 74.96" style="fill:#fff;stroke:#263238;stroke-linecap:round;stroke-linejoin:round"></polygon><polygon points="285.04 84.75 282.52 85.35 281.65 79.21 275.5 77.95 276.23 75.47 281.99 77.79 286.15 73.09 287.93 74.96 283.04 78.78 285.04 84.75" style="fill:#fff;stroke:#263238;stroke-linecap:round;stroke-linejoin:round"></polygon><polygon points="275.5 77.95 256.68 71.75 257.07 70.44 276.23 75.47 275.5 77.95" style="fill:#fff;stroke:#263238;stroke-linecap:round;stroke-linejoin:round"></polygon><polygon points="289.08 104.14 287.75 104.46 282.52 85.35 285.04 84.75 289.08 104.14" style="fill:#fff;stroke:#263238;stroke-linecap:round;stroke-linejoin:round"></polygon><circle cx="282.51" cy="78.52" r="2.59" style="fill:#92E3A9;stroke:#263238;stroke-linecap:round;stroke-linejoin:round"></circle><polygon points="220.42 135.89 213.44 135.89 215.34 86.81 218.52 86.81 220.42 135.89" style="fill:#fff;stroke:#263238;stroke-linecap:round;stroke-linejoin:round"></polygon><polygon points="209.88 87.18 211.02 89.5 192.97 97.69 192.37 96.46 209.88 87.18" style="fill:#fff;stroke:#263238;stroke-linecap:round;stroke-linejoin:round"></polygon><polygon points="215.55 78.7 218.13 78.88 217.13 85 222.63 88.03 221.19 90.18 216.39 86.25 211.02 89.5 209.88 87.18 215.69 84.99 215.55 78.7" style="fill:#fff;stroke:#263238;stroke-linecap:round;stroke-linejoin:round"></polygon><polygon points="222.63 88.03 238.75 99.56 237.98 100.7 221.19 90.18 222.63 88.03" style="fill:#fff;stroke:#263238;stroke-linecap:round;stroke-linejoin:round"></polygon><polygon points="217.48 58.99 218.85 59.07 218.13 78.88 215.55 78.7 217.48 58.99" style="fill:#fff;stroke:#263238;stroke-linecap:round;stroke-linejoin:round"></polygon><circle cx="216.93" cy="85.56" r="2.59" style="fill:#92E3A9;stroke:#263238;stroke-linecap:round;stroke-linejoin:round"></circle><polygon points="254.32 126.05 243.6 126.05 246.51 50.69 251.4 50.69 254.32 126.05" style="fill:#fff;stroke:#263238;stroke-linecap:round;stroke-linejoin:round"></polygon><polygon points="241.71 41.44 239.53 44.76 214.63 27.28 215.78 25.52 241.71 41.44" style="fill:#fff;stroke:#263238;stroke-linecap:round;stroke-linejoin:round"></polygon><polygon points="257.34 42.34 259.12 45.89 250.24 49.34 250.52 58.98 246.56 58.75 248.01 49.33 239.53 44.76 241.71 41.44 249.13 47.42 257.34 42.34" style="fill:#fff;stroke:#263238;stroke-linecap:round;stroke-linejoin:round"></polygon><polygon points="250.52 58.98 247.83 89.28 245.74 89.15 246.56 58.75 250.52 58.98" style="fill:#fff;stroke:#263238;stroke-linecap:round;stroke-linejoin:round"></polygon><polygon points="284.92 29.52 285.87 31.4 259.12 45.89 257.34 42.34 284.92 29.52" style="fill:#fff;stroke:#263238;stroke-linecap:round;stroke-linejoin:round"></polygon><path d="M252.93,48.78a4,4,0,1,1-4-4A4,4,0,0,1,252.93,48.78Z" style="fill:#92E3A9;stroke:#263238;stroke-linecap:round;stroke-linejoin:round"></path></g><g id="freepik--Earth--inject-43"><circle cx="250" cy="241.4" r="139.33" style="fill:#92E3A9"></circle><g style="clip-path:url(#freepik--clip-path--inject-43)"><circle cx="250" cy="241.4" r="139.33" style="fill:#263238;opacity:0.2"></circle><g style="clip-path:url(#freepik--clip-path-2--inject-43)"><path d="M179,159.27c-1.61-1.21-9.32,1.41-9.35-.87,0-1.53,5.2-5.79,6.17-7.7,1.43-2.82.69-6.76,2-9.41.73-1.45,2.72-4.82,4.36-6.2,7.84-6.62,19.79-13.8,29.75-14.29,3.58-.18,8.49,6,9.3,10.77.48,2.84,0,11.3-2.52,14.27-3.79,4.47-12.11,4.51-16.53,8-5.14,4-7.64,13.59-13.57,16.77-1.64.88-4.78-.85-5.84-1.75C180.85,167.17,180.88,160.67,179,159.27Z" style="fill:#92E3A9"></path><path d="M340.56,302.67a4.84,4.84,0,0,0-2.78.17c-2.3,1.33-5.66,6.35-6.85,8.82-1.36,2.82-3,8.94-2.87,11.58.08,1.48.93,4.42,2.15,4.57.93.11,3.37-1.71,4.24-2.75,4.45-5.33,9.79-13.62,9.39-20.23C343.78,303.84,341.57,302.92,340.56,302.67Z" style="fill:#92E3A9"></path><path d="M256.09,175.18c1.67-.17,5.37-1.07,6.39-2.58,1.65-2.44,2.28-9.76.55-11.83-.72-.87-3.43-.69-4.35.07-1.2,1-.88,5.2-2.08,6.25s-4.58-.43-5.62.75-1.32,5-.51,6.2S254.63,175.32,256.09,175.18Z" style="fill:#92E3A9"></path><path d="M339.2,134.37a6.68,6.68,0,0,0-2.51,4.22c-.06,1.14,2.24,4.4,1.95,5.41-.72,2.45-6.49,4.2-9.39,2.65-.89-.47-1.67-3.18-2.52-3.78-3.59-2.49-10.43-.8-13.9-1a28.31,28.31,0,0,1-5-.28c-5.88-1.81-12-7.9-18-8.14-3-.12-9.71,4.15-11.81,7.3a28.56,28.56,0,0,0-4.65,15c0,2.21,2,6.92,3.77,8.1s6.65,1.43,8.26.05c1.12-1,.48-5,1.39-6.21s4.64-3.43,5.74-2.4c3.33,3.12,4.12,11.8,2.12,15.58-2.16,4.05-11.11,8.24-15.74,6.08-1.71-.8-.29-7.2-1.76-8.73s-5.82-2.57-7.24-1.23c-1.73,1.63,1.22,8-.2,10-1.56,2.22-7.79,1.52-9.91,3.2-1.57,1.24-4.22,4.87-4.42,6.89-.16,1.74,3.65,4.7,2.71,6.19-1.33,2.13-7.93-1.82-9.56.11-2.18,2.59-.61,10.92,1.83,13,1.83,1.57,7.8,1.46,9.78-.07,1.41-1.08.55-5.82,2-6.86,1.88-1.37,6.85,1.14,9.07.59,1.72-.43,4.32-4.05,6.05-3.75,2.31.41,5.67,5.1,6.1,7.5.33,1.79-3.72,5.61-2.39,6.85,1.63,1.51,7.11-1.67,7.93-3.72,1-2.58-4.79-8-3.82-10.61a4.25,4.25,0,0,1,3.56-1.85c3.35.81,5.4,10.31,8.79,11.27,2.4.67,6.57-4.22,9-3.64,2.87.68,7.47,5.9,8.36,8.76.61,2-.16,6.77-1.56,8-4.81,4.28-13.79,5.29-20.39,4.88-3.13-.2-9.52-2.77-11.82-5-1.6-1.55-1.94-7.07-3.73-8.11-4.66-2.7-12.08-2.27-17.2-.58-9.07,3-20.07,11.57-25.15,20-1.83,3,0,11.17-1.82,14.2-.58.94-3.18,1.47-3.68,2.45-1.55,3-1.13,10.66.52,13.55,3.1,5.38,9.79,10.66,15.32,12.56,6.33,2.17,15-1.33,21.73.19,2.12.48,6.69,3,7.86,5,1.53,2.68-.83,9.75.61,12.47,1.2,2.24,7.71,2.17,8.62,4.34,3.3,7.85-4.57,18.43-3.36,26.82.4,2.83,4.78,7.23,5.19,9.9.76,5-2,11.72-.06,16.18,1.27,2.93,8.73,4.1,11.53,2.63,6-3.16,12.66-10.78,15.49-16.85,2.58-5.55.37-14.22,3.18-19.06,2.27-3.92,9.58-5.79,12-9.73,3.6-5.84.82-16.56,4.21-22.64,2.65-4.76,10.36-7.54,12.89-12.53,1-2,.5-7.89-.93-9.05-3.5-2.85-11.75-.87-15.1-4-1.47-1.37.67-7.55-.23-9.81-.85-2.1-5.36-4.58-6.11-6.74-.8-2.32-1.19-8.16.61-9.85.79-.73,3.46-.49,4.36,0,4.85,2.72,8.91,8.69,10.53,14.06.56,1.83-1.95,6.29-.91,7.94.75,1.19,4.06,2,5.47,1.75,6.21-1,16.86-5.61,17.87-10.45,1.24-5.93-14.92-12.66-13.2-19.28.55-2.1,8.77-2,11.16-.49,1.68,1.09,1.53,5.79,2.74,7.21,3.3,3.86,8.45,6.51,13.1,8.91,2.18,1.13,8,1.45,9.23,3.45,1.6,2.61-3.08,9.55-2.17,12.27a33.82,33.82,0,0,0,5.67,9.9,140.73,140.73,0,0,0,2-23.84A139.05,139.05,0,0,0,339.2,134.37Z" style="fill:#92E3A9"></path><path d="M177.09,331.46c-5.21-4.94-11.24-12.76-11.81-19-.66-7.22,13.41-10.48,14.17-18.55.28-2.9-6.72-10.53-6.17-13.58s8.38-6.14,8-9.44c-.7-6.73-7.85-14.32-13.46-17.94-3-1.95-11.79.48-14.41-2.06-1.25-1.21.76-5.15-.52-6.27-1.62-1.44-6.66.69-8.71-.13-2.37-1-4.87-6-7.13-6.77-7.67-2.56-18.86,3.75-26.37.75,0,1,0,1.95,0,2.93,0,.23,0,.46,0,.69a7.4,7.4,0,0,1,3.15,3c.61,1.64-.4,5.2-1.65,6.28a2.1,2.1,0,0,1-1.13.34q.44,6,1.36,11.78c3.85,2.44,8.89,4.06,11.4,7.4,1.54,2-1.74,6.76,0,8.76,3.46,3.93,11.27,4.26,15.1,7.74,9,8.13,10.45,24.56,20.54,33.84,1.77,1.62,6,3.18,7.71,4.86,2.44,2.37,3.44,6.78,6.06,9.05,4.48,3.88,12.07,10.29,16.22,9.94.76-.07-2.1-6.47-4.51-9C183.17,334.14,179,333.25,177.09,331.46Z" style="fill:#92E3A9"></path><path d="M115.85,216.36c.75.32,2.93.44,3.69-.15,1.78-1.39.22-5.93,1.69-7.5C127.44,202,140,202.5,145.8,195.3c1.64-2-.86-7.25,1.35-8.77,7-4.81,18,5.24,24.13.83,3.6-2.6,6.81-11.59,5.13-15.66-.31-.75-4.21,1.07-5,.5-1.58-1.14,1.07-8.19-.38-8.68-4.16-1.41-11.09,2.25-15.45,4.64-1.2.66-3.31,3.32-4.48,3.69-2.48.79-7.36-.91-6.05-2.71,2.9-4,10.44-5,14.58-8.21,3.65-2.82,10.08-8.67,10-11.68-.12-4.09-17.51.52-21.85,2.71-2.57,1.29-8.12,6.63-10.75,7.9a138.78,138.78,0,0,0-23.38,52.81C114.26,214.17,114.77,215.9,115.85,216.36Z" style="fill:#92E3A9"></path><g style="opacity:0.5"><path d="M179,159.27c-1.61-1.21-9.32,1.41-9.35-.87,0-1.53,5.2-5.79,6.17-7.7,1.43-2.82.69-6.76,2-9.41.73-1.45,2.72-4.82,4.36-6.2,7.84-6.62,19.79-13.8,29.75-14.29,3.58-.18,8.49,6,9.3,10.77.48,2.84,0,11.3-2.52,14.27-3.79,4.47-12.11,4.51-16.53,8-5.14,4-7.64,13.59-13.57,16.77-1.64.88-4.78-.85-5.84-1.75C180.85,167.17,180.88,160.67,179,159.27Z" style="fill:#fff"></path><path d="M340.56,302.67a4.84,4.84,0,0,0-2.78.17c-2.3,1.33-5.66,6.35-6.85,8.82-1.36,2.82-3,8.94-2.87,11.58.08,1.48.93,4.42,2.15,4.57.93.11,3.37-1.71,4.24-2.75,4.45-5.33,9.79-13.62,9.39-20.23C343.78,303.84,341.57,302.92,340.56,302.67Z" style="fill:#fff"></path><path d="M256.09,175.18c1.67-.17,5.37-1.07,6.39-2.58,1.65-2.44,2.28-9.76.55-11.83-.72-.87-3.43-.69-4.35.07-1.2,1-.88,5.2-2.08,6.25s-4.58-.43-5.62.75-1.32,5-.51,6.2S254.63,175.32,256.09,175.18Z" style="fill:#fff"></path><path d="M339.2,134.37a6.68,6.68,0,0,0-2.51,4.22c-.06,1.14,2.24,4.4,1.95,5.41-.72,2.45-6.49,4.2-9.39,2.65-.89-.47-1.67-3.18-2.52-3.78-3.59-2.49-10.43-.8-13.9-1a28.31,28.31,0,0,1-5-.28c-5.88-1.81-12-7.9-18-8.14-3-.12-9.71,4.15-11.81,7.3a28.56,28.56,0,0,0-4.65,15c0,2.21,2,6.92,3.77,8.1s6.65,1.43,8.26.05c1.12-1,.48-5,1.39-6.21s4.64-3.43,5.74-2.4c3.33,3.12,4.12,11.8,2.12,15.58-2.16,4.05-11.11,8.24-15.74,6.08-1.71-.8-.29-7.2-1.76-8.73s-5.82-2.57-7.24-1.23c-1.73,1.63,1.22,8-.2,10-1.56,2.22-7.79,1.52-9.91,3.2-1.57,1.24-4.22,4.87-4.42,6.89-.16,1.74,3.65,4.7,2.71,6.19-1.33,2.13-7.93-1.82-9.56.11-2.18,2.59-.61,10.92,1.83,13,1.83,1.57,7.8,1.46,9.78-.07,1.41-1.08.55-5.82,2-6.86,1.88-1.37,6.85,1.14,9.07.59,1.72-.43,4.32-4.05,6.05-3.75,2.31.41,5.67,5.1,6.1,7.5.33,1.79-3.72,5.61-2.39,6.85,1.63,1.51,7.11-1.67,7.93-3.72,1-2.58-4.79-8-3.82-10.61a4.25,4.25,0,0,1,3.56-1.85c3.35.81,5.4,10.31,8.79,11.27,2.4.67,6.57-4.22,9-3.64,2.87.68,7.47,5.9,8.36,8.76.61,2-.16,6.77-1.56,8-4.81,4.28-13.79,5.29-20.39,4.88-3.13-.2-9.52-2.77-11.82-5-1.6-1.55-1.94-7.07-3.73-8.11-4.66-2.7-12.08-2.27-17.2-.58-9.07,3-20.07,11.57-25.15,20-1.83,3,0,11.17-1.82,14.2-.58.94-3.18,1.47-3.68,2.45-1.55,3-1.13,10.66.52,13.55,3.1,5.38,9.79,10.66,15.32,12.56,6.33,2.17,15-1.33,21.73.19,2.12.48,6.69,3,7.86,5,1.53,2.68-.83,9.75.61,12.47,1.2,2.24,7.71,2.17,8.62,4.34,3.3,7.85-4.57,18.43-3.36,26.82.4,2.83,4.78,7.23,5.19,9.9.76,5-2,11.72-.06,16.18,1.27,2.93,8.73,4.1,11.53,2.63,6-3.16,12.66-10.78,15.49-16.85,2.58-5.55.37-14.22,3.18-19.06,2.27-3.92,9.58-5.79,12-9.73,3.6-5.84.82-16.56,4.21-22.64,2.65-4.76,10.36-7.54,12.89-12.53,1-2,.5-7.89-.93-9.05-3.5-2.85-11.75-.87-15.1-4-1.47-1.37.67-7.55-.23-9.81-.85-2.1-5.36-4.58-6.11-6.74-.8-2.32-1.19-8.16.61-9.85.79-.73,3.46-.49,4.36,0,4.85,2.72,8.91,8.69,10.53,14.06.56,1.83-1.95,6.29-.91,7.94.75,1.19,4.06,2,5.47,1.75,6.21-1,16.86-5.61,17.87-10.45,1.24-5.93-14.92-12.66-13.2-19.28.55-2.1,8.77-2,11.16-.49,1.68,1.09,1.53,5.79,2.74,7.21,3.3,3.86,8.45,6.51,13.1,8.91,2.18,1.13,8,1.45,9.23,3.45,1.6,2.61-3.08,9.55-2.17,12.27a33.82,33.82,0,0,0,5.67,9.9,140.73,140.73,0,0,0,2-23.84A139.05,139.05,0,0,0,339.2,134.37Z" style="fill:#fff"></path><path d="M177.09,331.46c-5.21-4.94-11.24-12.76-11.81-19-.66-7.22,13.41-10.48,14.17-18.55.28-2.9-6.72-10.53-6.17-13.58s8.38-6.14,8-9.44c-.7-6.73-7.85-14.32-13.46-17.94-3-1.95-11.79.48-14.41-2.06-1.25-1.21.76-5.15-.52-6.27-1.62-1.44-6.66.69-8.71-.13-2.37-1-4.87-6-7.13-6.77-7.67-2.56-18.86,3.75-26.37.75,0,1,0,1.95,0,2.93,0,.23,0,.46,0,.69a7.4,7.4,0,0,1,3.15,3c.61,1.64-.4,5.2-1.65,6.28a2.1,2.1,0,0,1-1.13.34q.44,6,1.36,11.78c3.85,2.44,8.89,4.06,11.4,7.4,1.54,2-1.74,6.76,0,8.76,3.46,3.93,11.27,4.26,15.1,7.74,9,8.13,10.45,24.56,20.54,33.84,1.77,1.62,6,3.18,7.71,4.86,2.44,2.37,3.44,6.78,6.06,9.05,4.48,3.88,12.07,10.29,16.22,9.94.76-.07-2.1-6.47-4.51-9C183.17,334.14,179,333.25,177.09,331.46Z" style="fill:#fff"></path><path d="M115.85,216.36c.75.32,2.93.44,3.69-.15,1.78-1.39.22-5.93,1.69-7.5C127.44,202,140,202.5,145.8,195.3c1.64-2-.86-7.25,1.35-8.77,7-4.81,18,5.24,24.13.83,3.6-2.6,6.81-11.59,5.13-15.66-.31-.75-4.21,1.07-5,.5-1.58-1.14,1.07-8.19-.38-8.68-4.16-1.41-11.09,2.25-15.45,4.64-1.2.66-3.31,3.32-4.48,3.69-2.48.79-7.36-.91-6.05-2.71,2.9-4,10.44-5,14.58-8.21,3.65-2.82,10.08-8.67,10-11.68-.12-4.09-17.51.52-21.85,2.71-2.57,1.29-8.12,6.63-10.75,7.9a138.78,138.78,0,0,0-23.38,52.81C114.26,214.17,114.77,215.9,115.85,216.36Z" style="fill:#fff"></path></g></g></g><circle cx="250" cy="241.4" r="139.33" style="fill:none;stroke:#263238;stroke-linecap:round;stroke-linejoin:round"></circle></g><g id="freepik--Plants--inject-43"><path d="M315.17,281.22s1.44-3.3-.37-5.49a12,12,0,0,1-2.21-3.47S310.17,277.21,315.17,281.22Z" style="fill:#92E3A9"></path><g style="clip-path:url(#freepik--clip-path-3--inject-43)"><path d="M315.17,281.22s1.44-3.3-.37-5.49a12,12,0,0,1-2.21-3.47S310.17,277.21,315.17,281.22Z" style="opacity:0.2"></path></g><path d="M315,280.22a15.78,15.78,0,0,0-2.14-6.55" style="fill:none;stroke:#263238;stroke-linecap:round;stroke-linejoin:round"></path><path d="M322,259.82s1.43-3.29-.38-5.48a11.91,11.91,0,0,1-2.21-3.48S317,255.81,322,259.82Z" style="fill:#92E3A9"></path><g style="clip-path:url(#freepik--clip-path-4--inject-43)"><path d="M322,259.82s1.43-3.29-.38-5.48a11.91,11.91,0,0,1-2.21-3.48S317,255.81,322,259.82Z" style="opacity:0.2"></path></g><path d="M321.89,258.82a15.69,15.69,0,0,0-2.13-6.54" style="fill:none;stroke:#263238;stroke-linecap:round;stroke-linejoin:round"></path><path d="M308.29,306.13s1.44-3.29-.37-5.48a11.85,11.85,0,0,1-2.22-3.48S303.29,302.12,308.29,306.13Z" style="fill:#92E3A9"></path><g style="clip-path:url(#freepik--clip-path-5--inject-43)"><path d="M308.29,306.13s1.44-3.29-.37-5.48a11.85,11.85,0,0,1-2.22-3.48S303.29,302.12,308.29,306.13Z" style="opacity:0.2"></path></g><path d="M308.29,306.13s1.44-3.29-.37-5.48a11.85,11.85,0,0,1-2.22-3.48S303.29,302.12,308.29,306.13Z" style="fill:none;stroke:#263238;stroke-linecap:round;stroke-linejoin:round"></path><path d="M308.15,305.13a15.53,15.53,0,0,0-2.13-6.54" style="fill:none;stroke:#263238;stroke-linecap:round;stroke-linejoin:round"></path><path d="M311.88,310.24s3.13-1.77,3-4.61a12,12,0,0,1,.32-4.11S310.29,304,311.88,310.24Z" style="fill:#92E3A9"></path><g style="clip-path:url(#freepik--clip-path-6--inject-43)"><path d="M311.88,310.24s3.13-1.77,3-4.61a12,12,0,0,1,.32-4.11S310.29,304,311.88,310.24Z" style="opacity:0.2"></path></g><path d="M312.38,309.36a15.7,15.7,0,0,0,2.22-6.51" style="fill:none;stroke:#263238;stroke-linecap:round;stroke-linejoin:round"></path><path d="M306.93,313.16s3.43-1.07,5.42,1a12,12,0,0,0,3.22,2.57S310.38,318.57,306.93,313.16Z" style="fill:#92E3A9"></path><g style="clip-path:url(#freepik--clip-path-7--inject-43)"><path d="M306.93,313.16s3.43-1.07,5.42,1a12,12,0,0,0,3.22,2.57S310.38,318.57,306.93,313.16Z" style="opacity:0.2"></path></g><path d="M307.91,313.41a15.65,15.65,0,0,1,6.28,2.82" style="fill:none;stroke:#263238;stroke-linecap:round;stroke-linejoin:round"></path><path d="M298.77,312.43s1.44-3.3-.37-5.49a11.85,11.85,0,0,1-2.22-3.48S293.77,308.42,298.77,312.43Z" style="fill:#92E3A9"></path><g style="clip-path:url(#freepik--clip-path-8--inject-43)"><path d="M298.77,312.43s1.44-3.3-.37-5.49a11.85,11.85,0,0,1-2.22-3.48S293.77,308.42,298.77,312.43Z" style="opacity:0.2"></path></g><path d="M298.63,311.42a15.69,15.69,0,0,0-2.13-6.54" style="fill:none;stroke:#263238;stroke-linecap:round;stroke-linejoin:round"></path><path d="M301.33,323.39s1.44-3.3-.37-5.49a11.91,11.91,0,0,1-2.21-3.48S296.33,319.38,301.33,323.39Z" style="fill:#92E3A9"></path><g style="clip-path:url(#freepik--clip-path-9--inject-43)"><path d="M301.33,323.39s1.44-3.3-.37-5.49a11.91,11.91,0,0,1-2.21-3.48S296.33,319.38,301.33,323.39Z" style="opacity:0.2"></path></g><path d="M301.2,322.39a15.83,15.83,0,0,0-2.13-6.55" style="fill:none;stroke:#263238;stroke-linecap:round;stroke-linejoin:round"></path><path d="M310.5,299.52s0-3.59,2.49-4.9a11.9,11.9,0,0,0,3.39-2.34S316.67,297.79,310.5,299.52Z" style="fill:#92E3A9"></path><g style="clip-path:url(#freepik--clip-path-10--inject-43)"><path d="M310.5,299.52s0-3.59,2.49-4.9a11.9,11.9,0,0,0,3.39-2.34S316.67,297.79,310.5,299.52Z" style="opacity:0.2"></path></g><path d="M311,298.65a15.75,15.75,0,0,1,4.52-5.19" style="fill:none;stroke:#263238;stroke-linecap:round;stroke-linejoin:round"></path><path d="M318.58,272.07s0-3.6,2.49-4.91a12,12,0,0,0,3.4-2.33S324.75,270.34,318.58,272.07Z" style="fill:#92E3A9"></path><g style="clip-path:url(#freepik--clip-path-11--inject-43)"><path d="M318.58,272.07s0-3.6,2.49-4.91a12,12,0,0,0,3.4-2.33S324.75,270.34,318.58,272.07Z" style="opacity:0.2"></path></g><path d="M319.1,271.2a15.68,15.68,0,0,1,4.52-5.19" style="fill:none;stroke:#263238;stroke-linecap:round;stroke-linejoin:round"></path><path d="M317.52,277.48s2.38-2.69,5.13-2a11.93,11.93,0,0,0,4.09.54S323.26,280.33,317.52,277.48Z" style="fill:#92E3A9"></path><g style="clip-path:url(#freepik--clip-path-12--inject-43)"><path d="M317.52,277.48s2.38-2.69,5.13-2a11.93,11.93,0,0,0,4.09.54S323.26,280.33,317.52,277.48Z" style="opacity:0.2"></path></g><path d="M318.49,277.19a15.43,15.43,0,0,1,6.83-.83" style="fill:none;stroke:#263238;stroke-linecap:round;stroke-linejoin:round"></path><path d="M297.88,332.13a157.27,157.27,0,0,0,12.43-32.82c4.82-18.86,13.93-44.38,13.93-44.38" style="fill:none;stroke:#263238;stroke-linecap:round;stroke-linejoin:round"></path><path d="M332.46,270.67s-10.73.18-16.49,9.05" style="fill:none;stroke:#263238;stroke-linecap:round;stroke-linejoin:round"></path><path d="M301.83,276.84s10.84,4.22,10.37,15.48" style="fill:none;stroke:#263238;stroke-linecap:round;stroke-linejoin:round"></path><path d="M324.51,309.72S313,305.25,305,315.64" style="fill:none;stroke:#263238;stroke-linecap:round;stroke-linejoin:round"></path><path d="M303.34,319.58s-4.61-9.87-12-13.8" style="fill:none;stroke:#263238;stroke-linecap:round;stroke-linejoin:round"></path><path d="M327.92,267.49c.07,1.13,1.22,5.07,2.35,5s1.79-4.12,1.72-5.24a2,2,0,1,0-4.07.24Z" style="fill:#fff"></path><path d="M332.45,274.77c-.07-1.12-1.23-5.06-2.35-5s-1.79,4.12-1.72,5.24a2,2,0,1,0,4.07-.25Z" style="fill:#fff"></path><path d="M326.54,273.4c1.13-.07,5.07-1.23,5-2.35s-4.12-1.79-5.24-1.72a2,2,0,1,0,.24,4.07Z" style="fill:#fff"></path><path d="M333.82,268.87c-1.12.07-5.06,1.22-5,2.35s4.12,1.79,5.24,1.72a2,2,0,0,0-.25-4.07Z" style="fill:#fff"></path><path d="M327.77,271.28a2.41,2.41,0,1,0,2.27-2.56A2.42,2.42,0,0,0,327.77,271.28Z" style="fill:#92E3A9"></path><path d="M308.06,281.61c.07,1.13,1.22,5.06,2.35,5s1.79-4.12,1.72-5.25a2,2,0,1,0-4.07.25Z" style="fill:#fff"></path><path d="M312.59,288.89c-.07-1.12-1.23-5.06-2.35-5s-1.79,4.12-1.72,5.24a2,2,0,1,0,4.07-.25Z" style="fill:#fff"></path><path d="M306.68,287.52c1.13-.07,5.07-1.23,5-2.35s-4.12-1.79-5.24-1.72a2,2,0,1,0,.24,4.07Z" style="fill:#fff"></path><path d="M314,283c-1.12.07-5.06,1.22-5,2.34s4.12,1.79,5.24,1.73A2,2,0,0,0,314,283Z" style="fill:#fff"></path><path d="M307.91,285.4a2.41,2.41,0,1,0,2.27-2.56A2.42,2.42,0,0,0,307.91,285.4Z" style="fill:#92E3A9"></path><path d="M289.11,302.14c.07,1.12,1.22,5.06,2.35,5s1.79-4.12,1.72-5.24a2,2,0,1,0-4.07.25Z" style="fill:#fff"></path><path d="M293.64,309.42c-.07-1.13-1.23-5.06-2.35-5s-1.79,4.12-1.72,5.25a2,2,0,0,0,4.07-.25Z" style="fill:#fff"></path><path d="M287.73,308c1.13-.07,5.07-1.22,5-2.34s-4.12-1.8-5.24-1.73a2,2,0,1,0,.24,4.07Z" style="fill:#fff"></path><path d="M295,303.51c-1.12.07-5.06,1.23-5,2.35s4.12,1.79,5.24,1.72a2,2,0,1,0-.25-4.07Z" style="fill:#fff"></path><path d="M289,305.93a2.41,2.41,0,1,0,2.27-2.56A2.42,2.42,0,0,0,289,305.93Z" style="fill:#92E3A9"></path><path d="M324.42,250.45c.06,1.12,1.22,5.06,2.34,5s1.79-4.12,1.73-5.24a2,2,0,0,0-4.07.25Z" style="fill:#fff"></path><path d="M329,257.73c-.07-1.13-1.23-5.07-2.35-5s-1.79,4.12-1.72,5.25a2,2,0,0,0,4.07-.25Z" style="fill:#fff"></path><path d="M323,256.35c1.12-.07,5.06-1.22,5-2.35s-4.12-1.79-5.25-1.72a2,2,0,0,0,.25,4.07Z" style="fill:#fff"></path><path d="M330.32,251.82c-1.12.07-5.06,1.23-5,2.35s4.12,1.79,5.24,1.72a2,2,0,1,0-.25-4.07Z" style="fill:#fff"></path><path d="M324.27,254.23a2.41,2.41,0,1,0,2.26-2.55A2.42,2.42,0,0,0,324.27,254.23Z" style="fill:#92E3A9"></path><path d="M315.58,259.8c.06,1.13,1.22,5.06,2.34,5s1.79-4.12,1.73-5.25a2,2,0,1,0-4.07.25Z" style="fill:#fff"></path><path d="M320.11,267.08c-.07-1.12-1.23-5.06-2.35-5s-1.79,4.12-1.72,5.24a2,2,0,0,0,4.07-.25Z" style="fill:#fff"></path><path d="M314.2,265.71c1.12-.07,5.06-1.23,5-2.35s-4.12-1.79-5.25-1.72a2,2,0,0,0,.25,4.07Z" style="fill:#fff"></path><path d="M321.48,261.18c-1.12.07-5.06,1.22-5,2.34s4.12,1.79,5.24,1.73a2,2,0,1,0-.25-4.07Z" style="fill:#fff"></path><path d="M315.43,263.59a2.41,2.41,0,1,0,2.26-2.56A2.42,2.42,0,0,0,315.43,263.59Z" style="fill:#92E3A9"></path><path d="M322.32,305.72c.07,1.12,1.22,5.06,2.35,5s1.79-4.12,1.72-5.25a2,2,0,1,0-4.07.25Z" style="fill:#fff"></path><path d="M326.85,313c-.07-1.12-1.23-5.06-2.35-5s-1.79,4.12-1.72,5.24a2,2,0,1,0,4.07-.25Z" style="fill:#fff"></path><path d="M320.94,311.63c1.13-.07,5.07-1.23,5-2.35s-4.12-1.79-5.25-1.72a2,2,0,1,0,.25,4.07Z" style="fill:#fff"></path><path d="M328.22,307.1c-1.12.07-5.06,1.22-5,2.34s4.12,1.79,5.24,1.73a2,2,0,1,0-.25-4.07Z" style="fill:#fff"></path><path d="M322.17,309.51a2.41,2.41,0,1,0,2.27-2.56A2.42,2.42,0,0,0,322.17,309.51Z" style="fill:#92E3A9"></path><path d="M299.43,272.6c.07,1.12,1.23,5.06,2.35,5s1.79-4.12,1.72-5.24a2,2,0,0,0-4.07.25Z" style="fill:#fff"></path><path d="M304,279.88c-.07-1.13-1.22-5.07-2.35-5s-1.79,4.12-1.72,5.25a2,2,0,1,0,4.07-.25Z" style="fill:#fff"></path><path d="M298.06,278.5c1.12-.07,5.06-1.22,5-2.35s-4.12-1.79-5.24-1.72a2,2,0,0,0,.25,4.07Z" style="fill:#fff"></path><path d="M305.34,274c-1.13.07-5.07,1.23-5,2.35s4.12,1.79,5.24,1.72a2,2,0,0,0-.24-4.07Z" style="fill:#fff"></path><path d="M299.29,276.38a2.41,2.41,0,1,0,2.26-2.55A2.41,2.41,0,0,0,299.29,276.38Z" style="fill:#92E3A9"></path><path d="M293.21,302.29s-1-3.44,1-5.4a11.92,11.92,0,0,0,2.61-3.19S298.65,298.9,293.21,302.29Z" style="fill:#92E3A9"></path><g style="clip-path:url(#freepik--clip-path-13--inject-43)"><path d="M293.21,302.29s-1-3.44,1-5.4a11.92,11.92,0,0,0,2.61-3.19S298.65,298.9,293.21,302.29Z" style="opacity:0.2"></path></g><path d="M293.47,301.31a15.56,15.56,0,0,1,2.89-6.24" style="fill:none;stroke:#263238;stroke-linecap:round;stroke-linejoin:round"></path><path d="M288.94,280.23s-1-3.44,1-5.4a11.92,11.92,0,0,0,2.61-3.19S294.38,276.84,288.94,280.23Z" style="fill:#92E3A9"></path><g style="clip-path:url(#freepik--clip-path-14--inject-43)"><path d="M288.94,280.23s-1-3.44,1-5.4a11.92,11.92,0,0,0,2.61-3.19S294.38,276.84,288.94,280.23Z" style="opacity:0.2"></path></g><path d="M289.2,279.25a15.56,15.56,0,0,1,2.89-6.24" style="fill:none;stroke:#263238;stroke-linecap:round;stroke-linejoin:round"></path><path d="M297.09,327.84s-1-3.44,1-5.4a11.92,11.92,0,0,0,2.61-3.19S302.54,324.46,297.09,327.84Z" style="fill:#92E3A9"></path><g style="clip-path:url(#freepik--clip-path-15--inject-43)"><path d="M297.09,327.84s-1-3.44,1-5.4a11.92,11.92,0,0,0,2.61-3.19S302.54,324.46,297.09,327.84Z" style="opacity:0.2"></path></g><path d="M297.35,326.86a15.62,15.62,0,0,1,2.89-6.24" style="fill:none;stroke:#263238;stroke-linecap:round;stroke-linejoin:round"></path><path d="M295.68,321s.46-3.57-1.89-5.17a11.7,11.7,0,0,1-3.09-2.72S289.76,318.57,295.68,321Z" style="fill:#92E3A9"></path><g style="clip-path:url(#freepik--clip-path-16--inject-43)"><path d="M295.68,321s.46-3.57-1.89-5.17a11.7,11.7,0,0,1-3.09-2.72S289.76,318.57,295.68,321Z" style="opacity:0.2"></path></g><path d="M295.68,321s.46-3.57-1.89-5.17a11.7,11.7,0,0,1-3.09-2.72S289.76,318.57,295.68,321Z" style="fill:none;stroke:#263238;stroke-linecap:round;stroke-linejoin:round"></path><path d="M295.27,320.09a15.75,15.75,0,0,0-3.87-5.69" style="fill:none;stroke:#263238;stroke-linecap:round;stroke-linejoin:round"></path><path d="M290.91,292.8s.46-3.57-1.89-5.17a11.7,11.7,0,0,1-3.09-2.72S285,290.35,290.91,292.8Z" style="fill:#92E3A9"></path><g style="clip-path:url(#freepik--clip-path-17--inject-43)"><path d="M290.91,292.8s.46-3.57-1.89-5.17a11.7,11.7,0,0,1-3.09-2.72S285,290.35,290.91,292.8Z" style="opacity:0.2"></path></g><path d="M290.5,291.87a15.75,15.75,0,0,0-3.87-5.69" style="fill:none;stroke:#263238;stroke-linecap:round;stroke-linejoin:round"></path><path d="M291.32,298.3s-2-3-4.86-2.57a11.84,11.84,0,0,1-4.12,0S285.28,300.45,291.32,298.3Z" style="fill:#92E3A9"></path><g style="clip-path:url(#freepik--clip-path-18--inject-43)"><path d="M291.32,298.3s-2-3-4.86-2.57a11.84,11.84,0,0,1-4.12,0S285.28,300.45,291.32,298.3Z" style="opacity:0.2"></path></g><path d="M290.4,297.89a15.78,15.78,0,0,0-6.69-1.63" style="fill:none;stroke:#263238;stroke-linecap:round;stroke-linejoin:round"></path><path d="M297.88,332.13c-.75-3.41-1.44-7.19-2-11.31-2.55-19.29-8.57-45.71-8.57-45.71" style="fill:none;stroke:#263238;stroke-linecap:round;stroke-linejoin:round"></path><path d="M277.3,289.77s10.62,1.45,15.29,10.93" style="fill:none;stroke:#263238;stroke-linecap:round;stroke-linejoin:round"></path><path d="M307,299.52s-11.27,2.91-12.13,14.14" style="fill:none;stroke:#263238;stroke-linecap:round;stroke-linejoin:round"></path><path d="M282.18,287.15c-.2,1.11-1.81,4.88-2.92,4.68s-1.29-4.3-1.09-5.41a2,2,0,0,1,4,.73Z" style="fill:#fff"></path><path d="M276.82,293.84c.2-1.11,1.82-4.88,2.92-4.68s1.29,4.3,1.09,5.41a2,2,0,1,1-4-.73Z" style="fill:#fff"></path><path d="M282.85,293.18c-1.11-.21-4.89-1.82-4.68-2.93s4.3-1.29,5.41-1.09a2,2,0,0,1-.73,4Z" style="fill:#fff"></path><path d="M276.16,287.82c1.1.2,4.88,1.81,4.68,2.92s-4.31,1.29-5.41,1.09a2,2,0,1,1,.73-4Z" style="fill:#fff"></path><path d="M281.88,290.93a2.41,2.41,0,1,1-1.95-2.81A2.42,2.42,0,0,1,281.88,290.93Z" style="fill:#92E3A9"></path><path d="M287.68,270.64c-.2,1.11-1.82,4.88-2.92,4.68s-1.29-4.3-1.09-5.41a2,2,0,0,1,4,.73Z" style="fill:#fff"></path><path d="M282.32,277.33c.2-1.11,1.81-4.88,2.92-4.68s1.29,4.3,1.09,5.41a2,2,0,1,1-4-.73Z" style="fill:#fff"></path><path d="M288.34,276.66c-1.1-.2-4.88-1.81-4.68-2.92s4.31-1.29,5.41-1.09a2,2,0,1,1-.73,4Z" style="fill:#fff"></path><path d="M281.65,271.3c1.11.21,4.89,1.82,4.68,2.93s-4.3,1.29-5.41,1.09a2,2,0,0,1,.73-4Z" style="fill:#fff"></path><path d="M287.37,274.42a2.4,2.4,0,0,1-2.8,1.94,2.41,2.41,0,1,1,2.8-1.94Z" style="fill:#92E3A9"></path><path d="M309.86,295.59c-.2,1.11-1.81,4.88-2.92,4.68s-1.29-4.3-1.09-5.41a2,2,0,1,1,4,.73Z" style="fill:#fff"></path><path d="M304.5,302.28c.2-1.1,1.82-4.88,2.93-4.68s1.29,4.31,1.08,5.41a2,2,0,0,1-4-.73Z" style="fill:#fff"></path><path d="M310.53,301.62c-1.11-.2-4.88-1.82-4.68-2.92s4.3-1.29,5.41-1.09a2,2,0,0,1-.73,4Z" style="fill:#fff"></path><path d="M303.84,296.26c1.11.2,4.88,1.81,4.68,2.92s-4.3,1.29-5.41,1.09a2,2,0,0,1,.73-4Z" style="fill:#fff"></path><path d="M309.56,299.37a2.41,2.41,0,1,1-1.94-2.81A2.42,2.42,0,0,1,309.56,299.37Z" style="fill:#92E3A9"></path><path d="M140.45,175.38s-2-5-6.32-5.36a18.15,18.15,0,0,1-6.09-1.27S130.86,176.58,140.45,175.38Z" style="fill:#92E3A9"></path><g style="clip-path:url(#freepik--clip-path-19--inject-43)"><path d="M140.45,175.38s-2-5-6.32-5.36a18.15,18.15,0,0,1-6.09-1.27S130.86,176.58,140.45,175.38Z" style="opacity:0.2"></path></g><path d="M139.8,175a23.69,23.69,0,0,0-9.32-4.58" style="fill:none;stroke:#263238;stroke-linecap:round;stroke-linejoin:round"></path><path d="M141.05,180.41s-1.92-8.26,3.22-12.57,6.62-7.12,6.62-7.12S154.37,173.26,141.05,180.41Z" style="fill:#92E3A9"></path><g style="clip-path:url(#freepik--clip-path-20--inject-43)"><path d="M141.05,180.41s-1.92-8.26,3.22-12.57,6.62-7.12,6.62-7.12S154.37,173.26,141.05,180.41Z" style="opacity:0.2"></path></g><path d="M141.45,179.79A36.84,36.84,0,0,1,150,166" style="fill:none;stroke:#263238;stroke-linecap:round;stroke-linejoin:round"></path><path d="M143.12,192s-4-7.49-10.69-7.35-9.67-1-9.67-1S128.39,195.38,143.12,192Z" style="fill:#92E3A9"></path><g style="clip-path:url(#freepik--clip-path-21--inject-43)"><path d="M143.12,192s-4-7.49-10.69-7.35-9.67-1-9.67-1S128.39,195.38,143.12,192Z" style="opacity:0.2"></path></g><path d="M142.47,191.67A37,37,0,0,0,127.25,186" style="fill:none;stroke:#263238;stroke-linecap:round;stroke-linejoin:round"></path><path d="M143.36,195.73s1.15-8.41,7.49-10.59,8.72-4.29,8.72-4.29S158.36,193.8,143.36,195.73Z" style="fill:#92E3A9"></path><g style="clip-path:url(#freepik--clip-path-22--inject-43)"><path d="M143.36,195.73s1.15-8.41,7.49-10.59,8.72-4.29,8.72-4.29S158.36,193.8,143.36,195.73Z" style="opacity:0.2"></path></g><path d="M143.55,195.9a37,37,0,0,1,12.33-10.56" style="fill:none;stroke:#263238;stroke-linecap:round;stroke-linejoin:round"></path><path d="M137.67,163.52a227.69,227.69,0,0,1,5.73,32" style="fill:none;stroke:#263238;stroke-linecap:round;stroke-linejoin:round"></path><path d="M127.36,176.37s10.41-3.82,15,11.22" style="fill:none;stroke:#263238;stroke-linecap:round;stroke-linejoin:round"></path><path d="M153.13,171.1s-9.81,5.15-10.23,20.28" style="fill:none;stroke:#263238;stroke-linecap:round;stroke-linejoin:round"></path><path d="M154.92,165.11c0,1-.76,4.8-1.82,4.82s-2-3.7-2-4.75a1.91,1.91,0,1,1,3.81-.07Z" style="fill:#fff"></path><path d="M151.33,177.09c0-1.05.77-4.8,1.82-4.82s2,3.7,2,4.75a1.91,1.91,0,0,1-3.81.07Z" style="fill:#fff"></path><path d="M159.12,172.89c-1.05,0-4.81-.76-4.83-1.81s3.71-2,4.76-2a1.9,1.9,0,1,1,.07,3.8Z" style="fill:#fff"></path><path d="M147.14,169.31c1.05,0,4.8.76,4.82,1.81s-3.7,2-4.75,2a1.9,1.9,0,1,1-.07-3.8Z" style="fill:#fff"></path><path d="M158.63,168.13c-.73.76-3.94,2.86-4.69,2.13s1.22-4,1.95-4.77a1.9,1.9,0,0,1,2.74,2.64Z" style="fill:#fff"></path><path d="M147.62,174.07c.73-.76,3.94-2.86,4.7-2.13s-1.23,4-2,4.77a1.9,1.9,0,1,1-2.74-2.64Z" style="fill:#fff"></path><path d="M156.09,176.6c-.75-.72-2.85-3.93-2.12-4.69s4,1.22,4.77,2a1.91,1.91,0,1,1-2.65,2.74Z" style="fill:#fff"></path><path d="M150.16,165.6c.76.73,2.86,3.93,2.13,4.69s-4-1.22-4.77-1.95a1.9,1.9,0,1,1,2.64-2.74Z" style="fill:#fff"></path><path d="M155.38,171.06a2.26,2.26,0,1,1-2.3-2.21A2.25,2.25,0,0,1,155.38,171.06Z" style="fill:#92E3A9;stroke:#263238;stroke-linecap:round;stroke-linejoin:round"></path><path d="M139.4,154.08c0,1-.77,4.81-1.82,4.83s-2-3.71-2-4.76a1.91,1.91,0,0,1,3.81-.07Z" style="fill:#fff"></path><path d="M135.81,166.06c0-1.05.76-4.8,1.81-4.82s2,3.7,2,4.75a1.91,1.91,0,0,1-3.81.07Z" style="fill:#fff"></path><path d="M143.59,161.87c-1.05,0-4.8-.77-4.82-1.82s3.7-2,4.75-2a1.91,1.91,0,0,1,.07,3.81Z" style="fill:#fff"></path><path d="M131.61,158.28c1,0,4.81.76,4.83,1.82s-3.71,2-4.76,2a1.91,1.91,0,1,1-.07-3.81Z" style="fill:#fff"></path><path d="M143.11,157.11c-.73.75-3.94,2.85-4.7,2.12s1.23-4,2-4.77a1.91,1.91,0,1,1,2.74,2.65Z" style="fill:#fff"></path><path d="M132.1,163c.73-.76,3.94-2.86,4.69-2.13s-1.22,4-1.95,4.77A1.9,1.9,0,0,1,132.1,163Z" style="fill:#fff"></path><path d="M140.57,165.58c-.76-.73-2.86-3.94-2.13-4.7s4,1.23,4.77,2a1.9,1.9,0,1,1-2.64,2.74Z" style="fill:#fff"></path><path d="M134.64,154.57c.75.73,2.85,3.94,2.12,4.69s-4-1.22-4.77-1.95a1.91,1.91,0,1,1,2.65-2.74Z" style="fill:#fff"></path><path d="M139.86,160a2.26,2.26,0,1,1-2.3-2.21A2.26,2.26,0,0,1,139.86,160Z" style="fill:#92E3A9;stroke:#263238;stroke-linecap:round;stroke-linejoin:round"></path><path d="M128.66,172.91c0,.76-.55,3.44-1.3,3.46s-1.41-2.65-1.43-3.41a1.37,1.37,0,0,1,2.73-.05Z" style="fill:#fff"></path><path d="M126.09,181.49c0-.75.55-3.44,1.3-3.45s1.41,2.65,1.43,3.4a1.37,1.37,0,0,1-2.73.05Z" style="fill:#fff"></path><path d="M131.66,178.48c-.75,0-3.44-.54-3.45-1.29s2.65-1.42,3.4-1.43a1.36,1.36,0,1,1,0,2.72Z" style="fill:#fff"></path><path d="M123.09,175.92c.75,0,3.44.54,3.45,1.3s-2.65,1.41-3.4,1.42a1.36,1.36,0,1,1,0-2.72Z" style="fill:#fff"></path><path d="M131.31,175.08c-.52.54-2.81,2-3.36,1.52s.88-2.87,1.4-3.41a1.36,1.36,0,1,1,2,1.89Z" style="fill:#fff"></path><path d="M123.44,179.32c.52-.54,2.81-2,3.36-1.52s-.88,2.87-1.4,3.42a1.36,1.36,0,1,1-2-1.9Z" style="fill:#fff"></path><path d="M129.5,181.14c-.54-.52-2-2.82-1.52-3.36s2.87.88,3.41,1.4a1.36,1.36,0,1,1-1.89,2Z" style="fill:#fff"></path><path d="M125.25,173.26c.54.52,2,2.82,1.52,3.36s-2.87-.87-3.41-1.4a1.36,1.36,0,1,1,1.89-2Z" style="fill:#fff"></path><path d="M129,177.17a1.62,1.62,0,1,1-1.64-1.58A1.6,1.6,0,0,1,129,177.17Z" style="fill:#92E3A9;stroke:#263238;stroke-linecap:round;stroke-linejoin:round"></path><path d="M188.32,153.86s-.93-4.69-4.57-5.71A15.75,15.75,0,0,1,178.7,146S179.82,153.28,188.32,153.86Z" style="fill:#92E3A9"></path><g style="clip-path:url(#freepik--clip-path-23--inject-43)"><path d="M188.32,153.86s-.93-4.69-4.57-5.71A15.75,15.75,0,0,1,178.7,146S179.82,153.28,188.32,153.86Z" style="opacity:0.2"></path></g><path d="M188.22,153.57a17.86,17.86,0,0,0-6.64-4.62" style="fill:none;stroke:#263238;stroke-linecap:round;stroke-linejoin:round"></path><path d="M188,158.31s-.28-7.47,4.89-10.33,6.92-5,6.92-5S200.73,154.36,188,158.31Z" style="fill:#92E3A9"></path><g style="clip-path:url(#freepik--clip-path-24--inject-43)"><path d="M188,158.31s-.28-7.47,4.89-10.33,6.92-5,6.92-5S200.73,154.36,188,158.31Z" style="opacity:0.2"></path></g><path d="M188.44,157.84a32.68,32.68,0,0,1,9.69-10.54" style="fill:none;stroke:#263238;stroke-linecap:round;stroke-linejoin:round"></path><path d="M187.9,143.13a178,178,0,0,1,.13,19.51" style="fill:none;stroke:#263238;stroke-linecap:round;stroke-linejoin:round"></path><path d="M191,135.25c-.16.92-1.47,4-2.39,3.87s-1.08-3.53-.92-4.45a1.68,1.68,0,0,1,3.31.58Z" style="fill:#fff"></path><path d="M185.87,145c.16-.92,1.47-4,2.38-3.87s1.09,3.53.93,4.45a1.68,1.68,0,0,1-3.31-.58Z" style="fill:#fff"></path><path d="M193.31,142.69c-.91-.16-4-1.46-3.87-2.38s3.54-1.08,4.45-.92a1.68,1.68,0,0,1-.58,3.3Z" style="fill:#fff"></path><path d="M183.55,137.58c.91.16,4,1.46,3.86,2.38s-3.53,1.08-4.44.92a1.68,1.68,0,1,1,.58-3.3Z" style="fill:#fff"></path><path d="M193.69,138.49c-.76.53-3.89,1.81-4.42,1s1.73-3.26,2.49-3.8a1.68,1.68,0,1,1,1.93,2.75Z" style="fill:#fff"></path><path d="M183.17,141.78c.75-.53,3.88-1.81,4.42-1.05s-1.74,3.26-2.5,3.79a1.67,1.67,0,1,1-1.92-2.74Z" style="fill:#fff"></path><path d="M190.07,145.4c-.53-.76-1.81-3.89-1-4.42s3.26,1.73,3.8,2.49a1.68,1.68,0,0,1-2.75,1.93Z" style="fill:#fff"></path><path d="M186.78,134.87c.54.76,1.81,3.89,1.06,4.42s-3.27-1.73-3.8-2.49a1.68,1.68,0,1,1,2.74-1.93Z" style="fill:#fff"></path><path d="M190.38,140.48a2,2,0,1,1-1.61-2.3A2,2,0,0,1,190.38,140.48Z" style="fill:#92E3A9;stroke:#263238;stroke-linecap:round;stroke-linejoin:round"></path><path d="M205.43,137.48s-.75-3.75-3.66-4.57a12.65,12.65,0,0,1-4.05-1.69S198.62,137,205.43,137.48Z" style="fill:#92E3A9"></path><g style="clip-path:url(#freepik--clip-path-25--inject-43)"><path d="M205.43,137.48s-.75-3.75-3.66-4.57a12.65,12.65,0,0,1-4.05-1.69S198.62,137,205.43,137.48Z" style="opacity:0.2"></path></g><path d="M205.34,137.25a14.31,14.31,0,0,0-5.32-3.7" style="fill:none;stroke:#263238;stroke-linecap:round;stroke-linejoin:round"></path><path d="M205.17,141.05s-.23-6,3.92-8.28,5.54-4,5.54-4S215.36,137.88,205.17,141.05Z" style="fill:#92E3A9"></path><g style="clip-path:url(#freepik--clip-path-26--inject-43)"><path d="M205.17,141.05s-.23-6,3.92-8.28,5.54-4,5.54-4S215.36,137.88,205.17,141.05Z" style="opacity:0.2"></path></g><path d="M205.52,140.67a26.28,26.28,0,0,1,7.76-8.44" style="fill:none;stroke:#263238;stroke-linecap:round;stroke-linejoin:round"></path><path d="M205.09,128.89a141.67,141.67,0,0,1,.1,15.63" style="fill:none;stroke:#263238;stroke-linecap:round;stroke-linejoin:round"></path><path d="M207.56,122.58c-.13.73-1.18,3.23-1.91,3.1s-.87-2.83-.74-3.56a1.36,1.36,0,0,1,1.56-1.1A1.35,1.35,0,0,1,207.56,122.58Z" style="fill:#fff"></path><path d="M203.46,130.4c.13-.73,1.18-3.23,1.91-3.1s.87,2.83.74,3.56a1.34,1.34,0,1,1-2.65-.46Z" style="fill:#fff"></path><path d="M209.42,128.54c-.73-.13-3.23-1.18-3.1-1.91s2.83-.87,3.56-.74a1.34,1.34,0,1,1-.46,2.65Z" style="fill:#fff"></path><path d="M201.6,124.44c.73.13,3.23,1.18,3.1,1.91s-2.83.87-3.56.74a1.34,1.34,0,1,1,.46-2.65Z" style="fill:#fff"></path><path d="M209.72,125.17c-.6.43-3.11,1.45-3.53.85s1.38-2.62,2-3a1.34,1.34,0,0,1,1.54,2.2Z" style="fill:#fff"></path><path d="M201.3,127.81c.6-.43,3.11-1.45,3.54-.85s-1.39,2.62-2,3a1.34,1.34,0,1,1-1.54-2.2Z" style="fill:#fff"></path><path d="M206.83,130.7c-.43-.6-1.45-3.11-.85-3.54s2.62,1.39,3.05,2a1.34,1.34,0,1,1-2.2,1.54Z" style="fill:#fff"></path><path d="M204.19,122.28c.43.6,1.46,3.11.85,3.54s-2.62-1.39-3-2a1.34,1.34,0,1,1,2.2-1.54Z" style="fill:#fff"></path><path d="M207.08,126.76a1.59,1.59,0,1,1-1.29-1.84A1.59,1.59,0,0,1,207.08,126.76Z" style="fill:#92E3A9;stroke:#263238;stroke-linecap:round;stroke-linejoin:round"></path><path d="M346.61,135.94c.13,1,1.36,1.27,1.36,1.27a1.88,1.88,0,0,0-1.18.66c.35.75,1.52.83,1.52.83a2.08,2.08,0,0,0-1,1.28c.86.54,2-.25,2-.25a1.53,1.53,0,0,0-.62,1.48c.68.41,1.68-.36,1.68-.36a2.31,2.31,0,0,0-.28,1.68,2.25,2.25,0,0,0,1.88-1,1.85,1.85,0,0,0-.13,1.66,2.07,2.07,0,0,0,1.08-.61,1.47,1.47,0,0,0,.75.53,2.45,2.45,0,0,0,.21.3,2.06,2.06,0,0,0-1,.84,2.27,2.27,0,0,0,2,.62,1.87,1.87,0,0,0-1.28,1.09,2.28,2.28,0,0,0,2.16.1,2,2,0,0,0-.87,1.67,2.76,2.76,0,0,0,2.29-.83,1.63,1.63,0,0,0-.09,1.53,2.21,2.21,0,0,0,1.4-1,1.9,1.9,0,0,0,.16,1.39c.72-.09,1.31-1.23,1.31-1.23a1.27,1.27,0,0,0,.26,1.22,1.91,1.91,0,0,0,1.29-1.43,1.39,1.39,0,0,0,.8,1.09c.72-.34.63-1.61.63-1.61a2,2,0,0,0,1.4.82l1-1.54c.25-.73-.56-1.63-.56-1.63a2.16,2.16,0,0,0,1.69.07c0-1-1.23-1.75-1.23-1.75a2.25,2.25,0,0,0,1.67-.07c-.36-1.2-2-1.46-2-1.46a2.65,2.65,0,0,0,2-.74c-.61-.95-2.32-.74-2.32-.74s1.31-.5,1.51-1.28a1.68,1.68,0,0,0-1.22-.11,1.48,1.48,0,0,0-.14-.6,1.56,1.56,0,0,0,.14-.33,1.88,1.88,0,0,0,1.26,0s.13-.65-1-1.41a2.4,2.4,0,0,0,2,0c-.22-.68-1.21-1.14-1.21-1.14a1.88,1.88,0,0,0,1.34,0,3.15,3.15,0,0,0-1.09-1,2,2,0,0,0,1.54-.11,2.61,2.61,0,0,0-1.51-1,2,2,0,0,0,1.73-.74,2.45,2.45,0,0,0-1.86-.55c1.19-.55,1.35-1.21,1.35-1.21-.56-.43-1.81.11-1.81.11,1.08-1,.92-1.79.92-1.79-.8-.13-1.78.88-1.78.88s.87-1.48.23-2.42a2.62,2.62,0,0,0-1.48,1.58,2.57,2.57,0,0,0-.56-2.38,2.26,2.26,0,0,0-.73,1.51s-.25-1.41-1.12-1.81a2.13,2.13,0,0,0-.6,1.59s-.51-1.1-1.28-1.16a1.49,1.49,0,0,0-.21,1.44,2.05,2.05,0,0,0-1.61-1.08,2,2,0,0,0,.2,1.6s-1.13-.58-1.72-.05a1.37,1.37,0,0,0,.68,1.17,2.17,2.17,0,0,0-1,0,1.21,1.21,0,0,0-.15-.57s-.76.14-1.31,1.52c0,0,0-1.35-.58-1.71,0,0-.56.39-.62,1.7a2.43,2.43,0,0,0-1.2-1.52,2,2,0,0,0,0,1.88,2.6,2.6,0,0,0-1.48-1,2,2,0,0,0,.48,1.46,3.26,3.26,0,0,0-1.29-.66A1.85,1.85,0,0,0,350,132a2.53,2.53,0,0,0-1.51-.69,2.35,2.35,0,0,0,.72,1.81c-1.13-.76-1.68-.39-1.68-.39a2.11,2.11,0,0,0,.78,1.51c-.94-.23-1.31.09-1.31.09Z" style="fill:#92E3A9"></path><path d="M352.31,140.67c.11,3-1.48,8-4.15,11.82l2,1.32c1.39-2.3,1.91-5,2.94-6.12a26.72,26.72,0,0,1,3.5-2.45l4.61-1.8-.29-.21-3.79,1.08,2.33-3-.23-.19a30.66,30.66,0,0,1-3,3.23,36.39,36.39,0,0,1-3.56,2.05s.49-4.72.72-5.28a11.34,11.34,0,0,1,2-2.32l-.26-.18-2.14,1.9-.95-3.09-.46-.14A10.81,10.81,0,0,1,352.31,140.67Z" style="fill:#999"></path><path d="M350.12,153.81c1.39-2.3,1.91-5,2.94-6.12a26.72,26.72,0,0,1,3.5-2.45l4.61-1.8-.29-.21-3.79,1.08,2.33-3-.23-.19a30.66,30.66,0,0,1-3,3.23,36.39,36.39,0,0,1-3.56,2.05s.49-4.72.72-5.28a11.34,11.34,0,0,1,2-2.32l-.26-.18-2.14,1.9-.95-3.09-.46-.14a10.81,10.81,0,0,1,.79,3.42c.11,3-1.48,8-4.15,11.82" style="fill:none;stroke:#263238;stroke-linecap:round;stroke-linejoin:round"></path><path d="M283.56,144.76c.89.62,2.06-.17,2.06-.17a2.12,2.12,0,0,0-.33,1.47c.88.26,1.82-.64,1.82-.64a2.31,2.31,0,0,0,.32,1.78c1.08-.31,1.31-1.86,1.31-1.86a1.69,1.69,0,0,0,.74,1.62c.86-.25,1-1.65,1-1.65a2.53,2.53,0,0,0,1.18,1.48,2.53,2.53,0,0,0,.58-2.3,2.05,2.05,0,0,0,1.28,1.36,2.45,2.45,0,0,0,.3-1.35,1.74,1.74,0,0,0,1-.23,2.4,2.4,0,0,0,.4,0,2.22,2.22,0,0,0-.07,1.47,2.51,2.51,0,0,0,2-1.21,2,2,0,0,0-.06,1.86,2.49,2.49,0,0,0,1.7-1.71,2.21,2.21,0,0,0,.74,2,3.08,3.08,0,0,0,1-2.52,1.8,1.8,0,0,0,1.2,1.22,2.51,2.51,0,0,0,.25-1.88c.71.87,1.27.91,1.27.91.46-.66,0-2,0-2a1.42,1.42,0,0,0,1.21.7,2.14,2.14,0,0,0-.22-2.13,1.56,1.56,0,0,0,1.5.14c.25-.85-.86-1.72-.86-1.72a2.2,2.2,0,0,0,1.72-.55l-.5-2c-.41-.75-1.76-.75-1.76-.75a2.4,2.4,0,0,0,1.33-1.35,3.07,3.07,0,0,0-2.37-.29,2.52,2.52,0,0,0,1.19-1.44,2.89,2.89,0,0,0-2.67.54,3,3,0,0,0,.91-2.23c-1.25-.21-2.35,1.36-2.35,1.36s.57-1.46.07-2.2a1.79,1.79,0,0,0-1,.92,1.64,1.64,0,0,0-.6-.33,2,2,0,0,0-.17-.36,2.19,2.19,0,0,0,.93-1.06s-.44-.6-1.92-.24a2.61,2.61,0,0,0,1.46-1.62,2.89,2.89,0,0,0-1.85.15,2.08,2.08,0,0,0,1-1.14,3.73,3.73,0,0,0-1.6.2,2.18,2.18,0,0,0,1.06-1.35,2.92,2.92,0,0,0-1.94.51,2.3,2.3,0,0,0,.69-2,2.74,2.74,0,0,0-1.85,1.13,2.41,2.41,0,0,0,0-2c-.78.13-1.26,1.56-1.26,1.56-.05-1.66-.8-2.09-.8-2.09-.7.56-.59,2.13-.59,2.13s-.58-1.83-1.84-2a3,3,0,0,0,.21,2.41s-1-1.5-2.39-1.31a2.52,2.52,0,0,0,.7,1.73,3,3,0,0,0-2.34-.43,2.36,2.36,0,0,0,.86,1.68s-1.29-.4-1.9.2a1.67,1.67,0,0,0,1,1.25,2.31,2.31,0,0,0-2.11.52,2.25,2.25,0,0,0,1.49,1s-1.33.5-1.34,1.39a1.55,1.55,0,0,0,1.48.31,2.51,2.51,0,0,0-.69.83,1.21,1.21,0,0,0-.57-.3s-.46.73.27,2.22c0,0-1.1-1-1.85-.8,0,0-.09.75.94,1.78a2.73,2.73,0,0,0-2.15-.14,2.28,2.28,0,0,0,1.52,1.44,2.9,2.9,0,0,0-1.95.46,2.21,2.21,0,0,0,1.57.7,3.53,3.53,0,0,0-1.51.57,2.08,2.08,0,0,0,1.39.55,2.82,2.82,0,0,0-1.7.72,2.62,2.62,0,0,0,2,.77c-1.47.36-1.58,1.09-1.58,1.09a2.37,2.37,0,0,0,1.83.49c-.9.6-.91,1.14-.91,1.14Z" style="fill:#92E3A9"></path><path d="M291.73,143.59c2.56,2.17,5.49,7.2,6.66,12.27l2.55-.63c-.86-2.86-2.72-5.34-2.85-7a29.57,29.57,0,0,1,.59-4.72l2-5.17-.4.09-1.94,3.94-.76-4.2-.34.05a31.74,31.74,0,0,1,.4,4.93,42.32,42.32,0,0,1-1,4.48s-3.53-3.95-3.83-4.56a12.67,12.67,0,0,1-.39-3.4l-.35.08,0,3.19-3.26-1.52-.47.26A12.05,12.05,0,0,1,291.73,143.59Z" style="fill:#999"></path><path d="M300.94,155.23c-.86-2.86-2.72-5.34-2.85-7a29.57,29.57,0,0,1,.59-4.72l2-5.17-.4.09-1.94,3.94-.76-4.2-.34.05a31.74,31.74,0,0,1,.4,4.93,42.32,42.32,0,0,1-1,4.48s-3.53-3.95-3.83-4.56a12.67,12.67,0,0,1-.39-3.4l-.35.08,0,3.19-3.26-1.52-.47.26a12.05,12.05,0,0,1,3.42,1.91c2.56,2.17,5.49,7.2,6.66,12.27" style="fill:none;stroke:#263238;stroke-linecap:round;stroke-linejoin:round"></path><path d="M264.08,255.46a.67.67,0,0,0,1.22.33c1.64-2.45,5.58-7,13.59-9.85,7.56-2.71,2.18-11.56-3.72-9.28C268.82,239.12,263.58,246.93,264.08,255.46Z" style="fill:#92E3A9"></path><path d="M265.2,254.1a8.88,8.88,0,0,1,2-2.76c2.08-2,5-4.13,2.3-3.09a28.8,28.8,0,0,1,5.95-2.71c3.05-.92-2.54-1.38-2.54-1.38s6.95-3.29,6.06-4.63c-.72-1.09-5,1.65-5,1.65s1-2.7.31-2.85-3.69,5.21-3.69,5.21.47-1.73-.42-1.64S264.63,250,265.2,254.1Z" style="opacity:0.2"></path><path d="M275,242s-8.56,4.54-11.49,17.75" style="fill:none;stroke:#92E3A9;stroke-linecap:round;stroke-linejoin:round"></path><path d="M260.78,255.73a.94.94,0,0,0,1.76-.23c.78-4.06,3.4-12,12.17-20.05,8.27-7.59-3.45-16.07-9.81-9.94C258,232.11,255.51,245,260.78,255.73Z" style="fill:#92E3A9"></path><path d="M261.7,254.12a13.25,13.25,0,0,1,1.23-4.84c1.75-3.85,4.57-8.34,1.46-5.45a42.08,42.08,0,0,1,6.62-6.92c3.66-2.91-4.21-.5-4.21-.5s7.67-8.24,5.74-9.58c-1.58-1.09-5.89,4.95-5.89,4.95s-.1-4.21-1.13-4-2.19,9.09-2.19,9.09-.3-2.62-1.46-2S258.69,248.84,261.7,254.12Z" style="fill:#263238;opacity:0.2"></path><path d="M267.52,232.53s-8.59,10.48-5.21,29.09" style="fill:none;stroke:#92E3A9;stroke-linecap:round;stroke-linejoin:round"></path><path d="M259.35,255.77a.75.75,0,0,1-1.4.28c-1.66-2.91-5.74-8.31-14.55-12.18-8.32-3.65-1.55-13.21,4.92-10.18C255.29,237,260.59,246.18,259.35,255.77Z" style="fill:#92E3A9"></path><path d="M258.28,254.79a10.55,10.55,0,0,0-2-3.41c-2.22-2.54-5.39-5.32-2.35-3.83a33.65,33.65,0,0,0-6.63-3.77c-3.45-1.38,3.1-1.34,3.1-1.34s-7.73-4.55-6.56-6c.95-1.2,5.62,2.43,5.62,2.43s-.89-3.24-.06-3.34S253.1,242,253.1,242s-.37-2.07.66-1.86S259.38,250.08,258.28,254.79Z" style="fill:#263238;opacity:0.2"></path><path d="M250.52,241.32s7.68,5.28,9.94,20.41" style="fill:none;stroke:#92E3A9;stroke-linecap:round;stroke-linejoin:round"></path><path d="M304.17,248.92a.5.5,0,0,0,.92.25c1.22-1.84,4.16-5.22,10.16-7.37,5.65-2,1.63-8.64-2.78-6.94C307.72,236.7,303.8,242.54,304.17,248.92Z" style="fill:#92E3A9"></path><path d="M305,247.9a6.67,6.67,0,0,1,1.5-2.06c1.56-1.5,3.75-3.09,1.72-2.31a21.53,21.53,0,0,1,4.45-2c2.29-.69-1.9-1-1.9-1S316,238,315.31,237c-.54-.82-3.72,1.23-3.72,1.23s.75-2,.22-2.13-2.75,3.9-2.75,3.9.35-1.3-.32-1.23S304.58,244.82,305,247.9Z" style="opacity:0.2"></path><path d="M312.3,238.87s-6.4,3.39-8.59,13.27" style="fill:none;stroke:#92E3A9;stroke-linecap:round;stroke-linejoin:round"></path><path d="M301.71,249.12a.7.7,0,0,0,1.31-.18c.58-3,2.54-9,9.1-15,6.19-5.67-2.58-12-7.34-7.43C299.66,231.46,297.76,241.1,301.71,249.12Z" style="fill:#92E3A9"></path><path d="M302.39,247.92a9.91,9.91,0,0,1,.93-3.62c1.31-2.88,3.41-6.24,1.08-4.08a32.05,32.05,0,0,1,5-5.17c2.74-2.17-3.15-.38-3.15-.38s5.74-6.16,4.3-7.16c-1.19-.82-4.41,3.7-4.41,3.7s-.07-3.15-.84-3-1.64,6.8-1.64,6.8-.22-2-1.09-1.5S300.14,244,302.39,247.92Z" style="fill:#263238;opacity:0.2"></path><path d="M306.74,231.77s-6.42,7.84-3.89,21.75" style="fill:none;stroke:#92E3A9;stroke-linecap:round;stroke-linejoin:round"></path><path d="M300.64,249.15a.56.56,0,0,1-1.05.21c-1.24-2.17-4.29-6.22-10.88-9.11-6.22-2.73-1.16-9.87,3.68-7.61C297.6,235.09,301.57,242,300.64,249.15Z" style="fill:#92E3A9"></path><path d="M299.84,248.42a7.76,7.76,0,0,0-1.53-2.55c-1.66-1.9-4-4-1.76-2.86a24.69,24.69,0,0,0-4.95-2.82c-2.59-1,2.31-1,2.31-1s-5.78-3.4-4.9-4.49c.71-.89,4.2,1.82,4.2,1.82s-.66-2.42,0-2.49,2.79,4.81,2.79,4.81-.27-1.54.5-1.39S300.66,244.89,299.84,248.42Z" style="fill:#263238;opacity:0.2"></path><path d="M294,238.35s5.74,3.94,7.44,15.25" style="fill:none;stroke:#92E3A9;stroke-linecap:round;stroke-linejoin:round"></path></g></svg>