<svg width="534" height="281" viewBox="0 0 534 281" fill="none" xmlns="http://www.w3.org/2000/svg">
<g clip-path="url(#clip0_2732_1824)">
<rect width="534" height="281" fill="url(#paint0_linear_2732_1824)"/>
<g opacity="0.2">
<rect x="294.509" y="29.2305" width="28.6561" height="73.3142" transform="rotate(-90 294.509 29.2305)" fill="white" fill-opacity="0.6"/>
<rect x="295.106" y="75.0264" width="28.6561" height="159.327" transform="rotate(-90 295.106 75.0264)" fill="white" fill-opacity="0.6"/>
<rect x="295.673" y="123.598" width="28.6561" height="241.106" transform="rotate(-90 295.673 123.598)" fill="white" fill-opacity="0.8"/>
<rect x="364.287" y="169.395" width="28.6561" height="172.017" transform="rotate(-90 364.287 169.395)" fill="white" fill-opacity="0.8"/>
<rect x="423.098" y="215.191" width="28.6561" height="112.798" transform="rotate(-90 423.098 215.191)" fill="white" fill-opacity="0.8"/>
<rect x="532.937" y="262.374" width="28.6561" height="91.6484" transform="rotate(-90 532.937 262.374)" fill="white"/>
<rect x="532.937" y="309.558" width="28.6561" height="91.6484" transform="rotate(-90 532.937 309.558)" fill="white"/>
</g>
<path d="M62.2422 220H56.7109V198.25C56.7109 196.469 56.8203 194.289 57.0391 191.711H56.9453C56.6016 193.18 56.2969 194.234 56.0312 194.875L46 220H42.1562L32.1016 195.062C31.8203 194.328 31.5234 193.211 31.2109 191.711H31.1172C31.2422 193.055 31.3047 195.25 31.3047 198.297V220H26.1484V186.391H34L42.8359 208.773C43.5078 210.492 43.9453 211.773 44.1484 212.617H44.2656C44.8438 210.852 45.3125 209.539 45.6719 208.68L54.6719 186.391H62.2422V220ZM98.1484 220H92.0312L89.0078 211.445H75.7891L72.8828 220H66.7891L79.375 186.391H85.6562L98.1484 220ZM87.5312 206.898L82.8672 193.492C82.7266 193.055 82.5781 192.352 82.4219 191.383H82.3281C82.1875 192.273 82.0312 192.977 81.8594 193.492L77.2422 206.898H87.5312ZM116.641 220.562C114.219 220.562 112.023 220.148 110.055 219.32C108.086 218.492 106.406 217.336 105.016 215.852C103.625 214.352 102.547 212.562 101.781 210.484C101.016 208.406 100.633 206.109 100.633 203.594C100.633 200.906 101.016 198.469 101.781 196.281C102.562 194.094 103.664 192.227 105.086 190.68C106.523 189.133 108.266 187.938 110.312 187.094C112.359 186.25 114.648 185.828 117.18 185.828C119.523 185.828 121.664 186.242 123.602 187.07C125.539 187.898 127.195 189.062 128.57 190.562C129.945 192.047 131.008 193.828 131.758 195.906C132.523 197.984 132.906 200.273 132.906 202.773C132.906 206.086 132.352 208.992 131.242 211.492C130.133 213.977 128.57 215.977 126.555 217.492L136.305 224.523H127.82L121.82 219.859C121.023 220.078 120.195 220.25 119.336 220.375C118.477 220.5 117.578 220.562 116.641 220.562ZM116.898 190.727C115.367 190.727 113.961 191.031 112.68 191.641C111.414 192.234 110.32 193.086 109.398 194.195C108.477 195.289 107.758 196.602 107.242 198.133C106.742 199.664 106.492 201.367 106.492 203.242C106.492 205.102 106.734 206.797 107.219 208.328C107.719 209.859 108.414 211.172 109.305 212.266C110.195 213.344 111.266 214.188 112.516 214.797C113.766 215.391 115.148 215.688 116.664 215.688C118.273 215.688 119.719 215.406 121 214.844C122.281 214.281 123.367 213.477 124.258 212.43C125.164 211.367 125.859 210.07 126.344 208.539C126.828 207.008 127.07 205.266 127.07 203.312C127.07 201.312 126.836 199.531 126.367 197.969C125.898 196.406 125.227 195.094 124.352 194.031C123.477 192.953 122.406 192.133 121.141 191.57C119.891 191.008 118.477 190.727 116.898 190.727ZM150.742 218.664V212.922C151.258 213.391 151.867 213.812 152.57 214.188C153.289 214.562 154.047 214.883 154.844 215.148C155.641 215.398 156.438 215.594 157.234 215.734C158.031 215.875 158.766 215.945 159.438 215.945C161.781 215.945 163.523 215.555 164.664 214.773C165.82 213.992 166.398 212.859 166.398 211.375C166.398 210.578 166.203 209.891 165.812 209.312C165.438 208.719 164.906 208.18 164.219 207.695C163.531 207.211 162.719 206.75 161.781 206.312C160.859 205.859 159.867 205.391 158.805 204.906C157.664 204.297 156.602 203.68 155.617 203.055C154.633 202.43 153.773 201.742 153.039 200.992C152.32 200.227 151.75 199.367 151.328 198.414C150.922 197.461 150.719 196.344 150.719 195.062C150.719 193.484 151.07 192.117 151.773 190.961C152.492 189.789 153.43 188.828 154.586 188.078C155.758 187.312 157.086 186.75 158.57 186.391C160.055 186.016 161.57 185.828 163.117 185.828C166.633 185.828 169.195 186.227 170.805 187.023V192.531C168.898 191.156 166.445 190.469 163.445 190.469C162.617 190.469 161.789 190.547 160.961 190.703C160.148 190.859 159.414 191.117 158.758 191.477C158.117 191.836 157.594 192.297 157.188 192.859C156.781 193.422 156.578 194.102 156.578 194.898C156.578 195.648 156.734 196.297 157.047 196.844C157.359 197.391 157.812 197.891 158.406 198.344C159.016 198.797 159.75 199.242 160.609 199.68C161.484 200.102 162.492 200.562 163.633 201.062C164.805 201.672 165.906 202.312 166.938 202.984C167.984 203.656 168.898 204.398 169.68 205.211C170.477 206.023 171.102 206.93 171.555 207.93C172.023 208.914 172.258 210.039 172.258 211.305C172.258 213.008 171.914 214.445 171.227 215.617C170.539 216.789 169.609 217.742 168.438 218.477C167.281 219.211 165.945 219.742 164.43 220.07C162.914 220.398 161.312 220.562 159.625 220.562C159.062 220.562 158.367 220.516 157.539 220.422C156.727 220.344 155.891 220.219 155.031 220.047C154.172 219.891 153.359 219.695 152.594 219.461C151.828 219.227 151.211 218.961 150.742 218.664ZM188.477 220.562C184.773 220.562 181.812 219.445 179.594 217.211C177.391 214.961 176.289 211.984 176.289 208.281C176.289 204.25 177.438 201.102 179.734 198.836C182.047 196.57 185.156 195.438 189.062 195.438C192.812 195.438 195.734 196.539 197.828 198.742C199.922 200.945 200.969 204 200.969 207.906C200.969 211.734 199.836 214.805 197.57 217.117C195.32 219.414 192.289 220.562 188.477 220.562ZM188.734 199.773C186.609 199.773 184.93 200.516 183.695 202C182.461 203.484 181.844 205.531 181.844 208.141C181.844 210.656 182.469 212.641 183.719 214.094C184.969 215.531 186.641 216.25 188.734 216.25C190.875 216.25 192.516 215.539 193.656 214.117C194.812 212.695 195.391 210.672 195.391 208.047C195.391 205.406 194.812 203.367 193.656 201.93C192.516 200.492 190.875 199.773 188.734 199.773ZM219.297 188.898C218.562 188.477 217.727 188.266 216.789 188.266C214.148 188.266 212.828 189.758 212.828 192.742V196H218.406V200.266H212.852V220H207.414V200.266H203.312V196H207.414V192.109C207.414 189.578 208.242 187.586 209.898 186.133C211.555 184.664 213.625 183.93 216.109 183.93C217.453 183.93 218.516 184.078 219.297 184.375V188.898ZM235.82 219.742C234.758 220.273 233.359 220.539 231.625 220.539C226.969 220.539 224.641 218.305 224.641 213.836V200.266H220.633V196H224.641V190.445L230.078 188.898V196H235.82V200.266H230.078V212.266C230.078 213.688 230.336 214.703 230.852 215.312C231.367 215.922 232.227 216.227 233.43 216.227C234.352 216.227 235.148 215.961 235.82 215.43V219.742ZM272.781 196L265.703 220H260.008L255.648 203.734C255.477 203.109 255.367 202.406 255.32 201.625H255.227C255.195 202.156 255.055 202.844 254.805 203.688L250.07 220H244.492L237.438 196H243.062L247.422 213.297C247.562 213.812 247.656 214.5 247.703 215.359H247.867C247.914 214.703 248.039 214 248.242 213.25L253.094 196H258.203L262.516 213.367C262.656 213.914 262.758 214.602 262.82 215.43H262.984C263.016 214.852 263.133 214.164 263.336 213.367L267.602 196H272.781ZM295.258 220H289.984V216.25H289.891C288.234 219.125 285.805 220.562 282.602 220.562C280.242 220.562 278.391 219.922 277.047 218.641C275.719 217.359 275.055 215.664 275.055 213.555C275.055 209.023 277.664 206.383 282.883 205.633L290.008 204.625C290.008 201.203 288.383 199.492 285.133 199.492C282.273 199.492 279.695 200.477 277.398 202.445V197.688C279.93 196.188 282.852 195.438 286.164 195.438C292.227 195.438 295.258 198.422 295.258 204.391V220ZM290.008 208.211L284.969 208.914C283.406 209.117 282.227 209.5 281.43 210.062C280.648 210.609 280.258 211.578 280.258 212.969C280.258 213.984 280.617 214.82 281.336 215.477C282.07 216.117 283.047 216.438 284.266 216.438C285.922 216.438 287.289 215.859 288.367 214.703C289.461 213.531 290.008 212.062 290.008 210.297V208.211ZM315.836 201.18C315.18 200.664 314.234 200.406 313 200.406C311.391 200.406 310.047 201.133 308.969 202.586C307.891 204.039 307.352 206.016 307.352 208.516V220H301.914V196H307.352V200.945H307.445C307.977 199.258 308.789 197.945 309.883 197.008C310.992 196.055 312.227 195.578 313.586 195.578C314.57 195.578 315.32 195.727 315.836 196.023V201.18ZM339.578 209.477H323.219C323.281 211.695 323.961 213.406 325.258 214.609C326.57 215.812 328.367 216.414 330.648 216.414C333.211 216.414 335.562 215.648 337.703 214.117V218.5C335.516 219.875 332.625 220.562 329.031 220.562C325.5 220.562 322.727 219.477 320.711 217.305C318.711 215.117 317.711 212.047 317.711 208.094C317.711 204.359 318.812 201.32 321.016 198.977C323.234 196.617 325.984 195.438 329.266 195.438C332.547 195.438 335.086 196.492 336.883 198.602C338.68 200.711 339.578 203.641 339.578 207.391V209.477ZM334.328 205.633C334.312 203.68 333.852 202.164 332.945 201.086C332.039 199.992 330.789 199.445 329.195 199.445C327.633 199.445 326.305 200.016 325.211 201.156C324.133 202.297 323.469 203.789 323.219 205.633H334.328Z" fill="white"/>
<path d="M42.1211 253H39.3555V242.125C39.3555 241.234 39.4102 240.145 39.5195 238.855H39.4727C39.3008 239.59 39.1484 240.117 39.0156 240.438L34 253H32.0781L27.0508 240.531C26.9102 240.164 26.7617 239.605 26.6055 238.855H26.5586C26.6211 239.527 26.6523 240.625 26.6523 242.148V253H24.0742V236.195H28L32.418 247.387C32.7539 248.246 32.9727 248.887 33.0742 249.309H33.1328C33.4219 248.426 33.6562 247.77 33.8359 247.34L38.3359 236.195H42.1211V253ZM47.3359 238.48C46.8906 238.48 46.5078 238.336 46.1875 238.047C45.875 237.758 45.7188 237.391 45.7188 236.945C45.7188 236.5 45.875 236.129 46.1875 235.832C46.5078 235.535 46.8906 235.387 47.3359 235.387C47.7969 235.387 48.1875 235.535 48.5078 235.832C48.8281 236.129 48.9883 236.5 48.9883 236.945C48.9883 237.367 48.8281 237.73 48.5078 238.035C48.1875 238.332 47.7969 238.48 47.3359 238.48ZM48.6836 253H45.9648V241H48.6836V253ZM60.8359 252.449C59.875 253.004 58.7383 253.281 57.4258 253.281C55.6445 253.281 54.207 252.727 53.1133 251.617C52.0195 250.5 51.4727 249.055 51.4727 247.281C51.4727 245.305 52.0586 243.719 53.2305 242.523C54.4102 241.32 55.9844 240.719 57.9531 240.719C59.0469 240.719 60.0117 240.91 60.8477 241.293V243.824C60.0117 243.199 59.1211 242.887 58.1758 242.887C57.0273 242.887 56.0859 243.277 55.3516 244.059C54.6172 244.832 54.25 245.848 54.25 247.105C54.25 248.348 54.5938 249.328 55.2812 250.047C55.9766 250.766 56.9062 251.125 58.0703 251.125C59.0469 251.125 59.9688 250.777 60.8359 250.082V252.449ZM70.5039 243.59C70.1758 243.332 69.7031 243.203 69.0859 243.203C68.2812 243.203 67.6094 243.566 67.0703 244.293C66.5312 245.02 66.2617 246.008 66.2617 247.258V253H63.543V241H66.2617V243.473H66.3086C66.5742 242.629 66.9805 241.973 67.5273 241.504C68.082 241.027 68.6992 240.789 69.3789 240.789C69.8711 240.789 70.2461 240.863 70.5039 241.012V243.59ZM77.5352 253.281C75.6836 253.281 74.2031 252.723 73.0938 251.605C71.9922 250.48 71.4414 248.992 71.4414 247.141C71.4414 245.125 72.0156 243.551 73.1641 242.418C74.3203 241.285 75.875 240.719 77.8281 240.719C79.7031 240.719 81.1641 241.27 82.2109 242.371C83.2578 243.473 83.7812 245 83.7812 246.953C83.7812 248.867 83.2148 250.402 82.082 251.559C80.957 252.707 79.4414 253.281 77.5352 253.281ZM77.6641 242.887C76.6016 242.887 75.7617 243.258 75.1445 244C74.5273 244.742 74.2188 245.766 74.2188 247.07C74.2188 248.328 74.5312 249.32 75.1562 250.047C75.7812 250.766 76.6172 251.125 77.6641 251.125C78.7344 251.125 79.5547 250.77 80.125 250.059C80.7031 249.348 80.9922 248.336 80.9922 247.023C80.9922 245.703 80.7031 244.684 80.125 243.965C79.5547 243.246 78.7344 242.887 77.6641 242.887ZM85.8086 252.625V250.105C86.8242 250.879 87.9453 251.266 89.1719 251.266C90.8125 251.266 91.6328 250.781 91.6328 249.812C91.6328 249.539 91.5625 249.309 91.4219 249.121C91.2812 248.926 91.0898 248.754 90.8477 248.605C90.6133 248.457 90.332 248.324 90.0039 248.207C89.6836 248.09 89.3242 247.957 88.9258 247.809C88.4336 247.613 87.9883 247.406 87.5898 247.188C87.1992 246.969 86.8711 246.723 86.6055 246.449C86.3477 246.168 86.1523 245.852 86.0195 245.5C85.8867 245.148 85.8203 244.738 85.8203 244.27C85.8203 243.691 85.957 243.184 86.2305 242.746C86.5039 242.301 86.8711 241.93 87.332 241.633C87.793 241.328 88.3164 241.102 88.9023 240.953C89.4883 240.797 90.0938 240.719 90.7188 240.719C91.8281 240.719 92.8203 240.887 93.6953 241.223V243.602C92.8516 243.023 91.8828 242.734 90.7891 242.734C90.4453 242.734 90.1328 242.77 89.8516 242.84C89.5781 242.91 89.3438 243.008 89.1484 243.133C88.9531 243.258 88.8008 243.41 88.6914 243.59C88.582 243.762 88.5273 243.953 88.5273 244.164C88.5273 244.422 88.582 244.641 88.6914 244.82C88.8008 245 88.9609 245.16 89.1719 245.301C89.3906 245.434 89.6484 245.559 89.9453 245.676C90.25 245.785 90.5977 245.906 90.9883 246.039C91.5039 246.25 91.9648 246.465 92.3711 246.684C92.7852 246.902 93.1367 247.152 93.4258 247.434C93.7148 247.707 93.9375 248.027 94.0938 248.395C94.25 248.754 94.3281 249.184 94.3281 249.684C94.3281 250.293 94.1875 250.824 93.9062 251.277C93.625 251.73 93.25 252.105 92.7812 252.402C92.3125 252.699 91.7695 252.918 91.1523 253.059C90.543 253.207 89.8984 253.281 89.2188 253.281C87.9062 253.281 86.7695 253.062 85.8086 252.625ZM102.238 253.281C100.387 253.281 98.9062 252.723 97.7969 251.605C96.6953 250.48 96.1445 248.992 96.1445 247.141C96.1445 245.125 96.7188 243.551 97.8672 242.418C99.0234 241.285 100.578 240.719 102.531 240.719C104.406 240.719 105.867 241.27 106.914 242.371C107.961 243.473 108.484 245 108.484 246.953C108.484 248.867 107.918 250.402 106.785 251.559C105.66 252.707 104.145 253.281 102.238 253.281ZM102.367 242.887C101.305 242.887 100.465 243.258 99.8477 244C99.2305 244.742 98.9219 245.766 98.9219 247.07C98.9219 248.328 99.2344 249.32 99.8594 250.047C100.484 250.766 101.32 251.125 102.367 251.125C103.438 251.125 104.258 250.77 104.828 250.059C105.406 249.348 105.695 248.336 105.695 247.023C105.695 245.703 105.406 244.684 104.828 243.965C104.258 243.246 103.438 242.887 102.367 242.887ZM117.648 237.449C117.281 237.238 116.863 237.133 116.395 237.133C115.074 237.133 114.414 237.879 114.414 239.371V241H117.203V243.133H114.426V253H111.707V243.133H109.656V241H111.707V239.055C111.707 237.789 112.121 236.793 112.949 236.066C113.777 235.332 114.812 234.965 116.055 234.965C116.727 234.965 117.258 235.039 117.648 235.188V237.449ZM125.91 252.871C125.379 253.137 124.68 253.27 123.812 253.27C121.484 253.27 120.32 252.152 120.32 249.918V243.133H118.316V241H120.32V238.223L123.039 237.449V241H125.91V243.133H123.039V249.133C123.039 249.844 123.168 250.352 123.426 250.656C123.684 250.961 124.113 251.113 124.715 251.113C125.176 251.113 125.574 250.98 125.91 250.715V252.871ZM144.238 238.562H137.957V243.613H143.746V245.969H137.957V253H135.168V236.195H144.238V238.562ZM155.324 253H152.688V251.125H152.641C151.812 252.562 150.598 253.281 148.996 253.281C147.816 253.281 146.891 252.961 146.219 252.32C145.555 251.68 145.223 250.832 145.223 249.777C145.223 247.512 146.527 246.191 149.137 245.816L152.699 245.312C152.699 243.602 151.887 242.746 150.262 242.746C148.832 242.746 147.543 243.238 146.395 244.223V241.844C147.66 241.094 149.121 240.719 150.777 240.719C153.809 240.719 155.324 242.211 155.324 245.195V253ZM152.699 247.105L150.18 247.457C149.398 247.559 148.809 247.75 148.41 248.031C148.02 248.305 147.824 248.789 147.824 249.484C147.824 249.992 148.004 250.41 148.363 250.738C148.73 251.059 149.219 251.219 149.828 251.219C150.656 251.219 151.34 250.93 151.879 250.352C152.426 249.766 152.699 249.031 152.699 248.148V247.105ZM161.418 251.266H161.371V253H158.652V235.234H161.371V243.109H161.418C162.348 241.516 163.707 240.719 165.496 240.719C167.012 240.719 168.195 241.258 169.047 242.336C169.906 243.406 170.336 244.844 170.336 246.648C170.336 248.656 169.855 250.266 168.895 251.477C167.934 252.68 166.621 253.281 164.957 253.281C163.395 253.281 162.215 252.609 161.418 251.266ZM161.348 246.496V247.984C161.348 248.859 161.625 249.602 162.18 250.211C162.742 250.82 163.453 251.125 164.312 251.125C165.32 251.125 166.109 250.734 166.68 249.953C167.258 249.164 167.547 248.066 167.547 246.66C167.547 245.48 167.277 244.559 166.738 243.895C166.207 243.223 165.484 242.887 164.57 242.887C163.602 242.887 162.82 243.23 162.227 243.918C161.641 244.605 161.348 245.465 161.348 246.496ZM180.074 243.59C179.746 243.332 179.273 243.203 178.656 243.203C177.852 243.203 177.18 243.566 176.641 244.293C176.102 245.02 175.832 246.008 175.832 247.258V253H173.113V241H175.832V243.473H175.879C176.145 242.629 176.551 241.973 177.098 241.504C177.652 241.027 178.27 240.789 178.949 240.789C179.441 240.789 179.816 240.863 180.074 241.012V243.59ZM183.367 238.48C182.922 238.48 182.539 238.336 182.219 238.047C181.906 237.758 181.75 237.391 181.75 236.945C181.75 236.5 181.906 236.129 182.219 235.832C182.539 235.535 182.922 235.387 183.367 235.387C183.828 235.387 184.219 235.535 184.539 235.832C184.859 236.129 185.02 236.5 185.02 236.945C185.02 237.367 184.859 237.73 184.539 238.035C184.219 238.332 183.828 238.48 183.367 238.48ZM184.715 253H181.996V241H184.715V253ZM196.867 252.449C195.906 253.004 194.77 253.281 193.457 253.281C191.676 253.281 190.238 252.727 189.145 251.617C188.051 250.5 187.504 249.055 187.504 247.281C187.504 245.305 188.09 243.719 189.262 242.523C190.441 241.32 192.016 240.719 193.984 240.719C195.078 240.719 196.043 240.91 196.879 241.293V243.824C196.043 243.199 195.152 242.887 194.207 242.887C193.059 242.887 192.117 243.277 191.383 244.059C190.648 244.832 190.281 245.848 190.281 247.105C190.281 248.348 190.625 249.328 191.312 250.047C192.008 250.766 192.938 251.125 194.102 251.125C195.078 251.125 196 250.777 196.867 250.082V252.449ZM215.559 238.562H209.277V243.613H215.066V245.969H209.277V253H206.488V236.195H215.559V238.562ZM228.414 247.738H220.234C220.266 248.848 220.605 249.703 221.254 250.305C221.91 250.906 222.809 251.207 223.949 251.207C225.23 251.207 226.406 250.824 227.477 250.059V252.25C226.383 252.938 224.938 253.281 223.141 253.281C221.375 253.281 219.988 252.738 218.98 251.652C217.98 250.559 217.48 249.023 217.48 247.047C217.48 245.18 218.031 243.66 219.133 242.488C220.242 241.309 221.617 240.719 223.258 240.719C224.898 240.719 226.168 241.246 227.066 242.301C227.965 243.355 228.414 244.82 228.414 246.695V247.738ZM225.789 245.816C225.781 244.84 225.551 244.082 225.098 243.543C224.645 242.996 224.02 242.723 223.223 242.723C222.441 242.723 221.777 243.008 221.23 243.578C220.691 244.148 220.359 244.895 220.234 245.816H225.789ZM240.215 253H237.578V251.125H237.531C236.703 252.562 235.488 253.281 233.887 253.281C232.707 253.281 231.781 252.961 231.109 252.32C230.445 251.68 230.113 250.832 230.113 249.777C230.113 247.512 231.418 246.191 234.027 245.816L237.59 245.312C237.59 243.602 236.777 242.746 235.152 242.746C233.723 242.746 232.434 243.238 231.285 244.223V241.844C232.551 241.094 234.012 240.719 235.668 240.719C238.699 240.719 240.215 242.211 240.215 245.195V253ZM237.59 247.105L235.07 247.457C234.289 247.559 233.699 247.75 233.301 248.031C232.91 248.305 232.715 248.789 232.715 249.484C232.715 249.992 232.895 250.41 233.254 250.738C233.621 251.059 234.109 251.219 234.719 251.219C235.547 251.219 236.23 250.93 236.77 250.352C237.316 249.766 237.59 249.031 237.59 248.148V247.105ZM249.871 252.871C249.34 253.137 248.641 253.27 247.773 253.27C245.445 253.27 244.281 252.152 244.281 249.918V243.133H242.277V241H244.281V238.223L247 237.449V241H249.871V243.133H247V249.133C247 249.844 247.129 250.352 247.387 250.656C247.645 250.961 248.074 251.113 248.676 251.113C249.137 251.113 249.535 250.98 249.871 250.715V252.871ZM262.68 253H259.961V251.102H259.914C259.125 252.555 257.898 253.281 256.234 253.281C253.398 253.281 251.98 251.578 251.98 248.172V241H254.699V247.891C254.699 250.047 255.531 251.125 257.195 251.125C258 251.125 258.66 250.828 259.176 250.234C259.699 249.641 259.961 248.863 259.961 247.902V241H262.68V253ZM273.191 243.59C272.863 243.332 272.391 243.203 271.773 243.203C270.969 243.203 270.297 243.566 269.758 244.293C269.219 245.02 268.949 246.008 268.949 247.258V253H266.23V241H268.949V243.473H268.996C269.262 242.629 269.668 241.973 270.215 241.504C270.77 241.027 271.387 240.789 272.066 240.789C272.559 240.789 272.934 240.863 273.191 241.012V243.59ZM285.062 247.738H276.883C276.914 248.848 277.254 249.703 277.902 250.305C278.559 250.906 279.457 251.207 280.598 251.207C281.879 251.207 283.055 250.824 284.125 250.059V252.25C283.031 252.938 281.586 253.281 279.789 253.281C278.023 253.281 276.637 252.738 275.629 251.652C274.629 250.559 274.129 249.023 274.129 247.047C274.129 245.18 274.68 243.66 275.781 242.488C276.891 241.309 278.266 240.719 279.906 240.719C281.547 240.719 282.816 241.246 283.715 242.301C284.613 243.355 285.062 244.82 285.062 246.695V247.738ZM282.438 245.816C282.43 244.84 282.199 244.082 281.746 243.543C281.293 242.996 280.668 242.723 279.871 242.723C279.09 242.723 278.426 243.008 277.879 243.578C277.34 244.148 277.008 244.895 276.883 245.816H282.438ZM298.562 253H295.844V250.961H295.797C294.922 252.508 293.574 253.281 291.754 253.281C290.277 253.281 289.094 252.746 288.203 251.676C287.32 250.598 286.879 249.133 286.879 247.281C286.879 245.297 287.367 243.707 288.344 242.512C289.328 241.316 290.637 240.719 292.27 240.719C293.887 240.719 295.062 241.367 295.797 242.664H295.844V235.234H298.562V253ZM295.879 247.516V245.945C295.879 245.094 295.602 244.371 295.047 243.777C294.492 243.184 293.785 242.887 292.926 242.887C291.91 242.887 291.109 243.266 290.523 244.023C289.945 244.781 289.656 245.832 289.656 247.176C289.656 248.395 289.934 249.359 290.488 250.07C291.051 250.773 291.805 251.125 292.75 251.125C293.68 251.125 294.434 250.785 295.012 250.105C295.59 249.418 295.879 248.555 295.879 247.516ZM311.805 246.906V253H309.027V236.195H314.125C316.055 236.195 317.551 236.645 318.613 237.543C319.676 238.441 320.207 239.707 320.207 241.34C320.207 242.973 319.652 244.309 318.543 245.348C317.434 246.387 315.934 246.906 314.043 246.906H311.805ZM311.805 238.492V244.633H313.609C314.805 244.633 315.715 244.355 316.34 243.801C316.965 243.246 317.277 242.465 317.277 241.457C317.277 239.48 316.129 238.492 313.832 238.492H311.805ZM331.27 253H328.633V251.125H328.586C327.758 252.562 326.543 253.281 324.941 253.281C323.762 253.281 322.836 252.961 322.164 252.32C321.5 251.68 321.168 250.832 321.168 249.777C321.168 247.512 322.473 246.191 325.082 245.816L328.645 245.312C328.645 243.602 327.832 242.746 326.207 242.746C324.777 242.746 323.488 243.238 322.34 244.223V241.844C323.605 241.094 325.066 240.719 326.723 240.719C329.754 240.719 331.27 242.211 331.27 245.195V253ZM328.645 247.105L326.125 247.457C325.344 247.559 324.754 247.75 324.355 248.031C323.965 248.305 323.77 248.789 323.77 249.484C323.77 249.992 323.949 250.41 324.309 250.738C324.676 251.059 325.164 251.219 325.773 251.219C326.602 251.219 327.285 250.93 327.824 250.352C328.371 249.766 328.645 249.031 328.645 248.148V247.105ZM341.559 243.59C341.23 243.332 340.758 243.203 340.141 243.203C339.336 243.203 338.664 243.566 338.125 244.293C337.586 245.02 337.316 246.008 337.316 247.258V253H334.598V241H337.316V243.473H337.363C337.629 242.629 338.035 241.973 338.582 241.504C339.137 241.027 339.754 240.789 340.434 240.789C340.926 240.789 341.301 240.863 341.559 241.012V243.59ZM350.512 252.871C349.98 253.137 349.281 253.27 348.414 253.27C346.086 253.27 344.922 252.152 344.922 249.918V243.133H342.918V241H344.922V238.223L347.641 237.449V241H350.512V243.133H347.641V249.133C347.641 249.844 347.77 250.352 348.027 250.656C348.285 250.961 348.715 251.113 349.316 251.113C349.777 251.113 350.176 250.98 350.512 250.715V252.871ZM363.543 253H360.824V246.238C360.824 243.996 360.031 242.875 358.445 242.875C357.617 242.875 356.934 243.188 356.395 243.812C355.855 244.43 355.586 245.211 355.586 246.156V253H352.855V241H355.586V242.992H355.633C356.531 241.477 357.828 240.719 359.523 240.719C360.828 240.719 361.824 241.145 362.512 241.996C363.199 242.84 363.543 244.062 363.543 245.664V253ZM377.031 247.738H368.852C368.883 248.848 369.223 249.703 369.871 250.305C370.527 250.906 371.426 251.207 372.566 251.207C373.848 251.207 375.023 250.824 376.094 250.059V252.25C375 252.938 373.555 253.281 371.758 253.281C369.992 253.281 368.605 252.738 367.598 251.652C366.598 250.559 366.098 249.023 366.098 247.047C366.098 245.18 366.648 243.66 367.75 242.488C368.859 241.309 370.234 240.719 371.875 240.719C373.516 240.719 374.785 241.246 375.684 242.301C376.582 243.355 377.031 244.82 377.031 246.695V247.738ZM374.406 245.816C374.398 244.84 374.168 244.082 373.715 243.543C373.262 242.996 372.637 242.723 371.84 242.723C371.059 242.723 370.395 243.008 369.848 243.578C369.309 244.148 368.977 244.895 368.852 245.816H374.406ZM386.582 243.59C386.254 243.332 385.781 243.203 385.164 243.203C384.359 243.203 383.688 243.566 383.148 244.293C382.609 245.02 382.34 246.008 382.34 247.258V253H379.621V241H382.34V243.473H382.387C382.652 242.629 383.059 241.973 383.605 241.504C384.16 241.027 384.777 240.789 385.457 240.789C385.949 240.789 386.324 240.863 386.582 241.012V243.59Z" fill="white"/>
</g>
<defs>
<linearGradient id="paint0_linear_2732_1824" x1="-3.09069e-07" y1="140.5" x2="578.093" y2="140.5" gradientUnits="userSpaceOnUse">
<stop stop-color="#BA131A"/>
<stop offset="1" stop-color="#541309"/>
</linearGradient>
<clipPath id="clip0_2732_1824">
<rect width="534" height="281" fill="white"/>
</clipPath>
</defs>
</svg>
