<?xml version="1.0" encoding="utf-8"?>
<!-- Generator: Adobe Illustrator 15.0.0, SVG Export Plug-In . SVG Version: 6.00 Build 0)  -->
<!DOCTYPE svg PUBLIC "-//W3C//DTD SVG 1.1//EN" "http://www.w3.org/Graphics/SVG/1.1/DTD/svg11.dtd">
<svg version="1.1" id="Layer_1" xmlns="http://www.w3.org/2000/svg" xmlns:xlink="http://www.w3.org/1999/xlink" x="0px" y="0px"
	 width="96px" height="112px" viewBox="0 0 96 112" enable-background="new 0 0 96 112" xml:space="preserve">
<g id="pause">
	<g>
		<path fill="#FFFFFF" d="M11.034,17.979c-0.86,0-1.555,0.264-1.555,1.122v9.85c0,0.858,0.695,1.123,1.555,1.123
			c0.859,0,1.555-0.265,1.555-1.123v-9.85C12.588,18.243,11.893,17.979,11.034,17.979z"/>
		<path fill="#FFFFFF" d="M4.986,17.979c-0.859,0-1.555,0.264-1.555,1.122v9.85c0,0.858,0.696,1.123,1.555,1.123
			c0.859,0,1.555-0.265,1.555-1.123v-9.85C6.541,18.243,5.845,17.979,4.986,17.979z"/>
	</g>
</g>
<g id="play">
	<path fill="#FFFFFF" d="M12.762,7.986L4.2,2.683c-0.624-0.41-1.135-0.108-1.135,0.669v10.296c0,0.777,0.511,1.078,1.135,0.669
		l8.562-5.304c0,0,0.304-0.214,0.304-0.513C13.065,8.201,12.762,7.986,12.762,7.986z"/>
</g>
<g id="sound">
	<g>
		<path fill="#FFFFFF" d="M23.687,26.242c0,0.241-0.195,0.437-0.437,0.437h-5.219c-0.241,0-0.437-0.195-0.437-0.437v-4.368
			c0-0.24,0.196-0.437,0.437-0.437h5.219c0.241,0,0.437,0.196,0.437,0.437V26.242z"/>
		<g>
			<path fill="#FFFFFF" d="M17.613,24.05c0,0.299,0.304,0.514,0.304,0.514l7.062,5.303c0.624,0.41,1.135,0.109,1.135-0.668V18.901
				c0-0.777-0.511-1.078-1.135-0.668l-7.062,5.303C17.917,23.536,17.613,23.751,17.613,24.05z"/>
		</g>
	</g>
	<g>
		<path fill="#FFFFFF" d="M27.42,21.354c-0.16-0.159-0.44-0.159-0.6,0c-0.16,0.16-0.16,0.44,0,0.641l0,0
			c0.56,0.559,0.839,1.319,0.839,2.039c0,0.76-0.28,1.479-0.839,2.039c-0.16,0.16-0.16,0.44,0,0.641c0.08,0.079,0.2,0.12,0.32,0.12
			c0.12,0,0.24-0.041,0.32-0.12c0.72-0.72,1.08-1.72,1.08-2.68C28.5,23.073,28.14,22.114,27.42,21.354z"/>
		<path fill="#FFFFFF" d="M28.78,19.954c-0.16-0.16-0.44-0.16-0.601,0c-0.161,0.16-0.16,0.439,0,0.64l0,0
			c0.96,0.96,1.4,2.199,1.4,3.439c0,1.24-0.48,2.479-1.4,3.438c-0.16,0.161-0.16,0.44,0,0.641c0.081,0.08,0.2,0.12,0.32,0.12
			c0.121,0,0.24-0.04,0.32-0.12c1.12-1.119,1.68-2.6,1.68-4.079C30.459,22.553,29.899,21.074,28.78,19.954z"/>
	</g>
</g>
<g id="mute">
	<g>
		<path fill="#FFFFFF" d="M23.688,10.294c0,0.241-0.195,0.437-0.437,0.437h-5.219c-0.241,0-0.437-0.196-0.437-0.437V5.926
			c0-0.241,0.196-0.437,0.437-0.437h5.219c0.241,0,0.437,0.196,0.437,0.437V10.294z"/>
		<g>
			<path fill="#FFFFFF" d="M17.615,8.102c0,0.299,0.304,0.513,0.304,0.513l7.062,5.304c0.624,0.41,1.135,0.108,1.135-0.668V2.954
				c0-0.777-0.511-1.079-1.135-0.669l-7.062,5.304C17.919,7.588,17.615,7.803,17.615,8.102z"/>
		</g>
	</g>
</g>
<g id="play-big">
	<path fill="#FFFFFF" d="M40.001,32.05C17.913,32.05,0,49.96,0,72.048c0,22.097,17.913,40.002,40.001,40.002
		C62.094,112.05,80,94.145,80,72.048C80,49.96,62.094,32.05,40.001,32.05z M40.001,108.064c-19.889,0-36.017-16.129-36.017-36.019
		c0-19.888,16.128-36.012,36.017-36.012c19.892,0,36.017,16.124,36.017,36.012C76.018,91.938,59.893,108.064,40.001,108.064z"/>
	<g>
		<path fill="#FFFFFF" d="M53.305,70.669L32.924,58.04c-1.489-0.978-2.704-0.258-2.704,1.592v24.515
			c0,1.851,1.214,2.565,2.704,1.595l20.379-12.632c0,0,0.727-0.508,0.727-1.221C54.029,71.18,53.305,70.669,53.305,70.669z"/>
	</g>
</g>
<g id="caption">
	<path fill="#FFFFFF" d="M63.1,13.026c0,0.552-0.447,1-1,1H49.975c-0.553,0-1-0.448-1-1v-10c0-0.552,0.447-1,1-1H62.1
		c0.553,0,1,0.448,1,1V13.026z"/>
	<g id="cc">
		<path fill="#FFFFFF" d="M53.869,9.375c-0.324,0-0.57-0.118-0.736-0.354c-0.167-0.237-0.25-0.552-0.25-0.946
			c0-0.867,0.328-1.301,0.986-1.301c0.131,0,0.273,0.043,0.426,0.131c0.154,0.088,0.283,0.241,0.389,0.46l0.985-0.513
			c-0.394-0.709-1.048-1.064-1.958-1.064c-0.623,0-1.137,0.206-1.544,0.618c-0.407,0.412-0.612,0.968-0.612,1.669
			c0,0.718,0.203,1.279,0.605,1.683c0.402,0.404,0.934,0.604,1.59,0.604c0.412,0,0.789-0.104,1.131-0.309
			c0.342-0.206,0.609-0.489,0.801-0.848l-0.906-0.46C54.6,9.166,54.298,9.375,53.869,9.375z"/>
		<path fill="#FFFFFF" d="M58.711,9.375c-0.324,0-0.568-0.118-0.734-0.354c-0.168-0.237-0.25-0.552-0.25-0.946
			c0-0.867,0.328-1.301,0.984-1.301c0.141,0,0.287,0.043,0.439,0.131c0.154,0.088,0.283,0.241,0.389,0.46l0.973-0.513
			c-0.386-0.709-1.033-1.064-1.945-1.064c-0.621,0-1.137,0.206-1.543,0.618c-0.407,0.412-0.61,0.968-0.61,1.669
			c0,0.718,0.198,1.279,0.599,1.683c0.398,0.404,0.93,0.604,1.596,0.604c0.404,0,0.775-0.104,1.117-0.309
			c0.342-0.206,0.612-0.489,0.815-0.848l-0.921-0.46C59.443,9.166,59.141,9.375,58.711,9.375z"/>
	</g>
</g>
<path id="opposing" fill="#FFFFFF" d="M36.167,26.758L34.1,28.69l1.333,1.334l1.934-2.066l1.333,1.4v-3.934h-3.934L36.167,26.758z
	 M46.1,19.358l-1.333-1.334l-1.934,2.066l-1.333-1.4v3.934h3.933l-1.399-1.333L46.1,19.358z"/>
<path id="resize" fill="#FFFFFF" d="M41.076,2.868l1.602,1.297l-2.02,1.953l1.334,1.333l1.954-2.021l1.328,1.638v-4.2H41.076z
	 M37.992,8.784l-1.954,2.021l-1.313-1.621v4.2h4.201l-1.621-1.313l2.021-1.954L37.992,8.784z"/>
<path id="loop" fill="#FFFFFF" d="M77.411,5.188h-2.877v2.118h2.271v3.18h-9.387v-3.18h3.18v1.666l3.027-2.726l-3.027-2.725v1.666
	h-3.785c-0.836,0-1.514,0.678-1.514,1.513v4.391c0,0.835,0.678,1.514,1.514,1.514h10.599c0.836,0,1.514-0.678,1.514-1.514v-4.39
	C78.925,5.865,78.247,5.188,77.411,5.188z"/>
<g id="play_1_">
	<path fill="#FFFFFF" d="M83.031,4.708l4.184,6.75c0,0,0.334,0.476,0.805,0.476c0.469,0,0.804-0.476,0.804-0.476l4.174-6.736
		L83.031,4.708z"/>
</g>
</svg>
