<?xml version="1.0" encoding="UTF-8"?>
<svg xmlns="http://www.w3.org/2000/svg" xmlns:xlink="http://www.w3.org/1999/xlink" width="192px" height="25px" viewBox="0 0 192 25" version="1.1">
<g id="surface1">
<path style=" stroke:none;fill-rule:nonzero;fill:rgb(72.941176%,7.843137%,10.196078%);fill-opacity:1;" d="M 45.230469 24.554688 L 49.324219 24.574219 L 40.902344 6.484375 L 38.703125 1.761719 L 36.492188 6.511719 L 33.121094 13.738281 L 31.535156 13.058594 L 28.636719 19.625 L 30.511719 19.34375 L 28.078125 24.574219 L 31.964844 24.574219 L 34.574219 18.734375 L 42.125 17.59375 L 36.207031 15.058594 L 38.703125 9.480469 Z M 45.230469 24.554688 "/>
<path style=" stroke:none;fill-rule:nonzero;fill:rgb(34.901961%,34.901961%,34.901961%);fill-opacity:1;" d="M 79.785156 23.324219 L 79.785156 20.167969 C 80.175781 20.507812 80.609375 20.796875 81.074219 21.027344 C 81.585938 21.285156 82.117188 21.503906 82.667969 21.671875 C 83.214844 21.847656 83.773438 21.984375 84.339844 22.082031 C 84.855469 22.167969 85.375 22.21875 85.898438 22.222656 C 87.539062 22.222656 88.761719 21.917969 89.574219 21.308594 C 90.390625 20.6875 90.84375 19.699219 90.789062 18.675781 C 90.800781 18.113281 90.664062 17.558594 90.386719 17.066406 C 90.09375 16.597656 89.722656 16.183594 89.289062 15.847656 C 88.757812 15.4375 88.191406 15.074219 87.59375 14.765625 C 86.957031 14.421875 86.253906 14.058594 85.492188 13.675781 C 84.699219 13.273438 83.957031 12.863281 83.269531 12.453125 C 82.609375 12.058594 81.996094 11.585938 81.449219 11.046875 C 80.949219 10.558594 80.542969 9.984375 80.25 9.351562 C 79.945312 8.652344 79.796875 7.894531 79.8125 7.132812 C 79.792969 6.179688 80.03125 5.242188 80.5 4.417969 C 80.945312 3.65625 81.558594 3.007812 82.292969 2.519531 C 83.066406 2.019531 83.925781 1.652344 84.824219 1.441406 C 85.769531 1.195312 86.746094 1.070312 87.726562 1.070312 C 89.96875 1.070312 91.601562 1.34375 92.628906 1.882812 L 92.628906 4.886719 C 91.285156 3.957031 89.5625 3.492188 87.457031 3.492188 C 86.867188 3.492188 86.28125 3.554688 85.707031 3.671875 C 85.160156 3.78125 84.632812 3.984375 84.152344 4.269531 C 83.714844 4.53125 83.339844 4.890625 83.054688 5.316406 C 82.757812 5.789062 82.605469 6.34375 82.625 6.90625 C 82.609375 7.429688 82.722656 7.945312 82.949219 8.417969 C 83.183594 8.867188 83.511719 9.261719 83.910156 9.582031 C 84.390625 9.96875 84.90625 10.308594 85.453125 10.597656 C 86.0625 10.929688 86.765625 11.289062 87.558594 11.679688 C 88.347656 12.066406 89.140625 12.484375 89.867188 12.964844 C 90.558594 13.386719 91.203125 13.882812 91.785156 14.445312 C 92.332031 14.960938 92.78125 15.5625 93.125 16.230469 C 93.453125 16.9375 93.617188 17.710938 93.601562 18.488281 C 93.636719 19.488281 93.410156 20.484375 92.945312 21.371094 C 92.515625 22.136719 91.90625 22.789062 91.167969 23.265625 C 90.375 23.773438 89.5 24.132812 88.582031 24.328125 C 87.570312 24.546875 86.539062 24.65625 85.503906 24.652344 C 85.058594 24.648438 84.613281 24.617188 84.171875 24.5625 C 83.640625 24.503906 83.097656 24.421875 82.550781 24.308594 C 82.019531 24.203125 81.496094 24.066406 80.984375 23.894531 C 80.558594 23.761719 80.15625 23.570312 79.785156 23.324219 Z M 79.785156 23.324219 "/>
<path style=" stroke:none;fill-rule:nonzero;fill:rgb(34.901961%,34.901961%,34.901961%);fill-opacity:1;" d="M 102.746094 24.628906 C 100.34375 24.628906 98.425781 23.867188 96.992188 22.34375 C 95.554688 20.828125 94.839844 18.804688 94.839844 16.292969 C 94.839844 13.554688 95.585938 11.417969 97.078125 9.882812 C 98.570312 8.347656 100.589844 7.578125 103.128906 7.578125 C 105.554688 7.578125 107.449219 8.324219 108.8125 9.820312 C 110.171875 11.316406 110.851562 13.394531 110.847656 16.0625 C 110.847656 18.664062 110.113281 20.742188 108.648438 22.304688 C 107.179688 23.847656 105.210938 24.628906 102.746094 24.628906 Z M 102.9375 9.773438 C 101.421875 9.699219 99.957031 10.332031 98.96875 11.480469 C 97.988281 12.621094 97.503906 14.195312 97.503906 16.199219 C 97.503906 18.117188 97.996094 19.640625 98.980469 20.765625 C 99.984375 21.886719 101.4375 22.496094 102.9375 22.429688 C 104.621094 22.429688 105.914062 21.886719 106.816406 20.792969 C 107.71875 19.699219 108.179688 18.148438 108.179688 16.136719 C 108.179688 14.125 107.699219 12.527344 106.816406 11.425781 C 105.933594 10.320312 104.628906 9.773438 102.9375 9.773438 Z M 102.9375 9.773438 "/>
<path style=" stroke:none;fill-rule:nonzero;fill:rgb(72.941176%,7.843137%,10.196078%);fill-opacity:1;" d="M 24.5625 1.652344 L 19.4375 1.652344 C 19.4375 1.652344 12.777344 18.25 12.390625 19.453125 L 12.308594 19.453125 C 12.167969 18.882812 5.433594 1.652344 5.433594 1.652344 L 0.109375 1.652344 L 0.109375 24.460938 L 3.605469 24.460938 C 3.605469 24.460938 3.5625 6.175781 3.464844 5.28125 L 3.535156 5.28125 C 3.746094 6.300781 10.949219 24.492188 10.949219 24.492188 L 13.554688 24.492188 C 13.554688 24.492188 20.726562 6.242188 20.980469 5.28125 L 21.042969 5.28125 C 20.894531 7.035156 20.824219 24.492188 20.824219 24.492188 L 24.5625 24.492188 Z M 24.5625 1.652344 "/>
<path style=" stroke:none;fill-rule:nonzero;fill:rgb(34.901961%,34.901961%,34.901961%);fill-opacity:1;" d="M 165.863281 24.617188 L 163.261719 24.617188 L 163.261719 22.089844 L 163.199219 22.089844 C 162.230469 23.945312 160.285156 25.085938 158.195312 25.019531 C 156.574219 25.019531 155.304688 24.589844 154.390625 23.730469 C 153.460938 22.84375 152.960938 21.59375 153.015625 20.308594 C 153.015625 17.269531 154.804688 15.5 158.386719 14.996094 L 163.261719 14.316406 C 163.261719 11.546875 162.144531 10.160156 159.90625 10.160156 C 157.953125 10.160156 156.066406 10.871094 154.597656 12.164062 L 154.597656 9.476562 C 156.253906 8.441406 158.175781 7.910156 160.125 7.949219 C 163.960938 7.949219 165.878906 9.972656 165.878906 14.023438 Z M 163.261719 16.226562 L 159.339844 16.765625 C 158.371094 16.851562 157.4375 17.160156 156.605469 17.664062 C 155.992188 18.09375 155.6875 18.851562 155.6875 19.949219 C 155.664062 20.691406 155.976562 21.40625 156.535156 21.898438 C 157.171875 22.425781 157.980469 22.695312 158.808594 22.652344 C 160.019531 22.6875 161.1875 22.191406 162.003906 21.292969 C 162.859375 20.355469 163.316406 19.117188 163.269531 17.847656 Z M 163.261719 16.226562 "/>
<path style=" stroke:none;fill-rule:nonzero;fill:rgb(34.901961%,34.901961%,34.901961%);fill-opacity:1;" d="M 177.234375 10.957031 C 176.652344 10.574219 175.957031 10.386719 175.261719 10.433594 C 174.125 10.449219 173.078125 11.039062 172.476562 12.003906 C 171.730469 13.054688 171.359375 14.488281 171.359375 16.296875 L 171.359375 24.605469 L 168.75 24.605469 L 168.75 8.316406 L 171.359375 8.316406 L 171.359375 11.679688 L 171.421875 11.679688 C 171.722656 10.640625 172.308594 9.710938 173.117188 8.996094 C 173.828125 8.375 174.738281 8.035156 175.679688 8.035156 C 176.207031 8.011719 176.734375 8.085938 177.234375 8.253906 Z M 177.234375 10.957031 "/>
<path style=" stroke:none;fill-rule:nonzero;fill:rgb(34.901961%,34.901961%,34.901961%);fill-opacity:1;" d="M 191.890625 16.832031 L 180.40625 16.832031 C 180.449219 18.640625 180.933594 20.042969 181.867188 21.027344 C 182.878906 22.046875 184.273438 22.585938 185.703125 22.507812 C 187.546875 22.503906 189.328125 21.863281 190.753906 20.699219 L 190.753906 23.144531 C 189.324219 24.183594 187.433594 24.703125 185.082031 24.703125 C 182.78125 24.703125 180.980469 23.960938 179.667969 22.484375 C 178.359375 21.003906 177.699219 18.921875 177.699219 16.242188 C 177.699219 13.707031 178.414062 11.640625 179.851562 10.046875 C 181.1875 8.488281 183.148438 7.609375 185.195312 7.644531 C 187.320312 7.644531 188.96875 8.335938 190.132812 9.714844 C 191.300781 11.09375 191.882812 13.015625 191.878906 15.476562 Z M 189.21875 14.761719 C 189.21875 13.257812 188.851562 12.082031 188.136719 11.246094 C 187.390625 10.398438 186.304688 9.933594 185.175781 9.988281 C 183.996094 9.96875 182.859375 10.449219 182.046875 11.308594 C 181.15625 12.257812 180.597656 13.46875 180.460938 14.761719 Z M 189.21875 14.761719 "/>
<path style=" stroke:none;fill-rule:nonzero;fill:rgb(34.901961%,34.901961%,34.901961%);fill-opacity:1;" d="M 150.449219 8.328125 L 147.148438 20.609375 C 147.003906 21.078125 146.914062 21.5625 146.878906 22.050781 L 146.75 22.050781 C 146.710938 21.566406 146.632812 21.082031 146.515625 20.609375 L 143.160156 8.328125 L 140.761719 8.328125 L 137.011719 20.542969 C 136.863281 21.03125 136.765625 21.535156 136.722656 22.042969 L 136.597656 22.042969 C 136.570312 21.554688 136.496094 21.074219 136.375 20.601562 L 133.070312 8.597656 L 133.011719 8.164062 L 125.773438 8.164062 L 125.773438 3.363281 L 123.171875 4.203125 L 123.171875 8.164062 L 115.945312 8.164062 L 115.945312 5.660156 C 115.945312 3.363281 116.855469 2.210938 118.679688 2.210938 C 119.28125 2.199219 119.878906 2.347656 120.410156 2.640625 L 120.410156 0.289062 C 119.808594 0.0742188 119.171875 -0.0234375 118.535156 0 C 117.152344 -0.0390625 115.816406 0.503906 114.847656 1.488281 C 113.824219 2.578125 113.289062 4.042969 113.371094 5.535156 L 113.371094 8.164062 L 110.59375 8.164062 L 110.59375 10.386719 L 113.371094 10.386719 L 113.371094 24.492188 L 115.960938 24.492188 L 115.960938 10.402344 L 123.183594 10.402344 L 123.183594 20.042969 C 123.183594 23.222656 124.609375 24.8125 127.457031 24.816406 C 128.296875 24.851562 129.132812 24.679688 129.886719 24.308594 L 129.886719 22.089844 C 129.394531 22.453125 128.796875 22.644531 128.183594 22.628906 C 127.496094 22.695312 126.816406 22.4375 126.34375 21.929688 C 125.976562 21.453125 125.789062 20.683594 125.789062 19.59375 L 125.789062 10.402344 L 130.921875 10.402344 L 135.238281 24.617188 L 137.839844 24.617188 L 141.480469 12.925781 C 141.644531 12.449219 141.753906 11.953125 141.8125 11.449219 L 141.878906 11.449219 C 141.910156 11.957031 141.996094 12.464844 142.132812 12.957031 L 145.488281 24.617188 L 148.1875 24.617188 L 153.0625 8.328125 Z M 150.449219 8.328125 "/>
<path style=" stroke:none;fill-rule:nonzero;fill:rgb(72.941176%,7.843137%,10.196078%);fill-opacity:1;" d="M 68.363281 21.222656 C 70.367188 19.054688 71.371094 16.113281 71.367188 12.394531 C 71.367188 8.964844 70.390625 6.191406 68.4375 4.070312 C 66.484375 1.953125 63.910156 0.890625 60.710938 0.886719 C 57.261719 0.886719 54.53125 1.980469 52.519531 4.167969 C 50.507812 6.355469 49.5 9.289062 49.492188 12.964844 C 49.492188 16.386719 50.480469 19.160156 52.457031 21.289062 C 54.433594 23.417969 57.0625 24.484375 60.347656 24.492188 C 61.917969 24.511719 63.476562 24.222656 64.9375 23.640625 L 65.683594 24.601562 L 69.925781 24.601562 L 67.769531 21.832031 C 67.972656 21.609375 68.191406 21.425781 68.363281 21.222656 Z M 60.363281 21.160156 C 58.425781 21.214844 56.578125 20.355469 55.375 18.835938 C 54.097656 17.289062 53.457031 15.246094 53.457031 12.710938 C 53.457031 10.175781 54.113281 8.125 55.417969 6.554688 C 56.664062 5.023438 58.550781 4.160156 60.519531 4.214844 C 62.667969 4.214844 64.355469 4.960938 65.578125 6.445312 C 66.804688 7.929688 67.414062 10.035156 67.414062 12.757812 C 67.414062 15.402344 66.789062 17.457031 65.535156 18.929688 L 64.136719 17.128906 L 59.851562 17.128906 L 62.726562 20.808594 C 61.960938 21.046875 61.164062 21.164062 60.363281 21.160156 Z M 60.363281 21.160156 "/>
</g>
</svg>
