<svg xmlns="http://www.w3.org/2000/svg" viewBox="0 0 400 52.06"><defs><style>.cls-1{fill:#ba141a;}.cls-2{fill:#595959;}</style></defs><g id="Layer_2" data-name="Layer 2"><g id="MAQ_Logo" data-name="MAQ Logo"><polygon class="cls-1" points="94.11 51.13 102.65 51.17 85.08 13.5 80.49 3.67 75.88 13.56 68.85 28.61 65.54 27.19 59.5 40.87 63.41 40.28 58.33 51.17 66.44 51.17 71.88 39.01 87.63 36.64 75.29 31.36 80.49 19.74 94.11 51.13"/><path class="cls-2" d="M166.18,48.57V42a13,13,0,0,0,2.69,1.79,21.53,21.53,0,0,0,3.32,1.34,25.7,25.7,0,0,0,3.49.85,20.56,20.56,0,0,0,3.25.3q5.13,0,7.67-1.91a6.44,6.44,0,0,0,2.53-5.48,6.48,6.48,0,0,0-.84-3.35A9.65,9.65,0,0,0,186,33a23.4,23.4,0,0,0-3.53-2.25q-2-1.08-4.39-2.27c-1.65-.84-3.2-1.69-4.63-2.55A19.86,19.86,0,0,1,169.65,23a11.89,11.89,0,0,1-2.5-3.53,10.85,10.85,0,0,1-.91-4.62,10.91,10.91,0,0,1,1.43-5.65,12.07,12.07,0,0,1,3.74-3.95A16.73,16.73,0,0,1,176.69,3a24.12,24.12,0,0,1,6.05-.77c4.68,0,8.09.57,10.23,1.69v6.26q-4.2-2.91-10.79-2.91a18.1,18.1,0,0,0-3.65.38,10.21,10.21,0,0,0-3.24,1.24A7.25,7.25,0,0,0,173,11.07a5.87,5.87,0,0,0-.9,3.31,6.84,6.84,0,0,0,.68,3.15,7.65,7.65,0,0,0,2,2.42A19.86,19.86,0,0,0,178,22.07c1.27.69,2.74,1.44,4.39,2.25S185.69,26,187.21,27a22.72,22.72,0,0,1,4,3.08A13.65,13.65,0,0,1,194,33.8a10.55,10.55,0,0,1,1,4.7,12,12,0,0,1-1.37,6,11.33,11.33,0,0,1-3.71,3.95,16.27,16.27,0,0,1-5.39,2.21,29.59,29.59,0,0,1-6.42.68,26.77,26.77,0,0,1-2.78-.19c-1.11-.12-2.24-.29-3.38-.53a26,26,0,0,1-3.27-.86A10,10,0,0,1,166.18,48.57Z"/><path class="cls-2" d="M214.07,51.29q-7.51,0-12-4.76c-3-3.16-4.49-7.37-4.49-12.6q0-8.55,4.67-13.35t12.62-4.8q7.59,0,11.85,4.67t4.25,13q0,8.12-4.59,13C223.32,49.66,219.21,51.29,214.07,51.29Zm.4-30.94a10.29,10.29,0,0,0-8.28,3.56q-3.06,3.56-3.05,9.82,0,6,3.08,9.51a10.45,10.45,0,0,0,8.25,3.47c3.51,0,6.21-1.13,8.09-3.41s2.84-5.51,2.84-9.7-1-7.51-2.84-9.81S218,20.35,214.47,20.35Z"/><path class="cls-1" d="M51,3.44H40.31S26.42,38,25.61,40.51h-.17C25.15,39.32,11.1,3.44,11.1,3.44H0v47.5H7.29S7.2,12.86,7,11h.14c.44,2.12,15.47,40,15.47,40h5.43S43,13,43.53,11h.13c-.31,3.65-.46,40-.46,40H51Z"/><path class="cls-2" d="M345.72,51.26h-5.43V46h-.13a11.38,11.38,0,0,1-10.44,6.1q-5.07,0-7.93-2.68a9.32,9.32,0,0,1-2.87-7.13q0-9.49,11.2-11.06l10.17-1.42q0-8.65-7-8.65a16.73,16.73,0,0,0-11.07,4.17V19.73a21,21,0,0,1,11.53-3.18q12,0,12,12.65Zm-5.43-17.47-8.18,1.12a13.43,13.43,0,0,0-5.7,1.87c-1.28.9-1.92,2.48-1.92,4.76a5.18,5.18,0,0,0,1.77,4.06A6.83,6.83,0,0,0,331,47.17a8.7,8.7,0,0,0,6.67-2.83,10.11,10.11,0,0,0,2.64-7.17Z"/><path class="cls-2" d="M369.43,22.82a6.64,6.64,0,0,0-4.11-1.09A6.93,6.93,0,0,0,359.51,25q-2.33,3.28-2.33,8.94V51.24h-5.44V17.32h5.44v7h.13a11.84,11.84,0,0,1,3.54-5.59,8.12,8.12,0,0,1,5.34-2,8.83,8.83,0,0,1,3.24.46Z"/><path class="cls-2" d="M400,35.05H376.05c.09,3.77,1.1,6.69,3.05,8.74a10.47,10.47,0,0,0,8,3.08,16.69,16.69,0,0,0,10.53-3.77v5.1q-4.47,3.24-11.83,3.24-7.19,0-11.29-4.62t-4.11-13q0-7.92,4.49-12.9a14.38,14.38,0,0,1,11.15-5q6.65,0,10.3,4.31t3.64,12Zm-5.57-4.31c0-3.13-.77-5.58-2.26-7.32A7.71,7.71,0,0,0,386,20.8a8.79,8.79,0,0,0-6.53,2.75,12.46,12.46,0,0,0-3.31,7.19Z"/><path class="cls-2" d="M313.57,17.34l-6.89,25.58a13.85,13.85,0,0,0-.56,3h-.27a18.4,18.4,0,0,0-.49-3l-7-25.58h-5l-7.82,25.44a14.72,14.72,0,0,0-.6,3.12h-.26a15.47,15.47,0,0,0-.47-3l-6.89-25L277.2,17H262.1V7l-5.43,1.75V17H241.6V11.79q0-7.18,5.7-7.19a7.19,7.19,0,0,1,3.61.9V.6A10.55,10.55,0,0,0,247,0a10.4,10.4,0,0,0-7.69,3.1,11.43,11.43,0,0,0-3.08,8.43V17h-5.79v4.63h5.79V51h5.4V21.66h15.07V41.74q0,9.93,8.91,9.94a10.55,10.55,0,0,0,5.07-1.06V46a5.74,5.74,0,0,1-3.55,1.12,4.62,4.62,0,0,1-3.84-1.45c-.77-1-1.16-2.6-1.16-4.87V21.66h10.71l9,29.6h5.43l7.59-24.34a14.31,14.31,0,0,0,.69-3.08h.14a15.43,15.43,0,0,0,.53,3.14l7,24.28h5.63l10.17-33.92Z"/><path class="cls-1" d="M142.36,44.19q6.27-6.76,6.26-18.38,0-10.71-6.11-17.33T126.4,1.85q-10.8,0-17.09,6.83T103,27q0,10.68,6.18,17.33T125.64,51a24.84,24.84,0,0,0,9.57-1.77l1.56,2h8.85l-4.5-5.77C141.54,45,142,44.62,142.36,44.19Zm-16.69-.13a12.79,12.79,0,0,1-10.4-4.84q-4-4.83-4-12.75t4.09-12.82A13.22,13.22,0,0,1,126,8.78q6.72,0,10.55,4.64t3.83,13.15q0,8.25-3.92,12.85l-2.92-3.75H124.6l6,7.66A16.1,16.1,0,0,1,125.67,44.06Z"/></g></g></svg>