<svg xmlns="http://www.w3.org/2000/svg" xmlns:xlink="http://www.w3.org/1999/xlink" version="1.1" width="1000" height="1000" viewBox="0 0 1000 1000" xml:space="preserve">
<desc>Created with Fabric.js 3.5.0</desc>
<defs>
</defs>
<rect x="0" y="0" width="100%" height="100%" fill="#ffffff"/>
<g transform="matrix(0.48 0 0 0.48 141.4545 453.3353)" id="3973">
<g style="" vector-effect="non-scaling-stroke">
		<g transform="matrix(1 0 0 1 -119.51 1.39)" id="MAQ_Logo">
<polygon style="stroke: none; stroke-width: 1; stroke-dasharray: none; stroke-linecap: butt; stroke-dashoffset: 0; stroke-linejoin: miter; stroke-miterlimit: 4; is-custom-font: none; font-file-url: none; fill: rgb(186,20,26); fill-rule: nonzero; opacity: 1;" points="13.62,23.71 22.16,23.75 4.59,-13.92 0,-23.75 -4.61,-13.86 -11.64,1.19 -14.95,-0.23 -20.99,13.45 -17.08,12.86 -22.16,23.75 -14.05,23.75 -8.61,11.59 7.14,9.22 -5.2,3.94 0,-7.68 13.62,23.71 "/>
</g>
		<g transform="matrix(1 0 0 1 -19.4064 0.7551)" id="MAQ_Logo">
<path style="stroke: none; stroke-width: 1; stroke-dasharray: none; stroke-linecap: butt; stroke-dashoffset: 0; stroke-linejoin: miter; stroke-miterlimit: 4; is-custom-font: none; font-file-url: none; fill: rgb(89,89,89); fill-rule: nonzero; opacity: 1;" transform=" translate(-180.5936, -26.7851)" d="M 166.18 48.57 V 42 a 13 13 0 0 0 2.69 1.79 a 21.53 21.53 0 0 0 3.32 1.34 a 25.7 25.7 0 0 0 3.49 0.85 a 20.56 20.56 0 0 0 3.25 0.3 q 5.13 0 7.67 -1.91 a 6.44 6.44 0 0 0 2.53 -5.48 a 6.48 6.48 0 0 0 -0.84 -3.35 A 9.65 9.65 0 0 0 186 33 a 23.4 23.4 0 0 0 -3.53 -2.25 q -2 -1.08 -4.39 -2.27 c -1.65 -0.84 -3.2 -1.69 -4.63 -2.55 A 19.86 19.86 0 0 1 169.65 23 a 11.89 11.89 0 0 1 -2.5 -3.53 a 10.85 10.85 0 0 1 -0.91 -4.62 a 10.91 10.91 0 0 1 1.43 -5.65 a 12.07 12.07 0 0 1 3.74 -3.95 A 16.73 16.73 0 0 1 176.69 3 a 24.12 24.12 0 0 1 6.05 -0.77 c 4.68 0 8.09 0.57 10.23 1.69 v 6.26 q -4.2 -2.91 -10.79 -2.91 a 18.1 18.1 0 0 0 -3.65 0.38 a 10.21 10.21 0 0 0 -3.24 1.24 A 7.25 7.25 0 0 0 173 11.07 a 5.87 5.87 0 0 0 -0.9 3.31 a 6.84 6.84 0 0 0 0.68 3.15 a 7.65 7.65 0 0 0 2 2.42 A 19.86 19.86 0 0 0 178 22.07 c 1.27 0.69 2.74 1.44 4.39 2.25 S 185.69 26 187.21 27 a 22.72 22.72 0 0 1 4 3.08 A 13.65 13.65 0 0 1 194 33.8 a 10.55 10.55 0 0 1 1 4.7 a 12 12 0 0 1 -1.37 6 a 11.33 11.33 0 0 1 -3.71 3.95 a 16.27 16.27 0 0 1 -5.39 2.21 a 29.59 29.59 0 0 1 -6.42 0.68 a 26.77 26.77 0 0 1 -2.78 -0.19 c -1.11 -0.12 -2.24 -0.29 -3.38 -0.53 a 26 26 0 0 1 -3.27 -0.86 A 10 10 0 0 1 166.18 48.57 Z" stroke-linecap="round"/>
</g>
		<g transform="matrix(1 0 0 1 14.2755 7.505)" id="MAQ_Logo">
<path style="stroke: none; stroke-width: 1; stroke-dasharray: none; stroke-linecap: butt; stroke-dashoffset: 0; stroke-linejoin: miter; stroke-miterlimit: 4; is-custom-font: none; font-file-url: none; fill: rgb(89,89,89); fill-rule: nonzero; opacity: 1;" transform=" translate(-214.2755, -33.535)" d="M 214.07 51.29 q -7.51 0 -12 -4.76 c -3 -3.16 -4.49 -7.37 -4.49 -12.6 q 0 -8.55 4.67 -13.35 t 12.62 -4.8 q 7.59 0 11.85 4.67 t 4.25 13 q 0 8.12 -4.59 13 C 223.32 49.66 219.21 51.29 214.07 51.29 Z m 0.4 -30.94 a 10.29 10.29 0 0 0 -8.28 3.56 q -3.06 3.56 -3.05 9.82 q 0 6 3.08 9.51 a 10.45 10.45 0 0 0 8.25 3.47 c 3.51 0 6.21 -1.13 8.09 -3.41 s 2.84 -5.51 2.84 -9.7 s -1 -7.51 -2.84 -9.81 S 218 20.35 214.47 20.35 Z" stroke-linecap="round"/>
</g>
		<g transform="matrix(1 0 0 1 -174.5 1.19)" id="MAQ_Logo">
<path style="stroke: none; stroke-width: 1; stroke-dasharray: none; stroke-linecap: butt; stroke-dashoffset: 0; stroke-linejoin: miter; stroke-miterlimit: 4; is-custom-font: none; font-file-url: none; fill: rgb(186,20,26); fill-rule: nonzero; opacity: 1;" transform=" translate(-25.5, -27.22)" d="M 51 3.44 H 40.31 S 26.42 38 25.61 40.51 h -0.17 C 25.15 39.32 11.1 3.44 11.1 3.44 H 0 v 47.5 H 7.29 S 7.2 12.86 7 11 h 0.14 c 0.44 2.12 15.47 40 15.47 40 h 5.43 S 43 13 43.53 11 h 0.13 c -0.31 3.65 -0.46 40 -0.46 40 H 51 Z" stroke-linecap="round"/>
</g>
		<g transform="matrix(1 0 0 1 132.3308 8.2957)" id="MAQ_Logo">
<path style="stroke: none; stroke-width: 1; stroke-dasharray: none; stroke-linecap: butt; stroke-dashoffset: 0; stroke-linejoin: miter; stroke-miterlimit: 4; is-custom-font: none; font-file-url: none; fill: rgb(89,89,89); fill-rule: nonzero; opacity: 1;" transform=" translate(-332.3308, -34.3258)" d="M 345.72 51.26 h -5.43 V 46 h -0.13 a 11.38 11.38 0 0 1 -10.44 6.1 q -5.07 0 -7.93 -2.68 a 9.32 9.32 0 0 1 -2.87 -7.13 q 0 -9.49 11.2 -11.06 l 10.17 -1.42 q 0 -8.65 -7 -8.65 a 16.73 16.73 0 0 0 -11.07 4.17 V 19.73 a 21 21 0 0 1 11.53 -3.18 q 12 0 12 12.65 Z m -5.43 -17.47 l -8.18 1.12 a 13.43 13.43 0 0 0 -5.7 1.87 c -1.28 0.9 -1.92 2.48 -1.92 4.76 a 5.18 5.18 0 0 0 1.77 4.06 A 6.83 6.83 0 0 0 331 47.17 a 8.7 8.7 0 0 0 6.67 -2.83 a 10.11 10.11 0 0 0 2.64 -7.17 Z" stroke-linecap="round"/>
</g>
		<g transform="matrix(1 0 0 1 160.585 7.9504)" id="MAQ_Logo">
<path style="stroke: none; stroke-width: 1; stroke-dasharray: none; stroke-linecap: butt; stroke-dashoffset: 0; stroke-linejoin: miter; stroke-miterlimit: 4; is-custom-font: none; font-file-url: none; fill: rgb(89,89,89); fill-rule: nonzero; opacity: 1;" transform=" translate(-360.585, -33.9805)" d="M 369.43 22.82 a 6.64 6.64 0 0 0 -4.11 -1.09 A 6.93 6.93 0 0 0 359.51 25 q -2.33 3.28 -2.33 8.94 V 51.24 h -5.44 V 17.32 h 5.44 v 7 h 0.13 a 11.84 11.84 0 0 1 3.54 -5.59 a 8.12 8.12 0 0 1 5.34 -2 a 8.83 8.83 0 0 1 3.24 0.46 Z" stroke-linecap="round"/>
</g>
		<g transform="matrix(1 0 0 1 185.2 7.6489)" id="MAQ_Logo">
<path style="stroke: none; stroke-width: 1; stroke-dasharray: none; stroke-linecap: butt; stroke-dashoffset: 0; stroke-linejoin: miter; stroke-miterlimit: 4; is-custom-font: none; font-file-url: none; fill: rgb(89,89,89); fill-rule: nonzero; opacity: 1;" transform=" translate(-385.2, -33.6789)" d="M 400 35.05 H 376.05 c 0.09 3.77 1.1 6.69 3.05 8.74 a 10.47 10.47 0 0 0 8 3.08 a 16.69 16.69 0 0 0 10.53 -3.77 v 5.1 q -4.47 3.24 -11.83 3.24 q -7.19 0 -11.29 -4.62 t -4.11 -13 q 0 -7.92 4.49 -12.9 a 14.38 14.38 0 0 1 11.15 -5 q 6.65 0 10.3 4.31 t 3.64 12 Z m -5.57 -4.31 c 0 -3.13 -0.77 -5.58 -2.26 -7.32 A 7.71 7.71 0 0 0 386 20.8 a 8.79 8.79 0 0 0 -6.53 2.75 a 12.46 12.46 0 0 0 -3.31 7.19 Z" stroke-linecap="round"/>
</g>
		<g transform="matrix(1 0 0 1 74.73 -0.1889)" id="MAQ_Logo">
<path style="stroke: none; stroke-width: 1; stroke-dasharray: none; stroke-linecap: butt; stroke-dashoffset: 0; stroke-linejoin: miter; stroke-miterlimit: 4; is-custom-font: none; font-file-url: none; fill: rgb(89,89,89); fill-rule: nonzero; opacity: 1;" transform=" translate(-274.73, -25.8412)" d="M 313.57 17.34 l -6.89 25.58 a 13.85 13.85 0 0 0 -0.56 3 h -0.27 a 18.4 18.4 0 0 0 -0.49 -3 l -7 -25.58 h -5 l -7.82 25.44 a 14.72 14.72 0 0 0 -0.6 3.12 h -0.26 a 15.47 15.47 0 0 0 -0.47 -3 l -6.89 -25 L 277.2 17 H 262.1 V 7 l -5.43 1.75 V 17 H 241.6 V 11.79 q 0 -7.18 5.7 -7.19 a 7.19 7.19 0 0 1 3.61 0.9 V 0.6 A 10.55 10.55 0 0 0 247 0 a 10.4 10.4 0 0 0 -7.69 3.1 a 11.43 11.43 0 0 0 -3.08 8.43 V 17 h -5.79 v 4.63 h 5.79 V 51 h 5.4 V 21.66 h 15.07 V 41.74 q 0 9.93 8.91 9.94 a 10.55 10.55 0 0 0 5.07 -1.06 V 46 a 5.74 5.74 0 0 1 -3.55 1.12 a 4.62 4.62 0 0 1 -3.84 -1.45 c -0.77 -1 -1.16 -2.6 -1.16 -4.87 V 21.66 h 10.71 l 9 29.6 h 5.43 l 7.59 -24.34 a 14.31 14.31 0 0 0 0.69 -3.08 h 0.14 a 15.43 15.43 0 0 0 0.53 3.14 l 7 24.28 h 5.63 l 10.17 -33.92 Z" stroke-linecap="round"/>
</g>
		<g transform="matrix(1 0 0 1 -74.1896 0.51)" id="MAQ_Logo">
<path style="stroke: none; stroke-width: 1; stroke-dasharray: none; stroke-linecap: butt; stroke-dashoffset: 0; stroke-linejoin: miter; stroke-miterlimit: 4; is-custom-font: none; font-file-url: none; fill: rgb(186,20,26); fill-rule: nonzero; opacity: 1;" transform=" translate(-125.8104, -26.54)" d="M 142.36 44.19 q 6.27 -6.76 6.26 -18.38 q 0 -10.71 -6.11 -17.33 T 126.4 1.85 q -10.8 0 -17.09 6.83 T 103 27 q 0 10.68 6.18 17.33 T 125.64 51 a 24.84 24.84 0 0 0 9.57 -1.77 l 1.56 2 h 8.85 l -4.5 -5.77 C 141.54 45 142 44.62 142.36 44.19 Z m -16.69 -0.13 a 12.79 12.79 0 0 1 -10.4 -4.84 q -4 -4.83 -4 -12.75 t 4.09 -12.82 A 13.22 13.22 0 0 1 126 8.78 q 6.72 0 10.55 4.64 t 3.83 13.15 q 0 8.25 -3.92 12.85 l -2.92 -3.75 H 124.6 l 6 7.66 A 16.1 16.1 0 0 1 125.67 44.06 Z" stroke-linecap="round"/>
</g>
</g>
</g>
</svg>