<svg width="10" height="11" viewBox="0 0 10 11" fill="none" xmlns="http://www.w3.org/2000/svg">
<path d="M8.12895 6.75L8.48018 8.50539C8.53618 8.78527 8.28944 9.03206 8.00954 8.97611L6.25304 8.625L5.3352 10.0011C5.17686 10.2385 4.828 10.2385 4.66966 10.0011L3.75182 8.625L1.99529 8.97611C1.71539 9.03206 1.46865 8.78527 1.52466 8.50539L1.87591 6.75L0.499547 5.83287C0.261955 5.67455 0.261955 5.32545 0.499547 5.16713L1.87591 4.25L1.52466 2.49459C1.46865 2.2147 1.7154 1.96791 1.99529 2.02386L3.75182 2.375L4.66966 0.998913C4.828 0.761519 5.17686 0.761519 5.3352 0.998913L6.25304 2.375L8.00954 2.02386C8.28943 1.96791 8.53618 2.2147 8.48018 2.49458L8.12895 4.25L9.50214 5.1674C9.73921 5.32577 9.73921 5.67423 9.50214 5.8326L8.12895 6.75ZM5.96483 7.93164C6.27419 7.987 6.58034 8.04557 6.8832 8.10743C7.18935 8.16929 7.4955 8.23271 7.80165 8.29786C7.73647 7.99186 7.67301 7.6875 7.61113 7.38479C7.54924 7.07879 7.49064 6.77114 7.43525 6.46193C7.67952 6.30243 7.91892 6.14293 8.15339 5.98343C8.39115 5.82064 8.63212 5.6595 8.87638 5.5C8.63541 5.33721 8.39601 5.17607 8.15825 5.01657C7.92049 4.85707 7.67952 4.69757 7.43525 4.53807C7.49385 4.22886 7.5541 3.92286 7.61598 3.62014C7.67787 3.31414 7.73976 3.00814 7.80165 2.70214C7.4955 2.76729 7.18935 2.83071 6.8832 2.89257C6.58034 2.95443 6.27419 3.013 5.96483 3.06836C5.80525 2.82421 5.64567 2.58334 5.48609 2.3457C5.32652 2.10807 5.16529 1.86881 5.00243 1.62793C4.83956 1.86881 4.67834 2.10807 4.51877 2.3457C4.35919 2.58334 4.19961 2.82421 4.04003 3.06836C3.73067 3.013 3.42288 2.95443 3.11675 2.89257C2.81387 2.83071 2.50935 2.76729 2.20322 2.70214C2.26835 3.00814 2.33186 3.31414 2.39374 3.62014C2.45562 3.92286 2.51424 4.22886 2.56961 4.53807C2.32535 4.69757 2.08435 4.85707 1.8466 5.01657C1.60885 5.17607 1.36948 5.33721 1.12848 5.5C1.36948 5.66279 1.60885 5.82393 1.8466 5.98343C2.08435 6.14293 2.32535 6.30243 2.56961 6.46193C2.51098 6.77114 2.45073 7.07879 2.38885 7.38479C2.32697 7.6875 2.2651 7.99186 2.20322 8.29786C2.50935 8.23271 2.81387 8.16929 3.11675 8.10743C3.42288 8.04557 3.73067 7.987 4.04003 7.93164C4.19961 8.17579 4.35919 8.41664 4.51877 8.65429C4.67834 8.89193 4.83956 9.13122 5.00243 9.37207C5.16529 9.13122 5.32652 8.89193 5.48609 8.65429C5.64567 8.41664 5.80525 8.17579 5.96483 7.93164ZM6.34587 4.03029L6.78551 4.46971L4.37713 6.87693L3.21935 5.71971L3.65899 5.28029L4.37713 5.99807L6.34587 4.03029Z" fill="#A96500"/>
</svg>
