<svg width="10" height="11" viewBox="0 0 10 11" fill="none" xmlns="http://www.w3.org/2000/svg">
<g clip-path="url(#clip0_1245_41176)">
<path d="M2.3653 1.92822C2.3653 1.13943 2.97567 0.5 3.7286 0.5H6.45521C7.20814 0.5 7.81851 1.13943 7.81851 1.92822H8.15934C8.72404 1.92822 9.18182 2.40779 9.18182 2.99938V3.71349C9.18182 4.60684 8.55512 5.34669 7.73763 5.47803C7.4686 6.60827 6.55695 7.47211 5.43275 7.61898V8.35519H6.45521C7.20814 8.35519 7.81851 8.99462 7.81851 9.7834V10.1429C7.81851 10.3401 7.66592 10.5 7.47769 10.5H2.70613C2.51789 10.5 2.3653 10.3401 2.3653 10.1429V9.7834C2.3653 8.99462 2.97567 8.35519 3.7286 8.35519H4.7511V7.61898C3.62692 7.47213 2.71527 6.60833 2.44621 5.47812C1.62853 5.34706 1 4.60746 1 3.71349V2.99938C1 2.40779 1.45778 1.92822 2.02248 1.92822L2.3653 1.92822ZM7.13686 1.92822C7.13686 1.53383 6.83168 1.21411 6.45521 1.21411H3.7286C3.35214 1.21411 3.04695 1.53383 3.04695 1.92822V4.78465C3.04695 5.96782 3.96251 6.92697 5.09191 6.92697C6.20545 6.92697 7.11111 5.99457 7.13632 4.83435L7.13686 1.92822ZM7.81851 4.72353C8.21561 4.57632 8.50017 4.17957 8.50017 3.71349V2.99938C8.50017 2.80218 8.34757 2.64232 8.15934 2.64232H7.81851V4.72353ZM2.3653 2.64232H2.02248C1.83424 2.64232 1.68165 2.80218 1.68165 2.99938V3.71349C1.68165 4.17953 1.96725 4.57675 2.3653 4.7238V2.64232ZM3.04695 9.7834V9.78589H7.13686V9.7834C7.13686 9.38901 6.83168 9.0693 6.45521 9.0693H3.7286C3.35214 9.0693 3.04695 9.38901 3.04695 9.7834Z" fill="#0078D4"/>
</g>
<defs>
<clipPath id="clip0_1245_41176">
<rect width="10" height="10" fill="white" transform="translate(0 0.5)"/>
</clipPath>
</defs>
</svg>
