<svg width="10" height="11" viewBox="0 0 10 11" fill="none" xmlns="http://www.w3.org/2000/svg">
<path d="M4.42619 1.87199C4.66091 1.376 5.33909 1.37601 5.57381 1.87199L6.46304 3.751L8.45143 4.05231C8.97628 4.13185 9.18585 4.80449 8.80606 5.19055L7.36726 6.65316L7.70691 8.71839C7.79657 9.26353 7.2479 9.67924 6.77846 9.42186L5 8.44679L3.22154 9.42186C2.7521 9.67924 2.20343 9.26353 2.29309 8.71839L2.63274 6.65316L1.19394 5.19055C0.814153 4.80448 1.02372 4.13185 1.54857 4.05231L3.53696 3.751L4.42619 1.87199ZM5 2.54428L4.217 4.19881C4.12379 4.39577 3.94362 4.53228 3.7352 4.56386L1.98436 4.82918L3.25128 6.11706C3.4021 6.27037 3.47092 6.49125 3.43531 6.70772L3.13623 8.52623L4.70223 7.66765C4.88865 7.56544 5.11135 7.56544 5.29777 7.66765L6.86377 8.52623L6.56469 6.70772C6.52908 6.49125 6.5979 6.27037 6.74872 6.11706L8.01564 4.82918L6.2648 4.56386C6.05638 4.53228 5.87621 4.39577 5.783 4.19881L5 2.54428Z" fill="#107C18"/>
</svg>
