<svg width="15" height="15" viewBox="0 0 15 15" fill="none" xmlns="http://www.w3.org/2000/svg">
<mask id="path-1-inside-1_1262_24328" fill="white">
<path d="M5.15702 12.4571C5.10701 12.5115 5.06791 12.5756 5.04196 12.6457C5.01601 12.7157 5.00371 12.7903 5.00577 12.8653C5.00783 12.9402 5.02421 13.014 5.05396 13.0824C5.08372 13.1508 5.12627 13.2125 5.17919 13.264C5.23211 13.3155 5.29436 13.3557 5.36239 13.3824C5.43042 13.4092 5.5029 13.4218 5.57568 13.4197C5.64846 13.4176 5.72013 13.4007 5.78658 13.3701C5.85304 13.3395 5.91298 13.2956 5.96299 13.2412L10.6747 8.10518C10.772 7.99922 10.8262 7.85894 10.8262 7.71313C10.8262 7.56732 10.772 7.42704 10.6747 7.32108L5.96299 2.18453C5.91331 2.12885 5.85338 2.08389 5.78668 2.05226C5.71998 2.02064 5.64784 2.00297 5.57446 2.00028C5.50107 1.9976 5.42789 2.00995 5.35918 2.03663C5.29047 2.0633 5.22759 2.10377 5.1742 2.15567C5.12081 2.20758 5.07797 2.26989 5.04817 2.33898C5.01836 2.40808 5.00219 2.48258 5.00059 2.55816C4.99899 2.63374 5.012 2.7089 5.03885 2.77926C5.0657 2.84963 5.10587 2.9138 5.15702 2.96805L9.50949 7.71313L5.15702 12.4571Z"/>
</mask>
<path d="M5.15702 12.4571C5.10701 12.5115 5.06791 12.5756 5.04196 12.6457C5.01601 12.7157 5.00371 12.7903 5.00577 12.8653C5.00783 12.9402 5.02421 13.014 5.05396 13.0824C5.08372 13.1508 5.12627 13.2125 5.17919 13.264C5.23211 13.3155 5.29436 13.3557 5.36239 13.3824C5.43042 13.4092 5.5029 13.4218 5.57568 13.4197C5.64846 13.4176 5.72013 13.4007 5.78658 13.3701C5.85304 13.3395 5.91298 13.2956 5.96299 13.2412L10.6747 8.10518C10.772 7.99922 10.8262 7.85894 10.8262 7.71313C10.8262 7.56732 10.772 7.42704 10.6747 7.32108L5.96299 2.18453C5.91331 2.12885 5.85338 2.08389 5.78668 2.05226C5.71998 2.02064 5.64784 2.00297 5.57446 2.00028C5.50107 1.9976 5.42789 2.00995 5.35918 2.03663C5.29047 2.0633 5.22759 2.10377 5.1742 2.15567C5.12081 2.20758 5.07797 2.26989 5.04817 2.33898C5.01836 2.40808 5.00219 2.48258 5.00059 2.55816C4.99899 2.63374 5.012 2.7089 5.03885 2.77926C5.0657 2.84963 5.10587 2.9138 5.15702 2.96805L9.50949 7.71313L5.15702 12.4571Z" fill="black"/>
<path d="M5.15702 12.4571L6.26207 13.4714L6.2623 13.4711L5.15702 12.4571ZM5.96299 13.2412L7.06804 14.2555L7.06833 14.2552L5.96299 13.2412ZM10.6747 8.10518L9.56984 7.09059L9.56932 7.09116L10.6747 8.10518ZM10.8262 7.71313L9.32617 7.71313L10.8262 7.71313ZM10.6747 7.32108L9.56926 8.33504L9.56984 8.33567L10.6747 7.32108ZM5.96299 2.18453L4.84378 3.18321L4.85064 3.19089L4.8576 3.19848L5.96299 2.18453ZM5.15702 2.96805L6.26242 1.9541L6.25548 1.94653L6.24843 1.93905L5.15702 2.96805ZM9.50949 7.71313L10.6148 8.7272L11.5451 7.71325L10.6149 6.69919L9.50949 7.71313ZM4.05197 11.4427C3.86909 11.642 3.72824 11.874 3.63541 12.1245L6.44851 13.1668C6.40758 13.2773 6.34492 13.3811 6.26207 13.4714L4.05197 11.4427ZM3.63541 12.1245C3.5426 12.375 3.49903 12.6406 3.50634 12.9065L6.50521 12.8241C6.50839 12.9401 6.48942 13.0564 6.44851 13.1668L3.63541 12.1245ZM3.50634 12.9065C3.51364 13.1724 3.57173 13.4353 3.67842 13.6806L6.4295 12.4841C6.47668 12.5926 6.50202 12.708 6.50521 12.8241L3.50634 12.9065ZM3.67842 13.6806C3.78514 13.926 3.93898 14.1502 4.13322 14.3391L6.22516 12.1888C6.31355 12.2748 6.38229 12.3756 6.4295 12.4841L3.67842 13.6806ZM4.13322 14.3391C4.32755 14.5282 4.55856 14.6783 4.81409 14.7786L5.91069 11.9862C6.03017 12.0332 6.13667 12.1027 6.22516 12.1888L4.13322 14.3391ZM4.81409 14.7786C5.06973 14.879 5.34352 14.9271 5.61935 14.9191L5.53201 11.9203C5.66228 11.9165 5.79111 11.9393 5.91069 11.9862L4.81409 14.7786ZM5.61935 14.9191C5.89516 14.911 6.16547 14.8471 6.41452 14.7323L5.15865 12.0078C5.27479 11.9543 5.40176 11.9241 5.53201 11.9203L5.61935 14.9191ZM6.41452 14.7323C6.66346 14.6176 6.88509 14.4548 7.06804 14.2555L4.85794 12.2268C4.94087 12.1365 5.04262 12.0613 5.15865 12.0078L6.41452 14.7323ZM7.06833 14.2552L11.78 9.11919L9.56932 7.09116L4.85765 12.2271L7.06833 14.2552ZM11.7795 9.11976C12.1347 8.7329 12.3262 8.22903 12.3262 7.71313L9.32617 7.71313C9.32617 7.48885 9.40918 7.26554 9.56984 7.09059L11.7795 9.11976ZM12.3262 7.71313C12.3262 7.19723 12.1347 6.69335 11.7795 6.30649L9.56984 8.33567C9.40918 8.16072 9.32617 7.93741 9.32617 7.71313L12.3262 7.71313ZM11.78 6.30713L7.06838 1.17057L4.8576 3.19848L9.56926 8.33504L11.78 6.30713ZM7.0822 1.18584C6.90059 0.982316 6.67916 0.815372 6.42939 0.69693L5.14398 3.4076C5.0276 3.35241 4.92603 3.27539 4.84378 3.18321L7.0822 1.18584ZM6.42939 0.69693C6.17951 0.578435 5.90744 0.511457 5.62929 0.501283L5.51963 3.49928C5.38825 3.49447 5.26046 3.46283 5.14398 3.4076L6.42939 0.69693ZM5.62929 0.501283C5.35111 0.491108 5.0746 0.538035 4.81631 0.638312L5.90206 3.43494C5.78119 3.48187 5.65103 3.50409 5.51963 3.49928L5.62929 0.501283ZM4.81631 0.638312C4.55812 0.738549 4.32473 0.889496 4.12863 1.08014L6.21978 3.23121C6.13046 3.31804 6.02282 3.38806 5.90206 3.43494L4.81631 0.638312ZM4.12863 1.08014C3.93262 1.27068 3.77773 1.49706 3.67083 1.74488L6.4255 2.93308C6.37821 3.04272 6.309 3.14447 6.21978 3.23121L4.12863 1.08014ZM3.67083 1.74488C3.56397 1.99263 3.5066 2.25819 3.50093 2.52644L6.50026 2.58989C6.49778 2.70697 6.47276 2.82352 6.4255 2.93308L3.67083 1.74488ZM3.50093 2.52644C3.49525 2.79468 3.54134 3.06227 3.63744 3.31409L6.44027 2.24444C6.48266 2.35553 6.50273 2.47281 6.50026 2.58989L3.50093 2.52644ZM3.63744 3.31409C3.73356 3.56597 3.87839 3.79846 4.06561 3.99704L6.24843 1.93905C6.33335 2.02913 6.39785 2.13329 6.44027 2.24444L3.63744 3.31409ZM4.05161 3.98199L8.40408 8.72707L10.6149 6.69919L6.26242 1.9541L4.05161 3.98199ZM8.4042 6.69905L4.05173 11.443L6.2623 13.4711L10.6148 8.7272L8.4042 6.69905Z" fill="black" mask="url(#path-1-inside-1_1262_24328)"/>
</svg>
