<svg width="51" height="50" viewBox="0 0 51 50" fill="none" xmlns="http://www.w3.org/2000/svg">
<path d="M20.5119 0C22.2811 0 23.2881 1.76057 23.2881 3.53057V14.3674H21.0496C20.3079 12.5341 18.5114 11.2408 16.4131 11.2408C13.6517 11.2408 11.4131 13.4805 11.4131 16.2433C11.4131 19.0061 13.6517 21.2457 16.4131 21.2457C18.5115 21.2457 20.3079 19.9525 21.0496 18.1192H23.2881V45.3772C23.2881 46.8683 22.658 48.3513 21.3314 49.0308C20.1966 49.6121 18.8894 50 17.433 50C13.6563 50 10.8476 48.0886 9.04063 45.8267C7.71376 44.1658 6.84157 42.2137 6.49283 40.4814C5.48609 40.1888 4.34907 39.6408 3.3189 38.7566C1.54343 37.2327 0.163086 34.7793 0.163086 31.1664C0.163086 29.2771 0.298106 27.632 0.63651 26.2482H11.1626C12.8579 26.2482 14.2612 27.4987 14.5013 29.1281C12.6884 29.8792 11.4131 31.6665 11.4131 33.7518C11.4131 36.5146 13.6517 38.7543 16.4131 38.7543C19.1745 38.7543 21.4131 36.5146 21.4131 33.7518C21.4131 31.6452 20.1115 29.8426 18.269 29.1053C18.003 25.4109 14.923 22.4963 11.1626 22.4963H2.76168C3.08795 22.2266 3.44628 21.9988 3.83607 21.8149C3.89058 21.7891 3.94533 21.7644 4.00032 21.7407C3.73656 20.8225 3.59893 19.8636 3.55666 18.9227C3.4741 17.0849 3.74753 15.1702 4.29396 13.4671C4.83227 11.7892 5.68701 10.159 6.88895 9.03053C7.6437 8.32194 8.57718 7.78626 9.62759 7.61253C10.1244 5.51186 11.3922 3.77519 13.0098 2.51536C15.0889 0.896049 17.8088 0 20.5119 0ZM27.0381 37.5037H31.1631C35.0981 37.5037 38.2881 34.3121 38.2881 30.3752V25.8846C40.1205 25.1425 41.4131 23.3451 41.4131 21.2457C41.4131 18.483 39.1745 16.2433 36.4131 16.2433C33.6517 16.2433 31.4131 18.483 31.4131 21.2457C31.4131 23.3451 32.7057 25.1425 34.5381 25.8846V30.3752C34.5381 32.2401 33.027 33.7518 31.1631 33.7518H27.0381V16.2609C27.0381 16.255 27.0382 16.2492 27.0382 16.2433C27.0382 16.2374 27.0381 16.2315 27.0381 16.2256V3.53057C27.0381 1.76057 28.0451 0 29.8142 0C32.5174 0 35.2373 0.896049 37.3164 2.51536C38.934 3.77519 40.2018 5.51186 40.6986 7.61253C41.749 7.78626 42.6825 8.32194 43.4372 9.03053C44.6392 10.159 45.4939 11.7892 46.0322 13.4671C46.5786 15.1702 46.8521 17.0849 46.7695 18.9227C46.7272 19.8636 46.5896 20.8225 46.3259 21.7407C46.3808 21.7644 46.4356 21.7891 46.4901 21.8149C47.4155 22.2516 48.1636 22.9351 48.7264 23.8421C49.7892 25.5547 50.1631 28.0225 50.1631 31.1664C50.1631 34.7793 48.7827 37.2327 47.0073 38.7566C45.9771 39.6408 44.8401 40.1888 43.8333 40.4814C43.4846 42.2137 42.6124 44.1658 41.2855 45.8267C39.4785 48.0886 36.6699 50 32.8932 50C31.4368 50 30.1296 49.6121 28.9947 49.0308C27.6681 48.3513 27.0381 46.8683 27.0381 45.3772V37.5037ZM15.1631 16.2433C15.1631 15.5526 15.7227 14.9927 16.4131 14.9927C17.1034 14.9927 17.6631 15.5526 17.6631 16.2433C17.6631 16.934 17.1034 17.4939 16.4131 17.4939C15.7227 17.4939 15.1631 16.934 15.1631 16.2433ZM16.4131 32.5012C15.7227 32.5012 15.1631 33.0611 15.1631 33.7518C15.1631 34.4425 15.7227 35.0025 16.4131 35.0025C17.1034 35.0025 17.6631 34.4425 17.6631 33.7518C17.6631 33.0611 17.1034 32.5012 16.4131 32.5012ZM35.1631 21.2457C35.1631 21.9364 35.7227 22.4963 36.4131 22.4963C37.1034 22.4963 37.6631 21.9364 37.6631 21.2457C37.6631 20.555 37.1034 19.9951 36.4131 19.9951C35.7227 19.9951 35.1631 20.555 35.1631 21.2457Z" fill="#BA141A"/>
</svg>
