<svg width="50" height="50" viewBox="0 0 50 50" fill="none" xmlns="http://www.w3.org/2000/svg">
<path d="M5.55556 11.1111C8.6238 11.1111 11.1111 8.6238 11.1111 5.55556C11.1111 2.48731 8.6238 0 5.55556 0C2.48731 0 0 2.48731 0 5.55556C0 8.6238 2.48731 11.1111 5.55556 11.1111ZM44.4444 11.1111C47.5127 11.1111 50 8.6238 50 5.55556C50 2.48731 47.5127 0 44.4444 0C41.3762 0 38.8889 2.48731 38.8889 5.55556C38.8889 8.6238 41.3762 11.1111 44.4444 11.1111ZM50 44.4444C50 47.5127 47.5127 50 44.4444 50C41.3762 50 38.8889 47.5127 38.8889 44.4444C38.8889 41.3762 41.3762 38.8889 44.4444 38.8889C47.5127 38.8889 50 41.3762 50 44.4444ZM5.55556 50C8.6238 50 11.1111 47.5127 11.1111 44.4444C11.1111 41.3762 8.6238 38.8889 5.55556 38.8889C2.48731 38.8889 0 41.3762 0 44.4444C0 47.5127 2.48731 50 5.55556 50ZM13.4147 8.33333C13.7218 7.4645 13.8889 6.52954 13.8889 5.55556C13.8889 4.58157 13.7218 3.64661 13.4147 2.77778H26.3889C30.2242 2.77778 33.3333 5.88691 33.3333 9.72222V16.6667H40.2778C44.1131 16.6667 47.2222 19.7758 47.2222 23.6111V36.5853C46.3534 36.2782 45.4184 36.1111 44.4444 36.1111C43.4705 36.1111 42.5355 36.2782 41.6667 36.5853V23.6111C41.6667 22.844 41.0448 22.2222 40.2778 22.2222H33.3333V26.3889C33.3333 30.2242 30.2242 33.3333 26.3889 33.3333H22.2222V40.2778C22.2222 41.0448 22.844 41.6667 23.6111 41.6667H36.5853C36.2782 42.5355 36.1111 43.4705 36.1111 44.4444C36.1111 45.4184 36.2782 46.3534 36.5853 47.2222H23.6111C19.7758 47.2222 16.6667 44.1131 16.6667 40.2778V33.3333H9.72222C5.88691 33.3333 2.77778 30.2242 2.77778 26.3889V13.4147C3.64661 13.7218 4.58157 13.8889 5.55556 13.8889C6.52954 13.8889 7.4645 13.7218 8.33333 13.4147V26.3889C8.33333 27.1559 8.95516 27.7778 9.72222 27.7778H16.6667V23.6111C16.6667 19.7758 19.7758 16.6667 23.6111 16.6667H27.7778V9.72222C27.7778 8.95516 27.1559 8.33333 26.3889 8.33333H13.4147ZM27.7778 26.3889V22.2222H23.6111C22.844 22.2222 22.2222 22.844 22.2222 23.6111V27.7778H26.3889C27.1559 27.7778 27.7778 27.1559 27.7778 26.3889Z" fill="#BA141A"/>
</svg>
