<svg width="50" height="50" viewBox="0 0 50 50" fill="none" xmlns="http://www.w3.org/2000/svg">
<path d="M13.1944 8.33333C10.5097 8.33333 8.33333 10.5097 8.33333 13.1944V18.75C8.33333 21.4347 10.5097 23.6111 13.1944 23.6111H18.75C21.4347 23.6111 23.6111 21.4347 23.6111 18.75V13.1944C23.6111 10.5097 21.4347 8.33333 18.75 8.33333H13.1944ZM13.1944 26.3889C10.5097 26.3889 8.33333 28.5653 8.33333 31.25V36.8056C8.33333 39.4903 10.5097 41.6667 13.1944 41.6667H18.75C21.4347 41.6667 23.6111 39.4903 23.6111 36.8056V31.25C23.6111 28.5653 21.4347 26.3889 18.75 26.3889H13.1944ZM31.25 8.33333C28.5653 8.33333 26.3889 10.5097 26.3889 13.1944V18.75C26.3889 21.4347 28.5653 23.6111 31.25 23.6111H36.8056C39.4903 23.6111 41.6667 21.4347 41.6667 18.75V13.1944C41.6667 10.5097 39.4903 8.33333 36.8056 8.33333H31.25ZM31.25 26.3889C28.5653 26.3889 26.3889 28.5653 26.3889 31.25V36.8056C26.3889 39.4903 28.5653 41.6667 31.25 41.6667H36.8056C39.4903 41.6667 41.6667 39.4903 41.6667 36.8056V31.25C41.6667 28.5653 39.4903 26.3889 36.8056 26.3889H31.25ZM0 8.68056C0 3.88642 3.88642 0 8.68056 0H41.3194C46.1136 0 50 3.88642 50 8.68056V41.3194C50 46.1136 46.1136 50 41.3194 50H8.68056C3.88642 50 0 46.1136 0 41.3194V8.68056ZM8.68056 3.47222C5.80407 3.47222 3.47222 5.80407 3.47222 8.68056V41.3194C3.47222 44.1959 5.80407 46.5278 8.68056 46.5278H41.3194C44.1959 46.5278 46.5278 44.1959 46.5278 41.3194V8.68056C46.5278 5.80407 44.1959 3.47222 41.3194 3.47222H8.68056Z" fill="#BA141A"/>
</svg>
