<svg width="50" height="50" viewBox="0 0 50 50" fill="none" xmlns="http://www.w3.org/2000/svg">
<path d="M22.5 7.5H36.8625C39.9691 7.5 42.4875 10.0184 42.4875 13.125V22.5H38.7375V13.125C38.7375 12.0895 37.898 11.25 36.8625 11.25H22.5V7.5ZM11.25 22.5V36.8625C11.25 37.898 12.0895 38.7375 13.125 38.7375H22.5V42.4875H13.125C10.0184 42.4875 7.5 39.9691 7.5 36.8625V22.5H11.25ZM0 5.625C0 2.5184 2.5184 0 5.625 0H14.375C17.4816 0 20 2.5184 20 5.625V14.375C20 17.4816 17.4816 20 14.375 20H5.625C2.5184 20 0 17.4816 0 14.375V5.625ZM25 30.625C25 27.5184 27.5184 25 30.625 25H44.375C47.4816 25 50 27.5184 50 30.625V44.375C50 47.4816 47.4816 50 44.375 50H30.625C27.5184 50 25 47.4816 25 44.375V30.625Z" fill="#BA141A"/>
</svg>
