<svg xmlns="http://www.w3.org/2000/svg" xmlns:xlink="http://www.w3.org/1999/xlink" width="222" height="60" viewBox="0 0 222 60">
  <defs>
    <clipPath id="clip-Web_1920_4">
      <rect width="222" height="60"/>
    </clipPath>
  </defs>
  <g id="Web_1920_4" data-name="Web 1920 – 4" clip-path="url(#clip-Web_1920_4)">
    <rect width="222" height="60" fill="#fff"/>
    <g id="Group_12" data-name="Group 12" transform="translate(9)">
      <g id="Group_9" data-name="Group 9" transform="translate(-265 -114)">
        <g id="Group_8" data-name="Group 8" transform="translate(0 31)">
          <g id="Group_6" data-name="Group 6">
            <circle id="Ellipse_3" data-name="Ellipse 3" cx="8.5" cy="8.5" r="8.5" transform="translate(297 107)" fill="#0078d5"/>
            <circle id="Ellipse_4" data-name="Ellipse 4" cx="11.5" cy="11.5" r="11.5" transform="translate(302 101)" fill="#0078d5"/>
            <circle id="Ellipse_5" data-name="Ellipse 5" cx="14" cy="14" r="14" transform="translate(308 99)" fill="#0078d5"/>
          </g>
          <g id="Group_7" data-name="Group 7" transform="translate(307 99)">
            <circle id="Ellipse_3-2" data-name="Ellipse 3" cx="8.5" cy="8.5" r="8.5" transform="translate(22 8)" fill="#0078d5"/>
            <circle id="Ellipse_4-2" data-name="Ellipse 4" cx="11.5" cy="11.5" r="11.5" transform="translate(11 2)" fill="#0078d5"/>
            <circle id="Ellipse_5-2" data-name="Ellipse 5" cx="14" cy="14" r="14" fill="#0078d5"/>
          </g>
        </g>
        <g id="Ellipse_6" data-name="Ellipse 6" transform="translate(304 143)" fill="#0078d5" stroke="#fff" stroke-width="1">
          <circle cx="3.5" cy="3.5" r="3.5" stroke="none"/>
          <circle cx="3.5" cy="3.5" r="3" fill="none"/>
        </g>
        <g id="Ellipse_7" data-name="Ellipse 7" transform="translate(316 145)" fill="#0078d5" stroke="#fff" stroke-width="1">
          <circle cx="3.5" cy="3.5" r="3.5" stroke="none"/>
          <circle cx="3.5" cy="3.5" r="3" fill="none"/>
        </g>
        <g id="Ellipse_8" data-name="Ellipse 8" transform="translate(320 134)" fill="#0078d5" stroke="#fff" stroke-width="1">
          <circle cx="3.5" cy="3.5" r="3.5" stroke="none"/>
          <circle cx="3.5" cy="3.5" r="3" fill="none"/>
        </g>
        <g id="Ellipse_9" data-name="Ellipse 9" transform="translate(332 140)" fill="#0078d5" stroke="#fff" stroke-width="1">
          <circle cx="3.5" cy="3.5" r="3.5" stroke="none"/>
          <circle cx="3.5" cy="3.5" r="3" fill="none"/>
        </g>
        <path id="Path_5" data-name="Path 5" d="M310.578,146.5h3.5v10.15" fill="none" stroke="#fff" stroke-linejoin="round" stroke-width="1"/>
        <path id="Path_6" data-name="Path 6" d="M319.5,145v-3.51h-4.937v-9.523" fill="none" stroke="#fff" stroke-width="1"/>
        <path id="Path_7" data-name="Path 7" d="M327,137.5h2.917v18.567" fill="none" stroke="#fff" stroke-linecap="round" stroke-linejoin="round" stroke-width="1"/>
        <path id="Path_8" data-name="Path 8" d="M335.5,147v2.556h-5.568" fill="none" stroke="#fff" stroke-linecap="round" stroke-linejoin="round" stroke-width="1"/>
      </g>
      <text id="Cognitive_Services" data-name="Cognitive
Services" transform="translate(97 26)" font-size="18" font-family="SegoeUI, Segoe UI"><tspan x="0" y="0">Cognitive</tspan><tspan x="0" y="18">Services</tspan></text>
    </g>
  </g>
</svg>
