<svg xmlns="http://www.w3.org/2000/svg" xmlns:xlink="http://www.w3.org/1999/xlink" width="222" height="60" viewBox="0 0 222 60">
  <defs>
    <clipPath id="clip-Web_1920_5">
      <rect width="222" height="60"/>
    </clipPath>
  </defs>
  <g id="Web_1920_5" data-name="Web 1920 – 5" clip-path="url(#clip-Web_1920_5)">
    <rect width="222" height="60" fill="#fff"/>
    <g id="Group_13" data-name="Group 13" transform="translate(-5)">
      <g id="Group_10" data-name="Group 10" transform="translate(-188 23.548)">
        <g id="Union_1" data-name="Union 1" transform="translate(237 -6.548)" fill="#0075d4">
          <path d="M 15.5 34.5 C 11.40670013427734 34.5 7.56456995010376 34.03223037719727 4.681369781494141 33.1828498840332 C 2.063129901885986 32.41152954101563 0.5 31.3838996887207 0.5 30.43395042419434 L 0.5 0.5 L 30.5 0.5 L 30.5 30.43395042419434 C 30.5 31.38394927978516 28.93705940246582 32.41157913208008 26.31915092468262 33.1828498840332 C 23.43613052368164 34.03223037719727 19.59382057189941 34.5 15.5 34.5 Z" stroke="none"/>
          <path d="M 15.5 34 C 19.54730987548828 34 23.33943939208984 33.53947067260742 26.1778507232666 32.70323181152344 C 29.20116996765137 31.81251907348633 30 30.82937049865723 30 30.43395042419434 L 30 1 L 1 1 L 1 30.43395042419434 C 1 30.8293399810791 1.798939943313599 31.81245040893555 4.822659969329834 32.70323181152344 C 7.661250114440918 33.53945922851563 11.453200340271 34 15.5 34 M 15.5 35 C 6.940199851989746 35 -1.77635683940025e-15 32.95526885986328 -1.77635683940025e-15 30.43395042419434 L -1.77635683940025e-15 0 L 31 0 L 31 30.43395042419434 C 31 32.95526885986328 24.06119918823242 35 15.5 35 Z" stroke="none" fill="#0075d4"/>
        </g>
        <g id="Ellipse_10" data-name="Ellipse 10" transform="translate(237 -11.548)" fill="#fff" stroke="#0075d4" stroke-width="2">
          <ellipse cx="15.5" cy="4.5" rx="15.5" ry="4.5" stroke="none"/>
          <ellipse cx="15.5" cy="4.5" rx="14.5" ry="3.5" fill="none"/>
        </g>
        <path id="Intersection_1" data-name="Intersection 1" d="M20.925,5.907a6.3,6.3,0,0,1-10.85,0A6.246,6.246,0,0,1,4.65,9,6.276,6.276,0,0,1,0,6.964V3.973A6.292,6.292,0,0,0,4.65,6a6.243,6.243,0,0,0,5.425-3.094A6.244,6.244,0,0,0,15.5,6a6.244,6.244,0,0,0,5.424-3.09A6.252,6.252,0,0,0,26.35,6,6.291,6.291,0,0,0,31,3.973V6.964A6.276,6.276,0,0,1,26.35,9,6.244,6.244,0,0,1,20.925,5.907ZM10.019,0h.111l-.055.094ZM20.871,0h.109l-.055.093Z" transform="translate(237 5.452)" fill="#fff"/>
      </g>
      <text id="Data_Lake_Analytics" data-name="Data Lake
Analytics" transform="translate(97 28)" font-size="18" font-family="SegoeUI, Segoe UI"><tspan x="0" y="0">Data Lake</tspan><tspan x="0" y="18">Analytics</tspan></text>
    </g>
  </g>
</svg>
