<svg xmlns="http://www.w3.org/2000/svg" xmlns:xlink="http://www.w3.org/1999/xlink" width="222" height="60" viewBox="0 0 222 60">
  <defs>
    <clipPath id="clip-Web_1920_7">
      <rect width="222" height="60"/>
    </clipPath>
  </defs>
  <g id="Web_1920_7" data-name="Web 1920 – 7" clip-path="url(#clip-Web_1920_7)">
    <rect width="222" height="60" fill="#fff"/>
    <g id="Group_15" data-name="Group 15" transform="translate(11)">
      <text id="Stream_Analytics" data-name="Stream
Analytics" transform="translate(97 28)" font-size="18" font-family="SegoeUI, Segoe UI"><tspan x="0" y="0">Stream</tspan><tspan x="0" y="18">Analytics</tspan></text>
      <g id="stream-analytics" transform="translate(33.001 13)">
        <path id="Path_11" data-name="Path 11" d="M37.694,22.57l1.16-2.617,4.722-1.635V14.556l-.5-.164L38.937,13l-1.16-2.617L39.935,5.97,37.28,3.353l-.58.327L32.807,5.643,30.156,4.5,28.416,0H24.522l-.166.491L22.947,4.5,20.3,5.643,15.739,3.68,13.088,6.3l.249.491,1.243,2.29a13.729,13.729,0,0,1,6.959-1.717,14.1,14.1,0,0,1,8.948,3.6,8.3,8.3,0,0,1,1.657,1.39,4.166,4.166,0,0,1,.663.982,6.59,6.59,0,0,1-1.74,8.591,6.974,6.974,0,0,1-6.959.982c-.249-.164-.414-.164-.5-.249h0a6.2,6.2,0,0,1-1.491-1.063c-.166,0-.249-.164-.5-.164a2.1,2.1,0,0,0-1.491.654l-.166.164a14.483,14.483,0,0,1-5.551,3.516l-1.326,1.39,2.734,2.7.5-.249,3.894-1.963L22.864,28.7l1.5,4.5h3.894l.166-.491L29.829,28.7l2.651-1.145,4.557,1.963L39.688,26.9v-.573L37.7,22.57ZM14.332,15.947h0a7.073,7.073,0,0,1-10.6-.164.783.783,0,0,0-1.243,0,.921.921,0,0,0-.249.654,1.545,1.545,0,0,0,.249.654,8.847,8.847,0,0,0,13.007.249v-.164a7.07,7.07,0,0,1,10.438.249.779.779,0,0,0,1.243,0,.92.92,0,0,0,.249-.654,1.547,1.547,0,0,0-.249-.654,8.652,8.652,0,0,0-12.841-.164ZM20.793,17.5a5.311,5.311,0,0,0-4.142,1.717l-.332.327A9.743,9.743,0,0,1,8.7,22.652a10.232,10.232,0,0,1-7.456-3.516.779.779,0,0,0-1.243,0v.654a1.528,1.528,0,0,0,.249.654,11.763,11.763,0,0,0,8.7,4.007,11.651,11.651,0,0,0,8.865-3.762l.332-.327a4.094,4.094,0,0,1,2.9-1.227,3.914,3.914,0,0,1,2.9,1.39.779.779,0,0,0,1.243,0,.92.92,0,0,0,.248-.654,1.561,1.561,0,0,0-.248-.654A6.713,6.713,0,0,0,20.795,17.5Zm8.865-4.58a11.9,11.9,0,0,0-8.7-4.007,12.4,12.4,0,0,0-8.865,3.762L11.763,13a4.094,4.094,0,0,1-2.9,1.227,4.048,4.048,0,0,1-2.817-1.39.779.779,0,0,0-1.243,0,.92.92,0,0,0-.249.654,1.547,1.547,0,0,0,.249.654,5.555,5.555,0,0,0,4.059,1.881,5.311,5.311,0,0,0,4.142-1.717l.166-.164a.162.162,0,0,0,.166-.164,10.488,10.488,0,0,1,7.622-3.271,9.612,9.612,0,0,1,7.291,3.516.779.779,0,0,0,1.243,0,.92.92,0,0,0,.249-.654c.166-.249,0-.491-.083-.654Z" fill="#006fd4" fill-rule="evenodd"/>
      </g>
    </g>
  </g>
</svg>
