<svg xmlns="http://www.w3.org/2000/svg" width="386" height="559" viewBox="0 0 386 559"><defs><style>.a{fill:none;}.b,.c{stroke:none;}.c{fill:#e4ede8;}</style></defs><g transform="translate(-1628 -2494)"><g class="a" transform="translate(1628 3053) rotate(-90)"><path class="b" d="M152.25,0,203,87l-50.75,87H50.75L0,87,50.75,0Z"/><path class="c" d="M 65.1092529296875 25.00001525878906 L 28.94258117675781 87.00001525878906 L 65.1092529296875 149.0000152587891 L 137.8907470703125 149.0000152587891 L 174.0574188232422 87.00001525878906 L 137.8907470703125 25.00001525878906 L 65.1092529296875 25.00001525878906 M 50.75 1.52587890625e-05 L 152.25 1.52587890625e-05 L 203 87.00001525878906 L 152.25 174.0000152587891 L 50.75 174.0000152587891 L 0 87.00001525878906 L 50.75 1.52587890625e-05 Z"/></g><g class="a" transform="translate(1684 2880) rotate(-90)"><path class="b" d="M289.5,0,386,165,289.5,330H96.5L0,165,96.5,0Z"/><path class="c" d="M 110.8404541015625 25.00003051757812 L 28.961669921875 165.0000152587891 L 110.8404541015625 305 L 275.1595458984375 305 L 357.038330078125 165.0000152587891 L 275.1595458984375 25.00003051757812 L 110.8404541015625 25.00003051757812 M 96.5 3.0517578125e-05 L 289.5 3.0517578125e-05 L 386 165.0000152587891 L 289.5 330 L 96.5 330 L 0 165.0000152587891 L 96.5 3.0517578125e-05 Z"/></g></g></svg>