<svg width="164" height="105" viewBox="0 0 164 105" fill="none" xmlns="http://www.w3.org/2000/svg">
<rect width="164" height="23" rx="11.5" fill="#EDEBE9"/>
<rect width="126" height="23" rx="11.5" fill="#107C10"/>
<rect y="6" width="115" height="11" rx="5.5" fill="#126512"/>
<line x1="20" y1="4.37115e-08" x2="20" y2="23" stroke="black" stroke-width="2"/>
<line x1="107" y1="4.37115e-08" x2="107" y2="23" stroke="black" stroke-width="2"/>
<rect y="41" width="164" height="23" rx="11.5" fill="#EDEBE9"/>
<rect y="41" width="91" height="23" rx="11.5" fill="#0178D4"/>
<rect y="47" width="139" height="11" rx="5.5" fill="#2A618B"/>
<line x1="20" y1="41" x2="20" y2="64" stroke="black" stroke-width="2"/>
<line x1="77" y1="41" x2="77" y2="64" stroke="black" stroke-width="2"/>
<rect y="82" width="164" height="23" rx="11.5" fill="#EDEBE9"/>
<rect y="82" width="154" height="23" rx="11.5" fill="#FFB92C"/>
<rect y="88" width="65" height="11" rx="5.5" fill="#AE8A22"/>
<line x1="20" y1="82" x2="20" y2="105" stroke="black" stroke-width="2"/>
<line x1="137" y1="82" x2="137" y2="105" stroke="black" stroke-width="2"/>
</svg>
