<svg width="180" height="180" viewBox="0 0 180 180" fill="none" xmlns="http://www.w3.org/2000/svg">
<path d="M154.385 63.6924H130.154V103.154H154.385V63.6924Z" fill="#FFE399"/>
<path d="M130.154 146.077H154.385" stroke="#1C0303" stroke-width="2"/>
<path d="M130.154 103.154H154.385" stroke="#1C0303" stroke-width="2"/>
<path d="M130.154 31.8457H154.385" stroke="#1C0303" stroke-width="2"/>
<path d="M143.308 32.5381V46.3842" stroke="#1C0303" stroke-width="2"/>
<path d="M143.308 103.846V146.076" stroke="#1C0303" stroke-width="2"/>
<path d="M154.385 39.4619H130.154V63.0004H154.385V39.4619Z" fill="#FFB900"/>
<path d="M130.154 39.4619H154.385" stroke="#1C0303" stroke-width="2"/>
<path d="M90.6924 49.8457V159.23" stroke="#1C0303" stroke-width="2"/>
<path d="M102.461 85.8457H78.9229V119.076H102.461V85.8457Z" fill="#FFE399"/>
<path d="M102.461 63H78.9229V95.5385H102.461V63Z" fill="#FFB900"/>
<path d="M78.9229 159.23H102.461" stroke="#1C0303" stroke-width="2"/>
<path d="M78.9229 119.077H102.461" stroke="#1C0303" stroke-width="2"/>
<path d="M78.9229 63H102.461" stroke="#1C0303" stroke-width="2"/>
<path d="M78.9229 49.8457H102.461" stroke="#1C0303" stroke-width="2"/>
<path d="M147.157 67.6259H138.463L142.81 60.3809L147.157 67.6259Z" fill="white"/>
<path d="M142.81 61.5487L139.524 67.0249H146.093L142.81 61.5487ZM142.81 59.2129L148.218 68.2267H137.401L142.81 59.2129Z" fill="#1C0303"/>
<path d="M94.9093 85.0524H86.1475L90.5284 77.2646L94.9093 85.0524Z" fill="white"/>
<path d="M90.5284 78.4895L87.1749 84.4517H93.8806L90.5284 78.4895ZM90.5284 76.0381L95.9367 85.6529H85.1201L90.5284 76.0381Z" fill="#1C0303"/>
<path d="M38.7695 146.077V22.1543" stroke="#1C0303" stroke-width="2"/>
<path d="M50.5384 49.1543H26.3076V82.3851H50.5384V49.1543Z" fill="#FFB900"/>
<path d="M50.5384 82.3848H26.3076V128.769H50.5384V82.3848Z" fill="#FFE399"/>
<path d="M26.3076 22.1543H50.5384" stroke="#1C0303" stroke-width="2"/>
<path d="M26.3076 49.1543H50.5384" stroke="#1C0303" stroke-width="2"/>
<path d="M26.3076 128.77H50.5384" stroke="#1C0303" stroke-width="2"/>
<path d="M26.3076 146.077H50.5384" stroke="#1C0303" stroke-width="2"/>
<path d="M42.5944 98.2733H33.9004L38.2474 91.0283L42.5944 98.2733Z" fill="white"/>
<path d="M38.2472 92.1962L34.9615 97.6723H41.5301L38.2472 92.1962ZM38.2472 89.8604L43.6555 98.8742H32.8389L38.2472 89.8604Z" fill="#1C0303"/>
</svg>
