<svg width="180" height="180" viewBox="0 0 180 180" fill="none" xmlns="http://www.w3.org/2000/svg">
<path d="M45.6915 20.0771H19.3838V46.3848H45.6915V20.0771Z" fill="#0078D4"/>
<path d="M74.7686 20.0771H48.4609V46.3848H74.7686V20.0771Z" fill="#0078D4"/>
<path d="M102.461 20.0771H76.8457V46.3848H102.461V20.0771Z" fill="#0078D4"/>
<path d="M131.537 20.0771H105.229V46.3848H131.537V20.0771Z" fill="#FFB900"/>
<path d="M159.922 20.0771H133.614V46.3848H159.922V20.0771Z" fill="#FFB900"/>
<path d="M45.6915 49.1543H19.3838V74.7697H45.6915V49.1543Z" fill="#0078D4"/>
<path d="M74.7686 49.1543H48.4609V74.7697H74.7686V49.1543Z" fill="#0078D4"/>
<path d="M102.461 49.1543H76.8457V74.7697H102.461V49.1543Z" fill="#0078D4"/>
<path d="M131.537 49.1543H105.229V74.7697H131.537V49.1543Z" fill="#FFB900"/>
<path d="M159.922 49.1543H133.614V74.7697H159.922V49.1543Z" fill="#FFB900"/>
<path d="M45.6915 77.5381H19.3838V103.153H45.6915V77.5381Z" fill="#0078D4"/>
<path d="M74.7686 77.5381H48.4609V103.153H74.7686V77.5381Z" fill="#0078D4"/>
<path d="M102.461 77.5381H76.8457V103.153H102.461V77.5381Z" fill="#FFB900"/>
<path d="M131.537 77.5381H105.229V103.153H131.537V77.5381Z" fill="#FFB900"/>
<path d="M159.922 77.5381H133.614V103.153H159.922V77.5381Z" fill="#FFB900"/>
<path d="M45.6915 105.23H19.3838V131.538H45.6915V105.23Z" fill="#0078D4"/>
<path d="M74.7686 105.23H48.4609V131.538H74.7686V105.23Z" fill="#0078D4"/>
<path d="M102.461 105.23H76.8457V131.538H102.461V105.23Z" fill="#FFB900"/>
<path d="M131.537 105.23H105.229V131.538H131.537V105.23Z" fill="#FFB900"/>
<path d="M159.922 105.23H133.614V131.538H159.922V105.23Z" fill="#D83B01"/>
<path d="M45.6915 134.308H19.3838V160.615H45.6915V134.308Z" fill="#0078D4"/>
<path d="M74.7686 134.308H48.4609V160.615H74.7686V134.308Z" fill="#0078D4"/>
<path d="M102.461 134.308H76.8457V160.615H102.461V134.308Z" fill="#FFB900"/>
<path d="M131.537 134.308H105.229V160.615H131.537V134.308Z" fill="#FFB900"/>
<path d="M159.922 134.308H133.614V160.615H159.922V134.308Z" fill="#D83B01"/>
</svg>
