<svg width="180" height="180" viewBox="0 0 180 180" fill="none" xmlns="http://www.w3.org/2000/svg">
<path d="M167.539 35.3086H12.4619V157.155H167.539V35.3086Z" fill="white"/>
<path d="M166.963 36.418H12.8896V156.919H166.963V36.418Z" stroke="#1C0303" stroke-width="3"/>
<path d="M90.2256 37.3174V157.818" stroke="#1C0303" stroke-width="3"/>
<path d="M51.2578 37.3174V157.818" stroke="#1C0303" stroke-width="3"/>
<path d="M129.193 37.3174V157.818" stroke="#1C0303" stroke-width="3"/>
<path d="M11.9902 66.3936H167.862" stroke="#1C0303" stroke-width="3"/>
<path d="M11.9902 96.9688H167.862" stroke="#1C0303" stroke-width="3"/>
<path d="M11.9902 126.944H167.862" stroke="#1C0303" stroke-width="3"/>
<path d="M126.692 40.1553H93.4609V50.5399H126.692V40.1553Z" fill="#0078D4"/>
<path d="M164.77 130.847H131.539V141.231H164.77V130.847Z" fill="#0078D4"/>
<path d="M87.2308 80.3086H54.6924V93.4624H87.2308V80.3086Z" fill="#FFB900"/>
<path d="M87.2302 69.2314H76.1533V77.5391H87.2302V69.2314Z" fill="#978989"/>
<path d="M163.385 40.1553H152.308V48.463H163.385V40.1553Z" fill="#978989"/>
<path d="M110.769 24.9238H59.5381V31.1546H110.769V24.9238Z" fill="#C8C6C4"/>
<path d="M20.7696 24.9238H12.4619V31.1546H20.7696V24.9238Z" fill="#C8C6C4"/>
<path d="M157.846 24.9238H149.538V31.1546H157.846V24.9238Z" fill="#C8C6C4"/>
<path d="M137.077 24.9238H128.077V31.1546H137.077V24.9238Z" fill="#C8C6C4"/>
<path d="M30.461 24.9238H22.1533V31.1546H30.461V24.9238Z" fill="#C8C6C4"/>
<path d="M167.539 24.9238H159.231V31.1546H167.539V24.9238Z" fill="#C8C6C4"/>
<path d="M148.153 24.9238H138.461V31.1546H148.153V24.9238Z" fill="#C8C6C4"/>
<path d="M126.692 130.847H114.923V139.154H126.692V130.847Z" fill="#978989"/>
<path d="M126.692 52.6162H93.4609V63.0008H126.692V52.6162Z" fill="#107C10"/>
<path d="M87.2308 99.6934H54.6924V111.463H87.2308V99.6934Z" fill="#D83B01"/>
<path d="M48.4612 99.6934H15.2305V111.463H48.4612V99.6934Z" fill="#D83B01"/>
<mask id="mask0_1322_3370" style="mask-type:luminance" maskUnits="userSpaceOnUse" x="0" y="0" width="180" height="180">
<path d="M180 0H0V180H180V0Z" fill="white"/>
</mask>
<g mask="url(#mask0_1322_3370)">
<mask id="mask1_1322_3370" style="mask-type:luminance" maskUnits="userSpaceOnUse" x="26" y="40" width="12" height="22">
<path d="M37.854 40.0908H26.8477V61.7012H37.854V40.0908Z" fill="white"/>
</mask>
<g mask="url(#mask1_1322_3370)">
<mask id="mask2_1322_3370" style="mask-type:luminance" maskUnits="userSpaceOnUse" x="26" y="40" width="12" height="22">
<path d="M37.853 40.0889H26.8467V61.6993H37.853V40.0889Z" fill="white"/>
</mask>
<g mask="url(#mask2_1322_3370)">
<path d="M36.1533 54.8447C36.1533 55.4762 36.0329 56.0524 35.792 56.5732C35.5576 57.0876 35.2223 57.5303 34.7861 57.9014C34.3564 58.266 33.8389 58.5492 33.2334 58.751C32.6279 58.9528 31.9606 59.0537 31.2314 59.0537C29.8968 59.0537 28.8356 58.7998 28.0479 58.292V56.5732C28.9919 57.3154 30.0726 57.6865 31.29 57.6865C31.7783 57.6865 32.2178 57.6247 32.6084 57.501C33.0055 57.3773 33.3441 57.1982 33.624 56.9639C33.9105 56.7295 34.1286 56.4463 34.2783 56.1143C34.4346 55.7822 34.5127 55.4079 34.5127 54.9912C34.5127 53.1618 33.2106 52.2471 30.6064 52.2471H29.4443V50.8896H30.5479C32.8525 50.8896 34.0049 50.0303 34.0049 48.3115C34.0049 46.723 33.126 45.9287 31.3682 45.9287C30.3786 45.9287 29.4508 46.2607 28.585 46.9248V45.3721C29.4769 44.8382 30.5381 44.5713 31.7686 44.5713C32.3545 44.5713 32.8851 44.6527 33.3604 44.8154C33.8356 44.9782 34.2425 45.2061 34.5811 45.499C34.9196 45.792 35.18 46.1436 35.3623 46.5537C35.5511 46.9639 35.6455 47.4163 35.6455 47.9111C35.6455 49.7536 34.7145 50.9385 32.8525 51.4658V51.5049C33.3278 51.557 33.7673 51.6742 34.1709 51.8564C34.5745 52.0322 34.9229 52.2633 35.2158 52.5498C35.5088 52.8363 35.7367 53.1748 35.8994 53.5654C36.0687 53.9495 36.1533 54.376 36.1533 54.8447Z" fill="#1C0303"/>
</g>
</g>
<mask id="mask3_1322_3370" style="mask-type:luminance" maskUnits="userSpaceOnUse" x="98" y="70" width="23" height="22">
<path d="M120.5 70.2646H98.4863V91.875H120.5V70.2646Z" fill="white"/>
</mask>
<g mask="url(#mask3_1322_3370)">
<mask id="mask4_1322_3370" style="mask-type:luminance" maskUnits="userSpaceOnUse" x="98" y="70" width="23" height="22">
<path d="M120.5 70.2627H98.4863V91.8731H120.5V70.2627Z" fill="white"/>
</mask>
<g mask="url(#mask4_1322_3370)">
<path d="M105.557 88.9834H103.955V76.8838C103.831 77.0075 103.649 77.1507 103.408 77.3135C103.174 77.4697 102.907 77.626 102.607 77.7822C102.314 77.9385 102.002 78.085 101.67 78.2217C101.344 78.3584 101.025 78.4658 100.713 78.5439V76.9229C101.064 76.8252 101.436 76.695 101.826 76.5322C102.223 76.363 102.611 76.1774 102.988 75.9756C103.372 75.7673 103.734 75.5524 104.072 75.3311C104.411 75.1032 104.704 74.8818 104.951 74.667H105.557V88.9834ZM116.807 78.6514C116.807 78.2217 116.738 77.8473 116.602 77.5283C116.471 77.2093 116.289 76.9456 116.055 76.7373C115.827 76.5225 115.557 76.363 115.244 76.2588C114.932 76.1546 114.593 76.1025 114.229 76.1025C113.916 76.1025 113.61 76.1449 113.311 76.2295C113.011 76.3141 112.718 76.4313 112.432 76.5811C112.152 76.7308 111.878 76.9098 111.611 77.1182C111.351 77.3265 111.107 77.5576 110.879 77.8115V76.0928C111.328 75.6566 111.829 75.3245 112.383 75.0967C112.943 74.8623 113.623 74.7451 114.424 74.7451C114.997 74.7451 115.527 74.8298 116.016 74.999C116.504 75.1618 116.927 75.4027 117.285 75.7217C117.643 76.0407 117.923 76.4346 118.125 76.9033C118.333 77.3721 118.438 77.9092 118.438 78.5146C118.438 79.068 118.372 79.5693 118.242 80.0186C118.118 80.4678 117.926 80.891 117.666 81.2881C117.412 81.6852 117.09 82.0661 116.699 82.4307C116.309 82.7952 115.85 83.1663 115.322 83.5439C114.665 84.0127 114.121 84.4131 113.691 84.7451C113.268 85.0771 112.93 85.3896 112.676 85.6826C112.428 85.9691 112.253 86.2588 112.148 86.5518C112.051 86.8382 112.002 87.1702 112.002 87.5479H118.975V88.9834H110.332V88.29C110.332 87.6911 110.397 87.1637 110.527 86.708C110.658 86.2523 110.872 85.8193 111.172 85.4092C111.471 84.999 111.862 84.5889 112.344 84.1787C112.832 83.7686 113.428 83.3063 114.131 82.792C114.639 82.4274 115.062 82.0791 115.4 81.7471C115.745 81.415 116.022 81.083 116.23 80.751C116.439 80.4189 116.585 80.0837 116.67 79.7451C116.761 79.4001 116.807 79.0355 116.807 78.6514Z" fill="#1C0303"/>
</g>
</g>
<mask id="mask5_1322_3370" style="mask-type:luminance" maskUnits="userSpaceOnUse" x="59" y="129" width="23" height="23">
<path d="M81.9323 129.815H59.9189V151.426H81.9323V129.815Z" fill="white"/>
</mask>
<g mask="url(#mask5_1322_3370)">
<mask id="mask6_1322_3370" style="mask-type:luminance" maskUnits="userSpaceOnUse" x="59" y="129" width="23" height="23">
<path d="M81.9323 129.813H59.9189V151.424H81.9323V129.813Z" fill="white"/>
</mask>
<g mask="url(#mask6_1322_3370)">
<path d="M67.458 138.202C67.458 137.772 67.3896 137.398 67.2529 137.079C67.1227 136.76 66.9404 136.496 66.7061 136.288C66.4782 136.073 66.208 135.914 65.8955 135.81C65.583 135.705 65.2445 135.653 64.8799 135.653C64.5674 135.653 64.2614 135.696 63.9619 135.78C63.6624 135.865 63.3695 135.982 63.083 136.132C62.8031 136.282 62.5296 136.461 62.2627 136.669C62.0023 136.877 61.7581 137.108 61.5303 137.362V135.644C61.9795 135.207 62.4808 134.875 63.0342 134.647C63.5941 134.413 64.2744 134.296 65.0752 134.296C65.6481 134.296 66.1787 134.381 66.667 134.55C67.1553 134.713 67.5785 134.953 67.9365 135.272C68.2946 135.591 68.5745 135.985 68.7764 136.454C68.9847 136.923 69.0889 137.46 69.0889 138.065C69.0889 138.619 69.0238 139.12 68.8936 139.569C68.7699 140.019 68.5778 140.442 68.3174 140.839C68.0635 141.236 67.7412 141.617 67.3506 141.981C66.96 142.346 66.501 142.717 65.9736 143.095C65.3161 143.563 64.7725 143.964 64.3428 144.296C63.9196 144.628 63.5811 144.94 63.3271 145.233C63.0798 145.52 62.904 145.81 62.7998 146.103C62.7021 146.389 62.6533 146.721 62.6533 147.099H69.626V148.534H60.9834V147.841C60.9834 147.242 61.0485 146.715 61.1787 146.259C61.3089 145.803 61.5238 145.37 61.8232 144.96C62.1227 144.55 62.5133 144.14 62.9951 143.729C63.4834 143.319 64.0791 142.857 64.7822 142.343C65.29 141.978 65.7132 141.63 66.0518 141.298C66.3968 140.966 66.6735 140.634 66.8818 140.302C67.0902 139.97 67.2367 139.634 67.3213 139.296C67.4124 138.951 67.458 138.586 67.458 138.202ZM71.5791 144.628C71.5791 144.257 71.6377 143.886 71.7549 143.515C71.8721 143.137 72.0381 142.785 72.2529 142.46C72.4743 142.134 72.7445 141.838 73.0635 141.571C73.389 141.304 73.7568 141.093 74.167 140.937C73.5615 140.598 73.0798 140.165 72.7217 139.638C72.3636 139.104 72.1846 138.515 72.1846 137.87C72.1846 137.356 72.2822 136.881 72.4775 136.444C72.6794 136.008 72.9561 135.631 73.3076 135.312C73.6592 134.993 74.0758 134.745 74.5576 134.569C75.0394 134.387 75.5602 134.296 76.1201 134.296C76.6865 134.296 77.2106 134.387 77.6924 134.569C78.1742 134.752 78.5908 135.002 78.9424 135.321C79.2939 135.64 79.5674 136.018 79.7627 136.454C79.958 136.89 80.0557 137.362 80.0557 137.87C80.0557 138.515 79.8766 139.104 79.5186 139.638C79.1605 140.165 78.6852 140.598 78.0928 140.937C78.4964 141.093 78.8577 141.304 79.1768 141.571C79.4958 141.838 79.7627 142.134 79.9775 142.46C80.1989 142.785 80.3682 143.137 80.4854 143.515C80.6025 143.886 80.6611 144.257 80.6611 144.628C80.6611 145.24 80.5505 145.8 80.3291 146.308C80.1077 146.815 79.7952 147.252 79.3916 147.616C78.9945 147.974 78.516 148.254 77.9561 148.456C77.4027 148.658 76.7907 148.759 76.1201 148.759C75.4561 148.759 74.8473 148.658 74.2939 148.456C73.7406 148.254 73.262 147.974 72.8584 147.616C72.4548 147.252 72.139 146.815 71.9111 146.308C71.6898 145.8 71.5791 145.24 71.5791 144.628ZM73.3174 144.491C73.3174 144.927 73.3825 145.321 73.5127 145.673C73.6494 146.024 73.8382 146.324 74.0791 146.571C74.3265 146.819 74.6227 147.011 74.9678 147.147C75.3193 147.278 75.7067 147.343 76.1299 147.343C76.54 147.343 76.9176 147.274 77.2627 147.138C77.6077 147.001 77.904 146.809 78.1514 146.562C78.4053 146.314 78.6006 146.015 78.7373 145.663C78.8805 145.312 78.9521 144.921 78.9521 144.491C78.9521 144.101 78.8838 143.736 78.7471 143.397C78.6169 143.052 78.4281 142.75 78.1807 142.489C77.9333 142.229 77.637 142.024 77.292 141.874C76.9469 141.724 76.5596 141.649 76.1299 141.649C75.7262 141.649 75.3519 141.721 75.0068 141.864C74.6683 142.001 74.3721 142.196 74.1182 142.45C73.8708 142.698 73.6755 142.997 73.5322 143.349C73.389 143.694 73.3174 144.075 73.3174 144.491ZM73.8154 137.997C73.8154 138.329 73.874 138.638 73.9912 138.925C74.1149 139.205 74.2809 139.452 74.4893 139.667C74.7041 139.875 74.9515 140.041 75.2314 140.165C75.5114 140.282 75.8109 140.341 76.1299 140.341C76.4489 140.341 76.7484 140.279 77.0283 140.155C77.3148 140.032 77.5622 139.866 77.7705 139.657C77.9788 139.442 78.1449 139.195 78.2686 138.915C78.3923 138.629 78.4541 138.323 78.4541 137.997C78.4541 137.659 78.3923 137.346 78.2686 137.06C78.1514 136.773 77.9886 136.526 77.7803 136.317C77.5719 136.109 77.3245 135.946 77.0381 135.829C76.7581 135.705 76.4554 135.644 76.1299 135.644C75.7848 135.644 75.4691 135.705 75.1826 135.829C74.9027 135.953 74.6585 136.122 74.4502 136.337C74.2484 136.545 74.0921 136.793 73.9814 137.079C73.8708 137.366 73.8154 137.672 73.8154 137.997Z" fill="#1C0303"/>
</g>
</g>
</g>
<path d="M126.692 24.9238H112.153V31.1546H126.692V24.9238Z" fill="#C8C6C4"/>
</svg>
