<svg width="180" height="180" viewBox="0 0 180 180" fill="none" xmlns="http://www.w3.org/2000/svg">
<path d="M113.961 22.1707L120.87 15.2656H131.388" stroke="#1C0303" stroke-width="3"/>
<path d="M166.47 12.0576H137.394V18.9807H166.47V12.0576Z" fill="#978989"/>
<mask id="mask0_1322_3462" style="mask-type:luminance" maskUnits="userSpaceOnUse" x="0" y="0" width="180" height="180">
<path d="M179.625 0.288086H0V179.999H179.625V0.288086Z" fill="white"/>
</mask>
<g mask="url(#mask0_1322_3462)">
<path d="M66.5996 18.4961C76.0421 18.4961 85.3183 20.9817 93.4957 25.7029C101.673 30.4242 108.464 37.2148 113.185 45.3923C117.906 53.5698 120.392 62.8459 120.392 72.2884C120.392 81.7309 117.906 91.0071 113.185 99.1846L95.7492 89.1163C98.7036 83.9996 100.259 78.1953 100.259 72.2868C100.259 66.3784 98.704 60.574 95.7497 55.4572C92.7955 50.3403 88.5463 46.0913 83.4294 43.1373C78.3125 40.1832 72.508 38.6281 66.5996 38.6284V18.4961Z" fill="#1F78B4"/>
<path d="M113.188 99.1845C108.467 107.362 101.677 114.152 93.4994 118.874C85.3221 123.595 76.0461 126.081 66.6037 126.081C57.1613 126.081 47.8852 123.596 39.7078 118.875C31.5303 114.154 24.7396 107.363 20.0182 99.186C15.2967 91.0088 12.8109 81.7329 12.8105 72.2905C12.8102 62.8481 15.2953 53.572 20.0161 45.3944C24.7369 37.2169 31.5271 30.426 39.7042 25.7044C47.8813 20.9827 57.1571 18.4967 66.5995 18.4961V38.6284C60.6908 38.628 54.886 40.1831 49.7688 43.1373C44.6515 46.0914 40.4021 50.3406 37.4475 55.4576C34.493 60.5747 32.9376 66.3793 32.9375 72.288C32.9375 78.1968 34.4928 84.0015 37.4472 89.1186C40.4016 94.2357 44.651 98.4849 49.7682 101.439C54.8854 104.393 60.6901 105.949 66.5988 105.948C72.5076 105.948 78.3121 104.393 83.4291 101.438C88.5461 98.4832 92.7951 94.2337 95.7491 89.1163L113.188 99.1845Z" fill="#A6CEE3"/>
<path d="M66.5996 18.4961C76.0421 18.4961 85.3183 20.9817 93.4957 25.7029C101.673 30.4242 108.464 37.2148 113.185 45.3923C117.906 53.5698 120.392 62.8459 120.392 72.2884C120.392 81.7309 117.906 91.0071 113.185 99.1846L95.7492 89.1163C98.7036 83.9996 100.259 78.1953 100.259 72.2868C100.259 66.3784 98.704 60.574 95.7497 55.4572C92.7955 50.3403 88.5463 46.0913 83.4294 43.1373C78.3125 40.1832 72.508 38.6281 66.5996 38.6284V18.4961Z" fill="#107C10"/>
<path d="M113.188 99.1845C108.467 107.362 101.677 114.152 93.4994 118.874C85.3221 123.595 76.0461 126.081 66.6037 126.081C57.1613 126.081 47.8852 123.596 39.7078 118.875C31.5303 114.154 24.7396 107.363 20.0182 99.186C15.2967 91.0088 12.8109 81.7329 12.8105 72.2905C12.8102 62.8481 15.2953 53.572 20.0161 45.3944C24.7369 37.2169 31.5271 30.426 39.7042 25.7044C47.8813 20.9827 57.1571 18.4967 66.5995 18.4961V38.6284C60.6908 38.628 54.886 40.1831 49.7688 43.1373C44.6515 46.0914 40.4021 50.3406 37.4475 55.4576C34.493 60.5747 32.9376 66.3793 32.9375 72.288C32.9375 78.1968 34.4928 84.0015 37.4472 89.1186C40.4016 94.2357 44.651 98.4849 49.7682 101.439C54.8854 104.393 60.6901 105.949 66.5988 105.948C72.5076 105.948 78.3121 104.393 83.4291 101.438C88.5461 98.4832 92.7951 94.2337 95.7491 89.1163L113.188 99.1845Z" fill="#EDEBE9"/>
<path d="M66.5996 18.4961C76.0421 18.4961 85.3183 20.9817 93.4957 25.7029C101.673 30.4242 108.464 37.2148 113.185 45.3923C117.906 53.5698 120.392 62.8459 120.392 72.2884C120.392 81.7309 117.906 91.0071 113.185 99.1846L95.7492 89.1163C98.7036 83.9996 100.259 78.1953 100.259 72.2868C100.259 66.3784 98.704 60.574 95.7497 55.4572C92.7955 50.3403 88.5463 46.0913 83.4294 43.1373C78.3125 40.1832 72.508 38.6281 66.5996 38.6284V18.4961Z" fill="#107C10"/>
<path d="M113.188 99.1845C108.467 107.362 101.677 114.152 93.4994 118.874C85.3221 123.595 76.0461 126.081 66.6037 126.081C57.1613 126.081 47.8852 123.596 39.7078 118.875C31.5303 114.154 24.7396 107.363 20.0182 99.186C15.2967 91.0088 12.8109 81.7329 12.8105 72.2905C12.8102 62.8481 15.2953 53.572 20.0161 45.3944C24.7369 37.2169 31.5271 30.426 39.7042 25.7044C47.8813 20.9827 57.1571 18.4967 66.5995 18.4961V38.6284C60.6908 38.628 54.886 40.1831 49.7688 43.1373C44.6515 46.0914 40.4021 50.3406 37.4475 55.4576C34.493 60.5747 32.9376 66.3793 32.9375 72.288C32.9375 78.1968 34.4928 84.0015 37.4472 89.1186C40.4016 94.2357 44.651 98.4849 49.7682 101.439C54.8854 104.393 60.6901 105.949 66.5988 105.948C72.5076 105.948 78.3121 104.393 83.4291 101.438C88.5461 98.4832 92.7951 94.2337 95.7491 89.1163L113.188 99.1845Z" fill="#D8D8D8"/>
<path d="M133.199 114.756C127.553 114.756 122.051 116.543 117.483 119.863C112.914 123.182 109.514 127.862 107.769 133.232C106.025 138.603 106.025 144.387 107.77 149.758C109.515 155.128 112.916 159.808 117.484 163.127L124.88 152.95C122.461 151.193 120.661 148.715 119.737 145.872C118.814 143.029 118.814 139.966 119.738 137.123C120.661 134.28 122.462 131.802 124.88 130.045C127.299 128.288 130.211 127.342 133.201 127.342L133.199 114.756Z" fill="#D8D8D8"/>
<path d="M117.485 163.127C120.899 165.607 124.851 167.244 129.019 167.903C133.187 168.563 137.451 168.228 141.464 166.923C145.477 165.619 149.124 163.384 152.108 160.4C155.092 157.417 157.327 153.769 158.63 149.756C159.934 145.743 160.27 141.478 159.61 137.311C158.95 133.143 157.312 129.191 154.832 125.778C152.352 122.364 149.099 119.586 145.339 117.67C141.58 115.755 137.42 114.756 133.201 114.756V127.339C135.435 127.339 137.637 127.868 139.627 128.882C141.618 129.896 143.34 131.367 144.653 133.174C145.966 134.981 146.833 137.074 147.182 139.28C147.532 141.487 147.354 143.744 146.664 145.869C145.974 147.994 144.79 149.925 143.211 151.504C141.631 153.084 139.7 154.267 137.575 154.958C135.451 155.648 133.193 155.826 130.987 155.476C128.78 155.127 126.688 154.26 124.881 152.947L117.485 163.127Z" fill="#0078D4"/>
</g>
</svg>
