<svg width="180" height="180" viewBox="0 0 180 180" fill="none" xmlns="http://www.w3.org/2000/svg">
<mask id="mask0_1322_3497" style="mask-type:luminance" maskUnits="userSpaceOnUse" x="0" y="0" width="180" height="180">
<path d="M180 0H0V180H180V0Z" fill="white"/>
</mask>
<g mask="url(#mask0_1322_3497)">
<mask id="mask1_1322_3497" style="mask-type:luminance" maskUnits="userSpaceOnUse" x="26" y="26" width="128" height="129">
<path d="M153.692 26.999H26.3076V154.384H153.692V26.999Z" fill="white"/>
</mask>
<g mask="url(#mask1_1322_3497)">
<g opacity="0.67">
<mask id="mask2_1322_3497" style="mask-type:luminance" maskUnits="userSpaceOnUse" x="34" y="34" width="112" height="113">
<path d="M145.106 34.25H34.252V146.04H145.106V34.25Z" fill="white"/>
</mask>
<g mask="url(#mask2_1322_3497)">
<path d="M34.5078 57.1978L39.5741 134.473L113.567 146.022H113.686L144.823 80.1589V79.2368L105.521 34.5352L34.5078 57.1978Z" fill="#0078D4"/>
</g>
</g>
<path d="M44.8269 58.2064C44.8269 59.9993 44.2952 61.7519 43.2992 63.2427C42.3032 64.7335 40.8876 65.8955 39.2312 66.5817C37.5749 67.268 35.7522 67.4477 33.9937 67.0982C32.2352 66.7487 30.6199 65.8856 29.3518 64.6181C28.0838 63.3506 27.2201 61.7355 26.8699 59.9772C26.5197 58.2188 26.6988 56.3961 27.3844 54.7395C28.07 53.0829 29.2315 51.6667 30.7219 50.6702C32.2123 49.6736 33.9647 49.1413 35.7576 49.1406C36.9485 49.1401 38.1278 49.3742 39.2281 49.8295C40.3285 50.2849 41.3283 50.9526 42.1705 51.7945C43.0128 52.6364 43.6808 53.636 44.1366 54.7362C44.5924 55.8363 44.8269 57.0155 44.8269 58.2064Z" fill="#0078D4"/>
<path d="M114.261 35.8444C114.262 37.6373 113.73 39.39 112.734 40.8809C111.738 42.3717 110.323 43.5338 108.666 44.2202C107.01 44.9066 105.187 45.0864 103.429 44.737C101.67 44.3875 100.055 43.5245 98.7867 42.257C97.5186 40.9895 96.6548 39.3745 96.3046 37.6161C95.9543 35.8577 96.1333 34.035 96.8189 32.3783C97.5045 30.7217 98.666 29.3055 100.156 28.3089C101.647 27.3123 103.399 26.78 105.192 26.7793C107.597 26.7793 109.903 27.7343 111.604 29.4344C113.305 31.1345 114.261 33.4397 114.261 35.8444Z" fill="#0078D4"/>
<path d="M153.845 79.9642C153.845 81.757 153.313 83.5096 152.317 85.0002C151.321 86.4909 149.905 87.6527 148.249 88.3387C146.592 89.0247 144.77 89.2042 143.011 88.8544C141.253 88.5046 139.638 87.6412 138.37 86.3735C137.102 85.1058 136.239 83.4906 135.889 81.7322C135.539 79.9738 135.719 78.1512 136.405 76.4948C137.091 74.8384 138.253 73.4226 139.743 72.4265C141.234 71.4303 142.986 70.8986 144.779 70.8984C145.97 70.8983 147.149 71.1328 148.249 71.5883C149.349 72.0439 150.348 72.7117 151.19 73.5535C152.032 74.3954 152.7 75.3948 153.155 76.4948C153.611 77.5947 153.845 78.7736 153.845 79.9642Z" fill="#0078D4"/>
<path d="M123.025 145.235C123.025 147.028 122.493 148.78 121.497 150.271C120.501 151.762 119.085 152.924 117.429 153.61C115.772 154.296 113.95 154.476 112.191 154.126C110.433 153.776 108.818 152.913 107.55 151.645C106.282 150.378 105.419 148.762 105.069 147.004C104.719 145.246 104.898 143.423 105.584 141.766C106.27 140.11 107.432 138.694 108.923 137.698C110.413 136.702 112.166 136.17 113.959 136.17C115.149 136.17 116.328 136.404 117.428 136.86C118.528 137.315 119.528 137.983 120.37 138.825C121.211 139.667 121.879 140.666 122.335 141.766C122.79 142.866 123.025 144.045 123.025 145.236" fill="#0078D4"/>
<path d="M32.0838 130.144C32.9999 128.603 34.3525 127.367 35.9705 126.595C37.5886 125.822 39.3994 125.547 41.174 125.803C42.9486 126.06 44.6073 126.837 45.9403 128.036C47.2733 129.235 48.2208 130.803 48.6629 132.54C49.105 134.278 49.0219 136.108 48.424 137.798C47.8262 139.489 46.7405 140.964 45.3043 142.037C43.868 143.111 42.1457 143.734 40.3551 143.829C38.5646 143.923 36.7862 143.485 35.2449 142.569C33.1788 141.34 31.6853 139.34 31.0925 137.011C30.4998 134.681 30.8563 132.211 32.0838 130.144Z" fill="#0078D4"/>
<g opacity="0.5">
<mask id="mask3_1322_3497" style="mask-type:luminance" maskUnits="userSpaceOnUse" x="55" y="57" width="69" height="61">
<path d="M123.925 57.459H55.3867V117.69H123.925V57.459Z" fill="white"/>
</mask>
<g mask="url(#mask3_1322_3497)">
<mask id="mask4_1322_3497" style="mask-type:luminance" maskUnits="userSpaceOnUse" x="55" y="57" width="69" height="61">
<path d="M123.926 57.458H55.3877V117.689H123.926V57.458Z" fill="white"/>
</mask>
<g mask="url(#mask4_1322_3497)">
<path d="M63.5215 104.943L93.8404 102.727L111.064 77.3447L75.9103 65.959L63.5215 104.943Z" fill="#F6BB00"/>
</g>
</g>
</g>
<path d="M117.908 77.3499C117.908 78.7055 117.506 80.0306 116.753 81.1577C116 82.2848 114.929 83.1633 113.677 83.6821C112.425 84.2008 111.046 84.3365 109.717 84.0721C108.387 83.8076 107.166 83.1549 106.208 82.1963C105.249 81.2378 104.596 80.0166 104.332 78.6871C104.067 77.3575 104.203 75.9795 104.722 74.7271C105.241 73.4747 106.119 72.4043 107.246 71.6512C108.373 70.8981 109.698 70.4961 111.054 70.4961C112.872 70.4961 114.615 71.2182 115.9 72.5035C117.186 73.7889 117.908 75.5322 117.908 77.3499Z" fill="#F6BB00"/>
<path d="M100.685 102.734C100.685 104.089 100.283 105.414 99.5301 106.542C98.777 107.669 97.7066 108.547 96.4542 109.066C95.2019 109.585 93.8238 109.72 92.4943 109.456C91.1648 109.191 89.9435 108.539 88.985 107.58C88.0265 106.622 87.3737 105.4 87.1092 104.071C86.8448 102.741 86.9805 101.363 87.4993 100.111C88.018 98.8585 88.8965 97.7881 90.0236 97.035C91.1507 96.2819 92.4758 95.8799 93.8314 95.8799C94.7315 95.8799 95.6227 96.0572 96.4542 96.4016C97.2858 96.746 98.0413 97.2509 98.6778 97.8873C99.3142 98.5238 99.8191 99.2793 100.164 100.111C100.508 100.942 100.685 101.834 100.685 102.734Z" fill="#F6BB00"/>
<path d="M71.1159 104.597C71.1159 105.953 70.7139 107.278 69.9608 108.405C69.2077 109.532 68.1373 110.41 66.8849 110.929C65.6325 111.448 64.2545 111.584 62.9249 111.319C61.5954 111.055 60.3742 110.402 59.4156 109.443C58.4571 108.485 57.8044 107.264 57.5399 105.934C57.2754 104.605 57.4112 103.227 57.9299 101.974C58.4487 100.722 59.3271 99.6514 60.4543 98.8982C61.5814 98.1451 62.9065 97.7432 64.2621 97.7432C66.0798 97.7432 67.8231 98.4653 69.1085 99.7506C70.3938 101.036 71.1159 102.779 71.1159 104.597Z" fill="#F6BB00"/>
<path d="M69.6104 66.6234C69.6104 67.9789 70.0123 69.3041 70.7654 70.4312C71.5185 71.5583 72.589 72.4368 73.8413 72.9555C75.0937 73.4743 76.4718 73.61 77.8013 73.3455C79.1308 73.0811 80.3521 72.4283 81.3106 71.4698C82.2691 70.5113 82.9219 69.29 83.1864 67.9605C83.4508 66.631 83.3151 65.2529 82.7963 64.0005C82.2776 62.7481 81.3991 61.6777 80.272 60.9246C79.1449 60.1715 77.8198 59.7695 76.4642 59.7695C74.6464 59.7695 72.9031 60.4916 71.6178 61.777C70.3325 63.0623 69.6104 64.8056 69.6104 66.6234Z" fill="#F6BB00"/>
</g>
</g>
</svg>
