<svg width="180" height="180" viewBox="0 0 180 180" fill="none" xmlns="http://www.w3.org/2000/svg">
<mask id="mask0_1322_3648" style="mask-type:luminance" maskUnits="userSpaceOnUse" x="0" y="0" width="180" height="180">
<path d="M180 0H0V180H180V0Z" fill="white"/>
</mask>
<g mask="url(#mask0_1322_3648)">
<path d="M49.8461 22.8457H11.7695V40.8457H49.8461V22.8457Z" fill="#1C0303"/>
<path d="M89.3072 22.8457H51.9229V40.8457H89.3072V22.8457Z" fill="#1C0303"/>
<path d="M128.769 22.8457H90.6924V40.8457H128.769V22.8457Z" fill="#1C0303"/>
<path d="M168.231 22.8457H130.154V40.8457H168.231V22.8457Z" fill="#1C0303"/>
<mask id="mask1_1322_3648" style="mask-type:luminance" maskUnits="userSpaceOnUse" x="0" y="0" width="180" height="180">
<path d="M180 0H0V180H180V0Z" fill="white"/>
</mask>
<g mask="url(#mask1_1322_3648)">
<path d="M40.6705 35.1676L36.3521 30.8492C36.2523 30.7492 36.1963 30.6137 36.1963 30.4725C36.1963 30.3312 36.2523 30.1957 36.3521 30.0957L36.8577 29.5917C36.9072 29.5422 36.9659 29.5029 37.0306 29.4761C37.0952 29.4493 37.1645 29.4355 37.2345 29.4355C37.3045 29.4355 37.3738 29.4493 37.4384 29.4761C37.5031 29.5029 37.5618 29.5422 37.6113 29.5917L41.0476 33.0158L44.484 29.5917C44.5335 29.5422 44.5922 29.5029 44.6569 29.4761C44.7215 29.4493 44.7908 29.4355 44.8608 29.4355C44.9308 29.4355 45.0001 29.4493 45.0647 29.4761C45.1294 29.5029 45.1881 29.5422 45.2376 29.5917L45.7407 30.0949C45.8405 30.1949 45.8965 30.3304 45.8965 30.4716C45.8965 30.6129 45.8405 30.7484 45.7407 30.8484L41.4232 35.1676C41.3737 35.2171 41.315 35.2564 41.2503 35.2832C41.1857 35.31 41.1164 35.3238 41.0464 35.3238C40.9764 35.3238 40.9071 35.31 40.8425 35.2832C40.7778 35.2564 40.7199 35.2171 40.6705 35.1676Z" fill="white"/>
<path d="M79.7183 35.1676L75.4 30.8492C75.3002 30.7492 75.2441 30.6137 75.2441 30.4725C75.2441 30.3312 75.3002 30.1957 75.4 30.0957L75.9056 29.5917C75.9551 29.5422 76.0138 29.5029 76.0784 29.4761C76.1431 29.4493 76.2124 29.4355 76.2824 29.4355C76.3523 29.4355 76.4216 29.4493 76.4863 29.4761C76.5509 29.5029 76.6097 29.5422 76.6591 29.5917L80.0955 33.0158L83.5319 29.5917C83.5813 29.5422 83.6401 29.5029 83.7047 29.4761C83.7694 29.4493 83.8387 29.4355 83.9086 29.4355C83.9786 29.4355 84.0479 29.4493 84.1126 29.4761C84.1772 29.5029 84.2359 29.5422 84.2854 29.5917L84.7886 30.0949C84.8884 30.1949 84.9444 30.3304 84.9444 30.4716C84.9444 30.6129 84.8884 30.7484 84.7886 30.8484L80.4669 35.1668C80.4175 35.2163 80.3587 35.2556 80.2941 35.2823C80.2295 35.3091 80.1602 35.3229 80.0902 35.3229C80.0202 35.3229 79.9509 35.3091 79.8863 35.2823C79.8216 35.2556 79.7629 35.2163 79.7134 35.1668" fill="white"/>
<path d="M119.367 35.1676L115.048 30.8492C114.949 30.7492 114.893 30.6137 114.893 30.4725C114.893 30.3312 114.949 30.1957 115.048 30.0957L115.554 29.5917C115.603 29.5422 115.662 29.5029 115.727 29.4761C115.792 29.4493 115.861 29.4355 115.931 29.4355C116.001 29.4355 116.07 29.4493 116.135 29.4761C116.199 29.5029 116.258 29.5422 116.308 29.5917L119.744 33.0158L123.18 29.5917C123.23 29.5422 123.288 29.5029 123.353 29.4761C123.418 29.4493 123.487 29.4355 123.557 29.4355C123.627 29.4355 123.696 29.4493 123.761 29.4761C123.826 29.5029 123.884 29.5422 123.934 29.5917L124.437 30.0949C124.537 30.1949 124.593 30.3304 124.593 30.4716C124.593 30.6129 124.537 30.7484 124.437 30.8484L120.115 35.1668C120.066 35.2163 120.007 35.2556 119.943 35.2823C119.878 35.3091 119.809 35.3229 119.739 35.3229C119.669 35.3229 119.599 35.3091 119.535 35.2823C119.47 35.2556 119.411 35.2163 119.362 35.1668" fill="white"/>
<path d="M159.015 35.1676L154.697 30.8492C154.597 30.7492 154.541 30.6137 154.541 30.4725C154.541 30.3312 154.597 30.1957 154.697 30.0957L155.202 29.5917C155.252 29.5422 155.311 29.5029 155.375 29.4761C155.44 29.4493 155.509 29.4355 155.579 29.4355C155.649 29.4355 155.719 29.4493 155.783 29.4761C155.848 29.5029 155.907 29.5422 155.956 29.5917L159.392 33.0158L162.829 29.5917C162.878 29.5422 162.937 29.5029 163.002 29.4761C163.066 29.4493 163.136 29.4355 163.206 29.4355C163.275 29.4355 163.345 29.4493 163.409 29.4761C163.474 29.5029 163.533 29.5422 163.582 29.5917L164.085 30.0949C164.185 30.1949 164.241 30.3304 164.241 30.4716C164.241 30.6129 164.185 30.7484 164.085 30.8484L159.764 35.1668C159.714 35.2163 159.656 35.2556 159.591 35.2823C159.526 35.3091 159.457 35.3229 159.387 35.3229C159.317 35.3229 159.248 35.3091 159.183 35.2823C159.118 35.2556 159.06 35.2163 159.01 35.1668" fill="white"/>
<path d="M156.463 63.6914H135.001V84.461H156.463V63.6914Z" fill="#FFB900"/>
<path d="M135.001 63.6914H87.9248V84.461H135.001V63.6914Z" fill="#107C10"/>
<path d="M168.232 63.6914H156.463V84.461H168.232V63.6914Z" fill="#D83B01"/>
<path d="M141.233 87.9229H124.617V107.307H141.233V87.9229Z" fill="#FFB900"/>
<path d="M124.617 87.9229H87.9248V107.307H124.617V87.9229Z" fill="#107C10"/>
<path d="M149.539 87.9229H141.231V107.307H149.539V87.9229Z" fill="#D83B01"/>
<path d="M134.309 111.461H119.771V132.923H134.309V111.461Z" fill="#FFB900"/>
<path d="M119.771 111.461H87.9248V132.923H119.771V111.461Z" fill="#107C10"/>
<path d="M141.924 111.461H134.309V132.923H141.924V111.461Z" fill="#D83B01"/>
<path d="M126.693 137.076H113.539V156.461H126.693V137.076Z" fill="#FFB900"/>
<path d="M113.54 137.076H87.9248V156.461H113.54V137.076Z" fill="#107C10"/>
<path d="M132.924 137.076H126.693V156.461H132.924V137.076Z" fill="#D83B01"/>
<path d="M20.7705 81H11.7705V129.462H20.7705V81Z" fill="#1C0303"/>
<path d="M19.2242 87.7072L15.6201 89.8099V85.6045L19.2242 87.7072Z" fill="white"/>
<path d="M17.3092 96.9229H15.9248V116.999H17.3092V96.9229Z" fill="white"/>
<path d="M17.3092 118.384H15.9248V125.999H17.3092V118.384Z" fill="white"/>
<path d="M78.2318 75.4609H28.3857V87.2305H78.2318V75.4609Z" fill="#1C0303"/>
<g opacity="0.87">
<mask id="mask2_1322_3648" style="mask-type:luminance" maskUnits="userSpaceOnUse" x="28" y="87" width="51" height="12">
<path d="M78.2318 87.2305H28.3857V99H78.2318V87.2305Z" fill="white"/>
</mask>
<g mask="url(#mask2_1322_3648)">
<path d="M78.2318 87.2305H28.3857V99H78.2318V87.2305Z" fill="#1C0303"/>
</g>
</g>
<path d="M78.2318 99H28.3857V110.77H78.2318V99Z" fill="#1C0303"/>
<path d="M78.2318 110.77H28.3857V123.231H78.2318V110.77Z" fill="#1C0303"/>
<path d="M78.2318 123.23H28.3857V135H78.2318V123.23Z" fill="#1C0303"/>
<path d="M78.2318 135H28.3857V146.77H78.2318V135Z" fill="#1C0303"/>
<path d="M58.8471 80.3076H33.2314V82.3842H58.8471V80.3076Z" fill="white"/>
<path d="M51.2314 92.0762H33.2314V94.1527H51.2314V92.0762Z" fill="white"/>
<path d="M63.6932 103.846H33.2314V105.922H63.6932V103.846Z" fill="white"/>
<path d="M55.3854 115.615H33.2314V118.385H55.3854V115.615Z" fill="white"/>
<path d="M49.1549 128.076H33.2314V130.153H49.1549V128.076Z" fill="white"/>
<path d="M51.2314 139.846H33.2314V142.615H51.2314V139.846Z" fill="white"/>
</g>
</g>
</svg>
