<svg width="180" height="180" viewBox="0 0 180 180" fill="none" xmlns="http://www.w3.org/2000/svg">
<mask id="mask0_1322_3726" style="mask-type:luminance" maskUnits="userSpaceOnUse" x="16" y="17" width="148" height="146">
<path d="M163.039 17.6543H16.2695V162.347H163.039V17.6543Z" fill="white"/>
</mask>
<g mask="url(#mask0_1322_3726)">
<path d="M16.2695 161.472H163.308" stroke="#1C0303" stroke-width="3"/>
<path d="M39.901 121.641C47.3315 121.641 53.3546 127.222 53.3546 134.107C53.3546 140.992 47.3315 146.573 39.8975 146.573C32.4635 146.573 26.4404 140.991 26.4404 134.107C26.4404 127.223 32.4635 121.641 39.8975 121.641" fill="#0078D4"/>
<path d="M89.7891 121.642C97.221 121.642 103.246 127.223 103.246 134.108C103.246 140.993 97.2231 146.574 89.7891 146.574C82.3551 146.574 76.332 140.992 76.332 134.108C76.332 127.224 82.3551 121.642 89.7891 121.642Z" fill="#107C10"/>
<path d="M139.677 121.642C147.109 121.642 153.134 127.223 153.134 134.108C153.134 140.993 147.111 146.574 139.677 146.574C132.243 146.574 126.22 140.992 126.22 134.108C126.22 127.224 132.243 121.642 139.677 121.642Z" fill="#FFB900"/>
<path d="M139.677 27.9902C147.109 27.9902 153.134 33.5716 153.134 40.4566C153.134 47.3416 147.111 52.9223 139.677 52.9223C132.243 52.9223 126.22 47.3409 126.22 40.4566C126.22 33.5723 132.243 27.9902 139.677 27.9902Z" fill="#FFB900"/>
<path d="M39.901 104.613C47.3315 104.613 53.3546 110.195 53.3546 117.08C53.3546 123.965 47.3315 129.545 39.8975 129.545C32.4635 129.545 26.4404 123.964 26.4404 117.08C26.4404 110.195 32.4635 104.613 39.8975 104.613" fill="#0078D4"/>
<path d="M39.901 65.0869C47.3315 65.0869 53.3546 70.6683 53.3546 77.5533C53.3546 84.4383 47.3315 90.019 39.8975 90.019C32.4635 90.019 26.4404 84.4376 26.4404 77.5533C26.4404 70.669 32.4635 65.0869 39.8975 65.0869" fill="#0078D4"/>
<path d="M89.7891 86.9795C97.221 86.9795 103.246 92.5609 103.246 99.4459C103.246 106.331 97.2231 111.912 89.7891 111.912C82.3551 111.912 76.332 106.33 76.332 99.4459C76.332 92.5616 82.3551 86.9795 89.7891 86.9795Z" fill="#107C10"/>
<path d="M89.7891 109.478C97.221 109.478 103.246 115.059 103.246 121.944C103.246 128.829 97.2231 134.41 89.7891 134.41C82.3551 134.41 76.332 128.828 76.332 121.944C76.332 115.06 82.3551 109.478 89.7891 109.478Z" fill="#107C10"/>
<path d="M139.677 90.0195C147.109 90.0195 153.134 95.6009 153.134 102.486C153.134 109.371 147.111 114.952 139.677 114.952C132.243 114.952 126.22 109.37 126.22 102.486C126.22 95.6016 132.243 90.0195 139.677 90.0195Z" fill="#FFB900"/>
<path d="M39.9014 52.3164C47.332 52.3164 53.355 57.8978 53.355 64.7828C53.355 71.6678 47.332 77.2485 39.898 77.2485C32.464 77.2485 26.4443 71.6671 26.4443 64.7828C26.4443 57.8985 32.4688 52.3164 39.9014 52.3164Z" fill="#0078D4"/>
<path d="M39.9014 24.9521C47.332 24.9521 53.355 30.5335 53.355 37.4185C53.355 44.3035 47.332 49.8842 39.9014 49.8842C32.4709 49.8842 26.4443 44.3028 26.4443 37.4185C26.4443 30.5342 32.4674 24.9521 39.9014 24.9521Z" fill="#0078D4"/>
<path d="M89.7891 52.3164C97.221 52.3164 103.246 57.8978 103.246 64.7828C103.246 71.6678 97.2231 77.2485 89.7891 77.2485C82.3551 77.2485 76.332 71.6671 76.332 64.7828C76.332 57.8985 82.3565 52.3164 89.7891 52.3164Z" fill="#107C10"/>
<path d="M39.9014 17.6543C47.332 17.6543 53.355 23.2357 53.355 30.1207C53.355 37.0057 47.332 42.5864 39.9014 42.5864C32.4709 42.5864 26.4443 37.005 26.4443 30.1207C26.4443 23.2364 32.4688 17.6543 39.9014 17.6543Z" fill="#0078D4"/>
</g>
</svg>
