<svg width="180" height="180" viewBox="0 0 180 180" fill="none" xmlns="http://www.w3.org/2000/svg">
<path d="M148.536 57.4297H32.2002V60.5458H148.536V57.4297Z" fill="#1C0303"/>
<path d="M123.609 88.5908H36.3574V91.7069H123.609V88.5908Z" fill="#1C0303"/>
<path d="M149.579 119.753H62.3271V122.869H149.579V119.753Z" fill="#1C0303"/>
<mask id="mask0_1322_3764" style="mask-type:luminance" maskUnits="userSpaceOnUse" x="22" y="50" width="136" height="80">
<path d="M157.846 50.1924H22.8457V129.808H157.846V50.1924Z" fill="white"/>
</mask>
<g mask="url(#mask0_1322_3764)">
<path fill-rule="evenodd" clip-rule="evenodd" d="M157.622 58.9863C157.622 60.7488 157.099 62.4717 156.12 63.9372C155.141 65.4027 153.75 66.545 152.121 67.2197C150.493 67.8943 148.701 68.071 146.973 67.7274C145.244 67.3838 143.656 66.5353 142.409 65.2893C141.163 64.0433 140.314 62.4556 139.97 60.7271C139.625 58.9985 139.801 57.2067 140.475 55.5782C141.149 53.9497 142.291 52.5575 143.756 51.5779C145.221 50.5982 146.944 50.0749 148.706 50.0742C151.07 50.0742 153.337 51.0132 155.008 52.6845C156.68 54.3558 157.619 56.6227 157.619 58.9863" fill="#FFB900"/>
<path fill-rule="evenodd" clip-rule="evenodd" d="M40.398 58.9863C40.3978 60.7488 39.8751 62.4716 38.8958 63.937C37.9165 65.4024 36.5247 66.5445 34.8963 67.2188C33.268 67.8932 31.4762 68.0696 29.7476 67.7257C28.019 67.3817 26.4312 66.533 25.185 65.2867C23.9388 64.0404 23.0902 62.4525 22.7464 60.7239C22.4026 58.9953 22.5791 57.2035 23.2536 55.5752C23.9281 53.9469 25.0703 52.5552 26.5358 51.576C28.0012 50.5968 29.7241 50.0742 31.4866 50.0742C32.6569 50.0742 33.8158 50.3047 34.897 50.7526C35.9782 51.2005 36.9606 51.857 37.7881 52.6845C38.6156 53.5121 39.272 54.4946 39.7198 55.5758C40.1676 56.6571 40.3981 57.816 40.398 58.9863Z" fill="#D83B01"/>
<path fill-rule="evenodd" clip-rule="evenodd" d="M47.9716 90.5198C47.9718 92.2824 47.4492 94.0055 46.47 95.4712C45.4909 96.9369 44.0991 98.0792 42.4707 98.7539C40.8423 99.4286 39.0504 99.6052 37.3216 99.2614C35.5928 98.9177 34.0047 98.069 32.7582 96.8228C31.5118 95.5765 30.6629 93.9886 30.3188 92.2598C29.9748 90.5311 30.1512 88.7391 30.8256 87.1106C31.5 85.4821 32.6422 84.0901 34.1077 83.1107C35.5732 82.1314 37.2962 81.6085 39.0588 81.6084C40.2292 81.6082 41.3882 81.8386 42.4695 82.2863C43.5509 82.7341 44.5334 83.3905 45.361 84.218C46.1887 85.0455 46.8452 86.028 47.2931 87.1092C47.7411 88.1905 47.9716 89.3494 47.9716 90.5198Z" fill="#D83B01"/>
<path fill-rule="evenodd" clip-rule="evenodd" d="M132.523 90.5198C132.523 92.2823 132 94.0052 131.021 95.4707C130.042 96.9362 128.65 98.0783 127.022 98.7528C125.393 99.4273 123.602 99.6038 121.873 99.2599C120.144 98.9161 118.557 98.0674 117.31 96.8211C116.064 95.5748 115.215 93.987 114.871 92.2583C114.528 90.5297 114.704 88.7379 115.379 87.1095C116.053 85.4812 117.195 84.0894 118.661 83.1102C120.126 82.131 121.849 81.6084 123.612 81.6084C125.975 81.6086 128.242 82.5475 129.913 84.2187C131.584 85.8899 132.523 88.1564 132.523 90.5198Z" fill="#FFB900"/>
<path fill-rule="evenodd" clip-rule="evenodd" d="M71.9321 121.598C71.932 123.36 71.4092 125.083 70.43 126.548C69.4507 128.014 68.0589 129.156 66.4305 129.83C64.8022 130.505 63.0104 130.681 61.2818 130.337C59.5532 129.993 57.9654 129.144 56.7192 127.898C55.473 126.652 54.6243 125.064 54.2806 123.335C53.9368 121.607 54.1133 119.815 54.7878 118.187C55.4623 116.558 56.6045 115.167 58.0699 114.187C59.5354 113.208 61.2583 112.686 63.0208 112.686C64.1911 112.686 65.3499 112.916 66.4312 113.364C67.5124 113.812 68.4948 114.468 69.3223 115.296C70.1498 116.123 70.8062 117.106 71.254 118.187C71.7018 119.268 71.9322 120.427 71.9321 121.598Z" fill="#D83B01"/>
<path fill-rule="evenodd" clip-rule="evenodd" d="M156.936 121.598C156.936 123.36 156.414 125.083 155.434 126.549C154.455 128.014 153.063 129.157 151.435 129.831C149.806 130.506 148.014 130.682 146.286 130.338C144.557 129.995 142.969 129.146 141.723 127.899C140.476 126.653 139.627 125.065 139.284 123.336C138.94 121.608 139.116 119.816 139.791 118.187C140.465 116.559 141.608 115.167 143.073 114.188C144.539 113.208 146.262 112.686 148.024 112.686C150.388 112.686 152.654 113.624 154.326 115.296C155.997 116.967 156.936 119.233 156.936 121.597L156.936 121.598Z" fill="#FFB900"/>
</g>
</svg>
