<svg width="180" height="180" viewBox="0 0 180 180" fill="none" xmlns="http://www.w3.org/2000/svg">
<path d="M44.182 93.2725H18.8184V162.818H44.182V93.2725Z" fill="#0078D4"/>
<path d="M99.6429 122.728H74.2793V162.818H99.6429V122.728Z" fill="#0078D4"/>
<path d="M71.9574 43.3633H46.5938V162.818H71.9574V43.3633Z" fill="#0078D4"/>
<mask id="mask0_1322_3801" style="mask-type:luminance" maskUnits="userSpaceOnUse" x="0" y="0" width="180" height="180">
<path d="M180 0H0V180H180V0Z" fill="white"/>
</mask>
<g mask="url(#mask0_1322_3801)">
<path d="M94.4157 39.9404C94.6496 39.9403 94.8783 40.0094 95.0728 40.1392C95.2674 40.269 95.4192 40.4535 95.509 40.6695C95.5987 40.8854 95.6225 41.1232 95.5772 41.3526C95.5319 41.5821 95.4196 41.793 95.2545 41.9586C95.0894 42.1243 94.8789 42.2373 94.6496 42.2834C94.4203 42.3295 94.1825 42.3066 93.9662 42.2176C93.7499 42.1286 93.5649 41.9774 93.4344 41.7833C93.304 41.5891 93.234 41.3607 93.2334 41.1268C93.2334 40.813 93.358 40.5121 93.5799 40.2902C93.8018 40.0684 94.1027 39.9437 94.4165 39.9437" fill="#C8C6C4"/>
<path d="M94.4145 23.21C91.2035 23.2116 88.1246 24.4885 85.8549 26.7599C83.5853 29.0313 82.3107 32.1111 82.3115 35.3221C82.3123 38.5331 83.5885 41.6123 85.8593 43.8826C88.1301 46.1528 91.2096 47.4281 94.4206 47.4281C97.6316 47.4281 100.711 46.1528 102.982 43.8826C105.253 41.6123 106.529 38.5331 106.53 35.3221C106.531 32.1111 105.256 29.0313 102.986 26.7599C100.717 24.4885 97.6377 23.2116 94.4267 23.21H94.4145ZM94.4145 45.4367C91.7052 45.4351 89.1074 44.3574 87.1925 42.4408C85.2776 40.5242 84.2023 37.9255 84.2032 35.2162C84.204 32.5069 85.2808 29.9088 87.1969 27.9933C89.1129 26.0778 91.7113 25.0018 94.4206 25.0018C97.1299 25.0018 99.7283 26.0778 101.644 27.9933C103.56 29.9088 104.637 32.5069 104.638 35.2162C104.639 37.9255 103.564 40.5242 101.649 42.4408C99.7338 44.3574 97.1361 45.4351 94.4267 45.4367H94.4145Z" fill="#C8C6C4"/>
<path d="M97.0545 30.4011C96.9388 30.2814 96.8065 30.1789 96.6618 30.0967C96.1117 29.7397 95.4759 29.5371 94.8207 29.51C94.1655 29.4828 93.5151 29.6323 92.9374 29.9426C92.3597 30.2529 91.8761 30.7127 91.537 31.274C91.1979 31.8352 91.0158 32.4773 91.0098 33.133C91.0098 33.3717 91.1046 33.6006 91.2734 33.7694C91.4421 33.9382 91.6711 34.033 91.9098 34.033C92.1485 34.033 92.3774 33.9382 92.5462 33.7694C92.7149 33.6006 92.8098 33.3717 92.8098 33.133C92.8137 32.7895 92.9138 32.454 93.0986 32.1645C93.2834 31.875 93.5456 31.643 93.8555 31.4948C94.1654 31.3466 94.5106 31.2882 94.852 31.3261C95.1934 31.364 95.5173 31.4968 95.7871 31.7094C95.884 31.7746 95.9673 31.858 96.0326 31.9548C96.2651 32.249 96.402 32.6074 96.4248 32.9818C96.4476 33.3561 96.3552 33.7284 96.16 34.0487C95.9649 34.3689 95.6763 34.6218 95.3332 34.7731C94.9901 34.9245 94.6089 34.9672 94.2408 34.8954C94.1781 34.8799 94.1127 34.8787 94.0495 34.8919C93.9863 34.9051 93.9269 34.9324 93.8757 34.9717C93.8245 35.011 93.7827 35.0613 93.7536 35.1189C93.7244 35.1765 93.7086 35.2399 93.7073 35.3045V38.0863C93.7073 38.325 93.8021 38.5539 93.9709 38.7227C94.1397 38.8915 94.3686 38.9863 94.6073 38.9863C94.846 38.9863 95.0749 38.8915 95.2437 38.7227C95.4125 38.5539 95.5073 38.325 95.5073 38.0863V36.6234C96.1402 36.4556 96.7164 36.1208 97.1756 35.654C97.6348 35.1873 97.9602 34.6057 98.1176 33.9702C98.2751 33.3346 98.2589 32.6684 98.0707 32.0413C97.8825 31.4141 97.5293 30.8491 97.0479 30.4052" fill="#C8C6C4"/>
<path d="M163.397 52.6467V18.4025H118.342V33.0971L115.251 35.5254L118.342 37.9538V52.6467H163.397ZM165.197 54.4467H116.541V38.8301L112.336 35.5254L116.541 32.2216V16.6025H165.2L165.197 54.4467Z" fill="#C8C6C4"/>
<path d="M157.845 23.5381H123.922V26.9998H157.845V23.5381Z" fill="#107C10"/>
<path d="M143.998 33.2305H123.922V36.6922H143.998V33.2305Z" fill="#107C10"/>
<path d="M150.23 42.9238H123.922V45.6934H150.23V42.9238Z" fill="#107C10"/>
</g>
</svg>
