<svg width="180" height="180" viewBox="0 0 180 180" fill="none" xmlns="http://www.w3.org/2000/svg">
<mask id="mask0_1322_3835" style="mask-type:luminance" maskUnits="userSpaceOnUse" x="0" y="0" width="180" height="180">
<path d="M180 0H0V180H180V0Z" fill="white"/>
</mask>
<g mask="url(#mask0_1322_3835)">
<path d="M168.866 2.16602L179.948 32.0862C179.948 32.0862 108.972 59.9107 104.953 45.6187C100.933 31.3267 168.867 2.16602 168.867 2.16602" fill="#0078D4"/>
<path d="M172.31 64.3994L171.159 101.806C171.159 101.806 78.113 106.829 81.1591 90.7459C84.2053 74.6629 172.31 64.3994 172.31 64.3994Z" fill="#107C10"/>
<path d="M173.089 118.554V164.929C173.089 164.929 43.2808 159.443 52.4719 143.928C61.663 128.413 173.089 118.554 173.089 118.554Z" fill="#FFB900"/>
<path d="M10.9951 35.1772L21.901 26.8003L35.6184 48.7402L44.4107 27.5971L53.5637 35.5753L70.0953 31.5869L77.4864 24.0068L95.0773 39.1684L105.983 45.1527L116.186 39.1684" stroke="#C8C6C4" stroke-width="3"/>
<path d="M10.9951 88.6112L21.5874 86.3501L25.9047 90.1197L32.5757 94.4536L39.2468 86.9178L49.0575 81.4541L54.9421 90.8736L61.222 88.0483L77.3106 94.6412L82.3727 90.8716" stroke="#C8C6C4" stroke-width="3"/>
<path d="M10.9951 142.688L24.3643 122.742L30.3451 135.508L38.4361 146.279L44.7687 151.864L49.6944 142.289L53.3533 144.524" stroke="#C8C6C4" stroke-width="3"/>
<path d="M105.982 45.1505L116.185 39.1662L125.332 33.9808L140.371 29.692L149.959 26.002" stroke="white" stroke-width="3"/>
<path d="M165.976 83.3564L150.187 89.8849L137.55 91.0182L128.139 91.0224L115.47 89.9008L99.528 92.2346L92.9781 90.3093L88.251 92.0795" stroke="white" stroke-width="3.002" stroke-miterlimit="4.002"/>
<path d="M149.343 135.895H121.902L109.501 140.282L95.5161 147.164L67.02 142.975L57.2585 147.164L52.7197 144.352" stroke="white" stroke-width="3"/>
</g>
</svg>
