<svg width="180" height="180" viewBox="0 0 180 180" fill="none" xmlns="http://www.w3.org/2000/svg">
<mask id="mask0_1322_3873" style="mask-type:luminance" maskUnits="userSpaceOnUse" x="12" y="12" width="156" height="156">
<path d="M167.539 12.4619H12.4619V167.539H167.539V12.4619Z" fill="white"/>
</mask>
<g mask="url(#mask0_1322_3873)">
<path opacity="0.12" d="M174.201 21.6004L213.401 75.6007C213.401 75.6007 106.212 151.336 96.1729 133.494C86.1342 115.652 174.201 21.6004 174.201 21.6004Z" fill="#0078D4"/>
<path d="M-4.39844 168.229L5.60081 156.519L12.002 160.573L20.0014 154.287L23.2019 155.706L38.0014 137.05L50.4014 142.727L66.8004 126.708L68.8016 130.357L74.8018 125.896L80.0016 134.412L86.4014 141.612L96.6007 132.798" stroke="#1C0303" stroke-width="5"/>
<path d="M96.1381 133.281L174.675 61.128" stroke="#0078D4" stroke-width="5"/>
</g>
<path d="M70.8008 85.2V69H134.321V73.9632L138.301 77.1L134.321 80.2375V85.2H70.8008Z" fill="#0078D4"/>
<path d="M35.3081 12.4619H12.4619V16.6158H35.3081V12.4619Z" fill="#1C0303"/>
<path d="M63.0001 13.1543H46.3848V15.2312H63.0001V13.1543Z" fill="#D8D8D8"/>
<path d="M74.7694 25.6152H46.3848V28.3845H74.7694V25.6152Z" fill="#D8D8D8"/>
<path d="M68.5386 38.7695H46.3848V40.8465H68.5386V38.7695Z" fill="#D8D8D8"/>
<path d="M35.3081 24.2305H12.4619V29.7689H35.3081V24.2305Z" fill="#0078D4"/>
<path d="M35.3081 37.3848H12.4619V42.2309H35.3081V37.3848Z" fill="#E0EFFA"/>
</svg>
