<svg width="180" height="180" viewBox="0 0 180 180" fill="none" xmlns="http://www.w3.org/2000/svg">
<mask id="mask0_1322_3911" style="mask-type:luminance" maskUnits="userSpaceOnUse" x="10" y="4" width="167" height="168">
<path d="M176.716 4.23926H10.8008V171.29H176.716V4.23926Z" fill="white"/>
</mask>
<g mask="url(#mask0_1322_3911)">
<path fill-rule="evenodd" clip-rule="evenodd" d="M121.532 101.141V82.9088L102.669 71.0371V113.013L121.532 101.141Z" fill="#6FB3E6"/>
<path d="M163.595 82.8555H123.966V101.173H163.595V82.8555Z" fill="#4B9C4B"/>
<path d="M99.5281 71.3525H56.5967V112.757H99.5281V71.3525Z" fill="#0078D4"/>
<mask id="mask1_1322_3911" style="mask-type:luminance" maskUnits="userSpaceOnUse" x="19" y="22" width="35" height="142">
<path d="M53.295 22.1328H19.5V163.276H53.295V22.1328Z" fill="white"/>
</mask>
<g mask="url(#mask1_1322_3911)">
<path d="M53.9056 102.731C53.9056 102.731 42.0311 98.1906 36.5079 130.399C31.2616 154.761 20.7676 153.937 20.7676 153.937" stroke="#FFB900" stroke-width="8" stroke-miterlimit="10"/>
<path d="M53.9056 80.032C53.9056 80.032 42.0311 84.5735 36.5079 52.366C31.2616 28.0037 20.7676 28.8275 20.7676 28.8275" stroke="#FFB900" stroke-width="8" stroke-miterlimit="10"/>
<path d="M53.3126 91.3232H21.832" stroke="#FFB900" stroke-width="34" stroke-miterlimit="10"/>
</g>
</g>
</svg>
