<svg width="155" height="142" viewBox="0 0 155 142" fill="none" xmlns="http://www.w3.org/2000/svg">
<rect x="63.457" y="120.034" width="19.5254" height="21.9661" fill="#0078D4"/>
<rect width="50.0339" height="19.5254" fill="black"/>
<rect x="52.4736" width="50.0339" height="19.5254" fill="black"/>
<rect x="104.949" width="50.0339" height="19.5254" fill="black"/>
<line y1="49.5342" x2="153.763" y2="49.5342" stroke="#978989"/>
<line y1="78.8223" x2="153.763" y2="78.8223" stroke="#978989"/>
<line y1="108.11" x2="153.763" y2="108.11" stroke="black"/>
<rect y="30.5088" width="42.7119" height="6.10169" fill="#D9D9D9"/>
<rect x="52.4736" y="30.5088" width="37.8305" height="6.10169" fill="#D9D9D9"/>
<rect x="104.949" y="30.5088" width="21.9661" height="6.10169" fill="#D9D9D9"/>
<rect y="61.0166" width="35.3898" height="6.10169" fill="#D9D9D9"/>
<rect x="52.4736" y="61.0166" width="41.4915" height="6.10169" fill="#D9D9D9"/>
<rect x="104.949" y="61.0166" width="31.7288" height="6.10169" fill="#D9D9D9"/>
<rect y="90.3047" width="29.2881" height="6.10169" fill="#D9D9D9"/>
<rect x="52.4736" y="90.3047" width="24.4068" height="6.10169" fill="#D9D9D9"/>
<rect x="104.949" y="90.3047" width="41.4915" height="6.10169" fill="#D9D9D9"/>
<path d="M30.502 126.444V135.034H28.6562V128.53C28.5547 128.62 28.4336 128.706 28.293 128.788C28.1562 128.866 28.0098 128.938 27.8535 129.005C27.6973 129.067 27.5352 129.122 27.3672 129.169C27.1992 129.212 27.0332 129.243 26.8691 129.263V127.704C27.3496 127.563 27.8027 127.384 28.2285 127.165C28.6543 126.946 29.0391 126.706 29.3828 126.444H30.502Z" fill="#0078D4"/>
<path d="M50.1074 133.499H53.6699V135.034H48.0801V134.401C48.0801 133.972 48.1523 133.587 48.2969 133.247C48.4414 132.903 48.623 132.597 48.8418 132.327C49.0605 132.054 49.2988 131.813 49.5566 131.606C49.8184 131.396 50.0664 131.206 50.3008 131.038C50.5469 130.862 50.7617 130.694 50.9453 130.534C51.1328 130.374 51.2891 130.216 51.4141 130.06C51.543 129.899 51.6387 129.739 51.7012 129.579C51.7637 129.415 51.7949 129.241 51.7949 129.058C51.7949 128.698 51.6934 128.427 51.4902 128.243C51.2871 128.06 50.9766 127.968 50.5586 127.968C49.8359 127.968 49.1445 128.255 48.4844 128.829V127.2C49.2148 126.728 50.0391 126.491 50.957 126.491C51.3828 126.491 51.7637 126.548 52.0996 126.661C52.4395 126.771 52.7266 126.929 52.9609 127.136C53.1953 127.343 53.373 127.595 53.4941 127.892C53.6191 128.185 53.6816 128.513 53.6816 128.876C53.6816 129.263 53.6211 129.606 53.5 129.907C53.3828 130.208 53.2246 130.481 53.0254 130.728C52.8301 130.974 52.6035 131.2 52.3457 131.407C52.0879 131.61 51.8203 131.808 51.543 131.999C51.3555 132.132 51.1738 132.265 50.998 132.397C50.8262 132.526 50.6738 132.655 50.541 132.784C50.4082 132.909 50.3027 133.032 50.2246 133.153C50.1465 133.274 50.1074 133.39 50.1074 133.499Z" fill="#0078D4"/>
<path d="M70.2451 134.759V133.147C70.8076 133.558 71.4639 133.763 72.2139 133.763C72.6865 133.763 73.0537 133.661 73.3154 133.458C73.5811 133.255 73.7139 132.972 73.7139 132.608C73.7139 132.233 73.5498 131.944 73.2217 131.741C72.8975 131.538 72.4502 131.437 71.8799 131.437H71.1006V130.019H71.8213C72.915 130.019 73.4619 129.655 73.4619 128.929C73.4619 128.245 73.042 127.903 72.2021 127.903C71.6396 127.903 71.0928 128.085 70.5615 128.448V126.937C71.1514 126.64 71.8389 126.491 72.624 126.491C73.4834 126.491 74.1514 126.685 74.6279 127.071C75.1084 127.458 75.3486 127.96 75.3486 128.577C75.3486 129.675 74.792 130.362 73.6787 130.64V130.669C74.2725 130.743 74.7412 130.96 75.085 131.319C75.4287 131.675 75.6006 132.112 75.6006 132.632C75.6006 133.417 75.3135 134.038 74.7393 134.495C74.165 134.952 73.3721 135.181 72.3604 135.181C71.4932 135.181 70.7881 135.04 70.2451 134.759Z" fill="white"/>
<path d="M6.71198 128.355L3.66113 132.016L6.71198 135.067" stroke="#0078D4"/>
<path d="M95.1865 128.355L98.2373 132.016L95.1865 135.067" stroke="#0078D4"/>
</svg>
