<svg width="163" height="116" viewBox="0 0 163 116" fill="none" xmlns="http://www.w3.org/2000/svg">
<rect x="68.1396" width="26.7692" height="26.7692" fill="#107C10"/>
<line x1="69.7627" y1="16.8457" x2="92.476" y2="16.8457" stroke="white" stroke-width="2"/>
<line x1="69.7627" y1="20.9023" x2="92.476" y2="20.9023" stroke="white" stroke-width="2"/>
<rect x="22.7139" y="46.2373" width="26.7692" height="26.7692" fill="#0078D4"/>
<line x1="24.3359" y1="63.084" x2="47.0492" y2="63.084" stroke="white" stroke-width="2"/>
<line x1="24.3359" y1="67.1396" x2="47.0492" y2="67.1396" stroke="white" stroke-width="2"/>
<rect x="111.943" y="46.2383" width="26.7692" height="26.7692" fill="#0078D4"/>
<line x1="113.565" y1="63.084" x2="136.279" y2="63.084" stroke="white" stroke-width="2"/>
<line x1="113.565" y1="67.1406" x2="136.279" y2="67.1406" stroke="white" stroke-width="2"/>
<rect y="89.2305" width="26.7692" height="26.7692" fill="#FFB900"/>
<line x1="1.62207" y1="106.076" x2="24.3354" y2="106.076" stroke="white" stroke-width="2"/>
<line x1="1.62207" y1="110.133" x2="24.3354" y2="110.133" stroke="white" stroke-width="2"/>
<rect x="46.2383" y="89.2305" width="26.7692" height="26.7692" fill="#FFB900"/>
<line x1="47.8604" y1="106.076" x2="70.5736" y2="106.076" stroke="white" stroke-width="2"/>
<line x1="47.8604" y1="110.133" x2="70.5736" y2="110.133" stroke="white" stroke-width="2"/>
<rect x="89.2314" y="89.2305" width="26.7692" height="26.7692" fill="#FFB900"/>
<line x1="90.8535" y1="106.076" x2="113.567" y2="106.076" stroke="white" stroke-width="2"/>
<line x1="90.8535" y1="110.133" x2="113.567" y2="110.133" stroke="white" stroke-width="2"/>
<rect x="135.469" y="89.2305" width="26.7692" height="26.7692" fill="#FFB900"/>
<line x1="137.091" y1="106.077" x2="159.804" y2="106.077" stroke="white" stroke-width="2"/>
<line x1="137.091" y1="110.133" x2="159.804" y2="110.133" stroke="white" stroke-width="2"/>
<path d="M12.9782 89.2302C12.7078 86.3911 13.6272 80.5505 19.4677 79.9016C25.3083 79.2526 24.7407 79.9016 27.9855 79.9016C30.0135 79.9016 34.1505 77.9548 36.0974 73.4121" stroke="black"/>
<path d="M35.772 46.2377C35.2511 43.4714 36.1851 35.2867 47.4537 35.2867C58.8103 35.2867 59.0494 35.2867 65.2998 35.2867C69.2063 35.2867 78.6847 37.1482 81.1182 27.1748" stroke="black"/>
<path d="M126.464 46.2377C126.985 43.4714 126.051 35.2867 114.783 35.2867C103.426 35.2867 103.187 35.2867 96.9365 35.2867C93.03 35.2867 83.5517 37.1482 81.1181 27.1748" stroke="black"/>
<path d="M58.8108 89.6365C59.0812 86.7973 58.1619 80.9568 52.3213 80.3078C46.4808 79.6589 47.0483 80.3079 43.8036 80.3078C41.7756 80.3078 37.6385 78.361 35.6917 73.8184" stroke="black"/>
<path d="M103.063 89.2302C102.793 86.3911 103.712 80.5505 109.553 79.9016C115.393 79.2526 114.826 79.9016 118.07 79.9016C120.098 79.9016 124.235 77.9548 126.182 73.4121" stroke="black"/>
<path d="M148.896 89.6355C149.166 86.7964 148.247 80.9558 142.406 80.3069C136.566 79.6579 137.133 80.3069 133.889 80.3069C131.861 80.3068 127.723 78.36 125.777 73.8174" stroke="black"/>
</svg>
