<svg width="180" height="180" viewBox="0 0 180 180" fill="none" xmlns="http://www.w3.org/2000/svg">
<path d="M42.8398 103.604H29.4062V141.764H42.8398V103.604Z" fill="#FFB92C"/>
<path d="M69.707 69.9209H56.2734V141.764H69.707V69.9209Z" fill="#FFB92C"/>
<path d="M56.2724 87.7373H42.8389V141.764H56.2724V87.7373Z" fill="#FFB92C"/>
<path d="M83.1406 49.5039H69.707V141.764H83.1406V49.5039Z" fill="#FFB92C"/>
<path d="M136.875 94.6436H123.441V141.764H136.875V94.6436Z" fill="#FFB92C"/>
<path d="M110.008 55.3076H96.5742V141.764H110.008V55.3076Z" fill="#FFB92C"/>
<path d="M123.441 81.4639H110.008V141.764H123.441V81.4639Z" fill="#FFB92C"/>
<path d="M96.5742 36.957H83.1406V141.763H96.5742V36.957Z" fill="#FFB92C"/>
<path d="M150.309 108.085H136.875V141.763H150.309V108.085Z" fill="#FFB92C"/>
<path d="M57.424 73.2539C58.3718 73.2539 59.2983 73.535 60.0864 74.0615C60.8744 74.5881 61.4887 75.3365 61.8514 76.2122C62.2141 77.0878 62.309 78.0514 62.1241 78.981C61.9392 79.9105 61.4827 80.7644 60.8126 81.4346C60.1424 82.1048 59.2885 82.5612 58.3589 82.7461C57.4293 82.931 56.4658 82.8361 55.5901 82.4734C54.7145 82.1107 53.966 81.4965 53.4395 80.7084C52.9129 79.9204 52.6318 78.9939 52.6318 78.0461C52.632 76.7752 53.137 75.5564 54.0356 74.6577C54.9343 73.759 56.1531 73.2541 57.424 73.2539Z" fill="#107C18"/>
<path d="M105.193 56.6387C106.14 56.6387 107.067 56.9197 107.855 57.4463C108.643 57.9729 109.257 58.7213 109.62 59.5969C109.983 60.4726 110.078 61.4361 109.893 62.3657C109.708 63.2953 109.251 64.1492 108.581 64.8194C107.911 65.4896 107.057 65.946 106.127 66.1309C105.198 66.3158 104.234 66.2209 103.359 65.8582C102.483 65.4955 101.735 64.8813 101.208 64.0932C100.681 63.3051 100.4 62.3786 100.4 61.4308C100.401 60.1599 100.906 58.9411 101.804 58.0425C102.703 57.1438 103.922 56.6389 105.193 56.6387Z" fill="#107C18"/>
<path d="M90.0011 56.6387C90.9489 56.6387 91.8754 56.9197 92.6635 57.4463C93.4516 57.9729 94.0658 58.7213 94.4285 59.5969C94.7912 60.4726 94.8861 61.4361 94.7012 62.3657C94.5163 63.2953 94.0599 64.1492 93.3897 64.8194C92.7195 65.4896 91.8656 65.946 90.936 66.1309C90.0065 66.3158 89.0429 66.2209 88.1673 65.8582C87.2916 65.4955 86.5432 64.8813 86.0166 64.0932C85.49 63.3051 85.209 62.3786 85.209 61.4308C85.2092 60.1599 85.7141 58.9411 86.6128 58.0425C87.5114 57.1438 88.7302 56.6389 90.0011 56.6387Z" fill="#107C18"/>
<path d="M64.3468 47.0537C65.2946 47.0537 66.2212 47.3348 67.0092 47.8613C67.7973 48.3879 68.4115 49.1363 68.7742 50.012C69.1369 50.8876 69.2318 51.8512 69.0469 52.7808C68.862 53.7104 68.4056 54.5642 67.7354 55.2344C67.0652 55.9046 66.2113 56.361 65.2817 56.5459C64.3522 56.7308 63.3886 56.6359 62.513 56.2732C61.6373 55.9105 60.8889 55.2963 60.3623 54.5082C59.8357 53.7202 59.5547 52.7937 59.5547 51.8459C59.5549 50.575 60.0598 49.3562 60.9585 48.4575C61.8571 47.5588 63.0759 47.0539 64.3468 47.0537Z" fill="#107C18"/>
<path d="M76.8625 75.4385C77.8103 75.4385 78.7368 75.7195 79.5248 76.2461C80.3129 76.7727 80.9271 77.5211 81.2898 78.3968C81.6525 79.2724 81.7474 80.2359 81.5625 81.1655C81.3776 82.0951 80.9212 82.949 80.251 83.6192C79.5808 84.2894 78.727 84.7458 77.7974 84.9307C76.8678 85.1156 75.9042 85.0207 75.0286 84.658C74.1529 84.2953 73.4045 83.6811 72.8779 82.893C72.3514 82.1049 72.0703 81.1784 72.0703 80.2306C72.0705 78.9597 72.5754 77.7409 73.4741 76.8423C74.3728 75.9436 75.5916 75.4387 76.8625 75.4385Z" fill="#107C18"/>
<path d="M91.5089 71.6309C92.4567 71.6309 93.3833 71.9119 94.1713 72.4385C94.9594 72.9651 95.5736 73.7135 95.9363 74.5891C96.299 75.4648 96.3939 76.4283 96.209 77.3579C96.0241 78.2875 95.5677 79.1414 94.8975 79.8116C94.2273 80.4818 93.3734 80.9382 92.4439 81.1231C91.5143 81.308 90.5507 81.2131 89.6751 80.8504C88.7994 80.4877 88.051 79.8735 87.5244 79.0854C86.9979 78.2973 86.7168 77.3708 86.7168 76.423C86.717 75.1521 87.2219 73.9333 88.1206 73.0347C89.0192 72.136 90.238 71.631 91.5089 71.6309Z" fill="#107C18"/>
<path d="M106.155 75.4385C107.103 75.4385 108.03 75.7195 108.818 76.2461C109.606 76.7727 110.22 77.5211 110.583 78.3968C110.946 79.2724 111.04 80.2359 110.856 81.1655C110.671 82.0951 110.214 82.949 109.544 83.6192C108.874 84.2894 108.02 84.7458 107.09 84.9307C106.161 85.1156 105.197 85.0207 104.322 84.658C103.446 84.2953 102.697 83.6811 102.171 82.893C101.644 82.1049 101.363 81.1784 101.363 80.2306C101.363 78.9597 101.868 77.7409 102.767 76.8423C103.666 75.9436 104.885 75.4387 106.155 75.4385Z" fill="#107C18"/>
<path d="M85.2072 32.0615C86.155 32.0615 87.0815 32.3426 87.8696 32.8691C88.6576 33.3957 89.2719 34.1441 89.6346 35.0198C89.9973 35.8954 90.0922 36.859 89.9073 37.7886C89.7224 38.7182 89.2659 39.572 88.5958 40.2422C87.9256 40.9124 87.0717 41.3688 86.1421 41.5538C85.2125 41.7387 84.249 41.6438 83.3733 41.281C82.4977 40.9183 81.7492 40.3041 81.2227 39.5161C80.6961 38.728 80.415 37.8015 80.415 36.8537C80.4152 35.5828 80.9202 34.364 81.8188 33.4653C82.7175 32.5667 83.9363 32.0617 85.2072 32.0615Z" fill="#107C18"/>
<path d="M81.6545 47.0537C82.6023 47.0537 83.5288 47.3348 84.3168 47.8613C85.1049 48.3879 85.7191 49.1363 86.0818 50.012C86.4445 50.8876 86.5394 51.8512 86.3545 52.7808C86.1696 53.7104 85.7132 54.5642 85.043 55.2344C84.3728 55.9046 83.5189 56.361 82.5894 56.5459C81.6598 56.7308 80.6962 56.6359 79.8206 56.2732C78.9449 55.9105 78.1965 55.2963 77.6699 54.5082C77.1434 53.7202 76.8623 52.7937 76.8623 51.8459C76.8625 50.575 77.3674 49.3562 78.2661 48.4575C79.1648 47.5588 80.3836 47.0539 81.6545 47.0537Z" fill="#107C18"/>
<path d="M92.7306 41.6455C93.6784 41.6455 94.6049 41.9266 95.393 42.4531C96.1811 42.9797 96.7953 43.7281 97.158 44.6038C97.5207 45.4794 97.6156 46.443 97.4307 47.3726C97.2458 48.3022 96.7894 49.156 96.1192 49.8262C95.449 50.4964 94.5951 50.9528 93.6655 51.1377C92.7359 51.3226 91.7724 51.2277 90.8968 50.865C90.0211 50.5023 89.2727 49.8881 88.7461 49.1C88.2195 48.312 87.9385 47.3855 87.9385 46.4377C87.9387 45.1668 88.4436 43.948 89.3423 43.0493C90.2409 42.1506 91.4597 41.6457 92.7306 41.6455Z" fill="#107C18"/>
<path d="M123.193 89.2842C124.14 89.2842 125.067 89.5652 125.855 90.0918C126.643 90.6184 127.257 91.3668 127.62 92.2425C127.983 93.1181 128.078 94.0816 127.893 95.0112C127.708 95.9408 127.251 96.7947 126.581 97.4649C125.911 98.1351 125.057 98.5915 124.127 98.7764C123.198 98.9613 122.234 98.8664 121.359 98.5037C120.483 98.141 119.735 97.5268 119.208 96.7387C118.681 95.9506 118.4 95.0241 118.4 94.0763C118.401 92.8054 118.906 91.5866 119.804 90.688C120.703 89.7893 121.922 89.2844 123.193 89.2842Z" fill="#107C18"/>
<path d="M123.193 73.2539C124.14 73.2539 125.067 73.535 125.855 74.0615C126.643 74.5881 127.257 75.3365 127.62 76.2122C127.983 77.0878 128.078 78.0514 127.893 78.981C127.708 79.9105 127.251 80.7644 126.581 81.4346C125.911 82.1048 125.057 82.5612 124.127 82.7461C123.198 82.931 122.234 82.8361 121.359 82.4734C120.483 82.1107 119.735 81.4965 119.208 80.7084C118.681 79.9204 118.4 78.9939 118.4 78.0461C118.401 76.7752 118.906 75.5564 119.804 74.6577C120.703 73.759 121.922 73.2541 123.193 73.2539Z" fill="#107C18"/>
<path d="M146.039 119.054C146.987 119.054 147.914 119.335 148.702 119.861C149.49 120.388 150.104 121.136 150.467 122.012C150.829 122.888 150.924 123.851 150.739 124.781C150.554 125.71 150.098 126.564 149.428 127.234C148.758 127.905 147.904 128.361 146.974 128.546C146.045 128.731 145.081 128.636 144.205 128.273C143.33 127.911 142.581 127.296 142.055 126.508C141.528 125.72 141.247 124.794 141.247 123.846C141.247 122.575 141.752 121.356 142.651 120.458C143.55 119.559 144.768 119.054 146.039 119.054Z" fill="#107C18"/>
<path d="M72.0705 63.6689C73.0183 63.6689 73.9448 63.95 74.7329 64.4766C75.5209 65.0031 76.1351 65.7516 76.4978 66.6272C76.8606 67.5029 76.9555 68.4664 76.7705 69.396C76.5856 70.3256 76.1292 71.1795 75.459 71.8497C74.7888 72.5199 73.935 72.9763 73.0054 73.1612C72.0758 73.3461 71.1123 73.2512 70.2366 72.8885C69.3609 72.5258 68.6125 71.9115 68.0859 71.1235C67.5594 70.3354 67.2783 69.4089 67.2783 68.4611C67.2785 67.1902 67.7834 65.9714 68.6821 65.0727C69.5808 64.1741 70.7996 63.6691 72.0705 63.6689Z" fill="#107C18"/>
<path d="M47.84 96.8994C48.7878 96.8994 49.7143 97.1805 50.5024 97.707C51.2904 98.2336 51.9047 98.982 52.2674 99.8577C52.6301 100.733 52.725 101.697 52.5401 102.626C52.3552 103.556 51.8988 104.41 51.2286 105.08C50.5584 105.75 49.7045 106.207 48.7749 106.392C47.8453 106.577 46.8818 106.482 46.0061 106.119C45.1305 105.756 44.382 105.142 43.8555 104.354C43.3289 103.566 43.0479 102.639 43.0479 101.692C43.048 100.421 43.553 99.2019 44.4516 98.3032C45.3503 97.4045 46.5691 96.8996 47.84 96.8994Z" fill="#107C18"/>
<path d="M33.9933 106.03C34.9411 106.03 35.8676 106.311 36.6557 106.838C37.4438 107.364 38.058 108.113 38.4207 108.989C38.7834 109.864 38.8783 110.828 38.6934 111.757C38.5085 112.687 38.0521 113.541 37.3819 114.211C36.7117 114.881 35.8578 115.338 34.9282 115.523C33.9986 115.707 33.0351 115.613 32.1595 115.25C31.2838 114.887 30.5354 114.273 30.0088 113.485C29.4822 112.697 29.2012 111.77 29.2012 110.822C29.2014 109.552 29.7063 108.333 30.605 107.434C31.5036 106.535 32.7224 106.03 33.9933 106.03Z" fill="#107C18"/>
</svg>
