<svg width="180" height="180" viewBox="0 0 180 180" fill="none" xmlns="http://www.w3.org/2000/svg">
<path d="M48.3094 24.2539H12.0498V156.038H48.3094V24.2539Z" fill="#EDEBE9"/>
<path d="M67.784 24.2539H52.6758V156.038H67.784V24.2539Z" fill="#EDEBE9"/>
<path d="M127.526 24.2539H112.418V156.038H127.526V24.2539Z" fill="#EDEBE9"/>
<path d="M108.053 24.2539H71.793V156.038H108.053V24.2539Z" fill="#EDEBE9"/>
<path d="M167.796 24.2539H131.536V156.038H167.796V24.2539Z" fill="#EDEBE9"/>
<path d="M48.3094 43.4229H12.0498V136.87H48.3094V43.4229Z" fill="#0078D4"/>
<path d="M52.501 43.4229L67.6092 66.0357V114.407L52.501 137.269V43.4229Z" fill="#107C10"/>
<path d="M112.244 66.584L127.352 79.6631V100.629L112.244 114.107V66.584Z" fill="#1C0303"/>
<path d="M108.053 66.1855H71.793V114.107H108.053V66.1855Z" fill="#FFB900"/>
<path d="M167.796 79.9629H131.536V100.33H167.796V79.9629Z" fill="#D83B01"/>
</svg>
