<svg width="180" height="180" viewBox="0 0 180 180" fill="none" xmlns="http://www.w3.org/2000/svg">
<path d="M32.2959 41.8398H102.314L90.3118 103.859L32.2959 41.8398Z" fill="#0078D4"/>
<path d="M102.314 41.8398H131.434L90.3105 104.296L102.314 41.8398Z" fill="#FFB900"/>
<path d="M131.435 41.8398L90.3115 104.078L147.66 41.8398H131.435Z" fill="#107C10"/>
<path d="M32.2959 155.397H71.8615L90.3111 93.9814L32.2959 155.397Z" fill="#0078D4"/>
<path d="M71.6387 155.397H117.651L90.31 93.5488L71.6387 155.397Z" fill="#FFB900"/>
<path d="M117.652 155.396L90.3115 93.7646L147.66 155.396H117.652Z" fill="#107C10"/>
<path d="M98.308 92.7695H83.7695V104.539H98.308V92.7695Z" fill="#FFB900"/>
<path d="M106.615 92.7695H97.6152V104.539H106.615V92.7695Z" fill="#107C10"/>
<path d="M85.1541 92.7695H74.0771V104.539H85.1541V92.7695Z" fill="#0078D4"/>
<path d="M68.5379 29.7695H67.1533V40.8465H68.5379V29.7695Z" fill="#1C0303"/>
<path d="M117 29.7695H115.615V40.8465H117V29.7695Z" fill="#1C0303"/>
<path d="M140.538 29.7695H139.153V40.8465H140.538V29.7695Z" fill="#1C0303"/>
<path d="M75.4613 24.9229H60.9229V26.9998H75.4613V24.9229Z" fill="#1C0303"/>
<path d="M124.616 24.9229H110.077V26.9998H124.616V24.9229Z" fill="#1C0303"/>
<path d="M147.461 24.9229H133.615V26.9998H147.461V24.9229Z" fill="#1C0303"/>
</svg>
