<svg width="180" height="180" viewBox="0 0 180 180" fill="none" xmlns="http://www.w3.org/2000/svg">
<mask id="mask0_1322_4250" style="mask-type:luminance" maskUnits="userSpaceOnUse" x="18" y="8" width="145" height="145">
<path d="M162.347 8.6543H18.3467V152.654H162.347V8.6543Z" fill="white"/>
</mask>
<g mask="url(#mask0_1322_4250)">
<path d="M50.5454 -27.1709L34.7275 25.8799L59.877 59.5469L68.1847 106.267L124.608 123.552L157.528 138.353L165.715 183.945" stroke="#1C0303" stroke-width="3"/>
<path d="M61.3555 59.9159L97.9834 26.2594L136.764 -20.5254" stroke="#1C0303" stroke-width="3"/>
<path d="M124.973 123.922L144.215 82.8677L193.467 75.1533" stroke="#1C0303" stroke-width="3"/>
<path d="M68.1074 107.422L35.8223 130.199L-7.8291 135.369" stroke="#1C0303" stroke-width="3"/>
<path d="M37.3506 128.231L45.0636 168.301" stroke="#1C0303" stroke-width="3"/>
<path d="M36.5001 22.0014C37.4012 22.2429 38.2105 22.7462 38.8256 23.4476C39.4406 24.1491 39.8339 25.0171 39.9556 25.9421C40.0773 26.867 39.922 27.8073 39.5093 28.6439C39.0965 29.4806 38.445 30.1761 37.637 30.6424C36.829 31.1088 35.9009 31.3251 34.97 31.2639C34.0391 31.2028 33.1472 30.8669 32.4072 30.2989C31.6672 29.7308 31.1122 28.9561 30.8125 28.0726C30.5128 27.1892 30.4818 26.2367 30.7235 25.3356C31.0476 24.1276 31.8383 23.0978 32.9215 22.4725C34.0048 21.8473 35.292 21.6779 36.5001 22.0014Z" fill="#D83B01"/>
<path d="M160.853 137.81C160.979 138.706 160.836 139.619 160.443 140.434C160.05 141.249 159.424 141.929 158.644 142.388C157.865 142.847 156.966 143.065 156.063 143.013C155.16 142.962 154.292 142.644 153.569 142.099C152.847 141.555 152.302 140.808 152.004 139.954C151.705 139.099 151.667 138.176 151.894 137.3C152.12 136.424 152.602 135.635 153.277 135.033C153.952 134.43 154.79 134.041 155.686 133.916C156.281 133.832 156.887 133.866 157.469 134.017C158.05 134.167 158.597 134.431 159.076 134.793C159.556 135.154 159.96 135.607 160.265 136.124C160.57 136.642 160.77 137.215 160.853 137.81Z" fill="#FFB900"/>
<path d="M63.1865 46.7441C65.3447 47.3712 67.2699 48.6214 68.7205 50.3381C70.1711 52.0548 71.0826 54.1615 71.3409 56.3941C71.5991 58.6267 71.1925 60.8858 70.172 62.8883C69.1516 64.8908 67.5627 66.5475 65.6046 67.6506C63.6464 68.7538 61.4062 69.2544 59.1648 69.0896C56.9233 68.9248 54.7804 68.102 53.0047 66.7244C51.2289 65.3467 49.8994 63.4755 49.1828 61.3453C48.4661 59.2151 48.3943 56.9208 48.9762 54.7499C49.7993 51.8041 51.7587 49.3058 54.4236 47.8045C57.0884 46.3031 60.2405 45.9217 63.1865 46.7441Z" fill="#D83B01"/>
<path d="M98.0479 20.8964C99.1874 21.143 100.227 21.7254 101.032 22.5685C101.837 23.4116 102.372 24.4766 102.566 25.6262C102.76 26.7757 102.605 27.9571 102.121 29.0179C101.638 30.0787 100.847 30.9702 99.8521 31.5775C98.8568 32.1847 97.7025 32.4797 96.5379 32.4246C95.3733 32.3694 94.252 31.9666 93.3186 31.268C92.3852 30.5695 91.6825 29.6072 91.3012 28.5055C90.92 27.4037 90.8776 26.213 91.1795 25.0869C91.5355 23.6209 92.4588 22.3562 93.7466 21.5704C95.0344 20.7847 96.5815 20.5423 98.0479 20.8964Z" fill="#D83B01"/>
<path d="M137.411 121.233C137.747 123.625 137.366 126.063 136.316 128.239C135.266 130.415 133.595 132.231 131.514 133.457C129.432 134.683 127.034 135.264 124.622 135.127C122.21 134.99 119.893 134.14 117.963 132.686C116.034 131.232 114.579 129.239 113.783 126.958C112.987 124.677 112.885 122.212 113.49 119.873C114.095 117.534 115.38 115.427 117.183 113.819C118.985 112.21 121.224 111.172 123.616 110.837C126.824 110.386 130.08 111.228 132.667 113.178C135.253 115.128 136.96 118.025 137.411 121.233Z" fill="#FFB900"/>
<path d="M150.409 81.6012C150.58 82.8235 150.386 84.0692 149.849 85.1808C149.313 86.2924 148.459 87.22 147.395 87.8463C146.332 88.4726 145.106 88.7695 143.874 88.6994C142.642 88.6292 141.458 88.1953 140.473 87.4524C139.487 86.7095 138.744 85.691 138.337 84.5257C137.93 83.3605 137.878 82.1007 138.187 80.9058C138.496 79.7109 139.153 78.6346 140.074 77.8128C140.995 76.991 142.139 76.4608 143.361 76.2892C144.172 76.1752 144.998 76.2222 145.792 76.4275C146.585 76.6327 147.33 76.9923 147.985 77.4855C148.639 77.9788 149.19 78.5962 149.606 79.3023C150.022 80.0085 150.295 80.7897 150.409 81.6012Z" fill="#FFB900"/>
<path d="M73.2962 87.2393C77.0338 88.2976 80.3752 90.4374 82.9001 93.3895C85.425 96.3417 87.0208 99.9744 87.4869 103.831C87.9529 107.688 87.2683 111.596 85.5193 115.064C83.7702 118.533 81.0347 121.407 77.6567 123.325C74.2787 125.244 70.409 126.12 66.5341 125.845C62.6592 125.57 58.9521 124.156 55.8789 121.78C52.8057 119.404 50.5036 116.172 49.2619 112.491C48.0203 108.81 47.8946 104.844 48.9006 101.092C50.299 96.0205 53.6546 91.7117 58.2296 89.1138C62.8046 86.5159 68.2241 85.8416 73.2962 87.2393Z" fill="#0078D4"/>
<path d="M38.9507 122.302C40.2531 122.705 41.4083 123.482 42.2724 124.536C43.1366 125.591 43.6715 126.876 43.8107 128.232C43.9499 129.588 43.6871 130.955 43.0551 132.163C42.4232 133.371 41.4499 134.366 40.2564 135.025C39.063 135.684 37.7021 135.977 36.3432 135.869C34.9843 135.76 33.6874 135.254 32.614 134.414C31.5405 133.573 30.7379 132.436 30.3061 131.143C29.8743 129.85 29.8323 128.458 30.1854 127.141C30.7068 125.338 31.9228 123.815 33.5664 122.908C35.21 122 37.1466 121.782 38.9507 122.302Z" fill="#107C10"/>
</g>
</svg>
