<svg width="180" height="180" viewBox="0 0 180 180" fill="none" xmlns="http://www.w3.org/2000/svg">
<mask id="mask0_1322_4291" style="mask-type:luminance" maskUnits="userSpaceOnUse" x="0" y="0" width="180" height="180">
<path d="M180 0H0V180H180V0Z" fill="white"/>
</mask>
<g mask="url(#mask0_1322_4291)">
<path d="M12.2578 125.859H168.55" stroke="#1C0303" stroke-width="2"/>
<path d="M40.861 66.6113H19.4092V125.859H40.861V66.6113Z" fill="#FFB900"/>
<path d="M120.539 91.1279H99.0869V125.86H120.539V91.1279Z" fill="#FFB900"/>
<path d="M80.6999 54.3525H59.248V125.859H80.6999V54.3525Z" fill="#0078D4"/>
<path d="M160.378 126.881H138.926V155.484H160.378V126.881Z" fill="#D83B01"/>
<mask id="mask1_1322_4291" style="mask-type:luminance" maskUnits="userSpaceOnUse" x="-4" y="0" width="180" height="180">
<path d="M176 0H-4V180H176V0Z" fill="white"/>
</mask>
<g mask="url(#mask1_1322_4291)">
<path d="M30.0844 47.0254C30.7964 47.0254 31.4924 47.2365 32.0844 47.6321C32.6764 48.0277 33.1379 48.5899 33.4103 49.2477C33.6828 49.9055 33.7541 50.6294 33.6152 51.3277C33.4763 52.026 33.1334 52.6675 32.63 53.171C32.1265 53.6744 31.485 54.0173 30.7867 54.1562C30.0884 54.2951 29.3645 54.2238 28.7067 53.9514C28.0489 53.6789 27.4867 53.2175 27.0911 52.6254C26.6955 52.0334 26.4844 51.3374 26.4844 50.6254C26.4844 49.6706 26.8637 48.7549 27.5388 48.0798C28.2139 47.4047 29.1296 47.0254 30.0844 47.0254Z" fill="#1C0303"/>
<path d="M109.906 61.4297C110.618 61.4297 111.314 61.6408 111.906 62.0364C112.498 62.432 112.959 62.9942 113.232 63.652C113.504 64.3098 113.575 65.0337 113.436 65.732C113.298 66.4303 112.955 67.0718 112.451 67.5753C111.948 68.0787 111.306 68.4216 110.608 68.5605C109.91 68.6994 109.186 68.6281 108.528 68.3557C107.87 68.0832 107.308 67.6218 106.912 67.0297C106.517 66.4377 106.306 65.7417 106.306 65.0297C106.306 64.0749 106.685 63.1592 107.36 62.4841C108.035 61.809 108.951 61.4297 109.906 61.4297Z" fill="#1C0303"/>
<path d="M150.117 72.833C150.829 72.833 151.525 73.0441 152.117 73.4397C152.709 73.8353 153.17 74.3975 153.443 75.0553C153.715 75.7132 153.786 76.437 153.647 77.1353C153.509 77.8337 153.166 78.4751 152.662 78.9786C152.159 79.4821 151.517 79.8249 150.819 79.9638C150.121 80.1027 149.397 80.0315 148.739 79.759C148.081 79.4865 147.519 79.0251 147.123 78.4331C146.728 77.841 146.517 77.145 146.517 76.433C146.517 75.4782 146.896 74.5626 147.571 73.8874C148.246 73.2123 149.162 72.833 150.117 72.833Z" fill="#1C0303"/>
<path d="M70.2953 76.4336C71.0073 76.4336 71.7033 76.6447 72.2954 77.0403C72.8874 77.4359 73.3488 77.9981 73.6213 78.6559C73.8938 79.3138 73.965 80.0376 73.8261 80.7359C73.6872 81.4342 73.3444 82.0757 72.8409 82.5792C72.3374 83.0826 71.696 83.4255 70.9976 83.5644C70.2993 83.7033 69.5755 83.632 68.9177 83.3596C68.2598 83.0871 67.6976 82.6257 67.302 82.0336C66.9064 81.4416 66.6953 80.7456 66.6953 80.0336C66.6953 79.0788 67.0746 78.1631 67.7497 77.488C68.4249 76.8129 69.3405 76.4336 70.2953 76.4336Z" fill="#1C0303"/>
<path d="M29.4834 50.627L70.2942 80.2349L109.703 65.0311L150.514 76.8343" stroke="#1C0303" stroke-width="2"/>
<g opacity="0.3">
<mask id="mask2_1322_4291" style="mask-type:luminance" maskUnits="userSpaceOnUse" x="12" y="24" width="157" height="2">
<path d="M168.55 24.7295H12.2578V25.7513H168.55V24.7295Z" fill="white"/>
</mask>
<g mask="url(#mask2_1322_4291)">
<path d="M12.2578 24.7295H168.55" stroke="#1C0303" stroke-width="2" stroke-dasharray="8 8"/>
</g>
</g>
</g>
</g>
</svg>
