<svg width="180" height="180" viewBox="0 0 180 180" fill="none" xmlns="http://www.w3.org/2000/svg">
<path d="M63.0004 16.6152H12.4619V40.846H63.0004V16.6152Z" fill="#1C0303"/>
<path d="M167.538 16.6152H69.9229V40.846H167.538V16.6152Z" fill="#1C0303"/>
<path d="M12.4619 82.3848H167.539" stroke="#978989" stroke-width="2"/>
<path d="M12.4619 122.538H167.539" stroke="#978989" stroke-width="2"/>
<path d="M12.4619 163.385H167.539" stroke="#978989" stroke-width="2"/>
<path d="M55.385 58.8457H12.4619V64.3842H55.385V58.8457Z" fill="#C8C6C4"/>
<path d="M108.692 58.8457H69.9229V64.3842H108.692V58.8457Z" fill="#C8C6C4"/>
<path d="M45.6927 99.6924H12.4619V105.231H45.6927V99.6924Z" fill="#C8C6C4"/>
<path d="M117 99.6924H69.9229V105.231H117V99.6924Z" fill="#C8C6C4"/>
<path d="M47.0773 139.846H12.4619V144.692H47.0773V139.846Z" fill="#C8C6C4"/>
<path d="M112.154 139.846H69.9229V144.692H112.154V139.846Z" fill="#C8C6C4"/>
<path d="M136.998 71.6243L152.534 56.1H138.3L138.312 52.5H158.7V72.9002H155.1L155.087 58.6512L139.551 74.1755L136.998 71.6243Z" fill="#107C10"/>
<path d="M136.998 71.6243L152.534 56.1H138.3L138.312 52.5H158.7V72.9002H155.1L155.087 58.6512L139.551 74.1755L136.998 71.6243Z" fill="white" stroke="#107C10" stroke-width="3"/>
<path d="M139.576 130.998L155.1 146.534V132.3L158.7 132.312V152.699H138.301V149.099L152.55 149.087L137.025 133.551L139.576 130.998Z" fill="#D83B01"/>
<path d="M139.576 130.998L155.1 146.534V132.3L158.7 132.312V152.699H138.301V149.099L152.55 149.087L137.025 133.551L139.576 130.998Z" fill="white" stroke="#D83B01" stroke-width="3"/>
<path d="M136.998 111.224L152.534 95.6996H138.3L138.312 92.0996H158.7V112.5H155.1L155.087 98.2508L139.551 113.775L136.998 111.224Z" fill="#107C10"/>
<path d="M136.998 111.224L152.534 95.6996H138.3L138.312 92.0996H158.7V112.5H155.1L155.087 98.2508L139.551 113.775L136.998 111.224Z" fill="white" stroke="#107C10" stroke-width="3"/>
</svg>
