<svg width="180" height="180" viewBox="0 0 180 180" fill="none" xmlns="http://www.w3.org/2000/svg">
<path d="M168.231 12.4619H12.4619V60.2311H168.231V12.4619Z" fill="#E6E6E6"/>
<path d="M168.231 66.1152H12.4619V113.884H168.231V66.1152Z" fill="#E6E6E6"/>
<path d="M168.231 120.462H12.4619V168.231H168.231V120.462Z" fill="#E6E6E6"/>
<path d="M69.2308 18.6924H18.6924V22.1539H69.2308V18.6924Z" fill="#C8C6C4"/>
<path d="M69.2308 72.9785H18.6924V76.4401H69.2308V72.9785Z" fill="#C8C6C4"/>
<path d="M69.2308 126.496H18.6924V129.958H69.2308V126.496Z" fill="#C8C6C4"/>
<path d="M40.1539 44.4824H18.6924V47.944H40.1539V44.4824Z" fill="#0078D4"/>
<path d="M40.1539 98.6943H18.6924V102.156H40.1539V98.6943Z" fill="#0078D4"/>
<path d="M40.1539 152.308H18.6924V156.461H40.1539V152.308Z" fill="#0078D4"/>
<path d="M112.556 44.4824H93.1709V47.944H112.556V44.4824Z" fill="#107C10"/>
<path d="M112.556 98.6943H93.1709V102.156H112.556V98.6943Z" fill="#107C10"/>
<path d="M112.556 152.308H93.1709V156.461H112.556V152.308Z" fill="#D83B01"/>
<path d="M160.615 44.4824H117.692V47.944H160.615V44.4824Z" fill="#107C10"/>
<path d="M160.615 98.6943H117.692V102.156H160.615V98.6943Z" fill="#107C10"/>
<path d="M160.615 152.308H117.692V156.461H160.615V152.308Z" fill="#D83B01"/>
<path d="M71.8203 92.8232L83.7522 106.311H59.8877L71.8203 92.8232Z" fill="#107C10"/>
<path d="M71.8203 40.7021L83.7522 54.1904H59.8877L71.8203 40.7021Z" fill="#107C10"/>
<path d="M71.8203 161.271L59.8877 147.783H83.7515L71.8203 161.271Z" fill="#D83B01"/>
</svg>
