<svg width="180" height="180" viewBox="0 0 180 180" fill="none" xmlns="http://www.w3.org/2000/svg">
<path d="M168.231 38.7695H11.7695V48.4618H168.231V38.7695Z" fill="#EDEBE9"/>
<path d="M129.462 38.7695H11.7695V48.4618H129.462V38.7695Z" fill="#107C10"/>
<path d="M65.0772 29.7695H11.7695V33.2311H65.0772V29.7695Z" fill="#978989"/>
<path d="M130.154 38.7695H128.077V48.4618H130.154V38.7695Z" fill="#711C1C"/>
<path d="M168.231 90H11.7695V99.6923H168.231V90Z" fill="#EDEBE9"/>
<path d="M78.9234 90H11.7695V99.6923H78.9234V90Z" fill="#0078D4"/>
<path d="M45.0003 81H11.7695V83.7692H45.0003V81Z" fill="#978989"/>
<path d="M110.769 90H109.385V99.6923H110.769V90Z" fill="#711C1C"/>
<path d="M168.231 141.23H11.7695V150.923H168.231V141.23Z" fill="#EDEBE9"/>
<path d="M143.308 141.23H11.7695V150.923H143.308V141.23Z" fill="#FFB900"/>
<path d="M90.0003 132.23H11.7695V135H90.0003V132.23Z" fill="#978989"/>
<path d="M96.2312 141.23H94.1543V150.923H96.2312V141.23Z" fill="#711C1C"/>
</svg>
