<svg width="180" height="180" viewBox="0 0 180 180" fill="none" xmlns="http://www.w3.org/2000/svg">
<path d="M28.7881 115.825V79.8398H151.139V160.009" stroke="#1C0303" stroke-width="3"/>
<path d="M22.1904 156.009V142.414H101.358V156.009" stroke="#1C0303" stroke-width="3"/>
<path d="M26.9996 151.615H17.3073C15.7779 151.615 14.5381 152.855 14.5381 154.384V164.769C14.5381 166.298 15.7779 167.538 17.3073 167.538H26.9996C28.529 167.538 29.7689 166.298 29.7689 164.769V154.384C29.7689 152.855 28.529 151.615 26.9996 151.615Z" fill="#0078D4"/>
<path d="M106.615 151.615H96.2302C94.7008 151.615 93.4609 152.855 93.4609 154.384V164.769C93.4609 166.298 94.7008 167.538 96.2302 167.538H106.615C108.144 167.538 109.384 166.298 109.384 164.769V154.384C109.384 152.855 108.144 151.615 106.615 151.615Z" fill="#0078D4"/>
<path d="M156.461 151.615H146.077C144.547 151.615 143.308 152.855 143.308 154.384V164.769C143.308 166.298 144.547 167.538 146.077 167.538H156.461C157.991 167.538 159.231 166.298 159.231 164.769V154.384C159.231 152.855 157.991 151.615 156.461 151.615Z" fill="#D83B01"/>
<path d="M162.692 101.77H139.845C138.316 101.77 137.076 103.009 137.076 104.539V127.385C137.076 128.914 138.316 130.154 139.845 130.154H162.692C164.221 130.154 165.461 128.914 165.461 127.385V104.539C165.461 103.009 164.221 101.77 162.692 101.77Z" fill="#D83B01"/>
<path d="M90.2627 48.9531V116.126" stroke="#1C0303" stroke-width="3"/>
<path d="M108.692 16.6152H71.3073C69.7779 16.6152 68.5381 17.8551 68.5381 19.3845V57.4614C68.5381 58.9908 69.7779 60.2306 71.3073 60.2306H108.692C110.221 60.2306 111.461 58.9908 111.461 57.4614V19.3845C111.461 17.8551 110.221 16.6152 108.692 16.6152Z" fill="#FFB900"/>
<path d="M101.77 101.77H78.2311C76.7017 101.77 75.4619 103.009 75.4619 104.539V127.385C75.4619 128.914 76.7017 130.154 78.2311 130.154H101.77C103.299 130.154 104.539 128.914 104.539 127.385V104.539C104.539 103.009 103.299 101.77 101.77 101.77Z" fill="#107C10"/>
<path d="M29.0879 119.125V142.515" stroke="#1C0303" stroke-width="3"/>
<path d="M62.0752 142.515V161.107" stroke="#1C0303" stroke-width="3"/>
<path d="M40.1535 101.77H17.3073C15.7779 101.77 14.5381 103.009 14.5381 104.539V127.385C14.5381 128.914 15.7779 130.154 17.3073 130.154H40.1535C41.6829 130.154 42.9227 128.914 42.9227 127.385V104.539C42.9227 103.009 41.6829 101.77 40.1535 101.77Z" fill="#0078D4"/>
<path d="M66.4615 151.615H56.7692C55.2398 151.615 54 152.855 54 154.384V164.769C54 166.298 55.2398 167.538 56.7692 167.538H66.4615C67.9909 167.538 69.2308 166.298 69.2308 164.769V154.384C69.2308 152.855 67.9909 151.615 66.4615 151.615Z" fill="#0078D4"/>
</svg>
