<svg width="180" height="180" viewBox="0 0 180 180" fill="none" xmlns="http://www.w3.org/2000/svg">
<mask id="mask0_1322_4499" style="mask-type:luminance" maskUnits="userSpaceOnUse" x="18" y="18" width="144" height="144">
<path d="M161.41 18.3457H18.3467V161.559H161.41V18.3457Z" fill="white"/>
</mask>
<g mask="url(#mask0_1322_4499)">
<path d="M45.9524 100.543C46.9383 100.543 47.902 100.835 48.7217 101.383C49.5414 101.931 50.1803 102.709 50.5576 103.62C50.9348 104.531 51.0336 105.533 50.8412 106.5C50.6489 107.467 50.1742 108.355 49.477 109.052C48.7799 109.749 47.8918 110.224 46.9248 110.416C45.9579 110.609 44.9557 110.51 44.0449 110.133C43.134 109.755 42.3555 109.117 41.8078 108.297C41.2601 107.477 40.9678 106.513 40.9678 105.528C40.9678 104.206 41.4929 102.938 42.4277 102.003C43.3625 101.068 44.6304 100.543 45.9524 100.543Z" fill="#D83B01"/>
<path d="M50.4244 61.9551C51.0841 61.9551 51.729 62.1507 52.2775 62.5172C52.8261 62.8837 53.2536 63.4047 53.506 64.0142C53.7585 64.6237 53.8246 65.2943 53.6959 65.9414C53.5671 66.5884 53.2495 67.1827 52.783 67.6492C52.3165 68.1157 51.7222 68.4334 51.0751 68.5621C50.4281 68.6908 49.7574 68.6247 49.148 68.3723C48.5385 68.1198 48.0175 67.6923 47.651 67.1437C47.2845 66.5952 47.0889 65.9503 47.0889 65.2906C47.0889 64.406 47.4403 63.5576 48.0658 62.932C48.6914 62.3065 49.5398 61.9551 50.4244 61.9551Z" fill="#FFB900"/>
<path d="M103.798 98.8213C104.458 98.8213 105.103 99.0169 105.652 99.3834C106.2 99.7499 106.628 100.271 106.88 100.88C107.133 101.49 107.199 102.161 107.07 102.808C106.941 103.455 106.624 104.049 106.157 104.515C105.691 104.982 105.096 105.3 104.449 105.428C103.802 105.557 103.131 105.491 102.522 105.238C101.912 104.986 101.392 104.558 101.025 104.01C100.659 103.461 100.463 102.817 100.463 102.157C100.463 101.272 100.814 100.424 101.44 99.7982C102.065 99.1727 102.914 98.8213 103.798 98.8213Z" fill="#0078D4"/>
<path d="M139.014 148.893C139.674 148.893 140.319 149.088 140.867 149.455C141.416 149.821 141.843 150.342 142.096 150.952C142.348 151.561 142.414 152.232 142.286 152.879C142.157 153.526 141.839 154.12 141.373 154.587C140.906 155.053 140.312 155.371 139.665 155.5C139.018 155.628 138.347 155.562 137.738 155.31C137.128 155.057 136.607 154.63 136.241 154.081C135.874 153.533 135.679 152.888 135.679 152.228C135.679 151.343 136.03 150.495 136.656 149.87C137.281 149.244 138.13 148.893 139.014 148.893Z" fill="#0078D4"/>
<path d="M148.918 47.6484C149.577 47.6484 150.222 47.8441 150.771 48.2106C151.319 48.5771 151.747 49.098 151.999 49.7075C152.252 50.317 152.318 50.9877 152.189 51.6347C152.06 52.2817 151.743 52.8761 151.276 53.3426C150.81 53.809 150.215 54.1267 149.568 54.2554C148.921 54.3841 148.251 54.3181 147.641 54.0656C147.032 53.8132 146.511 53.3856 146.144 52.8371C145.778 52.2886 145.582 51.6437 145.582 50.984C145.582 50.5459 145.668 50.1122 145.836 49.7075C146.004 49.3028 146.249 48.9351 146.559 48.6254C146.869 48.3157 147.236 48.07 147.641 47.9023C148.046 47.7347 148.48 47.6484 148.918 47.6484Z" fill="#107C10"/>
<path d="M70.2699 39.5566C71.9089 39.5572 73.5109 40.0437 74.8735 40.9547C76.236 41.8657 77.2978 43.1602 77.9247 44.6746C78.5515 46.1891 78.7152 47.8553 78.3951 49.4628C78.075 51.0702 77.2855 52.5467 76.1264 53.7055C74.9672 54.8642 73.4905 55.6533 71.8829 55.9728C70.2754 56.2924 68.6091 56.1281 67.0949 55.5007C65.5807 54.8734 64.2865 53.8112 63.376 52.4483C62.4655 51.0855 61.9795 49.4833 61.9795 47.8443C61.9795 46.7557 62.1939 45.6778 62.6106 44.6721C63.0273 43.6664 63.638 42.7527 64.4079 41.983C65.1777 41.2134 66.0917 40.603 67.0975 40.1867C68.1033 39.7704 69.1813 39.5563 70.2699 39.5566Z" fill="#FFB900"/>
<path d="M71.3714 102.284C73.0105 102.285 74.6125 102.771 75.975 103.682C77.3376 104.593 78.3994 105.888 79.0262 107.402C79.6531 108.917 79.8168 110.583 79.4967 112.19C79.1766 113.798 78.3871 115.274 77.2279 116.433C76.0688 117.592 74.592 118.381 72.9845 118.7C71.3769 119.02 69.7107 118.856 68.1965 118.228C66.6823 117.601 65.3881 116.539 64.4776 115.176C63.567 113.813 63.0811 112.211 63.0811 110.572C63.0811 108.374 63.9542 106.266 65.5084 104.712C67.0627 103.157 69.1707 102.284 71.3687 102.284" fill="#D83B01"/>
<path d="M108.788 37.9053C110.427 37.9058 112.029 38.3923 113.392 39.3033C114.755 40.2143 115.816 41.5089 116.443 43.0233C117.07 44.5377 117.234 46.204 116.914 47.8114C116.594 49.4189 115.804 50.8953 114.645 52.0541C113.486 53.2129 112.009 54.0019 110.401 54.3215C108.794 54.641 107.128 54.4767 105.613 53.8494C104.099 53.222 102.805 52.1598 101.895 50.797C100.984 49.4341 100.498 47.8319 100.498 46.1929C100.498 43.9949 101.371 41.8869 102.925 40.3327C104.48 38.7784 106.588 37.9053 108.786 37.9053" fill="#107C10"/>
<path d="M124.34 99.1006C127.285 99.1006 130.164 99.9739 132.613 101.61C135.062 103.246 136.97 105.572 138.097 108.293C139.224 111.014 139.519 114.008 138.945 116.896C138.37 119.785 136.952 122.438 134.869 124.521C132.787 126.603 130.134 128.022 127.245 128.596C124.357 129.171 121.363 128.876 118.642 127.749C115.921 126.622 113.595 124.713 111.959 122.264C110.323 119.816 109.449 116.937 109.449 113.991C109.449 110.042 111.018 106.255 113.811 103.462C116.603 100.669 120.391 99.1006 124.34 99.1006Z" fill="#0078D4"/>
<path d="M36.598 18.3457C40.1962 18.3456 43.7136 19.4124 46.7054 21.4113C49.6972 23.4103 52.0291 26.2515 53.4062 29.5757C54.7832 32.9 55.1436 36.5579 54.4417 40.0869C53.7398 43.6159 52.0072 46.8576 49.463 49.4019C46.9187 51.9463 43.6771 53.679 40.1481 54.381C36.6191 55.083 32.9612 54.7228 29.6369 53.3459C26.3126 51.9689 23.4713 49.6372 21.4723 46.6454C19.4732 43.6537 18.4063 40.1363 18.4063 36.5382C18.4062 34.1491 18.8766 31.7835 19.7908 29.5763C20.705 27.3691 22.045 25.3635 23.7343 23.6742C25.4235 21.9849 27.429 20.6448 29.6362 19.7305C31.8433 18.8163 34.209 18.3457 36.598 18.3457Z" fill="#FFB900"/>
<path d="M58.6079 125.643C61.2264 125.643 63.7862 126.419 65.9634 127.874C68.1407 129.329 69.8377 131.396 70.8397 133.816C71.8418 136.235 72.104 138.897 71.5932 141.465C71.0823 144.033 69.8213 146.393 67.9697 148.244C66.1181 150.096 63.759 151.357 61.1908 151.868C58.6225 152.378 55.9605 152.116 53.5412 151.114C51.122 150.112 49.0542 148.415 47.5995 146.238C46.1447 144.061 45.3682 141.501 45.3682 138.882C45.3682 135.371 46.7631 132.003 49.246 129.52C51.7289 127.037 55.0965 125.643 58.6079 125.643Z" fill="#D83B01"/>
<path d="M131.463 68.7197C132.449 68.7197 133.413 69.0121 134.232 69.5598C135.052 70.1075 135.691 70.886 136.068 71.7968C136.446 72.7076 136.544 73.7099 136.352 74.6768C136.16 75.6437 135.685 76.5319 134.988 77.229C134.291 77.9261 133.402 78.4008 132.436 78.5932C131.469 78.7855 130.466 78.6868 129.556 78.3095C128.645 77.9323 127.866 77.2934 127.319 76.4736C126.771 75.6539 126.479 74.6902 126.479 73.7043C126.479 72.3823 127.004 71.1145 127.938 70.1797C128.873 69.2449 130.141 68.7197 131.463 68.7197Z" fill="#107C10"/>
<path d="M123.209 133.648C124.195 133.648 125.159 133.941 125.979 134.488C126.798 135.036 127.437 135.815 127.814 136.726C128.192 137.636 128.29 138.639 128.098 139.605C127.906 140.572 127.431 141.461 126.734 142.158C126.037 142.855 125.149 143.33 124.182 143.522C123.215 143.714 122.213 143.616 121.302 143.238C120.391 142.861 119.612 142.222 119.065 141.402C118.517 140.583 118.225 139.619 118.225 138.633C118.225 137.311 118.75 136.043 119.685 135.108C120.619 134.174 121.887 133.648 123.209 133.648Z" fill="#0078D4"/>
<path d="M90.1533 18.4951V161.558" stroke="#1C0303" stroke-width="3" stroke-miterlimit="10" stroke-dasharray="8 8"/>
<path d="M18.3467 90.3018H161.41" stroke="#1C0303" stroke-width="3" stroke-miterlimit="10" stroke-dasharray="8 8"/>
</g>
</svg>
