<svg width="180" height="180" viewBox="0 0 180 180" fill="none" xmlns="http://www.w3.org/2000/svg">
<mask id="mask0_1322_4546" style="mask-type:luminance" maskUnits="userSpaceOnUse" x="17" y="17" width="147" height="147">
<path d="M163.385 17.3076H17.3076V163.385H163.385V17.3076Z" fill="white"/>
</mask>
<g mask="url(#mask0_1322_4546)">
<mask id="mask1_1322_4546" style="mask-type:luminance" maskUnits="userSpaceOnUse" x="17" y="17" width="147" height="147">
<path d="M163.385 17.3076H17.3076V163.385H163.385V17.3076Z" fill="white"/>
</mask>
<g mask="url(#mask1_1322_4546)">
<g opacity="0.56">
<mask id="mask2_1322_4546" style="mask-type:luminance" maskUnits="userSpaceOnUse" x="17" y="17" width="147" height="147">
<path d="M163.385 17.3076H17.3076V163.385H163.385V17.3076Z" fill="white"/>
</mask>
<g mask="url(#mask2_1322_4546)">
<mask id="mask3_1322_4546" style="mask-type:luminance" maskUnits="userSpaceOnUse" x="17" y="17" width="147" height="147">
<path d="M163.385 17.3076H17.3076V163.385H163.385V17.3076Z" fill="white"/>
</mask>
<g mask="url(#mask3_1322_4546)">
<path d="M163.116 90.4932C163.116 104.857 158.857 118.898 150.877 130.84C142.897 142.783 131.555 152.091 118.285 157.588C105.015 163.085 90.4127 164.523 76.3252 161.721C62.2377 158.919 49.2975 152.002 39.141 141.845C28.9844 131.689 22.0678 118.749 19.2656 104.661C16.4634 90.5738 17.9016 75.9717 23.3983 62.7015C28.8949 49.4314 38.2032 38.0892 50.146 30.1093C62.0888 22.1294 76.1297 17.8701 90.4932 17.8701C109.754 17.8701 128.226 25.5215 141.845 39.1409C155.465 52.7604 163.116 71.2324 163.116 90.4932Z" fill="#EDEBE9"/>
</g>
</g>
</g>
</g>
<path d="M91.0283 19.3555H89.6631V90.3461H91.0283V19.3555Z" fill="#978989"/>
<path d="M22.8486 68.8496L23.2337 67.6645L90.8788 89.6438L90.4937 90.8289L22.8486 68.8496Z" fill="#978989"/>
<path d="M48.0303 147.687L89.8623 90.1319L90.8704 90.8646L49.0384 148.419L48.0303 147.687Z" fill="#978989"/>
<path d="M90.0527 90.8682L91.0609 90.1354L132.893 147.69L131.885 148.423L90.0527 90.8682Z" fill="#978989"/>
<path d="M90.3447 89.9746L157.998 67.9928L158.383 69.178L90.7298 91.1598L90.3447 89.9746Z" fill="#978989"/>
<path d="M59.3556 132.995L43.2041 75.1447L90.2291 18.75L146.539 72.9639L120.727 132.156L59.3556 132.995ZM50.528 76.9454L64.37 126.524L116.362 125.808L138.621 74.7674L90.7601 28.6943L50.528 76.9454Z" fill="#0078D4"/>
<path d="M68.3717 123.269L28.1562 70.3672L91.9386 38.9482L115.2 83.6872L103.814 107.849L68.3717 123.269ZM38.3041 72.7599L70.5006 115.112L98.8783 102.765L107.799 83.8306L89.0496 47.7613L38.3041 72.7599Z" fill="#FFB900"/>
</g>
</svg>
