<svg width="180" height="180" viewBox="0 0 180 180" fill="none" xmlns="http://www.w3.org/2000/svg">
<path d="M31.3116 153.375C37.9148 153.375 43.2678 148.022 43.2678 141.419C43.2678 134.816 37.9148 129.463 31.3116 129.463C24.7084 129.463 19.3555 134.816 19.3555 141.419C19.3555 148.022 24.7084 153.375 31.3116 153.375Z" fill="#0078D4"/>
<path d="M103.871 85.6454L96.8095 91.1146L99.6922 100.468L90.6327 94.9991L81.5731 100.468L84.809 90.8792L77.6318 85.5844L87.5152 84.4075L90.6306 74.8184L93.9841 84.3487L103.871 85.6454Z" fill="#FFB900"/>
<path d="M60.629 153.375C67.2322 153.375 72.5852 148.022 72.5852 141.419C72.5852 134.816 67.2322 129.463 60.629 129.463C54.0258 129.463 48.6729 134.816 48.6729 141.419C48.6729 148.022 54.0258 153.375 60.629 153.375Z" fill="#0078D4"/>
<path d="M89.9464 153.375C96.5496 153.375 101.903 148.022 101.903 141.419C101.903 134.816 96.5496 129.463 89.9464 129.463C83.3432 129.463 77.9902 134.816 77.9902 141.419C77.9902 148.022 83.3432 153.375 89.9464 153.375Z" fill="#0078D4"/>
<path d="M119.265 153.375C125.868 153.375 131.221 148.022 131.221 141.419C131.221 134.816 125.868 129.463 119.265 129.463C112.662 129.463 107.309 134.816 107.309 141.419C107.309 148.022 112.662 153.375 119.265 153.375Z" fill="#EDEBE9"/>
<path d="M148.581 153.375C155.184 153.375 160.537 148.022 160.537 141.419C160.537 134.816 155.184 129.463 148.581 129.463C141.978 129.463 136.625 134.816 136.625 141.419C136.625 148.022 141.978 153.375 148.581 153.375Z" fill="#EDEBE9"/>
<path d="M47.1271 85.6452L40.0656 91.1145L42.9484 100.468L33.8888 94.999L24.8293 100.468L28.0665 90.8812L20.8887 85.5864L30.7721 84.4095L33.8874 74.8203L37.241 84.3506L47.1271 85.6452Z" fill="#FFB900"/>
<path d="M75.3967 85.6452L68.3351 91.1145L71.2207 100.47L62.1611 95.0011L53.1016 100.47L56.336 90.8812L49.1582 85.5864L59.0416 84.4095L62.157 74.8203L65.5105 84.3506L75.3967 85.6452Z" fill="#FFB900"/>
<path d="M160.279 85.6454L153.218 91.1146L156.1 100.468L147.041 94.9991L137.981 100.468L141.217 90.8792L134.04 85.5844L143.923 84.4075L147.039 74.8184L150.392 84.3487L160.279 85.6454Z" fill="#EDEBE9"/>
<path d="M147.876 26.5498L135.473 48.0335H160.28L147.876 26.5498Z" fill="#EDEBE9"/>
<path d="M119.06 26.5498L106.656 48.0335H131.464L119.06 26.5498Z" fill="#107C10"/>
<path d="M90.2383 26.5498L77.835 48.0335H102.639L90.2383 26.5498Z" fill="#107C10"/>
<path d="M61.418 26.5498L49.0146 48.0342H73.8221L61.418 26.5498Z" fill="#107C10"/>
<path d="M32.6114 26.5498L20.208 48.0342H45.0148L32.6114 26.5498Z" fill="#107C10"/>
<path d="M118.679 94.9991L109.619 100.468L112.855 90.8792L105.678 85.5844L115.561 84.4075L118.677 74.8184" fill="#FFB900"/>
<path d="M118.474 74.8164L121.828 84.3467L131.711 85.6406L124.649 91.1099L127.532 100.464L118.473 94.9944" fill="#EDEBE9"/>
</svg>
