<svg width="180" height="180" viewBox="0 0 180 180" fill="none" xmlns="http://www.w3.org/2000/svg">
<mask id="mask0_1322_4642" style="mask-type:luminance" maskUnits="userSpaceOnUse" x="0" y="0" width="180" height="180">
<path d="M180 0H0V180H180V0Z" fill="white"/>
</mask>
<g mask="url(#mask0_1322_4642)">
<path d="M90.0004 19.2051C101.173 19.2049 112.186 21.8489 122.141 26.9208C132.095 31.9928 140.708 39.3486 147.275 48.387C153.842 57.4254 158.177 67.8896 159.925 78.9242C161.673 89.9589 160.784 101.25 157.332 111.876C153.88 122.501 147.962 132.159 140.062 140.059C132.163 147.959 122.505 153.878 111.88 157.33C101.255 160.783 89.9632 161.672 78.9285 159.925C67.8938 158.177 57.4293 153.843 48.3906 147.276L59.9175 131.414C66.4533 136.162 74.0198 139.296 81.9986 140.559C89.9773 141.822 98.1418 141.179 105.824 138.682C113.507 136.185 120.49 131.905 126.201 126.193C131.913 120.481 136.192 113.497 138.687 105.814C141.183 98.1316 141.825 89.9671 140.561 81.9885C139.297 74.0099 136.163 66.4437 131.414 59.9086C126.666 53.3735 120.438 48.055 113.24 44.388C106.042 40.721 98.0785 38.8095 90.0004 38.8098V19.2051Z" fill="#0078D4"/>
<path d="M48.4141 147.275C33.2243 136.239 23.0409 119.62 20.1041 101.075C17.1673 82.5304 21.7176 63.5785 32.7541 48.3887L48.6149 59.9121C40.6347 70.8954 37.3443 84.599 39.4677 98.0082C41.5912 111.417 48.9544 123.434 59.9376 131.414L48.4141 147.275Z" fill="#107C10"/>
<path d="M32.7256 48.3879C39.2924 39.3495 47.905 31.9935 57.8595 26.9214C67.8139 21.8493 78.8274 19.2051 89.9995 19.2051V38.8098C81.9211 38.8099 73.9575 40.7218 66.7596 44.3893C59.5617 48.0569 53.334 53.3758 48.5857 59.9114L32.7256 48.3879Z" fill="#FFB900"/>
<mask id="mask1_1322_4642" style="mask-type:luminance" maskUnits="userSpaceOnUse" x="61" y="75" width="58" height="39">
<path d="M118.067 75.5762H61.9316V113.348H118.067V75.5762Z" fill="white"/>
</mask>
<g mask="url(#mask1_1322_4642)">
<mask id="mask2_1322_4642" style="mask-type:luminance" maskUnits="userSpaceOnUse" x="61" y="75" width="58" height="39">
<path d="M118.066 75.5762H61.9307V113.348H118.066V75.5762Z" fill="white"/>
</mask>
<g mask="url(#mask2_1322_4642)">
<path d="M74 80.0947V103.001H69.0781V85.6572C68.8073 85.8968 68.4844 86.126 68.1094 86.3447C67.7448 86.5531 67.3542 86.7458 66.9375 86.9229C66.5208 87.0895 66.0885 87.2354 65.6406 87.3604C65.1927 87.4749 64.75 87.5583 64.3125 87.6104V83.4541C65.5938 83.0791 66.8021 82.5999 67.9375 82.0166C69.0729 81.4333 70.099 80.7926 71.0156 80.0947H74ZM88.4844 103.392C83.151 103.392 80.4844 99.6468 80.4844 92.1572C80.4844 88.2718 81.2031 85.3135 82.6406 83.2822C84.0885 81.2406 86.1823 80.2197 88.9219 80.2197C94.1302 80.2197 96.7344 84.027 96.7344 91.6416C96.7344 95.4333 96.0208 98.3395 94.5938 100.36C93.1771 102.381 91.1406 103.392 88.4844 103.392ZM88.7031 83.9854C86.5677 83.9854 85.5 86.6676 85.5 92.0322C85.5 97.0843 86.5469 99.6104 88.6406 99.6104C90.6823 99.6104 91.7031 97.0062 91.7031 91.7979C91.7031 86.5895 90.7031 83.9854 88.7031 83.9854ZM119 103.001H112.625L106.094 93.2666C105.969 93.0791 105.771 92.6676 105.5 92.0322H105.422V103.001H100.375V80.5947H105.422V91.1885H105.5C105.625 90.8968 105.833 90.4801 106.125 89.9385L112.312 80.5947H118.328L110.516 91.2822L119 103.001Z" fill="#1C0303"/>
</g>
</g>
</g>
</svg>
