<svg width="180" height="180" viewBox="0 0 180 180" fill="none" xmlns="http://www.w3.org/2000/svg">
<path d="M102.696 140.015C109.073 141.429 113.482 144.073 113.482 147.095C113.482 151.704 103.206 155.439 90.5277 155.439C77.8491 155.439 69.0629 151.188 66.2188 148.802" stroke="#D83B01" stroke-width="4"/>
<path d="M105.982 147.338L101.499 139.567L109.268 135.08" stroke="#D83B01" stroke-width="4.00047"/>
<path d="M90.3506 12.4199V168.029" stroke="#1C0303" stroke-width="2" stroke-dasharray="6 6"/>
<path d="M31.0312 25.3193L138.608 36.009V124.457L31.0312 132.394V25.3193Z" fill="#D8D8D8"/>
<path d="M48.6602 63.0537L61.9602 63.5785V110.92L48.6602 111.468V63.0537Z" fill="#0078D4"/>
<path d="M95.1387 69.7178L106.479 70.0667V109.09L95.1387 109.556V69.7178Z" fill="#0078D4"/>
<path d="M115.383 82.5537L125.918 82.6372V108.292L115.383 108.724V82.5537Z" fill="#0078D4"/>
<path d="M72.834 54.5898L85.0961 55.274V109.969L72.834 110.473V54.5898Z" fill="#0078D4"/>
<path d="M129.716 108.785L44.0928 112.411V110.898L129.716 107.485V108.785Z" fill="#1C0303"/>
</svg>
