<svg width="180" height="180" viewBox="0 0 180 180" fill="none" xmlns="http://www.w3.org/2000/svg">
<path d="M88.6157 11.7686H11.7695V62.9993H88.6157V11.7686Z" fill="#E6E6E6"/>
<path d="M65.0768 32.5381H34.6152V35.9996H65.0768V32.5381Z" fill="#C8C6C4"/>
<path d="M73.3847 41.5381H27.6924V42.9227H73.3847V41.5381Z" fill="#C8C6C4"/>
<path d="M88.6157 119.077H11.7695V169.616H88.6157V119.077Z" fill="#E6E6E6"/>
<path d="M65.0768 139.153H34.6152V142.615H65.0768V139.153Z" fill="#C8C6C4"/>
<path d="M73.3847 148.153H27.6924V150.23H73.3847V148.153Z" fill="#C8C6C4"/>
<path d="M168.231 11.7686H91.3848V62.9993H168.231V11.7686Z" fill="#E6E6E6"/>
<path d="M144.693 32.5381H114.231V35.9996H144.693V32.5381Z" fill="#C8C6C4"/>
<path d="M152.308 41.5381H106.615V42.9227H152.308V41.5381Z" fill="#C8C6C4"/>
<path d="M168.231 65.0771H91.3848V116.308H168.231V65.0771Z" fill="#E6E6E6"/>
<path d="M144.693 85.8467H114.231V89.3082H144.693V85.8467Z" fill="#C8C6C4"/>
<path d="M152.308 94.8467H106.615V96.9236H152.308V94.8467Z" fill="#C8C6C4"/>
<path d="M168.231 119.077H91.3848V169.616H168.231V119.077Z" fill="#E6E6E6"/>
<path d="M144.693 139.153H114.231V142.615H144.693V139.153Z" fill="#C8C6C4"/>
<path d="M152.308 148.153H106.615V150.23H152.308V148.153Z" fill="#C8C6C4"/>
<path d="M21.6006 63.9756L76.2008 66.8764V115.252L21.6006 118.154V63.9756Z" fill="#FFB900"/>
<path d="M39 85.7998L60.6 86.0207V89.3998L39 89.3347V85.7998Z" fill="#966501"/>
<path d="M65.769 95.5381H33.9229V96.9227H65.769V95.5381Z" fill="#966501"/>
<mask id="mask0_1322_4723" style="mask-type:luminance" maskUnits="userSpaceOnUse" x="0" y="0" width="180" height="180">
<path d="M180 0H0V180H180V0Z" fill="white"/>
</mask>
<g mask="url(#mask0_1322_4723)">
<path d="M81.0819 96.7744C85.7896 97.8191 89.0435 99.7714 89.0435 102.001C89.0435 105.405 81.4544 108.163 72.0937 108.163C62.733 108.163 56.2433 105.025 54.1436 103.263" stroke="#1C0303" stroke-width="4"/>
<path d="M83.1962 102.18L79.8877 96.4449L85.6228 93.1309" stroke="#1C0303" stroke-width="4"/>
</g>
</svg>
