<svg width="161" height="161" viewBox="0 0 161 161" fill="none" xmlns="http://www.w3.org/2000/svg">
<mask id="mask0_1322_4800" style="mask-type:luminance" maskUnits="userSpaceOnUse" x="0" y="0" width="161" height="161">
<path d="M160.495 0H0V160.298H160.495V0Z" fill="white"/>
</mask>
<g mask="url(#mask0_1322_4800)">
<path d="M145.606 77.6996C145.606 91.1198 141.627 104.238 134.171 115.397C126.715 126.555 116.118 135.252 103.719 140.388C91.3209 145.524 77.6779 146.867 64.5156 144.249C51.3534 141.631 39.263 135.169 29.7735 125.68C20.284 116.19 13.8216 104.1 11.2033 90.9377C8.5851 77.7755 9.92871 64.1324 15.0643 51.7338C20.1998 39.3352 28.8966 28.7379 40.055 21.2819C51.2133 13.826 64.332 9.84635 77.7521 9.84619C86.6627 9.84619 95.4861 11.6013 103.718 15.0112C111.951 18.4212 119.431 23.4192 125.732 29.72C132.033 36.0208 137.031 43.5009 140.441 51.7333C143.85 59.9656 145.606 68.789 145.606 77.6996" fill="#FFCD26"/>
<path d="M77.7519 9.84619C59.756 9.84619 42.4972 16.995 29.7723 29.72C17.0473 42.445 9.89844 59.7038 9.89844 77.6997C9.89844 95.6955 17.0473 112.954 29.7723 125.679C42.4972 138.404 59.756 145.553 77.7519 145.553V9.84619Z" fill="#FFDF6A"/>
<path d="M77.7519 9.84619C59.756 9.84619 42.4972 16.995 29.7723 29.72C17.0473 42.445 9.89844 59.7038 9.89844 77.6997H77.7519V9.84619Z" fill="#FFEFAF"/>
<path d="M77.7515 77.6997H145.605C145.605 59.7038 138.456 42.445 125.731 29.72C113.006 16.995 95.7473 9.84619 77.7515 9.84619V77.6997Z" fill="#36995B" fill-opacity="0.74"/>
<path d="M125.68 29.6721C119.389 23.3765 111.916 18.3846 103.692 14.9825C95.4671 11.5804 86.6519 9.83495 77.7515 9.84625V77.6008L125.68 29.6721Z" fill="#107C10" fill-opacity="0.56"/>
<path d="M128.642 77.6999C128.642 87.765 125.658 97.6041 120.066 105.973C114.474 114.342 106.526 120.865 97.227 124.716C87.928 128.568 77.6957 129.576 67.8239 127.612C57.9522 125.649 48.8844 120.802 41.7673 113.685C34.6501 106.568 29.8033 97.4998 27.8397 87.6281C25.8761 77.7563 26.8839 67.524 30.7356 58.225C34.5874 48.926 41.1101 40.978 49.479 35.3861C57.8479 29.7942 67.687 26.8096 77.7521 26.8096C84.4352 26.8095 91.0528 28.1257 97.2271 30.6832C103.401 33.2406 109.012 36.9891 113.737 41.7148C118.463 46.4404 122.211 52.0505 124.769 58.2249C127.326 64.3992 128.643 71.0168 128.642 77.6999Z" fill="#F6BB00"/>
<path d="M128.642 77.6999C128.642 71.0168 127.326 64.3992 124.768 58.2249C122.211 52.0505 118.462 46.4404 113.737 41.7148C109.011 36.9891 103.401 33.2406 97.2265 30.6832C91.0521 28.1257 84.4345 26.8095 77.7515 26.8096V77.6999H128.642Z" fill="#107C10"/>
</g>
</svg>
