<svg width="170" height="170" viewBox="0 0 170 170" fill="none" xmlns="http://www.w3.org/2000/svg">
<path d="M155.654 84.627H84.627V155.654H155.654V84.627Z" fill="#107C10"/>
<path d="M84.6268 13.0786H13.0786V84.6268H84.6268V13.0786Z" fill="white"/>
<path d="M84.7345 84.627H13.0786V155.654H84.7345V84.627Z" fill="#FFB900"/>
<path d="M155.655 13.0786H84.7344V84.6268H155.655V13.0786Z" fill="#0078D4"/>
<path d="M57.892 64.0531H41.4167L38.2816 73.4482H27.9648L45.2056 27.145H54.043L71.3754 73.4482H61.054L57.892 64.0531ZM43.8293 56.0005H55.4793L49.6216 38.5596L43.8293 56.0005Z" fill="#1C0303"/>
<path d="M128.769 59.8777H109.245L104.815 71.9563H100.75L117.253 28.335H120.752L137.263 71.9563H133.224L128.769 59.8777ZM110.278 56.5226H127.707L118.993 32.8502L110.278 56.5226Z" fill="white"/>
<path d="M59.8795 123.227H39.2736L34.5976 135.977H30.1931L47.717 89.6738H51.4375L68.9591 135.977H64.587L59.8795 123.227ZM40.2353 119.872H58.8855L49.5604 94.5506L40.2353 119.872ZM28.9922 140.674H69.927V144.029H28.9922V140.674Z" fill="white"/>
<path d="M128.479 106.907V132.204L143.914 137.953V139.784L92.9131 120.694V118.386L143.913 99.2944V101.125L128.479 106.907ZM126.466 131.356V107.756L94.8364 119.539L126.466 131.356Z" fill="white"/>
</svg>
