<svg width="170" height="170" viewBox="0 0 170 170" fill="none" xmlns="http://www.w3.org/2000/svg">
<path d="M63.3224 27.8738H46.444V73.6108H35.0093V27.8738H18.6748V18.6172H63.3224V27.8738Z" fill="#1C0303"/>
<path d="M150.79 18.4639H76.9336V26.1572H150.79V18.4639Z" fill="#978989"/>
<path d="M150.79 40.7129H77.0337V48.4062H150.79V40.7129Z" fill="#978989"/>
<path d="M150.79 65.9165H77.0337V73.6099H150.79V65.9165Z" fill="#978989"/>
<path d="M150.789 91.1201H18.4634V98.8135H150.789V91.1201Z" fill="#978989"/>
<path d="M71.5475 116.323H18.4634V124.017H71.5475V116.323Z" fill="#978989"/>
<mask id="mask0_1322_4865" style="mask-type:luminance" maskUnits="userSpaceOnUse" x="0" y="0" width="170" height="170">
<path d="M169.254 0H0V169.254H169.254V0Z" fill="white"/>
</mask>
<g mask="url(#mask0_1322_4865)">
<path d="M108.354 147.245V141.037H139.688C140.854 141.064 142.013 140.857 143.098 140.43C144.182 140.002 145.171 139.362 146.005 138.547C146.838 137.732 147.501 136.759 147.953 135.684C148.406 134.61 148.639 133.456 148.639 132.29C148.639 131.124 148.406 129.969 147.953 128.895C147.501 127.82 146.838 126.847 146.005 126.032C145.171 125.217 144.182 124.577 143.098 124.149C142.013 123.722 140.854 123.515 139.688 123.542H77.1543V117.334H140.521V117.344C144.351 117.474 147.993 119.032 150.732 121.713C152.119 123.07 153.228 124.685 153.997 126.466C154.787 128.306 155.195 130.286 155.195 132.288C155.195 134.29 154.787 136.271 153.997 138.11C153.229 139.892 152.12 141.507 150.732 142.863C149.338 144.234 147.692 145.322 145.885 146.068C144.181 146.776 142.363 147.171 140.519 147.234V147.244L108.354 147.245Z" fill="#0078D4"/>
<path d="M120.846 133.251L102.83 144.425L120.847 155.599" stroke="#0078D4" stroke-width="11"/>
</g>
</svg>
