<svg width="180" height="180" viewBox="0 0 180 180" fill="none" xmlns="http://www.w3.org/2000/svg">
<mask id="mask0_1322_4901" style="mask-type:luminance" maskUnits="userSpaceOnUse" x="49" y="22" width="53" height="143">
<path d="M101.079 22.8462H49.1562V164.077H101.079V22.8462Z" fill="white"/>
</mask>
<g mask="url(#mask0_1322_4901)">
<path d="M92.9435 119.011C91.8747 118.03 90.7261 117.14 89.5097 116.35C88.7041 115.843 88.0386 115.143 87.5746 114.312C87.1105 113.481 86.8627 112.547 86.854 111.596V28.4205C86.8454 26.9215 86.2417 25.4872 85.1756 24.4332C84.1096 23.3793 82.6685 22.7919 81.1694 22.8004H69.1399C68.3976 22.796 67.6617 22.9379 66.9742 23.2179C66.2867 23.498 65.6611 23.9107 65.1331 24.4325C64.6051 24.9543 64.1851 25.575 63.897 26.2592C63.6089 26.9433 63.4583 27.6775 63.454 28.4199V111.596C63.4451 112.548 63.1973 113.482 62.7336 114.312C62.2698 115.143 61.6048 115.844 60.7997 116.351C46.7908 125.42 44.4612 145.497 57.8456 157.494C61.2222 160.503 65.3313 162.57 69.76 163.488C74.1887 164.406 78.781 164.142 83.0754 162.723C100.236 157.031 106.242 137.683 97.06 123.822C95.8898 122.057 94.5081 120.441 92.9456 119.012" fill="#EBEBEB"/>
<path d="M95.251 138.501C95.2663 150.66 84.2101 160.298 71.4093 158.247C67.1529 157.608 63.2183 155.607 60.1956 152.542C57.1729 149.478 55.2251 145.517 54.6441 141.252C54.0631 136.987 54.8803 132.649 56.9732 128.888C59.0662 125.127 62.3219 122.146 66.2523 120.391C66.8473 120.124 67.3525 119.69 67.7075 119.143C68.0625 118.596 68.2522 117.958 68.2538 117.306V32.9486C68.2583 32.4781 68.3555 32.013 68.5398 31.5801C68.7241 31.1471 68.9918 30.7546 69.3278 30.4251C69.6638 30.0957 70.0614 29.8356 70.4979 29.6598C70.9344 29.484 71.4012 29.3959 71.8718 29.4006H77.8346C78.7847 29.3912 79.6997 29.7594 80.3784 30.4243C81.0571 31.0893 81.444 31.9965 81.454 32.9466V117.305C81.4556 117.957 81.6452 118.595 82 119.142C82.3549 119.69 82.86 120.123 83.4548 120.391C86.953 121.957 89.9259 124.498 92.0181 127.71C94.1103 130.921 95.2331 134.668 95.2524 138.501" fill="#D83B01"/>
</g>
<path d="M116.308 29.0771V122.539" stroke="#1C0303" stroke-width="2"/>
<path d="M115.615 29.0771H123.231" stroke="#1C0303" stroke-width="2"/>
<path d="M115.615 51.9229H123.231" stroke="#1C0303" stroke-width="2"/>
<path d="M115.615 76.1538H123.231" stroke="#1C0303" stroke-width="2"/>
<path d="M115.615 99H123.231" stroke="#1C0303" stroke-width="2"/>
<path d="M115.615 122.539H123.231" stroke="#1C0303" stroke-width="2"/>
<path d="M56.0771 56.769H63.6925" stroke="#1C0303" stroke-width="2"/>
<path d="M141.923 26.3076H125.308V30.4615H141.923V26.3076Z" fill="#DBDBDB"/>
<path d="M141.923 50.5381H125.308V53.9996H141.923V50.5381Z" fill="#DBDBDB"/>
<path d="M51.923 55.3848H35.3076V59.5386H51.923V55.3848Z" fill="#DBDBDB"/>
<path d="M141.923 74.0771H125.308V77.5387H141.923V74.0771Z" fill="#DBDBDB"/>
<path d="M141.923 96.9229H125.308V101.077H141.923V96.9229Z" fill="#DBDBDB"/>
<path d="M141.923 120.461H125.308V123.923H141.923V120.461Z" fill="#DBDBDB"/>
</svg>
