<svg width="180" height="180" viewBox="0 0 180 180" fill="none" xmlns="http://www.w3.org/2000/svg">
<mask id="mask0_1322_5038" style="mask-type:luminance" maskUnits="userSpaceOnUse" x="16" y="19" width="148" height="143">
<path d="M163.04 19.0386H16.9629V161.654H163.04V19.0386Z" fill="white"/>
</mask>
<g mask="url(#mask0_1322_5038)">
<path d="M63.9844 19.0386C89.9536 19.0386 111.006 40.2322 111.006 66.3758C111.006 92.5194 89.9536 113.713 63.9844 113.713C38.0153 113.713 16.9629 92.5194 16.9629 66.3758C16.9629 40.2322 38.0153 19.0386 63.9844 19.0386Z" fill="#107C10"/>
<path d="M116.372 19.0386C142.341 19.0386 163.394 40.2322 163.394 66.3758C163.394 92.5194 142.341 113.713 116.372 113.713C90.403 113.713 69.3506 92.5194 69.3506 66.3758C69.3506 40.2322 90.403 19.0386 116.372 19.0386Z" fill="#0078D4"/>
<path d="M90.4942 66.376C116.463 66.376 137.516 87.5696 137.516 113.713C137.516 139.857 116.463 161.05 90.4942 161.05C64.525 161.05 43.4727 139.857 43.4727 113.713C43.4727 87.5696 64.525 66.376 90.4942 66.376Z" fill="#FFB900"/>
<path d="M43.6729 109.072C44.7835 97.4105 50.1938 86.5794 58.8506 78.6873C67.5073 70.7952 78.7911 66.4066 90.5054 66.376C97.5505 66.3658 104.506 67.9517 110.851 71.0145C109.741 82.6762 104.331 93.5075 95.6737 101.4C87.0168 109.292 75.7328 113.68 64.0184 113.71C56.9733 113.721 50.0174 112.135 43.6729 109.072Z" fill="#B5D91E"/>
<path d="M69.1875 66.3761C69.1829 58.6042 71.1013 50.9518 74.7717 44.1011C78.4422 37.2505 83.7507 31.4145 90.224 27.1133C96.6931 31.4184 101.998 37.2553 105.668 44.1051C109.337 50.9548 111.257 58.6051 111.257 66.3758C111.257 74.1465 109.337 81.7968 105.668 88.6465C101.998 95.4962 96.6931 101.333 90.224 105.638C83.7507 101.337 78.4422 95.5014 74.7717 88.6508C71.1013 81.8003 69.1828 74.148 69.1875 66.3761Z" fill="#0C8092"/>
<path d="M69.6211 71.281C76.1076 68.0451 83.2591 66.3657 90.508 66.376C102.177 66.4066 113.42 70.7612 122.065 78.5983C130.71 86.4353 136.143 97.1986 137.315 108.808C130.829 112.044 123.679 113.724 116.431 113.714C104.762 113.683 93.5193 109.329 84.8742 101.492C76.2292 93.655 70.7958 82.8919 69.6239 71.2824" fill="#1ED69E"/>
<path d="M69.6211 71.2817C69.8288 71.1778 70.0365 71.074 70.2442 70.9764L70.4802 70.8642L70.492 70.8573L70.6028 70.8047L70.6201 70.7964H70.7274H70.0427L70.1556 70.7437L70.1916 70.7264L70.2996 70.6766L70.3321 70.6614L70.4193 70.6212L70.4546 70.6053L70.5606 70.5575L70.5993 70.5402L70.6921 70.4966L70.7475 70.4717L70.8105 70.4433L70.8666 70.4184L70.9559 70.3789L71.0182 70.3512L71.0687 70.3291L71.1726 70.2834L71.212 70.2661L71.4446 70.165L71.4599 70.1587L71.7022 70.0549L71.8683 69.9857C76.2163 68.1605 80.796 66.9457 85.477 66.376H84.7986L85.0471 67.0074H85.0506L85.2022 66.6751H85.2306L85.369 66.3801H85.3905L85.4597 66.6487L85.5033 66.6446L85.6106 66.6321L85.6577 66.6273L85.7207 66.6211L85.8128 66.6114L85.8696 66.6058L85.9388 66.5989L85.9983 66.5947L86.0904 66.5857L86.1423 66.5809L86.242 67.0122H86.2884L86.3576 66.5636L86.4102 66.5574L86.5134 66.5484L86.5577 66.5449L86.6505 66.5373L86.6976 66.5338L86.7924 66.3815H86.8284L86.9419 67.0129H86.9772L87.0783 66.3815H87.0998L87.2175 67.0129H87.2514L87.3684 66.3815H87.3933L87.4999 67.0129H87.5249L87.646 66.3815H87.673L87.799 67.0129H87.8052L87.9312 66.3815H87.9492L88.0752 67.0129H88.0946L88.3619 66.376H88.3792L88.5114 67.0074H88.5176L88.6519 66.376H88.6554L88.7939 67.0074H88.8042L89.0756 66.376H89.0874L89.2182 67.0074H89.2356L89.4993 66.376H91.2301L91.4959 67.0074H91.6531L91.9259 66.376H91.9369L92.0692 67.0074H92.0802L92.3475 66.376H92.3565L92.4949 67.0074H92.5005L92.9159 66.376H92.9235L93.1949 67.0074H93.2046L93.3382 66.376H93.3451L93.6186 67.0074H93.6248L93.7584 66.376H93.7681L94.0416 66.5061L94.18 67.0074H94.1897L94.4542 66.376L94.5864 67.0074H94.5982L94.8689 66.5761L95.2842 66.376L95.4165 67.0074H95.4289L95.7003 66.376H95.7045L95.8346 67.0074H95.8499L95.9821 66.691L96.1206 66.7097L96.2528 67.0067H96.2646L96.3968 66.7422L96.5311 66.376H96.5366L96.6668 67.0074H96.6792L96.9472 66.8177L97.0732 66.3767H97.0891L97.2151 67.0081H97.2186L97.3508 66.3767H97.3542L97.4802 67.0081H97.4948L97.6249 66.376H97.6284L97.7703 66.9367L97.8963 67.006H97.9136L98.0403 66.376H98.0459L98.1719 67.0074H98.1802L98.3062 67.6387H98.3214L98.4474 67.0074H98.4557L98.5817 67.6387H98.5907L98.7167 67.0074H98.7319L98.8579 67.6387H98.8642L99.1252 67.0074H99.1369L99.5316 67.6387H99.5419L99.6721 67.2566L99.9372 67.6387H99.9428L100.075 67.3376L100.343 67.3937L100.743 67.4816C104.233 68.2615 107.622 69.4414 110.842 70.9978C110.174 77.9438 107.98 84.6564 104.415 90.6553C100.851 96.6543 96.0047 101.791 90.2235 105.699C84.4803 101.819 79.6587 96.7259 76.0989 90.7791C72.5391 84.8322 70.3278 78.1765 69.6211 71.2817Z" fill="#57BC9D"/>
</g>
</svg>
