<svg width="180" height="180" viewBox="0 0 180 180" fill="none" xmlns="http://www.w3.org/2000/svg">
<mask id="mask0_1322_5073" style="mask-type:luminance" maskUnits="userSpaceOnUse" x="0" y="0" width="180" height="180">
<path d="M180 180L180 0L0 -7.60102e-06L-8.14446e-06 180L180 180Z" fill="white"/>
</mask>
<g mask="url(#mask0_1322_5073)">
<path d="M22.2402 63.4359C24.1997 62.6824 26.1116 61.8108 27.9656 60.8259C36.5246 56.2961 41.7772 50.1387 44.7243 42.8349C46.0134 39.6461 47.0975 36.4096 48.9072 33.344C49.6765 31.9744 50.6317 30.7179 51.7457 29.6104C55.8739 25.6463 63.1937 25.5867 67.3787 29.5322C69.5692 31.598 70.6388 34.0599 71.671 36.5197C73.0556 39.8081 73.4668 43.2288 74.2616 46.599C74.7999 49.2642 75.762 51.8259 77.1112 54.1867C77.5147 54.8728 77.9813 55.5199 78.5048 56.1196C81.0954 59.0058 84.7944 59.3561 88.303 57.0355C90.7825 55.3921 92.7823 53.1211 94.099 50.4537C95.0274 48.447 96.2999 46.6182 97.8589 45.0503C99.0087 43.9176 100.345 42.9914 101.809 42.3122C104.486 41.109 106.894 41.2959 109.163 42.891C110.696 43.9548 111.954 45.3685 112.832 47.015C117.401 55.6094 126.487 60.4264 138.089 63.1714C138.418 63.249 138.742 63.3314 139.088 63.4172C138.918 63.7405 138.523 63.6941 138.223 63.7675C130.228 65.6367 123.157 68.5444 117.842 73.4127C115.987 75.1289 114.414 77.1265 113.18 79.332C112.354 80.8381 111.292 82.2016 110.032 83.3702C107.295 85.8521 104.153 86.1159 100.75 84.1013C98.0928 82.5609 95.9677 80.2477 94.6577 77.4697C93.5553 75.1382 92.0102 73.0432 90.1085 71.3012C85.5102 67.0954 80.356 67.5337 77.2808 72.4262C75.2308 75.6877 74.3869 79.1893 73.7098 82.7097C73.0175 86.289 72.3792 89.8703 70.6042 93.2778C69.9819 94.5064 69.2015 95.6482 68.2828 96.6743C64.0161 101.356 56.425 101.571 51.6716 97.1485C49.1149 94.769 47.8916 91.9603 46.8428 89.1046C45.1658 84.1825 42.7219 79.5563 39.6012 75.3969C35.7298 70.4282 30.1512 66.752 23.3355 64.0112C22.9651 63.8561 22.5047 63.8035 22.2402 63.4373" fill="#FFB900" fill-opacity="0.5"/>
<path d="M22.2402 129.12C23.6424 128.58 25.0107 127.956 26.3373 127.251C32.4622 124.009 36.2207 119.603 38.3295 114.374C39.1536 112.037 40.1543 109.767 41.323 107.582C41.8743 106.604 42.5583 105.706 43.3556 104.915C44.8901 103.54 46.8754 102.774 48.9361 102.764C50.9968 102.753 52.99 103.498 54.5385 104.858C56.1059 106.336 56.8715 108.098 57.6123 109.858C58.6037 112.212 58.8972 114.659 59.4663 117.07C59.8514 118.977 60.5398 120.811 61.5052 122.5C61.7938 122.991 62.1275 123.455 62.5021 123.885C64.3561 125.95 67.0021 126.201 69.5138 124.539C71.2876 123.364 72.7185 121.74 73.6607 119.832C74.325 118.396 75.2355 117.087 76.351 115.965C77.1738 115.155 78.13 114.492 79.1777 114.006C80.0054 113.575 80.9377 113.385 81.8681 113.459C82.7984 113.532 83.6894 113.866 84.4392 114.421C85.5366 115.182 86.437 116.194 87.0658 117.372C90.3377 123.522 96.8364 126.969 105.139 128.934C105.375 128.989 105.607 129.048 105.854 129.109C105.732 129.341 105.449 129.309 105.235 129.36C99.5142 130.698 94.4542 132.777 90.6506 136.262C89.3244 137.489 88.1995 138.918 87.3172 140.494C86.726 141.572 85.9654 142.548 85.0644 143.384C83.1059 145.16 80.8572 145.349 78.4217 143.907C76.5195 142.805 74.9981 141.15 74.0602 139.162C73.2717 137.493 72.1666 135.994 70.8063 134.748C67.5172 131.737 63.8265 132.048 61.6256 135.551C60.3146 137.82 59.4477 140.317 59.071 142.91C58.5767 145.471 58.1191 148.033 56.8487 150.472C56.4033 151.351 55.8447 152.168 55.1872 152.903C53.6508 154.515 51.5399 155.455 49.3139 155.518C47.0878 155.582 44.9267 154.764 43.3009 153.242C41.6945 151.636 40.5079 149.659 39.8456 147.487C38.6457 143.964 36.8969 140.653 34.6637 137.677C31.8945 134.121 27.9012 131.492 23.0239 129.531C22.7588 129.417 22.4272 129.38 22.2402 129.12Z" fill="#0078D4" fill-opacity="0.5"/>
<path d="M22.2393 21.0117L22.2393 158.288" stroke="#1C0303" stroke-width="2"/>
<path d="M157.76 157.881L22.2385 157.881" stroke="#1C0303" stroke-width="2"/>
<path d="M22.8926 63.1274L157.761 63.1274" stroke="#0078D4" stroke-width="2" stroke-dasharray="8 8"/>
<path d="M22.7061 128.899L119.215 128.899" stroke="#0078D4" stroke-width="2" stroke-dasharray="8 8"/>
</g>
</svg>
