<svg xmlns="http://www.w3.org/2000/svg" xmlns:xlink="http://www.w3.org/1999/xlink" width="222" height="60" viewBox="0 0 222 60">
  <defs>
    <clipPath id="clip-Web_1920_1">
      <rect width="222" height="60"/>
    </clipPath>
  </defs>
  <g id="Web_1920_1" data-name="Web 1920 – 1" clip-path="url(#clip-Web_1920_1)">
    <rect width="222" height="60" fill="#fff"/>
    <g id="Group_1" data-name="Group 1" transform="translate(20)">
      <g id="power-bi" transform="translate(31.2 10.859)">
        <path id="Path_1" data-name="Path 1" d="M11.1,27.3A2.112,2.112,0,0,1,9,29.4a2.051,2.051,0,0,1-2.1-2.1v-9A2.112,2.112,0,0,1,9,16.2a2.051,2.051,0,0,1,2.1,2.1Zm6,2.4A2.112,2.112,0,0,1,15,31.8a1.97,1.97,0,0,1-2-2.1V16a2.112,2.112,0,0,1,2.1-2.1A2.051,2.051,0,0,1,17.2,16V29.7ZM5,25.3a2.112,2.112,0,0,1-2.1,2.1A2.051,2.051,0,0,1,.8,25.3V20.4a2.1,2.1,0,1,1,4.2,0Zm18.1,6.6a2.051,2.051,0,1,1-4.1,0V13.7a2.1,2.1,0,0,1,4.2,0V31.9Z" fill="#231f20"/>
        <path id="Path_2" data-name="Path 2" d="M29.7,31a4.253,4.253,0,0,1-1.1-.2L26.1,30a.791.791,0,1,1,.5-1.5l2.6.8a1.605,1.605,0,0,0,1.6-.3,1.622,1.622,0,0,0,.7-1.4V10.9a1.743,1.743,0,0,0-1.2-1.7L5.8,1.8A1.839,1.839,0,0,0,4.2,2a2.127,2.127,0,0,0-.7,1.5V15a.8.8,0,1,1-1.6,0V3.5A3.189,3.189,0,0,1,3.3.8a3.262,3.262,0,0,1,3-.5L30.7,7.7A3.453,3.453,0,0,1,33.1,11V27.7a3.5,3.5,0,0,1-1.4,2.8,6.529,6.529,0,0,1-2,.5" fill="#231f20"/>
      </g>
      <text id="Power_BI" data-name="Power BI" transform="translate(77 36)" font-size="20" font-family="SegoeUI-Semilight, Segoe UI" font-weight="300"><tspan x="0" y="0">Power BI</tspan></text>
    </g>
  </g>
</svg>
