<svg xmlns="http://www.w3.org/2000/svg" xmlns:xlink="http://www.w3.org/1999/xlink" width="222" height="60" viewBox="0 0 222 60">
  <defs>
    <clipPath id="clip-Web_1920_22">
      <rect width="222" height="60"/>
    </clipPath>
  </defs>
  <g id="Web_1920_22" data-name="Web 1920 – 22" clip-path="url(#clip-Web_1920_22)">
    <rect width="222" height="60" fill="#fff"/>
    <g id="QlikTech_20xx_logo" transform="translate(23 13)">
      <path id="path13754" d="M160.965,11.5l5.027,15.713L171.515,11.5h3.769l-7.766,21.144h-3.143L159.3,16.892l-5.163,15.756h-3.276L143.5,11.5h3.861l5.3,15.712L157.866,11.5h3.1Zm-22.8,8.574c-.314-5.566-4.309-6.509-6.059-6.509-3.053,0-5.613,2.244-6.016,6.509Zm3.906,6.06a9.59,9.59,0,0,1-9.56,7.138c-6.286,0-10.371-4.264-10.371-11.4,0-7.991,5.746-11.044,10.236-11.044a9.214,9.214,0,0,1,9.291,7.5,19.161,19.161,0,0,1,.4,4.309H126c-.09,3.546,1.8,7.946,6.823,7.946,3.188,0,4.982-2.111,5.61-4.939l3.638.494m-23.916,6.509H114.7V11.5h3.456Zm0-27.562H114.7V.956h3.456ZM107.859.957h4.488L101.17,32.649H96.952L86.268.957h4.489L99.15,27.442,107.859.957Z" fill="#62ac1e"/>
      <path id="path13766" d="M7.81,16.565c0-5.746,3.052-9.966,7.855-9.966a7.714,7.714,0,0,1,5.566,2.335c1.8,1.93,2.694,5.3,2.56,8.619-.225,6.644-4.265,9.337-8.036,9.337-3.725,0-7.945-2.784-7.945-10.325m26.7,12.716-4.776-4.048a17.939,17.939,0,0,0,2-8.22c0-2.155-.629-12.7-10.325-16.07A17.559,17.559,0,0,0,15.62,0C5.43,0,0,8.125,0,16.7c0,9.156,5.7,16.879,15.755,16.879a15.381,15.381,0,0,0,9.566-3.026l4.722,4,4.47-5.274M62.334.988h6.779v16.3L76.7,9.248H85L76.924,17.6,86.036,32.68h-7.99L72.03,22.58l-2.963,2.784V32.68H62.334V.988ZM49.868,9.2H56.69V32.68H49.868Zm0-8.26H56.69V6.285H49.868ZM44.225,32.68H37.311V.988h6.914Z" fill="#363636"/>
    </g>
  </g>
</svg>
