<svg xmlns="http://www.w3.org/2000/svg" xmlns:xlink="http://www.w3.org/1999/xlink" width="222" height="60" viewBox="0 0 222 60">
  <defs>
    <linearGradient id="linear-gradient" x2="0.011" gradientUnits="objectBoundingBox">
      <stop offset="0" stop-color="#00b8f1"/>
      <stop offset="0.22" stop-color="#06a5e5"/>
      <stop offset="0.794" stop-color="#1870c5"/>
      <stop offset="1" stop-color="#1d61bc"/>
    </linearGradient>
    <clipPath id="clip-Web_1920_20">
      <rect width="222" height="60"/>
    </clipPath>
  </defs>
  <g id="Web_1920_20" data-name="Web 1920 – 20" clip-path="url(#clip-Web_1920_20)">
    <rect width="222" height="60" fill="#fff"/>
    <g id="SAP_2011_logo" transform="translate(66 8)">
      <path id="path3060" d="M0,0V44.415H45.371L89.781.005H0Z" fill="url(#linear-gradient)"/>
      <path id="path5384" d="M57.469,39.875v3.313h.5V41.75h.562l.906,1.438H60l-.969-1.437a.9.9,0,0,0,.875-.937c0-.653-.4-.937-1.187-.937Zm.5.438h.687c.338,0,.719.055.719.469,0,.517-.386.563-.812.563h-.594Zm.625-1.656a2.891,2.891,0,1,0,2.875,2.875A2.849,2.849,0,0,0,58.594,38.656Zm0,.469a2.408,2.408,0,0,1,0,4.813,2.406,2.406,0,0,1,0-4.812Z" fill="#1870c5"/>
      <path id="path3100" d="M53.8,21.252H51.851V14.135H53.8c2.6,0,4.666.856,4.666,3.513,0,2.744-2.068,3.6-4.666,3.6M32.852,26.34a8.083,8.083,0,0,1-2.831-.5l2.8-8.84h.06l2.745,8.864a8.251,8.251,0,0,1-2.774.478M53.281,8.353H44.444V29.366L36.724,8.353H29.072l-6.6,17.568c-.7-4.428-5.284-5.961-8.89-7.1-2.377-.765-4.907-1.889-4.884-3.134.02-1.018,1.359-1.962,4-1.821A14.347,14.347,0,0,1,19.169,15.6l3.07-5.348A23.877,23.877,0,0,0,12.23,7.883h-.02a12.167,12.167,0,0,0-8.839,3.233,7.477,7.477,0,0,0-2.115,5.157A6.924,6.924,0,0,0,4.29,22.44,20.856,20.856,0,0,0,10.3,25.191c2.455.757,4.459,1.418,4.436,2.827a2.049,2.049,0,0,1-.582,1.374,3.888,3.888,0,0,1-2.849.9A12.239,12.239,0,0,1,3.985,28.2L1.256,33.626a20.39,20.39,0,0,0,10,2.661h.461a12.115,12.115,0,0,0,7.6-2.553l.324-.283-.884,2.376H26.79l1.348-4.1a15.348,15.348,0,0,0,9.325.039l1.3,4.06H51.853v-8.49H54.71c6.9,0,10.986-3.512,10.986-9.406,0-6.56-3.968-9.569-12.416-9.569" fill="#fff" fill-rule="evenodd"/>
    </g>
  </g>
</svg>
