<svg xmlns="http://www.w3.org/2000/svg" xmlns:xlink="http://www.w3.org/1999/xlink" width="222" height="60" viewBox="0 0 222 60">
  <defs>
    <linearGradient id="linear-gradient" x1="-4.183" y1="0.143" x2="-3.174" y2="0.794" gradientUnits="objectBoundingBox">
      <stop offset="0" stop-color="#909ca9"/>
      <stop offset="1" stop-color="#ededee"/>
    </linearGradient>
    <linearGradient id="linear-gradient-2" x1="-8.133" y1="37.388" x2="-6.64" y2="37.388" gradientUnits="objectBoundingBox">
      <stop offset="0" stop-color="#939fab"/>
      <stop offset="1" stop-color="#dcdee1"/>
    </linearGradient>
    <radialGradient id="radial-gradient" cx="0.443" cy="0.439" r="0.128" gradientTransform="matrix(-0.691, -0.149, -0.208, 1.978, -19.227, -9.973)" gradientUnits="objectBoundingBox">
      <stop offset="0" stop-color="#ee352c"/>
      <stop offset="1" stop-color="#a91d22"/>
    </radialGradient>
    <clipPath id="clip-path">
      <path id="Path_16" data-name="Path 16" d="M332.589,986.315h43.337L446,999.059v16.386l-88.59,2.931-26.51-4Z" transform="translate(-330.899 -986.315)" fill="none" stroke="#707070" stroke-width="1"/>
    </clipPath>
    <clipPath id="clip-Web_1920_8">
      <rect width="222" height="60"/>
    </clipPath>
  </defs>
  <g id="Web_1920_8" data-name="Web 1920 – 8" clip-path="url(#clip-Web_1920_8)">
    <rect width="222" height="60" fill="#fff"/>
    <g id="Group_17" data-name="Group 17" transform="translate(229.532 -865.572)">
      <g id="Group_16" data-name="Group 16" transform="translate(-196.532 874.572)">
        <path id="Path_12" data-name="Path 12" d="M356.41,463.277l-8.3,2.709-7.218,3.186-2.019.533c-.514.489-1.053.985-1.637,1.486-.64.552-1.235,1.054-1.693,1.417a12.635,12.635,0,0,0-1.643,1.63,7.392,7.392,0,0,0-1.217,2.057,3.453,3.453,0,0,0,.489,3.1,11,11,0,0,0,4.534,3.4,28.805,28.805,0,0,0,3.988,1.336,52.808,52.808,0,0,0,8.5,1.21,9.751,9.751,0,0,0,1.1,0,14.95,14.95,0,0,0,.809-1.536,38.843,38.843,0,0,0,2.941-7.782,36.878,36.878,0,0,0,.752-5.393c.044-.608.063-2.646.025-3.336a23.437,23.437,0,0,0-.313-2.941.678.678,0,0,1-.019-.257,10.824,10.824,0,0,1,1.122-.339l-.207-.489h0Zm-1.894,1.11a20.307,20.307,0,0,1,.326,3.142,1.679,1.679,0,0,1-.006.426c-.05,0-1.06-.6-1.781-1.047-.627-.4-1.819-1.185-2.007-1.336-.063-.044-.057-.05.458-.226C352.377,465.052,354.447,464.387,354.516,464.387Zm-4.227,1.392a2.082,2.082,0,0,1,.546.295,38.874,38.874,0,0,0,3.8,2.113c.232.1.257.063-.276.426a27.329,27.329,0,0,1-4.308,2.314c-.307.138-.564.245-.571.245a1.626,1.626,0,0,1,.075-.345,18.49,18.49,0,0,0,.671-4.409c.006-.627.006-.627.063-.646C350.276,465.779,350.283,465.779,350.289,465.779Zm-.872.332a13.515,13.515,0,0,1-.038,1.825,15.959,15.959,0,0,1-.577,2.728,4.2,4.2,0,0,1-.144.439,11.03,11.03,0,0,1-1.167-1.135,8.483,8.483,0,0,1-1.154-1.681,5.289,5.289,0,0,1-.351-.853C346.088,467.366,349.392,466.086,349.417,466.112Zm-4.1,1.612a.023.023,0,0,1,.019.006,1.17,1.17,0,0,1,.094.226,8.473,8.473,0,0,0,1.041,1.862,10.613,10.613,0,0,0,1.449,1.561c.151.125.288.245.307.263.038.038.05.031-.972.42-1.185.452-2.477.9-3.957,1.38q-.53.171-1.06.345c-.057.019-.038-.013.125-.27a35.26,35.26,0,0,0,2.477-4.992c.107-.276.213-.552.232-.615a.226.226,0,0,1,.138-.163A.608.608,0,0,1,345.316,467.723Zm-1.254.52a14.041,14.041,0,0,1-.615,1.3c-.608,1.185-1.273,2.352-2.163,3.769-.15.245-.295.47-.314.5-.031.044-.044.031-.144-.163a5.75,5.75,0,0,1-.483-1.455,5.854,5.854,0,0,1,.031-1.869c.081-.389.075-.382.263-.477C341.441,469.435,344.037,468.219,344.062,468.244Zm10.817.439v.263a34.109,34.109,0,0,1-.37,4.716c-.038.245-.069.445-.075.451s-.182-.05-.4-.113a16.18,16.18,0,0,1-2.885-1.235,12.775,12.775,0,0,1-1.467-.9c.006-.006.27-.144.577-.307a36.959,36.959,0,0,0,3.43-2.013c.383-.257.959-.671,1.085-.784Zm-15.552,1.856c.025,0,.019.05-.019.276-.025.163-.056.464-.069.671a4.64,4.64,0,0,0,.552,2.521,5.213,5.213,0,0,1,.219.477c-.044.038-4.2,1.254-5.5,1.612l-.753.207c-.044.013-.05.006-.031-.1a6.589,6.589,0,0,1,1.825-3.142,8.112,8.112,0,0,1,2.063-1.58c.64-.364,1.624-.909,1.7-.934,0-.006.006-.006.013-.006Zm9.783,1.75a2.531,2.531,0,0,1,.339.182,18.891,18.891,0,0,0,4.8,1.869l.144.031-.2.113c-.834.464-3.574,1.605-6.377,2.653-.408.15-.809.3-.884.332a.453.453,0,0,1-.144.044c0-.006.113-.226.257-.5a30.944,30.944,0,0,0,1.975-4.5C349.073,472.4,349.1,472.295,349.11,472.288Zm-1,.326a1.807,1.807,0,0,1-.107.288,39.711,39.711,0,0,1-2.176,4.383c-.232.414-.426.746-.433.746s-.194-.113-.42-.251a12.9,12.9,0,0,1-3.28-2.791l-.113-.138.571-.157a40.943,40.943,0,0,0,5.506-1.9C347.906,472.7,348.107,472.614,348.113,472.614Zm6.2,2.163h0c.006.144-.314,1.436-.577,2.37-.219.784-.408,1.4-.752,2.483-.15.477-.282.872-.288.872a.414.414,0,0,1-.082-.019,26.21,26.21,0,0,1-5.1-1.436c-.439-.176-1.066-.458-1.1-.489a7.314,7.314,0,0,1,.84-.4c2.853-1.248,5.813-2.665,6.829-3.273a.817.817,0,0,1,.232-.113Zm-14.3.489c.013.013-.784,1.16-1.9,2.722-.389.546-.84,1.185-1.01,1.423s-.426.615-.571.84l-.264.408-.282-.238a10.44,10.44,0,0,1-1.166-1.192,5.146,5.146,0,0,1-1.047-2.025c-.069-.3-.069-.452-.006-.47.094-.025,1.768-.42,3.336-.784.872-.2,1.881-.439,2.245-.527S340,475.267,340,475.267Zm.8.307.2.226a11.775,11.775,0,0,0,2.941,2.408,1.646,1.646,0,0,1,.339.22c-.044.031-3.875,1.392-5.65,2.007-1,.351-1.819.633-1.825.633a1.077,1.077,0,0,1-.126-.082l-.113-.082.182-.263c.589-.853,1.329-1.787,2.941-3.731Zm5,3.581c.006-.006.282.094.621.22a20.065,20.065,0,0,0,2.327.721,25.76,25.76,0,0,0,3.518.608c.138.012.213.025.188.044-.044.025-.966.332-1.643.546-1.079.339-4.371,1.311-7.055,2.082-.5.144-.922.263-.947.27a.5.5,0,0,1-.27-.069,4.548,4.548,0,0,1,.332-.42,37.228,37.228,0,0,0,2.546-3.424C345.636,479.418,345.812,479.161,345.812,479.155Zm-1.1.031c.006.006-.439.721-1.216,1.95-.332.521-.7,1.11-.834,1.317s-.314.514-.42.69l-.182.32-.094-.025c-.226-.063-1.812-.621-2.232-.79a15.531,15.531,0,0,1-1.461-.671,6.1,6.1,0,0,1-1.079-.684c.013-.006.872-.238,1.906-.52,2.747-.746,4.27-1.179,5.268-1.492a2.51,2.51,0,0,1,.345-.094Zm7.807,1.831h.006c.025.063-.991,2.885-1.361,3.775-.081.2-.113.251-.157.245-.107-.006-1.58-.213-2.477-.345-1.561-.238-4.183-.7-4.841-.847l-.15-.031.934-.213c2.007-.451,2.972-.7,3.951-1a27.919,27.919,0,0,0,3.694-1.423,3.022,3.022,0,0,1,.4-.163Z" transform="translate(-332.512 -443.937)" fill="url(#linear-gradient)"/>
        <path id="Path_13" data-name="Path 13" d="M465.3,82.735a39.861,39.861,0,0,0-3.8,1.367,23.729,23.729,0,0,0-4.371,2.195,3.315,3.315,0,0,0-.847.847.586.586,0,0,0-.038.213l.84.8,2,.64,4.76.853,5.443.934.056-.47c-.019,0-.031-.006-.05-.006l-.715-.113-.144-.257c-.74-1.3-1.555-2.922-2.032-4.013a20.74,20.74,0,0,1-.916-2.527c-.107-.426-.119-.451-.188-.458h0Zm-.1.32h.006c.006.006.031.182.056.389a13.1,13.1,0,0,0,.608,2.64c.232.69.232.652-.038.571-.64-.176-3.505-.671-5.581-.959-.332-.044-.615-.088-.615-.094-.025-.025,1.5-.822,2.17-1.135C462.669,84.07,465.027,83.086,465.2,83.054Zm-6.045,2.809.245.081a37.378,37.378,0,0,0,6.515,1.242c.207.019.383.038.389.038a2.9,2.9,0,0,1-.4.207c-.89.445-1.869.991-2.546,1.411a2.6,2.6,0,0,1-.408.226c-.025,0-.157-.025-.295-.044l-.251-.038-.627-.615c-1.1-1.072-1.969-1.9-2.3-2.214Zm-.251.194.884,1.1c.483.608.972,1.2,1.079,1.336a2.06,2.06,0,0,1,.188.245c-.025.019-1.279-.226-1.944-.376-.684-.157-.966-.232-1.386-.364l-.345-.113V87.8c.006-.42.539-1.047,1.442-1.687Zm7.513,1.505c.025,0,.056.056.132.226.213.47.878,1.737,1.041,1.982.05.082.138.088-.746-.056-2.126-.345-2.809-.458-2.809-.47a.651.651,0,0,1,.144-.094,12.242,12.242,0,0,0,1.913-1.323c.144-.119.276-.232.3-.251C466.4,87.563,466.413,87.557,466.419,87.563Z" transform="translate(-449.959 -82.734)" fill="url(#linear-gradient-2)"/>
        <path id="Path_14" data-name="Path 14" d="M396.129,167.757a.625.625,0,0,0-.006.546,2.477,2.477,0,0,0,.589.7s2.79,2.722,3.129,3.11a8.718,8.718,0,0,1,2.276,5.957,9.646,9.646,0,0,1-.991,4.509c-1.3,2.847-4.057,5.989-8.3,9.475l.621-.207a19.943,19.943,0,0,1,2.226-1.323,79.352,79.352,0,0,1,10.353-4.634,129.123,129.123,0,0,1,21.014-5.631l.571-.088-.088-.138a19.328,19.328,0,0,0-1.26-1.775,15.067,15.067,0,0,0-4.452-3.706,33.019,33.019,0,0,0-9.663-3.242c-.759-.151-2.427-.439-3.781-.646-2.872-.445-4.728-.752-6.773-1.1-.734-.125-1.831-.314-2.559-.47a16.249,16.249,0,0,1-1.662-.445C396.919,168.466,396.267,168.29,396.129,167.757Zm1.618,1.568a1.751,1.751,0,0,1,.238.075c.238.081.546.176.909.276q.413.114.828.219c.376.094.69.182.7.182.044.044.677,2.069.891,2.847.081.295.144.546.138.546a1.269,1.269,0,0,1-.157-.245,13.052,13.052,0,0,0-3.236-3.656A2.672,2.672,0,0,1,397.747,169.325Zm3.085.853a2.463,2.463,0,0,1,.339.056c1.066.238,2.979.6,4.2.809a1.536,1.536,0,0,1,.37.081.633.633,0,0,1-.169.107c-.207.107-1.041.6-1.317.79a12.014,12.014,0,0,0-1.775,1.417c-.182.182-.339.332-.339.332s-.038-.107-.069-.238a20.322,20.322,0,0,0-1.122-3.073,2.688,2.688,0,0,1-.125-.288C400.826,170.184,400.826,170.178,400.833,170.178Zm5.431,1.035a2.413,2.413,0,0,1,.226.7,10.264,10.264,0,0,1,.3,2.872,5.4,5.4,0,0,1-.038.539l-.019.063-.326-.107c-.671-.213-1.762-.533-2.7-.8-.533-.144-.966-.276-.966-.288a14.822,14.822,0,0,1,1.11-1.11A29.1,29.1,0,0,1,406.263,171.212Zm.433.063c.019-.019,2.6.426,3.769.652.872.169,2.138.433,2.214.464.038.013-.094.088-.514.276a27.217,27.217,0,0,0-4.107,2.232c-.32.213-.59.389-.6.389a3.407,3.407,0,0,1-.013-.4,8.759,8.759,0,0,0-.677-3.411A.95.95,0,0,1,406.7,171.275Zm6.666,1.317a4.717,4.717,0,0,1-.138.828,15.721,15.721,0,0,1-1.58,3.625,4.131,4.131,0,0,1-.264.426,2.677,2.677,0,0,1-.376-.2,20.416,20.416,0,0,0-2.458-1.2c-.251-.107-.47-.194-.477-.207-.044-.038,1.975-1.373,3.041-2.013C411.957,173.332,413.337,172.567,413.362,172.592Zm.477.075c.056,0,1.2.314,1.793.489a37,37,0,0,1,4.27,1.561l.458.207-.32.075a46.746,46.746,0,0,0-7.23,2.239c-.182.075-.345.138-.357.138a1.613,1.613,0,0,1,.132-.32,12.7,12.7,0,0,0,1.21-4.176C413.8,172.761,413.819,172.667,413.838,172.667Zm-11.363,2.609c.019-.019.89.188,1.361.32.715.2,2.232.709,2.232.746,0,.006-.169.15-.37.326-.822.684-1.612,1.4-2.559,2.32-.282.27-.52.489-.533.489s-.019-.038-.013-.088a14.138,14.138,0,0,0-.088-3.781C402.488,175.433,402.469,175.282,402.475,175.276Zm18.317.019a12.047,12.047,0,0,1-.665,1.035c-.376.539-.928,1.254-2.176,2.822-.658.828-1.4,1.762-1.643,2.076s-.458.577-.464.577a2.167,2.167,0,0,1-.176-.251,12.958,12.958,0,0,0-2.54-2.8c-.188-.157-.395-.326-.464-.376a.7.7,0,0,1-.125-.107c0-.019,1.066-.477,1.875-.8,1.417-.577,3.348-1.267,4.8-1.712C419.971,175.514,420.78,175.282,420.793,175.295Zm.483.125a1.445,1.445,0,0,1,.357.176,21.27,21.27,0,0,1,4.2,3.148c.332.326,1.154,1.179,1.141,1.185s-.288.025-.627.05a61.812,61.812,0,0,0-9.268,1.543c-.219.05-.414.094-.426.094s.232-.245.539-.539a16.044,16.044,0,0,0,3.806-5.067c.144-.307.27-.571.282-.589Zm-13.965,1.43c.088.019.9.4,1.518.709.564.282,1.411.734,1.455.771.006.006-.295.163-.665.345-1.179.589-2.189,1.148-3.242,1.787-.3.182-.552.332-.558.332-.025,0-.019-.025.151-.332a13.1,13.1,0,0,0,1.273-3.455C407.266,176.913,407.292,176.85,407.31,176.85Zm-.815.15a11.969,11.969,0,0,1-.326,1.21,15.445,15.445,0,0,1-1.11,2.546c-.1.175-.251.433-.332.577l-.157.251-.351-.339a4.606,4.606,0,0,0-1.166-.859,1.685,1.685,0,0,1-.3-.175c0-.05,1.072-1.022,1.894-1.724.589-.508,1.831-1.505,1.85-1.486Zm4.985,2.051.307.2a23.839,23.839,0,0,1,2.163,1.6c.357.295,1.047.916,1.185,1.066l.075.082-.508.144c-2.872.8-5.092,1.5-7.682,2.458-.288.107-.533.194-.552.194-.038,0-.069.031.577-.564a27.533,27.533,0,0,0,4.214-4.841Zm-1.311.326c.013.012-.847,1.223-1.361,1.906-.615.815-1.706,2.182-2.458,3.073-.313.37-.583.677-.6.684s-.025-.088-.025-.232a5.256,5.256,0,0,0-.533-2.258c-.144-.288-.169-.357-.138-.389.119-.107,1.944-1.148,3.1-1.768.778-.414,1.994-1.028,2.013-1.016Zm-7.926,1.944a2.772,2.772,0,0,1,.326.163,6.887,6.887,0,0,1,1.079.727,1.872,1.872,0,0,1-.364.3c-.6.426-1.5,1.11-2.025,1.53-.552.439-.571.451-.508.357a11.559,11.559,0,0,0,.84-1.449,11.678,11.678,0,0,0,.527-1.311A1.062,1.062,0,0,1,402.243,181.321Zm2.113,1.655c.031-.006.069.05.238.3a4.524,4.524,0,0,1,.7,1.825l.012.125-.859.332c-1.536.6-2.954,1.185-3.913,1.624-.27.125-.74.351-1.047.5s-.558.276-.558.27.194-.15.433-.326a25.285,25.285,0,0,0,4.716-4.346c.132-.157.251-.3.263-.307Zm-.972.238a13.248,13.248,0,0,1-1.179,1.329,20.8,20.8,0,0,1-3.894,3.142l-.376.238c-.044.025.012-.038.665-.746.414-.445.727-.821,1.085-1.285a2.12,2.12,0,0,1,.627-.6C401.234,184.632,403.36,183.19,403.385,183.215Z" transform="translate(-389.759 -163.436)" fill="url(#radial-gradient)"/>
      </g>
      <g id="Mask_Group_1" data-name="Mask Group 1" transform="translate(-156.187 883.12)" clip-path="url(#clip-path)">
        <path id="Path_15" data-name="Path 15" d="M20.328,797.789c-.174,0-.348.017-.521.017a7.78,7.78,0,0,0-7.275,4.757,12.543,12.543,0,0,0,.013,9.057c1.244,2.687,3.255,4.106,6.61,4.641.71.116,1.186.506,2.561,2.112l1.692,1.982h3.069L24.437,818.3a21.791,21.791,0,0,1-2.04-2.2c0-.086.431-.275.954-.435a7.012,7.012,0,0,0,4.152-3.89,8.171,8.171,0,0,0,1.042-4.18c.3-6.063-2.893-9.853-8.216-9.81Zm2.69,15.855a7.22,7.22,0,0,1-5.076.348,6.547,6.547,0,0,1-3.517-3.777,10.725,10.725,0,0,1,.2-6.914c1.3-2.488,3.024-3.633,5.54-3.633,3.732,0,5.855,2.286,6.133,6.582.219,3.586-.982,6.277-3.281,7.392ZM76.03,802.967a3.287,3.287,0,0,0-2.936,1.547l-.521.813v-2.113H70.345v12.673h2.226v-4.051c0-3.7.046-4.137.564-5.151a2.78,2.78,0,0,1,3.127-1.751l.8.232v-2.2H76.03Zm-13.088-.116a5.977,5.977,0,0,0-5.919,6.728c0,2.458.478,3.687,1.664,4.976,2.43,1.994,4.628,2.153,7.594,1.083.506-.216,1.057-.464,1.057-.464v-1.994l-1.057.547c-2.4,1.045-4.208,1.045-5.657-.186a5.708,5.708,0,0,1-1.518-3.356H68.09v-1.709c0-3.483-2.1-5.683-5.149-5.627h0Zm-3.633,5.557s.332-2.173,1.563-3.026a3.359,3.359,0,0,1,1.937-.62,3.1,3.1,0,0,1,1.881.635c1.128.868,1.317,2.994,1.317,2.994h-6.7v.016ZM5.6,806.123c-2.415-1.463-3.487-2.518-3.356-3.762.375-3.442,4.628-2.966,6.983-1.664l.017-2.316a9.082,9.082,0,0,0-3.168-.594c-2.863-.043-4.714.9-5.582,2.807-1.274,2.82-.146,4.946,3.931,7.319,2.289,1.332,3.3,2.488,3.3,3.749,0,2.6-3.14,3.513-6.38,1.879-.667-.332-1.231-.609-1.261-.609a20,20,0,0,0-.056,2.5,13.84,13.84,0,0,0,2.488.706c3.7.738,7.071-1,7.39-3.818.277-2.647-.68-4.036-4.308-6.2v0Zm90.143-3.3a6.745,6.745,0,0,0-1.377.161,6.345,6.345,0,0,0-4.54,6.569c0,2.455.476,3.672,1.662,4.96,2.43,2,4.628,2.156,7.609,1.085.5-.216,1.053-.461,1.053-.461v-2l-1.055.551c-2.405,1.042-4.213,1.042-5.656-.189a5.635,5.635,0,0,1-1.52-3.356h8.967v-1.708c0-3.467-2.1-5.668-5.149-5.61l.005,0Zm-3.633,5.557a5.276,5.276,0,0,1,1.564-3.039,3.341,3.341,0,0,1,1.936-.622,3.1,3.1,0,0,1,1.881.637c1.128.868,1.317,3.009,1.317,3.009h-6.7l0,.015Zm-40.833-2.228c-2.415-1.46-3.483-2.518-3.354-3.762.375-3.444,4.628-2.966,6.984-1.664l.017-2.316a9.04,9.04,0,0,0-3.168-.591c-2.863-.043-4.714.9-5.583,2.807-1.272,2.82-.129,4.947,3.935,7.319,2.286,1.33,3.3,2.472,3.3,3.732,0,2.6-3.138,3.528-6.378,1.879-.664-.332-1.227-.606-1.261-.606a20,20,0,0,0-.056,2.5,15.157,15.157,0,0,0,2.471.707c3.706.74,7.076-1,7.393-3.815.275-2.634-.68-4.023-4.3-6.192v0Zm57.555-3.213a3.274,3.274,0,0,0-2.936,1.549l-.521.81v-2.11h-2.228v12.67h2.226v-4.051c0-3.7.045-4.137.564-5.149a2.779,2.779,0,0,1,3.127-1.75l.8.232v-2.2h-1.028Zm-75.271,3.14v-8.072H31.319v17.879h9.445v-2.111h-7.2v-7.7Zm51.94,2.516-1.851,4.817-1.78-4.844L80.066,803.2h-2.3c1.49,4.223,3.11,8.52,4.744,12.685.708.017,1.418,0,2.126,0l2.5-6.277,2.546-6.406h-2.2s-.971,2.545-1.982,5.394l0,0Zm-46.764-15.46a1.23,1.23,0,0,0,.912-.365,1.21,1.21,0,0,0,.375-.9,1.189,1.189,0,0,0-.375-.9,1.248,1.248,0,0,0-.9-.348,1.231,1.231,0,0,0-.912.362,1.207,1.207,0,0,0-.362.9,1.169,1.169,0,0,0,.362.9,1.219,1.219,0,0,0,.9.348v0Zm-.8-2.057a1.136,1.136,0,0,1,1.941.8,1.114,1.114,0,0,1-.332.809,1.084,1.084,0,0,1-.8.318,1.058,1.058,0,0,1-.8-.318,1.114,1.114,0,0,1-.332-.809A1.07,1.07,0,0,1,37.944,791.077Zm.536.912h.146c.1,0,.2.1.29.289l.174.391h.274l-.216-.435c-.088-.174-.174-.275-.275-.3a.528.528,0,0,0,.3-.159.4.4,0,0,0,.1-.29.37.37,0,0,0-.129-.305.726.726,0,0,0-.465-.128H38.22v1.621h.232v-.68h.028Zm0-.753h.2a.518.518,0,0,1,.305.073c.055.043.07.1.07.2,0,.187-.116.275-.332.275h-.249v-.551h0Zm-37.1.609c0-.564-.017-.984-.03-1.231h.013a3.7,3.7,0,0,0,.187.653l2.156,4.817h.362l2.156-4.86a4.387,4.387,0,0,0,.188-.609h.017c-.043.481-.058.9-.058,1.232V796.1h.738v-6.32H6.183l-1.982,4.4c-.073.174-.174.435-.3.78h-.03a5.062,5.062,0,0,0-.289-.75l-1.938-4.441H.658v6.32h.71v-4.237l.012,0Zm7.347.012h.637v3.936H8.726Zm.319-1.443a.449.449,0,0,0,.332-.133.46.46,0,0,0,.146-.332.417.417,0,0,0-.144-.332.464.464,0,0,0-.335-.133.454.454,0,0,0-.332.133.466.466,0,0,0-.146.332.4.4,0,0,0,.146.332.478.478,0,0,0,.332.133h0Zm4.86,5.466v-.693a1.834,1.834,0,0,1-1.111.39,1.44,1.44,0,0,1-1.116-.464,1.8,1.8,0,0,1-.42-1.244,1.869,1.869,0,0,1,.448-1.314,1.457,1.457,0,0,1,1.128-.478,1.85,1.85,0,0,1,1.072.349v-.738a2.206,2.206,0,0,0-1.042-.232,2.23,2.23,0,0,0-1.708.68,2.543,2.543,0,0,0-.634,1.792,2.3,2.3,0,0,0,.577,1.622,2.052,2.052,0,0,0,1.563.65,2.55,2.55,0,0,0,1.244-.319Zm1.823-2.1a2.041,2.041,0,0,1,.332-1.228.908.908,0,0,1,.738-.391.848.848,0,0,1,.547.146v-.753a1.147,1.147,0,0,0-.431-.058,1.1,1.1,0,0,0-.7.249,1.523,1.523,0,0,0-.489.763h-.017v-.924H14.99V796.1h.723v-2.316Zm4.152,2.405a2.135,2.135,0,0,0,1.634-.654,2.845,2.845,0,0,0,.043-3.457,1.994,1.994,0,0,0-1.576-.622,2.264,2.264,0,0,0-1.634.594,2.461,2.461,0,0,0-.664,1.822,2.351,2.351,0,0,0,.577,1.664,2.1,2.1,0,0,0,1.619.652v0Zm-1.028-3.676a1.426,1.426,0,0,1,1.085-.435,1.349,1.349,0,0,1,1.072.435,2.419,2.419,0,0,1,.028,2.589,1.318,1.318,0,0,1-1.085.464,1.41,1.41,0,0,1-1.1-.464,1.828,1.828,0,0,1-.4-1.274,1.771,1.771,0,0,1,.4-1.315Zm6.436,3.283a1.185,1.185,0,0,0,.421-.926,1.13,1.13,0,0,0-.332-.824,2.56,2.56,0,0,0-.841-.491,2.627,2.627,0,0,1-.68-.377.619.619,0,0,1-.187-.464.546.546,0,0,1,.216-.448.891.891,0,0,1,.581-.172,1.7,1.7,0,0,1,1.028.32v-.723a2.12,2.12,0,0,0-.97-.215,1.721,1.721,0,0,0-1.145.375,1.239,1.239,0,0,0-.159,1.748,2.338,2.338,0,0,0,.81.506,3.037,3.037,0,0,1,.738.42.551.551,0,0,1,.187.432c0,.421-.289.639-.853.639a1.788,1.788,0,0,1-1.173-.431v.779a2.133,2.133,0,0,0,1.111.276,1.962,1.962,0,0,0,1.244-.42Zm3.444-4.339a2.264,2.264,0,0,0-1.634.594,2.474,2.474,0,0,0-.664,1.822,2.359,2.359,0,0,0,.577,1.664,2.355,2.355,0,0,0,3.255,0,2.43,2.43,0,0,0,.609-1.735,2.474,2.474,0,0,0-.564-1.722,2.039,2.039,0,0,0-1.576-.622l0,0Zm1.4,2.372a1.941,1.941,0,0,1-.362,1.274,1.319,1.319,0,0,1-1.085.464,1.41,1.41,0,0,1-1.1-.464,1.828,1.828,0,0,1-.4-1.274,1.855,1.855,0,0,1,.435-1.33,1.427,1.427,0,0,1,1.085-.435,1.372,1.372,0,0,1,1.068.435,2.2,2.2,0,0,1,.362,1.33h0Zm1.954,2.258h.722v-3.906h1.057v-.607H32.81v-.7c0-.634.245-.952.753-.952a1,1,0,0,1,.474.116v-.652a1.324,1.324,0,0,0-.521-.071,1.346,1.346,0,0,0-.969.362,1.522,1.522,0,0,0-.464,1.171v.74h-.763v.607h.763v3.892Zm2.964-1.231c0,.883.39,1.332,1.186,1.332a1.3,1.3,0,0,0,.68-.149v-.62a.755.755,0,0,1-.464.146.615.615,0,0,1-.519-.189,1.059,1.059,0,0,1-.161-.65v-2.546h1.144v-.607H35.775v-1.33c-.249.086-.493.159-.723.232v1.1h-.78v.607h.78v2.676Zm77.631,8.317a1.242,1.242,0,0,0-.9-.348,1.241,1.241,0,0,0-1.274,1.261,1.183,1.183,0,0,0,.36.9,1.273,1.273,0,0,0,.912.349,1.244,1.244,0,0,0,.912-.362,1.222,1.222,0,0,0,.373-.9,1.254,1.254,0,0,0-.39-.9Zm-.116,1.709a1.163,1.163,0,0,1-1.592,0,1.125,1.125,0,0,1-.332-.813,1.084,1.084,0,0,1,1.128-1.111,1.081,1.081,0,0,1,.8.315,1.1,1.1,0,0,1,.332.8A1.041,1.041,0,0,1,112.568,804.878Zm-.65-.738a.624.624,0,0,0,.3-.159.4.4,0,0,0,.1-.292.369.369,0,0,0-.129-.3.728.728,0,0,0-.464-.128h-.461v1.619h.232v-.68h.144c.1,0,.2.1.289.289l.172.39h.276l-.216-.435c-.075-.189-.161-.275-.249-.3Zm-.159-.146h-.249v-.547h.2a.508.508,0,0,1,.3.071c.058.043.071.1.071.2,0,.187-.116.274-.332.274ZM71.4,791.382h.2v-1.621h.536v-.2H70.866v.2H71.4v1.621Zm1.227-1.218a2.921,2.921,0,0,0-.012-.36,1.006,1.006,0,0,0,.056.187l.622,1.39h.1l.624-1.4c.017-.043.03-.1.058-.174-.013.144-.013.348-.013.348v1.228h.216v-1.822H74.02l-.564,1.257c-.013.045-.058.133-.086.232h-.017a1.322,1.322,0,0,0-.083-.216l-.564-1.274h-.292v1.825h.2v-1.218l.012,0Z" transform="translate(1.69 -789.314)" fill="#231f1f"/>
      </g>
    </g>
  </g>
</svg>
