<svg xmlns="http://www.w3.org/2000/svg" width="36" height="29.25" viewBox="0 0 36 29.25"><defs><style>.a{fill:#323232;}</style></defs><g transform="translate(-664.611 -369.298)"><path class="a" d="M668.072,388.648V377.173h-.83a2.431,2.431,0,0,0-2.631,2.137v19.238l5.063-4.078h18.614a2.454,2.454,0,0,0,2.631-2.173v-.5h-18.97C670.2,391.8,668.072,390.068,668.072,388.648Z"/><path class="a" d="M697.59,369.3H673.429a2.789,2.789,0,0,0-3.02,2.454v15.9a2.794,2.794,0,0,0,3.02,2.461h20.613l6.569,3.727V371.752A2.79,2.79,0,0,0,697.59,369.3Zm.021,19.387-2.088-1.184-.689-.391H673.409V372.3h24.2Z"/></g></svg>