<svg xmlns="http://www.w3.org/2000/svg" width="34.625" height="31.002" viewBox="0 0 34.625 31.002"><defs><style>.a{fill:#323232;}</style></defs><path class="a" d="M687.415,399.353H667.2a1.912,1.912,0,0,1-1.906-1.911v-5.435a1.913,1.913,0,0,1,1.9-1.907h2.788l2.354-1.911a7.7,7.7,0,0,1,4.83-1.712h9.057a2.715,2.715,0,0,1,.476.041,2.815,2.815,0,0,1,2.3,3.245,2.912,2.912,0,0,1-1.81,2.15h1.215a2.62,2.62,0,0,0,1.634-.573l5.232-4.187a2.867,2.867,0,0,1,3.681.016l.022.018a3,3,0,0,1,.334.351,2.812,2.812,0,0,1-.451,3.952l-8.56,6.851A4.648,4.648,0,0,1,687.415,399.353Zm-20.117-2h20.116a2.637,2.637,0,0,0,1.638-.575l8.562-6.852a.8.8,0,0,0,.3-.544.81.81,0,0,0-.171-.6,1.129,1.129,0,0,0-.082-.088.873.873,0,0,0-1.121,0l-5.251,4.2a4.624,4.624,0,0,1-2.881,1.012H681.7a1.906,1.906,0,1,1,0-3.812h4.434a.926.926,0,0,0,.907-.708.8.8,0,0,0-.144-.573.815.815,0,0,0-.529-.332.825.825,0,0,0-.137-.011h-9.057a5.683,5.683,0,0,0-3.57,1.266l-2.9,2.357h-3.4Zm15.315-12.5h-.071a1.976,1.976,0,0,1-1.38-.626l-6.277-6.589a5.7,5.7,0,0,1,.491-8.042,5.292,5.292,0,0,1,7.232.4,5.29,5.29,0,0,1,7.213-.42l.14.125a5.7,5.7,0,0,1,.268,8.057l-6.27,6.572A1.963,1.963,0,0,1,682.613,384.854Zm-.005-2-.719.686.732-.682S682.613,382.854,682.608,382.854Zm-3.836-12.5a3.281,3.281,0,0,0-2.1.759,3.7,3.7,0,0,0-.29,5.2l6.225,6.533,6.163-6.466a3.7,3.7,0,0,0-.18-5.223l-.074-.068a3.292,3.292,0,0,0-4.534.358l-1.376,1.44-1.352-1.411A3.333,3.333,0,0,0,678.772,370.356Z" transform="translate(-665.298 -368.351)"/></svg>