<svg xmlns="http://www.w3.org/2000/svg" width="36" height="36" viewBox="0 0 36 36"><defs><style>.a{fill:#323232;}</style></defs><path class="a" d="M37.068,35.574h-3v-1.5h-1.5v1.5H29.575v-1.5h-1.5v1.5h-3v-1.5h-1.5v1.5h-3v-1.5h-1.5v1.5h-3v-1.5h-1.5v1.5h-6.6l7.9-4.75L19.788,19.39,25.6,29.6,36.859,10.842,34.288,9.3l-8.62,14.364L19.1,12.124,13.39,28.816l-7.823,4.7V2.571h-3v36h36v-4.5h-1.5Zm0-33h1.5v1.5h-1.5Zm-4.5,0h1.5v1.5h-1.5Zm-4.5,0h1.5v1.5h-1.5Zm-4.5,0h1.5v1.5h-1.5Zm-4.5,0h1.5v1.5h-1.5Zm-4.5,0h1.5v1.5h-1.5Zm-4.5,0h1.5v1.5h-1.5Zm-4.5,0h1.5v1.5h-1.5Zm31.5,4.5h1.5v1.5h-1.5Zm-4.5,0h1.5v1.5h-1.5Zm-4.5,0h1.5v1.5h-1.5Zm-4.5,0h1.5v1.5h-1.5Zm-4.5,0h1.5v1.5h-1.5Zm-4.5,0h1.5v1.5h-1.5Zm-4.5,0h1.5v1.5h-1.5Zm-4.5,0h1.5v1.5h-1.5Zm31.5,4.5h1.5v1.5h-1.5Zm-9,0h1.5v1.5h-1.5Zm-4.5,0h1.5v1.5h-1.5Zm-9,0h1.5v1.5h-1.5Zm-4.5,0h1.5v1.5h-1.5Zm-4.5,0h1.5v1.5h-1.5Zm31.5,4.5h1.5v1.5h-1.5Zm-13.5,0h1.5v1.5h-1.5Zm-9,0h1.5v1.5h-1.5Zm-4.5,0h1.5v1.5h-1.5Zm-4.5,0h1.5v1.5h-1.5Zm31.5,4.5h1.5v1.5h-1.5Zm-4.5,0h1.5v1.5h-1.5Zm-22.5,0h1.5v1.5h-1.5Zm-4.5,0h1.5v1.5h-1.5Zm31.5,4.5h1.5v1.5h-1.5Zm-4.5,0h1.5v1.5h-1.5Zm-13.5,0h1.5v1.5h-1.5Zm-9,0h1.5v1.5h-1.5Zm-4.5,0h1.5v1.5h-1.5Zm31.5,4.5h1.5v1.5h-1.5Zm-4.5,0h1.5v1.5h-1.5Zm-4.5,0h1.5v1.5h-1.5Zm-9,0h1.5v1.5h-1.5Zm-13.5,0h1.5v1.5h-1.5Z" transform="translate(-2.571 -2.571)"/></svg>