<svg xmlns="http://www.w3.org/2000/svg" width="34.499" height="34.499" viewBox="0 0 34.499 34.499"><defs><style>.a{fill:#323232;}</style></defs><g transform="translate(-665.361 -366.605)"><path class="a" d="M682.611,375.9a1.5,1.5,0,0,1-1.5-1.5v-6.3a1.5,1.5,0,0,1,3,0v6.3A1.5,1.5,0,0,1,682.611,375.9Z"/><path class="a" d="M682.611,401.1a1.5,1.5,0,0,1-1.5-1.5v-6.3a1.5,1.5,0,1,1,3,0v6.3A1.5,1.5,0,0,1,682.611,401.1Z"/><path class="a" d="M675.937,378.682a1.5,1.5,0,0,1-1.06-.439l-4.457-4.457a1.5,1.5,0,0,1,2.121-2.121L677,376.122a1.5,1.5,0,0,1-1.061,2.56Z"/><path class="a" d="M693.746,396.49a1.493,1.493,0,0,1-1.06-.439l-4.457-4.457a1.5,1.5,0,0,1,2.121-2.121l4.457,4.457a1.5,1.5,0,0,1-1.061,2.56Z"/><path class="a" d="M673.161,385.355h-6.3a1.5,1.5,0,0,1,0-3h6.3a1.5,1.5,0,0,1,0,3Z"/><path class="a" d="M698.36,385.355h-6.3a1.5,1.5,0,0,1,0-3h6.3a1.5,1.5,0,0,1,0,3Z"/><path class="a" d="M671.48,396.49a1.5,1.5,0,0,1-1.06-2.56l4.457-4.457A1.5,1.5,0,0,1,677,391.594l-4.457,4.457A1.5,1.5,0,0,1,671.48,396.49Z"/><path class="a" d="M689.289,378.677a1.5,1.5,0,0,1-1.06-2.562l4.458-4.451a1.5,1.5,0,1,1,2.119,2.123l-4.457,4.451A1.491,1.491,0,0,1,689.289,378.677Z"/></g></svg>