<svg xmlns="http://www.w3.org/2000/svg" width="34.814" height="34.5" viewBox="0 0 34.814 34.5"><defs><style>.a{fill:#323232;}</style></defs><g transform="translate(-665.204 -419.604)"><path class="a" d="M677.2,454.1a3,3,0,1,1,3-3A3,3,0,0,1,677.2,454.1Zm0-3h0Z"/><path class="a" d="M693.7,454.1a3,3,0,1,1,3-3A3,3,0,0,1,693.7,454.1Zm0-3h0Z"/><path class="a" d="M678.137,445.105a4.487,4.487,0,0,1-4.384-3.623L669.975,422.6H665.2v-3h7.23l1.5,7.5h26.083l-2.741,14.368a4.5,4.5,0,0,1-4.414,3.633H678.137Zm-3.6-15L676.7,440.9a1.547,1.547,0,0,0,1.5,1.208h14.64a1.5,1.5,0,0,0,1.5-1.205l2.059-10.795Z"/></g></svg>