<svg xmlns="http://www.w3.org/2000/svg" width="26.177" height="34.236" viewBox="0 0 26.177 34.236"><defs><style>.a{fill:#323232;}</style></defs><g transform="translate(-669.784 -367.653)"><path class="a" d="M671.791,401.889a2.012,2.012,0,0,1-2.007-2.009V369.664A2.008,2.008,0,0,1,673,368.057l.159.149,1.779,2.077,2.668-2.2a2.02,2.02,0,0,1,2.448-.024l2.819,2.321,2.79-2.3a2.018,2.018,0,0,1,2.449-.024l2.7,2.221,1.936-2.222a2.017,2.017,0,0,1,1.211-.406h0a2.008,2.008,0,0,1,2,2.014v30.214a2.009,2.009,0,0,1-3.212,1.606l-.16-.15-1.779-2.075-2.668,2.2a2.014,2.014,0,0,1-2.449.024l-2.82-2.321-2.79,2.3a2.018,2.018,0,0,1-2.449.023l-2.7-2.22L673,401.487A2.024,2.024,0,0,1,671.791,401.889Zm11.082-5.318,4.06,3.344,4.119-3.444,2.9,3.378.013-30.173-2.91,3.4-4.182-3.443-4,3.344-4.059-3.344-4.118,3.446-2.9-3.381-.012,30.171,2.909-3.393,4.181,3.444Z"/><rect class="a" width="14.528" height="2" transform="translate(675.609 377.645)"/><rect class="a" width="14.528" height="2" transform="translate(675.609 383.092)"/><rect class="a" width="14.528" height="2" transform="translate(675.609 388.54)"/></g></svg>