<svg width="594" height="645" viewBox="0 0 594 645" fill="none" xmlns="http://www.w3.org/2000/svg">
<rect x="0.5" y="0.5" width="593" height="644" fill="white"/>
<path d="M92.0357 218.806C91.7413 220.996 93.2776 223.009 95.467 223.303C97.6564 223.598 99.67 222.062 99.9643 219.872L92.0357 218.806ZM507.732 241.795C509.552 243.047 512.043 242.588 513.295 240.768L533.705 211.113C534.958 209.293 534.498 206.802 532.678 205.55C530.858 204.297 528.368 204.757 527.115 206.577L508.973 232.937L482.613 214.795C480.793 213.542 478.302 214.002 477.05 215.822C475.797 217.642 476.257 220.132 478.077 221.385L507.732 241.795ZM96 219.339C99.9643 219.872 99.964 219.874 99.9638 219.876C99.9638 219.876 99.9636 219.877 99.9637 219.877C99.9637 219.877 99.964 219.875 99.9646 219.87C99.9658 219.862 99.968 219.846 99.9715 219.822C99.9784 219.775 99.99 219.697 100.007 219.59C100.041 219.376 100.095 219.044 100.176 218.603C100.336 217.72 100.599 216.399 101 214.702C101.803 211.307 103.157 206.415 105.35 200.526C109.737 188.742 117.467 173.002 130.82 157.257C157.408 125.904 206.744 94 297.984 94L297.984 86C204.629 86 152.973 118.765 124.718 152.082C110.65 168.672 102.495 185.267 97.8528 197.734C95.5311 203.97 94.0846 209.183 93.215 212.861C92.7801 214.701 92.4892 216.159 92.305 217.17C92.2129 217.676 92.1475 218.071 92.1042 218.346C92.0825 218.484 92.0664 218.591 92.0551 218.668C92.0495 218.707 92.0451 218.738 92.0419 218.761C92.0403 218.772 92.039 218.782 92.038 218.789C92.0374 218.793 92.0369 218.797 92.0366 218.799C92.0361 218.803 92.0357 218.806 96 219.339ZM297.984 94C389.025 94 440.901 130.541 470.101 166.761C484.755 184.937 493.764 203.122 499.107 216.756C501.777 223.57 503.525 229.234 504.603 233.174C505.141 235.144 505.512 236.681 505.745 237.714C505.862 238.231 505.945 238.621 505.997 238.876C506.023 239.004 506.042 239.097 506.053 239.156C506.059 239.186 506.063 239.206 506.065 239.218C506.066 239.224 506.067 239.227 506.067 239.229C506.067 239.23 506.067 239.229 506.067 239.229C506.067 239.228 506.067 239.226 510 238.5C513.933 237.774 513.933 237.771 513.932 237.767C513.932 237.765 513.931 237.761 513.931 237.758C513.929 237.75 513.927 237.74 513.925 237.728C513.92 237.704 513.914 237.671 513.906 237.629C513.889 237.545 513.866 237.425 513.834 237.272C513.772 236.965 513.678 236.521 513.548 235.95C513.29 234.808 512.891 233.155 512.32 231.064C511.176 226.883 509.341 220.946 506.555 213.838C500.988 199.628 491.605 180.688 476.329 161.74C445.669 123.709 391.537 86 297.984 86L297.984 94Z" fill="#3C3C3C"/>
<path d="M507.968 418.502C508.246 416.31 506.694 414.309 504.502 414.032C502.31 413.754 500.309 415.306 500.032 417.498L507.968 418.502ZM92.2794 400.713C90.4641 399.454 87.9719 399.905 86.713 401.721L66.1981 431.303C64.9392 433.119 65.3902 435.611 67.2056 436.87C69.0209 438.129 71.5131 437.677 72.772 435.862L91.0075 409.566L117.303 427.802C119.119 429.061 121.611 428.61 122.87 426.794C124.129 424.979 123.677 422.487 121.862 421.228L92.2794 400.713ZM504 418C500.032 417.498 500.032 417.496 500.032 417.495C500.032 417.495 500.032 417.494 500.032 417.494C500.032 417.495 500.032 417.498 500.031 417.503C500.03 417.512 500.027 417.53 500.024 417.556C500.017 417.608 500.005 417.693 499.988 417.808C499.953 418.04 499.898 418.396 499.817 418.869C499.655 419.815 499.391 421.228 498.988 423.04C498.182 426.665 496.823 431.883 494.623 438.162C490.223 450.727 482.476 467.493 469.104 484.256C442.484 517.626 393.166 551.5 302.016 551.5L302.016 559.5C395.461 559.5 447.135 524.624 475.358 489.244C489.408 471.632 497.545 454.023 502.174 440.807C504.489 434.195 505.931 428.671 506.797 424.776C507.23 422.829 507.519 421.287 507.702 420.219C507.794 419.685 507.859 419.27 507.901 418.981C507.923 418.836 507.939 418.723 507.95 418.643C507.955 418.603 507.959 418.571 507.962 418.548C507.964 418.536 507.965 418.526 507.966 418.518C507.967 418.515 507.967 418.51 507.968 418.509C507.968 418.505 507.968 418.502 504 418ZM302.016 551.5C211.006 551.5 159.135 514.236 129.924 477.27C115.264 458.719 106.249 440.158 100.903 426.238C98.2314 419.282 96.4811 413.498 95.4024 409.474C94.8632 407.463 94.4923 405.892 94.2583 404.836C94.1413 404.308 94.0585 403.909 94.0061 403.648C93.9799 403.517 93.9613 403.421 93.9498 403.361C93.944 403.33 93.94 403.309 93.9378 403.297C93.9366 403.291 93.9359 403.287 93.9356 403.285C93.9355 403.285 93.9356 403.285 93.9355 403.285C93.9357 403.286 93.936 403.288 90 404C86.064 404.712 86.0645 404.715 86.0651 404.719C86.0654 404.721 86.0662 404.725 86.0669 404.728C86.0683 404.736 86.0701 404.746 86.0724 404.758C86.0769 404.783 86.0832 404.816 86.0914 404.859C86.1076 404.944 86.1312 405.065 86.1625 405.222C86.2251 405.534 86.3189 405.985 86.4478 406.567C86.7056 407.73 87.104 409.414 87.6752 411.545C88.8172 415.806 90.6514 421.859 93.4349 429.106C98.9987 443.592 108.376 462.906 123.647 482.23C154.295 521.014 208.432 559.5 302.016 559.5L302.016 551.5Z" fill="#3C3C3C"/>
<circle cx="511" cy="311" r="39" fill="#F9FCFF"/>
<path d="M551.666 307.167V311C551.661 319.985 548.752 328.728 543.372 335.924C537.992 343.121 530.43 348.385 521.814 350.933C513.197 353.481 503.988 353.175 495.56 350.061C487.132 346.947 479.936 341.192 475.045 333.655C470.155 326.117 467.832 317.2 468.423 308.235C469.015 299.269 472.488 290.735 478.326 283.905C484.164 277.074 492.053 272.314 500.817 270.334C509.581 268.354 518.751 269.26 526.958 272.917" stroke="#242424" stroke-width="8.33333" stroke-linecap="round" stroke-linejoin="round"/>
<path d="M551.667 277.667L510 319.375L497.5 306.875" stroke="#242424" stroke-width="8.33333" stroke-linecap="round" stroke-linejoin="round"/>
<path d="M478.883 384H476.852L471.5 375.766C471.365 375.557 471.253 375.341 471.164 375.117H471.117C471.159 375.357 471.18 375.87 471.18 376.656V384H469.383V372.797H471.547L476.719 380.836C476.938 381.169 477.078 381.398 477.141 381.523H477.172C477.12 381.227 477.094 380.724 477.094 380.016V372.797H478.883V384ZM488.234 380.492H482.781C482.802 381.232 483.029 381.802 483.461 382.203C483.898 382.604 484.497 382.805 485.258 382.805C486.112 382.805 486.896 382.549 487.609 382.039V383.5C486.88 383.958 485.917 384.188 484.719 384.188C483.542 384.188 482.617 383.826 481.945 383.102C481.279 382.372 480.945 381.349 480.945 380.031C480.945 378.786 481.312 377.773 482.047 376.992C482.786 376.206 483.703 375.812 484.797 375.812C485.891 375.812 486.737 376.164 487.336 376.867C487.935 377.57 488.234 378.547 488.234 379.797V380.492ZM486.484 379.211C486.479 378.56 486.326 378.055 486.023 377.695C485.721 377.331 485.305 377.148 484.773 377.148C484.253 377.148 483.81 377.339 483.445 377.719C483.086 378.099 482.865 378.596 482.781 379.211H486.484ZM500.719 376L498.359 384H496.461L495.008 378.578C494.951 378.37 494.914 378.135 494.898 377.875H494.867C494.857 378.052 494.81 378.281 494.727 378.562L493.148 384H491.289L488.938 376H490.812L492.266 381.766C492.312 381.938 492.344 382.167 492.359 382.453H492.414C492.43 382.234 492.471 382 492.539 381.75L494.156 376H495.859L497.297 381.789C497.344 381.971 497.378 382.201 497.398 382.477H497.453C497.464 382.284 497.503 382.055 497.57 381.789L498.992 376H500.719ZM513.453 384H511.641V382.734H511.609C511.083 383.703 510.266 384.188 509.156 384.188C507.266 384.188 506.32 383.052 506.32 380.781V376H508.133V380.594C508.133 382.031 508.688 382.75 509.797 382.75C510.333 382.75 510.773 382.552 511.117 382.156C511.466 381.76 511.641 381.242 511.641 380.602V376H513.453V384ZM517.664 382.82H517.633V387.68H515.82V376H517.633V377.406H517.664C518.284 376.344 519.19 375.812 520.383 375.812C521.398 375.812 522.19 376.169 522.758 376.883C523.326 377.596 523.609 378.555 523.609 379.758C523.609 381.091 523.289 382.159 522.648 382.961C522.008 383.763 521.133 384.164 520.023 384.164C519.003 384.164 518.216 383.716 517.664 382.82ZM517.617 379.664V380.656C517.617 381.24 517.802 381.734 518.172 382.141C518.547 382.547 519.021 382.75 519.594 382.75C520.266 382.75 520.792 382.49 521.172 381.969C521.557 381.443 521.75 380.711 521.75 379.773C521.75 378.987 521.57 378.372 521.211 377.93C520.857 377.482 520.375 377.258 519.766 377.258C519.12 377.258 518.599 377.487 518.203 377.945C517.812 378.404 517.617 378.977 517.617 379.664ZM532.734 384H530.922V382.641H530.891C530.307 383.672 529.409 384.188 528.195 384.188C527.211 384.188 526.422 383.831 525.828 383.117C525.24 382.398 524.945 381.422 524.945 380.188C524.945 378.865 525.271 377.805 525.922 377.008C526.578 376.211 527.451 375.812 528.539 375.812C529.617 375.812 530.401 376.245 530.891 377.109H530.922V372.156H532.734V384ZM530.945 380.344V379.297C530.945 378.729 530.76 378.247 530.391 377.852C530.021 377.456 529.549 377.258 528.977 377.258C528.299 377.258 527.766 377.51 527.375 378.016C526.99 378.521 526.797 379.221 526.797 380.117C526.797 380.93 526.982 381.573 527.352 382.047C527.727 382.516 528.229 382.75 528.859 382.75C529.479 382.75 529.982 382.523 530.367 382.07C530.753 381.612 530.945 381.036 530.945 380.344ZM541.242 384H539.484V382.75H539.453C538.901 383.708 538.091 384.188 537.023 384.188C536.237 384.188 535.62 383.974 535.172 383.547C534.729 383.12 534.508 382.555 534.508 381.852C534.508 380.341 535.378 379.461 537.117 379.211L539.492 378.875C539.492 377.734 538.951 377.164 537.867 377.164C536.914 377.164 536.055 377.492 535.289 378.148V376.562C536.133 376.062 537.107 375.812 538.211 375.812C540.232 375.812 541.242 376.807 541.242 378.797V384ZM539.492 380.07L537.812 380.305C537.292 380.372 536.898 380.5 536.633 380.688C536.372 380.87 536.242 381.193 536.242 381.656C536.242 381.995 536.362 382.273 536.602 382.492C536.846 382.706 537.172 382.812 537.578 382.812C538.13 382.812 538.586 382.62 538.945 382.234C539.31 381.844 539.492 381.354 539.492 380.766V380.07ZM547.68 383.914C547.326 384.091 546.859 384.18 546.281 384.18C544.729 384.18 543.953 383.435 543.953 381.945V377.422H542.617V376H543.953V374.148L545.766 373.633V376H547.68V377.422H545.766V381.422C545.766 381.896 545.852 382.234 546.023 382.438C546.195 382.641 546.482 382.742 546.883 382.742C547.19 382.742 547.456 382.654 547.68 382.477V383.914ZM555.922 380.492H550.469C550.49 381.232 550.716 381.802 551.148 382.203C551.586 382.604 552.185 382.805 552.945 382.805C553.799 382.805 554.583 382.549 555.297 382.039V383.5C554.568 383.958 553.604 384.188 552.406 384.188C551.229 384.188 550.305 383.826 549.633 383.102C548.966 382.372 548.633 381.349 548.633 380.031C548.633 378.786 549 377.773 549.734 376.992C550.474 376.206 551.391 375.812 552.484 375.812C553.578 375.812 554.424 376.164 555.023 376.867C555.622 377.57 555.922 378.547 555.922 379.797V380.492ZM554.172 379.211C554.167 378.56 554.013 378.055 553.711 377.695C553.409 377.331 552.992 377.148 552.461 377.148C551.94 377.148 551.497 377.339 551.133 377.719C550.773 378.099 550.552 378.596 550.469 379.211H554.172ZM557.148 383.75V382.07C557.826 382.586 558.573 382.844 559.391 382.844C560.484 382.844 561.031 382.521 561.031 381.875C561.031 381.693 560.984 381.539 560.891 381.414C560.797 381.284 560.669 381.169 560.508 381.07C560.352 380.971 560.164 380.883 559.945 380.805C559.732 380.727 559.492 380.638 559.227 380.539C558.898 380.409 558.602 380.271 558.336 380.125C558.076 379.979 557.857 379.815 557.68 379.633C557.508 379.445 557.378 379.234 557.289 379C557.201 378.766 557.156 378.492 557.156 378.18C557.156 377.794 557.247 377.456 557.43 377.164C557.612 376.867 557.857 376.62 558.164 376.422C558.471 376.219 558.82 376.068 559.211 375.969C559.602 375.865 560.005 375.812 560.422 375.812C561.161 375.812 561.823 375.924 562.406 376.148V377.734C561.844 377.349 561.198 377.156 560.469 377.156C560.24 377.156 560.031 377.18 559.844 377.227C559.661 377.273 559.505 377.339 559.375 377.422C559.245 377.505 559.143 377.607 559.07 377.727C558.997 377.841 558.961 377.969 558.961 378.109C558.961 378.281 558.997 378.427 559.07 378.547C559.143 378.667 559.25 378.773 559.391 378.867C559.536 378.956 559.708 379.039 559.906 379.117C560.109 379.19 560.341 379.271 560.602 379.359C560.945 379.5 561.253 379.643 561.523 379.789C561.799 379.935 562.034 380.102 562.227 380.289C562.419 380.471 562.568 380.685 562.672 380.93C562.776 381.169 562.828 381.456 562.828 381.789C562.828 382.195 562.734 382.549 562.547 382.852C562.359 383.154 562.109 383.404 561.797 383.602C561.484 383.799 561.122 383.945 560.711 384.039C560.305 384.138 559.875 384.188 559.422 384.188C558.547 384.188 557.789 384.042 557.148 383.75Z" fill="#242424"/>
<path d="M56.1953 383.531C55.3516 383.969 54.3021 384.188 53.0469 384.188C51.4219 384.188 50.1198 383.674 49.1406 382.648C48.1615 381.622 47.6719 380.276 47.6719 378.609C47.6719 376.818 48.2214 375.37 49.3203 374.266C50.4245 373.161 51.8177 372.609 53.5 372.609C54.5833 372.609 55.4818 372.763 56.1953 373.07V374.914C55.4401 374.466 54.6068 374.242 53.6953 374.242C52.4818 374.242 51.4974 374.63 50.7422 375.406C49.9922 376.182 49.6172 377.219 49.6172 378.516C49.6172 379.75 49.9688 380.734 50.6719 381.469C51.375 382.198 52.2995 382.562 53.4453 382.562C54.5026 382.562 55.4193 382.312 56.1953 381.812V383.531ZM65.0938 384H63.2812V382.734H63.25C62.724 383.703 61.9062 384.188 60.7969 384.188C58.9062 384.188 57.9609 383.052 57.9609 380.781V376H59.7734V380.594C59.7734 382.031 60.3281 382.75 61.4375 382.75C61.974 382.75 62.4141 382.552 62.7578 382.156C63.1068 381.76 63.2812 381.242 63.2812 380.602V376H65.0938V384ZM72.1016 377.727C71.8828 377.555 71.5677 377.469 71.1562 377.469C70.6198 377.469 70.1719 377.711 69.8125 378.195C69.4531 378.68 69.2734 379.339 69.2734 380.172V384H67.4609V376H69.2734V377.648H69.3047C69.4818 377.086 69.7526 376.648 70.1172 376.336C70.487 376.018 70.8984 375.859 71.3516 375.859C71.6797 375.859 71.9297 375.909 72.1016 376.008V377.727ZM78.0234 377.727C77.8047 377.555 77.4896 377.469 77.0781 377.469C76.5417 377.469 76.0938 377.711 75.7344 378.195C75.375 378.68 75.1953 379.339 75.1953 380.172V384H73.3828V376H75.1953V377.648H75.2266C75.4036 377.086 75.6745 376.648 76.0391 376.336C76.4089 376.018 76.8203 375.859 77.2734 375.859C77.6016 375.859 77.8516 375.909 78.0234 376.008V377.727ZM85.9375 380.492H80.4844C80.5052 381.232 80.7318 381.802 81.1641 382.203C81.6016 382.604 82.2005 382.805 82.9609 382.805C83.8151 382.805 84.599 382.549 85.3125 382.039V383.5C84.5833 383.958 83.6198 384.188 82.4219 384.188C81.2448 384.188 80.3203 383.826 79.6484 383.102C78.9818 382.372 78.6484 381.349 78.6484 380.031C78.6484 378.786 79.0156 377.773 79.75 376.992C80.4896 376.206 81.4062 375.812 82.5 375.812C83.5938 375.812 84.4401 376.164 85.0391 376.867C85.638 377.57 85.9375 378.547 85.9375 379.797V380.492ZM84.1875 379.211C84.1823 378.56 84.0286 378.055 83.7266 377.695C83.4245 377.331 83.0078 377.148 82.4766 377.148C81.9557 377.148 81.513 377.339 81.1484 377.719C80.7891 378.099 80.5677 378.596 80.4844 379.211H84.1875ZM94.7891 384H92.9766V379.492C92.9766 377.997 92.4479 377.25 91.3906 377.25C90.8385 377.25 90.3828 377.458 90.0234 377.875C89.6641 378.286 89.4844 378.807 89.4844 379.438V384H87.6641V376H89.4844V377.328H89.5156C90.1146 376.318 90.9792 375.812 92.1094 375.812C92.9792 375.812 93.6432 376.096 94.1016 376.664C94.5599 377.227 94.7891 378.042 94.7891 379.109V384ZM101.227 383.914C100.872 384.091 100.406 384.18 99.8281 384.18C98.276 384.18 97.5 383.435 97.5 381.945V377.422H96.1641V376H97.5V374.148L99.3125 373.633V376H101.227V377.422H99.3125V381.422C99.3125 381.896 99.3984 382.234 99.5703 382.438C99.7422 382.641 100.029 382.742 100.43 382.742C100.737 382.742 101.003 382.654 101.227 382.477V383.914ZM109.039 382.844H109.008V384H107.195V372.156H109.008V377.406H109.039C109.659 376.344 110.565 375.812 111.758 375.812C112.768 375.812 113.557 376.172 114.125 376.891C114.698 377.604 114.984 378.562 114.984 379.766C114.984 381.104 114.664 382.177 114.023 382.984C113.383 383.786 112.508 384.188 111.398 384.188C110.357 384.188 109.57 383.74 109.039 382.844ZM108.992 379.664V380.656C108.992 381.24 109.177 381.734 109.547 382.141C109.922 382.547 110.396 382.75 110.969 382.75C111.641 382.75 112.167 382.49 112.547 381.969C112.932 381.443 113.125 380.711 113.125 379.773C113.125 378.987 112.945 378.372 112.586 377.93C112.232 377.482 111.75 377.258 111.141 377.258C110.495 377.258 109.974 377.487 109.578 377.945C109.188 378.404 108.992 378.977 108.992 379.664ZM123.812 384H122V382.734H121.969C121.443 383.703 120.625 384.188 119.516 384.188C117.625 384.188 116.68 383.052 116.68 380.781V376H118.492V380.594C118.492 382.031 119.047 382.75 120.156 382.75C120.693 382.75 121.133 382.552 121.477 382.156C121.826 381.76 122 381.242 122 380.602V376H123.812V384ZM127.094 374.32C126.797 374.32 126.542 374.224 126.328 374.031C126.12 373.839 126.016 373.594 126.016 373.297C126.016 373 126.12 372.753 126.328 372.555C126.542 372.357 126.797 372.258 127.094 372.258C127.401 372.258 127.661 372.357 127.875 372.555C128.089 372.753 128.195 373 128.195 373.297C128.195 373.578 128.089 373.82 127.875 374.023C127.661 374.221 127.401 374.32 127.094 374.32ZM127.992 384H126.18V376H127.992V384ZM132.188 384H130.367V372.156H132.188V384ZM141.828 384H140.016V382.641H139.984C139.401 383.672 138.503 384.188 137.289 384.188C136.305 384.188 135.516 383.831 134.922 383.117C134.333 382.398 134.039 381.422 134.039 380.188C134.039 378.865 134.365 377.805 135.016 377.008C135.672 376.211 136.544 375.812 137.633 375.812C138.711 375.812 139.495 376.245 139.984 377.109H140.016V372.156H141.828V384ZM140.039 380.344V379.297C140.039 378.729 139.854 378.247 139.484 377.852C139.115 377.456 138.643 377.258 138.07 377.258C137.393 377.258 136.859 377.51 136.469 378.016C136.083 378.521 135.891 379.221 135.891 380.117C135.891 380.93 136.076 381.573 136.445 382.047C136.82 382.516 137.323 382.75 137.953 382.75C138.573 382.75 139.076 382.523 139.461 382.07C139.846 381.612 140.039 381.036 140.039 380.344Z" fill="#242424"/>
<rect x="79" y="297" width="52" height="50" rx="8" fill="#63BA90"/>
<rect x="51" y="297" width="27" height="50" rx="5" fill="#F7A341"/>
<rect x="51" y="268" width="80" height="27" rx="8" fill="#619EE4"/>
<path d="M121.917 268.25H60.0833C55.2048 268.25 51.25 272.205 51.25 277.083V338.917C51.25 343.795 55.2048 347.75 60.0833 347.75H121.917C126.795 347.75 130.75 343.795 130.75 338.917V277.083C130.75 272.205 126.795 268.25 121.917 268.25Z" stroke="#242424" stroke-width="8.33333" stroke-linecap="round" stroke-linejoin="round"/>
<path d="M51.25 294.75H130.75" stroke="#242424" stroke-width="8.33333" stroke-linecap="round" stroke-linejoin="round"/>
<path d="M77.75 347.75V294.75" stroke="#242424" stroke-width="8.33333" stroke-linecap="round" stroke-linejoin="round"/>
<rect x="0.5" y="0.5" width="593" height="644" stroke="#D9D9D9"/>
</svg>
