<svg width="509" height="648" viewBox="0 0 509 648" fill="none" xmlns="http://www.w3.org/2000/svg">
<rect x="0.5" y="0.5" width="508" height="647" fill="white"/>
<path d="M91.0236 218.47C90.7839 220.666 92.3698 222.64 94.5659 222.88C96.762 223.12 98.7367 221.534 98.9764 219.338L91.0236 218.47ZM427.622 241.217C429.399 242.53 431.903 242.154 433.217 240.378L454.617 211.429C455.93 209.653 455.554 207.148 453.778 205.835C452.002 204.521 449.497 204.897 448.184 206.673L429.161 232.406L403.429 213.383C401.653 212.07 399.148 212.446 397.835 214.222C396.521 215.998 396.897 218.503 398.673 219.816L427.622 241.217ZM95 218.904C98.9764 219.338 98.9762 219.339 98.9761 219.341C98.9761 219.34 98.976 219.341 98.976 219.341C98.9762 219.34 98.9765 219.337 98.977 219.332C98.9781 219.323 98.9801 219.305 98.983 219.28C98.9889 219.231 98.9986 219.151 99.0126 219.041C99.0406 218.822 99.0857 218.486 99.1515 218.041C99.2832 217.15 99.4978 215.822 99.8247 214.119C100.478 210.712 101.58 205.813 103.361 199.92C106.928 188.122 113.198 172.41 124.001 156.72C145.486 125.517 185.145 94 258.441 94L258.441 86C182.367 86 140.305 118.935 117.412 152.183C106.027 168.719 99.4435 185.233 95.7036 197.605C93.832 203.797 92.6672 208.968 91.9681 212.611C91.6184 214.433 91.3848 215.874 91.2375 216.871C91.1638 217.37 91.1116 217.758 91.0772 218.027C91.06 218.161 91.0473 218.266 91.0385 218.34C91.0341 218.377 91.0307 218.407 91.0283 218.428C91.027 218.439 91.026 218.448 91.0253 218.455C91.0249 218.458 91.0245 218.462 91.0243 218.464C91.0239 218.467 91.0236 218.47 95 218.904ZM258.441 94C331.512 94 373.25 130.079 396.887 166.191C408.747 184.309 416.051 202.456 420.387 216.088C422.554 222.897 423.974 228.562 424.85 232.508C425.288 234.48 425.589 236.022 425.78 237.06C425.875 237.579 425.943 237.973 425.986 238.231C426.007 238.361 426.023 238.456 426.032 238.517C426.037 238.547 426.04 238.569 426.042 238.581C426.043 238.588 426.044 238.592 426.044 238.594C426.045 238.595 426.044 238.595 426.045 238.595C426.044 238.594 426.044 238.593 430 238C433.956 237.407 433.955 237.404 433.955 237.401C433.955 237.4 433.954 237.396 433.954 237.393C433.953 237.385 433.951 237.376 433.949 237.365C433.946 237.342 433.941 237.31 433.934 237.269C433.921 237.187 433.903 237.07 433.878 236.92C433.828 236.618 433.752 236.18 433.649 235.616C433.441 234.486 433.12 232.848 432.66 230.774C431.739 226.626 430.259 220.728 428.011 213.662C423.519 199.544 415.94 180.691 403.581 161.809C378.781 123.921 334.74 86 258.441 86L258.441 94Z" fill="#3C3C3C"/>
<path d="M428.979 418.362C429.205 416.165 427.606 414.2 425.409 413.975C423.211 413.749 421.247 415.348 421.021 417.545L428.979 418.362ZM92.3872 400.79C90.6145 399.472 88.1088 399.84 86.7904 401.613L65.3059 430.499C63.9876 432.272 64.3558 434.777 66.1284 436.096C67.901 437.414 70.4067 437.046 71.7251 435.273L90.8224 409.597L116.499 428.694C118.272 430.012 120.777 429.644 122.096 427.872C123.414 426.099 123.046 423.593 121.273 422.275L92.3872 400.79ZM425 417.954C421.021 417.545 421.021 417.544 421.021 417.543C421.021 417.543 421.021 417.542 421.021 417.543C421.021 417.544 421.021 417.548 421.02 417.553C421.019 417.564 421.017 417.583 421.014 417.611C421.008 417.665 420.998 417.752 420.984 417.869C420.955 418.105 420.91 418.465 420.844 418.942C420.711 419.896 420.495 421.315 420.167 423.132C419.511 426.768 418.406 431.992 416.62 438.273C413.044 450.85 406.759 467.59 395.936 484.303C374.402 517.552 334.744 551 261.559 551L261.559 559C337.744 559 379.806 523.925 402.651 488.651C414.016 471.102 420.585 453.581 424.315 440.461C426.182 433.895 427.343 428.412 428.04 424.553C428.388 422.623 428.621 421.097 428.767 420.044C428.841 419.517 428.892 419.107 428.926 418.825C428.943 418.683 428.956 418.573 428.965 418.496C428.969 418.457 428.972 418.426 428.975 418.404C428.976 418.393 428.977 418.384 428.978 418.377C428.978 418.374 428.978 418.37 428.978 418.368C428.979 418.365 428.979 418.362 425 417.954ZM261.559 551C188.526 551 146.786 514.21 123.132 477.34C111.267 458.845 103.959 440.32 99.6196 426.403C97.4519 419.451 96.0306 413.668 95.1537 409.638C94.7154 407.623 94.4134 406.049 94.2224 404.987C94.127 404.457 94.0593 404.055 94.0162 403.79C93.9946 403.658 93.9792 403.56 93.9696 403.498C93.9647 403.466 93.9614 403.444 93.9594 403.431C93.9584 403.424 93.9577 403.42 93.9574 403.418C93.9572 403.417 93.9573 403.417 93.9572 403.416C93.9573 403.417 93.9575 403.418 90 404C86.0425 404.582 86.0428 404.584 86.0433 404.587C86.0436 404.589 86.0441 404.592 86.0446 404.596C86.0457 404.603 86.0471 404.612 86.0488 404.624C86.0524 404.647 86.0573 404.68 86.0637 404.721C86.0765 404.804 86.0953 404.923 86.1202 405.076C86.1702 405.383 86.2454 405.829 86.3489 406.404C86.5559 407.555 86.8765 409.224 87.3366 411.339C88.2567 415.567 89.7358 421.58 91.9823 428.784C96.4709 443.18 104.046 462.405 116.399 481.66C141.182 520.29 185.222 559 261.559 559L261.559 551Z" fill="#3C3C3C"/>
<circle cx="432" cy="311" r="39" fill="#F9FCFF"/>
<path d="M472.666 307.167V311C472.661 319.985 469.752 328.728 464.372 335.924C458.992 343.121 451.43 348.385 442.814 350.933C434.197 353.481 424.988 353.175 416.56 350.061C408.132 346.947 400.936 341.192 396.045 333.655C391.155 326.117 388.832 317.2 389.423 308.235C390.015 299.269 393.488 290.735 399.326 283.905C405.164 277.074 413.053 272.314 421.817 270.334C430.581 268.354 439.751 269.26 447.958 272.917" stroke="#242424" stroke-width="8.33333" stroke-linecap="round" stroke-linejoin="round"/>
<path d="M472.667 277.667L431 319.375L418.5 306.875" stroke="#242424" stroke-width="8.33333" stroke-linecap="round" stroke-linejoin="round"/>
<path d="M399.883 384H397.852L392.5 375.766C392.365 375.557 392.253 375.341 392.164 375.117H392.117C392.159 375.357 392.18 375.87 392.18 376.656V384H390.383V372.797H392.547L397.719 380.836C397.938 381.169 398.078 381.398 398.141 381.523H398.172C398.12 381.227 398.094 380.724 398.094 380.016V372.797H399.883V384ZM409.234 380.492H403.781C403.802 381.232 404.029 381.802 404.461 382.203C404.898 382.604 405.497 382.805 406.258 382.805C407.112 382.805 407.896 382.549 408.609 382.039V383.5C407.88 383.958 406.917 384.188 405.719 384.188C404.542 384.188 403.617 383.826 402.945 383.102C402.279 382.372 401.945 381.349 401.945 380.031C401.945 378.786 402.312 377.773 403.047 376.992C403.786 376.206 404.703 375.812 405.797 375.812C406.891 375.812 407.737 376.164 408.336 376.867C408.935 377.57 409.234 378.547 409.234 379.797V380.492ZM407.484 379.211C407.479 378.56 407.326 378.055 407.023 377.695C406.721 377.331 406.305 377.148 405.773 377.148C405.253 377.148 404.81 377.339 404.445 377.719C404.086 378.099 403.865 378.596 403.781 379.211H407.484ZM421.719 376L419.359 384H417.461L416.008 378.578C415.951 378.37 415.914 378.135 415.898 377.875H415.867C415.857 378.052 415.81 378.281 415.727 378.562L414.148 384H412.289L409.938 376H411.812L413.266 381.766C413.312 381.938 413.344 382.167 413.359 382.453H413.414C413.43 382.234 413.471 382 413.539 381.75L415.156 376H416.859L418.297 381.789C418.344 381.971 418.378 382.201 418.398 382.477H418.453C418.464 382.284 418.503 382.055 418.57 381.789L419.992 376H421.719ZM434.453 384H432.641V382.734H432.609C432.083 383.703 431.266 384.188 430.156 384.188C428.266 384.188 427.32 383.052 427.32 380.781V376H429.133V380.594C429.133 382.031 429.688 382.75 430.797 382.75C431.333 382.75 431.773 382.552 432.117 382.156C432.466 381.76 432.641 381.242 432.641 380.602V376H434.453V384ZM438.664 382.82H438.633V387.68H436.82V376H438.633V377.406H438.664C439.284 376.344 440.19 375.812 441.383 375.812C442.398 375.812 443.19 376.169 443.758 376.883C444.326 377.596 444.609 378.555 444.609 379.758C444.609 381.091 444.289 382.159 443.648 382.961C443.008 383.763 442.133 384.164 441.023 384.164C440.003 384.164 439.216 383.716 438.664 382.82ZM438.617 379.664V380.656C438.617 381.24 438.802 381.734 439.172 382.141C439.547 382.547 440.021 382.75 440.594 382.75C441.266 382.75 441.792 382.49 442.172 381.969C442.557 381.443 442.75 380.711 442.75 379.773C442.75 378.987 442.57 378.372 442.211 377.93C441.857 377.482 441.375 377.258 440.766 377.258C440.12 377.258 439.599 377.487 439.203 377.945C438.812 378.404 438.617 378.977 438.617 379.664ZM453.734 384H451.922V382.641H451.891C451.307 383.672 450.409 384.188 449.195 384.188C448.211 384.188 447.422 383.831 446.828 383.117C446.24 382.398 445.945 381.422 445.945 380.188C445.945 378.865 446.271 377.805 446.922 377.008C447.578 376.211 448.451 375.812 449.539 375.812C450.617 375.812 451.401 376.245 451.891 377.109H451.922V372.156H453.734V384ZM451.945 380.344V379.297C451.945 378.729 451.76 378.247 451.391 377.852C451.021 377.456 450.549 377.258 449.977 377.258C449.299 377.258 448.766 377.51 448.375 378.016C447.99 378.521 447.797 379.221 447.797 380.117C447.797 380.93 447.982 381.573 448.352 382.047C448.727 382.516 449.229 382.75 449.859 382.75C450.479 382.75 450.982 382.523 451.367 382.07C451.753 381.612 451.945 381.036 451.945 380.344ZM462.242 384H460.484V382.75H460.453C459.901 383.708 459.091 384.188 458.023 384.188C457.237 384.188 456.62 383.974 456.172 383.547C455.729 383.12 455.508 382.555 455.508 381.852C455.508 380.341 456.378 379.461 458.117 379.211L460.492 378.875C460.492 377.734 459.951 377.164 458.867 377.164C457.914 377.164 457.055 377.492 456.289 378.148V376.562C457.133 376.062 458.107 375.812 459.211 375.812C461.232 375.812 462.242 376.807 462.242 378.797V384ZM460.492 380.07L458.812 380.305C458.292 380.372 457.898 380.5 457.633 380.688C457.372 380.87 457.242 381.193 457.242 381.656C457.242 381.995 457.362 382.273 457.602 382.492C457.846 382.706 458.172 382.812 458.578 382.812C459.13 382.812 459.586 382.62 459.945 382.234C460.31 381.844 460.492 381.354 460.492 380.766V380.07ZM468.68 383.914C468.326 384.091 467.859 384.18 467.281 384.18C465.729 384.18 464.953 383.435 464.953 381.945V377.422H463.617V376H464.953V374.148L466.766 373.633V376H468.68V377.422H466.766V381.422C466.766 381.896 466.852 382.234 467.023 382.438C467.195 382.641 467.482 382.742 467.883 382.742C468.19 382.742 468.456 382.654 468.68 382.477V383.914ZM476.922 380.492H471.469C471.49 381.232 471.716 381.802 472.148 382.203C472.586 382.604 473.185 382.805 473.945 382.805C474.799 382.805 475.583 382.549 476.297 382.039V383.5C475.568 383.958 474.604 384.188 473.406 384.188C472.229 384.188 471.305 383.826 470.633 383.102C469.966 382.372 469.633 381.349 469.633 380.031C469.633 378.786 470 377.773 470.734 376.992C471.474 376.206 472.391 375.812 473.484 375.812C474.578 375.812 475.424 376.164 476.023 376.867C476.622 377.57 476.922 378.547 476.922 379.797V380.492ZM475.172 379.211C475.167 378.56 475.013 378.055 474.711 377.695C474.409 377.331 473.992 377.148 473.461 377.148C472.94 377.148 472.497 377.339 472.133 377.719C471.773 378.099 471.552 378.596 471.469 379.211H475.172ZM478.148 383.75V382.07C478.826 382.586 479.573 382.844 480.391 382.844C481.484 382.844 482.031 382.521 482.031 381.875C482.031 381.693 481.984 381.539 481.891 381.414C481.797 381.284 481.669 381.169 481.508 381.07C481.352 380.971 481.164 380.883 480.945 380.805C480.732 380.727 480.492 380.638 480.227 380.539C479.898 380.409 479.602 380.271 479.336 380.125C479.076 379.979 478.857 379.815 478.68 379.633C478.508 379.445 478.378 379.234 478.289 379C478.201 378.766 478.156 378.492 478.156 378.18C478.156 377.794 478.247 377.456 478.43 377.164C478.612 376.867 478.857 376.62 479.164 376.422C479.471 376.219 479.82 376.068 480.211 375.969C480.602 375.865 481.005 375.812 481.422 375.812C482.161 375.812 482.823 375.924 483.406 376.148V377.734C482.844 377.349 482.198 377.156 481.469 377.156C481.24 377.156 481.031 377.18 480.844 377.227C480.661 377.273 480.505 377.339 480.375 377.422C480.245 377.505 480.143 377.607 480.07 377.727C479.997 377.841 479.961 377.969 479.961 378.109C479.961 378.281 479.997 378.427 480.07 378.547C480.143 378.667 480.25 378.773 480.391 378.867C480.536 378.956 480.708 379.039 480.906 379.117C481.109 379.19 481.341 379.271 481.602 379.359C481.945 379.5 482.253 379.643 482.523 379.789C482.799 379.935 483.034 380.102 483.227 380.289C483.419 380.471 483.568 380.685 483.672 380.93C483.776 381.169 483.828 381.456 483.828 381.789C483.828 382.195 483.734 382.549 483.547 382.852C483.359 383.154 483.109 383.404 482.797 383.602C482.484 383.799 482.122 383.945 481.711 384.039C481.305 384.138 480.875 384.188 480.422 384.188C479.547 384.188 478.789 384.042 478.148 383.75Z" fill="#242424"/>
<path d="M56.1953 383.531C55.3516 383.969 54.3021 384.188 53.0469 384.188C51.4219 384.188 50.1198 383.674 49.1406 382.648C48.1615 381.622 47.6719 380.276 47.6719 378.609C47.6719 376.818 48.2214 375.37 49.3203 374.266C50.4245 373.161 51.8177 372.609 53.5 372.609C54.5833 372.609 55.4818 372.763 56.1953 373.07V374.914C55.4401 374.466 54.6068 374.242 53.6953 374.242C52.4818 374.242 51.4974 374.63 50.7422 375.406C49.9922 376.182 49.6172 377.219 49.6172 378.516C49.6172 379.75 49.9688 380.734 50.6719 381.469C51.375 382.198 52.2995 382.562 53.4453 382.562C54.5026 382.562 55.4193 382.312 56.1953 381.812V383.531ZM65.0938 384H63.2812V382.734H63.25C62.724 383.703 61.9062 384.188 60.7969 384.188C58.9062 384.188 57.9609 383.052 57.9609 380.781V376H59.7734V380.594C59.7734 382.031 60.3281 382.75 61.4375 382.75C61.974 382.75 62.4141 382.552 62.7578 382.156C63.1068 381.76 63.2812 381.242 63.2812 380.602V376H65.0938V384ZM72.1016 377.727C71.8828 377.555 71.5677 377.469 71.1562 377.469C70.6198 377.469 70.1719 377.711 69.8125 378.195C69.4531 378.68 69.2734 379.339 69.2734 380.172V384H67.4609V376H69.2734V377.648H69.3047C69.4818 377.086 69.7526 376.648 70.1172 376.336C70.487 376.018 70.8984 375.859 71.3516 375.859C71.6797 375.859 71.9297 375.909 72.1016 376.008V377.727ZM78.0234 377.727C77.8047 377.555 77.4896 377.469 77.0781 377.469C76.5417 377.469 76.0938 377.711 75.7344 378.195C75.375 378.68 75.1953 379.339 75.1953 380.172V384H73.3828V376H75.1953V377.648H75.2266C75.4036 377.086 75.6745 376.648 76.0391 376.336C76.4089 376.018 76.8203 375.859 77.2734 375.859C77.6016 375.859 77.8516 375.909 78.0234 376.008V377.727ZM85.9375 380.492H80.4844C80.5052 381.232 80.7318 381.802 81.1641 382.203C81.6016 382.604 82.2005 382.805 82.9609 382.805C83.8151 382.805 84.599 382.549 85.3125 382.039V383.5C84.5833 383.958 83.6198 384.188 82.4219 384.188C81.2448 384.188 80.3203 383.826 79.6484 383.102C78.9818 382.372 78.6484 381.349 78.6484 380.031C78.6484 378.786 79.0156 377.773 79.75 376.992C80.4896 376.206 81.4062 375.812 82.5 375.812C83.5938 375.812 84.4401 376.164 85.0391 376.867C85.638 377.57 85.9375 378.547 85.9375 379.797V380.492ZM84.1875 379.211C84.1823 378.56 84.0286 378.055 83.7266 377.695C83.4245 377.331 83.0078 377.148 82.4766 377.148C81.9557 377.148 81.513 377.339 81.1484 377.719C80.7891 378.099 80.5677 378.596 80.4844 379.211H84.1875ZM94.7891 384H92.9766V379.492C92.9766 377.997 92.4479 377.25 91.3906 377.25C90.8385 377.25 90.3828 377.458 90.0234 377.875C89.6641 378.286 89.4844 378.807 89.4844 379.438V384H87.6641V376H89.4844V377.328H89.5156C90.1146 376.318 90.9792 375.812 92.1094 375.812C92.9792 375.812 93.6432 376.096 94.1016 376.664C94.5599 377.227 94.7891 378.042 94.7891 379.109V384ZM101.227 383.914C100.872 384.091 100.406 384.18 99.8281 384.18C98.276 384.18 97.5 383.435 97.5 381.945V377.422H96.1641V376H97.5V374.148L99.3125 373.633V376H101.227V377.422H99.3125V381.422C99.3125 381.896 99.3984 382.234 99.5703 382.438C99.7422 382.641 100.029 382.742 100.43 382.742C100.737 382.742 101.003 382.654 101.227 382.477V383.914ZM109.039 382.844H109.008V384H107.195V372.156H109.008V377.406H109.039C109.659 376.344 110.565 375.812 111.758 375.812C112.768 375.812 113.557 376.172 114.125 376.891C114.698 377.604 114.984 378.562 114.984 379.766C114.984 381.104 114.664 382.177 114.023 382.984C113.383 383.786 112.508 384.188 111.398 384.188C110.357 384.188 109.57 383.74 109.039 382.844ZM108.992 379.664V380.656C108.992 381.24 109.177 381.734 109.547 382.141C109.922 382.547 110.396 382.75 110.969 382.75C111.641 382.75 112.167 382.49 112.547 381.969C112.932 381.443 113.125 380.711 113.125 379.773C113.125 378.987 112.945 378.372 112.586 377.93C112.232 377.482 111.75 377.258 111.141 377.258C110.495 377.258 109.974 377.487 109.578 377.945C109.188 378.404 108.992 378.977 108.992 379.664ZM123.812 384H122V382.734H121.969C121.443 383.703 120.625 384.188 119.516 384.188C117.625 384.188 116.68 383.052 116.68 380.781V376H118.492V380.594C118.492 382.031 119.047 382.75 120.156 382.75C120.693 382.75 121.133 382.552 121.477 382.156C121.826 381.76 122 381.242 122 380.602V376H123.812V384ZM127.094 374.32C126.797 374.32 126.542 374.224 126.328 374.031C126.12 373.839 126.016 373.594 126.016 373.297C126.016 373 126.12 372.753 126.328 372.555C126.542 372.357 126.797 372.258 127.094 372.258C127.401 372.258 127.661 372.357 127.875 372.555C128.089 372.753 128.195 373 128.195 373.297C128.195 373.578 128.089 373.82 127.875 374.023C127.661 374.221 127.401 374.32 127.094 374.32ZM127.992 384H126.18V376H127.992V384ZM132.188 384H130.367V372.156H132.188V384ZM141.828 384H140.016V382.641H139.984C139.401 383.672 138.503 384.188 137.289 384.188C136.305 384.188 135.516 383.831 134.922 383.117C134.333 382.398 134.039 381.422 134.039 380.188C134.039 378.865 134.365 377.805 135.016 377.008C135.672 376.211 136.544 375.812 137.633 375.812C138.711 375.812 139.495 376.245 139.984 377.109H140.016V372.156H141.828V384ZM140.039 380.344V379.297C140.039 378.729 139.854 378.247 139.484 377.852C139.115 377.456 138.643 377.258 138.07 377.258C137.393 377.258 136.859 377.51 136.469 378.016C136.083 378.521 135.891 379.221 135.891 380.117C135.891 380.93 136.076 381.573 136.445 382.047C136.82 382.516 137.323 382.75 137.953 382.75C138.573 382.75 139.076 382.523 139.461 382.07C139.846 381.612 140.039 381.036 140.039 380.344Z" fill="#242424"/>
<rect x="79" y="297" width="52" height="50" rx="8" fill="#63BA90"/>
<rect x="51" y="297" width="27" height="50" rx="5" fill="#F7A341"/>
<rect x="51" y="268" width="80" height="27" rx="8" fill="#619EE4"/>
<path d="M121.917 268.25H60.0833C55.2048 268.25 51.25 272.205 51.25 277.083V338.917C51.25 343.795 55.2048 347.75 60.0833 347.75H121.917C126.795 347.75 130.75 343.795 130.75 338.917V277.083C130.75 272.205 126.795 268.25 121.917 268.25Z" stroke="#242424" stroke-width="8.33333" stroke-linecap="round" stroke-linejoin="round"/>
<path d="M51.25 294.75H130.75" stroke="#242424" stroke-width="8.33333" stroke-linecap="round" stroke-linejoin="round"/>
<path d="M77.75 347.75V294.75" stroke="#242424" stroke-width="8.33333" stroke-linecap="round" stroke-linejoin="round"/>
<rect x="0.5" y="0.5" width="508" height="647" stroke="#D9D9D9"/>
</svg>
