<svg width="594" height="645" viewBox="0 0 594 645" fill="none" xmlns="http://www.w3.org/2000/svg">
<rect x="0.5" y="0.5" width="593" height="644" fill="white"/>
<rect x="76" y="80" width="30" height="55" fill="#9E6128"/>
<rect x="110" y="80" width="23" height="55" fill="#78410F"/>
<rect x="49" y="80" width="23" height="55" fill="#C08C5B"/>
<path d="M124.333 78.1665H57.6668C53.0645 78.1665 49.3335 81.8975 49.3335 86.4998V128.167C49.3335 132.769 53.0645 136.5 57.6668 136.5H124.333C128.936 136.5 132.667 132.769 132.667 128.167V86.4998C132.667 81.8975 128.936 78.1665 124.333 78.1665Z" stroke="#242424" stroke-width="8.33333" stroke-linecap="round" stroke-linejoin="round"/>
<path d="M107.667 136.5V69.8333C107.667 67.6232 106.789 65.5036 105.226 63.9408C103.663 62.378 101.544 61.5 99.3335 61.5H82.6668C80.4567 61.5 78.3371 62.378 76.7743 63.9408C75.2115 65.5036 74.3335 67.6232 74.3335 69.8333V136.5" stroke="#242424" stroke-width="8.33333" stroke-linecap="round" stroke-linejoin="round"/>
<path d="M25.3828 169V157.797H28.9375C30.0208 157.797 30.8776 158.034 31.5078 158.508C32.1432 158.982 32.4609 159.599 32.4609 160.359C32.4609 160.995 32.2812 161.547 31.9219 162.016C31.5625 162.484 31.0651 162.818 30.4297 163.016V163.047C31.2005 163.135 31.8151 163.422 32.2734 163.906C32.737 164.385 32.9688 165.01 32.9688 165.781C32.9688 166.74 32.5911 167.516 31.8359 168.109C31.0807 168.703 30.1276 169 28.9766 169H25.3828ZM27.2344 159.289V162.477H28.4375C29.0833 162.477 29.5885 162.326 29.9531 162.023C30.3229 161.716 30.5078 161.284 30.5078 160.727C30.5078 159.768 29.8672 159.289 28.5859 159.289H27.2344ZM27.2344 163.969V167.516H28.8203C29.513 167.516 30.0469 167.357 30.4219 167.039C30.8021 166.716 30.9922 166.273 30.9922 165.711C30.9922 164.549 30.1875 163.969 28.5781 163.969H27.2344ZM41.8281 169H40.0156V167.734H39.9844C39.4583 168.703 38.6406 169.188 37.5312 169.188C35.6406 169.188 34.6953 168.052 34.6953 165.781V161H36.5078V165.594C36.5078 167.031 37.0625 167.75 38.1719 167.75C38.7083 167.75 39.1484 167.552 39.4922 167.156C39.8411 166.76 40.0156 166.242 40.0156 165.602V161H41.8281V169ZM43.6953 168.75V167.07C44.3724 167.586 45.1198 167.844 45.9375 167.844C47.0312 167.844 47.5781 167.521 47.5781 166.875C47.5781 166.693 47.5312 166.539 47.4375 166.414C47.3438 166.284 47.2161 166.169 47.0547 166.07C46.8984 165.971 46.7109 165.883 46.4922 165.805C46.2786 165.727 46.0391 165.638 45.7734 165.539C45.4453 165.409 45.1484 165.271 44.8828 165.125C44.6224 164.979 44.4036 164.815 44.2266 164.633C44.0547 164.445 43.9245 164.234 43.8359 164C43.7474 163.766 43.7031 163.492 43.7031 163.18C43.7031 162.794 43.7943 162.456 43.9766 162.164C44.1589 161.867 44.4036 161.62 44.7109 161.422C45.0182 161.219 45.3672 161.068 45.7578 160.969C46.1484 160.865 46.5521 160.812 46.9688 160.812C47.7083 160.812 48.3698 160.924 48.9531 161.148V162.734C48.3906 162.349 47.7448 162.156 47.0156 162.156C46.7865 162.156 46.5781 162.18 46.3906 162.227C46.2083 162.273 46.0521 162.339 45.9219 162.422C45.7917 162.505 45.6901 162.607 45.6172 162.727C45.5443 162.841 45.5078 162.969 45.5078 163.109C45.5078 163.281 45.5443 163.427 45.6172 163.547C45.6901 163.667 45.7969 163.773 45.9375 163.867C46.0833 163.956 46.2552 164.039 46.4531 164.117C46.6562 164.19 46.888 164.271 47.1484 164.359C47.4922 164.5 47.7995 164.643 48.0703 164.789C48.3464 164.935 48.5807 165.102 48.7734 165.289C48.9661 165.471 49.1146 165.685 49.2188 165.93C49.3229 166.169 49.375 166.456 49.375 166.789C49.375 167.195 49.2812 167.549 49.0938 167.852C48.9062 168.154 48.6562 168.404 48.3438 168.602C48.0312 168.799 47.6693 168.945 47.2578 169.039C46.8516 169.138 46.4219 169.188 45.9688 169.188C45.0938 169.188 44.3359 169.042 43.6953 168.75ZM52.0156 159.32C51.7188 159.32 51.4635 159.224 51.25 159.031C51.0417 158.839 50.9375 158.594 50.9375 158.297C50.9375 158 51.0417 157.753 51.25 157.555C51.4635 157.357 51.7188 157.258 52.0156 157.258C52.3229 157.258 52.5833 157.357 52.7969 157.555C53.0104 157.753 53.1172 158 53.1172 158.297C53.1172 158.578 53.0104 158.82 52.7969 159.023C52.5833 159.221 52.3229 159.32 52.0156 159.32ZM52.9141 169H51.1016V161H52.9141V169ZM62.4141 169H60.6016V164.492C60.6016 162.997 60.0729 162.25 59.0156 162.25C58.4635 162.25 58.0078 162.458 57.6484 162.875C57.2891 163.286 57.1094 163.807 57.1094 164.438V169H55.2891V161H57.1094V162.328H57.1406C57.7396 161.318 58.6042 160.812 59.7344 160.812C60.6042 160.812 61.2682 161.096 61.7266 161.664C62.1849 162.227 62.4141 163.042 62.4141 164.109V169ZM71.4062 165.492H65.9531C65.974 166.232 66.2005 166.802 66.6328 167.203C67.0703 167.604 67.6693 167.805 68.4297 167.805C69.2839 167.805 70.0677 167.549 70.7812 167.039V168.5C70.0521 168.958 69.0885 169.188 67.8906 169.188C66.7135 169.188 65.7891 168.826 65.1172 168.102C64.4505 167.372 64.1172 166.349 64.1172 165.031C64.1172 163.786 64.4844 162.773 65.2188 161.992C65.9583 161.206 66.875 160.812 67.9688 160.812C69.0625 160.812 69.9089 161.164 70.5078 161.867C71.1068 162.57 71.4062 163.547 71.4062 164.797V165.492ZM69.6562 164.211C69.651 163.56 69.4974 163.055 69.1953 162.695C68.8932 162.331 68.4766 162.148 67.9453 162.148C67.4245 162.148 66.9818 162.339 66.6172 162.719C66.2578 163.099 66.0365 163.596 65.9531 164.211H69.6562ZM72.6328 168.75V167.07C73.3099 167.586 74.0573 167.844 74.875 167.844C75.9688 167.844 76.5156 167.521 76.5156 166.875C76.5156 166.693 76.4688 166.539 76.375 166.414C76.2812 166.284 76.1536 166.169 75.9922 166.07C75.8359 165.971 75.6484 165.883 75.4297 165.805C75.2161 165.727 74.9766 165.638 74.7109 165.539C74.3828 165.409 74.0859 165.271 73.8203 165.125C73.5599 164.979 73.3411 164.815 73.1641 164.633C72.9922 164.445 72.862 164.234 72.7734 164C72.6849 163.766 72.6406 163.492 72.6406 163.18C72.6406 162.794 72.7318 162.456 72.9141 162.164C73.0964 161.867 73.3411 161.62 73.6484 161.422C73.9557 161.219 74.3047 161.068 74.6953 160.969C75.0859 160.865 75.4896 160.812 75.9062 160.812C76.6458 160.812 77.3073 160.924 77.8906 161.148V162.734C77.3281 162.349 76.6823 162.156 75.9531 162.156C75.724 162.156 75.5156 162.18 75.3281 162.227C75.1458 162.273 74.9896 162.339 74.8594 162.422C74.7292 162.505 74.6276 162.607 74.5547 162.727C74.4818 162.841 74.4453 162.969 74.4453 163.109C74.4453 163.281 74.4818 163.427 74.5547 163.547C74.6276 163.667 74.7344 163.773 74.875 163.867C75.0208 163.956 75.1927 164.039 75.3906 164.117C75.5938 164.19 75.8255 164.271 76.0859 164.359C76.4297 164.5 76.737 164.643 77.0078 164.789C77.2839 164.935 77.5182 165.102 77.7109 165.289C77.9036 165.471 78.0521 165.685 78.1562 165.93C78.2604 166.169 78.3125 166.456 78.3125 166.789C78.3125 167.195 78.2188 167.549 78.0312 167.852C77.8438 168.154 77.5938 168.404 77.2812 168.602C76.9688 168.799 76.6068 168.945 76.1953 169.039C75.7891 169.138 75.3594 169.188 74.9062 169.188C74.0312 169.188 73.2734 169.042 72.6328 168.75ZM79.5391 168.75V167.07C80.2161 167.586 80.9635 167.844 81.7812 167.844C82.875 167.844 83.4219 167.521 83.4219 166.875C83.4219 166.693 83.375 166.539 83.2812 166.414C83.1875 166.284 83.0599 166.169 82.8984 166.07C82.7422 165.971 82.5547 165.883 82.3359 165.805C82.1224 165.727 81.8828 165.638 81.6172 165.539C81.2891 165.409 80.9922 165.271 80.7266 165.125C80.4661 164.979 80.2474 164.815 80.0703 164.633C79.8984 164.445 79.7682 164.234 79.6797 164C79.5911 163.766 79.5469 163.492 79.5469 163.18C79.5469 162.794 79.638 162.456 79.8203 162.164C80.0026 161.867 80.2474 161.62 80.5547 161.422C80.862 161.219 81.2109 161.068 81.6016 160.969C81.9922 160.865 82.3958 160.812 82.8125 160.812C83.5521 160.812 84.2135 160.924 84.7969 161.148V162.734C84.2344 162.349 83.5885 162.156 82.8594 162.156C82.6302 162.156 82.4219 162.18 82.2344 162.227C82.0521 162.273 81.8958 162.339 81.7656 162.422C81.6354 162.505 81.5339 162.607 81.4609 162.727C81.388 162.841 81.3516 162.969 81.3516 163.109C81.3516 163.281 81.388 163.427 81.4609 163.547C81.5339 163.667 81.6406 163.773 81.7812 163.867C81.9271 163.956 82.099 164.039 82.2969 164.117C82.5 164.19 82.7318 164.271 82.9922 164.359C83.3359 164.5 83.6432 164.643 83.9141 164.789C84.1901 164.935 84.4245 165.102 84.6172 165.289C84.8099 165.471 84.9583 165.685 85.0625 165.93C85.1667 166.169 85.2188 166.456 85.2188 166.789C85.2188 167.195 85.125 167.549 84.9375 167.852C84.75 168.154 84.5 168.404 84.1875 168.602C83.875 168.799 83.513 168.945 83.1016 169.039C82.6953 169.138 82.2656 169.188 81.8125 169.188C80.9375 169.188 80.1797 169.042 79.5391 168.75ZM98.625 169H96.8125V167.641H96.7812C96.1979 168.672 95.2995 169.188 94.0859 169.188C93.1016 169.188 92.3125 168.831 91.7188 168.117C91.1302 167.398 90.8359 166.422 90.8359 165.188C90.8359 163.865 91.1615 162.805 91.8125 162.008C92.4688 161.211 93.3411 160.812 94.4297 160.812C95.5078 160.812 96.2917 161.245 96.7812 162.109H96.8125V157.156H98.625V169ZM96.8359 165.344V164.297C96.8359 163.729 96.651 163.247 96.2812 162.852C95.9115 162.456 95.4401 162.258 94.8672 162.258C94.1901 162.258 93.6562 162.51 93.2656 163.016C92.8802 163.521 92.6875 164.221 92.6875 165.117C92.6875 165.93 92.8724 166.573 93.2422 167.047C93.6172 167.516 94.1198 167.75 94.75 167.75C95.3698 167.75 95.8724 167.523 96.2578 167.07C96.6432 166.612 96.8359 166.036 96.8359 165.344ZM107.766 165.492H102.312C102.333 166.232 102.56 166.802 102.992 167.203C103.43 167.604 104.029 167.805 104.789 167.805C105.643 167.805 106.427 167.549 107.141 167.039V168.5C106.411 168.958 105.448 169.188 104.25 169.188C103.073 169.188 102.148 168.826 101.477 168.102C100.81 167.372 100.477 166.349 100.477 165.031C100.477 163.786 100.844 162.773 101.578 161.992C102.318 161.206 103.234 160.812 104.328 160.812C105.422 160.812 106.268 161.164 106.867 161.867C107.466 162.57 107.766 163.547 107.766 164.797V165.492ZM106.016 164.211C106.01 163.56 105.857 163.055 105.555 162.695C105.253 162.331 104.836 162.148 104.305 162.148C103.784 162.148 103.341 162.339 102.977 162.719C102.617 163.099 102.396 163.596 102.312 164.211H106.016ZM121.453 169H119.641V164.641C119.641 163.802 119.521 163.195 119.281 162.82C119.047 162.445 118.648 162.258 118.086 162.258C117.612 162.258 117.208 162.495 116.875 162.969C116.547 163.443 116.383 164.01 116.383 164.672V169H114.562V164.492C114.562 163.003 114.036 162.258 112.984 162.258C112.495 162.258 112.091 162.482 111.773 162.93C111.461 163.378 111.305 163.958 111.305 164.672V169H109.492V161H111.305V162.266H111.336C111.914 161.297 112.755 160.812 113.859 160.812C114.411 160.812 114.893 160.966 115.305 161.273C115.721 161.576 116.005 161.974 116.156 162.469C116.75 161.365 117.635 160.812 118.812 160.812C120.573 160.812 121.453 161.898 121.453 164.07V169ZM129.805 169H128.047V167.75H128.016C127.464 168.708 126.654 169.188 125.586 169.188C124.799 169.188 124.182 168.974 123.734 168.547C123.292 168.12 123.07 167.555 123.07 166.852C123.07 165.341 123.94 164.461 125.68 164.211L128.055 163.875C128.055 162.734 127.513 162.164 126.43 162.164C125.477 162.164 124.617 162.492 123.852 163.148V161.562C124.695 161.062 125.669 160.812 126.773 160.812C128.794 160.812 129.805 161.807 129.805 163.797V169ZM128.055 165.07L126.375 165.305C125.854 165.372 125.461 165.5 125.195 165.688C124.935 165.87 124.805 166.193 124.805 166.656C124.805 166.995 124.924 167.273 125.164 167.492C125.409 167.706 125.734 167.812 126.141 167.812C126.693 167.812 127.148 167.62 127.508 167.234C127.872 166.844 128.055 166.354 128.055 165.766V165.07ZM139.148 169H137.336V164.492C137.336 162.997 136.807 162.25 135.75 162.25C135.198 162.25 134.742 162.458 134.383 162.875C134.023 163.286 133.844 163.807 133.844 164.438V169H132.023V161H133.844V162.328H133.875C134.474 161.318 135.339 160.812 136.469 160.812C137.339 160.812 138.003 161.096 138.461 161.664C138.919 162.227 139.148 163.042 139.148 164.109V169ZM148.641 169H146.828V167.641H146.797C146.214 168.672 145.315 169.188 144.102 169.188C143.117 169.188 142.328 168.831 141.734 168.117C141.146 167.398 140.852 166.422 140.852 165.188C140.852 163.865 141.177 162.805 141.828 162.008C142.484 161.211 143.357 160.812 144.445 160.812C145.523 160.812 146.307 161.245 146.797 162.109H146.828V157.156H148.641V169ZM146.852 165.344V164.297C146.852 163.729 146.667 163.247 146.297 162.852C145.927 162.456 145.456 162.258 144.883 162.258C144.206 162.258 143.672 162.51 143.281 163.016C142.896 163.521 142.703 164.221 142.703 165.117C142.703 165.93 142.888 166.573 143.258 167.047C143.633 167.516 144.135 167.75 144.766 167.75C145.385 167.75 145.888 167.523 146.273 167.07C146.659 166.612 146.852 166.036 146.852 165.344ZM150.508 168.75V167.07C151.185 167.586 151.932 167.844 152.75 167.844C153.844 167.844 154.391 167.521 154.391 166.875C154.391 166.693 154.344 166.539 154.25 166.414C154.156 166.284 154.029 166.169 153.867 166.07C153.711 165.971 153.523 165.883 153.305 165.805C153.091 165.727 152.852 165.638 152.586 165.539C152.258 165.409 151.961 165.271 151.695 165.125C151.435 164.979 151.216 164.815 151.039 164.633C150.867 164.445 150.737 164.234 150.648 164C150.56 163.766 150.516 163.492 150.516 163.18C150.516 162.794 150.607 162.456 150.789 162.164C150.971 161.867 151.216 161.62 151.523 161.422C151.831 161.219 152.18 161.068 152.57 160.969C152.961 160.865 153.365 160.812 153.781 160.812C154.521 160.812 155.182 160.924 155.766 161.148V162.734C155.203 162.349 154.557 162.156 153.828 162.156C153.599 162.156 153.391 162.18 153.203 162.227C153.021 162.273 152.865 162.339 152.734 162.422C152.604 162.505 152.503 162.607 152.43 162.727C152.357 162.841 152.32 162.969 152.32 163.109C152.32 163.281 152.357 163.427 152.43 163.547C152.503 163.667 152.609 163.773 152.75 163.867C152.896 163.956 153.068 164.039 153.266 164.117C153.469 164.19 153.701 164.271 153.961 164.359C154.305 164.5 154.612 164.643 154.883 164.789C155.159 164.935 155.393 165.102 155.586 165.289C155.779 165.471 155.927 165.685 156.031 165.93C156.135 166.169 156.188 166.456 156.188 166.789C156.188 167.195 156.094 167.549 155.906 167.852C155.719 168.154 155.469 168.404 155.156 168.602C154.844 168.799 154.482 168.945 154.07 169.039C153.664 169.138 153.234 169.188 152.781 169.188C151.906 169.188 151.148 169.042 150.508 168.75Z" fill="#242424"/>
<path d="M248.672 379H242.383V367.797H248.422V369.375H244.242V372.547H248.094V374.117H244.242V377.43H248.672V379ZM262.422 379H260.609V374.641C260.609 373.802 260.49 373.195 260.25 372.82C260.016 372.445 259.617 372.258 259.055 372.258C258.581 372.258 258.177 372.495 257.844 372.969C257.516 373.443 257.352 374.01 257.352 374.672V379H255.531V374.492C255.531 373.003 255.005 372.258 253.953 372.258C253.464 372.258 253.06 372.482 252.742 372.93C252.43 373.378 252.273 373.958 252.273 374.672V379H250.461V371H252.273V372.266H252.305C252.883 371.297 253.724 370.812 254.828 370.812C255.38 370.812 255.862 370.966 256.273 371.273C256.69 371.576 256.974 371.974 257.125 372.469C257.719 371.365 258.604 370.812 259.781 370.812C261.542 370.812 262.422 371.898 262.422 374.07V379ZM266.477 377.844H266.445V379H264.633V367.156H266.445V372.406H266.477C267.096 371.344 268.003 370.812 269.195 370.812C270.206 370.812 270.995 371.172 271.562 371.891C272.135 372.604 272.422 373.562 272.422 374.766C272.422 376.104 272.102 377.177 271.461 377.984C270.82 378.786 269.945 379.188 268.836 379.188C267.794 379.188 267.008 378.74 266.477 377.844ZM266.43 374.664V375.656C266.43 376.24 266.615 376.734 266.984 377.141C267.359 377.547 267.833 377.75 268.406 377.75C269.078 377.75 269.604 377.49 269.984 376.969C270.37 376.443 270.562 375.711 270.562 374.773C270.562 373.987 270.383 373.372 270.023 372.93C269.669 372.482 269.188 372.258 268.578 372.258C267.932 372.258 267.411 372.487 267.016 372.945C266.625 373.404 266.43 373.977 266.43 374.664ZM281.047 375.492H275.594C275.615 376.232 275.841 376.802 276.273 377.203C276.711 377.604 277.31 377.805 278.07 377.805C278.924 377.805 279.708 377.549 280.422 377.039V378.5C279.693 378.958 278.729 379.188 277.531 379.188C276.354 379.188 275.43 378.826 274.758 378.102C274.091 377.372 273.758 376.349 273.758 375.031C273.758 373.786 274.125 372.773 274.859 371.992C275.599 371.206 276.516 370.812 277.609 370.812C278.703 370.812 279.549 371.164 280.148 371.867C280.747 372.57 281.047 373.547 281.047 374.797V375.492ZM279.297 374.211C279.292 373.56 279.138 373.055 278.836 372.695C278.534 372.331 278.117 372.148 277.586 372.148C277.065 372.148 276.622 372.339 276.258 372.719C275.898 373.099 275.677 373.596 275.594 374.211H279.297ZM290.047 379H288.234V377.641H288.203C287.62 378.672 286.721 379.188 285.508 379.188C284.523 379.188 283.734 378.831 283.141 378.117C282.552 377.398 282.258 376.422 282.258 375.188C282.258 373.865 282.583 372.805 283.234 372.008C283.891 371.211 284.763 370.812 285.852 370.812C286.93 370.812 287.714 371.245 288.203 372.109H288.234V367.156H290.047V379ZM288.258 375.344V374.297C288.258 373.729 288.073 373.247 287.703 372.852C287.333 372.456 286.862 372.258 286.289 372.258C285.612 372.258 285.078 372.51 284.688 373.016C284.302 373.521 284.109 374.221 284.109 375.117C284.109 375.93 284.294 376.573 284.664 377.047C285.039 377.516 285.542 377.75 286.172 377.75C286.792 377.75 287.294 377.523 287.68 377.07C288.065 376.612 288.258 376.036 288.258 375.344ZM303.07 369.375H298.883V372.742H302.742V374.312H298.883V379H297.023V367.797H303.07V369.375ZM310.461 379H308.703V377.75H308.672C308.12 378.708 307.31 379.188 306.242 379.188C305.456 379.188 304.839 378.974 304.391 378.547C303.948 378.12 303.727 377.555 303.727 376.852C303.727 375.341 304.596 374.461 306.336 374.211L308.711 373.875C308.711 372.734 308.169 372.164 307.086 372.164C306.133 372.164 305.273 372.492 304.508 373.148V371.562C305.352 371.062 306.326 370.812 307.43 370.812C309.451 370.812 310.461 371.807 310.461 373.797V379ZM308.711 375.07L307.031 375.305C306.51 375.372 306.117 375.5 305.852 375.688C305.591 375.87 305.461 376.193 305.461 376.656C305.461 376.995 305.581 377.273 305.82 377.492C306.065 377.706 306.391 377.812 306.797 377.812C307.349 377.812 307.805 377.62 308.164 377.234C308.529 376.844 308.711 376.354 308.711 375.766V375.07ZM312.18 378.75V377.07C312.857 377.586 313.604 377.844 314.422 377.844C315.516 377.844 316.062 377.521 316.062 376.875C316.062 376.693 316.016 376.539 315.922 376.414C315.828 376.284 315.701 376.169 315.539 376.07C315.383 375.971 315.195 375.883 314.977 375.805C314.763 375.727 314.523 375.638 314.258 375.539C313.93 375.409 313.633 375.271 313.367 375.125C313.107 374.979 312.888 374.815 312.711 374.633C312.539 374.445 312.409 374.234 312.32 374C312.232 373.766 312.188 373.492 312.188 373.18C312.188 372.794 312.279 372.456 312.461 372.164C312.643 371.867 312.888 371.62 313.195 371.422C313.503 371.219 313.852 371.068 314.242 370.969C314.633 370.865 315.036 370.812 315.453 370.812C316.193 370.812 316.854 370.924 317.438 371.148V372.734C316.875 372.349 316.229 372.156 315.5 372.156C315.271 372.156 315.062 372.18 314.875 372.227C314.693 372.273 314.536 372.339 314.406 372.422C314.276 372.505 314.174 372.607 314.102 372.727C314.029 372.841 313.992 372.969 313.992 373.109C313.992 373.281 314.029 373.427 314.102 373.547C314.174 373.667 314.281 373.773 314.422 373.867C314.568 373.956 314.74 374.039 314.938 374.117C315.141 374.19 315.372 374.271 315.633 374.359C315.977 374.5 316.284 374.643 316.555 374.789C316.831 374.935 317.065 375.102 317.258 375.289C317.451 375.471 317.599 375.685 317.703 375.93C317.807 376.169 317.859 376.456 317.859 376.789C317.859 377.195 317.766 377.549 317.578 377.852C317.391 378.154 317.141 378.404 316.828 378.602C316.516 378.799 316.154 378.945 315.742 379.039C315.336 379.138 314.906 379.188 314.453 379.188C313.578 379.188 312.82 379.042 312.18 378.75ZM323.805 378.914C323.451 379.091 322.984 379.18 322.406 379.18C320.854 379.18 320.078 378.435 320.078 376.945V372.422H318.742V371H320.078V369.148L321.891 368.633V371H323.805V372.422H321.891V376.422C321.891 376.896 321.977 377.234 322.148 377.438C322.32 377.641 322.607 377.742 323.008 377.742C323.315 377.742 323.581 377.654 323.805 377.477V378.914ZM339.18 379H337.141L336.133 376.148H331.727L330.758 379H328.727L332.922 367.797H335.016L339.18 379ZM335.641 374.633L334.086 370.164C334.039 370.018 333.99 369.784 333.938 369.461H333.906C333.859 369.758 333.807 369.992 333.75 370.164L332.211 374.633H335.641ZM342.578 374.938V379H340.727V367.797H344.125C345.411 367.797 346.409 368.096 347.117 368.695C347.826 369.294 348.18 370.138 348.18 371.227C348.18 372.315 347.81 373.206 347.07 373.898C346.331 374.591 345.331 374.938 344.07 374.938H342.578ZM342.578 369.328V373.422H343.781C344.578 373.422 345.185 373.237 345.602 372.867C346.018 372.497 346.227 371.977 346.227 371.305C346.227 369.987 345.461 369.328 343.93 369.328H342.578ZM351.992 379H350.078V367.797H351.992V379Z" fill="#242424"/>
<path d="M309.667 336L334.667 311L309.667 286" stroke="#242424" stroke-width="8.33333" stroke-linecap="round" stroke-linejoin="round"/>
<path d="M276.333 286L251.333 311L276.333 336" stroke="#242424" stroke-width="8.33333" stroke-linecap="round" stroke-linejoin="round"/>
<path d="M187.828 184.172C186.266 182.609 183.734 182.609 182.172 184.172C180.609 185.734 180.609 188.266 182.172 189.828L187.828 184.172ZM237 243C239.209 243 241 241.209 241 239V203C241 200.791 239.209 199 237 199C234.791 199 233 200.791 233 203V235H201C198.791 235 197 236.791 197 239C197 241.209 198.791 243 201 243H237ZM182.172 189.828L227.407 235.064L233.064 229.407L187.828 184.172L182.172 189.828ZM227.407 235.064L234.172 241.828L239.828 236.172L233.064 229.407L227.407 235.064Z" fill="#3C3C3C"/>
<path d="M382.828 389.172C381.266 387.609 378.734 387.609 377.172 389.172C375.609 390.734 375.609 393.266 377.172 394.828L382.828 389.172ZM432 448C434.209 448 436 446.209 436 444V408C436 405.791 434.209 404 432 404C429.791 404 428 405.791 428 408V440H396C393.791 440 392 441.791 392 444C392 446.209 393.791 448 396 448H432ZM377.172 394.828L422.407 440.064L428.064 434.407L382.828 389.172L377.172 394.828ZM422.407 440.064L429.172 446.828L434.828 441.172L428.064 434.407L422.407 440.064Z" fill="#3C3C3C"/>
<path d="M444.195 576.531C443.352 576.969 442.302 577.188 441.047 577.188C439.422 577.188 438.12 576.674 437.141 575.648C436.161 574.622 435.672 573.276 435.672 571.609C435.672 569.818 436.221 568.37 437.32 567.266C438.424 566.161 439.818 565.609 441.5 565.609C442.583 565.609 443.482 565.763 444.195 566.07V567.914C443.44 567.466 442.607 567.242 441.695 567.242C440.482 567.242 439.497 567.63 438.742 568.406C437.992 569.182 437.617 570.219 437.617 571.516C437.617 572.75 437.969 573.734 438.672 574.469C439.375 575.198 440.299 575.562 441.445 575.562C442.503 575.562 443.419 575.312 444.195 574.812V576.531ZM453.094 577H451.281V575.734H451.25C450.724 576.703 449.906 577.188 448.797 577.188C446.906 577.188 445.961 576.052 445.961 573.781V569H447.773V573.594C447.773 575.031 448.328 575.75 449.438 575.75C449.974 575.75 450.414 575.552 450.758 575.156C451.107 574.76 451.281 574.242 451.281 573.602V569H453.094V577ZM454.961 576.75V575.07C455.638 575.586 456.385 575.844 457.203 575.844C458.297 575.844 458.844 575.521 458.844 574.875C458.844 574.693 458.797 574.539 458.703 574.414C458.609 574.284 458.482 574.169 458.32 574.07C458.164 573.971 457.977 573.883 457.758 573.805C457.544 573.727 457.305 573.638 457.039 573.539C456.711 573.409 456.414 573.271 456.148 573.125C455.888 572.979 455.669 572.815 455.492 572.633C455.32 572.445 455.19 572.234 455.102 572C455.013 571.766 454.969 571.492 454.969 571.18C454.969 570.794 455.06 570.456 455.242 570.164C455.424 569.867 455.669 569.62 455.977 569.422C456.284 569.219 456.633 569.068 457.023 568.969C457.414 568.865 457.818 568.812 458.234 568.812C458.974 568.812 459.635 568.924 460.219 569.148V570.734C459.656 570.349 459.01 570.156 458.281 570.156C458.052 570.156 457.844 570.18 457.656 570.227C457.474 570.273 457.318 570.339 457.188 570.422C457.057 570.505 456.956 570.607 456.883 570.727C456.81 570.841 456.773 570.969 456.773 571.109C456.773 571.281 456.81 571.427 456.883 571.547C456.956 571.667 457.062 571.773 457.203 571.867C457.349 571.956 457.521 572.039 457.719 572.117C457.922 572.19 458.154 572.271 458.414 572.359C458.758 572.5 459.065 572.643 459.336 572.789C459.612 572.935 459.846 573.102 460.039 573.289C460.232 573.471 460.38 573.685 460.484 573.93C460.589 574.169 460.641 574.456 460.641 574.789C460.641 575.195 460.547 575.549 460.359 575.852C460.172 576.154 459.922 576.404 459.609 576.602C459.297 576.799 458.935 576.945 458.523 577.039C458.117 577.138 457.688 577.188 457.234 577.188C456.359 577.188 455.602 577.042 454.961 576.75ZM466.586 576.914C466.232 577.091 465.766 577.18 465.188 577.18C463.635 577.18 462.859 576.435 462.859 574.945V570.422H461.523V569H462.859V567.148L464.672 566.633V569H466.586V570.422H464.672V574.422C464.672 574.896 464.758 575.234 464.93 575.438C465.102 575.641 465.388 575.742 465.789 575.742C466.096 575.742 466.362 575.654 466.586 575.477V576.914ZM471.602 577.188C470.367 577.188 469.38 576.815 468.641 576.07C467.906 575.32 467.539 574.328 467.539 573.094C467.539 571.75 467.922 570.701 468.688 569.945C469.458 569.19 470.495 568.812 471.797 568.812C473.047 568.812 474.021 569.18 474.719 569.914C475.417 570.648 475.766 571.667 475.766 572.969C475.766 574.245 475.388 575.268 474.633 576.039C473.883 576.805 472.872 577.188 471.602 577.188ZM471.688 570.258C470.979 570.258 470.419 570.505 470.008 571C469.596 571.495 469.391 572.177 469.391 573.047C469.391 573.885 469.599 574.547 470.016 575.031C470.432 575.51 470.99 575.75 471.688 575.75C472.401 575.75 472.948 575.513 473.328 575.039C473.714 574.565 473.906 573.891 473.906 573.016C473.906 572.135 473.714 571.456 473.328 570.977C472.948 570.497 472.401 570.258 471.688 570.258ZM489.578 577H487.766V572.641C487.766 571.802 487.646 571.195 487.406 570.82C487.172 570.445 486.773 570.258 486.211 570.258C485.737 570.258 485.333 570.495 485 570.969C484.672 571.443 484.508 572.01 484.508 572.672V577H482.688V572.492C482.688 571.003 482.161 570.258 481.109 570.258C480.62 570.258 480.216 570.482 479.898 570.93C479.586 571.378 479.43 571.958 479.43 572.672V577H477.617V569H479.43V570.266H479.461C480.039 569.297 480.88 568.812 481.984 568.812C482.536 568.812 483.018 568.966 483.43 569.273C483.846 569.576 484.13 569.974 484.281 570.469C484.875 569.365 485.76 568.812 486.938 568.812C488.698 568.812 489.578 569.898 489.578 572.07V577ZM500.719 566.633C500.474 566.492 500.195 566.422 499.883 566.422C499.003 566.422 498.562 566.919 498.562 567.914V569H500.422V570.422H498.57V577H496.758V570.422H495.391V569H496.758V567.703C496.758 566.859 497.034 566.195 497.586 565.711C498.138 565.221 498.828 564.977 499.656 564.977C500.104 564.977 500.458 565.026 500.719 565.125V566.633ZM508.484 573.492H503.031C503.052 574.232 503.279 574.802 503.711 575.203C504.148 575.604 504.747 575.805 505.508 575.805C506.362 575.805 507.146 575.549 507.859 575.039V576.5C507.13 576.958 506.167 577.188 504.969 577.188C503.792 577.188 502.867 576.826 502.195 576.102C501.529 575.372 501.195 574.349 501.195 573.031C501.195 571.786 501.562 570.773 502.297 569.992C503.036 569.206 503.953 568.812 505.047 568.812C506.141 568.812 506.987 569.164 507.586 569.867C508.185 570.57 508.484 571.547 508.484 572.797V573.492ZM506.734 572.211C506.729 571.56 506.576 571.055 506.273 570.695C505.971 570.331 505.555 570.148 505.023 570.148C504.503 570.148 504.06 570.339 503.695 570.719C503.336 571.099 503.115 571.596 503.031 572.211H506.734ZM516.352 577H514.594V575.75H514.562C514.01 576.708 513.201 577.188 512.133 577.188C511.346 577.188 510.729 576.974 510.281 576.547C509.839 576.12 509.617 575.555 509.617 574.852C509.617 573.341 510.487 572.461 512.227 572.211L514.602 571.875C514.602 570.734 514.06 570.164 512.977 570.164C512.023 570.164 511.164 570.492 510.398 571.148V569.562C511.242 569.062 512.216 568.812 513.32 568.812C515.341 568.812 516.352 569.807 516.352 571.797V577ZM514.602 573.07L512.922 573.305C512.401 573.372 512.008 573.5 511.742 573.688C511.482 573.87 511.352 574.193 511.352 574.656C511.352 574.995 511.471 575.273 511.711 575.492C511.956 575.706 512.281 575.812 512.688 575.812C513.24 575.812 513.695 575.62 514.055 575.234C514.419 574.844 514.602 574.354 514.602 573.766V573.07ZM522.789 576.914C522.435 577.091 521.969 577.18 521.391 577.18C519.839 577.18 519.062 576.435 519.062 574.945V570.422H517.727V569H519.062V567.148L520.875 566.633V569H522.789V570.422H520.875V574.422C520.875 574.896 520.961 575.234 521.133 575.438C521.305 575.641 521.591 575.742 521.992 575.742C522.299 575.742 522.565 575.654 522.789 575.477V576.914ZM531.328 577H529.516V575.734H529.484C528.958 576.703 528.141 577.188 527.031 577.188C525.141 577.188 524.195 576.052 524.195 573.781V569H526.008V573.594C526.008 575.031 526.562 575.75 527.672 575.75C528.208 575.75 528.648 575.552 528.992 575.156C529.341 574.76 529.516 574.242 529.516 573.602V569H531.328V577ZM538.336 570.727C538.117 570.555 537.802 570.469 537.391 570.469C536.854 570.469 536.406 570.711 536.047 571.195C535.688 571.68 535.508 572.339 535.508 573.172V577H533.695V569H535.508V570.648H535.539C535.716 570.086 535.987 569.648 536.352 569.336C536.721 569.018 537.133 568.859 537.586 568.859C537.914 568.859 538.164 568.909 538.336 569.008V570.727ZM546.25 573.492H540.797C540.818 574.232 541.044 574.802 541.477 575.203C541.914 575.604 542.513 575.805 543.273 575.805C544.128 575.805 544.911 575.549 545.625 575.039V576.5C544.896 576.958 543.932 577.188 542.734 577.188C541.557 577.188 540.633 576.826 539.961 576.102C539.294 575.372 538.961 574.349 538.961 573.031C538.961 571.786 539.328 570.773 540.062 569.992C540.802 569.206 541.719 568.812 542.812 568.812C543.906 568.812 544.753 569.164 545.352 569.867C545.951 570.57 546.25 571.547 546.25 572.797V573.492ZM544.5 572.211C544.495 571.56 544.341 571.055 544.039 570.695C543.737 570.331 543.32 570.148 542.789 570.148C542.268 570.148 541.826 570.339 541.461 570.719C541.102 571.099 540.88 571.596 540.797 572.211H544.5ZM547.477 576.75V575.07C548.154 575.586 548.901 575.844 549.719 575.844C550.812 575.844 551.359 575.521 551.359 574.875C551.359 574.693 551.312 574.539 551.219 574.414C551.125 574.284 550.997 574.169 550.836 574.07C550.68 573.971 550.492 573.883 550.273 573.805C550.06 573.727 549.82 573.638 549.555 573.539C549.227 573.409 548.93 573.271 548.664 573.125C548.404 572.979 548.185 572.815 548.008 572.633C547.836 572.445 547.706 572.234 547.617 572C547.529 571.766 547.484 571.492 547.484 571.18C547.484 570.794 547.576 570.456 547.758 570.164C547.94 569.867 548.185 569.62 548.492 569.422C548.799 569.219 549.148 569.068 549.539 568.969C549.93 568.865 550.333 568.812 550.75 568.812C551.49 568.812 552.151 568.924 552.734 569.148V570.734C552.172 570.349 551.526 570.156 550.797 570.156C550.568 570.156 550.359 570.18 550.172 570.227C549.99 570.273 549.833 570.339 549.703 570.422C549.573 570.505 549.471 570.607 549.398 570.727C549.326 570.841 549.289 570.969 549.289 571.109C549.289 571.281 549.326 571.427 549.398 571.547C549.471 571.667 549.578 571.773 549.719 571.867C549.865 571.956 550.036 572.039 550.234 572.117C550.438 572.19 550.669 572.271 550.93 572.359C551.273 572.5 551.581 572.643 551.852 572.789C552.128 572.935 552.362 573.102 552.555 573.289C552.747 573.471 552.896 573.685 553 573.93C553.104 574.169 553.156 574.456 553.156 574.789C553.156 575.195 553.062 575.549 552.875 575.852C552.688 576.154 552.438 576.404 552.125 576.602C551.812 576.799 551.451 576.945 551.039 577.039C550.633 577.138 550.203 577.188 549.75 577.188C548.875 577.188 548.117 577.042 547.477 576.75Z" fill="#242424"/>
<path d="M455.403 480.607C455.036 480.981 454.831 481.484 454.831 482.007C454.831 482.531 455.036 483.033 455.403 483.407L458.603 486.607C458.976 486.974 459.479 487.179 460.003 487.179C460.526 487.179 461.029 486.974 461.403 486.607L468.943 479.067C469.948 481.29 470.253 483.766 469.816 486.166C469.378 488.565 468.22 490.775 466.495 492.5C464.77 494.225 462.561 495.383 460.161 495.82C457.761 496.257 455.285 495.953 453.063 494.947L439.243 508.767C438.447 509.563 437.368 510.01 436.243 510.01C435.117 510.01 434.038 509.563 433.243 508.767C432.447 507.972 432 506.892 432 505.767C432 504.642 432.447 503.563 433.243 502.767L447.063 488.947C446.057 486.725 445.752 484.249 446.19 481.849C446.627 479.449 447.785 477.24 449.51 475.515C451.235 473.79 453.445 472.632 455.844 472.194C458.244 471.757 460.72 472.062 462.943 473.067L455.423 480.587L455.403 480.607Z" fill="#C7C7C7" stroke="black" stroke-width="4" stroke-linecap="round" stroke-linejoin="round"/>
<path d="M542.438 510L556.438 496L562.438 502L548.438 516L542.438 510Z" fill="#D23C3C" stroke="black" stroke-width="4" stroke-linecap="round" stroke-linejoin="round"/>
<path d="M554.438 498L551.438 483L522.438 476L529.438 505L544.438 508L554.438 498Z" fill="#E2E2E2" stroke="black" stroke-width="4" stroke-linecap="round" stroke-linejoin="round"/>
<path d="M522.438 476L537.61 491.172" stroke="black" stroke-width="4" stroke-linecap="round" stroke-linejoin="round"/>
<path d="M540.438 498C542.647 498 544.438 496.209 544.438 494C544.438 491.791 542.647 490 540.438 490C538.228 490 536.438 491.791 536.438 494C536.438 496.209 538.228 498 540.438 498Z" stroke="black" stroke-width="4" stroke-linecap="round" stroke-linejoin="round"/>
<path d="M494.219 507.667L475.886 516.833L494.219 526L512.552 516.833L494.219 507.667Z" fill="#F7A341" stroke="black" stroke-width="4" stroke-linecap="round" stroke-linejoin="round"/>
<path d="M475.886 535.167L494.219 544.333L512.552 535.167" stroke="black" stroke-width="4" stroke-linecap="round" stroke-linejoin="round"/>
<path d="M475.886 526L494.219 535.167L512.552 526" stroke="black" stroke-width="4" stroke-linecap="round" stroke-linejoin="round"/>
<rect x="0.5" y="0.5" width="593" height="644" stroke="#D9D9D9"/>
</svg>
