<svg width="17" height="22" viewBox="0 0 17 22" fill="none" xmlns="http://www.w3.org/2000/svg">
<path d="M8.25 0C12.8064 0 16.5 3.57078 16.5 7.97556C16.5 10.2814 15.4751 12.3975 13.4696 14.2921C13.3821 14.3748 13.3143 14.4744 13.2704 14.5839L13.2346 14.6965L11.9475 20.082C11.6941 21.1424 10.7574 21.9106 9.64995 21.9927L9.45285 22H7.04751C5.92151 22 4.93624 21.2904 4.6044 20.2655L4.55273 20.0814L3.26736 14.6968C3.23063 14.5429 3.14897 14.4024 3.03209 14.292C1.12104 12.4877 0.0998903 10.4824 0.00697154 8.30366L0 7.97556L0.00440991 7.71229C0.148091 3.42937 3.78478 0 8.25 0ZM5.43812 17.875L5.87655 19.7098L5.91255 19.8419C6.0458 20.2535 6.42926 20.5585 6.89095 20.6154L7.04751 20.625L9.40207 20.6259L9.54831 20.6215C10.0189 20.5866 10.4123 20.2963 10.5675 19.8987L10.6101 19.7624L11.0619 17.875H5.43812ZM11.6685 15.3463C10.6616 14.7681 9.49441 14.4375 8.25 14.4375C7.00692 14.4375 5.8409 14.7674 4.83472 15.3445L5.1095 16.5H11.3919L11.6685 15.3463ZM12.0339 13.9795C12.1514 13.7215 12.3183 13.4882 12.5254 13.2926C14.2759 11.6389 15.125 9.87324 15.125 7.97556C15.125 4.34077 12.0572 1.375 8.25 1.375C4.63076 1.375 1.66634 4.06038 1.39576 7.44366L1.37922 7.73532L1.37469 7.94635L1.38072 8.24507C1.45718 10.0379 2.30667 11.7161 3.97605 13.2923C4.18368 13.4883 4.35034 13.7216 4.46765 13.9787C5.60065 13.3932 6.8867 13.0625 8.25 13.0625C9.6139 13.0625 10.9005 13.3935 12.0339 13.9795ZM6.1875 8.25C6.1875 7.11091 7.11091 6.1875 8.25 6.1875C9.38909 6.1875 10.3125 7.11091 10.3125 8.25C10.3125 9.38909 9.38909 10.3125 8.25 10.3125C7.11091 10.3125 6.1875 9.38909 6.1875 8.25ZM8.25 4.8125C6.35152 4.8125 4.8125 6.35152 4.8125 8.25C4.8125 10.1485 6.35152 11.6875 8.25 11.6875C10.1485 11.6875 11.6875 10.1485 11.6875 8.25C11.6875 6.35152 10.1485 4.8125 8.25 4.8125Z" fill="black"/>
</svg>
