<svg xmlns="http://www.w3.org/2000/svg" viewBox="0 0 500 500"><g id="freepik--Graphics--inject-1--inject-178"><polyline points="418.7 285.05 352.42 285.05 352.42 325.39 418.39 325.39" style="fill:none;stroke:#2e353a;stroke-linecap:round;stroke-linejoin:round;stroke-width:0.5px"></polyline><line x1="352.72" y1="296.55" x2="419" y2="296.55" style="fill:none;stroke:#2e353a;stroke-linecap:round;stroke-linejoin:round;stroke-width:0.5px"></line><line x1="352.72" y1="308.02" x2="419" y2="308.02" style="fill:none;stroke:#2e353a;stroke-linecap:round;stroke-linejoin:round;stroke-width:0.5px"></line><line x1="352.72" y1="319.49" x2="419" y2="319.49" style="fill:none;stroke:#2e353a;stroke-linecap:round;stroke-linejoin:round;stroke-width:0.5px"></line><line x1="350.6" y1="285.32" x2="347.88" y2="285.32" style="fill:none;stroke:#2e353a;stroke-linecap:round;stroke-linejoin:round;stroke-width:0.5px"></line><line x1="350.6" y1="291" x2="347.88" y2="291" style="fill:none;stroke:#2e353a;stroke-linecap:round;stroke-linejoin:round;stroke-width:0.5px"></line><line x1="350.6" y1="296.69" x2="347.88" y2="296.69" style="fill:none;stroke:#2e353a;stroke-linecap:round;stroke-linejoin:round;stroke-width:0.5px"></line><line x1="350.6" y1="302.38" x2="347.88" y2="302.38" style="fill:none;stroke:#2e353a;stroke-linecap:round;stroke-linejoin:round;stroke-width:0.5px"></line><line x1="350.6" y1="308.06" x2="347.88" y2="308.06" style="fill:none;stroke:#2e353a;stroke-linecap:round;stroke-linejoin:round;stroke-width:0.5px"></line><line x1="350.6" y1="313.75" x2="347.88" y2="313.75" style="fill:none;stroke:#2e353a;stroke-linecap:round;stroke-linejoin:round;stroke-width:0.5px"></line><line x1="350.6" y1="319.44" x2="347.88" y2="319.44" style="fill:none;stroke:#2e353a;stroke-linecap:round;stroke-linejoin:round;stroke-width:0.5px"></line><line x1="350.6" y1="325.12" x2="347.88" y2="325.12" style="fill:none;stroke:#2e353a;stroke-linecap:round;stroke-linejoin:round;stroke-width:0.5px"></line><rect x="354.83" y="301.2" width="3.05" height="24.03" style="fill:#2e353a;stroke:#2e353a;stroke-linecap:round;stroke-linejoin:round"></rect><rect x="360.24" y="289.7" width="3.05" height="35.53" style="fill:#EF5F67;stroke:#2e353a;stroke-linecap:round;stroke-linejoin:round"></rect><rect x="365.66" y="301.2" width="3.05" height="24.03" style="fill:#fff;stroke:#2e353a;stroke-linecap:round;stroke-linejoin:round"></rect><rect x="377.84" y="293.42" width="3.05" height="31.81" style="fill:#2e353a;stroke:#2e353a;stroke-linecap:round;stroke-linejoin:round"></rect><rect x="383.25" y="298.16" width="3.05" height="27.07" style="fill:#EF5F67;stroke:#2e353a;stroke-linecap:round;stroke-linejoin:round"></rect><rect x="388.67" y="311.69" width="3.05" height="13.54" style="fill:#fff;stroke:#2e353a;stroke-linecap:round;stroke-linejoin:round"></rect><rect x="400.85" y="301.2" width="3.05" height="24.03" style="fill:#2e353a;stroke:#2e353a;stroke-linecap:round;stroke-linejoin:round"></rect><rect x="406.26" y="289.7" width="3.05" height="35.53" style="fill:#EF5F67;stroke:#2e353a;stroke-linecap:round;stroke-linejoin:round"></rect><rect x="411.68" y="301.2" width="3.05" height="24.03" style="fill:#fff;stroke:#2e353a;stroke-linecap:round;stroke-linejoin:round"></rect><polygon points="333.18 247.08 367 272.39 367 237.05 333.18 105.08 333.18 247.08" style="fill:#EF5F67;stroke:#fff;stroke-linecap:round;stroke-linejoin:round;opacity:0.4"></polygon><polygon points="367 272.39 257 272.39 78.51 247.08 333.18 247.08 367 272.39" style="fill:#EF5F67;stroke:#fff;stroke-linecap:round;stroke-linejoin:round;opacity:0.4"></polygon><rect x="78.51" y="105.08" width="254.67" height="128" style="stroke:#2e353a;stroke-linecap:round;stroke-linejoin:round"></rect><line x1="88.33" y1="111.72" x2="137" y2="111.72" style="fill:none;stroke:#fff;stroke-linecap:round;stroke-linejoin:round;stroke-width:2px"></line><path d="M326.7,111.12a3.34,3.34,0,1,0-3.33,3.34A3.33,3.33,0,0,0,326.7,111.12Z" style="fill:#fff"></path><path d="M312.43,111.12a3.33,3.33,0,1,0-3.33,3.34A3.33,3.33,0,0,0,312.43,111.12Z" style="fill:#fff"></path><rect x="78.51" y="119.08" width="254.67" height="128" style="fill:#fff;stroke:#2e353a;stroke-linecap:round;stroke-linejoin:round"></rect><polyline points="321.18 132.42 96.51 132.42 96.51 235.08 320.51 235.08" style="fill:none;stroke:#2e353a;stroke-linecap:round;stroke-linejoin:round;stroke-width:0.5px"></polyline><line x1="97.18" y1="161.68" x2="321.84" y2="161.68" style="fill:none;stroke:#2e353a;stroke-linecap:round;stroke-linejoin:round;stroke-width:0.5px"></line><line x1="97.18" y1="190.88" x2="321.84" y2="190.88" style="fill:none;stroke:#2e353a;stroke-linecap:round;stroke-linejoin:round;stroke-width:0.5px"></line><line x1="97.18" y1="220.08" x2="321.84" y2="220.08" style="fill:none;stroke:#2e353a;stroke-linecap:round;stroke-linejoin:round;stroke-width:0.5px"></line><line x1="92.51" y1="133.08" x2="86.51" y2="133.08" style="fill:none;stroke:#2e353a;stroke-linecap:round;stroke-linejoin:round;stroke-width:0.5px"></line><line x1="92.51" y1="147.56" x2="86.51" y2="147.56" style="fill:none;stroke:#2e353a;stroke-linecap:round;stroke-linejoin:round;stroke-width:0.5px"></line><line x1="92.51" y1="162.04" x2="86.51" y2="162.04" style="fill:none;stroke:#2e353a;stroke-linecap:round;stroke-linejoin:round;stroke-width:0.5px"></line><line x1="92.51" y1="176.51" x2="86.51" y2="176.51" style="fill:none;stroke:#2e353a;stroke-linecap:round;stroke-linejoin:round;stroke-width:0.5px"></line><line x1="92.51" y1="190.99" x2="86.51" y2="190.99" style="fill:none;stroke:#2e353a;stroke-linecap:round;stroke-linejoin:round;stroke-width:0.5px"></line><line x1="92.51" y1="205.46" x2="86.51" y2="205.46" style="fill:none;stroke:#2e353a;stroke-linecap:round;stroke-linejoin:round;stroke-width:0.5px"></line><line x1="92.51" y1="219.94" x2="86.51" y2="219.94" style="fill:none;stroke:#2e353a;stroke-linecap:round;stroke-linejoin:round;stroke-width:0.5px"></line><line x1="92.51" y1="234.42" x2="86.51" y2="234.42" style="fill:none;stroke:#2e353a;stroke-linecap:round;stroke-linejoin:round;stroke-width:0.5px"></line><path d="M98.18,162.22s19.66.86,23.66-1.8,9.34-8,12.67-7.34a111.3,111.3,0,0,1,10.67,3.34s8-4.67,10-4.67,8.66,3.33,14,3.33h15.33l6,4.67,11.33-3.33,12.67,5.33,8-1.33,11.33,6h5.34l10.66,4.66h14l8,4.67,12.67.67,10,10,8-1.34,8.67,3.34,8-.67" style="fill:none;stroke:#EF5F67;stroke-linecap:round;stroke-linejoin:round;stroke-width:3px"></path><polyline points="97.84 165.75 122.51 165.75 137.18 167.75 149.18 168.42 159.84 175.75 175.18 171.08 193.84 177.75 214.51 174.42 221.84 177.75 238.51 159.08 255.18 159.08 265.18 148.42 275.84 153.08 282.51 147.08 291.18 151.75 296.51 145.08 299.84 145.75 308.51 143.08 312.51 145.75 319.18 144.42" style="fill:none;stroke:#2e353a;stroke-linecap:round;stroke-linejoin:round;stroke-width:3px"></polyline><polyline points="98.51 231.08 124.51 231.08 144.51 219.75 159.18 226.42 169.84 226.42 175.18 228.42 187.18 222.42 203.18 212.42 208.51 219.75 218.51 218.42 223.84 219.75 237.18 220.42 251.84 208.42 259.18 217.08 268.51 216.42 273.84 219.75 281.84 217.75 292.51 221.75 307.18 219.75 315.18 221.08 319.84 219.75" style="fill:none;stroke:#EF5F67;stroke-linecap:round;stroke-linejoin:round;stroke-width:3px"></polyline><polygon points="257.67 256.42 317 281.72 317 326.39 257.67 391.08 257.67 256.42" style="fill:#EF5F67;stroke:#fff;stroke-linecap:round;stroke-linejoin:round;opacity:0.4"></polygon><rect x="126.51" y="256.42" width="131.16" height="128" style="stroke:#2e353a;stroke-linecap:round;stroke-linejoin:round"></rect><rect x="126.51" y="270.42" width="131.16" height="120.67" style="fill:#fff;stroke:#2e353a;stroke-linecap:round;stroke-linejoin:round"></rect><path d="M191.15,330.26l-52-.05a50.37,50.37,0,0,1,15.9-37.37Z" style="stroke:#fff;stroke-miterlimit:10"></path><path d="M191.15,330.26l-13.5,50.19a51.35,51.35,0,0,1-38.47-50.24Z" style="stroke:#fff;stroke-miterlimit:10"></path><path d="M193.48,331.72l24.45-45.87a52,52,0,0,1-38,96.06Z" style="fill:#EF5F67;stroke:#fff;stroke-miterlimit:10"></path><path d="M191.15,330.26l-2.67-51.91a49.49,49.49,0,0,1,27.12,6Z" style="stroke:#fff;stroke-miterlimit:10"></path><path d="M191.15,330.26l-36.07-37.42a49.28,49.28,0,0,1,33.4-14.49Z" style="stroke:#fff;stroke-miterlimit:10"></path><path d="M252.33,263.72a3.33,3.33,0,1,0-3.33,3.33A3.33,3.33,0,0,0,252.33,263.72Z" style="fill:#fff"></path><path d="M238.07,263.72a3.34,3.34,0,1,0-3.34,3.33A3.34,3.34,0,0,0,238.07,263.72Z" style="fill:#fff"></path><rect x="126.51" y="270.42" width="131.16" height="15.47" style="fill:#EF5F67;stroke:#fff;stroke-linecap:round;stroke-linejoin:round;opacity:0.73;mix-blend-mode:multiply"></rect></g></svg>