<svg width="509" height="648" viewBox="0 0 509 648" fill="none" xmlns="http://www.w3.org/2000/svg">
<g clip-path="url(#clip0_545_801)">
<rect width="509" height="648" fill="white"/>
<g filter="url(#filter0_d_545_801)">
<rect y="10" width="594" height="39" fill="white"/>
</g>
<path d="M34.5859 35H32.5469L31.5391 32.1484H27.1328L26.1641 35H24.1328L28.3281 23.7969H30.4219L34.5859 35ZM31.0469 30.6328L29.4922 26.1641C29.4453 26.0182 29.3958 25.7839 29.3438 25.4609H29.3125C29.2656 25.7578 29.2135 25.9922 29.1562 26.1641L27.6172 30.6328H31.0469ZM43.2031 35H41.3906V33.6406H41.3594C40.776 34.6719 39.8776 35.1875 38.6641 35.1875C37.6797 35.1875 36.8906 34.8307 36.2969 34.1172C35.7083 33.3984 35.4141 32.4219 35.4141 31.1875C35.4141 29.8646 35.7396 28.8047 36.3906 28.0078C37.0469 27.2109 37.9193 26.8125 39.0078 26.8125C40.0859 26.8125 40.8698 27.2448 41.3594 28.1094H41.3906V23.1562H43.2031V35ZM41.4141 31.3438V30.2969C41.4141 29.7292 41.2292 29.2474 40.8594 28.8516C40.4896 28.4557 40.0182 28.2578 39.4453 28.2578C38.7682 28.2578 38.2344 28.5104 37.8438 29.0156C37.4583 29.5208 37.2656 30.2214 37.2656 31.1172C37.2656 31.9297 37.4505 32.5729 37.8203 33.0469C38.1953 33.5156 38.6979 33.75 39.3281 33.75C39.9479 33.75 40.4505 33.5234 40.8359 33.0703C41.2214 32.612 41.4141 32.0365 41.4141 31.3438ZM57.5312 35H55.7188V30.6406C55.7188 29.8021 55.599 29.1953 55.3594 28.8203C55.125 28.4453 54.7266 28.2578 54.1641 28.2578C53.6901 28.2578 53.2865 28.4948 52.9531 28.9688C52.625 29.4427 52.4609 30.0104 52.4609 30.6719V35H50.6406V30.4922C50.6406 29.0026 50.1146 28.2578 49.0625 28.2578C48.5729 28.2578 48.1693 28.4818 47.8516 28.9297C47.5391 29.3776 47.3828 29.9583 47.3828 30.6719V35H45.5703V27H47.3828V28.2656H47.4141C47.9922 27.2969 48.8333 26.8125 49.9375 26.8125C50.4896 26.8125 50.9714 26.9661 51.3828 27.2734C51.7995 27.5755 52.0833 27.974 52.2344 28.4688C52.8281 27.3646 53.7135 26.8125 54.8906 26.8125C56.651 26.8125 57.5312 27.8984 57.5312 30.0703V35ZM60.6562 25.3203C60.3594 25.3203 60.1042 25.224 59.8906 25.0312C59.6823 24.8385 59.5781 24.5938 59.5781 24.2969C59.5781 24 59.6823 23.7526 59.8906 23.5547C60.1042 23.3568 60.3594 23.2578 60.6562 23.2578C60.9635 23.2578 61.224 23.3568 61.4375 23.5547C61.651 23.7526 61.7578 24 61.7578 24.2969C61.7578 24.5781 61.651 24.8203 61.4375 25.0234C61.224 25.2214 60.9635 25.3203 60.6562 25.3203ZM61.5547 35H59.7422V27H61.5547V35ZM71.0547 35H69.2422V30.4922C69.2422 28.9974 68.7135 28.25 67.6562 28.25C67.1042 28.25 66.6484 28.4583 66.2891 28.875C65.9297 29.2865 65.75 29.8073 65.75 30.4375V35H63.9297V27H65.75V28.3281H65.7812C66.3802 27.3177 67.2448 26.8125 68.375 26.8125C69.2448 26.8125 69.9089 27.0964 70.3672 27.6641C70.8255 28.2266 71.0547 29.0417 71.0547 30.1094V35Z" fill="black"/>
<path d="M107 122L107 622" stroke="#ECECEC"/>
<path d="M33.5 147H31.9375L30.0625 143.859C29.8906 143.568 29.724 143.32 29.5625 143.117C29.401 142.909 29.2344 142.74 29.0625 142.609C28.8958 142.479 28.7135 142.385 28.5156 142.328C28.3229 142.266 28.1042 142.234 27.8594 142.234H26.7812V147H25.4688V135.797H28.8125C29.3021 135.797 29.7526 135.859 30.1641 135.984C30.5807 136.104 30.9401 136.289 31.2422 136.539C31.5495 136.789 31.7891 137.102 31.9609 137.477C32.1328 137.846 32.2188 138.281 32.2188 138.781C32.2188 139.172 32.1589 139.531 32.0391 139.859C31.9245 140.182 31.7578 140.471 31.5391 140.727C31.3255 140.982 31.0651 141.201 30.7578 141.383C30.4557 141.56 30.1146 141.698 29.7344 141.797V141.828C29.9219 141.911 30.0833 142.008 30.2188 142.117C30.3594 142.221 30.4922 142.346 30.6172 142.492C30.7422 142.638 30.8646 142.805 30.9844 142.992C31.1094 143.174 31.2474 143.388 31.3984 143.633L33.5 147ZM26.7812 136.984V141.047H28.5625C28.8906 141.047 29.1927 140.997 29.4688 140.898C29.75 140.799 29.9922 140.659 30.1953 140.477C30.3984 140.289 30.5573 140.062 30.6719 139.797C30.7865 139.526 30.8438 139.224 30.8438 138.891C30.8438 138.292 30.6484 137.826 30.2578 137.492C29.8724 137.154 29.3125 136.984 28.5781 136.984H26.7812ZM37.75 147.188C36.5677 147.188 35.6224 146.815 34.9141 146.07C34.2109 145.32 33.8594 144.328 33.8594 143.094C33.8594 141.75 34.2266 140.701 34.9609 139.945C35.6953 139.19 36.6875 138.812 37.9375 138.812C39.1302 138.812 40.0599 139.18 40.7266 139.914C41.3984 140.648 41.7344 141.667 41.7344 142.969C41.7344 144.245 41.3724 145.268 40.6484 146.039C39.9297 146.805 38.9635 147.188 37.75 147.188ZM37.8438 139.891C37.0208 139.891 36.3698 140.172 35.8906 140.734C35.4115 141.292 35.1719 142.062 35.1719 143.047C35.1719 143.995 35.4141 144.742 35.8984 145.289C36.3828 145.836 37.0312 146.109 37.8438 146.109C38.6719 146.109 39.3073 145.841 39.75 145.305C40.1979 144.768 40.4219 144.005 40.4219 143.016C40.4219 142.016 40.1979 141.245 39.75 140.703C39.3073 140.161 38.6719 139.891 37.8438 139.891ZM45.0625 147H43.7812V135.156H45.0625V147ZM54.0859 143.32H48.4375C48.4583 144.211 48.6979 144.898 49.1562 145.383C49.6146 145.867 50.2448 146.109 51.0469 146.109C51.9479 146.109 52.776 145.812 53.5312 145.219V146.422C52.8281 146.932 51.8984 147.188 50.7422 147.188C49.612 147.188 48.724 146.826 48.0781 146.102C47.4323 145.372 47.1094 144.349 47.1094 143.031C47.1094 141.786 47.4609 140.773 48.1641 139.992C48.8724 139.206 49.75 138.812 50.7969 138.812C51.8438 138.812 52.6536 139.151 53.2266 139.828C53.7995 140.505 54.0859 141.445 54.0859 142.648V143.32ZM52.7734 142.234C52.7682 141.495 52.5885 140.919 52.2344 140.508C51.8854 140.096 51.3984 139.891 50.7734 139.891C50.1693 139.891 49.6562 140.107 49.2344 140.539C48.8125 140.971 48.5521 141.536 48.4531 142.234H52.7734ZM55.5469 146.711V145.336C56.2448 145.852 57.013 146.109 57.8516 146.109C58.9766 146.109 59.5391 145.734 59.5391 144.984C59.5391 144.771 59.4896 144.591 59.3906 144.445C59.2969 144.294 59.1667 144.161 59 144.047C58.8385 143.932 58.6458 143.831 58.4219 143.742C58.2031 143.648 57.9661 143.552 57.7109 143.453C57.3568 143.312 57.0443 143.172 56.7734 143.031C56.5078 142.885 56.2839 142.724 56.1016 142.547C55.9245 142.365 55.7891 142.159 55.6953 141.93C55.6068 141.701 55.5625 141.432 55.5625 141.125C55.5625 140.75 55.6484 140.419 55.8203 140.133C55.9922 139.841 56.2214 139.599 56.5078 139.406C56.7943 139.208 57.1198 139.06 57.4844 138.961C57.8542 138.862 58.2344 138.812 58.625 138.812C59.3177 138.812 59.9375 138.932 60.4844 139.172V140.469C59.8958 140.083 59.2188 139.891 58.4531 139.891C58.2135 139.891 57.9974 139.919 57.8047 139.977C57.612 140.029 57.4453 140.104 57.3047 140.203C57.1693 140.302 57.0625 140.422 56.9844 140.562C56.9115 140.698 56.875 140.849 56.875 141.016C56.875 141.224 56.9115 141.398 56.9844 141.539C57.0625 141.68 57.1745 141.805 57.3203 141.914C57.4661 142.023 57.6432 142.122 57.8516 142.211C58.0599 142.299 58.2969 142.396 58.5625 142.5C58.9167 142.635 59.2344 142.776 59.5156 142.922C59.7969 143.062 60.0365 143.224 60.2344 143.406C60.4323 143.583 60.5833 143.789 60.6875 144.023C60.7969 144.258 60.8516 144.536 60.8516 144.859C60.8516 145.255 60.763 145.599 60.5859 145.891C60.4141 146.182 60.1823 146.424 59.8906 146.617C59.599 146.81 59.263 146.953 58.8828 147.047C58.5026 147.141 58.1042 147.188 57.6875 147.188C56.8646 147.188 56.151 147.029 55.5469 146.711Z" fill="black"/>
<path d="M15 178L493 178" stroke="#ECECEC"/>
<path d="M29.2363 455.164C27.8464 455.164 26.7321 454.706 25.8936 453.79C25.0596 452.874 24.6426 451.682 24.6426 450.215C24.6426 448.638 25.0687 447.38 25.9209 446.441C26.7731 445.503 27.9329 445.033 29.4004 445.033C30.7539 445.033 31.8431 445.489 32.668 446.4C33.4974 447.312 33.9121 448.504 33.9121 449.976C33.9121 451.575 33.4883 452.84 32.6406 453.77C31.793 454.699 30.6582 455.164 29.2363 455.164ZM29.3184 446.072C28.2884 446.072 27.4521 446.444 26.8096 447.187C26.167 447.929 25.8457 448.905 25.8457 450.112C25.8457 451.32 26.1579 452.293 26.7822 453.031C27.4111 453.765 28.2292 454.132 29.2363 454.132C30.3118 454.132 31.1595 453.781 31.7793 453.079C32.3991 452.377 32.709 451.395 32.709 450.133C32.709 448.839 32.4082 447.838 31.8066 447.132C31.2051 446.425 30.3757 446.072 29.3184 446.072ZM44.5078 448L42.4092 455H41.2471L39.8047 449.989C39.75 449.798 39.7135 449.581 39.6953 449.34H39.668C39.6543 449.504 39.6064 449.716 39.5244 449.976L37.959 455H36.8379L34.7188 448H35.8945L37.3438 453.264C37.3893 453.423 37.4212 453.633 37.4395 453.893H37.4941C37.5078 453.692 37.5488 453.478 37.6172 453.25L39.2305 448H40.2559L41.7051 453.277C41.7507 453.446 41.7848 453.656 41.8076 453.906H41.8623C41.8714 453.729 41.9102 453.519 41.9785 453.277L43.4004 448H44.5078ZM51.6172 455H50.4961V451.008C50.4961 449.522 49.9538 448.779 48.8691 448.779C48.3086 448.779 47.8438 448.991 47.4746 449.415C47.11 449.834 46.9277 450.365 46.9277 451.008V455H45.8066V448H46.9277V449.162H46.9551C47.4837 448.278 48.2493 447.836 49.252 447.836C50.0176 447.836 50.6032 448.084 51.0088 448.581C51.4144 449.073 51.6172 449.786 51.6172 450.721V455ZM59.3623 451.78H54.4199C54.4382 452.56 54.6478 453.161 55.0488 453.585C55.4499 454.009 56.0013 454.221 56.7031 454.221C57.4915 454.221 58.2161 453.961 58.877 453.441V454.494C58.2617 454.941 57.4482 455.164 56.4365 455.164C55.4476 455.164 54.6706 454.847 54.1055 454.214C53.5404 453.576 53.2578 452.68 53.2578 451.527C53.2578 450.438 53.5654 449.552 54.1807 448.868C54.8005 448.18 55.5684 447.836 56.4844 447.836C57.4004 447.836 58.109 448.132 58.6104 448.725C59.1117 449.317 59.3623 450.14 59.3623 451.192V451.78ZM58.2139 450.83C58.2093 450.183 58.0521 449.679 57.7422 449.319C57.4368 448.959 57.0107 448.779 56.4639 448.779C55.9352 448.779 55.4863 448.968 55.1172 449.347C54.748 449.725 54.5202 450.219 54.4336 450.83H58.2139ZM64.7148 449.135C64.5189 448.984 64.2363 448.909 63.8672 448.909C63.3887 448.909 62.9876 449.135 62.6641 449.586C62.3451 450.037 62.1855 450.652 62.1855 451.432V455H61.0645V448H62.1855V449.442H62.2129C62.3724 448.95 62.6162 448.567 62.9443 448.294C63.2725 448.016 63.6393 447.877 64.0449 447.877C64.3366 447.877 64.5599 447.909 64.7148 447.973V449.135Z" fill="black"/>
<path d="M15 502L493 502" stroke="#ECECEC"/>
<path d="M32.5723 548.197L28.9424 558H27.6777L24.123 548.197H25.4014L28.1152 555.97C28.2018 556.22 28.2679 556.51 28.3135 556.838H28.3408C28.3773 556.564 28.4525 556.271 28.5664 555.956L31.335 548.197H32.5723ZM34.4043 549.223C34.2038 549.223 34.0329 549.154 33.8916 549.018C33.7503 548.881 33.6797 548.708 33.6797 548.498C33.6797 548.288 33.7503 548.115 33.8916 547.979C34.0329 547.837 34.2038 547.767 34.4043 547.767C34.6094 547.767 34.7826 547.837 34.9238 547.979C35.0697 548.115 35.1426 548.288 35.1426 548.498C35.1426 548.699 35.0697 548.869 34.9238 549.011C34.7826 549.152 34.6094 549.223 34.4043 549.223ZM34.9512 558H33.8301V551H34.9512V558ZM42.8467 554.78H37.9043C37.9225 555.56 38.1322 556.161 38.5332 556.585C38.9342 557.009 39.4857 557.221 40.1875 557.221C40.9759 557.221 41.7005 556.961 42.3613 556.441V557.494C41.7461 557.941 40.9326 558.164 39.9209 558.164C38.932 558.164 38.1549 557.847 37.5898 557.214C37.0247 556.576 36.7422 555.68 36.7422 554.527C36.7422 553.438 37.0498 552.552 37.665 551.868C38.2848 551.18 39.0527 550.836 39.9688 550.836C40.8848 550.836 41.5934 551.132 42.0947 551.725C42.596 552.317 42.8467 553.14 42.8467 554.192V554.78ZM41.6982 553.83C41.6937 553.183 41.5365 552.679 41.2266 552.319C40.9212 551.959 40.4951 551.779 39.9482 551.779C39.4196 551.779 38.9707 551.968 38.6016 552.347C38.2324 552.725 38.0046 553.219 37.918 553.83H41.6982ZM53.3672 551L51.2686 558H50.1064L48.6641 552.989C48.6094 552.798 48.5729 552.581 48.5547 552.34H48.5273C48.5137 552.504 48.4658 552.716 48.3838 552.976L46.8184 558H45.6973L43.5781 551H44.7539L46.2031 556.264C46.2487 556.423 46.2806 556.633 46.2988 556.893H46.3535C46.3672 556.692 46.4082 556.478 46.4766 556.25L48.0898 551H49.1152L50.5645 556.277C50.61 556.446 50.6442 556.656 50.667 556.906H50.7217C50.7308 556.729 50.7695 556.519 50.8379 556.277L52.2598 551H53.3672ZM60.292 554.78H55.3496C55.3678 555.56 55.5775 556.161 55.9785 556.585C56.3796 557.009 56.931 557.221 57.6328 557.221C58.4212 557.221 59.1458 556.961 59.8066 556.441V557.494C59.1914 557.941 58.3779 558.164 57.3662 558.164C56.3773 558.164 55.6003 557.847 55.0352 557.214C54.4701 556.576 54.1875 555.68 54.1875 554.527C54.1875 553.438 54.4951 552.552 55.1104 551.868C55.7301 551.18 56.498 550.836 57.4141 550.836C58.3301 550.836 59.0387 551.132 59.54 551.725C60.0413 552.317 60.292 553.14 60.292 554.192V554.78ZM59.1436 553.83C59.139 553.183 58.9818 552.679 58.6719 552.319C58.3665 551.959 57.9404 551.779 57.3936 551.779C56.8649 551.779 56.416 551.968 56.0469 552.347C55.6777 552.725 55.4499 553.219 55.3633 553.83H59.1436ZM65.6445 552.135C65.4486 551.984 65.166 551.909 64.7969 551.909C64.3184 551.909 63.9173 552.135 63.5938 552.586C63.2747 553.037 63.1152 553.652 63.1152 554.432V558H61.9941V551H63.1152V552.442H63.1426C63.3021 551.95 63.5459 551.567 63.874 551.294C64.2021 551.016 64.569 550.877 64.9746 550.877C65.2663 550.877 65.4896 550.909 65.6445 550.973V552.135Z" fill="black"/>
<path d="M31.957 237.59C31.2324 237.973 30.3301 238.164 29.25 238.164C27.8555 238.164 26.7389 237.715 25.9004 236.817C25.0618 235.92 24.6426 234.742 24.6426 233.283C24.6426 231.715 25.1143 230.449 26.0576 229.482C27.001 228.516 28.1973 228.033 29.6465 228.033C30.5762 228.033 31.3464 228.168 31.957 228.437V229.66C31.2552 229.268 30.4805 229.072 29.6328 229.072C28.5072 229.072 27.5934 229.448 26.8916 230.2C26.1943 230.952 25.8457 231.957 25.8457 233.215C25.8457 234.409 26.1715 235.361 26.8232 236.072C27.4795 236.779 28.3385 237.132 29.4004 237.132C30.3848 237.132 31.237 236.913 31.957 236.476V237.59ZM36.7285 238.164C35.694 238.164 34.8669 237.838 34.2471 237.187C33.6318 236.53 33.3242 235.662 33.3242 234.582C33.3242 233.406 33.6455 232.488 34.2881 231.827C34.9307 231.166 35.7988 230.836 36.8926 230.836C37.9362 230.836 38.7497 231.157 39.333 231.8C39.9209 232.442 40.2148 233.333 40.2148 234.473C40.2148 235.589 39.8981 236.485 39.2646 237.159C38.6357 237.829 37.7904 238.164 36.7285 238.164ZM36.8105 231.779C36.0905 231.779 35.5208 232.025 35.1016 232.518C34.6823 233.005 34.4727 233.68 34.4727 234.541C34.4727 235.37 34.6846 236.024 35.1084 236.503C35.5322 236.981 36.0996 237.221 36.8105 237.221C37.5352 237.221 38.0911 236.986 38.4785 236.517C38.8704 236.047 39.0664 235.38 39.0664 234.514C39.0664 233.639 38.8704 232.964 38.4785 232.49C38.0911 232.016 37.5352 231.779 36.8105 231.779ZM47.8164 238H46.6953V234.008C46.6953 232.522 46.153 231.779 45.0684 231.779C44.5078 231.779 44.043 231.991 43.6738 232.415C43.3092 232.834 43.127 233.365 43.127 234.008V238H42.0059V231H43.127V232.162H43.1543C43.6829 231.278 44.4486 230.836 45.4512 230.836C46.2168 230.836 46.8024 231.084 47.208 231.581C47.6136 232.073 47.8164 232.786 47.8164 233.721V238ZM53.1826 237.932C52.9183 238.077 52.5697 238.15 52.1367 238.15C50.9108 238.15 50.2979 237.467 50.2979 236.1V231.957H49.0947V231H50.2979V229.291L51.4189 228.929V231H53.1826V231.957H51.4189V235.901C51.4189 236.371 51.4987 236.706 51.6582 236.906C51.8177 237.107 52.082 237.207 52.4512 237.207C52.7337 237.207 52.9775 237.13 53.1826 236.975V237.932ZM58.3301 232.135C58.1341 231.984 57.8516 231.909 57.4824 231.909C57.0039 231.909 56.6029 232.135 56.2793 232.586C55.9603 233.037 55.8008 233.652 55.8008 234.432V238H54.6797V231H55.8008V232.442H55.8281C55.9876 231.95 56.2314 231.567 56.5596 231.294C56.8877 231.016 57.2546 230.877 57.6602 230.877C57.9518 230.877 58.1751 230.909 58.3301 230.973V232.135ZM60.1211 229.223C59.9206 229.223 59.7497 229.154 59.6084 229.018C59.4671 228.881 59.3965 228.708 59.3965 228.498C59.3965 228.288 59.4671 228.115 59.6084 227.979C59.7497 227.837 59.9206 227.767 60.1211 227.767C60.3262 227.767 60.4993 227.837 60.6406 227.979C60.7865 228.115 60.8594 228.288 60.8594 228.498C60.8594 228.699 60.7865 228.869 60.6406 229.011C60.4993 229.152 60.3262 229.223 60.1211 229.223ZM60.668 238H59.5469V231H60.668V238ZM64.0859 236.988H64.0586V238H62.9375V227.637H64.0586V232.23H64.0859C64.6374 231.301 65.444 230.836 66.5059 230.836C67.4036 230.836 68.1055 231.15 68.6113 231.779C69.1217 232.404 69.377 233.242 69.377 234.295C69.377 235.466 69.0921 236.405 68.5225 237.111C67.9528 237.813 67.1735 238.164 66.1846 238.164C65.2594 238.164 64.5599 237.772 64.0859 236.988ZM64.0586 234.165V235.143C64.0586 235.721 64.2454 236.214 64.6191 236.619C64.9974 237.02 65.4759 237.221 66.0547 237.221C66.7337 237.221 67.2646 236.961 67.6475 236.441C68.0348 235.922 68.2285 235.2 68.2285 234.274C68.2285 233.495 68.0485 232.884 67.6885 232.442C67.3285 232 66.8408 231.779 66.2256 231.779C65.5739 231.779 65.0498 232.007 64.6533 232.463C64.2568 232.914 64.0586 233.481 64.0586 234.165ZM76.8281 238H75.707V236.893H75.6797C75.2148 237.74 74.4948 238.164 73.5195 238.164C71.8516 238.164 71.0176 237.171 71.0176 235.184V231H72.1318V235.006C72.1318 236.482 72.6969 237.221 73.8271 237.221C74.374 237.221 74.8229 237.02 75.1738 236.619C75.5293 236.214 75.707 235.685 75.707 235.033V231H76.8281V238ZM82.3447 237.932C82.0804 238.077 81.7318 238.15 81.2988 238.15C80.0729 238.15 79.46 237.467 79.46 236.1V231.957H78.2568V231H79.46V229.291L80.5811 228.929V231H82.3447V231.957H80.5811V235.901C80.5811 236.371 80.6608 236.706 80.8203 236.906C80.9798 237.107 81.2441 237.207 81.6133 237.207C81.8958 237.207 82.1396 237.13 82.3447 236.975V237.932ZM86.7676 238.164C85.7331 238.164 84.9059 237.838 84.2861 237.187C83.6709 236.53 83.3633 235.662 83.3633 234.582C83.3633 233.406 83.6846 232.488 84.3271 231.827C84.9697 231.166 85.8379 230.836 86.9316 230.836C87.9753 230.836 88.7887 231.157 89.3721 231.8C89.96 232.442 90.2539 233.333 90.2539 234.473C90.2539 235.589 89.9372 236.485 89.3037 237.159C88.6748 237.829 87.8294 238.164 86.7676 238.164ZM86.8496 231.779C86.1296 231.779 85.5599 232.025 85.1406 232.518C84.7214 233.005 84.5117 233.68 84.5117 234.541C84.5117 235.37 84.7236 236.024 85.1475 236.503C85.5713 236.981 86.1387 237.221 86.8496 237.221C87.5742 237.221 88.1302 236.986 88.5176 236.517C88.9095 236.047 89.1055 235.38 89.1055 234.514C89.1055 233.639 88.9095 232.964 88.5176 232.49C88.1302 232.016 87.5742 231.779 86.8496 231.779ZM95.6953 232.135C95.4993 231.984 95.2168 231.909 94.8477 231.909C94.3691 231.909 93.9681 232.135 93.6445 232.586C93.3255 233.037 93.166 233.652 93.166 234.432V238H92.0449V231H93.166V232.442H93.1934C93.3529 231.95 93.5967 231.567 93.9248 231.294C94.2529 231.016 94.6198 230.877 95.0254 230.877C95.3171 230.877 95.5404 230.909 95.6953 230.973V232.135Z" fill="black"/>
<path d="M15 285L493 285" stroke="#ECECEC"/>
<path d="M30.4805 348H25.2852V338.197H30.2617V339.236H26.4336V342.497H29.9746V343.529H26.4336V346.961H30.4805V348ZM37.3301 341L34.9785 344.541L37.2891 348H35.9834L34.6094 345.73C34.5228 345.589 34.4202 345.411 34.3018 345.197H34.2744C34.2516 345.238 34.1445 345.416 33.9531 345.73L32.5518 348H31.2598L33.6455 344.568L31.3623 341H32.668L34.0215 343.393C34.1217 343.57 34.2197 343.753 34.3154 343.939H34.3428L36.0928 341H37.3301ZM39.791 346.988H39.7637V351.22H38.6426V341H39.7637V342.23H39.791C40.3424 341.301 41.1491 340.836 42.2109 340.836C43.1133 340.836 43.8174 341.15 44.3232 341.779C44.8291 342.404 45.082 343.242 45.082 344.295C45.082 345.466 44.7972 346.405 44.2275 347.111C43.6579 347.813 42.8786 348.164 41.8896 348.164C40.9827 348.164 40.2832 347.772 39.791 346.988ZM39.7637 344.165V345.143C39.7637 345.721 39.9505 346.214 40.3242 346.619C40.7025 347.02 41.181 347.221 41.7598 347.221C42.4388 347.221 42.9697 346.961 43.3525 346.441C43.7399 345.922 43.9336 345.2 43.9336 344.274C43.9336 343.495 43.7536 342.884 43.3936 342.442C43.0335 342 42.5459 341.779 41.9307 341.779C41.279 341.779 40.7549 342.007 40.3584 342.463C39.9619 342.914 39.7637 343.481 39.7637 344.165ZM49.7988 348.164C48.7643 348.164 47.9372 347.838 47.3174 347.187C46.7021 346.53 46.3945 345.662 46.3945 344.582C46.3945 343.406 46.7158 342.488 47.3584 341.827C48.001 341.166 48.8691 340.836 49.9629 340.836C51.0065 340.836 51.82 341.157 52.4033 341.8C52.9912 342.442 53.2852 343.333 53.2852 344.473C53.2852 345.589 52.9684 346.485 52.335 347.159C51.7061 347.829 50.8607 348.164 49.7988 348.164ZM49.8809 341.779C49.1608 341.779 48.5911 342.025 48.1719 342.518C47.7526 343.005 47.543 343.68 47.543 344.541C47.543 345.37 47.7549 346.024 48.1787 346.503C48.6025 346.981 49.1699 347.221 49.8809 347.221C50.6055 347.221 51.1615 346.986 51.5488 346.517C51.9408 346.047 52.1367 345.38 52.1367 344.514C52.1367 343.639 51.9408 342.964 51.5488 342.49C51.1615 342.016 50.6055 341.779 49.8809 341.779ZM58.7266 342.135C58.5306 341.984 58.248 341.909 57.8789 341.909C57.4004 341.909 56.9993 342.135 56.6758 342.586C56.3568 343.037 56.1973 343.652 56.1973 344.432V348H55.0762V341H56.1973V342.442H56.2246C56.3841 341.95 56.6279 341.567 56.9561 341.294C57.2842 341.016 57.651 340.877 58.0566 340.877C58.3483 340.877 58.5716 340.909 58.7266 340.973V342.135ZM63.1904 347.932C62.9261 348.077 62.5775 348.15 62.1445 348.15C60.9186 348.15 60.3057 347.467 60.3057 346.1V341.957H59.1025V341H60.3057V339.291L61.4268 338.929V341H63.1904V341.957H61.4268V345.901C61.4268 346.371 61.5065 346.706 61.666 346.906C61.8255 347.107 62.0898 347.207 62.459 347.207C62.7415 347.207 62.9854 347.13 63.1904 346.975V347.932ZM70.3135 344.78H65.3711C65.3893 345.56 65.599 346.161 66 346.585C66.401 347.009 66.9525 347.221 67.6543 347.221C68.4427 347.221 69.1673 346.961 69.8281 346.441V347.494C69.2129 347.941 68.3994 348.164 67.3877 348.164C66.3988 348.164 65.6217 347.847 65.0566 347.214C64.4915 346.576 64.209 345.68 64.209 344.527C64.209 343.438 64.5166 342.552 65.1318 341.868C65.7516 341.18 66.5195 340.836 67.4355 340.836C68.3516 340.836 69.0602 341.132 69.5615 341.725C70.0628 342.317 70.3135 343.14 70.3135 344.192V344.78ZM69.165 343.83C69.1605 343.183 69.0033 342.679 68.6934 342.319C68.388 341.959 67.9619 341.779 67.415 341.779C66.8864 341.779 66.4375 341.968 66.0684 342.347C65.6992 342.725 65.4714 343.219 65.3848 343.83H69.165ZM75.666 342.135C75.4701 341.984 75.1875 341.909 74.8184 341.909C74.3398 341.909 73.9388 342.135 73.6152 342.586C73.2962 343.037 73.1367 343.652 73.1367 344.432V348H72.0156V341H73.1367V342.442H73.1641C73.3236 341.95 73.5674 341.567 73.8955 341.294C74.2236 341.016 74.5905 340.877 74.9961 340.877C75.2878 340.877 75.5111 340.909 75.666 340.973V342.135Z" fill="black"/>
<path d="M15 395L493 395" stroke="#ECECEC"/>
<path d="M296 122L296 622" stroke="#ECECEC"/>
<path d="M198 121L198 621" stroke="#ECECEC"/>
<path d="M397 122L397 622" stroke="#ECECEC"/>
<path d="M31.082 70.2363H28.252V79H27.1035V70.2363H24.2803V69.1973H31.082V70.2363ZM36.7354 75.7803H31.793C31.8112 76.5596 32.0208 77.1611 32.4219 77.585C32.8229 78.0088 33.3743 78.2207 34.0762 78.2207C34.8646 78.2207 35.5892 77.9609 36.25 77.4414V78.4941C35.6348 78.9408 34.8213 79.1641 33.8096 79.1641C32.8206 79.1641 32.0436 78.8473 31.4785 78.2139C30.9134 77.5758 30.6309 76.6803 30.6309 75.5273C30.6309 74.4382 30.9385 73.5518 31.5537 72.8682C32.1735 72.18 32.9414 71.8359 33.8574 71.8359C34.7734 71.8359 35.4821 72.1322 35.9834 72.7246C36.4847 73.3171 36.7354 74.1396 36.7354 75.1924V75.7803ZM35.5869 74.8301C35.5824 74.1829 35.4251 73.6794 35.1152 73.3193C34.8099 72.9593 34.3838 72.7793 33.8369 72.7793C33.3083 72.7793 32.8594 72.9684 32.4902 73.3467C32.1211 73.7249 31.8932 74.2194 31.8066 74.8301H35.5869ZM44.248 79H43.127V75.0078C43.127 73.5221 42.5846 72.7793 41.5 72.7793C40.9395 72.7793 40.4746 72.9912 40.1055 73.415C39.7409 73.8343 39.5586 74.3652 39.5586 75.0078V79H38.4375V72H39.5586V73.1621H39.5859C40.1146 72.278 40.8802 71.8359 41.8828 71.8359C42.6484 71.8359 43.234 72.0843 43.6396 72.5811C44.0452 73.0732 44.248 73.7865 44.248 74.7207V79ZM51.3779 79H50.2568V77.9062H50.2295C49.7419 78.7448 49.0241 79.1641 48.0762 79.1641C47.3789 79.1641 46.832 78.9795 46.4355 78.6104C46.0436 78.2412 45.8477 77.7513 45.8477 77.1406C45.8477 75.8327 46.6178 75.0716 48.1582 74.8574L50.2568 74.5635C50.2568 73.374 49.776 72.7793 48.8145 72.7793C47.9714 72.7793 47.2103 73.0664 46.5312 73.6406V72.4922C47.2194 72.0547 48.0124 71.8359 48.9102 71.8359C50.5553 71.8359 51.3779 72.7064 51.3779 74.4473V79ZM50.2568 75.459L48.5684 75.6914C48.0488 75.7643 47.6569 75.8942 47.3926 76.0811C47.1283 76.2633 46.9961 76.5892 46.9961 77.0586C46.9961 77.4004 47.1169 77.6807 47.3584 77.8994C47.6045 78.1136 47.9303 78.2207 48.3359 78.2207C48.8919 78.2207 49.3499 78.027 49.71 77.6396C50.0745 77.2477 50.2568 76.7533 50.2568 76.1562V75.459ZM59.3008 79H58.1797V75.0078C58.1797 73.5221 57.6374 72.7793 56.5527 72.7793C55.9922 72.7793 55.5273 72.9912 55.1582 73.415C54.7936 73.8343 54.6113 74.3652 54.6113 75.0078V79H53.4902V72H54.6113V73.1621H54.6387C55.1673 72.278 55.9329 71.8359 56.9355 71.8359C57.7012 71.8359 58.2868 72.0843 58.6924 72.5811C59.098 73.0732 59.3008 73.7865 59.3008 74.7207V79ZM64.667 78.9316C64.4027 79.0775 64.054 79.1504 63.6211 79.1504C62.3952 79.1504 61.7822 78.4668 61.7822 77.0996V72.957H60.5791V72H61.7822V70.291L62.9033 69.9287V72H64.667V72.957H62.9033V76.9014C62.9033 77.3708 62.9831 77.7057 63.1426 77.9062C63.3021 78.1068 63.5664 78.207 63.9355 78.207C64.2181 78.207 64.4619 78.1296 64.667 77.9746V78.9316ZM65.7402 78.7471V77.5439C66.3509 77.9951 67.0231 78.2207 67.7568 78.2207C68.7412 78.2207 69.2334 77.8926 69.2334 77.2363C69.2334 77.0495 69.1901 76.8923 69.1035 76.7646C69.0215 76.6325 68.9076 76.5163 68.7617 76.416C68.6204 76.3158 68.4518 76.2269 68.2559 76.1494C68.0645 76.0674 67.8571 75.9831 67.6338 75.8965C67.3239 75.7734 67.0505 75.6504 66.8135 75.5273C66.5811 75.3997 66.3851 75.2585 66.2256 75.1035C66.0706 74.944 65.9521 74.764 65.8701 74.5635C65.7926 74.363 65.7539 74.1283 65.7539 73.8594C65.7539 73.5312 65.8291 73.2419 65.9795 72.9912C66.1299 72.736 66.3304 72.5241 66.5811 72.3555C66.8317 72.1823 67.1165 72.0524 67.4355 71.9658C67.7591 71.8792 68.0918 71.8359 68.4336 71.8359C69.0397 71.8359 69.582 71.9408 70.0605 72.1504V73.2852C69.5456 72.9479 68.9531 72.7793 68.2832 72.7793C68.0736 72.7793 67.8844 72.8044 67.7158 72.8545C67.5472 72.9001 67.4014 72.9661 67.2783 73.0527C67.1598 73.1393 67.0664 73.2441 66.998 73.3672C66.9342 73.4857 66.9023 73.6178 66.9023 73.7637C66.9023 73.946 66.9342 74.0986 66.998 74.2217C67.0664 74.3447 67.1644 74.4541 67.292 74.5498C67.4196 74.6455 67.5745 74.7321 67.7568 74.8096C67.9391 74.887 68.1465 74.9714 68.3789 75.0625C68.6888 75.181 68.9668 75.304 69.2129 75.4316C69.459 75.5547 69.6686 75.696 69.8418 75.8555C70.015 76.0104 70.1471 76.1904 70.2383 76.3955C70.334 76.6006 70.3818 76.8444 70.3818 77.127C70.3818 77.4733 70.3044 77.7741 70.1494 78.0293C69.999 78.2845 69.7962 78.4964 69.541 78.665C69.2858 78.8337 68.9919 78.959 68.6592 79.041C68.3265 79.123 67.9779 79.1641 67.6133 79.1641C66.8932 79.1641 66.2689 79.0251 65.7402 78.7471Z" fill="#0B0B0B"/>
<path d="M105.784 79H103.884L102.318 76.375C102.177 76.1335 102.038 75.9284 101.901 75.7598C101.769 75.5866 101.632 75.4453 101.491 75.3359C101.354 75.2266 101.204 75.1468 101.04 75.0967C100.876 75.0465 100.691 75.0215 100.486 75.0215H99.8301V79H98.21V69.1973H101.437C101.897 69.1973 102.321 69.252 102.708 69.3613C103.095 69.4707 103.433 69.637 103.72 69.8604C104.007 70.0791 104.23 70.3548 104.39 70.6875C104.554 71.0156 104.636 71.4007 104.636 71.8428C104.636 72.1891 104.583 72.5081 104.479 72.7998C104.378 73.0869 104.232 73.3444 104.041 73.5723C103.854 73.7956 103.626 73.987 103.357 74.1465C103.093 74.306 102.795 74.429 102.462 74.5156V74.543C102.64 74.6432 102.795 74.7549 102.927 74.8779C103.059 74.9964 103.184 75.1195 103.303 75.2471C103.421 75.3747 103.537 75.5205 103.651 75.6846C103.77 75.8441 103.9 76.0309 104.041 76.2451L105.784 79ZM99.8301 70.5166V73.7021H101.184C101.434 73.7021 101.664 73.6634 101.874 73.5859C102.088 73.5085 102.273 73.3968 102.428 73.251C102.583 73.1051 102.703 72.9274 102.79 72.7178C102.877 72.5081 102.92 72.2734 102.92 72.0137C102.92 71.5443 102.772 71.1774 102.476 70.9131C102.179 70.6488 101.753 70.5166 101.197 70.5166H99.8301ZM109.476 79.1641C108.396 79.1641 107.532 78.8382 106.885 78.1865C106.242 77.5303 105.921 76.6621 105.921 75.582C105.921 74.4062 106.256 73.488 106.926 72.8271C107.6 72.1663 108.507 71.8359 109.646 71.8359C110.74 71.8359 111.592 72.1572 112.203 72.7998C112.814 73.4424 113.119 74.3333 113.119 75.4727C113.119 76.5892 112.789 77.4847 112.128 78.1592C111.472 78.8291 110.588 79.1641 109.476 79.1641ZM109.551 73.1006C108.931 73.1006 108.441 73.3171 108.081 73.75C107.721 74.1829 107.541 74.7799 107.541 75.541C107.541 76.2747 107.723 76.8535 108.088 77.2773C108.452 77.6966 108.94 77.9062 109.551 77.9062C110.175 77.9062 110.654 77.6989 110.986 77.2842C111.324 76.8695 111.492 76.2793 111.492 75.5137C111.492 74.7435 111.324 74.1488 110.986 73.7295C110.654 73.3102 110.175 73.1006 109.551 73.1006ZM116.332 79H114.739V68.6367H116.332V79ZM124.33 75.9307H119.559C119.577 76.5778 119.775 77.0768 120.153 77.4277C120.536 77.7786 121.06 77.9541 121.726 77.9541C122.473 77.9541 123.159 77.7308 123.783 77.2842V78.5625C123.145 78.9635 122.302 79.1641 121.254 79.1641C120.224 79.1641 119.415 78.8473 118.827 78.2139C118.244 77.5758 117.952 76.6803 117.952 75.5273C117.952 74.4382 118.273 73.5518 118.916 72.8682C119.563 72.18 120.365 71.8359 121.322 71.8359C122.279 71.8359 123.02 72.1436 123.544 72.7588C124.068 73.374 124.33 74.2285 124.33 75.3223V75.9307ZM122.799 74.8096C122.794 74.2399 122.66 73.7979 122.396 73.4834C122.131 73.1644 121.767 73.0049 121.302 73.0049C120.846 73.0049 120.459 73.1712 120.14 73.5039C119.825 73.8366 119.632 74.2718 119.559 74.8096H122.799ZM125.403 78.7812V77.3115C125.996 77.7627 126.65 77.9883 127.365 77.9883C128.322 77.9883 128.801 77.7057 128.801 77.1406C128.801 76.9811 128.76 76.8467 128.678 76.7373C128.596 76.6234 128.484 76.5231 128.343 76.4365C128.206 76.3499 128.042 76.2725 127.851 76.2041C127.664 76.1357 127.454 76.0583 127.222 75.9717C126.935 75.8577 126.675 75.737 126.442 75.6094C126.215 75.4818 126.023 75.3382 125.868 75.1787C125.718 75.0146 125.604 74.8301 125.526 74.625C125.449 74.4199 125.41 74.1807 125.41 73.9072C125.41 73.57 125.49 73.2738 125.649 73.0186C125.809 72.7588 126.023 72.5423 126.292 72.3691C126.561 72.1914 126.866 72.0592 127.208 71.9727C127.55 71.8815 127.903 71.8359 128.268 71.8359C128.915 71.8359 129.493 71.9339 130.004 72.1299V73.5176C129.512 73.1803 128.947 73.0117 128.309 73.0117C128.108 73.0117 127.926 73.0322 127.762 73.0732C127.602 73.1143 127.465 73.1712 127.352 73.2441C127.238 73.3171 127.149 73.4059 127.085 73.5107C127.021 73.611 126.989 73.7227 126.989 73.8457C126.989 73.9961 127.021 74.1237 127.085 74.2285C127.149 74.3333 127.242 74.4268 127.365 74.5088C127.493 74.5863 127.643 74.6592 127.816 74.7275C127.994 74.7913 128.197 74.862 128.425 74.9395C128.726 75.0625 128.994 75.1878 129.231 75.3154C129.473 75.443 129.678 75.5889 129.847 75.7529C130.015 75.9124 130.145 76.0993 130.236 76.3135C130.327 76.5231 130.373 76.7738 130.373 77.0654C130.373 77.4209 130.291 77.7308 130.127 77.9951C129.963 78.2594 129.744 78.4782 129.471 78.6514C129.197 78.8245 128.881 78.9521 128.521 79.0342C128.165 79.1208 127.789 79.1641 127.393 79.1641C126.627 79.1641 125.964 79.0365 125.403 78.7812Z" fill="#275CE6"/>
<path d="M241.082 70.2363H238.252V79H237.104V70.2363H234.28V69.1973H241.082V70.2363ZM248.287 79H247.166V74.9668C247.166 73.5085 246.624 72.7793 245.539 72.7793C244.992 72.7793 244.532 72.9912 244.158 73.415C243.785 73.8343 243.598 74.3743 243.598 75.0352V79H242.477V68.6367H243.598V73.1621H243.625C244.163 72.278 244.928 71.8359 245.922 71.8359C247.499 71.8359 248.287 72.7861 248.287 74.6865V79ZM256.032 75.7803H251.09C251.108 76.5596 251.318 77.1611 251.719 77.585C252.12 78.0088 252.671 78.2207 253.373 78.2207C254.161 78.2207 254.886 77.9609 255.547 77.4414V78.4941C254.932 78.9408 254.118 79.1641 253.106 79.1641C252.118 79.1641 251.34 78.8473 250.775 78.2139C250.21 77.5758 249.928 76.6803 249.928 75.5273C249.928 74.4382 250.235 73.5518 250.851 72.8682C251.47 72.18 252.238 71.8359 253.154 71.8359C254.07 71.8359 254.779 72.1322 255.28 72.7246C255.782 73.3171 256.032 74.1396 256.032 75.1924V75.7803ZM254.884 74.8301C254.879 74.1829 254.722 73.6794 254.412 73.3193C254.107 72.9593 253.681 72.7793 253.134 72.7793C252.605 72.7793 252.156 72.9684 251.787 73.3467C251.418 73.7249 251.19 74.2194 251.104 74.8301H254.884ZM267.674 79H266.553V74.9805C266.553 74.2057 266.432 73.6452 266.19 73.2988C265.953 72.9525 265.552 72.7793 264.987 72.7793C264.509 72.7793 264.101 72.998 263.764 73.4355C263.431 73.873 263.265 74.3971 263.265 75.0078V79H262.144V74.8438C262.144 73.4674 261.613 72.7793 260.551 72.7793C260.059 72.7793 259.653 72.9867 259.334 73.4014C259.015 73.8115 258.855 74.347 258.855 75.0078V79H257.734V72H258.855V73.1074H258.883C259.38 72.2598 260.104 71.8359 261.057 71.8359C261.535 71.8359 261.952 71.9704 262.308 72.2393C262.663 72.5036 262.907 72.8522 263.039 73.2852C263.559 72.319 264.333 71.8359 265.363 71.8359C266.904 71.8359 267.674 72.7861 267.674 74.6865V79ZM275.419 75.7803H270.477C270.495 76.5596 270.704 77.1611 271.105 77.585C271.507 78.0088 272.058 78.2207 272.76 78.2207C273.548 78.2207 274.273 77.9609 274.934 77.4414V78.4941C274.318 78.9408 273.505 79.1641 272.493 79.1641C271.504 79.1641 270.727 78.8473 270.162 78.2139C269.597 77.5758 269.314 76.6803 269.314 75.5273C269.314 74.4382 269.622 73.5518 270.237 72.8682C270.857 72.18 271.625 71.8359 272.541 71.8359C273.457 71.8359 274.166 72.1322 274.667 72.7246C275.168 73.3171 275.419 74.1396 275.419 75.1924V75.7803ZM274.271 74.8301C274.266 74.1829 274.109 73.6794 273.799 73.3193C273.493 72.9593 273.067 72.7793 272.521 72.7793C271.992 72.7793 271.543 72.9684 271.174 73.3467C270.805 73.7249 270.577 74.2194 270.49 74.8301H274.271Z" fill="black"/>
<path d="M155.285 79V69.1973H158.074C158.922 69.1973 159.594 69.4046 160.091 69.8193C160.588 70.234 160.836 70.7741 160.836 71.4395C160.836 71.9954 160.686 72.4785 160.385 72.8887C160.084 73.2988 159.669 73.5905 159.141 73.7637V73.791C159.801 73.8685 160.33 74.1191 160.727 74.543C161.123 74.9622 161.321 75.5091 161.321 76.1836C161.321 77.0221 161.021 77.7012 160.419 78.2207C159.817 78.7402 159.059 79 158.143 79H155.285ZM156.434 70.2363V73.4014H157.609C158.238 73.4014 158.733 73.251 159.093 72.9502C159.453 72.6449 159.633 72.2165 159.633 71.665C159.633 70.7126 159.006 70.2363 157.753 70.2363H156.434ZM156.434 74.4336V77.9609H157.992C158.667 77.9609 159.188 77.8014 159.558 77.4824C159.931 77.1634 160.118 76.7259 160.118 76.1699C160.118 75.0124 159.33 74.4336 157.753 74.4336H156.434ZM166.811 73.1348C166.615 72.9844 166.332 72.9092 165.963 72.9092C165.484 72.9092 165.083 73.1348 164.76 73.5859C164.441 74.0371 164.281 74.6523 164.281 75.4316V79H163.16V72H164.281V73.4424H164.309C164.468 72.9502 164.712 72.5674 165.04 72.2939C165.368 72.016 165.735 71.877 166.141 71.877C166.432 71.877 166.656 71.9089 166.811 71.9727V73.1348ZM173.038 79H171.917V77.9062H171.89C171.402 78.7448 170.684 79.1641 169.736 79.1641C169.039 79.1641 168.492 78.9795 168.096 78.6104C167.704 78.2412 167.508 77.7513 167.508 77.1406C167.508 75.8327 168.278 75.0716 169.818 74.8574L171.917 74.5635C171.917 73.374 171.436 72.7793 170.475 72.7793C169.632 72.7793 168.87 73.0664 168.191 73.6406V72.4922C168.88 72.0547 169.673 71.8359 170.57 71.8359C172.215 71.8359 173.038 72.7064 173.038 74.4473V79ZM171.917 75.459L170.229 75.6914C169.709 75.7643 169.317 75.8942 169.053 76.0811C168.788 76.2633 168.656 76.5892 168.656 77.0586C168.656 77.4004 168.777 77.6807 169.019 77.8994C169.265 78.1136 169.59 78.2207 169.996 78.2207C170.552 78.2207 171.01 78.027 171.37 77.6396C171.735 77.2477 171.917 76.7533 171.917 76.1562V75.459ZM180.961 79H179.84V75.0078C179.84 73.5221 179.298 72.7793 178.213 72.7793C177.652 72.7793 177.188 72.9912 176.818 73.415C176.454 73.8343 176.271 74.3652 176.271 75.0078V79H175.15V72H176.271V73.1621H176.299C176.827 72.278 177.593 71.8359 178.596 71.8359C179.361 71.8359 179.947 72.0843 180.353 72.5811C180.758 73.0732 180.961 73.7865 180.961 74.7207V79ZM189.055 79H187.934V77.8105H187.906C187.387 78.7129 186.585 79.1641 185.5 79.1641C184.62 79.1641 183.916 78.8519 183.388 78.2275C182.864 77.5986 182.602 76.7441 182.602 75.6641C182.602 74.5065 182.893 73.5791 183.477 72.8818C184.06 72.1846 184.837 71.8359 185.808 71.8359C186.769 71.8359 187.469 72.2142 187.906 72.9707H187.934V68.6367H189.055V79ZM187.934 75.835V74.8027C187.934 74.2376 187.747 73.7591 187.373 73.3672C186.999 72.9753 186.525 72.7793 185.951 72.7793C185.268 72.7793 184.73 73.0299 184.338 73.5312C183.946 74.0326 183.75 74.7253 183.75 75.6094C183.75 76.416 183.937 77.054 184.311 77.5234C184.689 77.9883 185.195 78.2207 185.828 78.2207C186.452 78.2207 186.958 77.9951 187.346 77.5439C187.738 77.0928 187.934 76.5231 187.934 75.835ZM191.898 70.2227C191.698 70.2227 191.527 70.1543 191.386 70.0176C191.244 69.8809 191.174 69.7077 191.174 69.498C191.174 69.2884 191.244 69.1152 191.386 68.9785C191.527 68.8372 191.698 68.7666 191.898 68.7666C192.104 68.7666 192.277 68.8372 192.418 68.9785C192.564 69.1152 192.637 69.2884 192.637 69.498C192.637 69.6986 192.564 69.8695 192.418 70.0107C192.277 70.152 192.104 70.2227 191.898 70.2227ZM192.445 79H191.324V72H192.445V79ZM200.525 79H199.404V75.0078C199.404 73.5221 198.862 72.7793 197.777 72.7793C197.217 72.7793 196.752 72.9912 196.383 73.415C196.018 73.8343 195.836 74.3652 195.836 75.0078V79H194.715V72H195.836V73.1621H195.863C196.392 72.278 197.158 71.8359 198.16 71.8359C198.926 71.8359 199.511 72.0843 199.917 72.5811C200.323 73.0732 200.525 73.7865 200.525 74.7207V79ZM208.619 78.4395C208.619 81.0098 207.389 82.2949 204.928 82.2949C204.062 82.2949 203.305 82.1309 202.658 81.8027V80.6816C203.447 81.1191 204.199 81.3379 204.914 81.3379C206.637 81.3379 207.498 80.4219 207.498 78.5898V77.8242H207.471C206.938 78.7174 206.135 79.1641 205.064 79.1641C204.194 79.1641 203.492 78.8542 202.959 78.2344C202.43 77.61 202.166 76.7738 202.166 75.7256C202.166 74.5361 202.451 73.5905 203.021 72.8887C203.595 72.1868 204.379 71.8359 205.372 71.8359C206.315 71.8359 207.015 72.2142 207.471 72.9707H207.498V72H208.619V78.4395ZM207.498 75.835V74.8027C207.498 74.2467 207.309 73.7705 206.931 73.374C206.557 72.9775 206.09 72.7793 205.529 72.7793C204.837 72.7793 204.294 73.0322 203.902 73.5381C203.51 74.0394 203.314 74.7435 203.314 75.6504C203.314 76.4297 203.501 77.054 203.875 77.5234C204.253 77.9883 204.752 78.2207 205.372 78.2207C206.001 78.2207 206.511 77.9974 206.903 77.5508C207.3 77.1042 207.498 76.5322 207.498 75.835Z" fill="black"/>
<path d="M98 86H130" stroke="#275CE6" stroke-width="1.5" stroke-linecap="round"/>
<path d="M125.094 146.531C124.266 146.969 123.234 147.188 122 147.188C120.406 147.188 119.13 146.674 118.172 145.648C117.214 144.622 116.734 143.276 116.734 141.609C116.734 139.818 117.273 138.37 118.352 137.266C119.43 136.161 120.797 135.609 122.453 135.609C123.516 135.609 124.396 135.763 125.094 136.07V137.469C124.292 137.021 123.406 136.797 122.438 136.797C121.151 136.797 120.107 137.227 119.305 138.086C118.508 138.945 118.109 140.094 118.109 141.531C118.109 142.896 118.482 143.984 119.227 144.797C119.977 145.604 120.958 146.008 122.172 146.008C123.297 146.008 124.271 145.758 125.094 145.258V146.531ZM132.93 147H131.648V145.75H131.617C131.06 146.708 130.24 147.188 129.156 147.188C128.359 147.188 127.734 146.977 127.281 146.555C126.833 146.133 126.609 145.573 126.609 144.875C126.609 143.38 127.49 142.51 129.25 142.266L131.648 141.93C131.648 140.57 131.099 139.891 130 139.891C129.036 139.891 128.167 140.219 127.391 140.875V139.562C128.177 139.062 129.083 138.812 130.109 138.812C131.99 138.812 132.93 139.807 132.93 141.797V147ZM131.648 142.953L129.719 143.219C129.125 143.302 128.677 143.451 128.375 143.664C128.073 143.872 127.922 144.245 127.922 144.781C127.922 145.172 128.06 145.492 128.336 145.742C128.617 145.987 128.99 146.109 129.453 146.109C130.089 146.109 130.612 145.888 131.023 145.445C131.44 144.997 131.648 144.432 131.648 143.75V142.953ZM141.984 147H140.703V142.438C140.703 140.74 140.083 139.891 138.844 139.891C138.203 139.891 137.672 140.133 137.25 140.617C136.833 141.096 136.625 141.703 136.625 142.438V147H135.344V139H136.625V140.328H136.656C137.26 139.318 138.135 138.812 139.281 138.812C140.156 138.812 140.826 139.096 141.289 139.664C141.753 140.227 141.984 141.042 141.984 142.109V147ZM157.297 135.797L153.148 147H151.703L147.641 135.797H149.102L152.203 144.68C152.302 144.966 152.378 145.297 152.43 145.672H152.461C152.503 145.359 152.589 145.023 152.719 144.664L155.883 135.797H157.297ZM159.391 136.969C159.161 136.969 158.966 136.891 158.805 136.734C158.643 136.578 158.562 136.38 158.562 136.141C158.562 135.901 158.643 135.703 158.805 135.547C158.966 135.385 159.161 135.305 159.391 135.305C159.625 135.305 159.823 135.385 159.984 135.547C160.151 135.703 160.234 135.901 160.234 136.141C160.234 136.37 160.151 136.565 159.984 136.727C159.823 136.888 159.625 136.969 159.391 136.969ZM160.016 147H158.734V139H160.016V147ZM169.039 143.32H163.391C163.411 144.211 163.651 144.898 164.109 145.383C164.568 145.867 165.198 146.109 166 146.109C166.901 146.109 167.729 145.812 168.484 145.219V146.422C167.781 146.932 166.852 147.188 165.695 147.188C164.565 147.188 163.677 146.826 163.031 146.102C162.385 145.372 162.062 144.349 162.062 143.031C162.062 141.786 162.414 140.773 163.117 139.992C163.826 139.206 164.703 138.812 165.75 138.812C166.797 138.812 167.607 139.151 168.18 139.828C168.753 140.505 169.039 141.445 169.039 142.648V143.32ZM167.727 142.234C167.721 141.495 167.542 140.919 167.188 140.508C166.839 140.096 166.352 139.891 165.727 139.891C165.122 139.891 164.609 140.107 164.188 140.539C163.766 140.971 163.505 141.536 163.406 142.234H167.727ZM181.062 139L178.664 147H177.336L175.688 141.273C175.625 141.055 175.583 140.807 175.562 140.531H175.531C175.516 140.719 175.461 140.961 175.367 141.258L173.578 147H172.297L169.875 139H171.219L172.875 145.016C172.927 145.198 172.964 145.438 172.984 145.734H173.047C173.062 145.505 173.109 145.26 173.188 145L175.031 139H176.203L177.859 145.031C177.911 145.224 177.951 145.464 177.977 145.75H178.039C178.049 145.547 178.094 145.307 178.172 145.031L179.797 139H181.062Z" fill="black"/>
<path d="M158.887 454.48C158.926 454.524 158.958 454.576 158.98 454.633C159.002 454.691 159.014 454.753 159.015 454.817C159.016 454.88 159.006 454.943 158.986 455.001C158.965 455.06 158.935 455.113 158.897 455.158C158.859 455.203 158.814 455.238 158.764 455.262C158.714 455.285 158.66 455.297 158.606 455.296C158.552 455.295 158.499 455.281 158.45 455.255C158.4 455.229 158.356 455.192 158.319 455.146L153.783 449.828L149.247 455.146C149.171 455.229 149.07 455.275 148.966 455.272C148.862 455.27 148.763 455.221 148.689 455.135C148.615 455.048 148.573 454.932 148.571 454.81C148.57 454.688 148.608 454.57 148.679 454.48L153.215 449.162L148.679 443.844C148.608 443.754 148.57 443.636 148.571 443.514C148.573 443.392 148.615 443.276 148.689 443.19C148.763 443.103 148.862 443.054 148.966 443.052C149.07 443.05 149.171 443.095 149.247 443.178L153.783 448.496L158.319 443.178C158.395 443.095 158.496 443.05 158.6 443.052C158.704 443.054 158.804 443.103 158.877 443.19C158.951 443.276 158.993 443.392 158.995 443.514C158.997 443.636 158.958 443.754 158.887 443.844L154.351 449.162L158.887 454.48Z" fill="#E04E56"/>
<path d="M146 230.4L151.141 236.428L160.853 225.042" stroke="#269465" stroke-width="2" stroke-linecap="square"/>
<path d="M146 343.926L151.141 349.953L160.853 338.567" stroke="#269465" stroke-width="2" stroke-linecap="square"/>
<path d="M146 559.926L151.141 565.953L160.853 554.567" stroke="#269465" stroke-width="2" stroke-linecap="square"/>
<path d="M413.094 146.531C412.266 146.969 411.234 147.188 410 147.188C408.406 147.188 407.13 146.674 406.172 145.648C405.214 144.622 404.734 143.276 404.734 141.609C404.734 139.818 405.273 138.37 406.352 137.266C407.43 136.161 408.797 135.609 410.453 135.609C411.516 135.609 412.396 135.763 413.094 136.07V137.469C412.292 137.021 411.406 136.797 410.438 136.797C409.151 136.797 408.107 137.227 407.305 138.086C406.508 138.945 406.109 140.094 406.109 141.531C406.109 142.896 406.482 143.984 407.227 144.797C407.977 145.604 408.958 146.008 410.172 146.008C411.297 146.008 412.271 145.758 413.094 145.258V146.531ZM420.93 147H419.648V145.75H419.617C419.06 146.708 418.24 147.188 417.156 147.188C416.359 147.188 415.734 146.977 415.281 146.555C414.833 146.133 414.609 145.573 414.609 144.875C414.609 143.38 415.49 142.51 417.25 142.266L419.648 141.93C419.648 140.57 419.099 139.891 418 139.891C417.036 139.891 416.167 140.219 415.391 140.875V139.562C416.177 139.062 417.083 138.812 418.109 138.812C419.99 138.812 420.93 139.807 420.93 141.797V147ZM419.648 142.953L417.719 143.219C417.125 143.302 416.677 143.451 416.375 143.664C416.073 143.872 415.922 144.245 415.922 144.781C415.922 145.172 416.06 145.492 416.336 145.742C416.617 145.987 416.99 146.109 417.453 146.109C418.089 146.109 418.612 145.888 419.023 145.445C419.44 144.997 419.648 144.432 419.648 143.75V142.953ZM429.984 147H428.703V142.438C428.703 140.74 428.083 139.891 426.844 139.891C426.203 139.891 425.672 140.133 425.25 140.617C424.833 141.096 424.625 141.703 424.625 142.438V147H423.344V139H424.625V140.328H424.656C425.26 139.318 426.135 138.812 427.281 138.812C428.156 138.812 428.826 139.096 429.289 139.664C429.753 140.227 429.984 141.042 429.984 142.109V147ZM444.594 146.531C443.766 146.969 442.734 147.188 441.5 147.188C439.906 147.188 438.63 146.674 437.672 145.648C436.714 144.622 436.234 143.276 436.234 141.609C436.234 139.818 436.773 138.37 437.852 137.266C438.93 136.161 440.297 135.609 441.953 135.609C443.016 135.609 443.896 135.763 444.594 136.07V137.469C443.792 137.021 442.906 136.797 441.938 136.797C440.651 136.797 439.607 137.227 438.805 138.086C438.008 138.945 437.609 140.094 437.609 141.531C437.609 142.896 437.982 143.984 438.727 144.797C439.477 145.604 440.458 146.008 441.672 146.008C442.797 146.008 443.771 145.758 444.594 145.258V146.531ZM450.875 140.297C450.651 140.125 450.328 140.039 449.906 140.039C449.359 140.039 448.901 140.297 448.531 140.812C448.167 141.328 447.984 142.031 447.984 142.922V147H446.703V139H447.984V140.648H448.016C448.198 140.086 448.477 139.648 448.852 139.336C449.227 139.018 449.646 138.859 450.109 138.859C450.443 138.859 450.698 138.896 450.875 138.969V140.297ZM458.695 143.32H453.047C453.068 144.211 453.307 144.898 453.766 145.383C454.224 145.867 454.854 146.109 455.656 146.109C456.557 146.109 457.385 145.812 458.141 145.219V146.422C457.438 146.932 456.508 147.188 455.352 147.188C454.221 147.188 453.333 146.826 452.688 146.102C452.042 145.372 451.719 144.349 451.719 143.031C451.719 141.786 452.07 140.773 452.773 139.992C453.482 139.206 454.359 138.812 455.406 138.812C456.453 138.812 457.263 139.151 457.836 139.828C458.409 140.505 458.695 141.445 458.695 142.648V143.32ZM457.383 142.234C457.378 141.495 457.198 140.919 456.844 140.508C456.495 140.096 456.008 139.891 455.383 139.891C454.779 139.891 454.266 140.107 453.844 140.539C453.422 140.971 453.161 141.536 453.062 142.234H457.383ZM466.367 147H465.086V145.75H465.055C464.497 146.708 463.677 147.188 462.594 147.188C461.797 147.188 461.172 146.977 460.719 146.555C460.271 146.133 460.047 145.573 460.047 144.875C460.047 143.38 460.927 142.51 462.688 142.266L465.086 141.93C465.086 140.57 464.536 139.891 463.438 139.891C462.474 139.891 461.604 140.219 460.828 140.875V139.562C461.615 139.062 462.521 138.812 463.547 138.812C465.427 138.812 466.367 139.807 466.367 141.797V147ZM465.086 142.953L463.156 143.219C462.562 143.302 462.115 143.451 461.812 143.664C461.51 143.872 461.359 144.245 461.359 144.781C461.359 145.172 461.497 145.492 461.773 145.742C462.055 145.987 462.427 146.109 462.891 146.109C463.526 146.109 464.049 145.888 464.461 145.445C464.878 144.997 465.086 144.432 465.086 143.75V142.953ZM472.492 146.922C472.19 147.089 471.792 147.172 471.297 147.172C469.896 147.172 469.195 146.391 469.195 144.828V140.094H467.82V139H469.195V137.047L470.477 136.633V139H472.492V140.094H470.477V144.602C470.477 145.138 470.568 145.521 470.75 145.75C470.932 145.979 471.234 146.094 471.656 146.094C471.979 146.094 472.258 146.005 472.492 145.828V146.922ZM480.633 143.32H474.984C475.005 144.211 475.245 144.898 475.703 145.383C476.161 145.867 476.792 146.109 477.594 146.109C478.495 146.109 479.323 145.812 480.078 145.219V146.422C479.375 146.932 478.445 147.188 477.289 147.188C476.159 147.188 475.271 146.826 474.625 146.102C473.979 145.372 473.656 144.349 473.656 143.031C473.656 141.786 474.008 140.773 474.711 139.992C475.419 139.206 476.297 138.812 477.344 138.812C478.391 138.812 479.201 139.151 479.773 139.828C480.346 140.505 480.633 141.445 480.633 142.648V143.32ZM479.32 142.234C479.315 141.495 479.135 140.919 478.781 140.508C478.432 140.096 477.945 139.891 477.32 139.891C476.716 139.891 476.203 140.107 475.781 140.539C475.359 140.971 475.099 141.536 475 142.234H479.32Z" fill="black"/>
<path d="M452.887 454.48C452.926 454.524 452.958 454.576 452.98 454.633C453.002 454.691 453.014 454.753 453.015 454.817C453.016 454.88 453.006 454.943 452.986 455.001C452.965 455.06 452.935 455.113 452.897 455.158C452.859 455.203 452.814 455.238 452.764 455.262C452.714 455.285 452.66 455.297 452.606 455.296C452.552 455.295 452.499 455.281 452.45 455.255C452.4 455.229 452.356 455.192 452.319 455.146L447.783 449.828L443.247 455.146C443.171 455.229 443.07 455.275 442.966 455.272C442.862 455.27 442.763 455.221 442.689 455.135C442.615 455.048 442.573 454.932 442.571 454.81C442.57 454.688 442.608 454.57 442.679 454.48L447.215 449.162L442.679 443.844C442.608 443.754 442.57 443.636 442.571 443.514C442.573 443.392 442.615 443.276 442.689 443.19C442.763 443.103 442.862 443.054 442.966 443.052C443.07 443.05 443.171 443.095 443.247 443.178L447.783 448.496L452.319 443.178C452.395 443.095 452.496 443.05 452.6 443.052C452.704 443.054 452.804 443.103 452.877 443.19C452.951 443.276 452.993 443.392 452.995 443.514C452.997 443.636 452.958 443.754 452.887 443.844L448.351 449.162L452.887 454.48Z" fill="#E04E56"/>
<path d="M452.887 349.996C452.926 350.039 452.958 350.091 452.98 350.149C453.002 350.207 453.014 350.269 453.015 350.332C453.016 350.396 453.006 350.458 452.986 350.517C452.965 350.576 452.935 350.629 452.897 350.674C452.859 350.718 452.814 350.754 452.764 350.777C452.714 350.801 452.66 350.813 452.606 350.811C452.552 350.81 452.499 350.797 452.45 350.771C452.4 350.745 452.356 350.708 452.319 350.662L447.783 345.344L443.247 350.662C443.171 350.745 443.07 350.79 442.966 350.788C442.862 350.786 442.763 350.736 442.689 350.65C442.615 350.564 442.573 350.447 442.571 350.325C442.57 350.203 442.608 350.085 442.679 349.996L447.215 344.678L442.679 339.359C442.608 339.27 442.57 339.152 442.571 339.03C442.573 338.908 442.615 338.792 442.689 338.705C442.763 338.619 442.862 338.57 442.966 338.567C443.07 338.565 443.171 338.611 443.247 338.694L447.783 344.011L452.319 338.694C452.395 338.611 452.496 338.565 452.6 338.567C452.704 338.57 452.804 338.619 452.877 338.705C452.951 338.792 452.993 338.908 452.995 339.03C452.997 339.152 452.958 339.27 452.887 339.359L448.351 344.678L452.887 349.996Z" fill="#E04E56"/>
<path d="M440 230.4L445.141 236.428L454.853 225.042" stroke="#269465" stroke-width="2" stroke-linecap="square"/>
<path d="M440 559.926L445.141 565.953L454.853 554.567" stroke="#269465" stroke-width="2" stroke-linecap="square"/>
<path d="M216.094 146.531C215.266 146.969 214.234 147.188 213 147.188C211.406 147.188 210.13 146.674 209.172 145.648C208.214 144.622 207.734 143.276 207.734 141.609C207.734 139.818 208.273 138.37 209.352 137.266C210.43 136.161 211.797 135.609 213.453 135.609C214.516 135.609 215.396 135.763 216.094 136.07V137.469C215.292 137.021 214.406 136.797 213.438 136.797C212.151 136.797 211.107 137.227 210.305 138.086C209.508 138.945 209.109 140.094 209.109 141.531C209.109 142.896 209.482 143.984 210.227 144.797C210.977 145.604 211.958 146.008 213.172 146.008C214.297 146.008 215.271 145.758 216.094 145.258V146.531ZM223.93 147H222.648V145.75H222.617C222.06 146.708 221.24 147.188 220.156 147.188C219.359 147.188 218.734 146.977 218.281 146.555C217.833 146.133 217.609 145.573 217.609 144.875C217.609 143.38 218.49 142.51 220.25 142.266L222.648 141.93C222.648 140.57 222.099 139.891 221 139.891C220.036 139.891 219.167 140.219 218.391 140.875V139.562C219.177 139.062 220.083 138.812 221.109 138.812C222.99 138.812 223.93 139.807 223.93 141.797V147ZM222.648 142.953L220.719 143.219C220.125 143.302 219.677 143.451 219.375 143.664C219.073 143.872 218.922 144.245 218.922 144.781C218.922 145.172 219.06 145.492 219.336 145.742C219.617 145.987 219.99 146.109 220.453 146.109C221.089 146.109 221.612 145.888 222.023 145.445C222.44 144.997 222.648 144.432 222.648 143.75V142.953ZM232.984 147H231.703V142.438C231.703 140.74 231.083 139.891 229.844 139.891C229.203 139.891 228.672 140.133 228.25 140.617C227.833 141.096 227.625 141.703 227.625 142.438V147H226.344V139H227.625V140.328H227.656C228.26 139.318 229.135 138.812 230.281 138.812C231.156 138.812 231.826 139.096 232.289 139.664C232.753 140.227 232.984 141.042 232.984 142.109V147ZM245.906 147H239.969V135.797H245.656V136.984H241.281V140.711H245.328V141.891H241.281V145.812H245.906V147ZM254.719 147H253.438V145.641H253.406C252.812 146.672 251.896 147.188 250.656 147.188C249.651 147.188 248.846 146.831 248.242 146.117C247.643 145.398 247.344 144.422 247.344 143.188C247.344 141.865 247.677 140.805 248.344 140.008C249.01 139.211 249.898 138.812 251.008 138.812C252.107 138.812 252.906 139.245 253.406 140.109H253.438V135.156H254.719V147ZM253.438 143.383V142.203C253.438 141.557 253.224 141.01 252.797 140.562C252.37 140.115 251.828 139.891 251.172 139.891C250.391 139.891 249.776 140.177 249.328 140.75C248.88 141.323 248.656 142.115 248.656 143.125C248.656 144.047 248.87 144.776 249.297 145.312C249.729 145.844 250.307 146.109 251.031 146.109C251.745 146.109 252.323 145.852 252.766 145.336C253.214 144.82 253.438 144.169 253.438 143.383ZM257.969 136.969C257.74 136.969 257.544 136.891 257.383 136.734C257.221 136.578 257.141 136.38 257.141 136.141C257.141 135.901 257.221 135.703 257.383 135.547C257.544 135.385 257.74 135.305 257.969 135.305C258.203 135.305 258.401 135.385 258.562 135.547C258.729 135.703 258.812 135.901 258.812 136.141C258.812 136.37 258.729 136.565 258.562 136.727C258.401 136.888 258.203 136.969 257.969 136.969ZM258.594 147H257.312V139H258.594V147ZM264.898 146.922C264.596 147.089 264.198 147.172 263.703 147.172C262.302 147.172 261.602 146.391 261.602 144.828V140.094H260.227V139H261.602V137.047L262.883 136.633V139H264.898V140.094H262.883V144.602C262.883 145.138 262.974 145.521 263.156 145.75C263.339 145.979 263.641 146.094 264.062 146.094C264.385 146.094 264.664 146.005 264.898 145.828V146.922Z" fill="black"/>
<path d="M249.886 236.471C249.925 236.514 249.957 236.566 249.979 236.624C250.001 236.681 250.013 236.744 250.014 236.807C250.015 236.87 250.005 236.933 249.985 236.992C249.964 237.05 249.934 237.104 249.896 237.148C249.858 237.193 249.813 237.228 249.763 237.252C249.713 237.276 249.659 237.287 249.605 237.286C249.551 237.285 249.498 237.271 249.449 237.245C249.399 237.22 249.355 237.183 249.318 237.136L244.782 231.819L240.246 237.136C240.17 237.219 240.069 237.265 239.965 237.263C239.861 237.26 239.762 237.211 239.688 237.125C239.614 237.038 239.572 236.922 239.57 236.8C239.569 236.678 239.607 236.56 239.678 236.471L244.214 231.152L239.678 225.834C239.607 225.745 239.569 225.627 239.57 225.505C239.572 225.383 239.614 225.266 239.688 225.18C239.762 225.094 239.861 225.044 239.965 225.042C240.069 225.04 240.17 225.085 240.246 225.168L244.782 230.486L249.318 225.168C249.394 225.085 249.495 225.04 249.599 225.042C249.703 225.044 249.803 225.094 249.876 225.18C249.95 225.266 249.992 225.383 249.994 225.505C249.996 225.627 249.957 225.745 249.886 225.834L245.35 231.152L249.886 236.471Z" fill="#E04E56"/>
<path d="M237 340.912L242.141 346.94L251.853 335.554" stroke="#269465" stroke-width="2" stroke-linecap="square"/>
<path d="M237 448.41L242.141 454.438L251.853 443.052" stroke="#269465" stroke-width="2" stroke-linecap="square"/>
<path d="M237 559.926L242.141 565.953L251.853 554.567" stroke="#269465" stroke-width="2" stroke-linecap="square"/>
<path d="M312.094 146.531C311.266 146.969 310.234 147.188 309 147.188C307.406 147.188 306.13 146.674 305.172 145.648C304.214 144.622 303.734 143.276 303.734 141.609C303.734 139.818 304.273 138.37 305.352 137.266C306.43 136.161 307.797 135.609 309.453 135.609C310.516 135.609 311.396 135.763 312.094 136.07V137.469C311.292 137.021 310.406 136.797 309.438 136.797C308.151 136.797 307.107 137.227 306.305 138.086C305.508 138.945 305.109 140.094 305.109 141.531C305.109 142.896 305.482 143.984 306.227 144.797C306.977 145.604 307.958 146.008 309.172 146.008C310.297 146.008 311.271 145.758 312.094 145.258V146.531ZM319.93 147H318.648V145.75H318.617C318.06 146.708 317.24 147.188 316.156 147.188C315.359 147.188 314.734 146.977 314.281 146.555C313.833 146.133 313.609 145.573 313.609 144.875C313.609 143.38 314.49 142.51 316.25 142.266L318.648 141.93C318.648 140.57 318.099 139.891 317 139.891C316.036 139.891 315.167 140.219 314.391 140.875V139.562C315.177 139.062 316.083 138.812 317.109 138.812C318.99 138.812 319.93 139.807 319.93 141.797V147ZM318.648 142.953L316.719 143.219C316.125 143.302 315.677 143.451 315.375 143.664C315.073 143.872 314.922 144.245 314.922 144.781C314.922 145.172 315.06 145.492 315.336 145.742C315.617 145.987 315.99 146.109 316.453 146.109C317.089 146.109 317.612 145.888 318.023 145.445C318.44 144.997 318.648 144.432 318.648 143.75V142.953ZM328.984 147H327.703V142.438C327.703 140.74 327.083 139.891 325.844 139.891C325.203 139.891 324.672 140.133 324.25 140.617C323.833 141.096 323.625 141.703 323.625 142.438V147H322.344V139H323.625V140.328H323.656C324.26 139.318 325.135 138.812 326.281 138.812C327.156 138.812 327.826 139.096 328.289 139.664C328.753 140.227 328.984 141.042 328.984 142.109V147ZM341.906 147H335.969V135.797H341.656V136.984H337.281V140.711H341.328V141.891H337.281V145.812H341.906V147ZM349.734 139L347.047 143.047L349.688 147H348.195L346.625 144.406C346.526 144.245 346.409 144.042 346.273 143.797H346.242C346.216 143.844 346.094 144.047 345.875 144.406L344.273 147H342.797L345.523 143.078L342.914 139H344.406L345.953 141.734C346.068 141.938 346.18 142.146 346.289 142.359H346.32L348.32 139H349.734ZM352.547 145.844H352.516V150.68H351.234V139H352.516V140.406H352.547C353.177 139.344 354.099 138.812 355.312 138.812C356.344 138.812 357.148 139.172 357.727 139.891C358.305 140.604 358.594 141.562 358.594 142.766C358.594 144.104 358.268 145.177 357.617 145.984C356.966 146.786 356.076 147.188 354.945 147.188C353.909 147.188 353.109 146.74 352.547 145.844ZM352.516 142.617V143.734C352.516 144.396 352.729 144.958 353.156 145.422C353.589 145.88 354.135 146.109 354.797 146.109C355.573 146.109 356.18 145.812 356.617 145.219C357.06 144.625 357.281 143.799 357.281 142.742C357.281 141.852 357.076 141.154 356.664 140.648C356.253 140.143 355.695 139.891 354.992 139.891C354.247 139.891 353.648 140.151 353.195 140.672C352.742 141.188 352.516 141.836 352.516 142.617ZM363.984 147.188C362.802 147.188 361.857 146.815 361.148 146.07C360.445 145.32 360.094 144.328 360.094 143.094C360.094 141.75 360.461 140.701 361.195 139.945C361.93 139.19 362.922 138.812 364.172 138.812C365.365 138.812 366.294 139.18 366.961 139.914C367.633 140.648 367.969 141.667 367.969 142.969C367.969 144.245 367.607 145.268 366.883 146.039C366.164 146.805 365.198 147.188 363.984 147.188ZM364.078 139.891C363.255 139.891 362.604 140.172 362.125 140.734C361.646 141.292 361.406 142.062 361.406 143.047C361.406 143.995 361.648 144.742 362.133 145.289C362.617 145.836 363.266 146.109 364.078 146.109C364.906 146.109 365.542 145.841 365.984 145.305C366.432 144.768 366.656 144.005 366.656 143.016C366.656 142.016 366.432 141.245 365.984 140.703C365.542 140.161 364.906 139.891 364.078 139.891ZM374.188 140.297C373.964 140.125 373.641 140.039 373.219 140.039C372.672 140.039 372.214 140.297 371.844 140.812C371.479 141.328 371.297 142.031 371.297 142.922V147H370.016V139H371.297V140.648H371.328C371.51 140.086 371.789 139.648 372.164 139.336C372.539 139.018 372.958 138.859 373.422 138.859C373.755 138.859 374.01 138.896 374.188 138.969V140.297ZM379.289 146.922C378.987 147.089 378.589 147.172 378.094 147.172C376.693 147.172 375.992 146.391 375.992 144.828V140.094H374.617V139H375.992V137.047L377.273 136.633V139H379.289V140.094H377.273V144.602C377.273 145.138 377.365 145.521 377.547 145.75C377.729 145.979 378.031 146.094 378.453 146.094C378.776 146.094 379.055 146.005 379.289 145.828V146.922Z" fill="black"/>
<path d="M349.886 454.48C349.925 454.524 349.957 454.576 349.979 454.633C350.001 454.691 350.013 454.753 350.014 454.817C350.015 454.88 350.005 454.943 349.985 455.001C349.964 455.06 349.934 455.113 349.896 455.158C349.858 455.203 349.813 455.238 349.763 455.262C349.713 455.285 349.659 455.297 349.605 455.296C349.551 455.295 349.498 455.281 349.449 455.255C349.399 455.229 349.355 455.192 349.318 455.146L344.782 449.828L340.246 455.146C340.17 455.229 340.069 455.275 339.965 455.272C339.861 455.27 339.762 455.221 339.688 455.135C339.614 455.048 339.572 454.932 339.57 454.81C339.569 454.688 339.607 454.57 339.678 454.48L344.214 449.162L339.678 443.844C339.607 443.754 339.569 443.636 339.57 443.514C339.572 443.392 339.614 443.276 339.688 443.19C339.762 443.103 339.861 443.054 339.965 443.052C340.069 443.05 340.17 443.095 340.246 443.178L344.782 448.496L349.318 443.178C349.394 443.095 349.495 443.05 349.599 443.052C349.703 443.054 349.803 443.103 349.876 443.19C349.95 443.276 349.992 443.392 349.994 443.514C349.996 443.636 349.957 443.754 349.886 443.844L345.35 449.162L349.886 454.48Z" fill="#E04E56"/>
<path d="M349.886 236.471C349.925 236.514 349.957 236.566 349.979 236.624C350.001 236.681 350.013 236.744 350.014 236.807C350.015 236.87 350.005 236.933 349.985 236.992C349.964 237.05 349.934 237.104 349.896 237.148C349.858 237.193 349.813 237.228 349.763 237.252C349.713 237.276 349.659 237.287 349.605 237.286C349.551 237.285 349.498 237.271 349.449 237.245C349.399 237.22 349.355 237.183 349.318 237.136L344.782 231.819L340.246 237.136C340.17 237.219 340.069 237.265 339.965 237.263C339.861 237.26 339.762 237.211 339.688 237.125C339.614 237.038 339.572 236.922 339.57 236.8C339.569 236.678 339.607 236.56 339.678 236.471L344.214 231.152L339.678 225.834C339.607 225.745 339.569 225.627 339.57 225.505C339.572 225.383 339.614 225.266 339.688 225.18C339.762 225.094 339.861 225.044 339.965 225.042C340.069 225.04 340.17 225.085 340.246 225.168L344.782 230.486L349.318 225.168C349.394 225.085 349.495 225.04 349.599 225.042C349.703 225.044 349.803 225.094 349.876 225.18C349.95 225.266 349.992 225.383 349.994 225.505C349.996 225.627 349.957 225.745 349.886 225.834L345.35 231.152L349.886 236.471Z" fill="#E04E56"/>
<path d="M337 343.926L342.141 349.953L351.853 338.567" stroke="#269465" stroke-width="2" stroke-linecap="square"/>
<path d="M337 559.926L342.141 565.953L351.853 554.567" stroke="#269465" stroke-width="2" stroke-linecap="square"/>
</g>
<rect x="0.5" y="0.5" width="508" height="647" stroke="#D9D9D9"/>
<defs>
<filter id="filter0_d_545_801" x="-4" y="10" width="602" height="47" filterUnits="userSpaceOnUse" color-interpolation-filters="sRGB">
<feFlood flood-opacity="0" result="BackgroundImageFix"/>
<feColorMatrix in="SourceAlpha" type="matrix" values="0 0 0 0 0 0 0 0 0 0 0 0 0 0 0 0 0 0 127 0" result="hardAlpha"/>
<feOffset dy="4"/>
<feGaussianBlur stdDeviation="2"/>
<feComposite in2="hardAlpha" operator="out"/>
<feColorMatrix type="matrix" values="0 0 0 0 0.895833 0 0 0 0 0.895833 0 0 0 0 0.895833 0 0 0 0.25 0"/>
<feBlend mode="normal" in2="BackgroundImageFix" result="effect1_dropShadow_545_801"/>
<feBlend mode="normal" in="SourceGraphic" in2="effect1_dropShadow_545_801" result="shape"/>
</filter>
<clipPath id="clip0_545_801">
<rect width="509" height="648" fill="white"/>
</clipPath>
</defs>
</svg>
