<svg width="594" height="645" viewBox="0 0 594 645" fill="none" xmlns="http://www.w3.org/2000/svg">
<g clip-path="url(#clip0_438_254)">
<rect width="594" height="645" fill="white"/>
<g filter="url(#filter0_d_438_254)">
<rect y="10" width="594" height="39" fill="white"/>
</g>
<path d="M34.5859 35H32.5469L31.5391 32.1484H27.1328L26.1641 35H24.1328L28.3281 23.7969H30.4219L34.5859 35ZM31.0469 30.6328L29.4922 26.1641C29.4453 26.0182 29.3958 25.7839 29.3438 25.4609H29.3125C29.2656 25.7578 29.2135 25.9922 29.1562 26.1641L27.6172 30.6328H31.0469ZM43.2031 35H41.3906V33.6406H41.3594C40.776 34.6719 39.8776 35.1875 38.6641 35.1875C37.6797 35.1875 36.8906 34.8307 36.2969 34.1172C35.7083 33.3984 35.4141 32.4219 35.4141 31.1875C35.4141 29.8646 35.7396 28.8047 36.3906 28.0078C37.0469 27.2109 37.9193 26.8125 39.0078 26.8125C40.0859 26.8125 40.8698 27.2448 41.3594 28.1094H41.3906V23.1562H43.2031V35ZM41.4141 31.3438V30.2969C41.4141 29.7292 41.2292 29.2474 40.8594 28.8516C40.4896 28.4557 40.0182 28.2578 39.4453 28.2578C38.7682 28.2578 38.2344 28.5104 37.8438 29.0156C37.4583 29.5208 37.2656 30.2214 37.2656 31.1172C37.2656 31.9297 37.4505 32.5729 37.8203 33.0469C38.1953 33.5156 38.6979 33.75 39.3281 33.75C39.9479 33.75 40.4505 33.5234 40.8359 33.0703C41.2214 32.612 41.4141 32.0365 41.4141 31.3438ZM57.5312 35H55.7188V30.6406C55.7188 29.8021 55.599 29.1953 55.3594 28.8203C55.125 28.4453 54.7266 28.2578 54.1641 28.2578C53.6901 28.2578 53.2865 28.4948 52.9531 28.9688C52.625 29.4427 52.4609 30.0104 52.4609 30.6719V35H50.6406V30.4922C50.6406 29.0026 50.1146 28.2578 49.0625 28.2578C48.5729 28.2578 48.1693 28.4818 47.8516 28.9297C47.5391 29.3776 47.3828 29.9583 47.3828 30.6719V35H45.5703V27H47.3828V28.2656H47.4141C47.9922 27.2969 48.8333 26.8125 49.9375 26.8125C50.4896 26.8125 50.9714 26.9661 51.3828 27.2734C51.7995 27.5755 52.0833 27.974 52.2344 28.4688C52.8281 27.3646 53.7135 26.8125 54.8906 26.8125C56.651 26.8125 57.5312 27.8984 57.5312 30.0703V35ZM60.6562 25.3203C60.3594 25.3203 60.1042 25.224 59.8906 25.0312C59.6823 24.8385 59.5781 24.5938 59.5781 24.2969C59.5781 24 59.6823 23.7526 59.8906 23.5547C60.1042 23.3568 60.3594 23.2578 60.6562 23.2578C60.9635 23.2578 61.224 23.3568 61.4375 23.5547C61.651 23.7526 61.7578 24 61.7578 24.2969C61.7578 24.5781 61.651 24.8203 61.4375 25.0234C61.224 25.2214 60.9635 25.3203 60.6562 25.3203ZM61.5547 35H59.7422V27H61.5547V35ZM71.0547 35H69.2422V30.4922C69.2422 28.9974 68.7135 28.25 67.6562 28.25C67.1042 28.25 66.6484 28.4583 66.2891 28.875C65.9297 29.2865 65.75 29.8073 65.75 30.4375V35H63.9297V27H65.75V28.3281H65.7812C66.3802 27.3177 67.2448 26.8125 68.375 26.8125C69.2448 26.8125 69.9089 27.0964 70.3672 27.6641C70.8255 28.2266 71.0547 29.0417 71.0547 30.1094V35Z" fill="black"/>
<path d="M169.094 146.531C168.266 146.969 167.234 147.188 166 147.188C164.406 147.188 163.13 146.674 162.172 145.648C161.214 144.622 160.734 143.276 160.734 141.609C160.734 139.818 161.273 138.37 162.352 137.266C163.43 136.161 164.797 135.609 166.453 135.609C167.516 135.609 168.396 135.763 169.094 136.07V137.469C168.292 137.021 167.406 136.797 166.438 136.797C165.151 136.797 164.107 137.227 163.305 138.086C162.508 138.945 162.109 140.094 162.109 141.531C162.109 142.896 162.482 143.984 163.227 144.797C163.977 145.604 164.958 146.008 166.172 146.008C167.297 146.008 168.271 145.758 169.094 145.258V146.531ZM176.93 147H175.648V145.75H175.617C175.06 146.708 174.24 147.188 173.156 147.188C172.359 147.188 171.734 146.977 171.281 146.555C170.833 146.133 170.609 145.573 170.609 144.875C170.609 143.38 171.49 142.51 173.25 142.266L175.648 141.93C175.648 140.57 175.099 139.891 174 139.891C173.036 139.891 172.167 140.219 171.391 140.875V139.562C172.177 139.062 173.083 138.812 174.109 138.812C175.99 138.812 176.93 139.807 176.93 141.797V147ZM175.648 142.953L173.719 143.219C173.125 143.302 172.677 143.451 172.375 143.664C172.073 143.872 171.922 144.245 171.922 144.781C171.922 145.172 172.06 145.492 172.336 145.742C172.617 145.987 172.99 146.109 173.453 146.109C174.089 146.109 174.612 145.888 175.023 145.445C175.44 144.997 175.648 144.432 175.648 143.75V142.953ZM185.984 147H184.703V142.438C184.703 140.74 184.083 139.891 182.844 139.891C182.203 139.891 181.672 140.133 181.25 140.617C180.833 141.096 180.625 141.703 180.625 142.438V147H179.344V139H180.625V140.328H180.656C181.26 139.318 182.135 138.812 183.281 138.812C184.156 138.812 184.826 139.096 185.289 139.664C185.753 140.227 185.984 141.042 185.984 142.109V147ZM201.297 135.797L197.148 147H195.703L191.641 135.797H193.102L196.203 144.68C196.302 144.966 196.378 145.297 196.43 145.672H196.461C196.503 145.359 196.589 145.023 196.719 144.664L199.883 135.797H201.297ZM203.391 136.969C203.161 136.969 202.966 136.891 202.805 136.734C202.643 136.578 202.562 136.38 202.562 136.141C202.562 135.901 202.643 135.703 202.805 135.547C202.966 135.385 203.161 135.305 203.391 135.305C203.625 135.305 203.823 135.385 203.984 135.547C204.151 135.703 204.234 135.901 204.234 136.141C204.234 136.37 204.151 136.565 203.984 136.727C203.823 136.888 203.625 136.969 203.391 136.969ZM204.016 147H202.734V139H204.016V147ZM213.039 143.32H207.391C207.411 144.211 207.651 144.898 208.109 145.383C208.568 145.867 209.198 146.109 210 146.109C210.901 146.109 211.729 145.812 212.484 145.219V146.422C211.781 146.932 210.852 147.188 209.695 147.188C208.565 147.188 207.677 146.826 207.031 146.102C206.385 145.372 206.062 144.349 206.062 143.031C206.062 141.786 206.414 140.773 207.117 139.992C207.826 139.206 208.703 138.812 209.75 138.812C210.797 138.812 211.607 139.151 212.18 139.828C212.753 140.505 213.039 141.445 213.039 142.648V143.32ZM211.727 142.234C211.721 141.495 211.542 140.919 211.188 140.508C210.839 140.096 210.352 139.891 209.727 139.891C209.122 139.891 208.609 140.107 208.188 140.539C207.766 140.971 207.505 141.536 207.406 142.234H211.727ZM225.062 139L222.664 147H221.336L219.688 141.273C219.625 141.055 219.583 140.807 219.562 140.531H219.531C219.516 140.719 219.461 140.961 219.367 141.258L217.578 147H216.297L213.875 139H215.219L216.875 145.016C216.927 145.198 216.964 145.438 216.984 145.734H217.047C217.062 145.505 217.109 145.26 217.188 145L219.031 139H220.203L221.859 145.031C221.911 145.224 221.951 145.464 221.977 145.75H222.039C222.049 145.547 222.094 145.307 222.172 145.031L223.797 139H225.062Z" fill="black"/>
<path d="M380.094 146.531C379.266 146.969 378.234 147.188 377 147.188C375.406 147.188 374.13 146.674 373.172 145.648C372.214 144.622 371.734 143.276 371.734 141.609C371.734 139.818 372.273 138.37 373.352 137.266C374.43 136.161 375.797 135.609 377.453 135.609C378.516 135.609 379.396 135.763 380.094 136.07V137.469C379.292 137.021 378.406 136.797 377.438 136.797C376.151 136.797 375.107 137.227 374.305 138.086C373.508 138.945 373.109 140.094 373.109 141.531C373.109 142.896 373.482 143.984 374.227 144.797C374.977 145.604 375.958 146.008 377.172 146.008C378.297 146.008 379.271 145.758 380.094 145.258V146.531ZM387.93 147H386.648V145.75H386.617C386.06 146.708 385.24 147.188 384.156 147.188C383.359 147.188 382.734 146.977 382.281 146.555C381.833 146.133 381.609 145.573 381.609 144.875C381.609 143.38 382.49 142.51 384.25 142.266L386.648 141.93C386.648 140.57 386.099 139.891 385 139.891C384.036 139.891 383.167 140.219 382.391 140.875V139.562C383.177 139.062 384.083 138.812 385.109 138.812C386.99 138.812 387.93 139.807 387.93 141.797V147ZM386.648 142.953L384.719 143.219C384.125 143.302 383.677 143.451 383.375 143.664C383.073 143.872 382.922 144.245 382.922 144.781C382.922 145.172 383.06 145.492 383.336 145.742C383.617 145.987 383.99 146.109 384.453 146.109C385.089 146.109 385.612 145.888 386.023 145.445C386.44 144.997 386.648 144.432 386.648 143.75V142.953ZM396.984 147H395.703V142.438C395.703 140.74 395.083 139.891 393.844 139.891C393.203 139.891 392.672 140.133 392.25 140.617C391.833 141.096 391.625 141.703 391.625 142.438V147H390.344V139H391.625V140.328H391.656C392.26 139.318 393.135 138.812 394.281 138.812C395.156 138.812 395.826 139.096 396.289 139.664C396.753 140.227 396.984 141.042 396.984 142.109V147ZM409.906 147H403.969V135.797H409.656V136.984H405.281V140.711H409.328V141.891H405.281V145.812H409.906V147ZM417.734 139L415.047 143.047L417.688 147H416.195L414.625 144.406C414.526 144.245 414.409 144.042 414.273 143.797H414.242C414.216 143.844 414.094 144.047 413.875 144.406L412.273 147H410.797L413.523 143.078L410.914 139H412.406L413.953 141.734C414.068 141.938 414.18 142.146 414.289 142.359H414.32L416.32 139H417.734ZM420.547 145.844H420.516V150.68H419.234V139H420.516V140.406H420.547C421.177 139.344 422.099 138.812 423.312 138.812C424.344 138.812 425.148 139.172 425.727 139.891C426.305 140.604 426.594 141.562 426.594 142.766C426.594 144.104 426.268 145.177 425.617 145.984C424.966 146.786 424.076 147.188 422.945 147.188C421.909 147.188 421.109 146.74 420.547 145.844ZM420.516 142.617V143.734C420.516 144.396 420.729 144.958 421.156 145.422C421.589 145.88 422.135 146.109 422.797 146.109C423.573 146.109 424.18 145.812 424.617 145.219C425.06 144.625 425.281 143.799 425.281 142.742C425.281 141.852 425.076 141.154 424.664 140.648C424.253 140.143 423.695 139.891 422.992 139.891C422.247 139.891 421.648 140.151 421.195 140.672C420.742 141.188 420.516 141.836 420.516 142.617ZM431.984 147.188C430.802 147.188 429.857 146.815 429.148 146.07C428.445 145.32 428.094 144.328 428.094 143.094C428.094 141.75 428.461 140.701 429.195 139.945C429.93 139.19 430.922 138.812 432.172 138.812C433.365 138.812 434.294 139.18 434.961 139.914C435.633 140.648 435.969 141.667 435.969 142.969C435.969 144.245 435.607 145.268 434.883 146.039C434.164 146.805 433.198 147.188 431.984 147.188ZM432.078 139.891C431.255 139.891 430.604 140.172 430.125 140.734C429.646 141.292 429.406 142.062 429.406 143.047C429.406 143.995 429.648 144.742 430.133 145.289C430.617 145.836 431.266 146.109 432.078 146.109C432.906 146.109 433.542 145.841 433.984 145.305C434.432 144.768 434.656 144.005 434.656 143.016C434.656 142.016 434.432 141.245 433.984 140.703C433.542 140.161 432.906 139.891 432.078 139.891ZM442.188 140.297C441.964 140.125 441.641 140.039 441.219 140.039C440.672 140.039 440.214 140.297 439.844 140.812C439.479 141.328 439.297 142.031 439.297 142.922V147H438.016V139H439.297V140.648H439.328C439.51 140.086 439.789 139.648 440.164 139.336C440.539 139.018 440.958 138.859 441.422 138.859C441.755 138.859 442.01 138.896 442.188 138.969V140.297ZM447.289 146.922C446.987 147.089 446.589 147.172 446.094 147.172C444.693 147.172 443.992 146.391 443.992 144.828V140.094H442.617V139H443.992V137.047L445.273 136.633V139H447.289V140.094H445.273V144.602C445.273 145.138 445.365 145.521 445.547 145.75C445.729 145.979 446.031 146.094 446.453 146.094C446.776 146.094 447.055 146.005 447.289 145.828V146.922Z" fill="black"/>
<path d="M274.094 146.531C273.266 146.969 272.234 147.188 271 147.188C269.406 147.188 268.13 146.674 267.172 145.648C266.214 144.622 265.734 143.276 265.734 141.609C265.734 139.818 266.273 138.37 267.352 137.266C268.43 136.161 269.797 135.609 271.453 135.609C272.516 135.609 273.396 135.763 274.094 136.07V137.469C273.292 137.021 272.406 136.797 271.438 136.797C270.151 136.797 269.107 137.227 268.305 138.086C267.508 138.945 267.109 140.094 267.109 141.531C267.109 142.896 267.482 143.984 268.227 144.797C268.977 145.604 269.958 146.008 271.172 146.008C272.297 146.008 273.271 145.758 274.094 145.258V146.531ZM281.93 147H280.648V145.75H280.617C280.06 146.708 279.24 147.188 278.156 147.188C277.359 147.188 276.734 146.977 276.281 146.555C275.833 146.133 275.609 145.573 275.609 144.875C275.609 143.38 276.49 142.51 278.25 142.266L280.648 141.93C280.648 140.57 280.099 139.891 279 139.891C278.036 139.891 277.167 140.219 276.391 140.875V139.562C277.177 139.062 278.083 138.812 279.109 138.812C280.99 138.812 281.93 139.807 281.93 141.797V147ZM280.648 142.953L278.719 143.219C278.125 143.302 277.677 143.451 277.375 143.664C277.073 143.872 276.922 144.245 276.922 144.781C276.922 145.172 277.06 145.492 277.336 145.742C277.617 145.987 277.99 146.109 278.453 146.109C279.089 146.109 279.612 145.888 280.023 145.445C280.44 144.997 280.648 144.432 280.648 143.75V142.953ZM290.984 147H289.703V142.438C289.703 140.74 289.083 139.891 287.844 139.891C287.203 139.891 286.672 140.133 286.25 140.617C285.833 141.096 285.625 141.703 285.625 142.438V147H284.344V139H285.625V140.328H285.656C286.26 139.318 287.135 138.812 288.281 138.812C289.156 138.812 289.826 139.096 290.289 139.664C290.753 140.227 290.984 141.042 290.984 142.109V147ZM303.906 147H297.969V135.797H303.656V136.984H299.281V140.711H303.328V141.891H299.281V145.812H303.906V147ZM312.719 147H311.438V145.641H311.406C310.812 146.672 309.896 147.188 308.656 147.188C307.651 147.188 306.846 146.831 306.242 146.117C305.643 145.398 305.344 144.422 305.344 143.188C305.344 141.865 305.677 140.805 306.344 140.008C307.01 139.211 307.898 138.812 309.008 138.812C310.107 138.812 310.906 139.245 311.406 140.109H311.438V135.156H312.719V147ZM311.438 143.383V142.203C311.438 141.557 311.224 141.01 310.797 140.562C310.37 140.115 309.828 139.891 309.172 139.891C308.391 139.891 307.776 140.177 307.328 140.75C306.88 141.323 306.656 142.115 306.656 143.125C306.656 144.047 306.87 144.776 307.297 145.312C307.729 145.844 308.307 146.109 309.031 146.109C309.745 146.109 310.323 145.852 310.766 145.336C311.214 144.82 311.438 144.169 311.438 143.383ZM315.969 136.969C315.74 136.969 315.544 136.891 315.383 136.734C315.221 136.578 315.141 136.38 315.141 136.141C315.141 135.901 315.221 135.703 315.383 135.547C315.544 135.385 315.74 135.305 315.969 135.305C316.203 135.305 316.401 135.385 316.562 135.547C316.729 135.703 316.812 135.901 316.812 136.141C316.812 136.37 316.729 136.565 316.562 136.727C316.401 136.888 316.203 136.969 315.969 136.969ZM316.594 147H315.312V139H316.594V147ZM322.898 146.922C322.596 147.089 322.198 147.172 321.703 147.172C320.302 147.172 319.602 146.391 319.602 144.828V140.094H318.227V139H319.602V137.047L320.883 136.633V139H322.898V140.094H320.883V144.602C320.883 145.138 320.974 145.521 321.156 145.75C321.339 145.979 321.641 146.094 322.062 146.094C322.385 146.094 322.664 146.005 322.898 145.828V146.922Z" fill="black"/>
<path d="M482.094 146.531C481.266 146.969 480.234 147.188 479 147.188C477.406 147.188 476.13 146.674 475.172 145.648C474.214 144.622 473.734 143.276 473.734 141.609C473.734 139.818 474.273 138.37 475.352 137.266C476.43 136.161 477.797 135.609 479.453 135.609C480.516 135.609 481.396 135.763 482.094 136.07V137.469C481.292 137.021 480.406 136.797 479.438 136.797C478.151 136.797 477.107 137.227 476.305 138.086C475.508 138.945 475.109 140.094 475.109 141.531C475.109 142.896 475.482 143.984 476.227 144.797C476.977 145.604 477.958 146.008 479.172 146.008C480.297 146.008 481.271 145.758 482.094 145.258V146.531ZM489.93 147H488.648V145.75H488.617C488.06 146.708 487.24 147.188 486.156 147.188C485.359 147.188 484.734 146.977 484.281 146.555C483.833 146.133 483.609 145.573 483.609 144.875C483.609 143.38 484.49 142.51 486.25 142.266L488.648 141.93C488.648 140.57 488.099 139.891 487 139.891C486.036 139.891 485.167 140.219 484.391 140.875V139.562C485.177 139.062 486.083 138.812 487.109 138.812C488.99 138.812 489.93 139.807 489.93 141.797V147ZM488.648 142.953L486.719 143.219C486.125 143.302 485.677 143.451 485.375 143.664C485.073 143.872 484.922 144.245 484.922 144.781C484.922 145.172 485.06 145.492 485.336 145.742C485.617 145.987 485.99 146.109 486.453 146.109C487.089 146.109 487.612 145.888 488.023 145.445C488.44 144.997 488.648 144.432 488.648 143.75V142.953ZM498.984 147H497.703V142.438C497.703 140.74 497.083 139.891 495.844 139.891C495.203 139.891 494.672 140.133 494.25 140.617C493.833 141.096 493.625 141.703 493.625 142.438V147H492.344V139H493.625V140.328H493.656C494.26 139.318 495.135 138.812 496.281 138.812C497.156 138.812 497.826 139.096 498.289 139.664C498.753 140.227 498.984 141.042 498.984 142.109V147ZM513.594 146.531C512.766 146.969 511.734 147.188 510.5 147.188C508.906 147.188 507.63 146.674 506.672 145.648C505.714 144.622 505.234 143.276 505.234 141.609C505.234 139.818 505.773 138.37 506.852 137.266C507.93 136.161 509.297 135.609 510.953 135.609C512.016 135.609 512.896 135.763 513.594 136.07V137.469C512.792 137.021 511.906 136.797 510.938 136.797C509.651 136.797 508.607 137.227 507.805 138.086C507.008 138.945 506.609 140.094 506.609 141.531C506.609 142.896 506.982 143.984 507.727 144.797C508.477 145.604 509.458 146.008 510.672 146.008C511.797 146.008 512.771 145.758 513.594 145.258V146.531ZM519.875 140.297C519.651 140.125 519.328 140.039 518.906 140.039C518.359 140.039 517.901 140.297 517.531 140.812C517.167 141.328 516.984 142.031 516.984 142.922V147H515.703V139H516.984V140.648H517.016C517.198 140.086 517.477 139.648 517.852 139.336C518.227 139.018 518.646 138.859 519.109 138.859C519.443 138.859 519.698 138.896 519.875 138.969V140.297ZM527.695 143.32H522.047C522.068 144.211 522.307 144.898 522.766 145.383C523.224 145.867 523.854 146.109 524.656 146.109C525.557 146.109 526.385 145.812 527.141 145.219V146.422C526.438 146.932 525.508 147.188 524.352 147.188C523.221 147.188 522.333 146.826 521.688 146.102C521.042 145.372 520.719 144.349 520.719 143.031C520.719 141.786 521.07 140.773 521.773 139.992C522.482 139.206 523.359 138.812 524.406 138.812C525.453 138.812 526.263 139.151 526.836 139.828C527.409 140.505 527.695 141.445 527.695 142.648V143.32ZM526.383 142.234C526.378 141.495 526.198 140.919 525.844 140.508C525.495 140.096 525.008 139.891 524.383 139.891C523.779 139.891 523.266 140.107 522.844 140.539C522.422 140.971 522.161 141.536 522.062 142.234H526.383ZM535.367 147H534.086V145.75H534.055C533.497 146.708 532.677 147.188 531.594 147.188C530.797 147.188 530.172 146.977 529.719 146.555C529.271 146.133 529.047 145.573 529.047 144.875C529.047 143.38 529.927 142.51 531.688 142.266L534.086 141.93C534.086 140.57 533.536 139.891 532.438 139.891C531.474 139.891 530.604 140.219 529.828 140.875V139.562C530.615 139.062 531.521 138.812 532.547 138.812C534.427 138.812 535.367 139.807 535.367 141.797V147ZM534.086 142.953L532.156 143.219C531.562 143.302 531.115 143.451 530.812 143.664C530.51 143.872 530.359 144.245 530.359 144.781C530.359 145.172 530.497 145.492 530.773 145.742C531.055 145.987 531.427 146.109 531.891 146.109C532.526 146.109 533.049 145.888 533.461 145.445C533.878 144.997 534.086 144.432 534.086 143.75V142.953ZM541.492 146.922C541.19 147.089 540.792 147.172 540.297 147.172C538.896 147.172 538.195 146.391 538.195 144.828V140.094H536.82V139H538.195V137.047L539.477 136.633V139H541.492V140.094H539.477V144.602C539.477 145.138 539.568 145.521 539.75 145.75C539.932 145.979 540.234 146.094 540.656 146.094C540.979 146.094 541.258 146.005 541.492 145.828V146.922ZM549.633 143.32H543.984C544.005 144.211 544.245 144.898 544.703 145.383C545.161 145.867 545.792 146.109 546.594 146.109C547.495 146.109 548.323 145.812 549.078 145.219V146.422C548.375 146.932 547.445 147.188 546.289 147.188C545.159 147.188 544.271 146.826 543.625 146.102C542.979 145.372 542.656 144.349 542.656 143.031C542.656 141.786 543.008 140.773 543.711 139.992C544.419 139.206 545.297 138.812 546.344 138.812C547.391 138.812 548.201 139.151 548.773 139.828C549.346 140.505 549.633 141.445 549.633 142.648V143.32ZM548.32 142.234C548.315 141.495 548.135 140.919 547.781 140.508C547.432 140.096 546.945 139.891 546.32 139.891C545.716 139.891 545.203 140.107 544.781 140.539C544.359 140.971 544.099 141.536 544 142.234H548.32Z" fill="black"/>
<path d="M148 122L148 622" stroke="#ECECEC"/>
<path d="M45.5 147H43.9375L42.0625 143.859C41.8906 143.568 41.724 143.32 41.5625 143.117C41.401 142.909 41.2344 142.74 41.0625 142.609C40.8958 142.479 40.7135 142.385 40.5156 142.328C40.3229 142.266 40.1042 142.234 39.8594 142.234H38.7812V147H37.4688V135.797H40.8125C41.3021 135.797 41.7526 135.859 42.1641 135.984C42.5807 136.104 42.9401 136.289 43.2422 136.539C43.5495 136.789 43.7891 137.102 43.9609 137.477C44.1328 137.846 44.2188 138.281 44.2188 138.781C44.2188 139.172 44.1589 139.531 44.0391 139.859C43.9245 140.182 43.7578 140.471 43.5391 140.727C43.3255 140.982 43.0651 141.201 42.7578 141.383C42.4557 141.56 42.1146 141.698 41.7344 141.797V141.828C41.9219 141.911 42.0833 142.008 42.2188 142.117C42.3594 142.221 42.4922 142.346 42.6172 142.492C42.7422 142.638 42.8646 142.805 42.9844 142.992C43.1094 143.174 43.2474 143.388 43.3984 143.633L45.5 147ZM38.7812 136.984V141.047H40.5625C40.8906 141.047 41.1927 140.997 41.4688 140.898C41.75 140.799 41.9922 140.659 42.1953 140.477C42.3984 140.289 42.5573 140.062 42.6719 139.797C42.7865 139.526 42.8438 139.224 42.8438 138.891C42.8438 138.292 42.6484 137.826 42.2578 137.492C41.8724 137.154 41.3125 136.984 40.5781 136.984H38.7812ZM49.75 147.188C48.5677 147.188 47.6224 146.815 46.9141 146.07C46.2109 145.32 45.8594 144.328 45.8594 143.094C45.8594 141.75 46.2266 140.701 46.9609 139.945C47.6953 139.19 48.6875 138.812 49.9375 138.812C51.1302 138.812 52.0599 139.18 52.7266 139.914C53.3984 140.648 53.7344 141.667 53.7344 142.969C53.7344 144.245 53.3724 145.268 52.6484 146.039C51.9297 146.805 50.9635 147.188 49.75 147.188ZM49.8438 139.891C49.0208 139.891 48.3698 140.172 47.8906 140.734C47.4115 141.292 47.1719 142.062 47.1719 143.047C47.1719 143.995 47.4141 144.742 47.8984 145.289C48.3828 145.836 49.0312 146.109 49.8438 146.109C50.6719 146.109 51.3073 145.841 51.75 145.305C52.1979 144.768 52.4219 144.005 52.4219 143.016C52.4219 142.016 52.1979 141.245 51.75 140.703C51.3073 140.161 50.6719 139.891 49.8438 139.891ZM57.0625 147H55.7812V135.156H57.0625V147ZM66.0859 143.32H60.4375C60.4583 144.211 60.6979 144.898 61.1562 145.383C61.6146 145.867 62.2448 146.109 63.0469 146.109C63.9479 146.109 64.776 145.812 65.5312 145.219V146.422C64.8281 146.932 63.8984 147.188 62.7422 147.188C61.612 147.188 60.724 146.826 60.0781 146.102C59.4323 145.372 59.1094 144.349 59.1094 143.031C59.1094 141.786 59.4609 140.773 60.1641 139.992C60.8724 139.206 61.75 138.812 62.7969 138.812C63.8438 138.812 64.6536 139.151 65.2266 139.828C65.7995 140.505 66.0859 141.445 66.0859 142.648V143.32ZM64.7734 142.234C64.7682 141.495 64.5885 140.919 64.2344 140.508C63.8854 140.096 63.3984 139.891 62.7734 139.891C62.1693 139.891 61.6562 140.107 61.2344 140.539C60.8125 140.971 60.5521 141.536 60.4531 142.234H64.7734ZM67.5469 146.711V145.336C68.2448 145.852 69.013 146.109 69.8516 146.109C70.9766 146.109 71.5391 145.734 71.5391 144.984C71.5391 144.771 71.4896 144.591 71.3906 144.445C71.2969 144.294 71.1667 144.161 71 144.047C70.8385 143.932 70.6458 143.831 70.4219 143.742C70.2031 143.648 69.9661 143.552 69.7109 143.453C69.3568 143.312 69.0443 143.172 68.7734 143.031C68.5078 142.885 68.2839 142.724 68.1016 142.547C67.9245 142.365 67.7891 142.159 67.6953 141.93C67.6068 141.701 67.5625 141.432 67.5625 141.125C67.5625 140.75 67.6484 140.419 67.8203 140.133C67.9922 139.841 68.2214 139.599 68.5078 139.406C68.7943 139.208 69.1198 139.06 69.4844 138.961C69.8542 138.862 70.2344 138.812 70.625 138.812C71.3177 138.812 71.9375 138.932 72.4844 139.172V140.469C71.8958 140.083 71.2188 139.891 70.4531 139.891C70.2135 139.891 69.9974 139.919 69.8047 139.977C69.612 140.029 69.4453 140.104 69.3047 140.203C69.1693 140.302 69.0625 140.422 68.9844 140.562C68.9115 140.698 68.875 140.849 68.875 141.016C68.875 141.224 68.9115 141.398 68.9844 141.539C69.0625 141.68 69.1745 141.805 69.3203 141.914C69.4661 142.023 69.6432 142.122 69.8516 142.211C70.0599 142.299 70.2969 142.396 70.5625 142.5C70.9167 142.635 71.2344 142.776 71.5156 142.922C71.7969 143.062 72.0365 143.224 72.2344 143.406C72.4323 143.583 72.5833 143.789 72.6875 144.023C72.7969 144.258 72.8516 144.536 72.8516 144.859C72.8516 145.255 72.763 145.599 72.5859 145.891C72.4141 146.182 72.1823 146.424 71.8906 146.617C71.599 146.81 71.263 146.953 70.8828 147.047C70.5026 147.141 70.1042 147.188 69.6875 147.188C68.8646 147.188 68.151 147.029 67.5469 146.711Z" fill="black"/>
<path d="M36 178L566 178" stroke="#ECECEC"/>
<path d="M41.2363 455.164C39.8464 455.164 38.7321 454.706 37.8936 453.79C37.0596 452.874 36.6426 451.682 36.6426 450.215C36.6426 448.638 37.0687 447.38 37.9209 446.441C38.7731 445.503 39.9329 445.033 41.4004 445.033C42.7539 445.033 43.8431 445.489 44.668 446.4C45.4974 447.312 45.9121 448.504 45.9121 449.976C45.9121 451.575 45.4883 452.84 44.6406 453.77C43.793 454.699 42.6582 455.164 41.2363 455.164ZM41.3184 446.072C40.2884 446.072 39.4521 446.444 38.8096 447.187C38.167 447.929 37.8457 448.905 37.8457 450.112C37.8457 451.32 38.1579 452.293 38.7822 453.031C39.4111 453.765 40.2292 454.132 41.2363 454.132C42.3118 454.132 43.1595 453.781 43.7793 453.079C44.3991 452.377 44.709 451.395 44.709 450.133C44.709 448.839 44.4082 447.838 43.8066 447.132C43.2051 446.425 42.3757 446.072 41.3184 446.072ZM56.5078 448L54.4092 455H53.2471L51.8047 449.989C51.75 449.798 51.7135 449.581 51.6953 449.34H51.668C51.6543 449.504 51.6064 449.716 51.5244 449.976L49.959 455H48.8379L46.7188 448H47.8945L49.3438 453.264C49.3893 453.423 49.4212 453.633 49.4395 453.893H49.4941C49.5078 453.692 49.5488 453.478 49.6172 453.25L51.2305 448H52.2559L53.7051 453.277C53.7507 453.446 53.7848 453.656 53.8076 453.906H53.8623C53.8714 453.729 53.9102 453.519 53.9785 453.277L55.4004 448H56.5078ZM63.6172 455H62.4961V451.008C62.4961 449.522 61.9538 448.779 60.8691 448.779C60.3086 448.779 59.8438 448.991 59.4746 449.415C59.11 449.834 58.9277 450.365 58.9277 451.008V455H57.8066V448H58.9277V449.162H58.9551C59.4837 448.278 60.2493 447.836 61.252 447.836C62.0176 447.836 62.6032 448.084 63.0088 448.581C63.4144 449.073 63.6172 449.786 63.6172 450.721V455ZM71.3623 451.78H66.4199C66.4382 452.56 66.6478 453.161 67.0488 453.585C67.4499 454.009 68.0013 454.221 68.7031 454.221C69.4915 454.221 70.2161 453.961 70.877 453.441V454.494C70.2617 454.941 69.4482 455.164 68.4365 455.164C67.4476 455.164 66.6706 454.847 66.1055 454.214C65.5404 453.576 65.2578 452.68 65.2578 451.527C65.2578 450.438 65.5654 449.552 66.1807 448.868C66.8005 448.18 67.5684 447.836 68.4844 447.836C69.4004 447.836 70.109 448.132 70.6104 448.725C71.1117 449.317 71.3623 450.14 71.3623 451.192V451.78ZM70.2139 450.83C70.2093 450.183 70.0521 449.679 69.7422 449.319C69.4368 448.959 69.0107 448.779 68.4639 448.779C67.9352 448.779 67.4863 448.968 67.1172 449.347C66.748 449.725 66.5202 450.219 66.4336 450.83H70.2139ZM76.7148 449.135C76.5189 448.984 76.2363 448.909 75.8672 448.909C75.3887 448.909 74.9876 449.135 74.6641 449.586C74.3451 450.037 74.1855 450.652 74.1855 451.432V455H73.0645V448H74.1855V449.442H74.2129C74.3724 448.95 74.6162 448.567 74.9443 448.294C75.2725 448.016 75.6393 447.877 76.0449 447.877C76.3366 447.877 76.5599 447.909 76.7148 447.973V449.135Z" fill="black"/>
<path d="M36 502L566 502" stroke="#ECECEC"/>
<path d="M44.5723 548.197L40.9424 558H39.6777L36.123 548.197H37.4014L40.1152 555.97C40.2018 556.22 40.2679 556.51 40.3135 556.838H40.3408C40.3773 556.564 40.4525 556.271 40.5664 555.956L43.335 548.197H44.5723ZM46.4043 549.223C46.2038 549.223 46.0329 549.154 45.8916 549.018C45.7503 548.881 45.6797 548.708 45.6797 548.498C45.6797 548.288 45.7503 548.115 45.8916 547.979C46.0329 547.837 46.2038 547.767 46.4043 547.767C46.6094 547.767 46.7826 547.837 46.9238 547.979C47.0697 548.115 47.1426 548.288 47.1426 548.498C47.1426 548.699 47.0697 548.869 46.9238 549.011C46.7826 549.152 46.6094 549.223 46.4043 549.223ZM46.9512 558H45.8301V551H46.9512V558ZM54.8467 554.78H49.9043C49.9225 555.56 50.1322 556.161 50.5332 556.585C50.9342 557.009 51.4857 557.221 52.1875 557.221C52.9759 557.221 53.7005 556.961 54.3613 556.441V557.494C53.7461 557.941 52.9326 558.164 51.9209 558.164C50.932 558.164 50.1549 557.847 49.5898 557.214C49.0247 556.576 48.7422 555.68 48.7422 554.527C48.7422 553.438 49.0498 552.552 49.665 551.868C50.2848 551.18 51.0527 550.836 51.9688 550.836C52.8848 550.836 53.5934 551.132 54.0947 551.725C54.596 552.317 54.8467 553.14 54.8467 554.192V554.78ZM53.6982 553.83C53.6937 553.183 53.5365 552.679 53.2266 552.319C52.9212 551.959 52.4951 551.779 51.9482 551.779C51.4196 551.779 50.9707 551.968 50.6016 552.347C50.2324 552.725 50.0046 553.219 49.918 553.83H53.6982ZM65.3672 551L63.2686 558H62.1064L60.6641 552.989C60.6094 552.798 60.5729 552.581 60.5547 552.34H60.5273C60.5137 552.504 60.4658 552.716 60.3838 552.976L58.8184 558H57.6973L55.5781 551H56.7539L58.2031 556.264C58.2487 556.423 58.2806 556.633 58.2988 556.893H58.3535C58.3672 556.692 58.4082 556.478 58.4766 556.25L60.0898 551H61.1152L62.5645 556.277C62.61 556.446 62.6442 556.656 62.667 556.906H62.7217C62.7308 556.729 62.7695 556.519 62.8379 556.277L64.2598 551H65.3672ZM72.292 554.78H67.3496C67.3678 555.56 67.5775 556.161 67.9785 556.585C68.3796 557.009 68.931 557.221 69.6328 557.221C70.4212 557.221 71.1458 556.961 71.8066 556.441V557.494C71.1914 557.941 70.3779 558.164 69.3662 558.164C68.3773 558.164 67.6003 557.847 67.0352 557.214C66.4701 556.576 66.1875 555.68 66.1875 554.527C66.1875 553.438 66.4951 552.552 67.1104 551.868C67.7301 551.18 68.498 550.836 69.4141 550.836C70.3301 550.836 71.0387 551.132 71.54 551.725C72.0413 552.317 72.292 553.14 72.292 554.192V554.78ZM71.1436 553.83C71.139 553.183 70.9818 552.679 70.6719 552.319C70.3665 551.959 69.9404 551.779 69.3936 551.779C68.8649 551.779 68.416 551.968 68.0469 552.347C67.6777 552.725 67.4499 553.219 67.3633 553.83H71.1436ZM77.6445 552.135C77.4486 551.984 77.166 551.909 76.7969 551.909C76.3184 551.909 75.9173 552.135 75.5938 552.586C75.2747 553.037 75.1152 553.652 75.1152 554.432V558H73.9941V551H75.1152V552.442H75.1426C75.3021 551.95 75.5459 551.567 75.874 551.294C76.2021 551.016 76.569 550.877 76.9746 550.877C77.2663 550.877 77.4896 550.909 77.6445 550.973V552.135Z" fill="black"/>
<path d="M43.957 237.59C43.2324 237.973 42.3301 238.164 41.25 238.164C39.8555 238.164 38.7389 237.715 37.9004 236.817C37.0618 235.92 36.6426 234.742 36.6426 233.283C36.6426 231.715 37.1143 230.449 38.0576 229.482C39.001 228.516 40.1973 228.033 41.6465 228.033C42.5762 228.033 43.3464 228.168 43.957 228.437V229.66C43.2552 229.268 42.4805 229.072 41.6328 229.072C40.5072 229.072 39.5934 229.448 38.8916 230.2C38.1943 230.952 37.8457 231.957 37.8457 233.215C37.8457 234.409 38.1715 235.361 38.8232 236.072C39.4795 236.779 40.3385 237.132 41.4004 237.132C42.3848 237.132 43.237 236.913 43.957 236.476V237.59ZM48.7285 238.164C47.694 238.164 46.8669 237.838 46.2471 237.187C45.6318 236.53 45.3242 235.662 45.3242 234.582C45.3242 233.406 45.6455 232.488 46.2881 231.827C46.9307 231.166 47.7988 230.836 48.8926 230.836C49.9362 230.836 50.7497 231.157 51.333 231.8C51.9209 232.442 52.2148 233.333 52.2148 234.473C52.2148 235.589 51.8981 236.485 51.2646 237.159C50.6357 237.829 49.7904 238.164 48.7285 238.164ZM48.8105 231.779C48.0905 231.779 47.5208 232.025 47.1016 232.518C46.6823 233.005 46.4727 233.68 46.4727 234.541C46.4727 235.37 46.6846 236.024 47.1084 236.503C47.5322 236.981 48.0996 237.221 48.8105 237.221C49.5352 237.221 50.0911 236.986 50.4785 236.517C50.8704 236.047 51.0664 235.38 51.0664 234.514C51.0664 233.639 50.8704 232.964 50.4785 232.49C50.0911 232.016 49.5352 231.779 48.8105 231.779ZM59.8164 238H58.6953V234.008C58.6953 232.522 58.153 231.779 57.0684 231.779C56.5078 231.779 56.043 231.991 55.6738 232.415C55.3092 232.834 55.127 233.365 55.127 234.008V238H54.0059V231H55.127V232.162H55.1543C55.6829 231.278 56.4486 230.836 57.4512 230.836C58.2168 230.836 58.8024 231.084 59.208 231.581C59.6136 232.073 59.8164 232.786 59.8164 233.721V238ZM65.1826 237.932C64.9183 238.077 64.5697 238.15 64.1367 238.15C62.9108 238.15 62.2979 237.467 62.2979 236.1V231.957H61.0947V231H62.2979V229.291L63.4189 228.929V231H65.1826V231.957H63.4189V235.901C63.4189 236.371 63.4987 236.706 63.6582 236.906C63.8177 237.107 64.082 237.207 64.4512 237.207C64.7337 237.207 64.9775 237.13 65.1826 236.975V237.932ZM70.3301 232.135C70.1341 231.984 69.8516 231.909 69.4824 231.909C69.0039 231.909 68.6029 232.135 68.2793 232.586C67.9603 233.037 67.8008 233.652 67.8008 234.432V238H66.6797V231H67.8008V232.442H67.8281C67.9876 231.95 68.2314 231.567 68.5596 231.294C68.8877 231.016 69.2546 230.877 69.6602 230.877C69.9518 230.877 70.1751 230.909 70.3301 230.973V232.135ZM72.1211 229.223C71.9206 229.223 71.7497 229.154 71.6084 229.018C71.4671 228.881 71.3965 228.708 71.3965 228.498C71.3965 228.288 71.4671 228.115 71.6084 227.979C71.7497 227.837 71.9206 227.767 72.1211 227.767C72.3262 227.767 72.4993 227.837 72.6406 227.979C72.7865 228.115 72.8594 228.288 72.8594 228.498C72.8594 228.699 72.7865 228.869 72.6406 229.011C72.4993 229.152 72.3262 229.223 72.1211 229.223ZM72.668 238H71.5469V231H72.668V238ZM76.0859 236.988H76.0586V238H74.9375V227.637H76.0586V232.23H76.0859C76.6374 231.301 77.444 230.836 78.5059 230.836C79.4036 230.836 80.1055 231.15 80.6113 231.779C81.1217 232.404 81.377 233.242 81.377 234.295C81.377 235.466 81.0921 236.405 80.5225 237.111C79.9528 237.813 79.1735 238.164 78.1846 238.164C77.2594 238.164 76.5599 237.772 76.0859 236.988ZM76.0586 234.165V235.143C76.0586 235.721 76.2454 236.214 76.6191 236.619C76.9974 237.02 77.4759 237.221 78.0547 237.221C78.7337 237.221 79.2646 236.961 79.6475 236.441C80.0348 235.922 80.2285 235.2 80.2285 234.274C80.2285 233.495 80.0485 232.884 79.6885 232.442C79.3285 232 78.8408 231.779 78.2256 231.779C77.5739 231.779 77.0498 232.007 76.6533 232.463C76.2568 232.914 76.0586 233.481 76.0586 234.165ZM88.8281 238H87.707V236.893H87.6797C87.2148 237.74 86.4948 238.164 85.5195 238.164C83.8516 238.164 83.0176 237.171 83.0176 235.184V231H84.1318V235.006C84.1318 236.482 84.6969 237.221 85.8271 237.221C86.374 237.221 86.8229 237.02 87.1738 236.619C87.5293 236.214 87.707 235.685 87.707 235.033V231H88.8281V238ZM94.3447 237.932C94.0804 238.077 93.7318 238.15 93.2988 238.15C92.0729 238.15 91.46 237.467 91.46 236.1V231.957H90.2568V231H91.46V229.291L92.5811 228.929V231H94.3447V231.957H92.5811V235.901C92.5811 236.371 92.6608 236.706 92.8203 236.906C92.9798 237.107 93.2441 237.207 93.6133 237.207C93.8958 237.207 94.1396 237.13 94.3447 236.975V237.932ZM98.7676 238.164C97.7331 238.164 96.9059 237.838 96.2861 237.187C95.6709 236.53 95.3633 235.662 95.3633 234.582C95.3633 233.406 95.6846 232.488 96.3271 231.827C96.9697 231.166 97.8379 230.836 98.9316 230.836C99.9753 230.836 100.789 231.157 101.372 231.8C101.96 232.442 102.254 233.333 102.254 234.473C102.254 235.589 101.937 236.485 101.304 237.159C100.675 237.829 99.8294 238.164 98.7676 238.164ZM98.8496 231.779C98.1296 231.779 97.5599 232.025 97.1406 232.518C96.7214 233.005 96.5117 233.68 96.5117 234.541C96.5117 235.37 96.7236 236.024 97.1475 236.503C97.5713 236.981 98.1387 237.221 98.8496 237.221C99.5742 237.221 100.13 236.986 100.518 236.517C100.91 236.047 101.105 235.38 101.105 234.514C101.105 233.639 100.91 232.964 100.518 232.49C100.13 232.016 99.5742 231.779 98.8496 231.779ZM107.695 232.135C107.499 231.984 107.217 231.909 106.848 231.909C106.369 231.909 105.968 232.135 105.645 232.586C105.326 233.037 105.166 233.652 105.166 234.432V238H104.045V231H105.166V232.442H105.193C105.353 231.95 105.597 231.567 105.925 231.294C106.253 231.016 106.62 230.877 107.025 230.877C107.317 230.877 107.54 230.909 107.695 230.973V232.135Z" fill="black"/>
<path d="M36 285L566 285" stroke="#ECECEC"/>
<path d="M42.4805 348H37.2852V338.197H42.2617V339.236H38.4336V342.497H41.9746V343.529H38.4336V346.961H42.4805V348ZM49.3301 341L46.9785 344.541L49.2891 348H47.9834L46.6094 345.73C46.5228 345.589 46.4202 345.411 46.3018 345.197H46.2744C46.2516 345.238 46.1445 345.416 45.9531 345.73L44.5518 348H43.2598L45.6455 344.568L43.3623 341H44.668L46.0215 343.393C46.1217 343.57 46.2197 343.753 46.3154 343.939H46.3428L48.0928 341H49.3301ZM51.791 346.988H51.7637V351.22H50.6426V341H51.7637V342.23H51.791C52.3424 341.301 53.1491 340.836 54.2109 340.836C55.1133 340.836 55.8174 341.15 56.3232 341.779C56.8291 342.404 57.082 343.242 57.082 344.295C57.082 345.466 56.7972 346.405 56.2275 347.111C55.6579 347.813 54.8786 348.164 53.8896 348.164C52.9827 348.164 52.2832 347.772 51.791 346.988ZM51.7637 344.165V345.143C51.7637 345.721 51.9505 346.214 52.3242 346.619C52.7025 347.02 53.181 347.221 53.7598 347.221C54.4388 347.221 54.9697 346.961 55.3525 346.441C55.7399 345.922 55.9336 345.2 55.9336 344.274C55.9336 343.495 55.7536 342.884 55.3936 342.442C55.0335 342 54.5459 341.779 53.9307 341.779C53.279 341.779 52.7549 342.007 52.3584 342.463C51.9619 342.914 51.7637 343.481 51.7637 344.165ZM61.7988 348.164C60.7643 348.164 59.9372 347.838 59.3174 347.187C58.7021 346.53 58.3945 345.662 58.3945 344.582C58.3945 343.406 58.7158 342.488 59.3584 341.827C60.001 341.166 60.8691 340.836 61.9629 340.836C63.0065 340.836 63.82 341.157 64.4033 341.8C64.9912 342.442 65.2852 343.333 65.2852 344.473C65.2852 345.589 64.9684 346.485 64.335 347.159C63.7061 347.829 62.8607 348.164 61.7988 348.164ZM61.8809 341.779C61.1608 341.779 60.5911 342.025 60.1719 342.518C59.7526 343.005 59.543 343.68 59.543 344.541C59.543 345.37 59.7549 346.024 60.1787 346.503C60.6025 346.981 61.1699 347.221 61.8809 347.221C62.6055 347.221 63.1615 346.986 63.5488 346.517C63.9408 346.047 64.1367 345.38 64.1367 344.514C64.1367 343.639 63.9408 342.964 63.5488 342.49C63.1615 342.016 62.6055 341.779 61.8809 341.779ZM70.7266 342.135C70.5306 341.984 70.248 341.909 69.8789 341.909C69.4004 341.909 68.9993 342.135 68.6758 342.586C68.3568 343.037 68.1973 343.652 68.1973 344.432V348H67.0762V341H68.1973V342.442H68.2246C68.3841 341.95 68.6279 341.567 68.9561 341.294C69.2842 341.016 69.651 340.877 70.0566 340.877C70.3483 340.877 70.5716 340.909 70.7266 340.973V342.135ZM75.1904 347.932C74.9261 348.077 74.5775 348.15 74.1445 348.15C72.9186 348.15 72.3057 347.467 72.3057 346.1V341.957H71.1025V341H72.3057V339.291L73.4268 338.929V341H75.1904V341.957H73.4268V345.901C73.4268 346.371 73.5065 346.706 73.666 346.906C73.8255 347.107 74.0898 347.207 74.459 347.207C74.7415 347.207 74.9854 347.13 75.1904 346.975V347.932ZM82.3135 344.78H77.3711C77.3893 345.56 77.599 346.161 78 346.585C78.401 347.009 78.9525 347.221 79.6543 347.221C80.4427 347.221 81.1673 346.961 81.8281 346.441V347.494C81.2129 347.941 80.3994 348.164 79.3877 348.164C78.3988 348.164 77.6217 347.847 77.0566 347.214C76.4915 346.576 76.209 345.68 76.209 344.527C76.209 343.438 76.5166 342.552 77.1318 341.868C77.7516 341.18 78.5195 340.836 79.4355 340.836C80.3516 340.836 81.0602 341.132 81.5615 341.725C82.0628 342.317 82.3135 343.14 82.3135 344.192V344.78ZM81.165 343.83C81.1605 343.183 81.0033 342.679 80.6934 342.319C80.388 341.959 79.9619 341.779 79.415 341.779C78.8864 341.779 78.4375 341.968 78.0684 342.347C77.6992 342.725 77.4714 343.219 77.3848 343.83H81.165ZM87.666 342.135C87.4701 341.984 87.1875 341.909 86.8184 341.909C86.3398 341.909 85.9388 342.135 85.6152 342.586C85.2962 343.037 85.1367 343.652 85.1367 344.432V348H84.0156V341H85.1367V342.442H85.1641C85.3236 341.95 85.5674 341.567 85.8955 341.294C86.2236 341.016 86.5905 340.877 86.9961 340.877C87.2878 340.877 87.5111 340.909 87.666 340.973V342.135Z" fill="black"/>
<path d="M36 395L566 395" stroke="#ECECEC"/>
<path d="M359 122L359 622" stroke="#ECECEC"/>
<path d="M253 121L253 621" stroke="#ECECEC"/>
<path d="M461 122L461 622" stroke="#ECECEC"/>
<path d="M208.038 452.376C208.084 452.419 208.121 452.47 208.147 452.528C208.173 452.585 208.186 452.648 208.187 452.71C208.189 452.773 208.177 452.836 208.153 452.894C208.13 452.953 208.095 453.006 208.05 453.05C208.006 453.095 207.953 453.13 207.894 453.153C207.836 453.177 207.773 453.189 207.71 453.187C207.648 453.186 207.585 453.173 207.528 453.147C207.47 453.121 207.419 453.084 207.376 453.038L202.082 447.745L196.788 453.038C196.699 453.121 196.582 453.166 196.46 453.164C196.339 453.162 196.223 453.113 196.137 453.027C196.051 452.941 196.002 452.825 196 452.704C195.998 452.582 196.043 452.465 196.126 452.376L201.419 447.082L196.126 441.788C196.043 441.699 195.998 441.582 196 441.46C196.002 441.339 196.051 441.223 196.137 441.137C196.223 441.051 196.339 441.002 196.46 441C196.582 440.998 196.699 441.043 196.788 441.126L202.082 446.419L207.376 441.126C207.465 441.043 207.582 440.998 207.704 441C207.825 441.002 207.941 441.051 208.027 441.137C208.113 441.223 208.162 441.339 208.164 441.46C208.166 441.582 208.121 441.699 208.038 441.788L202.745 447.082L208.038 452.376Z" fill="#E04E56"/>
<path d="M522.038 452.376C522.084 452.419 522.121 452.47 522.147 452.528C522.173 452.585 522.186 452.648 522.187 452.71C522.189 452.773 522.177 452.836 522.153 452.894C522.13 452.953 522.095 453.006 522.05 453.05C522.006 453.095 521.953 453.13 521.894 453.153C521.836 453.177 521.773 453.189 521.71 453.187C521.648 453.186 521.585 453.173 521.528 453.147C521.47 453.121 521.419 453.084 521.376 453.038L516.082 447.745L510.788 453.038C510.699 453.121 510.582 453.166 510.46 453.164C510.339 453.162 510.223 453.113 510.137 453.027C510.051 452.941 510.002 452.825 510 452.704C509.998 452.582 510.043 452.465 510.126 452.376L515.419 447.082L510.126 441.788C510.043 441.699 509.998 441.582 510 441.46C510.002 441.339 510.051 441.223 510.137 441.137C510.223 441.051 510.339 441.002 510.46 441C510.582 440.998 510.699 441.043 510.788 441.126L516.082 446.419L521.376 441.126C521.465 441.043 521.582 440.998 521.704 441C521.825 441.002 521.941 441.051 522.027 441.137C522.113 441.223 522.162 441.339 522.164 441.46C522.166 441.582 522.121 441.699 522.038 441.788L516.745 447.082L522.038 452.376Z" fill="#E04E56"/>
<path d="M522.038 348.376C522.084 348.419 522.121 348.47 522.147 348.528C522.173 348.585 522.186 348.648 522.187 348.71C522.189 348.773 522.177 348.836 522.153 348.894C522.13 348.953 522.095 349.006 522.05 349.05C522.006 349.095 521.953 349.13 521.894 349.153C521.836 349.177 521.773 349.189 521.71 349.187C521.648 349.186 521.585 349.173 521.528 349.147C521.47 349.121 521.419 349.084 521.376 349.038L516.082 343.745L510.788 349.038C510.699 349.121 510.582 349.166 510.46 349.164C510.339 349.162 510.223 349.113 510.137 349.027C510.051 348.941 510.002 348.825 510 348.704C509.998 348.582 510.043 348.465 510.126 348.376L515.419 343.082L510.126 337.788C510.043 337.699 509.998 337.582 510 337.46C510.002 337.339 510.051 337.223 510.137 337.137C510.223 337.051 510.339 337.002 510.46 337C510.582 336.998 510.699 337.043 510.788 337.126L516.082 342.419L521.376 337.126C521.465 337.043 521.582 336.998 521.704 337C521.825 337.002 521.941 337.051 522.027 337.137C522.113 337.223 522.162 337.339 522.164 337.46C522.166 337.582 522.121 337.699 522.038 337.788L516.745 343.082L522.038 348.376Z" fill="#E04E56"/>
<path d="M419.038 452.376C419.084 452.419 419.121 452.47 419.147 452.528C419.173 452.585 419.186 452.648 419.187 452.71C419.189 452.773 419.177 452.836 419.153 452.894C419.13 452.953 419.095 453.006 419.05 453.05C419.006 453.095 418.953 453.13 418.894 453.153C418.836 453.177 418.773 453.189 418.71 453.187C418.648 453.186 418.585 453.173 418.528 453.147C418.47 453.121 418.419 453.084 418.376 453.038L413.082 447.745L407.788 453.038C407.699 453.121 407.582 453.166 407.46 453.164C407.339 453.162 407.223 453.113 407.137 453.027C407.051 452.941 407.002 452.825 407 452.704C406.998 452.582 407.043 452.465 407.126 452.376L412.419 447.082L407.126 441.788C407.043 441.699 406.998 441.582 407 441.46C407.002 441.339 407.051 441.223 407.137 441.137C407.223 441.051 407.339 441.002 407.46 441C407.582 440.998 407.699 441.043 407.788 441.126L413.082 446.419L418.376 441.126C418.465 441.043 418.582 440.998 418.704 441C418.825 441.002 418.941 441.051 419.027 441.137C419.113 441.223 419.162 441.339 419.164 441.46C419.166 441.582 419.121 441.699 419.038 441.788L413.745 447.082L419.038 452.376Z" fill="#E04E56"/>
<path d="M309.038 235.376C309.084 235.419 309.121 235.47 309.147 235.528C309.173 235.585 309.186 235.648 309.187 235.71C309.189 235.773 309.177 235.836 309.153 235.894C309.13 235.953 309.095 236.006 309.05 236.05C309.006 236.095 308.953 236.13 308.894 236.153C308.836 236.177 308.773 236.189 308.71 236.187C308.648 236.186 308.585 236.173 308.528 236.147C308.47 236.121 308.419 236.084 308.376 236.038L303.082 230.745L297.788 236.038C297.699 236.121 297.582 236.166 297.46 236.164C297.339 236.162 297.223 236.113 297.137 236.027C297.051 235.941 297.002 235.825 297 235.704C296.998 235.582 297.043 235.465 297.126 235.376L302.419 230.082L297.126 224.788C297.043 224.699 296.998 224.582 297 224.46C297.002 224.339 297.051 224.223 297.137 224.137C297.223 224.051 297.339 224.002 297.46 224C297.582 223.998 297.699 224.043 297.788 224.126L303.082 229.419L308.376 224.126C308.465 224.043 308.582 223.998 308.704 224C308.825 224.002 308.941 224.051 309.027 224.137C309.113 224.223 309.162 224.339 309.164 224.46C309.166 224.582 309.121 224.699 309.038 224.788L303.745 230.082L309.038 235.376Z" fill="#E04E56"/>
<path d="M419.038 235.376C419.084 235.419 419.121 235.47 419.147 235.528C419.173 235.585 419.186 235.648 419.187 235.71C419.189 235.773 419.177 235.836 419.153 235.894C419.13 235.953 419.095 236.006 419.05 236.05C419.006 236.095 418.953 236.13 418.894 236.153C418.836 236.177 418.773 236.189 418.71 236.187C418.648 236.186 418.585 236.173 418.528 236.147C418.47 236.121 418.419 236.084 418.376 236.038L413.082 230.745L407.788 236.038C407.699 236.121 407.582 236.166 407.46 236.164C407.339 236.162 407.223 236.113 407.137 236.027C407.051 235.941 407.002 235.825 407 235.704C406.998 235.582 407.043 235.465 407.126 235.376L412.419 230.082L407.126 224.788C407.043 224.699 406.998 224.582 407 224.46C407.002 224.339 407.051 224.223 407.137 224.137C407.223 224.051 407.339 224.002 407.46 224C407.582 223.998 407.699 224.043 407.788 224.126L413.082 229.419L418.376 224.126C418.465 224.043 418.582 223.998 418.704 224C418.825 224.002 418.941 224.051 419.027 224.137C419.113 224.223 419.162 224.339 419.164 224.46C419.166 224.582 419.121 224.699 419.038 224.788L413.745 230.082L419.038 235.376Z" fill="#E04E56"/>
<path d="M31.082 70.2363H28.252V79H27.1035V70.2363H24.2803V69.1973H31.082V70.2363ZM36.7354 75.7803H31.793C31.8112 76.5596 32.0208 77.1611 32.4219 77.585C32.8229 78.0088 33.3743 78.2207 34.0762 78.2207C34.8646 78.2207 35.5892 77.9609 36.25 77.4414V78.4941C35.6348 78.9408 34.8213 79.1641 33.8096 79.1641C32.8206 79.1641 32.0436 78.8473 31.4785 78.2139C30.9134 77.5758 30.6309 76.6803 30.6309 75.5273C30.6309 74.4382 30.9385 73.5518 31.5537 72.8682C32.1735 72.18 32.9414 71.8359 33.8574 71.8359C34.7734 71.8359 35.4821 72.1322 35.9834 72.7246C36.4847 73.3171 36.7354 74.1396 36.7354 75.1924V75.7803ZM35.5869 74.8301C35.5824 74.1829 35.4251 73.6794 35.1152 73.3193C34.8099 72.9593 34.3838 72.7793 33.8369 72.7793C33.3083 72.7793 32.8594 72.9684 32.4902 73.3467C32.1211 73.7249 31.8932 74.2194 31.8066 74.8301H35.5869ZM44.248 79H43.127V75.0078C43.127 73.5221 42.5846 72.7793 41.5 72.7793C40.9395 72.7793 40.4746 72.9912 40.1055 73.415C39.7409 73.8343 39.5586 74.3652 39.5586 75.0078V79H38.4375V72H39.5586V73.1621H39.5859C40.1146 72.278 40.8802 71.8359 41.8828 71.8359C42.6484 71.8359 43.234 72.0843 43.6396 72.5811C44.0452 73.0732 44.248 73.7865 44.248 74.7207V79ZM51.3779 79H50.2568V77.9062H50.2295C49.7419 78.7448 49.0241 79.1641 48.0762 79.1641C47.3789 79.1641 46.832 78.9795 46.4355 78.6104C46.0436 78.2412 45.8477 77.7513 45.8477 77.1406C45.8477 75.8327 46.6178 75.0716 48.1582 74.8574L50.2568 74.5635C50.2568 73.374 49.776 72.7793 48.8145 72.7793C47.9714 72.7793 47.2103 73.0664 46.5312 73.6406V72.4922C47.2194 72.0547 48.0124 71.8359 48.9102 71.8359C50.5553 71.8359 51.3779 72.7064 51.3779 74.4473V79ZM50.2568 75.459L48.5684 75.6914C48.0488 75.7643 47.6569 75.8942 47.3926 76.0811C47.1283 76.2633 46.9961 76.5892 46.9961 77.0586C46.9961 77.4004 47.1169 77.6807 47.3584 77.8994C47.6045 78.1136 47.9303 78.2207 48.3359 78.2207C48.8919 78.2207 49.3499 78.027 49.71 77.6396C50.0745 77.2477 50.2568 76.7533 50.2568 76.1562V75.459ZM59.3008 79H58.1797V75.0078C58.1797 73.5221 57.6374 72.7793 56.5527 72.7793C55.9922 72.7793 55.5273 72.9912 55.1582 73.415C54.7936 73.8343 54.6113 74.3652 54.6113 75.0078V79H53.4902V72H54.6113V73.1621H54.6387C55.1673 72.278 55.9329 71.8359 56.9355 71.8359C57.7012 71.8359 58.2868 72.0843 58.6924 72.5811C59.098 73.0732 59.3008 73.7865 59.3008 74.7207V79ZM64.667 78.9316C64.4027 79.0775 64.054 79.1504 63.6211 79.1504C62.3952 79.1504 61.7822 78.4668 61.7822 77.0996V72.957H60.5791V72H61.7822V70.291L62.9033 69.9287V72H64.667V72.957H62.9033V76.9014C62.9033 77.3708 62.9831 77.7057 63.1426 77.9062C63.3021 78.1068 63.5664 78.207 63.9355 78.207C64.2181 78.207 64.4619 78.1296 64.667 77.9746V78.9316ZM65.7402 78.7471V77.5439C66.3509 77.9951 67.0231 78.2207 67.7568 78.2207C68.7412 78.2207 69.2334 77.8926 69.2334 77.2363C69.2334 77.0495 69.1901 76.8923 69.1035 76.7646C69.0215 76.6325 68.9076 76.5163 68.7617 76.416C68.6204 76.3158 68.4518 76.2269 68.2559 76.1494C68.0645 76.0674 67.8571 75.9831 67.6338 75.8965C67.3239 75.7734 67.0505 75.6504 66.8135 75.5273C66.5811 75.3997 66.3851 75.2585 66.2256 75.1035C66.0706 74.944 65.9521 74.764 65.8701 74.5635C65.7926 74.363 65.7539 74.1283 65.7539 73.8594C65.7539 73.5312 65.8291 73.2419 65.9795 72.9912C66.1299 72.736 66.3304 72.5241 66.5811 72.3555C66.8317 72.1823 67.1165 72.0524 67.4355 71.9658C67.7591 71.8792 68.0918 71.8359 68.4336 71.8359C69.0397 71.8359 69.582 71.9408 70.0605 72.1504V73.2852C69.5456 72.9479 68.9531 72.7793 68.2832 72.7793C68.0736 72.7793 67.8844 72.8044 67.7158 72.8545C67.5472 72.9001 67.4014 72.9661 67.2783 73.0527C67.1598 73.1393 67.0664 73.2441 66.998 73.3672C66.9342 73.4857 66.9023 73.6178 66.9023 73.7637C66.9023 73.946 66.9342 74.0986 66.998 74.2217C67.0664 74.3447 67.1644 74.4541 67.292 74.5498C67.4196 74.6455 67.5745 74.7321 67.7568 74.8096C67.9391 74.887 68.1465 74.9714 68.3789 75.0625C68.6888 75.181 68.9668 75.304 69.2129 75.4316C69.459 75.5547 69.6686 75.696 69.8418 75.8555C70.015 76.0104 70.1471 76.1904 70.2383 76.3955C70.334 76.6006 70.3818 76.8444 70.3818 77.127C70.3818 77.4733 70.3044 77.7741 70.1494 78.0293C69.999 78.2845 69.7962 78.4964 69.541 78.665C69.2858 78.8337 68.9919 78.959 68.6592 79.041C68.3265 79.123 67.9779 79.1641 67.6133 79.1641C66.8932 79.1641 66.2689 79.0251 65.7402 78.7471Z" fill="#0B0B0B"/>
<path d="M105.784 79H103.884L102.318 76.375C102.177 76.1335 102.038 75.9284 101.901 75.7598C101.769 75.5866 101.632 75.4453 101.491 75.3359C101.354 75.2266 101.204 75.1468 101.04 75.0967C100.876 75.0465 100.691 75.0215 100.486 75.0215H99.8301V79H98.21V69.1973H101.437C101.897 69.1973 102.321 69.252 102.708 69.3613C103.095 69.4707 103.433 69.637 103.72 69.8604C104.007 70.0791 104.23 70.3548 104.39 70.6875C104.554 71.0156 104.636 71.4007 104.636 71.8428C104.636 72.1891 104.583 72.5081 104.479 72.7998C104.378 73.0869 104.232 73.3444 104.041 73.5723C103.854 73.7956 103.626 73.987 103.357 74.1465C103.093 74.306 102.795 74.429 102.462 74.5156V74.543C102.64 74.6432 102.795 74.7549 102.927 74.8779C103.059 74.9964 103.184 75.1195 103.303 75.2471C103.421 75.3747 103.537 75.5205 103.651 75.6846C103.77 75.8441 103.9 76.0309 104.041 76.2451L105.784 79ZM99.8301 70.5166V73.7021H101.184C101.434 73.7021 101.664 73.6634 101.874 73.5859C102.088 73.5085 102.273 73.3968 102.428 73.251C102.583 73.1051 102.703 72.9274 102.79 72.7178C102.877 72.5081 102.92 72.2734 102.92 72.0137C102.92 71.5443 102.772 71.1774 102.476 70.9131C102.179 70.6488 101.753 70.5166 101.197 70.5166H99.8301ZM109.476 79.1641C108.396 79.1641 107.532 78.8382 106.885 78.1865C106.242 77.5303 105.921 76.6621 105.921 75.582C105.921 74.4062 106.256 73.488 106.926 72.8271C107.6 72.1663 108.507 71.8359 109.646 71.8359C110.74 71.8359 111.592 72.1572 112.203 72.7998C112.814 73.4424 113.119 74.3333 113.119 75.4727C113.119 76.5892 112.789 77.4847 112.128 78.1592C111.472 78.8291 110.588 79.1641 109.476 79.1641ZM109.551 73.1006C108.931 73.1006 108.441 73.3171 108.081 73.75C107.721 74.1829 107.541 74.7799 107.541 75.541C107.541 76.2747 107.723 76.8535 108.088 77.2773C108.452 77.6966 108.94 77.9062 109.551 77.9062C110.175 77.9062 110.654 77.6989 110.986 77.2842C111.324 76.8695 111.492 76.2793 111.492 75.5137C111.492 74.7435 111.324 74.1488 110.986 73.7295C110.654 73.3102 110.175 73.1006 109.551 73.1006ZM116.332 79H114.739V68.6367H116.332V79ZM124.33 75.9307H119.559C119.577 76.5778 119.775 77.0768 120.153 77.4277C120.536 77.7786 121.06 77.9541 121.726 77.9541C122.473 77.9541 123.159 77.7308 123.783 77.2842V78.5625C123.145 78.9635 122.302 79.1641 121.254 79.1641C120.224 79.1641 119.415 78.8473 118.827 78.2139C118.244 77.5758 117.952 76.6803 117.952 75.5273C117.952 74.4382 118.273 73.5518 118.916 72.8682C119.563 72.18 120.365 71.8359 121.322 71.8359C122.279 71.8359 123.02 72.1436 123.544 72.7588C124.068 73.374 124.33 74.2285 124.33 75.3223V75.9307ZM122.799 74.8096C122.794 74.2399 122.66 73.7979 122.396 73.4834C122.131 73.1644 121.767 73.0049 121.302 73.0049C120.846 73.0049 120.459 73.1712 120.14 73.5039C119.825 73.8366 119.632 74.2718 119.559 74.8096H122.799ZM125.403 78.7812V77.3115C125.996 77.7627 126.65 77.9883 127.365 77.9883C128.322 77.9883 128.801 77.7057 128.801 77.1406C128.801 76.9811 128.76 76.8467 128.678 76.7373C128.596 76.6234 128.484 76.5231 128.343 76.4365C128.206 76.3499 128.042 76.2725 127.851 76.2041C127.664 76.1357 127.454 76.0583 127.222 75.9717C126.935 75.8577 126.675 75.737 126.442 75.6094C126.215 75.4818 126.023 75.3382 125.868 75.1787C125.718 75.0146 125.604 74.8301 125.526 74.625C125.449 74.4199 125.41 74.1807 125.41 73.9072C125.41 73.57 125.49 73.2738 125.649 73.0186C125.809 72.7588 126.023 72.5423 126.292 72.3691C126.561 72.1914 126.866 72.0592 127.208 71.9727C127.55 71.8815 127.903 71.8359 128.268 71.8359C128.915 71.8359 129.493 71.9339 130.004 72.1299V73.5176C129.512 73.1803 128.947 73.0117 128.309 73.0117C128.108 73.0117 127.926 73.0322 127.762 73.0732C127.602 73.1143 127.465 73.1712 127.352 73.2441C127.238 73.3171 127.149 73.4059 127.085 73.5107C127.021 73.611 126.989 73.7227 126.989 73.8457C126.989 73.9961 127.021 74.1237 127.085 74.2285C127.149 74.3333 127.242 74.4268 127.365 74.5088C127.493 74.5863 127.643 74.6592 127.816 74.7275C127.994 74.7913 128.197 74.862 128.425 74.9395C128.726 75.0625 128.994 75.1878 129.231 75.3154C129.473 75.443 129.678 75.5889 129.847 75.7529C130.015 75.9124 130.145 76.0993 130.236 76.3135C130.327 76.5231 130.373 76.7738 130.373 77.0654C130.373 77.4209 130.291 77.7308 130.127 77.9951C129.963 78.2594 129.744 78.4782 129.471 78.6514C129.197 78.8245 128.881 78.9521 128.521 79.0342C128.165 79.1208 127.789 79.1641 127.393 79.1641C126.627 79.1641 125.964 79.0365 125.403 78.7812Z" fill="#275CE6"/>
<path d="M241.082 70.2363H238.252V79H237.104V70.2363H234.28V69.1973H241.082V70.2363ZM248.287 79H247.166V74.9668C247.166 73.5085 246.624 72.7793 245.539 72.7793C244.992 72.7793 244.532 72.9912 244.158 73.415C243.785 73.8343 243.598 74.3743 243.598 75.0352V79H242.477V68.6367H243.598V73.1621H243.625C244.163 72.278 244.928 71.8359 245.922 71.8359C247.499 71.8359 248.287 72.7861 248.287 74.6865V79ZM256.032 75.7803H251.09C251.108 76.5596 251.318 77.1611 251.719 77.585C252.12 78.0088 252.671 78.2207 253.373 78.2207C254.161 78.2207 254.886 77.9609 255.547 77.4414V78.4941C254.932 78.9408 254.118 79.1641 253.106 79.1641C252.118 79.1641 251.34 78.8473 250.775 78.2139C250.21 77.5758 249.928 76.6803 249.928 75.5273C249.928 74.4382 250.235 73.5518 250.851 72.8682C251.47 72.18 252.238 71.8359 253.154 71.8359C254.07 71.8359 254.779 72.1322 255.28 72.7246C255.782 73.3171 256.032 74.1396 256.032 75.1924V75.7803ZM254.884 74.8301C254.879 74.1829 254.722 73.6794 254.412 73.3193C254.107 72.9593 253.681 72.7793 253.134 72.7793C252.605 72.7793 252.156 72.9684 251.787 73.3467C251.418 73.7249 251.19 74.2194 251.104 74.8301H254.884ZM267.674 79H266.553V74.9805C266.553 74.2057 266.432 73.6452 266.19 73.2988C265.953 72.9525 265.552 72.7793 264.987 72.7793C264.509 72.7793 264.101 72.998 263.764 73.4355C263.431 73.873 263.265 74.3971 263.265 75.0078V79H262.144V74.8438C262.144 73.4674 261.613 72.7793 260.551 72.7793C260.059 72.7793 259.653 72.9867 259.334 73.4014C259.015 73.8115 258.855 74.347 258.855 75.0078V79H257.734V72H258.855V73.1074H258.883C259.38 72.2598 260.104 71.8359 261.057 71.8359C261.535 71.8359 261.952 71.9704 262.308 72.2393C262.663 72.5036 262.907 72.8522 263.039 73.2852C263.559 72.319 264.333 71.8359 265.363 71.8359C266.904 71.8359 267.674 72.7861 267.674 74.6865V79ZM275.419 75.7803H270.477C270.495 76.5596 270.704 77.1611 271.105 77.585C271.507 78.0088 272.058 78.2207 272.76 78.2207C273.548 78.2207 274.273 77.9609 274.934 77.4414V78.4941C274.318 78.9408 273.505 79.1641 272.493 79.1641C271.504 79.1641 270.727 78.8473 270.162 78.2139C269.597 77.5758 269.314 76.6803 269.314 75.5273C269.314 74.4382 269.622 73.5518 270.237 72.8682C270.857 72.18 271.625 71.8359 272.541 71.8359C273.457 71.8359 274.166 72.1322 274.667 72.7246C275.168 73.3171 275.419 74.1396 275.419 75.1924V75.7803ZM274.271 74.8301C274.266 74.1829 274.109 73.6794 273.799 73.3193C273.493 72.9593 273.067 72.7793 272.521 72.7793C271.992 72.7793 271.543 72.9684 271.174 73.3467C270.805 73.7249 270.577 74.2194 270.49 74.8301H274.271Z" fill="black"/>
<path d="M155.285 79V69.1973H158.074C158.922 69.1973 159.594 69.4046 160.091 69.8193C160.588 70.234 160.836 70.7741 160.836 71.4395C160.836 71.9954 160.686 72.4785 160.385 72.8887C160.084 73.2988 159.669 73.5905 159.141 73.7637V73.791C159.801 73.8685 160.33 74.1191 160.727 74.543C161.123 74.9622 161.321 75.5091 161.321 76.1836C161.321 77.0221 161.021 77.7012 160.419 78.2207C159.817 78.7402 159.059 79 158.143 79H155.285ZM156.434 70.2363V73.4014H157.609C158.238 73.4014 158.733 73.251 159.093 72.9502C159.453 72.6449 159.633 72.2165 159.633 71.665C159.633 70.7126 159.006 70.2363 157.753 70.2363H156.434ZM156.434 74.4336V77.9609H157.992C158.667 77.9609 159.188 77.8014 159.558 77.4824C159.931 77.1634 160.118 76.7259 160.118 76.1699C160.118 75.0124 159.33 74.4336 157.753 74.4336H156.434ZM166.811 73.1348C166.615 72.9844 166.332 72.9092 165.963 72.9092C165.484 72.9092 165.083 73.1348 164.76 73.5859C164.441 74.0371 164.281 74.6523 164.281 75.4316V79H163.16V72H164.281V73.4424H164.309C164.468 72.9502 164.712 72.5674 165.04 72.2939C165.368 72.016 165.735 71.877 166.141 71.877C166.432 71.877 166.656 71.9089 166.811 71.9727V73.1348ZM173.038 79H171.917V77.9062H171.89C171.402 78.7448 170.684 79.1641 169.736 79.1641C169.039 79.1641 168.492 78.9795 168.096 78.6104C167.704 78.2412 167.508 77.7513 167.508 77.1406C167.508 75.8327 168.278 75.0716 169.818 74.8574L171.917 74.5635C171.917 73.374 171.436 72.7793 170.475 72.7793C169.632 72.7793 168.87 73.0664 168.191 73.6406V72.4922C168.88 72.0547 169.673 71.8359 170.57 71.8359C172.215 71.8359 173.038 72.7064 173.038 74.4473V79ZM171.917 75.459L170.229 75.6914C169.709 75.7643 169.317 75.8942 169.053 76.0811C168.788 76.2633 168.656 76.5892 168.656 77.0586C168.656 77.4004 168.777 77.6807 169.019 77.8994C169.265 78.1136 169.59 78.2207 169.996 78.2207C170.552 78.2207 171.01 78.027 171.37 77.6396C171.735 77.2477 171.917 76.7533 171.917 76.1562V75.459ZM180.961 79H179.84V75.0078C179.84 73.5221 179.298 72.7793 178.213 72.7793C177.652 72.7793 177.188 72.9912 176.818 73.415C176.454 73.8343 176.271 74.3652 176.271 75.0078V79H175.15V72H176.271V73.1621H176.299C176.827 72.278 177.593 71.8359 178.596 71.8359C179.361 71.8359 179.947 72.0843 180.353 72.5811C180.758 73.0732 180.961 73.7865 180.961 74.7207V79ZM189.055 79H187.934V77.8105H187.906C187.387 78.7129 186.585 79.1641 185.5 79.1641C184.62 79.1641 183.916 78.8519 183.388 78.2275C182.864 77.5986 182.602 76.7441 182.602 75.6641C182.602 74.5065 182.893 73.5791 183.477 72.8818C184.06 72.1846 184.837 71.8359 185.808 71.8359C186.769 71.8359 187.469 72.2142 187.906 72.9707H187.934V68.6367H189.055V79ZM187.934 75.835V74.8027C187.934 74.2376 187.747 73.7591 187.373 73.3672C186.999 72.9753 186.525 72.7793 185.951 72.7793C185.268 72.7793 184.73 73.0299 184.338 73.5312C183.946 74.0326 183.75 74.7253 183.75 75.6094C183.75 76.416 183.937 77.054 184.311 77.5234C184.689 77.9883 185.195 78.2207 185.828 78.2207C186.452 78.2207 186.958 77.9951 187.346 77.5439C187.738 77.0928 187.934 76.5231 187.934 75.835ZM191.898 70.2227C191.698 70.2227 191.527 70.1543 191.386 70.0176C191.244 69.8809 191.174 69.7077 191.174 69.498C191.174 69.2884 191.244 69.1152 191.386 68.9785C191.527 68.8372 191.698 68.7666 191.898 68.7666C192.104 68.7666 192.277 68.8372 192.418 68.9785C192.564 69.1152 192.637 69.2884 192.637 69.498C192.637 69.6986 192.564 69.8695 192.418 70.0107C192.277 70.152 192.104 70.2227 191.898 70.2227ZM192.445 79H191.324V72H192.445V79ZM200.525 79H199.404V75.0078C199.404 73.5221 198.862 72.7793 197.777 72.7793C197.217 72.7793 196.752 72.9912 196.383 73.415C196.018 73.8343 195.836 74.3652 195.836 75.0078V79H194.715V72H195.836V73.1621H195.863C196.392 72.278 197.158 71.8359 198.16 71.8359C198.926 71.8359 199.511 72.0843 199.917 72.5811C200.323 73.0732 200.525 73.7865 200.525 74.7207V79ZM208.619 78.4395C208.619 81.0098 207.389 82.2949 204.928 82.2949C204.062 82.2949 203.305 82.1309 202.658 81.8027V80.6816C203.447 81.1191 204.199 81.3379 204.914 81.3379C206.637 81.3379 207.498 80.4219 207.498 78.5898V77.8242H207.471C206.938 78.7174 206.135 79.1641 205.064 79.1641C204.194 79.1641 203.492 78.8542 202.959 78.2344C202.43 77.61 202.166 76.7738 202.166 75.7256C202.166 74.5361 202.451 73.5905 203.021 72.8887C203.595 72.1868 204.379 71.8359 205.372 71.8359C206.315 71.8359 207.015 72.2142 207.471 72.9707H207.498V72H208.619V78.4395ZM207.498 75.835V74.8027C207.498 74.2467 207.309 73.7705 206.931 73.374C206.557 72.9775 206.09 72.7793 205.529 72.7793C204.837 72.7793 204.294 73.0322 203.902 73.5381C203.51 74.0394 203.314 74.7435 203.314 75.6504C203.314 76.4297 203.501 77.054 203.875 77.5234C204.253 77.9883 204.752 78.2207 205.372 78.2207C206.001 78.2207 206.511 77.9974 206.903 77.5508C207.3 77.1042 207.498 76.5322 207.498 75.835Z" fill="black"/>
<path d="M98 86H130" stroke="#275CE6" stroke-width="1.5" stroke-linecap="round"/>
<path d="M193 229.333L199 235.333L210.333 224" stroke="#269465" stroke-width="2" stroke-linecap="square"/>
<path d="M507 229.333L513 235.333L524.333 224" stroke="#269465" stroke-width="2" stroke-linecap="square"/>
<path d="M294 339.333L300 345.333L311.333 334" stroke="#269465" stroke-width="2" stroke-linecap="square"/>
<path d="M193 342.333L199 348.333L210.333 337" stroke="#269465" stroke-width="2" stroke-linecap="square"/>
<path d="M404 342.333L410 348.333L421.333 337" stroke="#269465" stroke-width="2" stroke-linecap="square"/>
<path d="M294 446.333L300 452.333L311.333 441" stroke="#269465" stroke-width="2" stroke-linecap="square"/>
<path d="M193 557.333L199 563.333L210.333 552" stroke="#269465" stroke-width="2" stroke-linecap="square"/>
<path d="M507 557.333L513 563.333L524.333 552" stroke="#269465" stroke-width="2" stroke-linecap="square"/>
<path d="M294 557.333L300 563.333L311.333 552" stroke="#269465" stroke-width="2" stroke-linecap="square"/>
<path d="M404 557.333L410 563.333L421.333 552" stroke="#269465" stroke-width="2" stroke-linecap="square"/>
</g>
<rect x="0.5" y="0.5" width="593" height="644" stroke="#D9D9D9"/>
<defs>
<filter id="filter0_d_438_254" x="-4" y="10" width="602" height="47" filterUnits="userSpaceOnUse" color-interpolation-filters="sRGB">
<feFlood flood-opacity="0" result="BackgroundImageFix"/>
<feColorMatrix in="SourceAlpha" type="matrix" values="0 0 0 0 0 0 0 0 0 0 0 0 0 0 0 0 0 0 127 0" result="hardAlpha"/>
<feOffset dy="4"/>
<feGaussianBlur stdDeviation="2"/>
<feComposite in2="hardAlpha" operator="out"/>
<feColorMatrix type="matrix" values="0 0 0 0 0.895833 0 0 0 0 0.895833 0 0 0 0 0.895833 0 0 0 0.25 0"/>
<feBlend mode="normal" in2="BackgroundImageFix" result="effect1_dropShadow_438_254"/>
<feBlend mode="normal" in="SourceGraphic" in2="effect1_dropShadow_438_254" result="shape"/>
</filter>
<clipPath id="clip0_438_254">
<rect width="594" height="645" fill="white"/>
</clipPath>
</defs>
</svg>
