<svg width="189" height="117" viewBox="0 0 189 117" fill="none" xmlns="http://www.w3.org/2000/svg">
<path d="M5.70132 49.3636C5.70132 48.8456 5.72503 48.3504 5.77078 47.8324L1.46383 44.6579C0.537228 43.9821 0.282315 42.7214 0.86163 41.7302L5.19226 34.4572C5.46927 33.98 5.9187 33.6197 6.45306 33.4456C6.98745 33.2708 7.56924 33.2944 8.08645 33.5118L13.0659 35.5603C13.9222 34.9752 14.826 34.4572 15.7754 34.0298L16.4471 28.8281C16.586 27.7022 17.5812 26.8467 18.7391 26.8467H27.3775C28.5582 26.8467 29.5543 27.7022 29.6931 28.8281L29.8354 36.3831C30.7848 36.8112 29.5077 38.4471 30.3648 39.0321H33.0743C34.1398 38.5819 34.412 38.5713 34.9913 39.5624L42.1434 43.2704C42.7227 44.2616 41.8746 43.9593 40.948 44.6579L38.4345 46.9793C38.531 47.9908 36.5805 51.7479 40.3694 50.8948L44.6764 54.0701C45.603 54.7451 45.8571 56.0067 45.2786 56.997L40.948 64.2701C40.3694 65.2612 39.1185 65.6665 38.0529 65.2162L33.0743 63.1669C32.2172 63.752 31.3143 64.2701 30.3648 64.6982L29.6931 69.9C29.5543 71.0251 28.5075 70.4286 27.3497 70.4286H18.7121C17.5543 70.4286 16.5582 69.5723 16.4193 68.4471L15.7983 64.6982C14.8488 64.2701 13.9459 63.752 13.0888 63.1669L8.11017 65.2162C7.04467 65.6665 5.79449 65.2612 5.21515 64.2701L0.884518 56.997C0.305997 56.0067 0.560116 54.7679 1.48672 54.0701L5.79449 50.8948C5.72503 50.3768 5.70132 49.8817 5.70132 49.3636ZM22.9774 57.2446C27.4469 57.2446 31.0831 53.7098 31.0831 49.3636C31.0831 45.0182 27.4469 41.4827 22.9774 41.4827C18.5078 41.4827 14.8717 45.0182 14.8717 49.3636C14.8717 53.7098 18.5078 57.2446 22.9774 57.2446Z" fill="#BD1118"/>
<path d="M7.33628 49.8481C7.33628 49.3668 7.3567 48.9059 7.3992 48.4247L3.4967 45.4742C2.65754 44.8466 2.42712 43.6741 2.9517 42.754L6.87461 35.9941C7.12628 35.5504 7.5332 35.2154 8.01692 35.0536C8.50065 34.891 9.02768 34.913 9.4967 35.1149L14.0071 37.0195C14.7834 36.4754 15.6013 35.9941 16.4617 35.5961L17.0696 30.7622C17.1955 29.7155 18.0975 28.9204 19.1467 28.9204H26.9721C28.0417 28.9204 28.9438 29.7155 29.0696 30.7622L29.6784 35.5961C30.538 35.9941 31.3567 36.4754 32.1321 37.0195L36.6425 35.1149C37.6076 34.6965 38.7409 35.0732 39.2655 35.9941L43.1884 42.7744C43.713 43.6953 43.4817 44.8466 42.6425 45.4954L38.7409 48.4459C38.8275 49.3856 38.8275 50.3318 38.7409 51.2715L42.6425 54.222C43.4817 54.8496 43.713 56.0222 43.1884 56.943L39.2655 63.7021C38.7409 64.623 37.6076 64.9997 36.6425 64.5813L32.1321 62.6766C31.3567 63.2209 30.538 63.7021 29.6784 64.1L29.0696 68.9341C28.9438 69.9808 28.0417 70.7758 26.9925 70.7758H19.1679C18.1188 70.7758 17.2167 69.9808 17.0909 68.9341L16.483 64.1C15.6225 63.7021 14.8046 63.2209 14.0284 62.6766L9.51794 64.5813C8.55294 64.9997 7.41963 64.623 6.89503 63.7021L2.97212 56.943C2.44836 56.0222 2.67878 54.8708 3.51794 54.222L7.41963 51.2715C7.3567 50.7902 7.33628 50.3293 7.33628 49.8481ZM22.9863 57.1726C27.035 57.1726 30.3288 53.887 30.3288 49.8481C30.3288 45.8091 27.035 42.5236 22.9863 42.5236C18.9367 42.5236 15.6438 45.8091 15.6438 49.8481C15.6438 53.887 18.9367 57.1726 22.9863 57.1726Z" fill="#EF5F67"/>
<path d="M26.6738 10C26.6738 5.58172 30.2556 2 34.6738 2H179.447C183.866 2 187.447 5.58172 187.447 10V107.487C187.447 111.905 183.866 115.487 179.447 115.487H34.6738C30.2556 115.487 26.6738 111.905 26.6738 107.487V10Z" fill="white" stroke="#212121" stroke-width="2.20459"/>
<path d="M140.609 24.9671C140.609 24.4697 141.013 24.0664 141.51 24.0664H179.339C179.837 24.0664 180.24 24.4697 180.24 24.9671V24.9671C180.24 25.4645 179.837 25.8678 179.339 25.8678H141.51C141.013 25.8678 140.609 25.4645 140.609 24.9671V24.9671Z" fill="#212121"/>
<path d="M140.609 32.1732C140.609 31.6757 141.013 31.2725 141.51 31.2725H179.339C179.837 31.2725 180.24 31.6757 180.24 32.1732V32.1732C180.24 32.6706 179.837 33.0738 179.339 33.0738H141.51C141.013 33.0738 140.609 32.6706 140.609 32.1732V32.1732Z" fill="#212121"/>
<path d="M102.557 25.8687C107.525 25.8687 111.092 26.8467 115.682 28.7481C120.271 30.6495 124.442 33.4359 127.955 36.9486C131.467 40.4613 134.254 44.6318 136.155 49.2215C138.056 53.8104 139.035 57.8289 139.035 62.7969H131.378C131.378 58.8225 130.686 55.7877 129.165 52.1165C127.644 48.4444 125.415 45.1082 122.605 42.2982C119.795 39.4881 116.459 37.2591 112.787 35.7385C109.115 34.217 106.531 33.2994 102.557 33.2994V25.8687Z" fill="#C9363C"/>
<path d="M63.6016 62.7969C63.6016 52.9075 67.2491 44.3115 74.1651 37.2419C81.0818 30.1732 90.4173 26.0844 100.304 25.8687V33.2994C92.3947 33.4718 85.1061 36.8783 79.5735 42.5335C74.0401 48.1887 71.0323 54.8848 71.0323 62.7969H63.6016Z" fill="#F36D73"/>
<path fill-rule="evenodd" clip-rule="evenodd" d="M139.033 64.4062C138.916 69.3726 137.812 74.4443 135.805 78.9883C133.796 83.5321 130.914 87.6356 127.319 91.0651C123.725 94.4944 119.491 97.1827 114.858 98.9755C111.277 100.362 101.847 100.591 95.4611 100.623C95.4243 100.624 95.3867 100.625 95.3499 100.625H94.9398C93.7893 100.629 92.7524 100.628 91.8838 100.626H91.615H69.2296C67.2399 100.626 65.627 99.0129 65.627 97.0233V96.5731C65.627 94.5826 67.2399 92.9697 69.2296 92.9697H94.224C95.9726 92.9697 97.4467 94.1422 97.9051 95.743L100.495 93.9519C104.468 94.045 108.42 93.3546 112.127 91.9198C115.833 90.4857 119.221 88.3351 122.096 85.5913C124.972 82.8483 127.278 79.5651 128.885 75.9298C130.491 72.2946 131.365 68.3789 131.459 64.4062H139.033Z" fill="#F36D73"/>
<path fill-rule="evenodd" clip-rule="evenodd" d="M96.0259 100.625C92.8735 100.625 80.9609 97.0651 74.2288 90.2178C67.4967 83.3696 63.8352 74.0342 63.6016 64.4341H70.9506C71.1377 72.114 74.2386 79.4353 79.6241 84.9131C85.0097 90.3918 91.2777 93.1022 98.9536 93.42H150.293V89.3297C150.292 89.1727 150.336 89.0175 150.417 88.8827C150.498 88.7478 150.615 88.6375 150.755 88.5648C150.894 88.4913 151.051 88.4578 151.209 88.4676C151.366 88.4774 151.518 88.5305 151.647 88.6204L162.868 96.3885C163.333 96.7114 163.333 97.4868 162.868 97.8087L151.647 105.577C151.517 105.666 151.366 105.718 151.209 105.727C151.052 105.737 150.895 105.703 150.756 105.63C150.617 105.557 150.5 105.447 150.418 105.313C150.336 105.178 150.293 105.025 150.293 104.867V100.625H96.2514C96.1762 100.625 96.1027 100.624 96.0291 100.619L96.0259 100.625Z" fill="#C9363C"/>
<path d="M28.0605 10.1055C28.0605 6.79176 30.7468 4.10547 34.0605 4.10547H180.061C183.374 4.10547 186.061 6.79176 186.061 10.1055V18.1055H28.0605V10.1055Z" fill="#E0E0E0"/>
<circle cx="37.0299" cy="10.1056" r="1.80138" fill="#212121"/>
</svg>
