<svg xmlns="http://www.w3.org/2000/svg" xmlns:xlink="http://www.w3.org/1999/xlink" width="222" height="60" viewBox="0 0 222 60">
  <defs>
    <clipPath id="clip-Web_1920_18">
      <rect width="222" height="60"/>
    </clipPath>
  </defs>
  <g id="Web_1920_18" data-name="Web 1920 – 18" clip-path="url(#clip-Web_1920_18)">
    <rect width="222" height="60" fill="#fff"/>
    <g id="g10" transform="translate(58 229.5)">
      <g id="g12" transform="translate(0 -217.5)">
        <path id="path14" d="M132.976-192.753,127.5-194.58v-7.92l5.483,1.625-.007,8.123" transform="translate(-106.787 204.937)" fill="#f68d11"/>
        <path id="path16" d="M170-200.875l5.483-1.625-.019,7.914L170-192.753v-8.123" transform="translate(-142.383 204.937)" fill="#f68d11"/>
        <path id="path18" d="M144.528-215.921l-5.11-1.579-5.043,1.579,5.051,1.354,5.1-1.354" transform="translate(-112.545 217.5)" fill="#f68d11"/>
        <path id="path20" d="M217.976-192.753,212.5-194.58v-7.92l5.483,1.625-.007,8.123" transform="translate(-177.979 204.937)" fill="#f68d11"/>
        <path id="path22" d="M255-200.875l5.483-1.625-.019,7.914L255-192.753v-8.123" transform="translate(-213.575 204.937)" fill="#f68d11"/>
        <path id="path24" d="M229.528-215.921l-5.11-1.579-5.043,1.579,5.051,1.354,5.1-1.354" transform="translate(-183.737 217.5)" fill="#f68d11"/>
        <path id="path26" d="M5.483-129.625,0-131.25v7.92L5.476-121.5l.007-8.123" transform="translate(0 145.262)" fill="#f68d11"/>
        <path id="path28" d="M42.5-129.625l5.483-1.625-.019,7.914L42.5-121.5v-8.123" transform="translate(-35.596 145.262)" fill="#f68d11"/>
        <path id="path30" d="M17.028-144.671l-5.11-1.579-5.043,1.579,5.051,1.354,5.1-1.354" transform="translate(-5.758 157.825)" fill="#f68d11"/>
        <path id="path32" d="M90.476-121.5,85-123.33v-7.92l5.483,1.625-.007,8.123" transform="translate(-71.192 145.262)" fill="#f68d11"/>
        <path id="path34" d="M127.5-129.625l5.483-1.625-.019,7.914L127.5-121.5v-8.123" transform="translate(-106.787 145.262)" fill="#f68d11"/>
        <path id="path36" d="M102.028-144.671l-5.11-1.579-5.043,1.579,5.051,1.354,5.1-1.354" transform="translate(-76.95 157.825)" fill="#f68d11"/>
        <path id="path38" d="M47.976-50.253,42.5-52.08V-60l5.483,1.625-.007,8.123" transform="translate(-35.596 85.586)" fill="#f68d11"/>
        <path id="path40" d="M85-58.375,90.483-60l-.019,7.914L85-50.253v-8.123" transform="translate(-71.192 85.586)" fill="#f68d11"/>
        <path id="path42" d="M59.528-73.421,54.418-75l-5.043,1.579,5.051,1.354,5.1-1.354" transform="translate(-41.354 98.149)" fill="#f68d11"/>
        <path id="path44" d="M184.439-43.094h-.4a.411.411,0,0,0-.383.262l-1.222,4.306-1.209-4.3a.362.362,0,0,0-.336-.271h-.477a.357.357,0,0,0-.332.274l-1.125,4.252-1.162-4.265a.425.425,0,0,0-.39-.261h-.58a.371.371,0,0,0-.3.139.2.2,0,0,0-.034.181l1.8,6.355a.353.353,0,0,0,.325.268h.577a.349.349,0,0,0,.332-.275l1.1-4.233,1.2,4.238a.352.352,0,0,0,.323.27h.567a.341.341,0,0,0,.33-.27l1.728-6.35a.206.206,0,0,0-.033-.186.366.366,0,0,0-.3-.137" transform="translate(-147.808 71.427)" fill="#100f0d"/>
        <path id="path46" d="M233.092-40.63h-3.046a1.786,1.786,0,0,1,1.565-1.775A1.621,1.621,0,0,1,233.092-40.63Zm-1.483-2.744c-2.057,0-2.994,1.819-2.994,3.509,0,2.109,1.165,3.471,2.967,3.471a2.716,2.716,0,0,0,2.7-1.791.24.24,0,0,0-.02-.2.336.336,0,0,0-.222-.156l-.571-.109a.38.38,0,0,0-.387.2,1.56,1.56,0,0,1-1.418,1.01,1.646,1.646,0,0,1-1.428-.924,3.02,3.02,0,0,1-.243-1.323h4.135a.345.345,0,0,0,.24-.1.262.262,0,0,0,.081-.186c-.01-1.643-.761-3.4-2.838-3.4" transform="translate(-191.476 71.661)" fill="#100f0d"/>
        <path id="path48" d="M274.035-50.993c0,.389-.07,2.332-1.451,2.382a1.54,1.54,0,0,1-1.191-.692,2.6,2.6,0,0,1-.333-1.244v-1.143a1.846,1.846,0,0,1,1.52-1.874c1.385.055,1.455,2.151,1.455,2.571ZM272.8-54.571h-.109a1.9,1.9,0,0,0-1.632.865v-2.679a.321.321,0,0,0-.327-.288h-.595a.325.325,0,0,0-.33.288v8.363a.323.323,0,0,0,.327.29h.175a.356.356,0,0,0,.322-.256l.186-.59a2.186,2.186,0,0,0,1.779.974h.107c1.835,0,2.656-1.785,2.656-3.553a4.381,4.381,0,0,0-.6-2.309,2.372,2.372,0,0,0-1.964-1.1" transform="translate(-225.977 82.799)" fill="#100f0d"/>
        <path id="path50" d="M319.745-39.974a3.278,3.278,0,0,0-1.317-.464l-.893-.166c-.641-.105-1.011-.277-1.011-.842,0-.6.619-.826,1.145-.84a1.441,1.441,0,0,1,1.358.806.347.347,0,0,0,.307.2.311.311,0,0,0,.065-.007l.557-.123a.346.346,0,0,0,.221-.163.239.239,0,0,0,.023-.2,2.373,2.373,0,0,0-2.516-1.518c-1.183,0-2.448.529-2.448,2,0,1,.631,1.642,1.877,1.9l1,.19c.549.105,1.11.292,1.11.881,0,.872-1.015.961-1.322.967a1.684,1.684,0,0,1-1.657-.972.332.332,0,0,0-.376-.211l-.583.12a.337.337,0,0,0-.215.153.255.255,0,0,0-.032.2,2.648,2.648,0,0,0,2.786,1.74h.032c1.289,0,2.667-.552,2.667-2.1a1.87,1.87,0,0,0-.778-1.547" transform="translate(-263.852 71.592)" fill="#100f0d"/>
        <path id="path52" d="M357.257-40.593H354.21a1.783,1.783,0,0,1,1.565-1.775A1.621,1.621,0,0,1,357.257-40.593Zm-1.483-2.744c-2.058,0-2.995,1.819-2.995,3.509,0,2.109,1.165,3.471,2.968,3.471a2.717,2.717,0,0,0,2.7-1.79.241.241,0,0,0-.02-.2.335.335,0,0,0-.222-.156l-.572-.109a.374.374,0,0,0-.386.2,1.563,1.563,0,0,1-1.417,1.011,1.645,1.645,0,0,1-1.428-.924,3.005,3.005,0,0,1-.243-1.323h4.134a.345.345,0,0,0,.239-.1.262.262,0,0,0,.081-.186c-.01-1.643-.76-3.4-2.837-3.4" transform="translate(-295.469 71.631)" fill="#100f0d"/>
        <path id="path54" d="M397.017-42.929a2.13,2.13,0,0,0-.233-.013,1.843,1.843,0,0,0-1.648,1.1v-.631a.318.318,0,0,0-.326-.287h-.516a.315.315,0,0,0-.32.29v6.131a.314.314,0,0,0,.32.289h.6a.329.329,0,0,0,.335-.289v-3.091a2.586,2.586,0,0,1,.291-1.348,1.62,1.62,0,0,1,1.485-.97.316.316,0,0,0,.307-.305v-.573a.32.32,0,0,0-.3-.3" transform="translate(-329.971 71.3)" fill="#100f0d"/>
        <path id="path56" d="M423.83-43.6h-.476a.424.424,0,0,0-.386.264l-1.542,4.847-1.575-4.842a.424.424,0,0,0-.388-.269h-.679a.384.384,0,0,0-.307.142.2.2,0,0,0-.032.184l2.156,6.394a.365.365,0,0,0,.325.274h.822a.356.356,0,0,0,.331-.275l2.091-6.392a.2.2,0,0,0-.031-.184.384.384,0,0,0-.307-.143" transform="translate(-350.458 71.855)" fill="#100f0d"/>
        <path id="path58" d="M457.176-58.732a.8.8,0,0,0-.795.8.8.8,0,0,0,.795.8.8.8,0,0,0,.8-.8.8.8,0,0,0-.8-.8" transform="translate(-382.241 84.525)" fill="#100f0d"/>
        <path id="path60" d="M458.157-43.846H457.5a.335.335,0,0,0-.339.3l0,6.51a.284.284,0,0,0,.111.215.366.366,0,0,0,.229.083h.658a.331.331,0,0,0,.338-.3v-6.51a.331.331,0,0,0-.341-.3" transform="translate(-382.895 72.057)" fill="#100f0d"/>
        <path id="path62" d="M475.293-38.919l-.545,0a.352.352,0,0,0-.336.25c-.2.859-.65,1.3-1.333,1.323-1.331-.04-1.435-1.9-1.435-2.463,0-1.132.392-2.354,1.487-2.386a1.373,1.373,0,0,1,1.286,1.266.357.357,0,0,0,.314.3l.583.006a.329.329,0,0,0,.31-.314,2.477,2.477,0,0,0-2.465-2.3h-.1c-1.879,0-2.72,1.754-2.72,3.492,0,1.594.709,3.454,2.71,3.454h.1A2.55,2.55,0,0,0,475.63-38.6a.257.257,0,0,0-.066-.192.385.385,0,0,0-.272-.123" transform="translate(-393.933 71.545)" fill="#100f0d"/>
        <path id="path64" d="M510.858-40.593h-3.047a1.783,1.783,0,0,1,1.566-1.775A1.621,1.621,0,0,1,510.858-40.593Zm-1.483-2.744c-2.057,0-2.994,1.819-2.994,3.509,0,2.109,1.165,3.471,2.968,3.471a2.717,2.717,0,0,0,2.7-1.79.244.244,0,0,0-.021-.2.333.333,0,0,0-.222-.156l-.571-.109a.374.374,0,0,0-.386.2,1.565,1.565,0,0,1-1.418,1.011A1.645,1.645,0,0,1,508-38.327a3.01,3.01,0,0,1-.244-1.323h4.135a.345.345,0,0,0,.24-.1.262.262,0,0,0,.08-.186c-.01-1.643-.76-3.4-2.838-3.4" transform="translate(-424.117 71.631)" fill="#100f0d"/>
        <path id="path66" d="M549.85-39.974a3.281,3.281,0,0,0-1.318-.464l-.893-.166c-.64-.105-1.011-.277-1.011-.842,0-.771.957-.835,1.143-.84a1.44,1.44,0,0,1,1.358.806.348.348,0,0,0,.308.2.316.316,0,0,0,.066-.007l.557-.123a.346.346,0,0,0,.221-.164.24.24,0,0,0,.022-.2,2.373,2.373,0,0,0-2.517-1.518c-1.183,0-2.447.529-2.447,2,0,1,.631,1.642,1.877,1.9l1,.19c.549.105,1.11.292,1.11.881,0,.872-1.015.961-1.322.967a1.673,1.673,0,0,1-1.657-.971.331.331,0,0,0-.377-.212l-.582.12a.338.338,0,0,0-.215.153.254.254,0,0,0-.032.2,2.646,2.646,0,0,0,2.785,1.74h.032c1.29,0,2.668-.552,2.668-2.1a1.869,1.869,0,0,0-.778-1.547" transform="translate(-456.575 71.592)" fill="#100f0d"/>
        <path id="path68" d="M408.946-130.551v-1.478a.366.366,0,0,1,.375-.374h6.623a.369.369,0,0,1,.382.373v1.268a2.084,2.084,0,0,1-.5.93l-3.43,4.9a7.341,7.341,0,0,1,3.777.811.678.678,0,0,1,.352.576v1.577c0,.218-.238.469-.488.338a7.63,7.63,0,0,0-7,.012c-.23.123-.471-.125-.471-.342v-1.5a1.789,1.789,0,0,1,.246-1.016l3.975-5.7h-3.46a.369.369,0,0,1-.383-.372" transform="translate(-342.196 146.228)" fill="#100f0d" fill-rule="evenodd"/>
        <path id="path70" d="M249.934-122.3h-2.015a.38.38,0,0,1-.36-.341v-10.342a.38.38,0,0,1,.389-.372h1.877a.382.382,0,0,1,.367.347v1.351h.037a2.656,2.656,0,0,1,2.651-1.915,2.66,2.66,0,0,1,2.614,1.915,2.861,2.861,0,0,1,2.785-1.915,2.857,2.857,0,0,1,2.331,1.131c.639.871.508,2.132.508,3.243v6.526a.38.38,0,0,1-.388.373h-2.012a.379.379,0,0,1-.362-.372v-5.483a13.271,13.271,0,0,0-.057-1.937,1.05,1.05,0,0,0-1.185-.892,1.337,1.337,0,0,0-1.2.848,6.267,6.267,0,0,0-.188,1.981v5.482a.381.381,0,0,1-.389.373H253.32a.379.379,0,0,1-.361-.372l0-5.483c0-1.154.189-2.85-1.241-2.85-1.448,0-1.392,1.653-1.392,2.85v5.482a.38.38,0,0,1-.388.373" transform="translate(-207.342 147.206)" fill="#100f0d" fill-rule="evenodd"/>
        <path id="path72" d="M468.068-131.461c-1.487,0-1.58,2.024-1.58,3.286s-.019,3.96,1.562,3.96c1.561,0,1.636-2.176,1.636-3.5a9.562,9.562,0,0,0-.3-2.742A1.262,1.262,0,0,0,468.068-131.461Zm-.018-2.11c2.99,0,4.608,2.568,4.608,5.831,0,3.156-1.788,5.659-4.608,5.659-2.935,0-4.534-2.568-4.534-5.767,0-3.221,1.617-5.722,4.534-5.722" transform="translate(-388.217 147.206)" fill="#100f0d" fill-rule="evenodd"/>
        <path id="path74" d="M531.435-122.3h-2.008a.379.379,0,0,1-.362-.372l0-10.346a.381.381,0,0,1,.386-.337h1.87a.384.384,0,0,1,.358.29v1.582h.038a2.739,2.739,0,0,1,2.745-2.088,2.641,2.641,0,0,1,2.352,1.218,6.581,6.581,0,0,1,.526,3.22v6.508a.382.382,0,0,1-.385.326h-2.021a.382.382,0,0,1-.359-.326v-5.615c0-1.132.132-2.786-1.26-2.786a1.32,1.32,0,0,0-1.166.827,4.591,4.591,0,0,0-.32,1.959v5.569a.386.386,0,0,1-.392.373" transform="translate(-443.115 147.206)" fill="#100f0d" fill-rule="evenodd"/>
        <path id="path76" d="M349.817-122.845a.418.418,0,0,1-.476.047,4.925,4.925,0,0,1-1.155-1.343,3.993,3.993,0,0,1-3.322,1.465,2.86,2.86,0,0,1-3.016-3.141A3.423,3.423,0,0,1,344-129.111a13.947,13.947,0,0,1,3.789-.7v-.261a2.577,2.577,0,0,0-.246-1.461,1.344,1.344,0,0,0-1.131-.523,1.535,1.535,0,0,0-1.62,1.21.424.424,0,0,1-.35.37l-1.952-.212a.354.354,0,0,1-.3-.421c.449-2.37,2.588-3.086,4.506-3.086a4.573,4.573,0,0,1,3.035,1c.98.916.885,2.138.885,3.468v3.139a2.751,2.751,0,0,0,.761,1.868.381.381,0,0,1-.008.536c-.411.345-1.143.979-1.545,1.338l-.005,0Zm-2.031-4.913a3.951,3.951,0,0,1-.377,2.138,1.636,1.636,0,0,1-1.4.916c-.772,0-1.224-.589-1.224-1.461,0-1.716,1.54-2.028,3-2.028v.436" transform="translate(-286.315 147.726)" fill="#100f0d" fill-rule="evenodd"/>
        <path id="path78" d="M187.217-122.845a.419.419,0,0,1-.477.047,4.933,4.933,0,0,1-1.155-1.343,3.993,3.993,0,0,1-3.322,1.465,2.86,2.86,0,0,1-3.016-3.141,3.424,3.424,0,0,1,2.149-3.293,13.949,13.949,0,0,1,3.789-.7v-.261a2.577,2.577,0,0,0-.245-1.461,1.346,1.346,0,0,0-1.131-.523,1.535,1.535,0,0,0-1.62,1.21.425.425,0,0,1-.35.37l-1.953-.212a.354.354,0,0,1-.3-.421c.449-2.37,2.588-3.086,4.506-3.086a4.572,4.572,0,0,1,3.035,1c.98.916.886,2.138.886,3.468v3.139a2.755,2.755,0,0,0,.761,1.868.381.381,0,0,1-.006.536c-.412.345-1.143.979-1.545,1.338l0,0Zm-2.032-4.913a3.958,3.958,0,0,1-.377,2.138,1.636,1.636,0,0,1-1.395.916c-.774,0-1.226-.589-1.226-1.461,0-1.716,1.539-2.028,3-2.028v.436" transform="translate(-150.128 147.726)" fill="#100f0d" fill-rule="evenodd"/>
      </g>
    </g>
  </g>
</svg>
