<svg xmlns="http://www.w3.org/2000/svg" xmlns:xlink="http://www.w3.org/1999/xlink" width="222" height="60" viewBox="0 0 222 60">
  <defs>
    <clipPath id="clip-Web_1920_19">
      <rect width="222" height="60"/>
    </clipPath>
  </defs>
  <g id="Web_1920_19" data-name="Web 1920 – 19" clip-path="url(#clip-Web_1920_19)">
    <rect width="222" height="60" fill="#fff"/>
    <g id="layer1" transform="translate(738.93 -298.854)">
      <g id="layer1-1" transform="translate(-677.93 313.854)">
        <path id="path21" d="M-2.048,24.017C2.775,23.165,6.758,22.46,6.8,22.45l.083-.018L2.334,17.016c-2.5-2.979-4.553-5.428-4.553-5.442S2.482-1.4,2.508-1.446c.009-.015,3.209,5.509,7.756,13.391l7.8,13.521.059.1-14.471,0-14.471,0,8.769-1.549Zm55.495-1.31c-2.2-.141-3.484-1.4-3.823-3.743a33.488,33.488,0,0,1-.1-4.7l-.009-3.924h1.95l.008,3.8c.007,3.421.011,3.822.044,4.063a3.6,3.6,0,0,0,.847,2.1,2.429,2.429,0,0,0,1.365.715,5.192,5.192,0,0,0,1.309,0,2.894,2.894,0,0,0,1.484-.806,3.922,3.922,0,0,0,1-1.917l.058-.258.006-3.828.006-3.828h1.991V22.422h-1.97v-.955a7.234,7.234,0,0,0-.022-.947.784.784,0,0,0-.112.172,4,4,0,0,1-1.525,1.526,4.28,4.28,0,0,1-2.506.489ZM75.8,22.7a5.165,5.165,0,0,1-2.266-.74,5.521,5.521,0,0,1-2.489-4.29,10.369,10.369,0,0,1-.024-2.187,7.1,7.1,0,0,1,1.4-3.488,7.131,7.131,0,0,1,.843-.843,5.253,5.253,0,0,1,2.152-1.027,7,7,0,0,1,1.745-.1,4.59,4.59,0,0,1,3.094,1.589,6.074,6.074,0,0,1,1.249,3.777c.008.247.011.681,0,.964l-.011.514-4.267.005-4.267.005v.19a4.719,4.719,0,0,0,.385,1.8,3.961,3.961,0,0,0,.868,1.269,3.815,3.815,0,0,0,2.163.915A8.436,8.436,0,0,0,77.794,21a5.99,5.99,0,0,0,2.665-1.1c.089-.066.173-.128.188-.138a3.6,3.6,0,0,1,.027.889v.906l-.2.125a7.062,7.062,0,0,1-2.859.991A16.417,16.417,0,0,1,75.8,22.7Zm3.713-7.64a3.877,3.877,0,0,0-.988-2.6,2.715,2.715,0,0,0-1.507-.731,4.451,4.451,0,0,0-1.169.033,3.057,3.057,0,0,0-1.6.848,4.349,4.349,0,0,0-1.056,1.69,5.426,5.426,0,0,0-.2.831l-.014.1h6.534ZM21.64,22.395c0-.015,1.454-3.821,3.22-8.459L28.071,5.5h2.063l.086.219c.262.671,6.428,16.679,6.428,16.688s-.494.01-1.1.01h-1.1l-.889-2.366-.889-2.366H25.518l-.031.08c-.017.044-.4,1.109-.844,2.366l-.813,2.286h-1.1a5.93,5.93,0,0,1-1.091-.026Zm10.381-6.511s-.6-1.625-1.329-3.6A30.345,30.345,0,0,1,29.14,7.764c-.051-.279-.076-.286-.106-.032a5.906,5.906,0,0,1-.187.814c-.036.112-.651,1.8-1.368,3.756s-1.3,3.561-1.3,3.571,1.315.018,2.923.018,2.923,0,2.923-.007Zm5.289,6.23v-.308l3.565-4.9L44.441,12l-3.228-.011-3.228-.011-.006-.819-.006-.819h9.337V10.9l-3.565,4.928c-1.961,2.71-3.565,4.932-3.565,4.938s1.585.01,3.523.01h3.523v1.649H37.311Zm26.161.294c-.008-.008-.014-2.725-.014-6.039V10.344h1.949v1.242c0,.683.008,1.242.018,1.242a1.106,1.106,0,0,0,.105-.248A4.293,4.293,0,0,1,66.618,10.9a2.821,2.821,0,0,1,1.539-.765,3.19,3.19,0,0,1,.642-.023,2.845,2.845,0,0,1,.894.125l.08.026v2.023l-.23-.115a2.459,2.459,0,0,0-1.29-.259,2.336,2.336,0,0,0-.771.151,2.439,2.439,0,0,0-1.228,1,5.826,5.826,0,0,0-.815,2.343c-.016.143-.025,1.31-.029,3.611l-.006,3.4h-.96c-.528,0-.966-.006-.974-.014Zm-82.887-.042c0-.008,2.146-3.732,4.768-8.277L-9.88,5.826l5.556-4.663C-1.267-1.4,1.241-3.5,1.251-3.507a.977.977,0,0,1-.089.225L-4.871,9.659-10.8,22.368l-4.309.005c-2.37,0-4.309,0-4.309-.008Z" transform="translate(19.415 3.507)" fill="#0089d6"/>
      </g>
    </g>
  </g>
</svg>
