<svg xmlns="http://www.w3.org/2000/svg" xmlns:xlink="http://www.w3.org/1999/xlink" width="222" height="60" viewBox="0 0 222 60">
  <defs>
    <linearGradient id="linear-gradient" x1="3.021" y1="0.798" x2="2.909" y2="0.769" gradientUnits="objectBoundingBox">
      <stop offset="0" stop-color="#00a0ff"/>
      <stop offset="0.007" stop-color="#00a1ff"/>
      <stop offset="0.26" stop-color="#00beff"/>
      <stop offset="0.512" stop-color="#00d2ff"/>
      <stop offset="0.76" stop-color="#00dfff"/>
      <stop offset="1" stop-color="#00e3ff"/>
    </linearGradient>
    <linearGradient id="linear-gradient-2" x1="2.632" y1="1.244" x2="2.371" y2="1.244" gradientUnits="objectBoundingBox">
      <stop offset="0" stop-color="#ffe000"/>
      <stop offset="0.409" stop-color="#ffbd00"/>
      <stop offset="0.775" stop-color="orange"/>
      <stop offset="1" stop-color="#ff9c00"/>
    </linearGradient>
    <linearGradient id="linear-gradient-3" x1="2.36" y1="0.504" x2="2.27" y2="0.351" gradientUnits="objectBoundingBox">
      <stop offset="0" stop-color="#ff3a44"/>
      <stop offset="1" stop-color="#c31162"/>
    </linearGradient>
    <linearGradient id="linear-gradient-4" x1="2.29" y1="1.652" x2="2.331" y2="1.583" gradientUnits="objectBoundingBox">
      <stop offset="0" stop-color="#32a071"/>
      <stop offset="0.069" stop-color="#2da771"/>
      <stop offset="0.476" stop-color="#15cf74"/>
      <stop offset="0.801" stop-color="#06e775"/>
      <stop offset="1" stop-color="#00f076"/>
    </linearGradient>
    <clipPath id="clip-Web_1920_13">
      <rect width="222" height="60"/>
    </clipPath>
  </defs>
  <g id="Web_1920_13" data-name="Web 1920 – 13" clip-path="url(#clip-Web_1920_13)">
    <rect width="222" height="60" fill="#fff"/>
    <g id="google-play-4" transform="translate(49 15.992)">
      <path id="Path_36" data-name="Path 36" d="M.513,24.375A2.283,2.283,0,0,0,0,25.965V50.89a2.177,2.177,0,0,0,.526,1.578l.088.075L14.58,38.577v-.314L.6,24.3Z" transform="translate(0 -23.922)" fill-rule="evenodd" fill="url(#linear-gradient)"/>
      <path id="Path_37" data-name="Path 37" d="M960.958,644.746l-4.658-4.66v-.326l4.66-4.66.1.062,5.511,3.132c1.578.89,1.578,2.355,0,3.257l-5.511,3.132Z" transform="translate(-941.732 -625.417)" fill-rule="evenodd" fill="url(#linear-gradient-2)"/>
      <path id="Path_38" data-name="Path 38" d="M52.513,956.46l-4.759-4.76L33.7,965.754a1.842,1.842,0,0,0,2.343.075Z" transform="translate(-33.187 -937.194)" fill-rule="evenodd" fill="url(#linear-gradient-3)"/>
      <path id="Path_39" data-name="Path 39" d="M52.513,10.011,36.043.654A1.827,1.827,0,0,0,33.7.729L47.753,14.77Z" transform="translate(-33.187 -0.264)" fill-rule="evenodd" fill="url(#linear-gradient-4)"/>
      <path id="Path_40" data-name="Path 40" d="M53.2,1257.6l-16.358,9.294a1.858,1.858,0,0,1-2.255.012l-.088.088.088.075a1.861,1.861,0,0,0,2.255-.012l16.47-9.356Z" transform="translate(-33.974 -1238.434)" fill-rule="evenodd" opacity="0.2"/>
      <path id="Path_41" data-name="Path 41" d="M1266.924,953.165l-5.624,3.194.1.1,5.511-3.132a1.975,1.975,0,0,0,1.177-1.628A2.037,2.037,0,0,1,1266.924,953.165Z" transform="translate(-1242.086 -937.194)" fill-rule="evenodd" opacity="0.12"/>
      <path id="Path_42" data-name="Path 42" d="M2.856.554,24.838,13.042a2.066,2.066,0,0,1,1.178,1.465,1.977,1.977,0,0,0-1.178-1.628L2.856.391C1.278-.511,0,.24,0,2.043v.163C0,.4,1.278-.336,2.856.554Z" transform="translate(0 0)" fill="#fff" fill-rule="evenodd" opacity="0.25"/>
      <g id="Group_24" data-name="Group 24" transform="translate(31.378 6.472)">
        <path id="Path_43" data-name="Path 43" d="M2059.8,431.544a7.344,7.344,0,0,1,7.349-7.244,6.91,6.91,0,0,1,4.963,2l-1.4,1.4a5.042,5.042,0,0,0-3.569-1.412,5.265,5.265,0,0,0,0,10.529,4.836,4.836,0,0,0,3.656-1.45,4.139,4.139,0,0,0,1.079-2.491h-4.731v-1.974h6.66a7.124,7.124,0,0,1-1.609,5.865,6.624,6.624,0,0,1-5.053,2.032,7.342,7.342,0,0,1-7.35-7.244Zm19.5-2.084a4.663,4.663,0,1,0,4.681,4.661A4.6,4.6,0,0,0,2079.3,429.46Zm0,7.492a2.835,2.835,0,1,1,2.631-2.827A2.7,2.7,0,0,1,2079.3,436.951Zm10.214-7.492a4.663,4.663,0,1,0,4.681,4.661A4.6,4.6,0,0,0,2089.516,429.46Zm0,7.492a2.835,2.835,0,1,1,2.632-2.827A2.7,2.7,0,0,1,2089.516,436.951Zm12.536-7.208v.759h-.07a3.221,3.221,0,0,0-2.454-1.043,4.669,4.669,0,0,0,0,9.331,3.176,3.176,0,0,0,2.454-1.059h.07v.67c0,1.784-.954,2.739-2.491,2.739a2.584,2.584,0,0,1-2.351-1.659l-1.785.742a4.447,4.447,0,0,0,4.135,2.756c2.4,0,4.433-1.415,4.433-4.859v-8.377Zm-2.349,7.208a2.837,2.837,0,0,1,0-5.653,2.849,2.849,0,0,1,0,5.653Zm5.705-12.156h2.05v13.71h-2.05Zm7.67,12.156a2.37,2.37,0,0,1-2.259-1.412l6.237-2.582-.215-.53a4.334,4.334,0,0,0-3.993-2.967,4.433,4.433,0,0,0-4.4,4.664,4.565,4.565,0,0,0,4.629,4.663,4.634,4.634,0,0,0,3.888-2.067l-1.59-1.059A2.664,2.664,0,0,1,2113.077,436.951Zm-.16-5.69a1.808,1.808,0,0,1,1.731.989l-4.171,1.732A2.56,2.56,0,0,1,2112.917,431.262Zm13.135-6.467h-4.9v13.71h2.046v-5.193h2.858a4.264,4.264,0,1,0,0-8.516Zm.053,6.608h-2.91v-4.7h2.91a2.351,2.351,0,1,1,0,4.7Zm7.62,7.1V424.8h-2.046v13.71Zm9.19-.024v-5.256c0-2.434-1.819-3.792-4.166-3.792a3.842,3.842,0,0,0-3.648,2.1l1.816.757a1.941,1.941,0,0,1,1.871-1.005,1.968,1.968,0,0,1,2.149,1.766v.142a4.516,4.516,0,0,0-2.134-.53c-1.958,0-3.95,1.075-3.95,3.086a3.167,3.167,0,0,0,3.4,3.016,2.884,2.884,0,0,0,2.609-1.339h.07v1.059h1.977Zm-4.41-1.532c-.67,0-1.606-.335-1.606-1.162,0-1.059,1.165-1.467,2.171-1.467a3.647,3.647,0,0,1,1.871.459,2.486,2.486,0,0,1-2.436,2.171Zm11.6-7.215-2.346,5.943h-.07l-2.434-5.943h-2.2l3.65,8.308-2.083,4.62h2.134l5.626-12.929Z" transform="translate(-2059.8 -424.3)" fill="#808285" fill-rule="evenodd"/>
      </g>
    </g>
  </g>
</svg>
