<svg xmlns="http://www.w3.org/2000/svg" xmlns:xlink="http://www.w3.org/1999/xlink" width="222" height="60" viewBox="0 0 222 60">
  <defs>
    <clipPath id="clip-Web_1920_14">
      <rect width="222" height="60"/>
    </clipPath>
  </defs>
  <g id="Web_1920_14" data-name="Web 1920 – 14" clip-path="url(#clip-Web_1920_14)">
    <rect width="222" height="60" fill="#fff"/>
    <path id="IOS_wordmark__2017_" data-name="IOS_wordmark_(2017)" d="M.886,23.046H4.692V6.845H.886v16.2ZM2.781,4.72a2.072,2.072,0,1,0,0-4.142,2.071,2.071,0,1,0,0,4.142ZM17.363.624c-6.435,0-10.47,4.387-10.47,11.4s4.035,11.387,10.47,11.387c6.419,0,10.455-4.371,10.455-11.387S23.783.624,17.363.624Zm0,3.363c3.928,0,6.435,3.118,6.435,8.04,0,4.906-2.507,8.024-6.435,8.024-3.943,0-6.435-3.118-6.435-8.024,0-4.922,2.491-8.04,6.435-8.04Zm12.06,12.854c.168,4.066,3.5,6.572,8.574,6.572,5.334,0,8.7-2.629,8.7-6.817,0-3.286-1.9-5.136-6.374-6.16l-2.537-.581c-2.705-.642-3.821-1.5-3.821-2.965,0-1.834,1.681-3.057,4.173-3.057,2.522,0,4.249,1.238,4.432,3.3h3.76c-.092-3.882-3.3-6.511-8.162-6.511-4.8,0-8.208,2.644-8.208,6.557,0,3.149,1.926,5.105,5.991,6.037l2.858.673c2.782.657,3.913,1.574,3.913,3.164,0,1.834-1.849,3.149-4.509,3.149-2.69,0-4.723-1.33-4.967-3.363H29.423Z" transform="translate(87.328 18.422)"/>
  </g>
</svg>
