<svg xmlns="http://www.w3.org/2000/svg" xmlns:xlink="http://www.w3.org/1999/xlink" width="222" height="60" viewBox="0 0 222 60">
  <defs>
    <clipPath id="clip-path">
      <rect id="Rectangle_3" data-name="Rectangle 3" width="76.016" height="46.556" fill="none"/>
    </clipPath>
    <clipPath id="clip-path-2">
      <path id="Path_48" data-name="Path 48" d="M103.427,51.2h0l-7.239,4.179a.874.874,0,0,0-.437.757V64.5a.873.873,0,0,0,.437.757l7.24,4.182a.877.877,0,0,0,.875,0l7.239-4.182a.876.876,0,0,0,.437-.757V56.133a.875.875,0,0,0-.438-.757L104.3,51.2a.882.882,0,0,0-.877,0" transform="translate(-95.752 -51.081)" fill="none"/>
    </clipPath>
    <linearGradient id="linear-gradient" x1="-0.681" y1="1.674" x2="-0.672" y2="1.674" gradientUnits="objectBoundingBox">
      <stop offset="0" stop-color="#3e863d"/>
      <stop offset="0.3" stop-color="#3e863d"/>
      <stop offset="0.5" stop-color="#55934f"/>
      <stop offset="0.8" stop-color="#5aad45"/>
      <stop offset="1" stop-color="#5aad45"/>
    </linearGradient>
    <clipPath id="clip-path-3">
      <path id="Path_49" data-name="Path 49" d="M96.613,65.121a.873.873,0,0,0,.258.226l6.21,3.587,1.034.595a.866.866,0,0,0,.676.083l7.635-13.981a.87.87,0,0,0-.2-.162l-4.74-2.737-2.506-1.442a.914.914,0,0,0-.227-.091Z" transform="translate(-96.613 -51.199)" fill="none"/>
    </clipPath>
    <linearGradient id="linear-gradient-2" x1="-0.683" y1="1.6" x2="-0.674" y2="1.6" gradientUnits="objectBoundingBox">
      <stop offset="0" stop-color="#3e863d"/>
      <stop offset="0.57" stop-color="#3e863d"/>
      <stop offset="0.72" stop-color="#619857"/>
      <stop offset="1" stop-color="#76ac64"/>
    </linearGradient>
    <clipPath id="clip-path-4">
      <path id="Path_50" data-name="Path 50" d="M105.525,51.091h0a.886.886,0,0,0-.35.112L97.952,55.37l7.784,14.178a.868.868,0,0,0,.311-.107l7.24-4.182a.877.877,0,0,0,.419-.581v-.021l-7.932-13.551a.911.911,0,0,0-.177-.017c-.024,0-.048,0-.072,0" transform="translate(-97.952 -51.088)" fill="none"/>
    </clipPath>
    <linearGradient id="linear-gradient-3" x1="-1.295" y1="1.946" x2="-1.282" y2="1.946" gradientUnits="objectBoundingBox">
      <stop offset="0" stop-color="#6bbf47"/>
      <stop offset="0.16" stop-color="#6bbf47"/>
      <stop offset="0.38" stop-color="#79b461"/>
      <stop offset="0.47" stop-color="#75ac64"/>
      <stop offset="0.7" stop-color="#659e5a"/>
      <stop offset="0.9" stop-color="#3e863d"/>
      <stop offset="1" stop-color="#3e863d"/>
    </linearGradient>
    <clipPath id="clip-Web_1920_15">
      <rect width="222" height="60"/>
    </clipPath>
  </defs>
  <g id="Web_1920_15" data-name="Web 1920 – 15" clip-path="url(#clip-Web_1920_15)">
    <rect width="222" height="60" fill="#fff"/>
    <g id="Group_33" data-name="Group 33" transform="translate(73 7)">
      <g id="Group_26" data-name="Group 26">
        <g id="Group_25" data-name="Group 25" clip-path="url(#clip-path)">
          <path id="Path_44" data-name="Path 44" d="M148.8,152.323a1.443,1.443,0,0,1-.72-.193l-2.292-1.357c-.342-.191-.175-.259-.062-.3a4.634,4.634,0,0,0,1.036-.473.175.175,0,0,1,.171.012l1.761,1.045a.232.232,0,0,0,.213,0l6.865-3.963a.216.216,0,0,0,.1-.185v-7.922a.221.221,0,0,0-.106-.189l-6.862-3.959a.211.211,0,0,0-.211,0L141.84,138.8a.219.219,0,0,0-.109.187v7.922a.212.212,0,0,0,.106.184l1.88,1.086c1.021.511,1.644-.091,1.644-.7v-7.819a.2.2,0,0,1,.2-.2h.869a.2.2,0,0,1,.2.2v7.822a1.9,1.9,0,0,1-2.033,2.143,2.943,2.943,0,0,1-1.583-.429l-1.8-1.038a1.452,1.452,0,0,1-.72-1.253v-7.922a1.442,1.442,0,0,1,.72-1.251l6.872-3.964a1.5,1.5,0,0,1,1.443,0l6.863,3.966a1.448,1.448,0,0,1,.72,1.251v7.922a1.452,1.452,0,0,1-.72,1.251l-6.863,3.964a1.443,1.443,0,0,1-.723.192" transform="translate(-111.233 -105.767)" fill="#689f63"/>
          <path id="Path_45" data-name="Path 45" d="M176.774,160.749c-3,0-3.634-1.379-3.634-2.535a.2.2,0,0,1,.2-.2h.887a.2.2,0,0,1,.2.168c.134.9.533,1.359,2.349,1.359,1.447,0,2.062-.327,2.062-1.094,0-.441-.175-.77-2.423-.989-1.88-.186-3.041-.6-3.041-2.1,0-1.385,1.168-2.21,3.126-2.21,2.2,0,3.287.763,3.425,2.4a.2.2,0,0,1-.053.153.2.2,0,0,1-.146.064h-.892a.2.2,0,0,1-.192-.155c-.215-.95-.734-1.254-2.145-1.254-1.579,0-1.763.55-1.763.962,0,.5.217.646,2.347.928,2.11.28,3.112.675,3.112,2.158s-1.247,2.352-3.423,2.352m8.362-8.4h.23a.2.2,0,0,0,.225-.21c0-.2-.139-.2-.217-.2h-.237Zm-.28-.65h.51c.175,0,.519,0,.519.392a.341.341,0,0,1-.28.364c.2.014.218.148.246.337a1.44,1.44,0,0,0,.077.392H185.6c-.009-.069-.057-.447-.057-.467-.021-.084-.05-.125-.155-.125h-.259v.595h-.287Zm-.614.739a1.109,1.109,0,1,0,1.105-1.107,1.111,1.111,0,0,0-1.105,1.107m2.433.005a1.323,1.323,0,1,1-1.323-1.323,1.327,1.327,0,0,1,1.323,1.323" transform="translate(-137.081 -119.651)" fill="#689f63"/>
          <path id="Path_46" data-name="Path 46" d="M16.314,15.559a.879.879,0,0,0-.44-.764L8.6,10.608a.852.852,0,0,0-.4-.115H8.12a.866.866,0,0,0-.4.115L.44,14.8A.886.886,0,0,0,0,15.56L.016,26.84a.433.433,0,0,0,.218.38.416.416,0,0,0,.437,0L5,24.742a.888.888,0,0,0,.44-.763V18.709a.877.877,0,0,1,.439-.761l1.842-1.061a.874.874,0,0,1,.44-.118.859.859,0,0,1,.437.118l1.841,1.061a.877.877,0,0,1,.44.761v5.269a.89.89,0,0,0,.441.763l4.324,2.476a.429.429,0,0,0,.44,0,.441.441,0,0,0,.218-.38Zm34.345,5.873a.218.218,0,0,1-.11.19l-2.5,1.441a.22.22,0,0,1-.219,0l-2.5-1.441a.218.218,0,0,1-.11-.19V18.546a.221.221,0,0,1,.108-.191l2.5-1.443a.222.222,0,0,1,.222,0l2.5,1.443a.219.219,0,0,1,.11.191ZM51.333.055A.439.439,0,0,0,50.68.44V11.609a.307.307,0,0,1-.461.266L48.4,10.825a.878.878,0,0,0-.879,0l-7.281,4.2a.877.877,0,0,0-.44.76v8.406a.88.88,0,0,0,.44.761l7.281,4.2a.883.883,0,0,0,.879,0l7.281-4.206a.881.881,0,0,0,.44-.761V3.241a.881.881,0,0,0-.452-.768ZM75.578,18.47a.879.879,0,0,0,.437-.76V15.673a.88.88,0,0,0-.438-.76l-7.234-4.2a.879.879,0,0,0-.882,0l-7.279,4.2a.878.878,0,0,0-.44.761v8.4a.882.882,0,0,0,.443.765l7.233,4.122a.877.877,0,0,0,.863.005l4.375-2.432a.439.439,0,0,0,0-.765l-7.324-4.2a.436.436,0,0,1-.222-.38V18.555a.436.436,0,0,1,.22-.381l2.279-1.315a.434.434,0,0,1,.438,0l2.28,1.315a.438.438,0,0,1,.22.38v2.072a.438.438,0,0,0,.66.38Z" transform="translate(0 0)" fill="#404137"/>
          <path id="Path_47" data-name="Path 47" d="M319.9,86.713a.167.167,0,0,1,.169,0l1.4.806a.169.169,0,0,1,.084.146v1.614a.169.169,0,0,1-.084.146l-1.4.806a.167.167,0,0,1-.169,0l-1.4-.806a.168.168,0,0,1-.086-.146V87.665a.166.166,0,0,1,.084-.146Z" transform="translate(-252.103 -68.636)" fill="#689f63"/>
        </g>
      </g>
      <g id="Group_28" data-name="Group 28" transform="translate(19.942 10.638)">
        <g id="Group_27" data-name="Group 27" clip-path="url(#clip-path-2)">
          <rect id="Rectangle_4" data-name="Rectangle 4" width="23.763" height="22.718" transform="matrix(0.44, -0.898, 0.898, 0.44, -7.316, 14.924)" fill="url(#linear-gradient)"/>
        </g>
      </g>
      <g id="Group_30" data-name="Group 30" transform="translate(20.121 10.663)">
        <g id="Group_29" data-name="Group 29" clip-path="url(#clip-path-3)">
          <rect id="Rectangle_5" data-name="Rectangle 5" width="23.687" height="24.242" transform="translate(-8.821 6.518) rotate(-36.46)" fill="url(#linear-gradient-2)"/>
        </g>
      </g>
      <g id="Group_32" data-name="Group 32" transform="translate(20.4 10.64)">
        <g id="Group_31" data-name="Group 31" clip-path="url(#clip-path-4)">
          <rect id="Rectangle_6" data-name="Rectangle 6" width="15.754" height="18.46" transform="translate(0 0)" fill="url(#linear-gradient-3)"/>
        </g>
      </g>
    </g>
  </g>
</svg>
