<svg xmlns="http://www.w3.org/2000/svg" xmlns:xlink="http://www.w3.org/1999/xlink" width="222" height="60" viewBox="0 0 222 60">
  <defs>
    <clipPath id="clip-Web_1920_16">
      <rect width="222" height="60"/>
    </clipPath>
  </defs>
  <g id="Web_1920_16" data-name="Web 1920 – 16" clip-path="url(#clip-Web_1920_16)">
    <rect width="222" height="60" fill="#fff"/>
    <g id="Microsoft_Office_2013_logo_and_wordmark" transform="translate(-154.574 -535.793)">
      <g id="Group_36" data-name="Group 36" transform="translate(216.574 549.793)">
        <g id="Group_35" data-name="Group 35" transform="translate(0 0)">
          <g id="Group_34" data-name="Group 34">
            <path id="Path_51" data-name="Path 51" d="M634.568,880.156V861.3l16.684-6.166,9.067,2.9V883.42l-9.067,2.733-16.684-6,16.684,2.008V860.208l-10.881,2.539v14.871Z" transform="translate(-634.568 -855.13)" fill="#eb3c00"/>
            <path id="Path_52" data-name="Path 52" d="M714.4,886.559a8.13,8.13,0,0,1-6.309-2.6,9.629,9.629,0,0,1-2.37-6.755,10.2,10.2,0,0,1,2.415-7.13,8.436,8.436,0,0,1,6.574-2.661A7.947,7.947,0,0,1,720.89,870a9.664,9.664,0,0,1,2.344,6.755,10.236,10.236,0,0,1-2.4,7.169,8.28,8.28,0,0,1-6.432,2.635Zm.155-17.179a5.972,5.972,0,0,0-4.74,2.105,9.366,9.366,0,0,0-.045,11.037,5.792,5.792,0,0,0,4.63,2.086,6.081,6.081,0,0,0,4.8-1.989,8.129,8.129,0,0,0,1.757-5.567,8.494,8.494,0,0,0-1.7-5.67,5.847,5.847,0,0,0-4.7-2Z" transform="translate(-670.879 -861.4)" fill="#eb3c00"/>
            <path id="Path_53" data-name="Path 53" d="M750.528,865.3a4.05,4.05,0,0,0-2.992,1.213,4.455,4.455,0,0,0-1.2,3.287v2.142h-2.255v1.813h2.255v11.414h2.108V873.759H753.6v11.414h2.108V873.759H758.8v-1.813h-3.094v-2.04q0-2.8,2.222-2.8a2.809,2.809,0,0,1,1.405.34v-1.9a4.525,4.525,0,0,0-4.534.975,4.455,4.455,0,0,0-1.2,3.287v2.142h-5.157v-2.04q0-2.8,2.222-2.8a2.808,2.808,0,0,1,1.405.34v-1.9a4.166,4.166,0,0,0-1.541-.238Z" transform="translate(-690.455 -860.322)" fill="#eb3c00"/>
            <path id="Path_54" data-name="Path 54" d="M779.011,869.135a1.342,1.342,0,0,1-.969-.387,1.308,1.308,0,0,1-.4-.982,1.356,1.356,0,0,1,1.369-1.382,1.368,1.368,0,0,1,.988.394,1.38,1.38,0,0,1,0,1.957A1.356,1.356,0,0,1,779.011,869.135Zm1.033,16.584h-2.118V872.494h2.118Z" transform="translate(-707.583 -860.873)" fill="#eb3c00"/>
            <path id="Path_55" data-name="Path 55" d="M796.786,891.157a6.883,6.883,0,0,1-3.617.917,5.988,5.988,0,0,1-4.566-1.841,6.67,6.67,0,0,1-1.737-4.773,7.334,7.334,0,0,1,1.873-5.25,6.552,6.552,0,0,1,5-1.983,6.957,6.957,0,0,1,3.074.646v2.17a5.386,5.386,0,0,0-3.151-1.033,4.259,4.259,0,0,0-3.326,1.453,5.514,5.514,0,0,0-1.3,3.817,5.25,5.25,0,0,0,1.221,3.668,4.207,4.207,0,0,0,3.274,1.343,5.309,5.309,0,0,0,3.255-1.15Z" transform="translate(-712.29 -866.917)" fill="#eb3c00"/>
            <path id="Path_56" data-name="Path 56" d="M821.546,885.682h-9.338a4.947,4.947,0,0,0,1.188,3.41,4.1,4.1,0,0,0,3.126,1.2,6.5,6.5,0,0,0,4.107-1.472v1.989a7.677,7.677,0,0,1-4.611,1.266,5.59,5.59,0,0,1-4.4-1.8,7.375,7.375,0,0,1-1.6-5.07,7.232,7.232,0,0,1,1.75-5.031,5.612,5.612,0,0,1,4.346-1.944,4.972,4.972,0,0,1,4.017,1.679,7,7,0,0,1,1.421,4.663Zm-2.17-1.8a4.31,4.31,0,0,0-.885-2.854,3.015,3.015,0,0,0-2.422-1.02,3.422,3.422,0,0,0-2.544,1.072,4.866,4.866,0,0,0-1.292,2.8Z" transform="translate(-724.103 -866.918)" fill="#eb3c00"/>
          </g>
        </g>
      </g>
    </g>
  </g>
</svg>
